<?xml version="1.0" encoding="utf-8"?>
<svg xmlns="http://www.w3.org/2000/svg" xmlns:xlink="http://www.w3.org/1999/xlink" width="672" height="480" viewBox="0 0 2688 1920">
<defs>
  <clipPath id="clip870">
    <rect x="0" y="0" width="2688" height="1920"/>
  </clipPath>
</defs>
<path clip-path="url(#clip870)" d="
M0 1920 L2688 1920 L2688 0 L0 0  Z
  " fill="#ffffff" fill-rule="evenodd" fill-opacity="1"/>
<defs>
  <clipPath id="clip871">
    <rect x="537" y="0" width="1883" height="1883"/>
  </clipPath>
</defs>
<path clip-path="url(#clip870)" d="
M144.733 1800.78 L2640.76 1800.78 L2640.76 47.2441 L144.733 47.2441  Z
  " fill="#ffffff" fill-rule="evenodd" fill-opacity="1"/>
<defs>
  <clipPath id="clip872">
    <rect x="144" y="47" width="2497" height="1755"/>
  </clipPath>
</defs>
<polyline clip-path="url(#clip872)" style="stroke:#000000; stroke-linecap:butt; stroke-linejoin:round; stroke-width:2; stroke-opacity:0.1; fill:none" points="
  215.375,1800.78 215.375,47.2441 
  "/>
<polyline clip-path="url(#clip872)" style="stroke:#000000; stroke-linecap:butt; stroke-linejoin:round; stroke-width:2; stroke-opacity:0.1; fill:none" points="
  634.602,1800.78 634.602,47.2441 
  "/>
<polyline clip-path="url(#clip872)" style="stroke:#000000; stroke-linecap:butt; stroke-linejoin:round; stroke-width:2; stroke-opacity:0.1; fill:none" points="
  1053.83,1800.78 1053.83,47.2441 
  "/>
<polyline clip-path="url(#clip872)" style="stroke:#000000; stroke-linecap:butt; stroke-linejoin:round; stroke-width:2; stroke-opacity:0.1; fill:none" points="
  1473.06,1800.78 1473.06,47.2441 
  "/>
<polyline clip-path="url(#clip872)" style="stroke:#000000; stroke-linecap:butt; stroke-linejoin:round; stroke-width:2; stroke-opacity:0.1; fill:none" points="
  1892.28,1800.78 1892.28,47.2441 
  "/>
<polyline clip-path="url(#clip872)" style="stroke:#000000; stroke-linecap:butt; stroke-linejoin:round; stroke-width:2; stroke-opacity:0.1; fill:none" points="
  2311.51,1800.78 2311.51,47.2441 
  "/>
<polyline clip-path="url(#clip870)" style="stroke:#000000; stroke-linecap:butt; stroke-linejoin:round; stroke-width:4; stroke-opacity:1; fill:none" points="
  144.733,1800.78 2640.76,1800.78 
  "/>
<polyline clip-path="url(#clip870)" style="stroke:#000000; stroke-linecap:butt; stroke-linejoin:round; stroke-width:4; stroke-opacity:1; fill:none" points="
  215.375,1800.78 215.375,1781.88 
  "/>
<polyline clip-path="url(#clip870)" style="stroke:#000000; stroke-linecap:butt; stroke-linejoin:round; stroke-width:4; stroke-opacity:1; fill:none" points="
  634.602,1800.78 634.602,1781.88 
  "/>
<polyline clip-path="url(#clip870)" style="stroke:#000000; stroke-linecap:butt; stroke-linejoin:round; stroke-width:4; stroke-opacity:1; fill:none" points="
  1053.83,1800.78 1053.83,1781.88 
  "/>
<polyline clip-path="url(#clip870)" style="stroke:#000000; stroke-linecap:butt; stroke-linejoin:round; stroke-width:4; stroke-opacity:1; fill:none" points="
  1473.06,1800.78 1473.06,1781.88 
  "/>
<polyline clip-path="url(#clip870)" style="stroke:#000000; stroke-linecap:butt; stroke-linejoin:round; stroke-width:4; stroke-opacity:1; fill:none" points="
  1892.28,1800.78 1892.28,1781.88 
  "/>
<polyline clip-path="url(#clip870)" style="stroke:#000000; stroke-linecap:butt; stroke-linejoin:round; stroke-width:4; stroke-opacity:1; fill:none" points="
  2311.51,1800.78 2311.51,1781.88 
  "/>
<path clip-path="url(#clip870)" d="M215.375 1834 Q211.764 1834 209.935 1837.57 Q208.13 1841.11 208.13 1848.24 Q208.13 1855.34 209.935 1858.91 Q211.764 1862.45 215.375 1862.45 Q219.009 1862.45 220.815 1858.91 Q222.644 1855.34 222.644 1848.24 Q222.644 1841.11 220.815 1837.57 Q219.009 1834 215.375 1834 M215.375 1830.3 Q221.185 1830.3 224.241 1834.9 Q227.319 1839.49 227.319 1848.24 Q227.319 1856.96 224.241 1861.57 Q221.185 1866.15 215.375 1866.15 Q209.565 1866.15 206.486 1861.57 Q203.431 1856.96 203.431 1848.24 Q203.431 1839.49 206.486 1834.9 Q209.565 1830.3 215.375 1830.3 Z" fill="#000000" fill-rule="evenodd" fill-opacity="1" /><path clip-path="url(#clip870)" d="M613.873 1861.55 L630.193 1861.55 L630.193 1865.48 L608.248 1865.48 L608.248 1861.55 Q610.91 1858.79 615.494 1854.16 Q620.1 1849.51 621.281 1848.17 Q623.526 1845.65 624.406 1843.91 Q625.308 1842.15 625.308 1840.46 Q625.308 1837.71 623.364 1835.97 Q621.443 1834.23 618.341 1834.23 Q616.142 1834.23 613.688 1835 Q611.258 1835.76 608.48 1837.31 L608.48 1832.59 Q611.304 1831.46 613.758 1830.88 Q616.211 1830.3 618.248 1830.3 Q623.619 1830.3 626.813 1832.98 Q630.008 1835.67 630.008 1840.16 Q630.008 1842.29 629.197 1844.21 Q628.41 1846.11 626.304 1848.7 Q625.725 1849.37 622.623 1852.59 Q619.521 1855.78 613.873 1861.55 Z" fill="#000000" fill-rule="evenodd" fill-opacity="1" /><path clip-path="url(#clip870)" d="M640.054 1830.92 L658.41 1830.92 L658.41 1834.86 L644.336 1834.86 L644.336 1843.33 Q645.355 1842.98 646.373 1842.82 Q647.392 1842.64 648.41 1842.64 Q654.197 1842.64 657.577 1845.81 Q660.956 1848.98 660.956 1854.4 Q660.956 1859.97 657.484 1863.08 Q654.012 1866.15 647.693 1866.15 Q645.517 1866.15 643.248 1865.78 Q641.003 1865.41 638.595 1864.67 L638.595 1859.97 Q640.679 1861.11 642.901 1861.66 Q645.123 1862.22 647.6 1862.22 Q651.605 1862.22 653.943 1860.11 Q656.281 1858.01 656.281 1854.4 Q656.281 1850.78 653.943 1848.68 Q651.605 1846.57 647.6 1846.57 Q645.725 1846.57 643.85 1846.99 Q641.998 1847.4 640.054 1848.28 L640.054 1830.92 Z" fill="#000000" fill-rule="evenodd" fill-opacity="1" /><path clip-path="url(#clip870)" d="M1028.53 1830.92 L1046.89 1830.92 L1046.89 1834.86 L1032.81 1834.86 L1032.81 1843.33 Q1033.83 1842.98 1034.85 1842.82 Q1035.87 1842.64 1036.89 1842.64 Q1042.67 1842.64 1046.05 1845.81 Q1049.43 1848.98 1049.43 1854.4 Q1049.43 1859.97 1045.96 1863.08 Q1042.49 1866.15 1036.17 1866.15 Q1033.99 1866.15 1031.72 1865.78 Q1029.48 1865.41 1027.07 1864.67 L1027.07 1859.97 Q1029.15 1861.11 1031.38 1861.66 Q1033.6 1862.22 1036.08 1862.22 Q1040.08 1862.22 1042.42 1860.11 Q1044.76 1858.01 1044.76 1854.4 Q1044.76 1850.78 1042.42 1848.68 Q1040.08 1846.57 1036.08 1846.57 Q1034.2 1846.57 1032.33 1846.99 Q1030.47 1847.4 1028.53 1848.28 L1028.53 1830.92 Z" fill="#000000" fill-rule="evenodd" fill-opacity="1" /><path clip-path="url(#clip870)" d="M1068.64 1834 Q1065.03 1834 1063.2 1837.57 Q1061.4 1841.11 1061.4 1848.24 Q1061.4 1855.34 1063.2 1858.91 Q1065.03 1862.45 1068.64 1862.45 Q1072.28 1862.45 1074.08 1858.91 Q1075.91 1855.34 1075.91 1848.24 Q1075.91 1841.11 1074.08 1837.57 Q1072.28 1834 1068.64 1834 M1068.64 1830.3 Q1074.45 1830.3 1077.51 1834.9 Q1080.59 1839.49 1080.59 1848.24 Q1080.59 1856.96 1077.51 1861.57 Q1074.45 1866.15 1068.64 1866.15 Q1062.83 1866.15 1059.76 1861.57 Q1056.7 1856.96 1056.7 1848.24 Q1056.7 1839.49 1059.76 1834.9 Q1062.83 1830.3 1068.64 1830.3 Z" fill="#000000" fill-rule="evenodd" fill-opacity="1" /><path clip-path="url(#clip870)" d="M1446.91 1830.92 L1469.13 1830.92 L1469.13 1832.91 L1456.59 1865.48 L1451.7 1865.48 L1463.51 1834.86 L1446.91 1834.86 L1446.91 1830.92 Z" fill="#000000" fill-rule="evenodd" fill-opacity="1" /><path clip-path="url(#clip870)" d="M1478.3 1830.92 L1496.66 1830.92 L1496.66 1834.86 L1482.58 1834.86 L1482.58 1843.33 Q1483.6 1842.98 1484.62 1842.82 Q1485.64 1842.64 1486.66 1842.64 Q1492.44 1842.64 1495.82 1845.81 Q1499.2 1848.98 1499.2 1854.4 Q1499.2 1859.97 1495.73 1863.08 Q1492.26 1866.15 1485.94 1866.15 Q1483.76 1866.15 1481.49 1865.78 Q1479.25 1865.41 1476.84 1864.67 L1476.84 1859.97 Q1478.93 1861.11 1481.15 1861.66 Q1483.37 1862.22 1485.85 1862.22 Q1489.85 1862.22 1492.19 1860.11 Q1494.53 1858.01 1494.53 1854.4 Q1494.53 1850.78 1492.19 1848.68 Q1489.85 1846.57 1485.85 1846.57 Q1483.97 1846.57 1482.1 1846.99 Q1480.24 1847.4 1478.3 1848.28 L1478.3 1830.92 Z" fill="#000000" fill-rule="evenodd" fill-opacity="1" /><path clip-path="url(#clip870)" d="M1851.89 1861.55 L1859.53 1861.55 L1859.53 1835.18 L1851.22 1836.85 L1851.22 1832.59 L1859.48 1830.92 L1864.16 1830.92 L1864.16 1861.55 L1871.8 1861.55 L1871.8 1865.48 L1851.89 1865.48 L1851.89 1861.55 Z" fill="#000000" fill-rule="evenodd" fill-opacity="1" /><path clip-path="url(#clip870)" d="M1891.24 1834 Q1887.63 1834 1885.8 1837.57 Q1884 1841.11 1884 1848.24 Q1884 1855.34 1885.8 1858.91 Q1887.63 1862.45 1891.24 1862.45 Q1894.88 1862.45 1896.68 1858.91 Q1898.51 1855.34 1898.51 1848.24 Q1898.51 1841.11 1896.68 1837.57 Q1894.88 1834 1891.24 1834 M1891.24 1830.3 Q1897.05 1830.3 1900.11 1834.9 Q1903.19 1839.49 1903.19 1848.24 Q1903.19 1856.96 1900.11 1861.57 Q1897.05 1866.15 1891.24 1866.15 Q1885.43 1866.15 1882.35 1861.57 Q1879.3 1856.96 1879.3 1848.24 Q1879.3 1839.49 1882.35 1834.9 Q1885.43 1830.3 1891.24 1830.3 Z" fill="#000000" fill-rule="evenodd" fill-opacity="1" /><path clip-path="url(#clip870)" d="M1921.4 1834 Q1917.79 1834 1915.96 1837.57 Q1914.16 1841.11 1914.16 1848.24 Q1914.16 1855.34 1915.96 1858.91 Q1917.79 1862.45 1921.4 1862.45 Q1925.04 1862.45 1926.84 1858.91 Q1928.67 1855.34 1928.67 1848.24 Q1928.67 1841.11 1926.84 1837.57 Q1925.04 1834 1921.4 1834 M1921.4 1830.3 Q1927.21 1830.3 1930.27 1834.9 Q1933.35 1839.49 1933.35 1848.24 Q1933.35 1856.96 1930.27 1861.57 Q1927.21 1866.15 1921.4 1866.15 Q1915.59 1866.15 1912.52 1861.57 Q1909.46 1856.96 1909.46 1848.24 Q1909.46 1839.49 1912.52 1834.9 Q1915.59 1830.3 1921.4 1830.3 Z" fill="#000000" fill-rule="evenodd" fill-opacity="1" /><path clip-path="url(#clip870)" d="M2271.62 1861.55 L2279.25 1861.55 L2279.25 1835.18 L2270.94 1836.85 L2270.94 1832.59 L2279.21 1830.92 L2283.88 1830.92 L2283.88 1861.55 L2291.52 1861.55 L2291.52 1865.48 L2271.62 1865.48 L2271.62 1861.55 Z" fill="#000000" fill-rule="evenodd" fill-opacity="1" /><path clip-path="url(#clip870)" d="M2305 1861.55 L2321.31 1861.55 L2321.31 1865.48 L2299.37 1865.48 L2299.37 1861.55 Q2302.03 1858.79 2306.62 1854.16 Q2311.22 1849.51 2312.4 1848.17 Q2314.65 1845.65 2315.53 1843.91 Q2316.43 1842.15 2316.43 1840.46 Q2316.43 1837.71 2314.49 1835.97 Q2312.56 1834.23 2309.46 1834.23 Q2307.26 1834.23 2304.81 1835 Q2302.38 1835.76 2299.6 1837.31 L2299.6 1832.59 Q2302.43 1831.46 2304.88 1830.88 Q2307.33 1830.3 2309.37 1830.3 Q2314.74 1830.3 2317.94 1832.98 Q2321.13 1835.67 2321.13 1840.16 Q2321.13 1842.29 2320.32 1844.21 Q2319.53 1846.11 2317.43 1848.7 Q2316.85 1849.37 2313.75 1852.59 Q2310.64 1855.78 2305 1861.55 Z" fill="#000000" fill-rule="evenodd" fill-opacity="1" /><path clip-path="url(#clip870)" d="M2331.18 1830.92 L2349.53 1830.92 L2349.53 1834.86 L2335.46 1834.86 L2335.46 1843.33 Q2336.48 1842.98 2337.5 1842.82 Q2338.51 1842.64 2339.53 1842.64 Q2345.32 1842.64 2348.7 1845.81 Q2352.08 1848.98 2352.08 1854.4 Q2352.08 1859.97 2348.61 1863.08 Q2345.13 1866.15 2338.81 1866.15 Q2336.64 1866.15 2334.37 1865.78 Q2332.12 1865.41 2329.72 1864.67 L2329.72 1859.97 Q2331.8 1861.11 2334.02 1861.66 Q2336.25 1862.22 2338.72 1862.22 Q2342.73 1862.22 2345.06 1860.11 Q2347.4 1858.01 2347.4 1854.4 Q2347.4 1850.78 2345.06 1848.68 Q2342.73 1846.57 2338.72 1846.57 Q2336.85 1846.57 2334.97 1846.99 Q2333.12 1847.4 2331.18 1848.28 L2331.18 1830.92 Z" fill="#000000" fill-rule="evenodd" fill-opacity="1" /><polyline clip-path="url(#clip872)" style="stroke:#000000; stroke-linecap:butt; stroke-linejoin:round; stroke-width:2; stroke-opacity:0.1; fill:none" points="
  144.733,1751.15 2640.76,1751.15 
  "/>
<polyline clip-path="url(#clip872)" style="stroke:#000000; stroke-linecap:butt; stroke-linejoin:round; stroke-width:2; stroke-opacity:0.1; fill:none" points="
  144.733,1372.33 2640.76,1372.33 
  "/>
<polyline clip-path="url(#clip872)" style="stroke:#000000; stroke-linecap:butt; stroke-linejoin:round; stroke-width:2; stroke-opacity:0.1; fill:none" points="
  144.733,993.502 2640.76,993.502 
  "/>
<polyline clip-path="url(#clip872)" style="stroke:#000000; stroke-linecap:butt; stroke-linejoin:round; stroke-width:2; stroke-opacity:0.1; fill:none" points="
  144.733,614.678 2640.76,614.678 
  "/>
<polyline clip-path="url(#clip872)" style="stroke:#000000; stroke-linecap:butt; stroke-linejoin:round; stroke-width:2; stroke-opacity:0.1; fill:none" points="
  144.733,235.853 2640.76,235.853 
  "/>
<polyline clip-path="url(#clip870)" style="stroke:#000000; stroke-linecap:butt; stroke-linejoin:round; stroke-width:4; stroke-opacity:1; fill:none" points="
  144.733,1800.78 144.733,47.2441 
  "/>
<polyline clip-path="url(#clip870)" style="stroke:#000000; stroke-linecap:butt; stroke-linejoin:round; stroke-width:4; stroke-opacity:1; fill:none" points="
  144.733,1751.15 163.631,1751.15 
  "/>
<polyline clip-path="url(#clip870)" style="stroke:#000000; stroke-linecap:butt; stroke-linejoin:round; stroke-width:4; stroke-opacity:1; fill:none" points="
  144.733,1372.33 163.631,1372.33 
  "/>
<polyline clip-path="url(#clip870)" style="stroke:#000000; stroke-linecap:butt; stroke-linejoin:round; stroke-width:4; stroke-opacity:1; fill:none" points="
  144.733,993.502 163.631,993.502 
  "/>
<polyline clip-path="url(#clip870)" style="stroke:#000000; stroke-linecap:butt; stroke-linejoin:round; stroke-width:4; stroke-opacity:1; fill:none" points="
  144.733,614.678 163.631,614.678 
  "/>
<polyline clip-path="url(#clip870)" style="stroke:#000000; stroke-linecap:butt; stroke-linejoin:round; stroke-width:4; stroke-opacity:1; fill:none" points="
  144.733,235.853 163.631,235.853 
  "/>
<path clip-path="url(#clip870)" d="M92.4686 1736.95 Q88.8575 1736.95 87.0288 1740.51 Q85.2232 1744.06 85.2232 1751.19 Q85.2232 1758.29 87.0288 1761.86 Q88.8575 1765.4 92.4686 1765.4 Q96.1028 1765.4 97.9083 1761.86 Q99.737 1758.29 99.737 1751.19 Q99.737 1744.06 97.9083 1740.51 Q96.1028 1736.95 92.4686 1736.95 M92.4686 1733.25 Q98.2787 1733.25 101.334 1737.85 Q104.413 1742.44 104.413 1751.19 Q104.413 1759.91 101.334 1764.52 Q98.2787 1769.1 92.4686 1769.1 Q86.6584 1769.1 83.5797 1764.52 Q80.5242 1759.91 80.5242 1751.19 Q80.5242 1742.44 83.5797 1737.85 Q86.6584 1733.25 92.4686 1733.25 Z" fill="#000000" fill-rule="evenodd" fill-opacity="1" /><path clip-path="url(#clip870)" d="M56.3345 1385.67 L72.6539 1385.67 L72.6539 1389.61 L50.7095 1389.61 L50.7095 1385.67 Q53.3715 1382.92 57.9549 1378.29 Q62.5613 1373.63 63.7419 1372.29 Q65.9872 1369.77 66.8668 1368.03 Q67.7696 1366.27 67.7696 1364.58 Q67.7696 1361.83 65.8252 1360.09 Q63.9039 1358.36 60.8021 1358.36 Q58.603 1358.36 56.1493 1359.12 Q53.7188 1359.88 50.941 1361.44 L50.941 1356.71 Q53.7651 1355.58 56.2188 1355 Q58.6724 1354.42 60.7095 1354.42 Q66.0798 1354.42 69.2742 1357.11 Q72.4687 1359.79 72.4687 1364.28 Q72.4687 1366.41 71.6585 1368.33 Q70.8715 1370.23 68.765 1372.82 Q68.1863 1373.5 65.0845 1376.71 Q61.9826 1379.91 56.3345 1385.67 Z" fill="#000000" fill-rule="evenodd" fill-opacity="1" /><path clip-path="url(#clip870)" d="M92.4686 1358.13 Q88.8575 1358.13 87.0288 1361.69 Q85.2232 1365.23 85.2232 1372.36 Q85.2232 1379.47 87.0288 1383.03 Q88.8575 1386.57 92.4686 1386.57 Q96.1028 1386.57 97.9083 1383.03 Q99.737 1379.47 99.737 1372.36 Q99.737 1365.23 97.9083 1361.69 Q96.1028 1358.13 92.4686 1358.13 M92.4686 1354.42 Q98.2787 1354.42 101.334 1359.03 Q104.413 1363.61 104.413 1372.36 Q104.413 1381.09 101.334 1385.69 Q98.2787 1390.28 92.4686 1390.28 Q86.6584 1390.28 83.5797 1385.69 Q80.5242 1381.09 80.5242 1372.36 Q80.5242 1363.61 83.5797 1359.03 Q86.6584 1354.42 92.4686 1354.42 Z" fill="#000000" fill-rule="evenodd" fill-opacity="1" /><path clip-path="url(#clip870)" d="M65.1539 980.296 L53.3484 998.745 L65.1539 998.745 L65.1539 980.296 M63.927 976.222 L69.8066 976.222 L69.8066 998.745 L74.7372 998.745 L74.7372 1002.63 L69.8066 1002.63 L69.8066 1010.78 L65.1539 1010.78 L65.1539 1002.63 L49.5521 1002.63 L49.5521 998.12 L63.927 976.222 Z" fill="#000000" fill-rule="evenodd" fill-opacity="1" /><path clip-path="url(#clip870)" d="M92.4686 979.301 Q88.8575 979.301 87.0288 982.866 Q85.2232 986.407 85.2232 993.537 Q85.2232 1000.64 87.0288 1004.21 Q88.8575 1007.75 92.4686 1007.75 Q96.1028 1007.75 97.9083 1004.21 Q99.737 1000.64 99.737 993.537 Q99.737 986.407 97.9083 982.866 Q96.1028 979.301 92.4686 979.301 M92.4686 975.597 Q98.2787 975.597 101.334 980.204 Q104.413 984.787 104.413 993.537 Q104.413 1002.26 101.334 1006.87 Q98.2787 1011.45 92.4686 1011.45 Q86.6584 1011.45 83.5797 1006.87 Q80.5242 1002.26 80.5242 993.537 Q80.5242 984.787 83.5797 980.204 Q86.6584 975.597 92.4686 975.597 Z" fill="#000000" fill-rule="evenodd" fill-opacity="1" /><path clip-path="url(#clip870)" d="M62.8854 612.814 Q59.7373 612.814 57.8854 614.967 Q56.0567 617.12 56.0567 620.87 Q56.0567 624.597 57.8854 626.773 Q59.7373 628.925 62.8854 628.925 Q66.0335 628.925 67.8622 626.773 Q69.7141 624.597 69.7141 620.87 Q69.7141 617.12 67.8622 614.967 Q66.0335 612.814 62.8854 612.814 M72.1677 598.162 L72.1677 602.421 Q70.4085 601.587 68.6029 601.148 Q66.8206 600.708 65.0613 600.708 Q60.4317 600.708 57.978 603.833 Q55.5475 606.958 55.2002 613.277 Q56.566 611.263 58.6262 610.199 Q60.6863 609.111 63.1632 609.111 Q68.3715 609.111 71.3807 612.282 Q74.4131 615.43 74.4131 620.87 Q74.4131 626.194 71.265 629.411 Q68.1168 632.629 62.8854 632.629 Q56.89 632.629 53.7188 628.046 Q50.5475 623.439 50.5475 614.712 Q50.5475 606.518 54.4364 601.657 Q58.3252 596.773 64.8761 596.773 Q66.6354 596.773 68.4178 597.12 Q70.2233 597.467 72.1677 598.162 Z" fill="#000000" fill-rule="evenodd" fill-opacity="1" /><path clip-path="url(#clip870)" d="M92.4686 600.476 Q88.8575 600.476 87.0288 604.041 Q85.2232 607.583 85.2232 614.712 Q85.2232 621.819 87.0288 625.384 Q88.8575 628.925 92.4686 628.925 Q96.1028 628.925 97.9083 625.384 Q99.737 621.819 99.737 614.712 Q99.737 607.583 97.9083 604.041 Q96.1028 600.476 92.4686 600.476 M92.4686 596.773 Q98.2787 596.773 101.334 601.379 Q104.413 605.962 104.413 614.712 Q104.413 623.439 101.334 628.046 Q98.2787 632.629 92.4686 632.629 Q86.6584 632.629 83.5797 628.046 Q80.5242 623.439 80.5242 614.712 Q80.5242 605.962 83.5797 601.379 Q86.6584 596.773 92.4686 596.773 Z" fill="#000000" fill-rule="evenodd" fill-opacity="1" /><path clip-path="url(#clip870)" d="M62.3067 236.721 Q58.9734 236.721 57.0521 238.504 Q55.1539 240.286 55.1539 243.411 Q55.1539 246.536 57.0521 248.318 Q58.9734 250.101 62.3067 250.101 Q65.64 250.101 67.5613 248.318 Q69.4826 246.513 69.4826 243.411 Q69.4826 240.286 67.5613 238.504 Q65.6632 236.721 62.3067 236.721 M57.6308 234.731 Q54.6215 233.99 52.9317 231.93 Q51.2651 229.869 51.2651 226.907 Q51.2651 222.763 54.2049 220.356 Q57.1678 217.948 62.3067 217.948 Q67.4687 217.948 70.4085 220.356 Q73.3483 222.763 73.3483 226.907 Q73.3483 229.869 71.6585 231.93 Q69.9918 233.99 67.0057 234.731 Q70.3853 235.518 72.2603 237.809 Q74.1585 240.101 74.1585 243.411 Q74.1585 248.434 71.0798 251.119 Q68.0242 253.805 62.3067 253.805 Q56.5891 253.805 53.5104 251.119 Q50.4549 248.434 50.4549 243.411 Q50.4549 240.101 52.353 237.809 Q54.2512 235.518 57.6308 234.731 M55.9178 227.346 Q55.9178 230.032 57.5845 231.536 Q59.2743 233.041 62.3067 233.041 Q65.3159 233.041 67.0057 231.536 Q68.7187 230.032 68.7187 227.346 Q68.7187 224.661 67.0057 223.157 Q65.3159 221.652 62.3067 221.652 Q59.2743 221.652 57.5845 223.157 Q55.9178 224.661 55.9178 227.346 Z" fill="#000000" fill-rule="evenodd" fill-opacity="1" /><path clip-path="url(#clip870)" d="M92.4686 221.652 Q88.8575 221.652 87.0288 225.217 Q85.2232 228.758 85.2232 235.888 Q85.2232 242.994 87.0288 246.559 Q88.8575 250.101 92.4686 250.101 Q96.1028 250.101 97.9083 246.559 Q99.737 242.994 99.737 235.888 Q99.737 228.758 97.9083 225.217 Q96.1028 221.652 92.4686 221.652 M92.4686 217.948 Q98.2787 217.948 101.334 222.555 Q104.413 227.138 104.413 235.888 Q104.413 244.615 101.334 249.221 Q98.2787 253.805 92.4686 253.805 Q86.6584 253.805 83.5797 249.221 Q80.5242 244.615 80.5242 235.888 Q80.5242 227.138 83.5797 222.555 Q86.6584 217.948 92.4686 217.948 Z" fill="#000000" fill-rule="evenodd" fill-opacity="1" /><polyline clip-path="url(#clip872)" style="stroke:#009af9; stroke-linecap:butt; stroke-linejoin:round; stroke-width:4; stroke-opacity:1; fill:none" points="
  215.375,1751.15 230.706,1733.85 372.46,1575.11 457.648,1480.89 529.673,1401.99 607.913,1317.12 680.043,1239.71 757.375,1157.69 846.97,1064.03 926.593,982.134 
  996.414,911.464 1072.54,835.751 1149.11,761.136 1233.78,680.651 1314.34,606.275 1398.1,531.526 1468.61,470.924 1554.69,400.24 1633.55,339.185 1669.96,312.351 
  1706.38,286.475 1743.26,261.321 1780.15,237.327 1821.49,211.95 1862.83,188.343 1900.29,168.655 1937.76,150.774 1980.65,132.799 2023.54,117.866 2063.25,107.168 
  2102.96,99.9661 2122.54,97.8801 2142.12,96.8724 2161.69,97.0401 2181.27,98.494 2200.28,101.257 2219.28,105.486 2238.29,111.338 2257.3,118.995 2276.78,128.942 
  2296.26,141.286 2315.75,156.362 2335.23,174.575 2345.91,186.061 2356.58,198.736 2367.25,212.716 2377.93,228.128 2388.6,245.124 2399.28,263.879 2409.95,284.599 
  2420.62,307.529 2428.38,325.734 2436.13,345.391 2443.88,366.653 2451.63,389.699 2459.39,414.74 2467.14,442.026 2474.89,471.858 2482.64,504.602 2490.4,540.708 
  2498.15,580.74 2502.03,602.445 2505.9,625.416 2509.78,649.778 2513.66,675.674 2517.53,703.27 2521.41,732.763 2525.28,764.385 2529.16,798.411 2533.04,835.177 
  2536.91,875.092 2540.79,918.666 2544.67,966.542 2546.26,987.615 2547.85,1009.62 2549.44,1032.63 2551.03,1056.73 2552.62,1082.03 2554.21,1108.64 2555.8,1136.68 
  2557.39,1166.31 2558.98,1197.71 2560.57,1231.08 2562.16,1266.67 2563.75,1304.77 2565.34,1345.75 2566.93,1390.04 2568.52,1438.19 2570.11,1490.91 
  "/>
<path clip-path="url(#clip870)" d="
M2227.79 209.375 L2557.56 209.375 L2557.56 105.695 L2227.79 105.695  Z
  " fill="#ffffff" fill-rule="evenodd" fill-opacity="1"/>
<polyline clip-path="url(#clip870)" style="stroke:#000000; stroke-linecap:butt; stroke-linejoin:round; stroke-width:4; stroke-opacity:1; fill:none" points="
  2227.79,209.375 2557.56,209.375 2557.56,105.695 2227.79,105.695 2227.79,209.375 
  "/>
<polyline clip-path="url(#clip870)" style="stroke:#009af9; stroke-linecap:butt; stroke-linejoin:round; stroke-width:4; stroke-opacity:1; fill:none" points="
  2255.52,157.535 2421.92,157.535 
  "/>
<path clip-path="url(#clip870)" d="M2463.5 177.223 Q2461.69 181.852 2459.98 183.264 Q2458.27 184.676 2455.4 184.676 L2452 184.676 L2452 181.112 L2454.5 181.112 Q2456.25 181.112 2457.23 180.278 Q2458.2 179.445 2459.38 176.343 L2460.14 174.399 L2449.66 148.889 L2454.17 148.889 L2462.27 169.167 L2470.38 148.889 L2474.89 148.889 L2463.5 177.223 Z" fill="#000000" fill-rule="evenodd" fill-opacity="1" /><path clip-path="url(#clip870)" d="M2482.18 170.88 L2489.82 170.88 L2489.82 144.515 L2481.51 146.181 L2481.51 141.922 L2489.77 140.255 L2494.45 140.255 L2494.45 170.88 L2502.09 170.88 L2502.09 174.815 L2482.18 174.815 L2482.18 170.88 Z" fill="#000000" fill-rule="evenodd" fill-opacity="1" /></svg>
