<?xml version="1.0" encoding="utf-8"?>
<svg xmlns="http://www.w3.org/2000/svg" xmlns:xlink="http://www.w3.org/1999/xlink" width="672" height="480" viewBox="0 0 2688 1920">
<defs>
  <clipPath id="clip380">
    <rect x="0" y="0" width="2688" height="1920"/>
  </clipPath>
</defs>
<path clip-path="url(#clip380)" d="
M0 1920 L2688 1920 L2688 0 L0 0  Z
  " fill="#ffffff" fill-rule="evenodd" fill-opacity="1"/>
<defs>
  <clipPath id="clip381">
    <rect x="537" y="0" width="1883" height="1883"/>
  </clipPath>
</defs>
<path clip-path="url(#clip380)" d="
M173.737 1800.78 L2640.76 1800.78 L2640.76 47.2441 L173.737 47.2441  Z
  " fill="#ffffff" fill-rule="evenodd" fill-opacity="1"/>
<defs>
  <clipPath id="clip382">
    <rect x="173" y="47" width="2468" height="1755"/>
  </clipPath>
</defs>
<polyline clip-path="url(#clip382)" style="stroke:#000000; stroke-linecap:butt; stroke-linejoin:round; stroke-width:2; stroke-opacity:0.1; fill:none" points="
  243.559,1800.78 243.559,47.2441 
  "/>
<polyline clip-path="url(#clip382)" style="stroke:#000000; stroke-linecap:butt; stroke-linejoin:round; stroke-width:2; stroke-opacity:0.1; fill:none" points="
  615.939,1800.78 615.939,47.2441 
  "/>
<polyline clip-path="url(#clip382)" style="stroke:#000000; stroke-linecap:butt; stroke-linejoin:round; stroke-width:2; stroke-opacity:0.1; fill:none" points="
  988.319,1800.78 988.319,47.2441 
  "/>
<polyline clip-path="url(#clip382)" style="stroke:#000000; stroke-linecap:butt; stroke-linejoin:round; stroke-width:2; stroke-opacity:0.1; fill:none" points="
  1360.7,1800.78 1360.7,47.2441 
  "/>
<polyline clip-path="url(#clip382)" style="stroke:#000000; stroke-linecap:butt; stroke-linejoin:round; stroke-width:2; stroke-opacity:0.1; fill:none" points="
  1733.08,1800.78 1733.08,47.2441 
  "/>
<polyline clip-path="url(#clip382)" style="stroke:#000000; stroke-linecap:butt; stroke-linejoin:round; stroke-width:2; stroke-opacity:0.1; fill:none" points="
  2105.46,1800.78 2105.46,47.2441 
  "/>
<polyline clip-path="url(#clip382)" style="stroke:#000000; stroke-linecap:butt; stroke-linejoin:round; stroke-width:2; stroke-opacity:0.1; fill:none" points="
  2477.84,1800.78 2477.84,47.2441 
  "/>
<polyline clip-path="url(#clip380)" style="stroke:#000000; stroke-linecap:butt; stroke-linejoin:round; stroke-width:4; stroke-opacity:1; fill:none" points="
  173.737,1800.78 2640.76,1800.78 
  "/>
<polyline clip-path="url(#clip380)" style="stroke:#000000; stroke-linecap:butt; stroke-linejoin:round; stroke-width:4; stroke-opacity:1; fill:none" points="
  243.559,1800.78 243.559,1781.88 
  "/>
<polyline clip-path="url(#clip380)" style="stroke:#000000; stroke-linecap:butt; stroke-linejoin:round; stroke-width:4; stroke-opacity:1; fill:none" points="
  615.939,1800.78 615.939,1781.88 
  "/>
<polyline clip-path="url(#clip380)" style="stroke:#000000; stroke-linecap:butt; stroke-linejoin:round; stroke-width:4; stroke-opacity:1; fill:none" points="
  988.319,1800.78 988.319,1781.88 
  "/>
<polyline clip-path="url(#clip380)" style="stroke:#000000; stroke-linecap:butt; stroke-linejoin:round; stroke-width:4; stroke-opacity:1; fill:none" points="
  1360.7,1800.78 1360.7,1781.88 
  "/>
<polyline clip-path="url(#clip380)" style="stroke:#000000; stroke-linecap:butt; stroke-linejoin:round; stroke-width:4; stroke-opacity:1; fill:none" points="
  1733.08,1800.78 1733.08,1781.88 
  "/>
<polyline clip-path="url(#clip380)" style="stroke:#000000; stroke-linecap:butt; stroke-linejoin:round; stroke-width:4; stroke-opacity:1; fill:none" points="
  2105.46,1800.78 2105.46,1781.88 
  "/>
<polyline clip-path="url(#clip380)" style="stroke:#000000; stroke-linecap:butt; stroke-linejoin:round; stroke-width:4; stroke-opacity:1; fill:none" points="
  2477.84,1800.78 2477.84,1781.88 
  "/>
<path clip-path="url(#clip380)" d="M243.559 1834 Q239.948 1834 238.119 1837.57 Q236.313 1841.11 236.313 1848.24 Q236.313 1855.34 238.119 1858.91 Q239.948 1862.45 243.559 1862.45 Q247.193 1862.45 248.998 1858.91 Q250.827 1855.34 250.827 1848.24 Q250.827 1841.11 248.998 1837.57 Q247.193 1834 243.559 1834 M243.559 1830.3 Q249.369 1830.3 252.424 1834.9 Q255.503 1839.49 255.503 1848.24 Q255.503 1856.96 252.424 1861.57 Q249.369 1866.15 243.559 1866.15 Q237.749 1866.15 234.67 1861.57 Q231.614 1856.96 231.614 1848.24 Q231.614 1839.49 234.67 1834.9 Q237.749 1830.3 243.559 1830.3 Z" fill="#000000" fill-rule="evenodd" fill-opacity="1" /><path clip-path="url(#clip380)" d="M579.631 1861.55 L595.951 1861.55 L595.951 1865.48 L574.006 1865.48 L574.006 1861.55 Q576.668 1858.79 581.252 1854.16 Q585.858 1849.51 587.039 1848.17 Q589.284 1845.65 590.164 1843.91 Q591.066 1842.15 591.066 1840.46 Q591.066 1837.71 589.122 1835.97 Q587.201 1834.23 584.099 1834.23 Q581.9 1834.23 579.446 1835 Q577.015 1835.76 574.238 1837.31 L574.238 1832.59 Q577.062 1831.46 579.515 1830.88 Q581.969 1830.3 584.006 1830.3 Q589.376 1830.3 592.571 1832.98 Q595.765 1835.67 595.765 1840.16 Q595.765 1842.29 594.955 1844.21 Q594.168 1846.11 592.062 1848.7 Q591.483 1849.37 588.381 1852.59 Q585.279 1855.78 579.631 1861.55 Z" fill="#000000" fill-rule="evenodd" fill-opacity="1" /><path clip-path="url(#clip380)" d="M615.765 1834 Q612.154 1834 610.325 1837.57 Q608.52 1841.11 608.52 1848.24 Q608.52 1855.34 610.325 1858.91 Q612.154 1862.45 615.765 1862.45 Q619.399 1862.45 621.205 1858.91 Q623.034 1855.34 623.034 1848.24 Q623.034 1841.11 621.205 1837.57 Q619.399 1834 615.765 1834 M615.765 1830.3 Q621.575 1830.3 624.631 1834.9 Q627.71 1839.49 627.71 1848.24 Q627.71 1856.96 624.631 1861.57 Q621.575 1866.15 615.765 1866.15 Q609.955 1866.15 606.876 1861.57 Q603.821 1856.96 603.821 1848.24 Q603.821 1839.49 606.876 1834.9 Q609.955 1830.3 615.765 1830.3 Z" fill="#000000" fill-rule="evenodd" fill-opacity="1" /><path clip-path="url(#clip380)" d="M645.927 1834 Q642.316 1834 640.487 1837.57 Q638.682 1841.11 638.682 1848.24 Q638.682 1855.34 640.487 1858.91 Q642.316 1862.45 645.927 1862.45 Q649.561 1862.45 651.367 1858.91 Q653.196 1855.34 653.196 1848.24 Q653.196 1841.11 651.367 1837.57 Q649.561 1834 645.927 1834 M645.927 1830.3 Q651.737 1830.3 654.793 1834.9 Q657.871 1839.49 657.871 1848.24 Q657.871 1856.96 654.793 1861.57 Q651.737 1866.15 645.927 1866.15 Q640.117 1866.15 637.038 1861.57 Q633.983 1856.96 633.983 1848.24 Q633.983 1839.49 637.038 1834.9 Q640.117 1830.3 645.927 1830.3 Z" fill="#000000" fill-rule="evenodd" fill-opacity="1" /><path clip-path="url(#clip380)" d="M961.409 1835 L949.604 1853.45 L961.409 1853.45 L961.409 1835 M960.183 1830.92 L966.062 1830.92 L966.062 1853.45 L970.993 1853.45 L970.993 1857.34 L966.062 1857.34 L966.062 1865.48 L961.409 1865.48 L961.409 1857.34 L945.808 1857.34 L945.808 1852.82 L960.183 1830.92 Z" fill="#000000" fill-rule="evenodd" fill-opacity="1" /><path clip-path="url(#clip380)" d="M988.724 1834 Q985.113 1834 983.284 1837.57 Q981.479 1841.11 981.479 1848.24 Q981.479 1855.34 983.284 1858.91 Q985.113 1862.45 988.724 1862.45 Q992.358 1862.45 994.164 1858.91 Q995.993 1855.34 995.993 1848.24 Q995.993 1841.11 994.164 1837.57 Q992.358 1834 988.724 1834 M988.724 1830.3 Q994.534 1830.3 997.59 1834.9 Q1000.67 1839.49 1000.67 1848.24 Q1000.67 1856.96 997.59 1861.57 Q994.534 1866.15 988.724 1866.15 Q982.914 1866.15 979.835 1861.57 Q976.78 1856.96 976.78 1848.24 Q976.78 1839.49 979.835 1834.9 Q982.914 1830.3 988.724 1830.3 Z" fill="#000000" fill-rule="evenodd" fill-opacity="1" /><path clip-path="url(#clip380)" d="M1018.89 1834 Q1015.27 1834 1013.45 1837.57 Q1011.64 1841.11 1011.64 1848.24 Q1011.64 1855.34 1013.45 1858.91 Q1015.27 1862.45 1018.89 1862.45 Q1022.52 1862.45 1024.33 1858.91 Q1026.15 1855.34 1026.15 1848.24 Q1026.15 1841.11 1024.33 1837.57 Q1022.52 1834 1018.89 1834 M1018.89 1830.3 Q1024.7 1830.3 1027.75 1834.9 Q1030.83 1839.49 1030.83 1848.24 Q1030.83 1856.96 1027.75 1861.57 Q1024.7 1866.15 1018.89 1866.15 Q1013.08 1866.15 1010 1861.57 Q1006.94 1856.96 1006.94 1848.24 Q1006.94 1839.49 1010 1834.9 Q1013.08 1830.3 1018.89 1830.3 Z" fill="#000000" fill-rule="evenodd" fill-opacity="1" /><path clip-path="url(#clip380)" d="M1331.02 1846.34 Q1327.88 1846.34 1326.02 1848.49 Q1324.19 1850.65 1324.19 1854.4 Q1324.19 1858.12 1326.02 1860.3 Q1327.88 1862.45 1331.02 1862.45 Q1334.17 1862.45 1336 1860.3 Q1337.85 1858.12 1337.85 1854.4 Q1337.85 1850.65 1336 1848.49 Q1334.17 1846.34 1331.02 1846.34 M1340.31 1831.69 L1340.31 1835.95 Q1338.55 1835.11 1336.74 1834.67 Q1334.96 1834.23 1333.2 1834.23 Q1328.57 1834.23 1326.12 1837.36 Q1323.69 1840.48 1323.34 1846.8 Q1324.7 1844.79 1326.76 1843.72 Q1328.82 1842.64 1331.3 1842.64 Q1336.51 1842.64 1339.52 1845.81 Q1342.55 1848.96 1342.55 1854.4 Q1342.55 1859.72 1339.4 1862.94 Q1336.25 1866.15 1331.02 1866.15 Q1325.03 1866.15 1321.86 1861.57 Q1318.69 1856.96 1318.69 1848.24 Q1318.69 1840.04 1322.57 1835.18 Q1326.46 1830.3 1333.01 1830.3 Q1334.77 1830.3 1336.56 1830.65 Q1338.36 1830.99 1340.31 1831.69 Z" fill="#000000" fill-rule="evenodd" fill-opacity="1" /><path clip-path="url(#clip380)" d="M1360.61 1834 Q1357 1834 1355.17 1837.57 Q1353.36 1841.11 1353.36 1848.24 Q1353.36 1855.34 1355.17 1858.91 Q1357 1862.45 1360.61 1862.45 Q1364.24 1862.45 1366.05 1858.91 Q1367.88 1855.34 1367.88 1848.24 Q1367.88 1841.11 1366.05 1837.57 Q1364.24 1834 1360.61 1834 M1360.61 1830.3 Q1366.42 1830.3 1369.47 1834.9 Q1372.55 1839.49 1372.55 1848.24 Q1372.55 1856.96 1369.47 1861.57 Q1366.42 1866.15 1360.61 1866.15 Q1354.8 1866.15 1351.72 1861.57 Q1348.66 1856.96 1348.66 1848.24 Q1348.66 1839.49 1351.72 1834.9 Q1354.8 1830.3 1360.61 1830.3 Z" fill="#000000" fill-rule="evenodd" fill-opacity="1" /><path clip-path="url(#clip380)" d="M1390.77 1834 Q1387.16 1834 1385.33 1837.57 Q1383.52 1841.11 1383.52 1848.24 Q1383.52 1855.34 1385.33 1858.91 Q1387.16 1862.45 1390.77 1862.45 Q1394.4 1862.45 1396.21 1858.91 Q1398.04 1855.34 1398.04 1848.24 Q1398.04 1841.11 1396.21 1837.57 Q1394.4 1834 1390.77 1834 M1390.77 1830.3 Q1396.58 1830.3 1399.63 1834.9 Q1402.71 1839.49 1402.71 1848.24 Q1402.71 1856.96 1399.63 1861.57 Q1396.58 1866.15 1390.77 1866.15 Q1384.96 1866.15 1381.88 1861.57 Q1378.82 1856.96 1378.82 1848.24 Q1378.82 1839.49 1381.88 1834.9 Q1384.96 1830.3 1390.77 1830.3 Z" fill="#000000" fill-rule="evenodd" fill-opacity="1" /><path clip-path="url(#clip380)" d="M1702.87 1849.07 Q1699.54 1849.07 1697.62 1850.85 Q1695.72 1852.64 1695.72 1855.76 Q1695.72 1858.89 1697.62 1860.67 Q1699.54 1862.45 1702.87 1862.45 Q1706.2 1862.45 1708.13 1860.67 Q1710.05 1858.86 1710.05 1855.76 Q1710.05 1852.64 1708.13 1850.85 Q1706.23 1849.07 1702.87 1849.07 M1698.2 1847.08 Q1695.19 1846.34 1693.5 1844.28 Q1691.83 1842.22 1691.83 1839.26 Q1691.83 1835.11 1694.77 1832.71 Q1697.73 1830.3 1702.87 1830.3 Q1708.03 1830.3 1710.97 1832.71 Q1713.91 1835.11 1713.91 1839.26 Q1713.91 1842.22 1712.22 1844.28 Q1710.56 1846.34 1707.57 1847.08 Q1710.95 1847.87 1712.82 1850.16 Q1714.72 1852.45 1714.72 1855.76 Q1714.72 1860.78 1711.64 1863.47 Q1708.59 1866.15 1702.87 1866.15 Q1697.15 1866.15 1694.07 1863.47 Q1691.02 1860.78 1691.02 1855.76 Q1691.02 1852.45 1692.92 1850.16 Q1694.82 1847.87 1698.2 1847.08 M1696.48 1839.7 Q1696.48 1842.38 1698.15 1843.89 Q1699.84 1845.39 1702.87 1845.39 Q1705.88 1845.39 1707.57 1843.89 Q1709.28 1842.38 1709.28 1839.7 Q1709.28 1837.01 1707.57 1835.51 Q1705.88 1834 1702.87 1834 Q1699.84 1834 1698.15 1835.51 Q1696.48 1837.01 1696.48 1839.7 Z" fill="#000000" fill-rule="evenodd" fill-opacity="1" /><path clip-path="url(#clip380)" d="M1733.03 1834 Q1729.42 1834 1727.59 1837.57 Q1725.79 1841.11 1725.79 1848.24 Q1725.79 1855.34 1727.59 1858.91 Q1729.42 1862.45 1733.03 1862.45 Q1736.67 1862.45 1738.47 1858.91 Q1740.3 1855.34 1740.3 1848.24 Q1740.3 1841.11 1738.47 1837.57 Q1736.67 1834 1733.03 1834 M1733.03 1830.3 Q1738.84 1830.3 1741.9 1834.9 Q1744.98 1839.49 1744.98 1848.24 Q1744.98 1856.96 1741.9 1861.57 Q1738.84 1866.15 1733.03 1866.15 Q1727.22 1866.15 1724.14 1861.57 Q1721.09 1856.96 1721.09 1848.24 Q1721.09 1839.49 1724.14 1834.9 Q1727.22 1830.3 1733.03 1830.3 Z" fill="#000000" fill-rule="evenodd" fill-opacity="1" /><path clip-path="url(#clip380)" d="M1763.19 1834 Q1759.58 1834 1757.76 1837.57 Q1755.95 1841.11 1755.95 1848.24 Q1755.95 1855.34 1757.76 1858.91 Q1759.58 1862.45 1763.19 1862.45 Q1766.83 1862.45 1768.63 1858.91 Q1770.46 1855.34 1770.46 1848.24 Q1770.46 1841.11 1768.63 1837.57 Q1766.83 1834 1763.19 1834 M1763.19 1830.3 Q1769.01 1830.3 1772.06 1834.9 Q1775.14 1839.49 1775.14 1848.24 Q1775.14 1856.96 1772.06 1861.57 Q1769.01 1866.15 1763.19 1866.15 Q1757.38 1866.15 1754.31 1861.57 Q1751.25 1856.96 1751.25 1848.24 Q1751.25 1839.49 1754.31 1834.9 Q1757.38 1830.3 1763.19 1830.3 Z" fill="#000000" fill-rule="evenodd" fill-opacity="1" /><path clip-path="url(#clip380)" d="M2049.99 1861.55 L2057.62 1861.55 L2057.62 1835.18 L2049.31 1836.85 L2049.31 1832.59 L2057.58 1830.92 L2062.25 1830.92 L2062.25 1861.55 L2069.89 1861.55 L2069.89 1865.48 L2049.99 1865.48 L2049.99 1861.55 Z" fill="#000000" fill-rule="evenodd" fill-opacity="1" /><path clip-path="url(#clip380)" d="M2089.34 1834 Q2085.73 1834 2083.9 1837.57 Q2082.09 1841.11 2082.09 1848.24 Q2082.09 1855.34 2083.9 1858.91 Q2085.73 1862.45 2089.34 1862.45 Q2092.97 1862.45 2094.78 1858.91 Q2096.61 1855.34 2096.61 1848.24 Q2096.61 1841.11 2094.78 1837.57 Q2092.97 1834 2089.34 1834 M2089.34 1830.3 Q2095.15 1830.3 2098.2 1834.9 Q2101.28 1839.49 2101.28 1848.24 Q2101.28 1856.96 2098.2 1861.57 Q2095.15 1866.15 2089.34 1866.15 Q2083.53 1866.15 2080.45 1861.57 Q2077.39 1856.96 2077.39 1848.24 Q2077.39 1839.49 2080.45 1834.9 Q2083.53 1830.3 2089.34 1830.3 Z" fill="#000000" fill-rule="evenodd" fill-opacity="1" /><path clip-path="url(#clip380)" d="M2119.5 1834 Q2115.89 1834 2114.06 1837.57 Q2112.25 1841.11 2112.25 1848.24 Q2112.25 1855.34 2114.06 1858.91 Q2115.89 1862.45 2119.5 1862.45 Q2123.13 1862.45 2124.94 1858.91 Q2126.77 1855.34 2126.77 1848.24 Q2126.77 1841.11 2124.94 1837.57 Q2123.13 1834 2119.5 1834 M2119.5 1830.3 Q2125.31 1830.3 2128.36 1834.9 Q2131.44 1839.49 2131.44 1848.24 Q2131.44 1856.96 2128.36 1861.57 Q2125.31 1866.15 2119.5 1866.15 Q2113.69 1866.15 2110.61 1861.57 Q2107.55 1856.96 2107.55 1848.24 Q2107.55 1839.49 2110.61 1834.9 Q2113.69 1830.3 2119.5 1830.3 Z" fill="#000000" fill-rule="evenodd" fill-opacity="1" /><path clip-path="url(#clip380)" d="M2149.66 1834 Q2146.05 1834 2144.22 1837.57 Q2142.42 1841.11 2142.42 1848.24 Q2142.42 1855.34 2144.22 1858.91 Q2146.05 1862.45 2149.66 1862.45 Q2153.29 1862.45 2155.1 1858.91 Q2156.93 1855.34 2156.93 1848.24 Q2156.93 1841.11 2155.1 1837.57 Q2153.29 1834 2149.66 1834 M2149.66 1830.3 Q2155.47 1830.3 2158.53 1834.9 Q2161.6 1839.49 2161.6 1848.24 Q2161.6 1856.96 2158.53 1861.57 Q2155.47 1866.15 2149.66 1866.15 Q2143.85 1866.15 2140.77 1861.57 Q2137.72 1856.96 2137.72 1848.24 Q2137.72 1839.49 2140.77 1834.9 Q2143.85 1830.3 2149.66 1830.3 Z" fill="#000000" fill-rule="evenodd" fill-opacity="1" /><path clip-path="url(#clip380)" d="M2422.37 1861.55 L2430 1861.55 L2430 1835.18 L2421.69 1836.85 L2421.69 1832.59 L2429.96 1830.92 L2434.63 1830.92 L2434.63 1861.55 L2442.27 1861.55 L2442.27 1865.48 L2422.37 1865.48 L2422.37 1861.55 Z" fill="#000000" fill-rule="evenodd" fill-opacity="1" /><path clip-path="url(#clip380)" d="M2455.74 1861.55 L2472.06 1861.55 L2472.06 1865.48 L2450.12 1865.48 L2450.12 1861.55 Q2452.78 1858.79 2457.37 1854.16 Q2461.97 1849.51 2463.15 1848.17 Q2465.4 1845.65 2466.28 1843.91 Q2467.18 1842.15 2467.18 1840.46 Q2467.18 1837.71 2465.24 1835.97 Q2463.31 1834.23 2460.21 1834.23 Q2458.01 1834.23 2455.56 1835 Q2453.13 1835.76 2450.35 1837.31 L2450.35 1832.59 Q2453.18 1831.46 2455.63 1830.88 Q2458.08 1830.3 2460.12 1830.3 Q2465.49 1830.3 2468.68 1832.98 Q2471.88 1835.67 2471.88 1840.16 Q2471.88 1842.29 2471.07 1844.21 Q2470.28 1846.11 2468.18 1848.7 Q2467.6 1849.37 2464.49 1852.59 Q2461.39 1855.78 2455.74 1861.55 Z" fill="#000000" fill-rule="evenodd" fill-opacity="1" /><path clip-path="url(#clip380)" d="M2491.88 1834 Q2488.27 1834 2486.44 1837.57 Q2484.63 1841.11 2484.63 1848.24 Q2484.63 1855.34 2486.44 1858.91 Q2488.27 1862.45 2491.88 1862.45 Q2495.51 1862.45 2497.32 1858.91 Q2499.15 1855.34 2499.15 1848.24 Q2499.15 1841.11 2497.32 1837.57 Q2495.51 1834 2491.88 1834 M2491.88 1830.3 Q2497.69 1830.3 2500.74 1834.9 Q2503.82 1839.49 2503.82 1848.24 Q2503.82 1856.96 2500.74 1861.57 Q2497.69 1866.15 2491.88 1866.15 Q2486.07 1866.15 2482.99 1861.57 Q2479.93 1856.96 2479.93 1848.24 Q2479.93 1839.49 2482.99 1834.9 Q2486.07 1830.3 2491.88 1830.3 Z" fill="#000000" fill-rule="evenodd" fill-opacity="1" /><path clip-path="url(#clip380)" d="M2522.04 1834 Q2518.43 1834 2516.6 1837.57 Q2514.8 1841.11 2514.8 1848.24 Q2514.8 1855.34 2516.6 1858.91 Q2518.43 1862.45 2522.04 1862.45 Q2525.67 1862.45 2527.48 1858.91 Q2529.31 1855.34 2529.31 1848.24 Q2529.31 1841.11 2527.48 1837.57 Q2525.67 1834 2522.04 1834 M2522.04 1830.3 Q2527.85 1830.3 2530.91 1834.9 Q2533.99 1839.49 2533.99 1848.24 Q2533.99 1856.96 2530.91 1861.57 Q2527.85 1866.15 2522.04 1866.15 Q2516.23 1866.15 2513.15 1861.57 Q2510.1 1856.96 2510.1 1848.24 Q2510.1 1839.49 2513.15 1834.9 Q2516.23 1830.3 2522.04 1830.3 Z" fill="#000000" fill-rule="evenodd" fill-opacity="1" /><polyline clip-path="url(#clip382)" style="stroke:#000000; stroke-linecap:butt; stroke-linejoin:round; stroke-width:2; stroke-opacity:0.1; fill:none" points="
  173.737,1751.15 2640.76,1751.15 
  "/>
<polyline clip-path="url(#clip382)" style="stroke:#000000; stroke-linecap:butt; stroke-linejoin:round; stroke-width:2; stroke-opacity:0.1; fill:none" points="
  173.737,1221.77 2640.76,1221.77 
  "/>
<polyline clip-path="url(#clip382)" style="stroke:#000000; stroke-linecap:butt; stroke-linejoin:round; stroke-width:2; stroke-opacity:0.1; fill:none" points="
  173.737,692.387 2640.76,692.387 
  "/>
<polyline clip-path="url(#clip382)" style="stroke:#000000; stroke-linecap:butt; stroke-linejoin:round; stroke-width:2; stroke-opacity:0.1; fill:none" points="
  173.737,163.005 2640.76,163.005 
  "/>
<polyline clip-path="url(#clip380)" style="stroke:#000000; stroke-linecap:butt; stroke-linejoin:round; stroke-width:4; stroke-opacity:1; fill:none" points="
  173.737,1800.78 173.737,47.2441 
  "/>
<polyline clip-path="url(#clip380)" style="stroke:#000000; stroke-linecap:butt; stroke-linejoin:round; stroke-width:4; stroke-opacity:1; fill:none" points="
  173.737,1751.15 192.635,1751.15 
  "/>
<polyline clip-path="url(#clip380)" style="stroke:#000000; stroke-linecap:butt; stroke-linejoin:round; stroke-width:4; stroke-opacity:1; fill:none" points="
  173.737,1221.77 192.635,1221.77 
  "/>
<polyline clip-path="url(#clip380)" style="stroke:#000000; stroke-linecap:butt; stroke-linejoin:round; stroke-width:4; stroke-opacity:1; fill:none" points="
  173.737,692.387 192.635,692.387 
  "/>
<polyline clip-path="url(#clip380)" style="stroke:#000000; stroke-linecap:butt; stroke-linejoin:round; stroke-width:4; stroke-opacity:1; fill:none" points="
  173.737,163.005 192.635,163.005 
  "/>
<path clip-path="url(#clip380)" d="M121.473 1736.95 Q117.862 1736.95 116.033 1740.51 Q114.228 1744.06 114.228 1751.19 Q114.228 1758.29 116.033 1761.86 Q117.862 1765.4 121.473 1765.4 Q125.107 1765.4 126.913 1761.86 Q128.742 1758.29 128.742 1751.19 Q128.742 1744.06 126.913 1740.51 Q125.107 1736.95 121.473 1736.95 M121.473 1733.25 Q127.283 1733.25 130.339 1737.85 Q133.417 1742.44 133.417 1751.19 Q133.417 1759.91 130.339 1764.52 Q127.283 1769.1 121.473 1769.1 Q115.663 1769.1 112.584 1764.52 Q109.529 1759.91 109.529 1751.19 Q109.529 1742.44 112.584 1737.85 Q115.663 1733.25 121.473 1733.25 Z" fill="#000000" fill-rule="evenodd" fill-opacity="1" /><path clip-path="url(#clip380)" d="M51.9595 1235.11 L59.5984 1235.11 L59.5984 1208.75 L51.2882 1210.41 L51.2882 1206.16 L59.5521 1204.49 L64.228 1204.49 L64.228 1235.11 L71.8668 1235.11 L71.8668 1239.05 L51.9595 1239.05 L51.9595 1235.11 Z" fill="#000000" fill-rule="evenodd" fill-opacity="1" /><path clip-path="url(#clip380)" d="M91.3112 1207.57 Q87.7001 1207.57 85.8714 1211.13 Q84.0658 1214.67 84.0658 1221.8 Q84.0658 1228.91 85.8714 1232.47 Q87.7001 1236.02 91.3112 1236.02 Q94.9454 1236.02 96.7509 1232.47 Q98.5796 1228.91 98.5796 1221.8 Q98.5796 1214.67 96.7509 1211.13 Q94.9454 1207.57 91.3112 1207.57 M91.3112 1203.86 Q97.1213 1203.86 100.177 1208.47 Q103.256 1213.05 103.256 1221.8 Q103.256 1230.53 100.177 1235.14 Q97.1213 1239.72 91.3112 1239.72 Q85.501 1239.72 82.4223 1235.14 Q79.3668 1230.53 79.3668 1221.8 Q79.3668 1213.05 82.4223 1208.47 Q85.501 1203.86 91.3112 1203.86 Z" fill="#000000" fill-rule="evenodd" fill-opacity="1" /><path clip-path="url(#clip380)" d="M121.473 1207.57 Q117.862 1207.57 116.033 1211.13 Q114.228 1214.67 114.228 1221.8 Q114.228 1228.91 116.033 1232.47 Q117.862 1236.02 121.473 1236.02 Q125.107 1236.02 126.913 1232.47 Q128.742 1228.91 128.742 1221.8 Q128.742 1214.67 126.913 1211.13 Q125.107 1207.57 121.473 1207.57 M121.473 1203.86 Q127.283 1203.86 130.339 1208.47 Q133.417 1213.05 133.417 1221.8 Q133.417 1230.53 130.339 1235.14 Q127.283 1239.72 121.473 1239.72 Q115.663 1239.72 112.584 1235.14 Q109.529 1230.53 109.529 1221.8 Q109.529 1213.05 112.584 1208.47 Q115.663 1203.86 121.473 1203.86 Z" fill="#000000" fill-rule="evenodd" fill-opacity="1" /><path clip-path="url(#clip380)" d="M55.1771 705.732 L71.4965 705.732 L71.4965 709.667 L49.5521 709.667 L49.5521 705.732 Q52.2141 702.977 56.7975 698.348 Q61.4039 693.695 62.5845 692.352 Q64.8298 689.829 65.7094 688.093 Q66.6122 686.334 66.6122 684.644 Q66.6122 681.889 64.6678 680.153 Q62.7465 678.417 59.6447 678.417 Q57.4456 678.417 54.9919 679.181 Q52.5614 679.945 49.7836 681.496 L49.7836 676.774 Q52.6077 675.639 55.0614 675.061 Q57.515 674.482 59.5521 674.482 Q64.9224 674.482 68.1168 677.167 Q71.3113 679.852 71.3113 684.343 Q71.3113 686.473 70.5011 688.394 Q69.7141 690.292 67.6076 692.885 Q67.0289 693.556 63.927 696.773 Q60.8252 699.968 55.1771 705.732 Z" fill="#000000" fill-rule="evenodd" fill-opacity="1" /><path clip-path="url(#clip380)" d="M91.3112 678.186 Q87.7001 678.186 85.8714 681.75 Q84.0658 685.292 84.0658 692.422 Q84.0658 699.528 85.8714 703.093 Q87.7001 706.635 91.3112 706.635 Q94.9454 706.635 96.7509 703.093 Q98.5796 699.528 98.5796 692.422 Q98.5796 685.292 96.7509 681.75 Q94.9454 678.186 91.3112 678.186 M91.3112 674.482 Q97.1213 674.482 100.177 679.088 Q103.256 683.672 103.256 692.422 Q103.256 701.148 100.177 705.755 Q97.1213 710.338 91.3112 710.338 Q85.501 710.338 82.4223 705.755 Q79.3668 701.148 79.3668 692.422 Q79.3668 683.672 82.4223 679.088 Q85.501 674.482 91.3112 674.482 Z" fill="#000000" fill-rule="evenodd" fill-opacity="1" /><path clip-path="url(#clip380)" d="M121.473 678.186 Q117.862 678.186 116.033 681.75 Q114.228 685.292 114.228 692.422 Q114.228 699.528 116.033 703.093 Q117.862 706.635 121.473 706.635 Q125.107 706.635 126.913 703.093 Q128.742 699.528 128.742 692.422 Q128.742 685.292 126.913 681.75 Q125.107 678.186 121.473 678.186 M121.473 674.482 Q127.283 674.482 130.339 679.088 Q133.417 683.672 133.417 692.422 Q133.417 701.148 130.339 705.755 Q127.283 710.338 121.473 710.338 Q115.663 710.338 112.584 705.755 Q109.529 701.148 109.529 692.422 Q109.529 683.672 112.584 679.088 Q115.663 674.482 121.473 674.482 Z" fill="#000000" fill-rule="evenodd" fill-opacity="1" /><path clip-path="url(#clip380)" d="M65.3159 161.651 Q68.6724 162.368 70.5474 164.637 Q72.4455 166.905 72.4455 170.239 Q72.4455 175.354 68.927 178.155 Q65.4085 180.956 58.9271 180.956 Q56.7512 180.956 54.4364 180.516 Q52.1447 180.1 49.691 179.243 L49.691 174.729 Q51.6354 175.864 53.9503 176.442 Q56.2651 177.021 58.7882 177.021 Q63.1863 177.021 65.478 175.285 Q67.7928 173.549 67.7928 170.239 Q67.7928 167.183 65.64 165.47 Q63.5104 163.734 59.691 163.734 L55.6632 163.734 L55.6632 159.891 L59.8761 159.891 Q63.3252 159.891 65.1539 158.526 Q66.9826 157.137 66.9826 154.544 Q66.9826 151.882 65.0845 150.47 Q63.2095 149.035 59.691 149.035 Q57.7697 149.035 55.5706 149.452 Q53.3715 149.868 50.7327 150.748 L50.7327 146.581 Q53.3947 145.841 55.7095 145.47 Q58.0475 145.1 60.1076 145.1 Q65.4317 145.1 68.5335 147.53 Q71.6353 149.938 71.6353 154.058 Q71.6353 156.929 69.9918 158.919 Q68.3483 160.887 65.3159 161.651 Z" fill="#000000" fill-rule="evenodd" fill-opacity="1" /><path clip-path="url(#clip380)" d="M91.3112 148.804 Q87.7001 148.804 85.8714 152.368 Q84.0658 155.91 84.0658 163.04 Q84.0658 170.146 85.8714 173.711 Q87.7001 177.253 91.3112 177.253 Q94.9454 177.253 96.7509 173.711 Q98.5796 170.146 98.5796 163.04 Q98.5796 155.91 96.7509 152.368 Q94.9454 148.804 91.3112 148.804 M91.3112 145.1 Q97.1213 145.1 100.177 149.706 Q103.256 154.29 103.256 163.04 Q103.256 171.766 100.177 176.373 Q97.1213 180.956 91.3112 180.956 Q85.501 180.956 82.4223 176.373 Q79.3668 171.766 79.3668 163.04 Q79.3668 154.29 82.4223 149.706 Q85.501 145.1 91.3112 145.1 Z" fill="#000000" fill-rule="evenodd" fill-opacity="1" /><path clip-path="url(#clip380)" d="M121.473 148.804 Q117.862 148.804 116.033 152.368 Q114.228 155.91 114.228 163.04 Q114.228 170.146 116.033 173.711 Q117.862 177.253 121.473 177.253 Q125.107 177.253 126.913 173.711 Q128.742 170.146 128.742 163.04 Q128.742 155.91 126.913 152.368 Q125.107 148.804 121.473 148.804 M121.473 145.1 Q127.283 145.1 130.339 149.706 Q133.417 154.29 133.417 163.04 Q133.417 171.766 130.339 176.373 Q127.283 180.956 121.473 180.956 Q115.663 180.956 112.584 176.373 Q109.529 171.766 109.529 163.04 Q109.529 154.29 112.584 149.706 Q115.663 145.1 121.473 145.1 Z" fill="#000000" fill-rule="evenodd" fill-opacity="1" /><polyline clip-path="url(#clip382)" style="stroke:#009af9; stroke-linecap:butt; stroke-linejoin:round; stroke-width:4; stroke-opacity:1; fill:none" points="
  243.559,1751.15 254.923,1719 266.287,1687.16 371.367,1407.72 476.447,1155.25 539.596,1016.51 602.745,887.511 656.136,786.046 709.528,691.545 767.526,596.783 
  825.524,510.24 878.993,437.736 932.462,372.217 989.786,309.733 1047.11,255.277 1113.53,202.225 1179.94,159.951 1238.97,131.427 1297.99,111.415 1349.75,100.871 
  1401.5,96.8724 1457.93,99.9707 1514.36,110.849 1571.13,129.642 1627.89,156.308 1690.65,194.955 1753.42,243.225 1813.13,298.089 1872.85,361.665 1934.94,437.008 
  1997.03,521.771 2049.29,600.425 2101.56,685.754 2165.37,798.98 2229.18,922.155 2289.17,1047.01 2349.15,1180.67 2445.26,1413.11 2541.36,1668.12 2556.15,1709.37 
  2570.93,1751.15 
  "/>
<path clip-path="url(#clip380)" d="
M2231.98 209.375 L2558.52 209.375 L2558.52 105.695 L2231.98 105.695  Z
  " fill="#ffffff" fill-rule="evenodd" fill-opacity="1"/>
<polyline clip-path="url(#clip380)" style="stroke:#000000; stroke-linecap:butt; stroke-linejoin:round; stroke-width:4; stroke-opacity:1; fill:none" points="
  2231.98,209.375 2558.52,209.375 2558.52,105.695 2231.98,105.695 2231.98,209.375 
  "/>
<polyline clip-path="url(#clip380)" style="stroke:#009af9; stroke-linecap:butt; stroke-linejoin:round; stroke-width:4; stroke-opacity:1; fill:none" points="
  2259.39,157.535 2423.86,157.535 
  "/>
<path clip-path="url(#clip380)" d="M2465.11 177.223 Q2463.31 181.852 2461.59 183.264 Q2459.88 184.676 2457.01 184.676 L2453.61 184.676 L2453.61 181.112 L2456.11 181.112 Q2457.87 181.112 2458.84 180.278 Q2459.81 179.445 2460.99 176.343 L2461.76 174.399 L2451.27 148.889 L2455.78 148.889 L2463.88 169.167 L2471.99 148.889 L2476.5 148.889 L2465.11 177.223 Z" fill="#000000" fill-rule="evenodd" fill-opacity="1" /><path clip-path="url(#clip380)" d="M2483.79 170.88 L2491.43 170.88 L2491.43 144.515 L2483.12 146.181 L2483.12 141.922 L2491.38 140.255 L2496.06 140.255 L2496.06 170.88 L2503.7 170.88 L2503.7 174.815 L2483.79 174.815 L2483.79 170.88 Z" fill="#000000" fill-rule="evenodd" fill-opacity="1" /></svg>
