<?xml version="1.0" encoding="utf-8"?>
<svg xmlns="http://www.w3.org/2000/svg" xmlns:xlink="http://www.w3.org/1999/xlink" width="672" height="480" viewBox="0 0 2688 1920">
<defs>
  <clipPath id="clip660">
    <rect x="0" y="0" width="2688" height="1920"/>
  </clipPath>
</defs>
<path clip-path="url(#clip660)" d="
M0 1920 L2688 1920 L2688 0 L0 0  Z
  " fill="#ffffff" fill-rule="evenodd" fill-opacity="1"/>
<defs>
  <clipPath id="clip661">
    <rect x="537" y="0" width="1883" height="1883"/>
  </clipPath>
</defs>
<path clip-path="url(#clip660)" d="
M195.589 1800.78 L2640.76 1800.78 L2640.76 47.2441 L195.589 47.2441  Z
  " fill="#ffffff" fill-rule="evenodd" fill-opacity="1"/>
<defs>
  <clipPath id="clip662">
    <rect x="195" y="47" width="2446" height="1755"/>
  </clipPath>
</defs>
<polyline clip-path="url(#clip662)" style="stroke:#000000; stroke-linecap:butt; stroke-linejoin:round; stroke-width:2; stroke-opacity:0.1; fill:none" points="
  357.062,1800.78 357.062,47.2441 
  "/>
<polyline clip-path="url(#clip662)" style="stroke:#000000; stroke-linecap:butt; stroke-linejoin:round; stroke-width:2; stroke-opacity:0.1; fill:none" points="
  726.144,1800.78 726.144,47.2441 
  "/>
<polyline clip-path="url(#clip662)" style="stroke:#000000; stroke-linecap:butt; stroke-linejoin:round; stroke-width:2; stroke-opacity:0.1; fill:none" points="
  1095.23,1800.78 1095.23,47.2441 
  "/>
<polyline clip-path="url(#clip662)" style="stroke:#000000; stroke-linecap:butt; stroke-linejoin:round; stroke-width:2; stroke-opacity:0.1; fill:none" points="
  1464.31,1800.78 1464.31,47.2441 
  "/>
<polyline clip-path="url(#clip662)" style="stroke:#000000; stroke-linecap:butt; stroke-linejoin:round; stroke-width:2; stroke-opacity:0.1; fill:none" points="
  1833.39,1800.78 1833.39,47.2441 
  "/>
<polyline clip-path="url(#clip662)" style="stroke:#000000; stroke-linecap:butt; stroke-linejoin:round; stroke-width:2; stroke-opacity:0.1; fill:none" points="
  2202.47,1800.78 2202.47,47.2441 
  "/>
<polyline clip-path="url(#clip662)" style="stroke:#000000; stroke-linecap:butt; stroke-linejoin:round; stroke-width:2; stroke-opacity:0.1; fill:none" points="
  2571.55,1800.78 2571.55,47.2441 
  "/>
<polyline clip-path="url(#clip660)" style="stroke:#000000; stroke-linecap:butt; stroke-linejoin:round; stroke-width:4; stroke-opacity:1; fill:none" points="
  195.589,1800.78 2640.76,1800.78 
  "/>
<polyline clip-path="url(#clip660)" style="stroke:#000000; stroke-linecap:butt; stroke-linejoin:round; stroke-width:4; stroke-opacity:1; fill:none" points="
  357.062,1800.78 357.062,1781.88 
  "/>
<polyline clip-path="url(#clip660)" style="stroke:#000000; stroke-linecap:butt; stroke-linejoin:round; stroke-width:4; stroke-opacity:1; fill:none" points="
  726.144,1800.78 726.144,1781.88 
  "/>
<polyline clip-path="url(#clip660)" style="stroke:#000000; stroke-linecap:butt; stroke-linejoin:round; stroke-width:4; stroke-opacity:1; fill:none" points="
  1095.23,1800.78 1095.23,1781.88 
  "/>
<polyline clip-path="url(#clip660)" style="stroke:#000000; stroke-linecap:butt; stroke-linejoin:round; stroke-width:4; stroke-opacity:1; fill:none" points="
  1464.31,1800.78 1464.31,1781.88 
  "/>
<polyline clip-path="url(#clip660)" style="stroke:#000000; stroke-linecap:butt; stroke-linejoin:round; stroke-width:4; stroke-opacity:1; fill:none" points="
  1833.39,1800.78 1833.39,1781.88 
  "/>
<polyline clip-path="url(#clip660)" style="stroke:#000000; stroke-linecap:butt; stroke-linejoin:round; stroke-width:4; stroke-opacity:1; fill:none" points="
  2202.47,1800.78 2202.47,1781.88 
  "/>
<polyline clip-path="url(#clip660)" style="stroke:#000000; stroke-linecap:butt; stroke-linejoin:round; stroke-width:4; stroke-opacity:1; fill:none" points="
  2571.55,1800.78 2571.55,1781.88 
  "/>
<path clip-path="url(#clip660)" d="M309.181 1861.55 L316.82 1861.55 L316.82 1835.18 L308.509 1836.85 L308.509 1832.59 L316.773 1830.92 L321.449 1830.92 L321.449 1861.55 L329.088 1861.55 L329.088 1865.48 L309.181 1865.48 L309.181 1861.55 Z" fill="#000000" fill-rule="evenodd" fill-opacity="1" /><path clip-path="url(#clip660)" d="M338.532 1859.6 L343.417 1859.6 L343.417 1865.48 L338.532 1865.48 L338.532 1859.6 Z" fill="#000000" fill-rule="evenodd" fill-opacity="1" /><path clip-path="url(#clip660)" d="M367.768 1846.85 Q371.125 1847.57 373 1849.84 Q374.898 1852.1 374.898 1855.44 Q374.898 1860.55 371.379 1863.35 Q367.861 1866.15 361.38 1866.15 Q359.204 1866.15 356.889 1865.71 Q354.597 1865.3 352.143 1864.44 L352.143 1859.93 Q354.088 1861.06 356.403 1861.64 Q358.718 1862.22 361.241 1862.22 Q365.639 1862.22 367.93 1860.48 Q370.245 1858.75 370.245 1855.44 Q370.245 1852.38 368.092 1850.67 Q365.963 1848.93 362.143 1848.93 L358.116 1848.93 L358.116 1845.09 L362.329 1845.09 Q365.778 1845.09 367.606 1843.72 Q369.435 1842.34 369.435 1839.74 Q369.435 1837.08 367.537 1835.67 Q365.662 1834.23 362.143 1834.23 Q360.222 1834.23 358.023 1834.65 Q355.824 1835.07 353.185 1835.95 L353.185 1831.78 Q355.847 1831.04 358.162 1830.67 Q360.5 1830.3 362.56 1830.3 Q367.884 1830.3 370.986 1832.73 Q374.088 1835.14 374.088 1839.26 Q374.088 1842.13 372.444 1844.12 Q370.801 1846.09 367.768 1846.85 Z" fill="#000000" fill-rule="evenodd" fill-opacity="1" /><path clip-path="url(#clip660)" d="M393.764 1849.07 Q390.43 1849.07 388.509 1850.85 Q386.611 1852.64 386.611 1855.76 Q386.611 1858.89 388.509 1860.67 Q390.43 1862.45 393.764 1862.45 Q397.097 1862.45 399.018 1860.67 Q400.94 1858.86 400.94 1855.76 Q400.94 1852.64 399.018 1850.85 Q397.12 1849.07 393.764 1849.07 M389.088 1847.08 Q386.078 1846.34 384.389 1844.28 Q382.722 1842.22 382.722 1839.26 Q382.722 1835.11 385.662 1832.71 Q388.625 1830.3 393.764 1830.3 Q398.926 1830.3 401.865 1832.71 Q404.805 1835.11 404.805 1839.26 Q404.805 1842.22 403.115 1844.28 Q401.449 1846.34 398.463 1847.08 Q401.842 1847.87 403.717 1850.16 Q405.615 1852.45 405.615 1855.76 Q405.615 1860.78 402.537 1863.47 Q399.481 1866.15 393.764 1866.15 Q388.046 1866.15 384.967 1863.47 Q381.912 1860.78 381.912 1855.76 Q381.912 1852.45 383.81 1850.16 Q385.708 1847.87 389.088 1847.08 M387.375 1839.7 Q387.375 1842.38 389.041 1843.89 Q390.731 1845.39 393.764 1845.39 Q396.773 1845.39 398.463 1843.89 Q400.176 1842.38 400.176 1839.7 Q400.176 1837.01 398.463 1835.51 Q396.773 1834 393.764 1834 Q390.731 1834 389.041 1835.51 Q387.375 1837.01 387.375 1839.7 Z" fill="#000000" fill-rule="evenodd" fill-opacity="1" /><path clip-path="url(#clip660)" d="M678.216 1861.55 L685.855 1861.55 L685.855 1835.18 L677.545 1836.85 L677.545 1832.59 L685.809 1830.92 L690.485 1830.92 L690.485 1861.55 L698.124 1861.55 L698.124 1865.48 L678.216 1865.48 L678.216 1861.55 Z" fill="#000000" fill-rule="evenodd" fill-opacity="1" /><path clip-path="url(#clip660)" d="M707.568 1859.6 L712.452 1859.6 L712.452 1865.48 L707.568 1865.48 L707.568 1859.6 Z" fill="#000000" fill-rule="evenodd" fill-opacity="1" /><path clip-path="url(#clip660)" d="M735.484 1835 L723.679 1853.45 L735.484 1853.45 L735.484 1835 M734.258 1830.92 L740.137 1830.92 L740.137 1853.45 L745.068 1853.45 L745.068 1857.34 L740.137 1857.34 L740.137 1865.48 L735.484 1865.48 L735.484 1857.34 L719.883 1857.34 L719.883 1852.82 L734.258 1830.92 Z" fill="#000000" fill-rule="evenodd" fill-opacity="1" /><path clip-path="url(#clip660)" d="M762.799 1834 Q759.188 1834 757.359 1837.57 Q755.554 1841.11 755.554 1848.24 Q755.554 1855.34 757.359 1858.91 Q759.188 1862.45 762.799 1862.45 Q766.433 1862.45 768.239 1858.91 Q770.068 1855.34 770.068 1848.24 Q770.068 1841.11 768.239 1837.57 Q766.433 1834 762.799 1834 M762.799 1830.3 Q768.609 1830.3 771.665 1834.9 Q774.743 1839.49 774.743 1848.24 Q774.743 1856.96 771.665 1861.57 Q768.609 1866.15 762.799 1866.15 Q756.989 1866.15 753.91 1861.57 Q750.855 1856.96 750.855 1848.24 Q750.855 1839.49 753.91 1834.9 Q756.989 1830.3 762.799 1830.3 Z" fill="#000000" fill-rule="evenodd" fill-opacity="1" /><path clip-path="url(#clip660)" d="M1048.1 1861.55 L1055.74 1861.55 L1055.74 1835.18 L1047.43 1836.85 L1047.43 1832.59 L1055.69 1830.92 L1060.37 1830.92 L1060.37 1861.55 L1068 1861.55 L1068 1865.48 L1048.1 1865.48 L1048.1 1861.55 Z" fill="#000000" fill-rule="evenodd" fill-opacity="1" /><path clip-path="url(#clip660)" d="M1077.45 1859.6 L1082.33 1859.6 L1082.33 1865.48 L1077.45 1865.48 L1077.45 1859.6 Z" fill="#000000" fill-rule="evenodd" fill-opacity="1" /><path clip-path="url(#clip660)" d="M1105.36 1835 L1093.56 1853.45 L1105.36 1853.45 L1105.36 1835 M1104.14 1830.92 L1110.02 1830.92 L1110.02 1853.45 L1114.95 1853.45 L1114.95 1857.34 L1110.02 1857.34 L1110.02 1865.48 L1105.36 1865.48 L1105.36 1857.34 L1089.76 1857.34 L1089.76 1852.82 L1104.14 1830.92 Z" fill="#000000" fill-rule="evenodd" fill-opacity="1" /><path clip-path="url(#clip660)" d="M1126.71 1861.55 L1143.03 1861.55 L1143.03 1865.48 L1121.08 1865.48 L1121.08 1861.55 Q1123.74 1858.79 1128.33 1854.16 Q1132.93 1849.51 1134.11 1848.17 Q1136.36 1845.65 1137.24 1843.91 Q1138.14 1842.15 1138.14 1840.46 Q1138.14 1837.71 1136.2 1835.97 Q1134.28 1834.23 1131.17 1834.23 Q1128.98 1834.23 1126.52 1835 Q1124.09 1835.76 1121.31 1837.31 L1121.31 1832.59 Q1124.14 1831.46 1126.59 1830.88 Q1129.05 1830.3 1131.08 1830.3 Q1136.45 1830.3 1139.65 1832.98 Q1142.84 1835.67 1142.84 1840.16 Q1142.84 1842.29 1142.03 1844.21 Q1141.24 1846.11 1139.14 1848.7 Q1138.56 1849.37 1135.46 1852.59 Q1132.36 1855.78 1126.71 1861.55 Z" fill="#000000" fill-rule="evenodd" fill-opacity="1" /><path clip-path="url(#clip660)" d="M1416.14 1861.55 L1423.78 1861.55 L1423.78 1835.18 L1415.47 1836.85 L1415.47 1832.59 L1423.73 1830.92 L1428.41 1830.92 L1428.41 1861.55 L1436.04 1861.55 L1436.04 1865.48 L1416.14 1865.48 L1416.14 1861.55 Z" fill="#000000" fill-rule="evenodd" fill-opacity="1" /><path clip-path="url(#clip660)" d="M1445.49 1859.6 L1450.37 1859.6 L1450.37 1865.48 L1445.49 1865.48 L1445.49 1859.6 Z" fill="#000000" fill-rule="evenodd" fill-opacity="1" /><path clip-path="url(#clip660)" d="M1473.4 1835 L1461.6 1853.45 L1473.4 1853.45 L1473.4 1835 M1472.18 1830.92 L1478.06 1830.92 L1478.06 1853.45 L1482.99 1853.45 L1482.99 1857.34 L1478.06 1857.34 L1478.06 1865.48 L1473.4 1865.48 L1473.4 1857.34 L1457.8 1857.34 L1457.8 1852.82 L1472.18 1830.92 Z" fill="#000000" fill-rule="evenodd" fill-opacity="1" /><path clip-path="url(#clip660)" d="M1503.57 1835 L1491.76 1853.45 L1503.57 1853.45 L1503.57 1835 M1502.34 1830.92 L1508.22 1830.92 L1508.22 1853.45 L1513.15 1853.45 L1513.15 1857.34 L1508.22 1857.34 L1508.22 1865.48 L1503.57 1865.48 L1503.57 1857.34 L1487.97 1857.34 L1487.97 1852.82 L1502.34 1830.92 Z" fill="#000000" fill-rule="evenodd" fill-opacity="1" /><path clip-path="url(#clip660)" d="M1785.38 1861.55 L1793.02 1861.55 L1793.02 1835.18 L1784.71 1836.85 L1784.71 1832.59 L1792.97 1830.92 L1797.65 1830.92 L1797.65 1861.55 L1805.29 1861.55 L1805.29 1865.48 L1785.38 1865.48 L1785.38 1861.55 Z" fill="#000000" fill-rule="evenodd" fill-opacity="1" /><path clip-path="url(#clip660)" d="M1814.73 1859.6 L1819.62 1859.6 L1819.62 1865.48 L1814.73 1865.48 L1814.73 1859.6 Z" fill="#000000" fill-rule="evenodd" fill-opacity="1" /><path clip-path="url(#clip660)" d="M1842.65 1835 L1830.84 1853.45 L1842.65 1853.45 L1842.65 1835 M1841.42 1830.92 L1847.3 1830.92 L1847.3 1853.45 L1852.23 1853.45 L1852.23 1857.34 L1847.3 1857.34 L1847.3 1865.48 L1842.65 1865.48 L1842.65 1857.34 L1827.05 1857.34 L1827.05 1852.82 L1841.42 1830.92 Z" fill="#000000" fill-rule="evenodd" fill-opacity="1" /><path clip-path="url(#clip660)" d="M1870.54 1846.34 Q1867.39 1846.34 1865.54 1848.49 Q1863.71 1850.65 1863.71 1854.4 Q1863.71 1858.12 1865.54 1860.3 Q1867.39 1862.45 1870.54 1862.45 Q1873.69 1862.45 1875.52 1860.3 Q1877.37 1858.12 1877.37 1854.4 Q1877.37 1850.65 1875.52 1848.49 Q1873.69 1846.34 1870.54 1846.34 M1879.82 1831.69 L1879.82 1835.95 Q1878.07 1835.11 1876.26 1834.67 Q1874.48 1834.23 1872.72 1834.23 Q1868.09 1834.23 1865.63 1837.36 Q1863.2 1840.48 1862.86 1846.8 Q1864.22 1844.79 1866.28 1843.72 Q1868.34 1842.64 1870.82 1842.64 Q1876.03 1842.64 1879.04 1845.81 Q1882.07 1848.96 1882.07 1854.4 Q1882.07 1859.72 1878.92 1862.94 Q1875.77 1866.15 1870.54 1866.15 Q1864.55 1866.15 1861.38 1861.57 Q1858.2 1856.96 1858.2 1848.24 Q1858.2 1840.04 1862.09 1835.18 Q1865.98 1830.3 1872.53 1830.3 Q1874.29 1830.3 1876.07 1830.65 Q1877.88 1830.99 1879.82 1831.69 Z" fill="#000000" fill-rule="evenodd" fill-opacity="1" /><path clip-path="url(#clip660)" d="M2154.59 1861.55 L2162.23 1861.55 L2162.23 1835.18 L2153.92 1836.85 L2153.92 1832.59 L2162.18 1830.92 L2166.86 1830.92 L2166.86 1861.55 L2174.5 1861.55 L2174.5 1865.48 L2154.59 1865.48 L2154.59 1861.55 Z" fill="#000000" fill-rule="evenodd" fill-opacity="1" /><path clip-path="url(#clip660)" d="M2183.94 1859.6 L2188.83 1859.6 L2188.83 1865.48 L2183.94 1865.48 L2183.94 1859.6 Z" fill="#000000" fill-rule="evenodd" fill-opacity="1" /><path clip-path="url(#clip660)" d="M2211.86 1835 L2200.05 1853.45 L2211.86 1853.45 L2211.86 1835 M2210.63 1830.92 L2216.51 1830.92 L2216.51 1853.45 L2221.44 1853.45 L2221.44 1857.34 L2216.51 1857.34 L2216.51 1865.48 L2211.86 1865.48 L2211.86 1857.34 L2196.26 1857.34 L2196.26 1852.82 L2210.63 1830.92 Z" fill="#000000" fill-rule="evenodd" fill-opacity="1" /><path clip-path="url(#clip660)" d="M2239.17 1849.07 Q2235.84 1849.07 2233.92 1850.85 Q2232.02 1852.64 2232.02 1855.76 Q2232.02 1858.89 2233.92 1860.67 Q2235.84 1862.45 2239.17 1862.45 Q2242.51 1862.45 2244.43 1860.67 Q2246.35 1858.86 2246.35 1855.76 Q2246.35 1852.64 2244.43 1850.85 Q2242.53 1849.07 2239.17 1849.07 M2234.5 1847.08 Q2231.49 1846.34 2229.8 1844.28 Q2228.13 1842.22 2228.13 1839.26 Q2228.13 1835.11 2231.07 1832.71 Q2234.03 1830.3 2239.17 1830.3 Q2244.33 1830.3 2247.27 1832.71 Q2250.21 1835.11 2250.21 1839.26 Q2250.21 1842.22 2248.52 1844.28 Q2246.86 1846.34 2243.87 1847.08 Q2247.25 1847.87 2249.13 1850.16 Q2251.02 1852.45 2251.02 1855.76 Q2251.02 1860.78 2247.95 1863.47 Q2244.89 1866.15 2239.17 1866.15 Q2233.45 1866.15 2230.38 1863.47 Q2227.32 1860.78 2227.32 1855.76 Q2227.32 1852.45 2229.22 1850.16 Q2231.12 1847.87 2234.5 1847.08 M2232.78 1839.7 Q2232.78 1842.38 2234.45 1843.89 Q2236.14 1845.39 2239.17 1845.39 Q2242.18 1845.39 2243.87 1843.89 Q2245.58 1842.38 2245.58 1839.7 Q2245.58 1837.01 2243.87 1835.51 Q2242.18 1834 2239.17 1834 Q2236.14 1834 2234.45 1835.51 Q2232.78 1837.01 2232.78 1839.7 Z" fill="#000000" fill-rule="evenodd" fill-opacity="1" /><path clip-path="url(#clip660)" d="M2523.63 1861.55 L2531.26 1861.55 L2531.26 1835.18 L2522.95 1836.85 L2522.95 1832.59 L2531.22 1830.92 L2535.89 1830.92 L2535.89 1861.55 L2543.53 1861.55 L2543.53 1865.48 L2523.63 1865.48 L2523.63 1861.55 Z" fill="#000000" fill-rule="evenodd" fill-opacity="1" /><path clip-path="url(#clip660)" d="M2552.98 1859.6 L2557.86 1859.6 L2557.86 1865.48 L2552.98 1865.48 L2552.98 1859.6 Z" fill="#000000" fill-rule="evenodd" fill-opacity="1" /><path clip-path="url(#clip660)" d="M2568.09 1830.92 L2586.45 1830.92 L2586.45 1834.86 L2572.37 1834.86 L2572.37 1843.33 Q2573.39 1842.98 2574.41 1842.82 Q2575.43 1842.64 2576.45 1842.64 Q2582.24 1842.64 2585.62 1845.81 Q2589 1848.98 2589 1854.4 Q2589 1859.97 2585.52 1863.08 Q2582.05 1866.15 2575.73 1866.15 Q2573.56 1866.15 2571.29 1865.78 Q2569.04 1865.41 2566.63 1864.67 L2566.63 1859.97 Q2568.72 1861.11 2570.94 1861.66 Q2573.16 1862.22 2575.64 1862.22 Q2579.64 1862.22 2581.98 1860.11 Q2584.32 1858.01 2584.32 1854.4 Q2584.32 1850.78 2581.98 1848.68 Q2579.64 1846.57 2575.64 1846.57 Q2573.76 1846.57 2571.89 1846.99 Q2570.04 1847.4 2568.09 1848.28 L2568.09 1830.92 Z" fill="#000000" fill-rule="evenodd" fill-opacity="1" /><path clip-path="url(#clip660)" d="M2608.21 1834 Q2604.6 1834 2602.77 1837.57 Q2600.96 1841.11 2600.96 1848.24 Q2600.96 1855.34 2602.77 1858.91 Q2604.6 1862.45 2608.21 1862.45 Q2611.84 1862.45 2613.65 1858.91 Q2615.48 1855.34 2615.48 1848.24 Q2615.48 1841.11 2613.65 1837.57 Q2611.84 1834 2608.21 1834 M2608.21 1830.3 Q2614.02 1830.3 2617.07 1834.9 Q2620.15 1839.49 2620.15 1848.24 Q2620.15 1856.96 2617.07 1861.57 Q2614.02 1866.15 2608.21 1866.15 Q2602.4 1866.15 2599.32 1861.57 Q2596.26 1856.96 2596.26 1848.24 Q2596.26 1839.49 2599.32 1834.9 Q2602.4 1830.3 2608.21 1830.3 Z" fill="#000000" fill-rule="evenodd" fill-opacity="1" /><polyline clip-path="url(#clip662)" style="stroke:#000000; stroke-linecap:butt; stroke-linejoin:round; stroke-width:2; stroke-opacity:0.1; fill:none" points="
  195.589,1708 2640.76,1708 
  "/>
<polyline clip-path="url(#clip662)" style="stroke:#000000; stroke-linecap:butt; stroke-linejoin:round; stroke-width:2; stroke-opacity:0.1; fill:none" points="
  195.589,1247.67 2640.76,1247.67 
  "/>
<polyline clip-path="url(#clip662)" style="stroke:#000000; stroke-linecap:butt; stroke-linejoin:round; stroke-width:2; stroke-opacity:0.1; fill:none" points="
  195.589,787.354 2640.76,787.354 
  "/>
<polyline clip-path="url(#clip662)" style="stroke:#000000; stroke-linecap:butt; stroke-linejoin:round; stroke-width:2; stroke-opacity:0.1; fill:none" points="
  195.589,327.033 2640.76,327.033 
  "/>
<polyline clip-path="url(#clip660)" style="stroke:#000000; stroke-linecap:butt; stroke-linejoin:round; stroke-width:4; stroke-opacity:1; fill:none" points="
  195.589,1800.78 195.589,47.2441 
  "/>
<polyline clip-path="url(#clip660)" style="stroke:#000000; stroke-linecap:butt; stroke-linejoin:round; stroke-width:4; stroke-opacity:1; fill:none" points="
  195.589,1708 214.487,1708 
  "/>
<polyline clip-path="url(#clip660)" style="stroke:#000000; stroke-linecap:butt; stroke-linejoin:round; stroke-width:4; stroke-opacity:1; fill:none" points="
  195.589,1247.67 214.487,1247.67 
  "/>
<polyline clip-path="url(#clip660)" style="stroke:#000000; stroke-linecap:butt; stroke-linejoin:round; stroke-width:4; stroke-opacity:1; fill:none" points="
  195.589,787.354 214.487,787.354 
  "/>
<polyline clip-path="url(#clip660)" style="stroke:#000000; stroke-linecap:butt; stroke-linejoin:round; stroke-width:4; stroke-opacity:1; fill:none" points="
  195.589,327.033 214.487,327.033 
  "/>
<path clip-path="url(#clip660)" d="M49.5521 1708.45 L79.2279 1708.45 L79.2279 1712.38 L49.5521 1712.38 L49.5521 1708.45 Z" fill="#000000" fill-rule="evenodd" fill-opacity="1" /><path clip-path="url(#clip660)" d="M99.3204 1693.79 Q95.7093 1693.79 93.8806 1697.36 Q92.075 1700.9 92.075 1708.03 Q92.075 1715.14 93.8806 1718.7 Q95.7093 1722.24 99.3204 1722.24 Q102.955 1722.24 104.76 1718.7 Q106.589 1715.14 106.589 1708.03 Q106.589 1700.9 104.76 1697.36 Q102.955 1693.79 99.3204 1693.79 M99.3204 1690.09 Q105.131 1690.09 108.186 1694.7 Q111.265 1699.28 111.265 1708.03 Q111.265 1716.76 108.186 1721.36 Q105.131 1725.95 99.3204 1725.95 Q93.5102 1725.95 90.4315 1721.36 Q87.376 1716.76 87.376 1708.03 Q87.376 1699.28 90.4315 1694.7 Q93.5102 1690.09 99.3204 1690.09 Z" fill="#000000" fill-rule="evenodd" fill-opacity="1" /><path clip-path="url(#clip660)" d="M119.482 1719.4 L124.367 1719.4 L124.367 1725.28 L119.482 1725.28 L119.482 1719.4 Z" fill="#000000" fill-rule="evenodd" fill-opacity="1" /><path clip-path="url(#clip660)" d="M135.362 1721.34 L143.001 1721.34 L143.001 1694.98 L134.691 1696.64 L134.691 1692.38 L142.954 1690.72 L147.63 1690.72 L147.63 1721.34 L155.269 1721.34 L155.269 1725.28 L135.362 1725.28 L135.362 1721.34 Z" fill="#000000" fill-rule="evenodd" fill-opacity="1" /><path clip-path="url(#clip660)" d="M98.0935 1233.47 Q94.4824 1233.47 92.6537 1237.04 Q90.8482 1240.58 90.8482 1247.71 Q90.8482 1254.82 92.6537 1258.38 Q94.4824 1261.92 98.0935 1261.92 Q101.728 1261.92 103.533 1258.38 Q105.362 1254.82 105.362 1247.71 Q105.362 1240.58 103.533 1237.04 Q101.728 1233.47 98.0935 1233.47 M98.0935 1229.77 Q103.904 1229.77 106.959 1234.38 Q110.038 1238.96 110.038 1247.71 Q110.038 1256.44 106.959 1261.04 Q103.904 1265.63 98.0935 1265.63 Q92.2834 1265.63 89.2047 1261.04 Q86.1492 1256.44 86.1492 1247.71 Q86.1492 1238.96 89.2047 1234.38 Q92.2834 1229.77 98.0935 1229.77 Z" fill="#000000" fill-rule="evenodd" fill-opacity="1" /><path clip-path="url(#clip660)" d="M118.255 1259.08 L123.14 1259.08 L123.14 1264.95 L118.255 1264.95 L118.255 1259.08 Z" fill="#000000" fill-rule="evenodd" fill-opacity="1" /><path clip-path="url(#clip660)" d="M143.325 1233.47 Q139.714 1233.47 137.885 1237.04 Q136.079 1240.58 136.079 1247.71 Q136.079 1254.82 137.885 1258.38 Q139.714 1261.92 143.325 1261.92 Q146.959 1261.92 148.765 1258.38 Q150.593 1254.82 150.593 1247.71 Q150.593 1240.58 148.765 1237.04 Q146.959 1233.47 143.325 1233.47 M143.325 1229.77 Q149.135 1229.77 152.19 1234.38 Q155.269 1238.96 155.269 1247.71 Q155.269 1256.44 152.19 1261.04 Q149.135 1265.63 143.325 1265.63 Q137.515 1265.63 134.436 1261.04 Q131.38 1256.44 131.38 1247.71 Q131.38 1238.96 134.436 1234.38 Q137.515 1229.77 143.325 1229.77 Z" fill="#000000" fill-rule="evenodd" fill-opacity="1" /><path clip-path="url(#clip660)" d="M99.3204 773.153 Q95.7093 773.153 93.8806 776.717 Q92.075 780.259 92.075 787.389 Q92.075 794.495 93.8806 798.06 Q95.7093 801.602 99.3204 801.602 Q102.955 801.602 104.76 798.06 Q106.589 794.495 106.589 787.389 Q106.589 780.259 104.76 776.717 Q102.955 773.153 99.3204 773.153 M99.3204 769.449 Q105.131 769.449 108.186 774.055 Q111.265 778.639 111.265 787.389 Q111.265 796.115 108.186 800.722 Q105.131 805.305 99.3204 805.305 Q93.5102 805.305 90.4315 800.722 Q87.376 796.115 87.376 787.389 Q87.376 778.639 90.4315 774.055 Q93.5102 769.449 99.3204 769.449 Z" fill="#000000" fill-rule="evenodd" fill-opacity="1" /><path clip-path="url(#clip660)" d="M119.482 798.754 L124.367 798.754 L124.367 804.634 L119.482 804.634 L119.482 798.754 Z" fill="#000000" fill-rule="evenodd" fill-opacity="1" /><path clip-path="url(#clip660)" d="M135.362 800.699 L143.001 800.699 L143.001 774.333 L134.691 776 L134.691 771.741 L142.954 770.074 L147.63 770.074 L147.63 800.699 L155.269 800.699 L155.269 804.634 L135.362 804.634 L135.362 800.699 Z" fill="#000000" fill-rule="evenodd" fill-opacity="1" /><path clip-path="url(#clip660)" d="M99.6907 312.832 Q96.0797 312.832 94.251 316.396 Q92.4454 319.938 92.4454 327.068 Q92.4454 334.174 94.251 337.739 Q96.0797 341.281 99.6907 341.281 Q103.325 341.281 105.131 337.739 Q106.959 334.174 106.959 327.068 Q106.959 319.938 105.131 316.396 Q103.325 312.832 99.6907 312.832 M99.6907 309.128 Q105.501 309.128 108.556 313.734 Q111.635 318.318 111.635 327.068 Q111.635 335.794 108.556 340.401 Q105.501 344.984 99.6907 344.984 Q93.8806 344.984 90.8019 340.401 Q87.7464 335.794 87.7464 327.068 Q87.7464 318.318 90.8019 313.734 Q93.8806 309.128 99.6907 309.128 Z" fill="#000000" fill-rule="evenodd" fill-opacity="1" /><path clip-path="url(#clip660)" d="M119.853 338.433 L124.737 338.433 L124.737 344.313 L119.853 344.313 L119.853 338.433 Z" fill="#000000" fill-rule="evenodd" fill-opacity="1" /><path clip-path="url(#clip660)" d="M138.95 340.378 L155.269 340.378 L155.269 344.313 L133.325 344.313 L133.325 340.378 Q135.987 337.623 140.57 332.994 Q145.177 328.341 146.357 326.998 Q148.603 324.475 149.482 322.739 Q150.385 320.98 150.385 319.29 Q150.385 316.535 148.44 314.799 Q146.519 313.063 143.417 313.063 Q141.218 313.063 138.765 313.827 Q136.334 314.591 133.556 316.142 L133.556 311.42 Q136.38 310.285 138.834 309.707 Q141.288 309.128 143.325 309.128 Q148.695 309.128 151.89 311.813 Q155.084 314.498 155.084 318.989 Q155.084 321.119 154.274 323.04 Q153.487 324.938 151.38 327.531 Q150.802 328.202 147.7 331.419 Q144.598 334.614 138.95 340.378 Z" fill="#000000" fill-rule="evenodd" fill-opacity="1" /><polyline clip-path="url(#clip662)" style="stroke:#009af9; stroke-linecap:butt; stroke-linejoin:round; stroke-width:4; stroke-opacity:1; fill:none" points="
  264.792,1751.15 287.319,1735.69 495.618,1592.09 620.797,1505.23 726.634,1431.46 841.602,1350.98 947.593,1276.47 1061.23,1196.25 1192.88,1102.87 1309.88,1019.49 
  1412.48,946.075 1524.34,865.703 1636.86,784.513 1761.27,694.348 1879.65,608.17 2002.73,518.164 2106.34,442.08 2232.83,348.796 2351.74,260.713 2542.24,118.799 
  2571.55,96.8724 
  "/>
<path clip-path="url(#clip660)" d="
M2235.13 209.375 L2559.25 209.375 L2559.25 105.695 L2235.13 105.695  Z
  " fill="#ffffff" fill-rule="evenodd" fill-opacity="1"/>
<polyline clip-path="url(#clip660)" style="stroke:#000000; stroke-linecap:butt; stroke-linejoin:round; stroke-width:4; stroke-opacity:1; fill:none" points="
  2235.13,209.375 2559.25,209.375 2559.25,105.695 2235.13,105.695 2235.13,209.375 
  "/>
<polyline clip-path="url(#clip660)" style="stroke:#009af9; stroke-linecap:butt; stroke-linejoin:round; stroke-width:4; stroke-opacity:1; fill:none" points="
  2262.3,157.535 2425.31,157.535 
  "/>
<path clip-path="url(#clip660)" d="M2466.33 177.223 Q2464.52 181.852 2462.81 183.264 Q2461.09 184.676 2458.22 184.676 L2454.82 184.676 L2454.82 181.112 L2457.32 181.112 Q2459.08 181.112 2460.05 180.278 Q2461.02 179.445 2462.21 176.343 L2462.97 174.399 L2452.48 148.889 L2457 148.889 L2465.1 169.167 L2473.2 148.889 L2477.71 148.889 L2466.33 177.223 Z" fill="#000000" fill-rule="evenodd" fill-opacity="1" /><path clip-path="url(#clip660)" d="M2485.01 170.88 L2492.64 170.88 L2492.64 144.515 L2484.33 146.181 L2484.33 141.922 L2492.6 140.255 L2497.27 140.255 L2497.27 170.88 L2504.91 170.88 L2504.91 174.815 L2485.01 174.815 L2485.01 170.88 Z" fill="#000000" fill-rule="evenodd" fill-opacity="1" /></svg>
