<?xml version="1.0" encoding="utf-8"?>
<svg xmlns="http://www.w3.org/2000/svg" xmlns:xlink="http://www.w3.org/1999/xlink" width="672" height="480" viewBox="0 0 2688 1920">
<defs>
  <clipPath id="clip900">
    <rect x="0" y="0" width="2688" height="1920"/>
  </clipPath>
</defs>
<path clip-path="url(#clip900)" d="
M0 1920 L2688 1920 L2688 0 L0 0  Z
  " fill="#ffffff" fill-rule="evenodd" fill-opacity="1"/>
<defs>
  <clipPath id="clip901">
    <rect x="537" y="0" width="1883" height="1883"/>
  </clipPath>
</defs>
<path clip-path="url(#clip900)" d="
M144.733 1800.78 L2640.76 1800.78 L2640.76 47.2441 L144.733 47.2441  Z
  " fill="#ffffff" fill-rule="evenodd" fill-opacity="1"/>
<defs>
  <clipPath id="clip902">
    <rect x="144" y="47" width="2497" height="1755"/>
  </clipPath>
</defs>
<polyline clip-path="url(#clip902)" style="stroke:#000000; stroke-linecap:butt; stroke-linejoin:round; stroke-width:2; stroke-opacity:0.1; fill:none" points="
  215.375,1800.78 215.375,47.2441 
  "/>
<polyline clip-path="url(#clip902)" style="stroke:#000000; stroke-linecap:butt; stroke-linejoin:round; stroke-width:2; stroke-opacity:0.1; fill:none" points="
  607.832,1800.78 607.832,47.2441 
  "/>
<polyline clip-path="url(#clip902)" style="stroke:#000000; stroke-linecap:butt; stroke-linejoin:round; stroke-width:2; stroke-opacity:0.1; fill:none" points="
  1000.29,1800.78 1000.29,47.2441 
  "/>
<polyline clip-path="url(#clip902)" style="stroke:#000000; stroke-linecap:butt; stroke-linejoin:round; stroke-width:2; stroke-opacity:0.1; fill:none" points="
  1392.74,1800.78 1392.74,47.2441 
  "/>
<polyline clip-path="url(#clip902)" style="stroke:#000000; stroke-linecap:butt; stroke-linejoin:round; stroke-width:2; stroke-opacity:0.1; fill:none" points="
  1785.2,1800.78 1785.2,47.2441 
  "/>
<polyline clip-path="url(#clip902)" style="stroke:#000000; stroke-linecap:butt; stroke-linejoin:round; stroke-width:2; stroke-opacity:0.1; fill:none" points="
  2177.66,1800.78 2177.66,47.2441 
  "/>
<polyline clip-path="url(#clip902)" style="stroke:#000000; stroke-linecap:butt; stroke-linejoin:round; stroke-width:2; stroke-opacity:0.1; fill:none" points="
  2570.11,1800.78 2570.11,47.2441 
  "/>
<polyline clip-path="url(#clip900)" style="stroke:#000000; stroke-linecap:butt; stroke-linejoin:round; stroke-width:4; stroke-opacity:1; fill:none" points="
  144.733,1800.78 2640.76,1800.78 
  "/>
<polyline clip-path="url(#clip900)" style="stroke:#000000; stroke-linecap:butt; stroke-linejoin:round; stroke-width:4; stroke-opacity:1; fill:none" points="
  215.375,1800.78 215.375,1781.88 
  "/>
<polyline clip-path="url(#clip900)" style="stroke:#000000; stroke-linecap:butt; stroke-linejoin:round; stroke-width:4; stroke-opacity:1; fill:none" points="
  607.832,1800.78 607.832,1781.88 
  "/>
<polyline clip-path="url(#clip900)" style="stroke:#000000; stroke-linecap:butt; stroke-linejoin:round; stroke-width:4; stroke-opacity:1; fill:none" points="
  1000.29,1800.78 1000.29,1781.88 
  "/>
<polyline clip-path="url(#clip900)" style="stroke:#000000; stroke-linecap:butt; stroke-linejoin:round; stroke-width:4; stroke-opacity:1; fill:none" points="
  1392.74,1800.78 1392.74,1781.88 
  "/>
<polyline clip-path="url(#clip900)" style="stroke:#000000; stroke-linecap:butt; stroke-linejoin:round; stroke-width:4; stroke-opacity:1; fill:none" points="
  1785.2,1800.78 1785.2,1781.88 
  "/>
<polyline clip-path="url(#clip900)" style="stroke:#000000; stroke-linecap:butt; stroke-linejoin:round; stroke-width:4; stroke-opacity:1; fill:none" points="
  2177.66,1800.78 2177.66,1781.88 
  "/>
<polyline clip-path="url(#clip900)" style="stroke:#000000; stroke-linecap:butt; stroke-linejoin:round; stroke-width:4; stroke-opacity:1; fill:none" points="
  2570.11,1800.78 2570.11,1781.88 
  "/>
<path clip-path="url(#clip900)" d="M175.479 1861.55 L183.118 1861.55 L183.118 1835.18 L174.808 1836.85 L174.808 1832.59 L183.072 1830.92 L187.748 1830.92 L187.748 1861.55 L195.387 1861.55 L195.387 1865.48 L175.479 1865.48 L175.479 1861.55 Z" fill="#000000" fill-rule="evenodd" fill-opacity="1" /><path clip-path="url(#clip900)" d="M218.998 1846.85 Q222.354 1847.57 224.229 1849.84 Q226.127 1852.1 226.127 1855.44 Q226.127 1860.55 222.609 1863.35 Q219.09 1866.15 212.609 1866.15 Q210.433 1866.15 208.118 1865.71 Q205.827 1865.3 203.373 1864.44 L203.373 1859.93 Q205.317 1861.06 207.632 1861.64 Q209.947 1862.22 212.47 1862.22 Q216.868 1862.22 219.16 1860.48 Q221.475 1858.75 221.475 1855.44 Q221.475 1852.38 219.322 1850.67 Q217.192 1848.93 213.373 1848.93 L209.345 1848.93 L209.345 1845.09 L213.558 1845.09 Q217.007 1845.09 218.836 1843.72 Q220.664 1842.34 220.664 1839.74 Q220.664 1837.08 218.766 1835.67 Q216.891 1834.23 213.373 1834.23 Q211.452 1834.23 209.252 1834.65 Q207.053 1835.07 204.415 1835.95 L204.415 1831.78 Q207.077 1831.04 209.391 1830.67 Q211.729 1830.3 213.789 1830.3 Q219.114 1830.3 222.215 1832.73 Q225.317 1835.14 225.317 1839.26 Q225.317 1842.13 223.674 1844.12 Q222.03 1846.09 218.998 1846.85 Z" fill="#000000" fill-rule="evenodd" fill-opacity="1" /><path clip-path="url(#clip900)" d="M235.039 1830.92 L253.396 1830.92 L253.396 1834.86 L239.322 1834.86 L239.322 1843.33 Q240.34 1842.98 241.359 1842.82 Q242.377 1842.64 243.396 1842.64 Q249.183 1842.64 252.562 1845.81 Q255.942 1848.98 255.942 1854.4 Q255.942 1859.97 252.47 1863.08 Q248.998 1866.15 242.678 1866.15 Q240.502 1866.15 238.234 1865.78 Q235.988 1865.41 233.581 1864.67 L233.581 1859.97 Q235.664 1861.11 237.887 1861.66 Q240.109 1862.22 242.586 1862.22 Q246.59 1862.22 248.928 1860.11 Q251.266 1858.01 251.266 1854.4 Q251.266 1850.78 248.928 1848.68 Q246.59 1846.57 242.586 1846.57 Q240.711 1846.57 238.836 1846.99 Q236.984 1847.4 235.039 1848.28 L235.039 1830.92 Z" fill="#000000" fill-rule="evenodd" fill-opacity="1" /><path clip-path="url(#clip900)" d="M567.357 1861.55 L574.996 1861.55 L574.996 1835.18 L566.686 1836.85 L566.686 1832.59 L574.95 1830.92 L579.626 1830.92 L579.626 1861.55 L587.265 1861.55 L587.265 1865.48 L567.357 1865.48 L567.357 1861.55 Z" fill="#000000" fill-rule="evenodd" fill-opacity="1" /><path clip-path="url(#clip900)" d="M610.876 1846.85 Q614.232 1847.57 616.107 1849.84 Q618.005 1852.1 618.005 1855.44 Q618.005 1860.55 614.487 1863.35 Q610.968 1866.15 604.487 1866.15 Q602.311 1866.15 599.996 1865.71 Q597.704 1865.3 595.251 1864.44 L595.251 1859.93 Q597.195 1861.06 599.51 1861.64 Q601.825 1862.22 604.348 1862.22 Q608.746 1862.22 611.038 1860.48 Q613.352 1858.75 613.352 1855.44 Q613.352 1852.38 611.2 1850.67 Q609.07 1848.93 605.251 1848.93 L601.223 1848.93 L601.223 1845.09 L605.436 1845.09 Q608.885 1845.09 610.713 1843.72 Q612.542 1842.34 612.542 1839.74 Q612.542 1837.08 610.644 1835.67 Q608.769 1834.23 605.251 1834.23 Q603.329 1834.23 601.13 1834.65 Q598.931 1835.07 596.292 1835.95 L596.292 1831.78 Q598.954 1831.04 601.269 1830.67 Q603.607 1830.3 605.667 1830.3 Q610.991 1830.3 614.093 1832.73 Q617.195 1835.14 617.195 1839.26 Q617.195 1842.13 615.551 1844.12 Q613.908 1846.09 610.876 1846.85 Z" fill="#000000" fill-rule="evenodd" fill-opacity="1" /><path clip-path="url(#clip900)" d="M637.449 1846.34 Q634.301 1846.34 632.449 1848.49 Q630.621 1850.65 630.621 1854.4 Q630.621 1858.12 632.449 1860.3 Q634.301 1862.45 637.449 1862.45 Q640.598 1862.45 642.426 1860.3 Q644.278 1858.12 644.278 1854.4 Q644.278 1850.65 642.426 1848.49 Q640.598 1846.34 637.449 1846.34 M646.732 1831.69 L646.732 1835.95 Q644.973 1835.11 643.167 1834.67 Q641.385 1834.23 639.625 1834.23 Q634.996 1834.23 632.542 1837.36 Q630.112 1840.48 629.764 1846.8 Q631.13 1844.79 633.19 1843.72 Q635.25 1842.64 637.727 1842.64 Q642.936 1842.64 645.945 1845.81 Q648.977 1848.96 648.977 1854.4 Q648.977 1859.72 645.829 1862.94 Q642.681 1866.15 637.449 1866.15 Q631.454 1866.15 628.283 1861.57 Q625.112 1856.96 625.112 1848.24 Q625.112 1840.04 629 1835.18 Q632.889 1830.3 639.44 1830.3 Q641.199 1830.3 642.982 1830.65 Q644.787 1830.99 646.732 1831.69 Z" fill="#000000" fill-rule="evenodd" fill-opacity="1" /><path clip-path="url(#clip900)" d="M960.346 1861.55 L967.985 1861.55 L967.985 1835.18 L959.675 1836.85 L959.675 1832.59 L967.939 1830.92 L972.615 1830.92 L972.615 1861.55 L980.253 1861.55 L980.253 1865.48 L960.346 1865.48 L960.346 1861.55 Z" fill="#000000" fill-rule="evenodd" fill-opacity="1" /><path clip-path="url(#clip900)" d="M1003.86 1846.85 Q1007.22 1847.57 1009.1 1849.84 Q1010.99 1852.1 1010.99 1855.44 Q1010.99 1860.55 1007.48 1863.35 Q1003.96 1866.15 997.475 1866.15 Q995.3 1866.15 992.985 1865.71 Q990.693 1865.3 988.239 1864.44 L988.239 1859.93 Q990.184 1861.06 992.499 1861.64 Q994.813 1862.22 997.337 1862.22 Q1001.73 1862.22 1004.03 1860.48 Q1006.34 1858.75 1006.34 1855.44 Q1006.34 1852.38 1004.19 1850.67 Q1002.06 1848.93 998.239 1848.93 L994.212 1848.93 L994.212 1845.09 L998.425 1845.09 Q1001.87 1845.09 1003.7 1843.72 Q1005.53 1842.34 1005.53 1839.74 Q1005.53 1837.08 1003.63 1835.67 Q1001.76 1834.23 998.239 1834.23 Q996.318 1834.23 994.119 1834.65 Q991.92 1835.07 989.281 1835.95 L989.281 1831.78 Q991.943 1831.04 994.258 1830.67 Q996.596 1830.3 998.656 1830.3 Q1003.98 1830.3 1007.08 1832.73 Q1010.18 1835.14 1010.18 1839.26 Q1010.18 1842.13 1008.54 1844.12 Q1006.9 1846.09 1003.86 1846.85 Z" fill="#000000" fill-rule="evenodd" fill-opacity="1" /><path clip-path="url(#clip900)" d="M1018.68 1830.92 L1040.9 1830.92 L1040.9 1832.91 L1028.35 1865.48 L1023.47 1865.48 L1035.28 1834.86 L1018.68 1834.86 L1018.68 1830.92 Z" fill="#000000" fill-rule="evenodd" fill-opacity="1" /><path clip-path="url(#clip900)" d="M1352.4 1861.55 L1360.04 1861.55 L1360.04 1835.18 L1351.73 1836.85 L1351.73 1832.59 L1359.99 1830.92 L1364.67 1830.92 L1364.67 1861.55 L1372.3 1861.55 L1372.3 1865.48 L1352.4 1865.48 L1352.4 1861.55 Z" fill="#000000" fill-rule="evenodd" fill-opacity="1" /><path clip-path="url(#clip900)" d="M1395.92 1846.85 Q1399.27 1847.57 1401.15 1849.84 Q1403.05 1852.1 1403.05 1855.44 Q1403.05 1860.55 1399.53 1863.35 Q1396.01 1866.15 1389.53 1866.15 Q1387.35 1866.15 1385.04 1865.71 Q1382.74 1865.3 1380.29 1864.44 L1380.29 1859.93 Q1382.24 1861.06 1384.55 1861.64 Q1386.86 1862.22 1389.39 1862.22 Q1393.79 1862.22 1396.08 1860.48 Q1398.39 1858.75 1398.39 1855.44 Q1398.39 1852.38 1396.24 1850.67 Q1394.11 1848.93 1390.29 1848.93 L1386.26 1848.93 L1386.26 1845.09 L1390.48 1845.09 Q1393.92 1845.09 1395.75 1843.72 Q1397.58 1842.34 1397.58 1839.74 Q1397.58 1837.08 1395.68 1835.67 Q1393.81 1834.23 1390.29 1834.23 Q1388.37 1834.23 1386.17 1834.65 Q1383.97 1835.07 1381.33 1835.95 L1381.33 1831.78 Q1383.99 1831.04 1386.31 1830.67 Q1388.65 1830.3 1390.71 1830.3 Q1396.03 1830.3 1399.13 1832.73 Q1402.24 1835.14 1402.24 1839.26 Q1402.24 1842.13 1400.59 1844.12 Q1398.95 1846.09 1395.92 1846.85 Z" fill="#000000" fill-rule="evenodd" fill-opacity="1" /><path clip-path="url(#clip900)" d="M1421.91 1849.07 Q1418.58 1849.07 1416.66 1850.85 Q1414.76 1852.64 1414.76 1855.76 Q1414.76 1858.89 1416.66 1860.67 Q1418.58 1862.45 1421.91 1862.45 Q1425.24 1862.45 1427.17 1860.67 Q1429.09 1858.86 1429.09 1855.76 Q1429.09 1852.64 1427.17 1850.85 Q1425.27 1849.07 1421.91 1849.07 M1417.24 1847.08 Q1414.23 1846.34 1412.54 1844.28 Q1410.87 1842.22 1410.87 1839.26 Q1410.87 1835.11 1413.81 1832.71 Q1416.77 1830.3 1421.91 1830.3 Q1427.07 1830.3 1430.01 1832.71 Q1432.95 1835.11 1432.95 1839.26 Q1432.95 1842.22 1431.26 1844.28 Q1429.6 1846.34 1426.61 1847.08 Q1429.99 1847.87 1431.86 1850.16 Q1433.76 1852.45 1433.76 1855.76 Q1433.76 1860.78 1430.68 1863.47 Q1427.63 1866.15 1421.91 1866.15 Q1416.19 1866.15 1413.11 1863.47 Q1410.06 1860.78 1410.06 1855.76 Q1410.06 1852.45 1411.96 1850.16 Q1413.86 1847.87 1417.24 1847.08 M1415.52 1839.7 Q1415.52 1842.38 1417.19 1843.89 Q1418.88 1845.39 1421.91 1845.39 Q1424.92 1845.39 1426.61 1843.89 Q1428.32 1842.38 1428.32 1839.7 Q1428.32 1837.01 1426.61 1835.51 Q1424.92 1834 1421.91 1834 Q1418.88 1834 1417.19 1835.51 Q1415.52 1837.01 1415.52 1839.7 Z" fill="#000000" fill-rule="evenodd" fill-opacity="1" /><path clip-path="url(#clip900)" d="M1744.9 1861.55 L1752.54 1861.55 L1752.54 1835.18 L1744.23 1836.85 L1744.23 1832.59 L1752.49 1830.92 L1757.17 1830.92 L1757.17 1861.55 L1764.81 1861.55 L1764.81 1865.48 L1744.9 1865.48 L1744.9 1861.55 Z" fill="#000000" fill-rule="evenodd" fill-opacity="1" /><path clip-path="url(#clip900)" d="M1788.42 1846.85 Q1791.77 1847.57 1793.65 1849.84 Q1795.55 1852.1 1795.55 1855.44 Q1795.55 1860.55 1792.03 1863.35 Q1788.51 1866.15 1782.03 1866.15 Q1779.85 1866.15 1777.54 1865.71 Q1775.25 1865.3 1772.79 1864.44 L1772.79 1859.93 Q1774.74 1861.06 1777.05 1861.64 Q1779.37 1862.22 1781.89 1862.22 Q1786.29 1862.22 1788.58 1860.48 Q1790.9 1858.75 1790.9 1855.44 Q1790.9 1852.38 1788.74 1850.67 Q1786.61 1848.93 1782.79 1848.93 L1778.77 1848.93 L1778.77 1845.09 L1782.98 1845.09 Q1786.43 1845.09 1788.26 1843.72 Q1790.09 1842.34 1790.09 1839.74 Q1790.09 1837.08 1788.19 1835.67 Q1786.31 1834.23 1782.79 1834.23 Q1780.87 1834.23 1778.67 1834.65 Q1776.47 1835.07 1773.84 1835.95 L1773.84 1831.78 Q1776.5 1831.04 1778.81 1830.67 Q1781.15 1830.3 1783.21 1830.3 Q1788.53 1830.3 1791.64 1832.73 Q1794.74 1835.14 1794.74 1839.26 Q1794.74 1842.13 1793.09 1844.12 Q1791.45 1846.09 1788.42 1846.85 Z" fill="#000000" fill-rule="evenodd" fill-opacity="1" /><path clip-path="url(#clip900)" d="M1804.55 1864.77 L1804.55 1860.51 Q1806.31 1861.34 1808.12 1861.78 Q1809.92 1862.22 1811.66 1862.22 Q1816.29 1862.22 1818.72 1859.12 Q1821.17 1855.99 1821.52 1849.65 Q1820.18 1851.64 1818.12 1852.71 Q1816.06 1853.77 1813.56 1853.77 Q1808.37 1853.77 1805.34 1850.65 Q1802.33 1847.5 1802.33 1842.06 Q1802.33 1836.73 1805.48 1833.52 Q1808.63 1830.3 1813.86 1830.3 Q1819.85 1830.3 1823 1834.9 Q1826.17 1839.49 1826.17 1848.24 Q1826.17 1856.41 1822.28 1861.29 Q1818.42 1866.15 1811.87 1866.15 Q1810.11 1866.15 1808.3 1865.81 Q1806.5 1865.46 1804.55 1864.77 M1813.86 1850.11 Q1817.01 1850.11 1818.83 1847.96 Q1820.69 1845.81 1820.69 1842.06 Q1820.69 1838.33 1818.83 1836.18 Q1817.01 1834 1813.86 1834 Q1810.71 1834 1808.86 1836.18 Q1807.03 1838.33 1807.03 1842.06 Q1807.03 1845.81 1808.86 1847.96 Q1810.71 1850.11 1813.86 1850.11 Z" fill="#000000" fill-rule="evenodd" fill-opacity="1" /><path clip-path="url(#clip900)" d="M2137.26 1861.55 L2144.9 1861.55 L2144.9 1835.18 L2136.59 1836.85 L2136.59 1832.59 L2144.86 1830.92 L2149.53 1830.92 L2149.53 1861.55 L2157.17 1861.55 L2157.17 1865.48 L2137.26 1865.48 L2137.26 1861.55 Z" fill="#000000" fill-rule="evenodd" fill-opacity="1" /><path clip-path="url(#clip900)" d="M2179.46 1835 L2167.66 1853.45 L2179.46 1853.45 L2179.46 1835 M2178.24 1830.92 L2184.12 1830.92 L2184.12 1853.45 L2189.05 1853.45 L2189.05 1857.34 L2184.12 1857.34 L2184.12 1865.48 L2179.46 1865.48 L2179.46 1857.34 L2163.86 1857.34 L2163.86 1852.82 L2178.24 1830.92 Z" fill="#000000" fill-rule="evenodd" fill-opacity="1" /><path clip-path="url(#clip900)" d="M2206.78 1834 Q2203.17 1834 2201.34 1837.57 Q2199.53 1841.11 2199.53 1848.24 Q2199.53 1855.34 2201.34 1858.91 Q2203.17 1862.45 2206.78 1862.45 Q2210.41 1862.45 2212.22 1858.91 Q2214.05 1855.34 2214.05 1848.24 Q2214.05 1841.11 2212.22 1837.57 Q2210.41 1834 2206.78 1834 M2206.78 1830.3 Q2212.59 1830.3 2215.64 1834.9 Q2218.72 1839.49 2218.72 1848.24 Q2218.72 1856.96 2215.64 1861.57 Q2212.59 1866.15 2206.78 1866.15 Q2200.97 1866.15 2197.89 1861.57 Q2194.83 1856.96 2194.83 1848.24 Q2194.83 1839.49 2197.89 1834.9 Q2200.97 1830.3 2206.78 1830.3 Z" fill="#000000" fill-rule="evenodd" fill-opacity="1" /><path clip-path="url(#clip900)" d="M2530.33 1861.55 L2537.97 1861.55 L2537.97 1835.18 L2529.66 1836.85 L2529.66 1832.59 L2537.93 1830.92 L2542.6 1830.92 L2542.6 1861.55 L2550.24 1861.55 L2550.24 1865.48 L2530.33 1865.48 L2530.33 1861.55 Z" fill="#000000" fill-rule="evenodd" fill-opacity="1" /><path clip-path="url(#clip900)" d="M2572.53 1835 L2560.73 1853.45 L2572.53 1853.45 L2572.53 1835 M2571.31 1830.92 L2577.19 1830.92 L2577.19 1853.45 L2582.12 1853.45 L2582.12 1857.34 L2577.19 1857.34 L2577.19 1865.48 L2572.53 1865.48 L2572.53 1857.34 L2556.93 1857.34 L2556.93 1852.82 L2571.31 1830.92 Z" fill="#000000" fill-rule="evenodd" fill-opacity="1" /><path clip-path="url(#clip900)" d="M2590.66 1861.55 L2598.3 1861.55 L2598.3 1835.18 L2589.99 1836.85 L2589.99 1832.59 L2598.25 1830.92 L2602.93 1830.92 L2602.93 1861.55 L2610.56 1861.55 L2610.56 1865.48 L2590.66 1865.48 L2590.66 1861.55 Z" fill="#000000" fill-rule="evenodd" fill-opacity="1" /><polyline clip-path="url(#clip902)" style="stroke:#000000; stroke-linecap:butt; stroke-linejoin:round; stroke-width:2; stroke-opacity:0.1; fill:none" points="
  144.733,1477.37 2640.76,1477.37 
  "/>
<polyline clip-path="url(#clip902)" style="stroke:#000000; stroke-linecap:butt; stroke-linejoin:round; stroke-width:2; stroke-opacity:0.1; fill:none" points="
  144.733,1062.8 2640.76,1062.8 
  "/>
<polyline clip-path="url(#clip902)" style="stroke:#000000; stroke-linecap:butt; stroke-linejoin:round; stroke-width:2; stroke-opacity:0.1; fill:none" points="
  144.733,648.234 2640.76,648.234 
  "/>
<polyline clip-path="url(#clip902)" style="stroke:#000000; stroke-linecap:butt; stroke-linejoin:round; stroke-width:2; stroke-opacity:0.1; fill:none" points="
  144.733,233.666 2640.76,233.666 
  "/>
<polyline clip-path="url(#clip900)" style="stroke:#000000; stroke-linecap:butt; stroke-linejoin:round; stroke-width:4; stroke-opacity:1; fill:none" points="
  144.733,1800.78 144.733,47.2441 
  "/>
<polyline clip-path="url(#clip900)" style="stroke:#000000; stroke-linecap:butt; stroke-linejoin:round; stroke-width:4; stroke-opacity:1; fill:none" points="
  144.733,1477.37 163.631,1477.37 
  "/>
<polyline clip-path="url(#clip900)" style="stroke:#000000; stroke-linecap:butt; stroke-linejoin:round; stroke-width:4; stroke-opacity:1; fill:none" points="
  144.733,1062.8 163.631,1062.8 
  "/>
<polyline clip-path="url(#clip900)" style="stroke:#000000; stroke-linecap:butt; stroke-linejoin:round; stroke-width:4; stroke-opacity:1; fill:none" points="
  144.733,648.234 163.631,648.234 
  "/>
<polyline clip-path="url(#clip900)" style="stroke:#000000; stroke-linecap:butt; stroke-linejoin:round; stroke-width:4; stroke-opacity:1; fill:none" points="
  144.733,233.666 163.631,233.666 
  "/>
<path clip-path="url(#clip900)" d="M92.4686 1463.17 Q88.8575 1463.17 87.0288 1466.73 Q85.2232 1470.28 85.2232 1477.41 Q85.2232 1484.51 87.0288 1488.08 Q88.8575 1491.62 92.4686 1491.62 Q96.1028 1491.62 97.9083 1488.08 Q99.737 1484.51 99.737 1477.41 Q99.737 1470.28 97.9083 1466.73 Q96.1028 1463.17 92.4686 1463.17 M92.4686 1459.47 Q98.2787 1459.47 101.334 1464.07 Q104.413 1468.66 104.413 1477.41 Q104.413 1486.13 101.334 1490.74 Q98.2787 1495.32 92.4686 1495.32 Q86.6584 1495.32 83.5797 1490.74 Q80.5242 1486.13 80.5242 1477.41 Q80.5242 1468.66 83.5797 1464.07 Q86.6584 1459.47 92.4686 1459.47 Z" fill="#000000" fill-rule="evenodd" fill-opacity="1" /><path clip-path="url(#clip900)" d="M56.3345 1076.15 L72.6539 1076.15 L72.6539 1080.08 L50.7095 1080.08 L50.7095 1076.15 Q53.3715 1073.39 57.9549 1068.76 Q62.5613 1064.11 63.7419 1062.77 Q65.9872 1060.24 66.8668 1058.51 Q67.7696 1056.75 67.7696 1055.06 Q67.7696 1052.3 65.8252 1050.57 Q63.9039 1048.83 60.8021 1048.83 Q58.603 1048.83 56.1493 1049.6 Q53.7188 1050.36 50.941 1051.91 L50.941 1047.19 Q53.7651 1046.05 56.2188 1045.48 Q58.6724 1044.9 60.7095 1044.9 Q66.0798 1044.9 69.2742 1047.58 Q72.4687 1050.27 72.4687 1054.76 Q72.4687 1056.89 71.6585 1058.81 Q70.8715 1060.71 68.765 1063.3 Q68.1863 1063.97 65.0845 1067.19 Q61.9826 1070.38 56.3345 1076.15 Z" fill="#000000" fill-rule="evenodd" fill-opacity="1" /><path clip-path="url(#clip900)" d="M92.4686 1048.6 Q88.8575 1048.6 87.0288 1052.17 Q85.2232 1055.71 85.2232 1062.84 Q85.2232 1069.94 87.0288 1073.51 Q88.8575 1077.05 92.4686 1077.05 Q96.1028 1077.05 97.9083 1073.51 Q99.737 1069.94 99.737 1062.84 Q99.737 1055.71 97.9083 1052.17 Q96.1028 1048.6 92.4686 1048.6 M92.4686 1044.9 Q98.2787 1044.9 101.334 1049.5 Q104.413 1054.09 104.413 1062.84 Q104.413 1071.56 101.334 1076.17 Q98.2787 1080.75 92.4686 1080.75 Q86.6584 1080.75 83.5797 1076.17 Q80.5242 1071.56 80.5242 1062.84 Q80.5242 1054.09 83.5797 1049.5 Q86.6584 1044.9 92.4686 1044.9 Z" fill="#000000" fill-rule="evenodd" fill-opacity="1" /><path clip-path="url(#clip900)" d="M65.1539 635.028 L53.3484 653.477 L65.1539 653.477 L65.1539 635.028 M63.927 630.954 L69.8066 630.954 L69.8066 653.477 L74.7372 653.477 L74.7372 657.366 L69.8066 657.366 L69.8066 665.514 L65.1539 665.514 L65.1539 657.366 L49.5521 657.366 L49.5521 652.852 L63.927 630.954 Z" fill="#000000" fill-rule="evenodd" fill-opacity="1" /><path clip-path="url(#clip900)" d="M92.4686 634.033 Q88.8575 634.033 87.0288 637.598 Q85.2232 641.14 85.2232 648.269 Q85.2232 655.376 87.0288 658.94 Q88.8575 662.482 92.4686 662.482 Q96.1028 662.482 97.9083 658.94 Q99.737 655.376 99.737 648.269 Q99.737 641.14 97.9083 637.598 Q96.1028 634.033 92.4686 634.033 M92.4686 630.329 Q98.2787 630.329 101.334 634.936 Q104.413 639.519 104.413 648.269 Q104.413 656.996 101.334 661.602 Q98.2787 666.186 92.4686 666.186 Q86.6584 666.186 83.5797 661.602 Q80.5242 656.996 80.5242 648.269 Q80.5242 639.519 83.5797 634.936 Q86.6584 630.329 92.4686 630.329 Z" fill="#000000" fill-rule="evenodd" fill-opacity="1" /><path clip-path="url(#clip900)" d="M62.8854 231.803 Q59.7373 231.803 57.8854 233.956 Q56.0567 236.109 56.0567 239.859 Q56.0567 243.585 57.8854 245.761 Q59.7373 247.914 62.8854 247.914 Q66.0335 247.914 67.8622 245.761 Q69.7141 243.585 69.7141 239.859 Q69.7141 236.109 67.8622 233.956 Q66.0335 231.803 62.8854 231.803 M72.1677 217.15 L72.1677 221.41 Q70.4085 220.576 68.6029 220.136 Q66.8206 219.697 65.0613 219.697 Q60.4317 219.697 57.978 222.822 Q55.5475 225.947 55.2002 232.266 Q56.566 230.252 58.6262 229.187 Q60.6863 228.099 63.1632 228.099 Q68.3715 228.099 71.3807 231.271 Q74.4131 234.419 74.4131 239.859 Q74.4131 245.183 71.265 248.4 Q68.1168 251.618 62.8854 251.618 Q56.89 251.618 53.7188 247.034 Q50.5475 242.428 50.5475 233.701 Q50.5475 225.507 54.4364 220.646 Q58.3252 215.761 64.8761 215.761 Q66.6354 215.761 68.4178 216.109 Q70.2233 216.456 72.1677 217.15 Z" fill="#000000" fill-rule="evenodd" fill-opacity="1" /><path clip-path="url(#clip900)" d="M92.4686 219.465 Q88.8575 219.465 87.0288 223.03 Q85.2232 226.572 85.2232 233.701 Q85.2232 240.808 87.0288 244.372 Q88.8575 247.914 92.4686 247.914 Q96.1028 247.914 97.9083 244.372 Q99.737 240.808 99.737 233.701 Q99.737 226.572 97.9083 223.03 Q96.1028 219.465 92.4686 219.465 M92.4686 215.761 Q98.2787 215.761 101.334 220.368 Q104.413 224.951 104.413 233.701 Q104.413 242.428 101.334 247.034 Q98.2787 251.618 92.4686 251.618 Q86.6584 251.618 83.5797 247.034 Q80.5242 242.428 80.5242 233.701 Q80.5242 224.951 83.5797 220.368 Q86.6584 215.761 92.4686 215.761 Z" fill="#000000" fill-rule="evenodd" fill-opacity="1" /><polyline clip-path="url(#clip902)" style="stroke:#009af9; stroke-linecap:butt; stroke-linejoin:round; stroke-width:4; stroke-opacity:1; fill:none" points="
  215.375,96.8724 238.371,101.464 451.002,146.724 578.784,176.628 686.822,203.719 804.182,235.249 912.378,266.482 1028.37,302.576 1162.77,348.261 1282.2,392.914 
  1386.93,435.743 1501.12,487.033 1615.98,544.382 1742.98,616.025 1863.82,694.311 1989.46,789.416 2095.22,883.975 2159.78,950.297 2224.35,1025.02 2285.04,1104.93 
  2345.73,1196.99 2394.34,1282.21 2442.96,1381.04 2467.26,1437.01 2491.57,1498.45 2515.88,1566.52 2540.19,1642.75 2547.67,1668.18 2555.15,1694.66 2562.63,1722.28 
  2570.11,1751.15 
  "/>
<path clip-path="url(#clip900)" d="
M2227.79 209.375 L2557.56 209.375 L2557.56 105.695 L2227.79 105.695  Z
  " fill="#ffffff" fill-rule="evenodd" fill-opacity="1"/>
<polyline clip-path="url(#clip900)" style="stroke:#000000; stroke-linecap:butt; stroke-linejoin:round; stroke-width:4; stroke-opacity:1; fill:none" points="
  2227.79,209.375 2557.56,209.375 2557.56,105.695 2227.79,105.695 2227.79,209.375 
  "/>
<polyline clip-path="url(#clip900)" style="stroke:#009af9; stroke-linecap:butt; stroke-linejoin:round; stroke-width:4; stroke-opacity:1; fill:none" points="
  2255.52,157.535 2421.92,157.535 
  "/>
<path clip-path="url(#clip900)" d="M2463.5 177.223 Q2461.69 181.852 2459.98 183.264 Q2458.27 184.676 2455.4 184.676 L2452 184.676 L2452 181.112 L2454.5 181.112 Q2456.25 181.112 2457.23 180.278 Q2458.2 179.445 2459.38 176.343 L2460.14 174.399 L2449.66 148.889 L2454.17 148.889 L2462.27 169.167 L2470.38 148.889 L2474.89 148.889 L2463.5 177.223 Z" fill="#000000" fill-rule="evenodd" fill-opacity="1" /><path clip-path="url(#clip900)" d="M2482.18 170.88 L2489.82 170.88 L2489.82 144.515 L2481.51 146.181 L2481.51 141.922 L2489.77 140.255 L2494.45 140.255 L2494.45 170.88 L2502.09 170.88 L2502.09 174.815 L2482.18 174.815 L2482.18 170.88 Z" fill="#000000" fill-rule="evenodd" fill-opacity="1" /></svg>
