<?xml version="1.0" encoding="utf-8"?>
<svg xmlns="http://www.w3.org/2000/svg" xmlns:xlink="http://www.w3.org/1999/xlink" width="672" height="480" viewBox="0 0 2688 1920">
<defs>
  <clipPath id="clip230">
    <rect x="0" y="0" width="2688" height="1920"/>
  </clipPath>
</defs>
<path clip-path="url(#clip230)" d="
M0 1920 L2688 1920 L2688 0 L0 0  Z
  " fill="#ffffff" fill-rule="evenodd" fill-opacity="1"/>
<defs>
  <clipPath id="clip231">
    <rect x="537" y="0" width="1883" height="1883"/>
  </clipPath>
</defs>
<path clip-path="url(#clip230)" d="
M232.325 1800.78 L2640.76 1800.78 L2640.76 47.2441 L232.325 47.2441  Z
  " fill="#ffffff" fill-rule="evenodd" fill-opacity="1"/>
<defs>
  <clipPath id="clip232">
    <rect x="232" y="47" width="2409" height="1755"/>
  </clipPath>
</defs>
<polyline clip-path="url(#clip232)" style="stroke:#000000; stroke-linecap:butt; stroke-linejoin:round; stroke-width:2; stroke-opacity:0.1; fill:none" points="
  300.488,1800.78 300.488,47.2441 
  "/>
<polyline clip-path="url(#clip232)" style="stroke:#000000; stroke-linecap:butt; stroke-linejoin:round; stroke-width:2; stroke-opacity:0.1; fill:none" points="
  868.514,1800.78 868.514,47.2441 
  "/>
<polyline clip-path="url(#clip232)" style="stroke:#000000; stroke-linecap:butt; stroke-linejoin:round; stroke-width:2; stroke-opacity:0.1; fill:none" points="
  1436.54,1800.78 1436.54,47.2441 
  "/>
<polyline clip-path="url(#clip232)" style="stroke:#000000; stroke-linecap:butt; stroke-linejoin:round; stroke-width:2; stroke-opacity:0.1; fill:none" points="
  2004.57,1800.78 2004.57,47.2441 
  "/>
<polyline clip-path="url(#clip232)" style="stroke:#000000; stroke-linecap:butt; stroke-linejoin:round; stroke-width:2; stroke-opacity:0.1; fill:none" points="
  2572.59,1800.78 2572.59,47.2441 
  "/>
<polyline clip-path="url(#clip230)" style="stroke:#000000; stroke-linecap:butt; stroke-linejoin:round; stroke-width:4; stroke-opacity:1; fill:none" points="
  232.325,1800.78 2640.76,1800.78 
  "/>
<polyline clip-path="url(#clip230)" style="stroke:#000000; stroke-linecap:butt; stroke-linejoin:round; stroke-width:4; stroke-opacity:1; fill:none" points="
  300.488,1800.78 300.488,1781.88 
  "/>
<polyline clip-path="url(#clip230)" style="stroke:#000000; stroke-linecap:butt; stroke-linejoin:round; stroke-width:4; stroke-opacity:1; fill:none" points="
  868.514,1800.78 868.514,1781.88 
  "/>
<polyline clip-path="url(#clip230)" style="stroke:#000000; stroke-linecap:butt; stroke-linejoin:round; stroke-width:4; stroke-opacity:1; fill:none" points="
  1436.54,1800.78 1436.54,1781.88 
  "/>
<polyline clip-path="url(#clip230)" style="stroke:#000000; stroke-linecap:butt; stroke-linejoin:round; stroke-width:4; stroke-opacity:1; fill:none" points="
  2004.57,1800.78 2004.57,1781.88 
  "/>
<polyline clip-path="url(#clip230)" style="stroke:#000000; stroke-linecap:butt; stroke-linejoin:round; stroke-width:4; stroke-opacity:1; fill:none" points="
  2572.59,1800.78 2572.59,1781.88 
  "/>
<path clip-path="url(#clip230)" d="M277.873 1834 Q274.261 1834 272.433 1837.57 Q270.627 1841.11 270.627 1848.24 Q270.627 1855.34 272.433 1858.91 Q274.261 1862.45 277.873 1862.45 Q281.507 1862.45 283.312 1858.91 Q285.141 1855.34 285.141 1848.24 Q285.141 1841.11 283.312 1837.57 Q281.507 1834 277.873 1834 M277.873 1830.3 Q283.683 1830.3 286.738 1834.9 Q289.817 1839.49 289.817 1848.24 Q289.817 1856.96 286.738 1861.57 Q283.683 1866.15 277.873 1866.15 Q272.062 1866.15 268.984 1861.57 Q265.928 1856.96 265.928 1848.24 Q265.928 1839.49 268.984 1834.9 Q272.062 1830.3 277.873 1830.3 Z" fill="#000000" fill-rule="evenodd" fill-opacity="1" /><path clip-path="url(#clip230)" d="M298.035 1859.6 L302.919 1859.6 L302.919 1865.48 L298.035 1865.48 L298.035 1859.6 Z" fill="#000000" fill-rule="evenodd" fill-opacity="1" /><path clip-path="url(#clip230)" d="M323.104 1834 Q319.493 1834 317.664 1837.57 Q315.858 1841.11 315.858 1848.24 Q315.858 1855.34 317.664 1858.91 Q319.493 1862.45 323.104 1862.45 Q326.738 1862.45 328.544 1858.91 Q330.372 1855.34 330.372 1848.24 Q330.372 1841.11 328.544 1837.57 Q326.738 1834 323.104 1834 M323.104 1830.3 Q328.914 1830.3 331.97 1834.9 Q335.048 1839.49 335.048 1848.24 Q335.048 1856.96 331.97 1861.57 Q328.914 1866.15 323.104 1866.15 Q317.294 1866.15 314.215 1861.57 Q311.159 1856.96 311.159 1848.24 Q311.159 1839.49 314.215 1834.9 Q317.294 1830.3 323.104 1830.3 Z" fill="#000000" fill-rule="evenodd" fill-opacity="1" /><path clip-path="url(#clip230)" d="M840.251 1861.55 L856.57 1861.55 L856.57 1865.48 L834.626 1865.48 L834.626 1861.55 Q837.288 1858.79 841.871 1854.16 Q846.477 1849.51 847.658 1848.17 Q849.903 1845.65 850.783 1843.91 Q851.686 1842.15 851.686 1840.46 Q851.686 1837.71 849.741 1835.97 Q847.82 1834.23 844.718 1834.23 Q842.519 1834.23 840.065 1835 Q837.635 1835.76 834.857 1837.31 L834.857 1832.59 Q837.681 1831.46 840.135 1830.88 Q842.589 1830.3 844.626 1830.3 Q849.996 1830.3 853.19 1832.98 Q856.385 1835.67 856.385 1840.16 Q856.385 1842.29 855.575 1844.21 Q854.788 1846.11 852.681 1848.7 Q852.102 1849.37 849.001 1852.59 Q845.899 1855.78 840.251 1861.55 Z" fill="#000000" fill-rule="evenodd" fill-opacity="1" /><path clip-path="url(#clip230)" d="M866.385 1859.6 L871.269 1859.6 L871.269 1865.48 L866.385 1865.48 L866.385 1859.6 Z" fill="#000000" fill-rule="evenodd" fill-opacity="1" /><path clip-path="url(#clip230)" d="M881.5 1830.92 L899.857 1830.92 L899.857 1834.86 L885.783 1834.86 L885.783 1843.33 Q886.801 1842.98 887.82 1842.82 Q888.838 1842.64 889.857 1842.64 Q895.644 1842.64 899.023 1845.81 Q902.403 1848.98 902.403 1854.4 Q902.403 1859.97 898.931 1863.08 Q895.459 1866.15 889.139 1866.15 Q886.963 1866.15 884.695 1865.78 Q882.449 1865.41 880.042 1864.67 L880.042 1859.97 Q882.125 1861.11 884.348 1861.66 Q886.57 1862.22 889.047 1862.22 Q893.051 1862.22 895.389 1860.11 Q897.727 1858.01 897.727 1854.4 Q897.727 1850.78 895.389 1848.68 Q893.051 1846.57 889.047 1846.57 Q887.172 1846.57 885.297 1846.99 Q883.445 1847.4 881.5 1848.28 L881.5 1830.92 Z" fill="#000000" fill-rule="evenodd" fill-opacity="1" /><path clip-path="url(#clip230)" d="M1403.71 1830.92 L1422.06 1830.92 L1422.06 1834.86 L1407.99 1834.86 L1407.99 1843.33 Q1409.01 1842.98 1410.02 1842.82 Q1411.04 1842.64 1412.06 1842.64 Q1417.85 1842.64 1421.23 1845.81 Q1424.61 1848.98 1424.61 1854.4 Q1424.61 1859.97 1421.14 1863.08 Q1417.66 1866.15 1411.34 1866.15 Q1409.17 1866.15 1406.9 1865.78 Q1404.65 1865.41 1402.25 1864.67 L1402.25 1859.97 Q1404.33 1861.11 1406.55 1861.66 Q1408.77 1862.22 1411.25 1862.22 Q1415.26 1862.22 1417.59 1860.11 Q1419.93 1858.01 1419.93 1854.4 Q1419.93 1850.78 1417.59 1848.68 Q1415.26 1846.57 1411.25 1846.57 Q1409.38 1846.57 1407.5 1846.99 Q1405.65 1847.4 1403.71 1848.28 L1403.71 1830.92 Z" fill="#000000" fill-rule="evenodd" fill-opacity="1" /><path clip-path="url(#clip230)" d="M1433.82 1859.6 L1438.7 1859.6 L1438.7 1865.48 L1433.82 1865.48 L1433.82 1859.6 Z" fill="#000000" fill-rule="evenodd" fill-opacity="1" /><path clip-path="url(#clip230)" d="M1458.89 1834 Q1455.28 1834 1453.45 1837.57 Q1451.64 1841.11 1451.64 1848.24 Q1451.64 1855.34 1453.45 1858.91 Q1455.28 1862.45 1458.89 1862.45 Q1462.52 1862.45 1464.33 1858.91 Q1466.16 1855.34 1466.16 1848.24 Q1466.16 1841.11 1464.33 1837.57 Q1462.52 1834 1458.89 1834 M1458.89 1830.3 Q1464.7 1830.3 1467.76 1834.9 Q1470.83 1839.49 1470.83 1848.24 Q1470.83 1856.96 1467.76 1861.57 Q1464.7 1866.15 1458.89 1866.15 Q1453.08 1866.15 1450 1861.57 Q1446.95 1856.96 1446.95 1848.24 Q1446.95 1839.49 1450 1834.9 Q1453.08 1830.3 1458.89 1830.3 Z" fill="#000000" fill-rule="evenodd" fill-opacity="1" /><path clip-path="url(#clip230)" d="M1970.89 1830.92 L1993.11 1830.92 L1993.11 1832.91 L1980.56 1865.48 L1975.68 1865.48 L1987.48 1834.86 L1970.89 1834.86 L1970.89 1830.92 Z" fill="#000000" fill-rule="evenodd" fill-opacity="1" /><path clip-path="url(#clip230)" d="M2002.23 1859.6 L2007.11 1859.6 L2007.11 1865.48 L2002.23 1865.48 L2002.23 1859.6 Z" fill="#000000" fill-rule="evenodd" fill-opacity="1" /><path clip-path="url(#clip230)" d="M2017.34 1830.92 L2035.7 1830.92 L2035.7 1834.86 L2021.63 1834.86 L2021.63 1843.33 Q2022.65 1842.98 2023.66 1842.82 Q2024.68 1842.64 2025.7 1842.64 Q2031.49 1842.64 2034.87 1845.81 Q2038.25 1848.98 2038.25 1854.4 Q2038.25 1859.97 2034.77 1863.08 Q2031.3 1866.15 2024.98 1866.15 Q2022.81 1866.15 2020.54 1865.78 Q2018.29 1865.41 2015.89 1864.67 L2015.89 1859.97 Q2017.97 1861.11 2020.19 1861.66 Q2022.41 1862.22 2024.89 1862.22 Q2028.9 1862.22 2031.23 1860.11 Q2033.57 1858.01 2033.57 1854.4 Q2033.57 1850.78 2031.23 1848.68 Q2028.9 1846.57 2024.89 1846.57 Q2023.02 1846.57 2021.14 1846.99 Q2019.29 1847.4 2017.34 1848.28 L2017.34 1830.92 Z" fill="#000000" fill-rule="evenodd" fill-opacity="1" /><path clip-path="url(#clip230)" d="M2524.66 1861.55 L2532.3 1861.55 L2532.3 1835.18 L2523.99 1836.85 L2523.99 1832.59 L2532.26 1830.92 L2536.93 1830.92 L2536.93 1861.55 L2544.57 1861.55 L2544.57 1865.48 L2524.66 1865.48 L2524.66 1861.55 Z" fill="#000000" fill-rule="evenodd" fill-opacity="1" /><path clip-path="url(#clip230)" d="M2564.02 1834 Q2560.41 1834 2558.58 1837.57 Q2556.77 1841.11 2556.77 1848.24 Q2556.77 1855.34 2558.58 1858.91 Q2560.41 1862.45 2564.02 1862.45 Q2567.65 1862.45 2569.46 1858.91 Q2571.28 1855.34 2571.28 1848.24 Q2571.28 1841.11 2569.46 1837.57 Q2567.65 1834 2564.02 1834 M2564.02 1830.3 Q2569.83 1830.3 2572.88 1834.9 Q2575.96 1839.49 2575.96 1848.24 Q2575.96 1856.96 2572.88 1861.57 Q2569.83 1866.15 2564.02 1866.15 Q2558.21 1866.15 2555.13 1861.57 Q2552.07 1856.96 2552.07 1848.24 Q2552.07 1839.49 2555.13 1834.9 Q2558.21 1830.3 2564.02 1830.3 Z" fill="#000000" fill-rule="evenodd" fill-opacity="1" /><path clip-path="url(#clip230)" d="M2584.18 1859.6 L2589.06 1859.6 L2589.06 1865.48 L2584.18 1865.48 L2584.18 1859.6 Z" fill="#000000" fill-rule="evenodd" fill-opacity="1" /><path clip-path="url(#clip230)" d="M2609.25 1834 Q2605.64 1834 2603.81 1837.57 Q2602 1841.11 2602 1848.24 Q2602 1855.34 2603.81 1858.91 Q2605.64 1862.45 2609.25 1862.45 Q2612.88 1862.45 2614.69 1858.91 Q2616.52 1855.34 2616.52 1848.24 Q2616.52 1841.11 2614.69 1837.57 Q2612.88 1834 2609.25 1834 M2609.25 1830.3 Q2615.06 1830.3 2618.11 1834.9 Q2621.19 1839.49 2621.19 1848.24 Q2621.19 1856.96 2618.11 1861.57 Q2615.06 1866.15 2609.25 1866.15 Q2603.44 1866.15 2600.36 1861.57 Q2597.3 1856.96 2597.3 1848.24 Q2597.3 1839.49 2600.36 1834.9 Q2603.44 1830.3 2609.25 1830.3 Z" fill="#000000" fill-rule="evenodd" fill-opacity="1" /><polyline clip-path="url(#clip232)" style="stroke:#000000; stroke-linecap:butt; stroke-linejoin:round; stroke-width:2; stroke-opacity:0.1; fill:none" points="
  232.325,1582.8 2640.76,1582.8 
  "/>
<polyline clip-path="url(#clip232)" style="stroke:#000000; stroke-linecap:butt; stroke-linejoin:round; stroke-width:2; stroke-opacity:0.1; fill:none" points="
  232.325,1273.91 2640.76,1273.91 
  "/>
<polyline clip-path="url(#clip232)" style="stroke:#000000; stroke-linecap:butt; stroke-linejoin:round; stroke-width:2; stroke-opacity:0.1; fill:none" points="
  232.325,965.025 2640.76,965.025 
  "/>
<polyline clip-path="url(#clip232)" style="stroke:#000000; stroke-linecap:butt; stroke-linejoin:round; stroke-width:2; stroke-opacity:0.1; fill:none" points="
  232.325,656.139 2640.76,656.139 
  "/>
<polyline clip-path="url(#clip232)" style="stroke:#000000; stroke-linecap:butt; stroke-linejoin:round; stroke-width:2; stroke-opacity:0.1; fill:none" points="
  232.325,347.252 2640.76,347.252 
  "/>
<polyline clip-path="url(#clip230)" style="stroke:#000000; stroke-linecap:butt; stroke-linejoin:round; stroke-width:4; stroke-opacity:1; fill:none" points="
  232.325,1800.78 232.325,47.2441 
  "/>
<polyline clip-path="url(#clip230)" style="stroke:#000000; stroke-linecap:butt; stroke-linejoin:round; stroke-width:4; stroke-opacity:1; fill:none" points="
  232.325,1582.8 251.223,1582.8 
  "/>
<polyline clip-path="url(#clip230)" style="stroke:#000000; stroke-linecap:butt; stroke-linejoin:round; stroke-width:4; stroke-opacity:1; fill:none" points="
  232.325,1273.91 251.223,1273.91 
  "/>
<polyline clip-path="url(#clip230)" style="stroke:#000000; stroke-linecap:butt; stroke-linejoin:round; stroke-width:4; stroke-opacity:1; fill:none" points="
  232.325,965.025 251.223,965.025 
  "/>
<polyline clip-path="url(#clip230)" style="stroke:#000000; stroke-linecap:butt; stroke-linejoin:round; stroke-width:4; stroke-opacity:1; fill:none" points="
  232.325,656.139 251.223,656.139 
  "/>
<polyline clip-path="url(#clip230)" style="stroke:#000000; stroke-linecap:butt; stroke-linejoin:round; stroke-width:4; stroke-opacity:1; fill:none" points="
  232.325,347.252 251.223,347.252 
  "/>
<path clip-path="url(#clip230)" d="M180.061 1568.6 Q176.45 1568.6 174.621 1572.16 Q172.815 1575.7 172.815 1582.83 Q172.815 1589.94 174.621 1593.5 Q176.45 1597.05 180.061 1597.05 Q183.695 1597.05 185.5 1593.5 Q187.329 1589.94 187.329 1582.83 Q187.329 1575.7 185.5 1572.16 Q183.695 1568.6 180.061 1568.6 M180.061 1564.89 Q185.871 1564.89 188.926 1569.5 Q192.005 1574.08 192.005 1582.83 Q192.005 1591.56 188.926 1596.17 Q185.871 1600.75 180.061 1600.75 Q174.251 1600.75 171.172 1596.17 Q168.116 1591.56 168.116 1582.83 Q168.116 1574.08 171.172 1569.5 Q174.251 1564.89 180.061 1564.89 Z" fill="#000000" fill-rule="evenodd" fill-opacity="1" /><path clip-path="url(#clip230)" d="M83.6029 1287.26 L99.9222 1287.26 L99.9222 1291.19 L77.9779 1291.19 L77.9779 1287.26 Q80.6399 1284.5 85.2232 1279.87 Q89.8297 1275.22 91.0102 1273.88 Q93.2556 1271.35 94.1352 1269.62 Q95.038 1267.86 95.038 1266.17 Q95.038 1263.41 93.0936 1261.68 Q91.1723 1259.94 88.0704 1259.94 Q85.8714 1259.94 83.4177 1260.71 Q80.9871 1261.47 78.2094 1263.02 L78.2094 1258.3 Q81.0334 1257.16 83.4871 1256.59 Q85.9408 1256.01 87.9778 1256.01 Q93.3482 1256.01 96.5426 1258.69 Q99.737 1261.38 99.737 1265.87 Q99.737 1268 98.9269 1269.92 Q98.1398 1271.82 96.0334 1274.41 Q95.4547 1275.08 92.3528 1278.3 Q89.251 1281.49 83.6029 1287.26 Z" fill="#000000" fill-rule="evenodd" fill-opacity="1" /><path clip-path="url(#clip230)" d="M109.783 1256.63 L128.14 1256.63 L128.14 1260.57 L114.066 1260.57 L114.066 1269.04 Q115.084 1268.69 116.103 1268.53 Q117.121 1268.34 118.14 1268.34 Q123.927 1268.34 127.306 1271.52 Q130.686 1274.69 130.686 1280.1 Q130.686 1285.68 127.214 1288.78 Q123.742 1291.86 117.422 1291.86 Q115.246 1291.86 112.978 1291.49 Q110.732 1291.12 108.325 1290.38 L108.325 1285.68 Q110.408 1286.82 112.63 1287.37 Q114.853 1287.93 117.33 1287.93 Q121.334 1287.93 123.672 1285.82 Q126.01 1283.72 126.01 1280.1 Q126.01 1276.49 123.672 1274.39 Q121.334 1272.28 117.33 1272.28 Q115.455 1272.28 113.58 1272.7 Q111.728 1273.11 109.783 1273.99 L109.783 1256.63 Z" fill="#000000" fill-rule="evenodd" fill-opacity="1" /><path clip-path="url(#clip230)" d="M149.899 1259.71 Q146.288 1259.71 144.459 1263.28 Q142.653 1266.82 142.653 1273.95 Q142.653 1281.05 144.459 1284.62 Q146.288 1288.16 149.899 1288.16 Q153.533 1288.16 155.339 1284.62 Q157.167 1281.05 157.167 1273.95 Q157.167 1266.82 155.339 1263.28 Q153.533 1259.71 149.899 1259.71 M149.899 1256.01 Q155.709 1256.01 158.765 1260.61 Q161.843 1265.2 161.843 1273.95 Q161.843 1282.67 158.765 1287.28 Q155.709 1291.86 149.899 1291.86 Q144.089 1291.86 141.01 1287.28 Q137.954 1282.67 137.954 1273.95 Q137.954 1265.2 141.01 1260.61 Q144.089 1256.01 149.899 1256.01 Z" fill="#000000" fill-rule="evenodd" fill-opacity="1" /><path clip-path="url(#clip230)" d="M180.061 1259.71 Q176.45 1259.71 174.621 1263.28 Q172.815 1266.82 172.815 1273.95 Q172.815 1281.05 174.621 1284.62 Q176.45 1288.16 180.061 1288.16 Q183.695 1288.16 185.5 1284.62 Q187.329 1281.05 187.329 1273.95 Q187.329 1266.82 185.5 1263.28 Q183.695 1259.71 180.061 1259.71 M180.061 1256.01 Q185.871 1256.01 188.926 1260.61 Q192.005 1265.2 192.005 1273.95 Q192.005 1282.67 188.926 1287.28 Q185.871 1291.86 180.061 1291.86 Q174.251 1291.86 171.172 1287.28 Q168.116 1282.67 168.116 1273.95 Q168.116 1265.2 171.172 1260.61 Q174.251 1256.01 180.061 1256.01 Z" fill="#000000" fill-rule="evenodd" fill-opacity="1" /><path clip-path="url(#clip230)" d="M79.6214 947.745 L97.9778 947.745 L97.9778 951.68 L83.9038 951.68 L83.9038 960.153 Q84.9223 959.805 85.9408 959.643 Q86.9593 959.458 87.9778 959.458 Q93.7649 959.458 97.1445 962.629 Q100.524 965.801 100.524 971.217 Q100.524 976.796 97.0519 979.898 Q93.5797 982.977 87.2603 982.977 Q85.0843 982.977 82.8158 982.606 Q80.5705 982.236 78.1631 981.495 L78.1631 976.796 Q80.2464 977.93 82.4686 978.486 Q84.6908 979.041 87.1677 979.041 Q91.1723 979.041 93.5102 976.935 Q95.8482 974.828 95.8482 971.217 Q95.8482 967.606 93.5102 965.5 Q91.1723 963.393 87.1677 963.393 Q85.2927 963.393 83.4177 963.81 Q81.5658 964.227 79.6214 965.106 L79.6214 947.745 Z" fill="#000000" fill-rule="evenodd" fill-opacity="1" /><path clip-path="url(#clip230)" d="M119.737 950.824 Q116.126 950.824 114.297 954.389 Q112.492 957.93 112.492 965.06 Q112.492 972.166 114.297 975.731 Q116.126 979.273 119.737 979.273 Q123.371 979.273 125.177 975.731 Q127.005 972.166 127.005 965.06 Q127.005 957.93 125.177 954.389 Q123.371 950.824 119.737 950.824 M119.737 947.12 Q125.547 947.12 128.603 951.727 Q131.681 956.31 131.681 965.06 Q131.681 973.787 128.603 978.393 Q125.547 982.977 119.737 982.977 Q113.927 982.977 110.848 978.393 Q107.793 973.787 107.793 965.06 Q107.793 956.31 110.848 951.727 Q113.927 947.12 119.737 947.12 Z" fill="#000000" fill-rule="evenodd" fill-opacity="1" /><path clip-path="url(#clip230)" d="M149.899 950.824 Q146.288 950.824 144.459 954.389 Q142.653 957.93 142.653 965.06 Q142.653 972.166 144.459 975.731 Q146.288 979.273 149.899 979.273 Q153.533 979.273 155.339 975.731 Q157.167 972.166 157.167 965.06 Q157.167 957.93 155.339 954.389 Q153.533 950.824 149.899 950.824 M149.899 947.12 Q155.709 947.12 158.765 951.727 Q161.843 956.31 161.843 965.06 Q161.843 973.787 158.765 978.393 Q155.709 982.977 149.899 982.977 Q144.089 982.977 141.01 978.393 Q137.954 973.787 137.954 965.06 Q137.954 956.31 141.01 951.727 Q144.089 947.12 149.899 947.12 Z" fill="#000000" fill-rule="evenodd" fill-opacity="1" /><path clip-path="url(#clip230)" d="M180.061 950.824 Q176.45 950.824 174.621 954.389 Q172.815 957.93 172.815 965.06 Q172.815 972.166 174.621 975.731 Q176.45 979.273 180.061 979.273 Q183.695 979.273 185.5 975.731 Q187.329 972.166 187.329 965.06 Q187.329 957.93 185.5 954.389 Q183.695 950.824 180.061 950.824 M180.061 947.12 Q185.871 947.12 188.926 951.727 Q192.005 956.31 192.005 965.06 Q192.005 973.787 188.926 978.393 Q185.871 982.977 180.061 982.977 Q174.251 982.977 171.172 978.393 Q168.116 973.787 168.116 965.06 Q168.116 956.31 171.172 951.727 Q174.251 947.12 180.061 947.12 Z" fill="#000000" fill-rule="evenodd" fill-opacity="1" /><path clip-path="url(#clip230)" d="M78.3946 638.859 L100.617 638.859 L100.617 640.849 L88.0704 673.419 L83.1862 673.419 L94.9917 642.794 L78.3946 642.794 L78.3946 638.859 Z" fill="#000000" fill-rule="evenodd" fill-opacity="1" /><path clip-path="url(#clip230)" d="M109.783 638.859 L128.14 638.859 L128.14 642.794 L114.066 642.794 L114.066 651.266 Q115.084 650.919 116.103 650.757 Q117.121 650.571 118.14 650.571 Q123.927 650.571 127.306 653.743 Q130.686 656.914 130.686 662.331 Q130.686 667.909 127.214 671.011 Q123.742 674.09 117.422 674.09 Q115.246 674.09 112.978 673.719 Q110.732 673.349 108.325 672.608 L108.325 667.909 Q110.408 669.044 112.63 669.599 Q114.853 670.155 117.33 670.155 Q121.334 670.155 123.672 668.048 Q126.01 665.942 126.01 662.331 Q126.01 658.72 123.672 656.613 Q121.334 654.507 117.33 654.507 Q115.455 654.507 113.58 654.923 Q111.728 655.34 109.783 656.22 L109.783 638.859 Z" fill="#000000" fill-rule="evenodd" fill-opacity="1" /><path clip-path="url(#clip230)" d="M149.899 641.937 Q146.288 641.937 144.459 645.502 Q142.653 649.044 142.653 656.173 Q142.653 663.28 144.459 666.844 Q146.288 670.386 149.899 670.386 Q153.533 670.386 155.339 666.844 Q157.167 663.28 157.167 656.173 Q157.167 649.044 155.339 645.502 Q153.533 641.937 149.899 641.937 M149.899 638.234 Q155.709 638.234 158.765 642.84 Q161.843 647.423 161.843 656.173 Q161.843 664.9 158.765 669.506 Q155.709 674.09 149.899 674.09 Q144.089 674.09 141.01 669.506 Q137.954 664.9 137.954 656.173 Q137.954 647.423 141.01 642.84 Q144.089 638.234 149.899 638.234 Z" fill="#000000" fill-rule="evenodd" fill-opacity="1" /><path clip-path="url(#clip230)" d="M180.061 641.937 Q176.45 641.937 174.621 645.502 Q172.815 649.044 172.815 656.173 Q172.815 663.28 174.621 666.844 Q176.45 670.386 180.061 670.386 Q183.695 670.386 185.5 666.844 Q187.329 663.28 187.329 656.173 Q187.329 649.044 185.5 645.502 Q183.695 641.937 180.061 641.937 M180.061 638.234 Q185.871 638.234 188.926 642.84 Q192.005 647.423 192.005 656.173 Q192.005 664.9 188.926 669.506 Q185.871 674.09 180.061 674.09 Q174.251 674.09 171.172 669.506 Q168.116 664.9 168.116 656.173 Q168.116 647.423 171.172 642.84 Q174.251 638.234 180.061 638.234 Z" fill="#000000" fill-rule="evenodd" fill-opacity="1" /><path clip-path="url(#clip230)" d="M50.2234 360.597 L57.8623 360.597 L57.8623 334.231 L49.5521 335.898 L49.5521 331.638 L57.816 329.972 L62.4919 329.972 L62.4919 360.597 L70.1307 360.597 L70.1307 364.532 L50.2234 364.532 L50.2234 360.597 Z" fill="#000000" fill-rule="evenodd" fill-opacity="1" /><path clip-path="url(#clip230)" d="M89.5751 333.05 Q85.964 333.05 84.1353 336.615 Q82.3297 340.157 82.3297 347.287 Q82.3297 354.393 84.1353 357.958 Q85.964 361.499 89.5751 361.499 Q93.2093 361.499 95.0148 357.958 Q96.8435 354.393 96.8435 347.287 Q96.8435 340.157 95.0148 336.615 Q93.2093 333.05 89.5751 333.05 M89.5751 329.347 Q95.3852 329.347 98.4408 333.953 Q101.519 338.537 101.519 347.287 Q101.519 356.013 98.4408 360.62 Q95.3852 365.203 89.5751 365.203 Q83.7649 365.203 80.6862 360.62 Q77.6307 356.013 77.6307 347.287 Q77.6307 338.537 80.6862 333.953 Q83.7649 329.347 89.5751 329.347 Z" fill="#000000" fill-rule="evenodd" fill-opacity="1" /><path clip-path="url(#clip230)" d="M119.737 333.05 Q116.126 333.05 114.297 336.615 Q112.492 340.157 112.492 347.287 Q112.492 354.393 114.297 357.958 Q116.126 361.499 119.737 361.499 Q123.371 361.499 125.177 357.958 Q127.005 354.393 127.005 347.287 Q127.005 340.157 125.177 336.615 Q123.371 333.05 119.737 333.05 M119.737 329.347 Q125.547 329.347 128.603 333.953 Q131.681 338.537 131.681 347.287 Q131.681 356.013 128.603 360.62 Q125.547 365.203 119.737 365.203 Q113.927 365.203 110.848 360.62 Q107.793 356.013 107.793 347.287 Q107.793 338.537 110.848 333.953 Q113.927 329.347 119.737 329.347 Z" fill="#000000" fill-rule="evenodd" fill-opacity="1" /><path clip-path="url(#clip230)" d="M149.899 333.05 Q146.288 333.05 144.459 336.615 Q142.653 340.157 142.653 347.287 Q142.653 354.393 144.459 357.958 Q146.288 361.499 149.899 361.499 Q153.533 361.499 155.339 357.958 Q157.167 354.393 157.167 347.287 Q157.167 340.157 155.339 336.615 Q153.533 333.05 149.899 333.05 M149.899 329.347 Q155.709 329.347 158.765 333.953 Q161.843 338.537 161.843 347.287 Q161.843 356.013 158.765 360.62 Q155.709 365.203 149.899 365.203 Q144.089 365.203 141.01 360.62 Q137.954 356.013 137.954 347.287 Q137.954 338.537 141.01 333.953 Q144.089 329.347 149.899 329.347 Z" fill="#000000" fill-rule="evenodd" fill-opacity="1" /><path clip-path="url(#clip230)" d="M180.061 333.05 Q176.45 333.05 174.621 336.615 Q172.815 340.157 172.815 347.287 Q172.815 354.393 174.621 357.958 Q176.45 361.499 180.061 361.499 Q183.695 361.499 185.5 357.958 Q187.329 354.393 187.329 347.287 Q187.329 340.157 185.5 336.615 Q183.695 333.05 180.061 333.05 M180.061 329.347 Q185.871 329.347 188.926 333.953 Q192.005 338.537 192.005 347.287 Q192.005 356.013 188.926 360.62 Q185.871 365.203 180.061 365.203 Q174.251 365.203 171.172 360.62 Q168.116 356.013 168.116 347.287 Q168.116 338.537 171.172 333.953 Q174.251 329.347 180.061 329.347 Z" fill="#000000" fill-rule="evenodd" fill-opacity="1" /><polyline clip-path="url(#clip232)" style="stroke:#009af9; stroke-linecap:butt; stroke-linejoin:round; stroke-width:4; stroke-opacity:1; fill:none" points="
  300.488,1582.68 315.281,1582.67 452.06,1582.58 534.259,1582.59 603.757,1582.72 679.251,1583.1 748.85,1583.78 823.468,1585.03 909.919,1587.39 986.747,1590.55 
  1054.12,1594.35 1127.57,1599.79 1201.46,1606.83 1283.15,1616.69 1360.88,1628.27 1441.71,1642.68 1509.74,1656.62 1592.8,1675.63 1668.89,1694.37 1739.17,1711.94 
  1810.35,1728.71 1850.24,1736.96 1890.13,1743.83 1926.28,1748.41 1962.43,1750.9 1983.12,1751.15 2003.81,1750.39 2024.5,1748.47 2045.2,1745.24 2064.36,1740.92 
  2083.52,1735.16 2102.68,1727.81 2121.84,1718.67 2140.73,1707.72 2159.61,1694.63 2178.5,1679.16 2197.39,1661.08 2215.73,1640.75 2234.07,1617.42 2252.41,1590.8 
  2270.75,1560.55 2280.15,1543.53 2289.55,1525.41 2298.95,1506.15 2308.35,1485.69 2317.75,1463.97 2327.15,1440.93 2336.55,1416.51 2345.96,1390.65 2356.25,1360.57 
  2366.55,1328.59 2376.85,1294.6 2387.15,1258.5 2397.45,1220.19 2407.75,1179.55 2418.05,1136.46 2428.35,1090.8 2435.83,1055.96 2443.31,1019.64 2450.79,981.793 
  2458.27,942.366 2465.75,901.299 2473.23,858.535 2480.71,814.012 2488.19,767.669 2495.67,719.439 2503.15,669.257 2510.64,617.052 2518.12,562.753 2525.6,506.287 
  2533.08,447.575 2540.56,386.539 2548.04,323.097 2551.11,296.351 2554.18,269.179 2557.25,241.576 2560.32,213.536 2563.38,185.051 2566.45,156.117 2569.52,126.726 
  2572.59,96.8724 
  "/>
<path clip-path="url(#clip230)" d="
M2240.44 209.375 L2560.47 209.375 L2560.47 105.695 L2240.44 105.695  Z
  " fill="#ffffff" fill-rule="evenodd" fill-opacity="1"/>
<polyline clip-path="url(#clip230)" style="stroke:#000000; stroke-linecap:butt; stroke-linejoin:round; stroke-width:4; stroke-opacity:1; fill:none" points="
  2240.44,209.375 2560.47,209.375 2560.47,105.695 2240.44,105.695 2240.44,209.375 
  "/>
<polyline clip-path="url(#clip230)" style="stroke:#009af9; stroke-linecap:butt; stroke-linejoin:round; stroke-width:4; stroke-opacity:1; fill:none" points="
  2267.2,157.535 2427.76,157.535 
  "/>
<path clip-path="url(#clip230)" d="M2468.37 177.223 Q2466.56 181.852 2464.85 183.264 Q2463.13 184.676 2460.26 184.676 L2456.86 184.676 L2456.86 181.112 L2459.36 181.112 Q2461.12 181.112 2462.09 180.278 Q2463.07 179.445 2464.25 176.343 L2465.01 174.399 L2454.52 148.889 L2459.04 148.889 L2467.14 169.167 L2475.24 148.889 L2479.76 148.889 L2468.37 177.223 Z" fill="#000000" fill-rule="evenodd" fill-opacity="1" /><path clip-path="url(#clip230)" d="M2487.05 170.88 L2494.69 170.88 L2494.69 144.515 L2486.38 146.181 L2486.38 141.922 L2494.64 140.255 L2499.32 140.255 L2499.32 170.88 L2506.95 170.88 L2506.95 174.815 L2487.05 174.815 L2487.05 170.88 Z" fill="#000000" fill-rule="evenodd" fill-opacity="1" /></svg>
