<?xml version="1.0" encoding="utf-8"?>
<svg xmlns="http://www.w3.org/2000/svg" xmlns:xlink="http://www.w3.org/1999/xlink" width="672" height="480" viewBox="0 0 2688 1920">
<defs>
  <clipPath id="clip640">
    <rect x="0" y="0" width="2688" height="1920"/>
  </clipPath>
</defs>
<path clip-path="url(#clip640)" d="
M0 1920 L2688 1920 L2688 0 L0 0  Z
  " fill="#ffffff" fill-rule="evenodd" fill-opacity="1"/>
<defs>
  <clipPath id="clip641">
    <rect x="537" y="0" width="1883" height="1883"/>
  </clipPath>
</defs>
<path clip-path="url(#clip640)" d="
M181.747 1800.78 L2640.76 1800.78 L2640.76 47.2441 L181.747 47.2441  Z
  " fill="#ffffff" fill-rule="evenodd" fill-opacity="1"/>
<defs>
  <clipPath id="clip642">
    <rect x="181" y="47" width="2460" height="1755"/>
  </clipPath>
</defs>
<polyline clip-path="url(#clip642)" style="stroke:#000000; stroke-linecap:butt; stroke-linejoin:round; stroke-width:2; stroke-opacity:0.1; fill:none" points="
  251.341,1800.78 251.341,47.2441 
  "/>
<polyline clip-path="url(#clip642)" style="stroke:#000000; stroke-linecap:butt; stroke-linejoin:round; stroke-width:2; stroke-opacity:0.1; fill:none" points="
  831.296,1800.78 831.296,47.2441 
  "/>
<polyline clip-path="url(#clip642)" style="stroke:#000000; stroke-linecap:butt; stroke-linejoin:round; stroke-width:2; stroke-opacity:0.1; fill:none" points="
  1411.25,1800.78 1411.25,47.2441 
  "/>
<polyline clip-path="url(#clip642)" style="stroke:#000000; stroke-linecap:butt; stroke-linejoin:round; stroke-width:2; stroke-opacity:0.1; fill:none" points="
  1991.21,1800.78 1991.21,47.2441 
  "/>
<polyline clip-path="url(#clip642)" style="stroke:#000000; stroke-linecap:butt; stroke-linejoin:round; stroke-width:2; stroke-opacity:0.1; fill:none" points="
  2571.16,1800.78 2571.16,47.2441 
  "/>
<polyline clip-path="url(#clip640)" style="stroke:#000000; stroke-linecap:butt; stroke-linejoin:round; stroke-width:4; stroke-opacity:1; fill:none" points="
  181.747,1800.78 2640.76,1800.78 
  "/>
<polyline clip-path="url(#clip640)" style="stroke:#000000; stroke-linecap:butt; stroke-linejoin:round; stroke-width:4; stroke-opacity:1; fill:none" points="
  251.341,1800.78 251.341,1781.88 
  "/>
<polyline clip-path="url(#clip640)" style="stroke:#000000; stroke-linecap:butt; stroke-linejoin:round; stroke-width:4; stroke-opacity:1; fill:none" points="
  831.296,1800.78 831.296,1781.88 
  "/>
<polyline clip-path="url(#clip640)" style="stroke:#000000; stroke-linecap:butt; stroke-linejoin:round; stroke-width:4; stroke-opacity:1; fill:none" points="
  1411.25,1800.78 1411.25,1781.88 
  "/>
<polyline clip-path="url(#clip640)" style="stroke:#000000; stroke-linecap:butt; stroke-linejoin:round; stroke-width:4; stroke-opacity:1; fill:none" points="
  1991.21,1800.78 1991.21,1781.88 
  "/>
<polyline clip-path="url(#clip640)" style="stroke:#000000; stroke-linecap:butt; stroke-linejoin:round; stroke-width:4; stroke-opacity:1; fill:none" points="
  2571.16,1800.78 2571.16,1781.88 
  "/>
<path clip-path="url(#clip640)" d="M173.251 1861.55 L180.89 1861.55 L180.89 1835.18 L172.58 1836.85 L172.58 1832.59 L180.844 1830.92 L185.52 1830.92 L185.52 1861.55 L193.159 1861.55 L193.159 1865.48 L173.251 1865.48 L173.251 1861.55 Z" fill="#000000" fill-rule="evenodd" fill-opacity="1" /><path clip-path="url(#clip640)" d="M215.45 1835 L203.645 1853.45 L215.45 1853.45 L215.45 1835 M214.223 1830.92 L220.103 1830.92 L220.103 1853.45 L225.034 1853.45 L225.034 1857.34 L220.103 1857.34 L220.103 1865.48 L215.45 1865.48 L215.45 1857.34 L199.848 1857.34 L199.848 1852.82 L214.223 1830.92 Z" fill="#000000" fill-rule="evenodd" fill-opacity="1" /><path clip-path="url(#clip640)" d="M242.765 1834 Q239.154 1834 237.325 1837.57 Q235.52 1841.11 235.52 1848.24 Q235.52 1855.34 237.325 1858.91 Q239.154 1862.45 242.765 1862.45 Q246.399 1862.45 248.205 1858.91 Q250.033 1855.34 250.033 1848.24 Q250.033 1841.11 248.205 1837.57 Q246.399 1834 242.765 1834 M242.765 1830.3 Q248.575 1830.3 251.631 1834.9 Q254.709 1839.49 254.709 1848.24 Q254.709 1856.96 251.631 1861.57 Q248.575 1866.15 242.765 1866.15 Q236.955 1866.15 233.876 1861.57 Q230.821 1856.96 230.821 1848.24 Q230.821 1839.49 233.876 1834.9 Q236.955 1830.3 242.765 1830.3 Z" fill="#000000" fill-rule="evenodd" fill-opacity="1" /><path clip-path="url(#clip640)" d="M262.927 1859.6 L267.811 1859.6 L267.811 1865.48 L262.927 1865.48 L262.927 1859.6 Z" fill="#000000" fill-rule="evenodd" fill-opacity="1" /><path clip-path="url(#clip640)" d="M287.996 1834 Q284.385 1834 282.556 1837.57 Q280.751 1841.11 280.751 1848.24 Q280.751 1855.34 282.556 1858.91 Q284.385 1862.45 287.996 1862.45 Q291.63 1862.45 293.436 1858.91 Q295.265 1855.34 295.265 1848.24 Q295.265 1841.11 293.436 1837.57 Q291.63 1834 287.996 1834 M287.996 1830.3 Q293.806 1830.3 296.862 1834.9 Q299.941 1839.49 299.941 1848.24 Q299.941 1856.96 296.862 1861.57 Q293.806 1866.15 287.996 1866.15 Q282.186 1866.15 279.107 1861.57 Q276.052 1856.96 276.052 1848.24 Q276.052 1839.49 279.107 1834.9 Q282.186 1830.3 287.996 1830.3 Z" fill="#000000" fill-rule="evenodd" fill-opacity="1" /><path clip-path="url(#clip640)" d="M318.158 1834 Q314.547 1834 312.718 1837.57 Q310.913 1841.11 310.913 1848.24 Q310.913 1855.34 312.718 1858.91 Q314.547 1862.45 318.158 1862.45 Q321.792 1862.45 323.598 1858.91 Q325.426 1855.34 325.426 1848.24 Q325.426 1841.11 323.598 1837.57 Q321.792 1834 318.158 1834 M318.158 1830.3 Q323.968 1830.3 327.024 1834.9 Q330.102 1839.49 330.102 1848.24 Q330.102 1856.96 327.024 1861.57 Q323.968 1866.15 318.158 1866.15 Q312.348 1866.15 309.269 1861.57 Q306.214 1856.96 306.214 1848.24 Q306.214 1839.49 309.269 1834.9 Q312.348 1830.3 318.158 1830.3 Z" fill="#000000" fill-rule="evenodd" fill-opacity="1" /><path clip-path="url(#clip640)" d="M753.704 1861.55 L761.343 1861.55 L761.343 1835.18 L753.033 1836.85 L753.033 1832.59 L761.297 1830.92 L765.973 1830.92 L765.973 1861.55 L773.611 1861.55 L773.611 1865.48 L753.704 1865.48 L753.704 1861.55 Z" fill="#000000" fill-rule="evenodd" fill-opacity="1" /><path clip-path="url(#clip640)" d="M795.903 1835 L784.097 1853.45 L795.903 1853.45 L795.903 1835 M794.676 1830.92 L800.556 1830.92 L800.556 1853.45 L805.486 1853.45 L805.486 1857.34 L800.556 1857.34 L800.556 1865.48 L795.903 1865.48 L795.903 1857.34 L780.301 1857.34 L780.301 1852.82 L794.676 1830.92 Z" fill="#000000" fill-rule="evenodd" fill-opacity="1" /><path clip-path="url(#clip640)" d="M823.218 1834 Q819.607 1834 817.778 1837.57 Q815.972 1841.11 815.972 1848.24 Q815.972 1855.34 817.778 1858.91 Q819.607 1862.45 823.218 1862.45 Q826.852 1862.45 828.657 1858.91 Q830.486 1855.34 830.486 1848.24 Q830.486 1841.11 828.657 1837.57 Q826.852 1834 823.218 1834 M823.218 1830.3 Q829.028 1830.3 832.083 1834.9 Q835.162 1839.49 835.162 1848.24 Q835.162 1856.96 832.083 1861.57 Q829.028 1866.15 823.218 1866.15 Q817.407 1866.15 814.329 1861.57 Q811.273 1856.96 811.273 1848.24 Q811.273 1839.49 814.329 1834.9 Q817.407 1830.3 823.218 1830.3 Z" fill="#000000" fill-rule="evenodd" fill-opacity="1" /><path clip-path="url(#clip640)" d="M843.38 1859.6 L848.264 1859.6 L848.264 1865.48 L843.38 1865.48 L843.38 1859.6 Z" fill="#000000" fill-rule="evenodd" fill-opacity="1" /><path clip-path="url(#clip640)" d="M862.477 1861.55 L878.796 1861.55 L878.796 1865.48 L856.852 1865.48 L856.852 1861.55 Q859.514 1858.79 864.097 1854.16 Q868.703 1849.51 869.884 1848.17 Q872.129 1845.65 873.009 1843.91 Q873.912 1842.15 873.912 1840.46 Q873.912 1837.71 871.967 1835.97 Q870.046 1834.23 866.944 1834.23 Q864.745 1834.23 862.291 1835 Q859.861 1835.76 857.083 1837.31 L857.083 1832.59 Q859.907 1831.46 862.361 1830.88 Q864.815 1830.3 866.852 1830.3 Q872.222 1830.3 875.416 1832.98 Q878.611 1835.67 878.611 1840.16 Q878.611 1842.29 877.801 1844.21 Q877.014 1846.11 874.907 1848.7 Q874.328 1849.37 871.227 1852.59 Q868.125 1855.78 862.477 1861.55 Z" fill="#000000" fill-rule="evenodd" fill-opacity="1" /><path clip-path="url(#clip640)" d="M888.657 1830.92 L907.013 1830.92 L907.013 1834.86 L892.939 1834.86 L892.939 1843.33 Q893.958 1842.98 894.976 1842.82 Q895.995 1842.64 897.013 1842.64 Q902.8 1842.64 906.18 1845.81 Q909.56 1848.98 909.56 1854.4 Q909.56 1859.97 906.088 1863.08 Q902.615 1866.15 896.296 1866.15 Q894.12 1866.15 891.851 1865.78 Q889.606 1865.41 887.199 1864.67 L887.199 1859.97 Q889.282 1861.11 891.504 1861.66 Q893.726 1862.22 896.203 1862.22 Q900.208 1862.22 902.546 1860.11 Q904.884 1858.01 904.884 1854.4 Q904.884 1850.78 902.546 1848.68 Q900.208 1846.57 896.203 1846.57 Q894.328 1846.57 892.453 1846.99 Q890.601 1847.4 888.657 1848.28 L888.657 1830.92 Z" fill="#000000" fill-rule="evenodd" fill-opacity="1" /><path clip-path="url(#clip640)" d="M1333.16 1861.55 L1340.8 1861.55 L1340.8 1835.18 L1332.49 1836.85 L1332.49 1832.59 L1340.75 1830.92 L1345.43 1830.92 L1345.43 1861.55 L1353.07 1861.55 L1353.07 1865.48 L1333.16 1865.48 L1333.16 1861.55 Z" fill="#000000" fill-rule="evenodd" fill-opacity="1" /><path clip-path="url(#clip640)" d="M1375.36 1835 L1363.55 1853.45 L1375.36 1853.45 L1375.36 1835 M1374.13 1830.92 L1380.01 1830.92 L1380.01 1853.45 L1384.94 1853.45 L1384.94 1857.34 L1380.01 1857.34 L1380.01 1865.48 L1375.36 1865.48 L1375.36 1857.34 L1359.76 1857.34 L1359.76 1852.82 L1374.13 1830.92 Z" fill="#000000" fill-rule="evenodd" fill-opacity="1" /><path clip-path="url(#clip640)" d="M1402.67 1834 Q1399.06 1834 1397.24 1837.57 Q1395.43 1841.11 1395.43 1848.24 Q1395.43 1855.34 1397.24 1858.91 Q1399.06 1862.45 1402.67 1862.45 Q1406.31 1862.45 1408.11 1858.91 Q1409.94 1855.34 1409.94 1848.24 Q1409.94 1841.11 1408.11 1837.57 Q1406.31 1834 1402.67 1834 M1402.67 1830.3 Q1408.49 1830.3 1411.54 1834.9 Q1414.62 1839.49 1414.62 1848.24 Q1414.62 1856.96 1411.54 1861.57 Q1408.49 1866.15 1402.67 1866.15 Q1396.86 1866.15 1393.79 1861.57 Q1390.73 1856.96 1390.73 1848.24 Q1390.73 1839.49 1393.79 1834.9 Q1396.86 1830.3 1402.67 1830.3 Z" fill="#000000" fill-rule="evenodd" fill-opacity="1" /><path clip-path="url(#clip640)" d="M1422.84 1859.6 L1427.72 1859.6 L1427.72 1865.48 L1422.84 1865.48 L1422.84 1859.6 Z" fill="#000000" fill-rule="evenodd" fill-opacity="1" /><path clip-path="url(#clip640)" d="M1437.95 1830.92 L1456.31 1830.92 L1456.31 1834.86 L1442.23 1834.86 L1442.23 1843.33 Q1443.25 1842.98 1444.27 1842.82 Q1445.29 1842.64 1446.31 1842.64 Q1452.1 1842.64 1455.48 1845.81 Q1458.86 1848.98 1458.86 1854.4 Q1458.86 1859.97 1455.38 1863.08 Q1451.91 1866.15 1445.59 1866.15 Q1443.42 1866.15 1441.15 1865.78 Q1438.9 1865.41 1436.49 1864.67 L1436.49 1859.97 Q1438.58 1861.11 1440.8 1861.66 Q1443.02 1862.22 1445.5 1862.22 Q1449.5 1862.22 1451.84 1860.11 Q1454.18 1858.01 1454.18 1854.4 Q1454.18 1850.78 1451.84 1848.68 Q1449.5 1846.57 1445.5 1846.57 Q1443.62 1846.57 1441.75 1846.99 Q1439.9 1847.4 1437.95 1848.28 L1437.95 1830.92 Z" fill="#000000" fill-rule="evenodd" fill-opacity="1" /><path clip-path="url(#clip640)" d="M1478.07 1834 Q1474.46 1834 1472.63 1837.57 Q1470.82 1841.11 1470.82 1848.24 Q1470.82 1855.34 1472.63 1858.91 Q1474.46 1862.45 1478.07 1862.45 Q1481.7 1862.45 1483.51 1858.91 Q1485.34 1855.34 1485.34 1848.24 Q1485.34 1841.11 1483.51 1837.57 Q1481.7 1834 1478.07 1834 M1478.07 1830.3 Q1483.88 1830.3 1486.93 1834.9 Q1490.01 1839.49 1490.01 1848.24 Q1490.01 1856.96 1486.93 1861.57 Q1483.88 1866.15 1478.07 1866.15 Q1472.26 1866.15 1469.18 1861.57 Q1466.12 1856.96 1466.12 1848.24 Q1466.12 1839.49 1469.18 1834.9 Q1472.26 1830.3 1478.07 1830.3 Z" fill="#000000" fill-rule="evenodd" fill-opacity="1" /><path clip-path="url(#clip640)" d="M1913.61 1861.55 L1921.25 1861.55 L1921.25 1835.18 L1912.94 1836.85 L1912.94 1832.59 L1921.21 1830.92 L1925.88 1830.92 L1925.88 1861.55 L1933.52 1861.55 L1933.52 1865.48 L1913.61 1865.48 L1913.61 1861.55 Z" fill="#000000" fill-rule="evenodd" fill-opacity="1" /><path clip-path="url(#clip640)" d="M1955.81 1835 L1944.01 1853.45 L1955.81 1853.45 L1955.81 1835 M1954.59 1830.92 L1960.47 1830.92 L1960.47 1853.45 L1965.4 1853.45 L1965.4 1857.34 L1960.47 1857.34 L1960.47 1865.48 L1955.81 1865.48 L1955.81 1857.34 L1940.21 1857.34 L1940.21 1852.82 L1954.59 1830.92 Z" fill="#000000" fill-rule="evenodd" fill-opacity="1" /><path clip-path="url(#clip640)" d="M1983.13 1834 Q1979.52 1834 1977.69 1837.57 Q1975.88 1841.11 1975.88 1848.24 Q1975.88 1855.34 1977.69 1858.91 Q1979.52 1862.45 1983.13 1862.45 Q1986.76 1862.45 1988.57 1858.91 Q1990.4 1855.34 1990.4 1848.24 Q1990.4 1841.11 1988.57 1837.57 Q1986.76 1834 1983.13 1834 M1983.13 1830.3 Q1988.94 1830.3 1991.99 1834.9 Q1995.07 1839.49 1995.07 1848.24 Q1995.07 1856.96 1991.99 1861.57 Q1988.94 1866.15 1983.13 1866.15 Q1977.32 1866.15 1974.24 1861.57 Q1971.18 1856.96 1971.18 1848.24 Q1971.18 1839.49 1974.24 1834.9 Q1977.32 1830.3 1983.13 1830.3 Z" fill="#000000" fill-rule="evenodd" fill-opacity="1" /><path clip-path="url(#clip640)" d="M2003.29 1859.6 L2008.17 1859.6 L2008.17 1865.48 L2003.29 1865.48 L2003.29 1859.6 Z" fill="#000000" fill-rule="evenodd" fill-opacity="1" /><path clip-path="url(#clip640)" d="M2017.18 1830.92 L2039.4 1830.92 L2039.4 1832.91 L2026.85 1865.48 L2021.97 1865.48 L2033.78 1834.86 L2017.18 1834.86 L2017.18 1830.92 Z" fill="#000000" fill-rule="evenodd" fill-opacity="1" /><path clip-path="url(#clip640)" d="M2048.57 1830.92 L2066.92 1830.92 L2066.92 1834.86 L2052.85 1834.86 L2052.85 1843.33 Q2053.87 1842.98 2054.89 1842.82 Q2055.91 1842.64 2056.92 1842.64 Q2062.71 1842.64 2066.09 1845.81 Q2069.47 1848.98 2069.47 1854.4 Q2069.47 1859.97 2066 1863.08 Q2062.53 1866.15 2056.21 1866.15 Q2054.03 1866.15 2051.76 1865.78 Q2049.52 1865.41 2047.11 1864.67 L2047.11 1859.97 Q2049.19 1861.11 2051.41 1861.66 Q2053.64 1862.22 2056.11 1862.22 Q2060.12 1862.22 2062.46 1860.11 Q2064.79 1858.01 2064.79 1854.4 Q2064.79 1850.78 2062.46 1848.68 Q2060.12 1846.57 2056.11 1846.57 Q2054.24 1846.57 2052.36 1846.99 Q2050.51 1847.4 2048.57 1848.28 L2048.57 1830.92 Z" fill="#000000" fill-rule="evenodd" fill-opacity="1" /><path clip-path="url(#clip640)" d="M2493.07 1861.55 L2500.71 1861.55 L2500.71 1835.18 L2492.4 1836.85 L2492.4 1832.59 L2500.66 1830.92 L2505.34 1830.92 L2505.34 1861.55 L2512.98 1861.55 L2512.98 1865.48 L2493.07 1865.48 L2493.07 1861.55 Z" fill="#000000" fill-rule="evenodd" fill-opacity="1" /><path clip-path="url(#clip640)" d="M2535.27 1835 L2523.46 1853.45 L2535.27 1853.45 L2535.27 1835 M2534.04 1830.92 L2539.92 1830.92 L2539.92 1853.45 L2544.85 1853.45 L2544.85 1857.34 L2539.92 1857.34 L2539.92 1865.48 L2535.27 1865.48 L2535.27 1857.34 L2519.67 1857.34 L2519.67 1852.82 L2534.04 1830.92 Z" fill="#000000" fill-rule="evenodd" fill-opacity="1" /><path clip-path="url(#clip640)" d="M2553.4 1861.55 L2561.03 1861.55 L2561.03 1835.18 L2552.72 1836.85 L2552.72 1832.59 L2560.99 1830.92 L2565.66 1830.92 L2565.66 1861.55 L2573.3 1861.55 L2573.3 1865.48 L2553.4 1865.48 L2553.4 1861.55 Z" fill="#000000" fill-rule="evenodd" fill-opacity="1" /><path clip-path="url(#clip640)" d="M2582.75 1859.6 L2587.63 1859.6 L2587.63 1865.48 L2582.75 1865.48 L2582.75 1859.6 Z" fill="#000000" fill-rule="evenodd" fill-opacity="1" /><path clip-path="url(#clip640)" d="M2607.82 1834 Q2604.21 1834 2602.38 1837.57 Q2600.57 1841.11 2600.57 1848.24 Q2600.57 1855.34 2602.38 1858.91 Q2604.21 1862.45 2607.82 1862.45 Q2611.45 1862.45 2613.26 1858.91 Q2615.08 1855.34 2615.08 1848.24 Q2615.08 1841.11 2613.26 1837.57 Q2611.45 1834 2607.82 1834 M2607.82 1830.3 Q2613.63 1830.3 2616.68 1834.9 Q2619.76 1839.49 2619.76 1848.24 Q2619.76 1856.96 2616.68 1861.57 Q2613.63 1866.15 2607.82 1866.15 Q2602.01 1866.15 2598.93 1861.57 Q2595.87 1856.96 2595.87 1848.24 Q2595.87 1839.49 2598.93 1834.9 Q2602.01 1830.3 2607.82 1830.3 Z" fill="#000000" fill-rule="evenodd" fill-opacity="1" /><path clip-path="url(#clip640)" d="M2637.98 1834 Q2634.37 1834 2632.54 1837.57 Q2630.73 1841.11 2630.73 1848.24 Q2630.73 1855.34 2632.54 1858.91 Q2634.37 1862.45 2637.98 1862.45 Q2641.61 1862.45 2643.42 1858.91 Q2645.25 1855.34 2645.25 1848.24 Q2645.25 1841.11 2643.42 1837.57 Q2641.61 1834 2637.98 1834 M2637.98 1830.3 Q2643.79 1830.3 2646.84 1834.9 Q2649.92 1839.49 2649.92 1848.24 Q2649.92 1856.96 2646.84 1861.57 Q2643.79 1866.15 2637.98 1866.15 Q2632.17 1866.15 2629.09 1861.57 Q2626.03 1856.96 2626.03 1848.24 Q2626.03 1839.49 2629.09 1834.9 Q2632.17 1830.3 2637.98 1830.3 Z" fill="#000000" fill-rule="evenodd" fill-opacity="1" /><polyline clip-path="url(#clip642)" style="stroke:#000000; stroke-linecap:butt; stroke-linejoin:round; stroke-width:2; stroke-opacity:0.1; fill:none" points="
  181.747,1610.32 2640.76,1610.32 
  "/>
<polyline clip-path="url(#clip642)" style="stroke:#000000; stroke-linecap:butt; stroke-linejoin:round; stroke-width:2; stroke-opacity:0.1; fill:none" points="
  181.747,1171.31 2640.76,1171.31 
  "/>
<polyline clip-path="url(#clip642)" style="stroke:#000000; stroke-linecap:butt; stroke-linejoin:round; stroke-width:2; stroke-opacity:0.1; fill:none" points="
  181.747,732.3 2640.76,732.3 
  "/>
<polyline clip-path="url(#clip642)" style="stroke:#000000; stroke-linecap:butt; stroke-linejoin:round; stroke-width:2; stroke-opacity:0.1; fill:none" points="
  181.747,293.292 2640.76,293.292 
  "/>
<polyline clip-path="url(#clip640)" style="stroke:#000000; stroke-linecap:butt; stroke-linejoin:round; stroke-width:4; stroke-opacity:1; fill:none" points="
  181.747,1800.78 181.747,47.2441 
  "/>
<polyline clip-path="url(#clip640)" style="stroke:#000000; stroke-linecap:butt; stroke-linejoin:round; stroke-width:4; stroke-opacity:1; fill:none" points="
  181.747,1610.32 200.644,1610.32 
  "/>
<polyline clip-path="url(#clip640)" style="stroke:#000000; stroke-linecap:butt; stroke-linejoin:round; stroke-width:4; stroke-opacity:1; fill:none" points="
  181.747,1171.31 200.644,1171.31 
  "/>
<polyline clip-path="url(#clip640)" style="stroke:#000000; stroke-linecap:butt; stroke-linejoin:round; stroke-width:4; stroke-opacity:1; fill:none" points="
  181.747,732.3 200.644,732.3 
  "/>
<polyline clip-path="url(#clip640)" style="stroke:#000000; stroke-linecap:butt; stroke-linejoin:round; stroke-width:4; stroke-opacity:1; fill:none" points="
  181.747,293.292 200.644,293.292 
  "/>
<path clip-path="url(#clip640)" d="M49.5521 1610.77 L79.2279 1610.77 L79.2279 1614.7 L49.5521 1614.7 L49.5521 1610.77 Z" fill="#000000" fill-rule="evenodd" fill-opacity="1" /><path clip-path="url(#clip640)" d="M90.1306 1623.66 L97.7695 1623.66 L97.7695 1597.3 L89.4593 1598.96 L89.4593 1594.7 L97.7232 1593.04 L102.399 1593.04 L102.399 1623.66 L110.038 1623.66 L110.038 1627.6 L90.1306 1627.6 L90.1306 1623.66 Z" fill="#000000" fill-rule="evenodd" fill-opacity="1" /><path clip-path="url(#clip640)" d="M129.482 1596.12 Q125.871 1596.12 124.042 1599.68 Q122.237 1603.22 122.237 1610.35 Q122.237 1617.46 124.042 1621.02 Q125.871 1624.56 129.482 1624.56 Q133.116 1624.56 134.922 1621.02 Q136.751 1617.46 136.751 1610.35 Q136.751 1603.22 134.922 1599.68 Q133.116 1596.12 129.482 1596.12 M129.482 1592.41 Q135.292 1592.41 138.348 1597.02 Q141.427 1601.6 141.427 1610.35 Q141.427 1619.08 138.348 1623.69 Q135.292 1628.27 129.482 1628.27 Q123.672 1628.27 120.593 1623.69 Q117.538 1619.08 117.538 1610.35 Q117.538 1601.6 120.593 1597.02 Q123.672 1592.41 129.482 1592.41 Z" fill="#000000" fill-rule="evenodd" fill-opacity="1" /><path clip-path="url(#clip640)" d="M129.482 1157.11 Q125.871 1157.11 124.042 1160.67 Q122.237 1164.21 122.237 1171.34 Q122.237 1178.45 124.042 1182.01 Q125.871 1185.56 129.482 1185.56 Q133.116 1185.56 134.922 1182.01 Q136.751 1178.45 136.751 1171.34 Q136.751 1164.21 134.922 1160.67 Q133.116 1157.11 129.482 1157.11 M129.482 1153.4 Q135.292 1153.4 138.348 1158.01 Q141.427 1162.59 141.427 1171.34 Q141.427 1180.07 138.348 1184.68 Q135.292 1189.26 129.482 1189.26 Q123.672 1189.26 120.593 1184.68 Q117.538 1180.07 117.538 1171.34 Q117.538 1162.59 120.593 1158.01 Q123.672 1153.4 129.482 1153.4 Z" fill="#000000" fill-rule="evenodd" fill-opacity="1" /><path clip-path="url(#clip640)" d="M90.1306 745.645 L97.7695 745.645 L97.7695 719.279 L89.4593 720.946 L89.4593 716.687 L97.7232 715.02 L102.399 715.02 L102.399 745.645 L110.038 745.645 L110.038 749.58 L90.1306 749.58 L90.1306 745.645 Z" fill="#000000" fill-rule="evenodd" fill-opacity="1" /><path clip-path="url(#clip640)" d="M129.482 718.099 Q125.871 718.099 124.042 721.664 Q122.237 725.205 122.237 732.335 Q122.237 739.441 124.042 743.006 Q125.871 746.548 129.482 746.548 Q133.116 746.548 134.922 743.006 Q136.751 739.441 136.751 732.335 Q136.751 725.205 134.922 721.664 Q133.116 718.099 129.482 718.099 M129.482 714.395 Q135.292 714.395 138.348 719.002 Q141.427 723.585 141.427 732.335 Q141.427 741.062 138.348 745.668 Q135.292 750.251 129.482 750.251 Q123.672 750.251 120.593 745.668 Q117.538 741.062 117.538 732.335 Q117.538 723.585 120.593 719.002 Q123.672 714.395 129.482 714.395 Z" fill="#000000" fill-rule="evenodd" fill-opacity="1" /><path clip-path="url(#clip640)" d="M93.3482 306.636 L109.668 306.636 L109.668 310.572 L87.7232 310.572 L87.7232 306.636 Q90.3852 303.882 94.9685 299.252 Q99.575 294.599 100.756 293.257 Q103.001 290.734 103.881 288.998 Q104.783 287.238 104.783 285.549 Q104.783 282.794 102.839 281.058 Q100.918 279.322 97.8158 279.322 Q95.6167 279.322 93.163 280.086 Q90.7325 280.849 87.9547 282.4 L87.9547 277.678 Q90.7788 276.544 93.2324 275.965 Q95.6861 275.387 97.7232 275.387 Q103.094 275.387 106.288 278.072 Q109.482 280.757 109.482 285.248 Q109.482 287.377 108.672 289.298 Q107.885 291.197 105.779 293.789 Q105.2 294.461 102.098 297.678 Q98.9963 300.873 93.3482 306.636 Z" fill="#000000" fill-rule="evenodd" fill-opacity="1" /><path clip-path="url(#clip640)" d="M129.482 279.09 Q125.871 279.09 124.042 282.655 Q122.237 286.197 122.237 293.326 Q122.237 300.433 124.042 303.997 Q125.871 307.539 129.482 307.539 Q133.116 307.539 134.922 303.997 Q136.751 300.433 136.751 293.326 Q136.751 286.197 134.922 282.655 Q133.116 279.09 129.482 279.09 M129.482 275.387 Q135.292 275.387 138.348 279.993 Q141.427 284.576 141.427 293.326 Q141.427 302.053 138.348 306.66 Q135.292 311.243 129.482 311.243 Q123.672 311.243 120.593 306.66 Q117.538 302.053 117.538 293.326 Q117.538 284.576 120.593 279.993 Q123.672 275.387 129.482 275.387 Z" fill="#000000" fill-rule="evenodd" fill-opacity="1" /><polyline clip-path="url(#clip642)" style="stroke:#009af9; stroke-linecap:butt; stroke-linejoin:round; stroke-width:4; stroke-opacity:1; fill:none" points="
  251.341,96.8724 273.996,106.032 483.474,194.041 609.361,250.034 715.797,299.38 831.417,355.236 938.008,408.981 1052.28,469.21 1184.69,542.695 1302.35,611.688 
  1405.53,675.351 1518.02,748.487 1631.18,826.415 1756.3,918.305 1875.34,1012.09 1999.12,1117.18 2103.31,1212.55 2230.52,1339.03 2350.1,1469.86 2541.68,1710.09 
  2571.16,1751.15 
  "/>
<polyline clip-path="url(#clip642)" style="stroke:#e26f46; stroke-linecap:butt; stroke-linejoin:round; stroke-width:4; stroke-opacity:1; fill:none" points="
  251.341,1171.31 273.996,1171.31 483.474,1171.31 609.361,1171.31 715.797,1171.31 831.417,1171.31 938.008,1171.31 1052.28,1171.31 1184.69,1171.31 1302.35,1171.31 
  1405.53,1171.31 1518.02,1171.31 1631.18,1171.31 1756.3,1171.31 1875.34,1171.31 1999.12,1171.31 2103.31,1171.31 2230.52,1171.31 2350.1,1171.31 2541.68,1171.31 
  2571.16,1171.31 
  "/>
<path clip-path="url(#clip640)" d="
M2233.14 261.215 L2558.79 261.215 L2558.79 105.695 L2233.14 105.695  Z
  " fill="#ffffff" fill-rule="evenodd" fill-opacity="1"/>
<polyline clip-path="url(#clip640)" style="stroke:#000000; stroke-linecap:butt; stroke-linejoin:round; stroke-width:4; stroke-opacity:1; fill:none" points="
  2233.14,261.215 2558.79,261.215 2558.79,105.695 2233.14,105.695 2233.14,261.215 
  "/>
<polyline clip-path="url(#clip640)" style="stroke:#009af9; stroke-linecap:butt; stroke-linejoin:round; stroke-width:4; stroke-opacity:1; fill:none" points="
  2260.46,157.535 2424.39,157.535 
  "/>
<path clip-path="url(#clip640)" d="M2465.56 177.223 Q2463.75 181.852 2462.04 183.264 Q2460.33 184.676 2457.45 184.676 L2454.05 184.676 L2454.05 181.112 L2456.55 181.112 Q2458.31 181.112 2459.28 180.278 Q2460.26 179.445 2461.44 176.343 L2462.2 174.399 L2451.71 148.889 L2456.23 148.889 L2464.33 169.167 L2472.43 148.889 L2476.95 148.889 L2465.56 177.223 Z" fill="#000000" fill-rule="evenodd" fill-opacity="1" /><path clip-path="url(#clip640)" d="M2484.24 170.88 L2491.88 170.88 L2491.88 144.515 L2483.57 146.181 L2483.57 141.922 L2491.83 140.255 L2496.51 140.255 L2496.51 170.88 L2504.14 170.88 L2504.14 174.815 L2484.24 174.815 L2484.24 170.88 Z" fill="#000000" fill-rule="evenodd" fill-opacity="1" /><polyline clip-path="url(#clip640)" style="stroke:#e26f46; stroke-linecap:butt; stroke-linejoin:round; stroke-width:4; stroke-opacity:1; fill:none" points="
  2260.46,209.375 2424.39,209.375 
  "/>
<path clip-path="url(#clip640)" d="M2465.56 229.063 Q2463.75 233.692 2462.04 235.104 Q2460.33 236.516 2457.45 236.516 L2454.05 236.516 L2454.05 232.952 L2456.55 232.952 Q2458.31 232.952 2459.28 232.118 Q2460.26 231.285 2461.44 228.183 L2462.2 226.239 L2451.71 200.729 L2456.23 200.729 L2464.33 221.007 L2472.43 200.729 L2476.95 200.729 L2465.56 229.063 Z" fill="#000000" fill-rule="evenodd" fill-opacity="1" /><path clip-path="url(#clip640)" d="M2487.45 222.72 L2503.77 222.72 L2503.77 226.655 L2481.83 226.655 L2481.83 222.72 Q2484.49 219.965 2489.07 215.336 Q2493.68 210.683 2494.86 209.341 Q2497.11 206.817 2497.99 205.081 Q2498.89 203.322 2498.89 201.632 Q2498.89 198.878 2496.95 197.142 Q2495.02 195.405 2491.92 195.405 Q2489.72 195.405 2487.27 196.169 Q2484.84 196.933 2482.06 198.484 L2482.06 193.762 Q2484.89 192.628 2487.34 192.049 Q2489.79 191.47 2491.83 191.47 Q2497.2 191.47 2500.39 194.155 Q2503.59 196.841 2503.59 201.331 Q2503.59 203.461 2502.78 205.382 Q2501.99 207.28 2499.89 209.873 Q2499.31 210.544 2496.2 213.762 Q2493.1 216.956 2487.45 222.72 Z" fill="#000000" fill-rule="evenodd" fill-opacity="1" /></svg>
