<?xml version="1.0" encoding="utf-8"?>
<svg xmlns="http://www.w3.org/2000/svg" xmlns:xlink="http://www.w3.org/1999/xlink" width="672" height="480" viewBox="0 0 2688 1920">
<defs>
  <clipPath id="clip900">
    <rect x="0" y="0" width="2688" height="1920"/>
  </clipPath>
</defs>
<path clip-path="url(#clip900)" d="
M0 1920 L2688 1920 L2688 0 L0 0  Z
  " fill="#ffffff" fill-rule="evenodd" fill-opacity="1"/>
<defs>
  <clipPath id="clip901">
    <rect x="537" y="0" width="1883" height="1883"/>
  </clipPath>
</defs>
<path clip-path="url(#clip900)" d="
M196.978 1800.78 L2640.76 1800.78 L2640.76 47.2441 L196.978 47.2441  Z
  " fill="#ffffff" fill-rule="evenodd" fill-opacity="1"/>
<defs>
  <clipPath id="clip902">
    <rect x="196" y="47" width="2445" height="1755"/>
  </clipPath>
</defs>
<polyline clip-path="url(#clip902)" style="stroke:#000000; stroke-linecap:butt; stroke-linejoin:round; stroke-width:2; stroke-opacity:0.1; fill:none" points="
  266.142,1800.78 266.142,47.2441 
  "/>
<polyline clip-path="url(#clip902)" style="stroke:#000000; stroke-linecap:butt; stroke-linejoin:round; stroke-width:2; stroke-opacity:0.1; fill:none" points="
  727.232,1800.78 727.232,47.2441 
  "/>
<polyline clip-path="url(#clip902)" style="stroke:#000000; stroke-linecap:butt; stroke-linejoin:round; stroke-width:2; stroke-opacity:0.1; fill:none" points="
  1188.32,1800.78 1188.32,47.2441 
  "/>
<polyline clip-path="url(#clip902)" style="stroke:#000000; stroke-linecap:butt; stroke-linejoin:round; stroke-width:2; stroke-opacity:0.1; fill:none" points="
  1649.41,1800.78 1649.41,47.2441 
  "/>
<polyline clip-path="url(#clip902)" style="stroke:#000000; stroke-linecap:butt; stroke-linejoin:round; stroke-width:2; stroke-opacity:0.1; fill:none" points="
  2110.5,1800.78 2110.5,47.2441 
  "/>
<polyline clip-path="url(#clip902)" style="stroke:#000000; stroke-linecap:butt; stroke-linejoin:round; stroke-width:2; stroke-opacity:0.1; fill:none" points="
  2571.59,1800.78 2571.59,47.2441 
  "/>
<polyline clip-path="url(#clip900)" style="stroke:#000000; stroke-linecap:butt; stroke-linejoin:round; stroke-width:4; stroke-opacity:1; fill:none" points="
  196.978,1800.78 2640.76,1800.78 
  "/>
<polyline clip-path="url(#clip900)" style="stroke:#000000; stroke-linecap:butt; stroke-linejoin:round; stroke-width:4; stroke-opacity:1; fill:none" points="
  266.142,1800.78 266.142,1781.88 
  "/>
<polyline clip-path="url(#clip900)" style="stroke:#000000; stroke-linecap:butt; stroke-linejoin:round; stroke-width:4; stroke-opacity:1; fill:none" points="
  727.232,1800.78 727.232,1781.88 
  "/>
<polyline clip-path="url(#clip900)" style="stroke:#000000; stroke-linecap:butt; stroke-linejoin:round; stroke-width:4; stroke-opacity:1; fill:none" points="
  1188.32,1800.78 1188.32,1781.88 
  "/>
<polyline clip-path="url(#clip900)" style="stroke:#000000; stroke-linecap:butt; stroke-linejoin:round; stroke-width:4; stroke-opacity:1; fill:none" points="
  1649.41,1800.78 1649.41,1781.88 
  "/>
<polyline clip-path="url(#clip900)" style="stroke:#000000; stroke-linecap:butt; stroke-linejoin:round; stroke-width:4; stroke-opacity:1; fill:none" points="
  2110.5,1800.78 2110.5,1781.88 
  "/>
<polyline clip-path="url(#clip900)" style="stroke:#000000; stroke-linecap:butt; stroke-linejoin:round; stroke-width:4; stroke-opacity:1; fill:none" points="
  2571.59,1800.78 2571.59,1781.88 
  "/>
<path clip-path="url(#clip900)" d="M233.295 1861.55 L240.933 1861.55 L240.933 1835.18 L232.623 1836.85 L232.623 1832.59 L240.887 1830.92 L245.563 1830.92 L245.563 1861.55 L253.202 1861.55 L253.202 1865.48 L233.295 1865.48 L233.295 1861.55 Z" fill="#000000" fill-rule="evenodd" fill-opacity="1" /><path clip-path="url(#clip900)" d="M262.646 1859.6 L267.53 1859.6 L267.53 1865.48 L262.646 1865.48 L262.646 1859.6 Z" fill="#000000" fill-rule="evenodd" fill-opacity="1" /><path clip-path="url(#clip900)" d="M287.716 1834 Q284.104 1834 282.276 1837.57 Q280.47 1841.11 280.47 1848.24 Q280.47 1855.34 282.276 1858.91 Q284.104 1862.45 287.716 1862.45 Q291.35 1862.45 293.155 1858.91 Q294.984 1855.34 294.984 1848.24 Q294.984 1841.11 293.155 1837.57 Q291.35 1834 287.716 1834 M287.716 1830.3 Q293.526 1830.3 296.581 1834.9 Q299.66 1839.49 299.66 1848.24 Q299.66 1856.96 296.581 1861.57 Q293.526 1866.15 287.716 1866.15 Q281.905 1866.15 278.827 1861.57 Q275.771 1856.96 275.771 1848.24 Q275.771 1839.49 278.827 1834.9 Q281.905 1830.3 287.716 1830.3 Z" fill="#000000" fill-rule="evenodd" fill-opacity="1" /><path clip-path="url(#clip900)" d="M694.998 1861.55 L702.637 1861.55 L702.637 1835.18 L694.327 1836.85 L694.327 1832.59 L702.591 1830.92 L707.267 1830.92 L707.267 1861.55 L714.905 1861.55 L714.905 1865.48 L694.998 1865.48 L694.998 1861.55 Z" fill="#000000" fill-rule="evenodd" fill-opacity="1" /><path clip-path="url(#clip900)" d="M724.35 1859.6 L729.234 1859.6 L729.234 1865.48 L724.35 1865.48 L724.35 1859.6 Z" fill="#000000" fill-rule="evenodd" fill-opacity="1" /><path clip-path="url(#clip900)" d="M740.229 1861.55 L747.868 1861.55 L747.868 1835.18 L739.558 1836.85 L739.558 1832.59 L747.822 1830.92 L752.498 1830.92 L752.498 1861.55 L760.137 1861.55 L760.137 1865.48 L740.229 1865.48 L740.229 1861.55 Z" fill="#000000" fill-rule="evenodd" fill-opacity="1" /><path clip-path="url(#clip900)" d="M1156.27 1861.55 L1163.91 1861.55 L1163.91 1835.18 L1155.6 1836.85 L1155.6 1832.59 L1163.87 1830.92 L1168.54 1830.92 L1168.54 1861.55 L1176.18 1861.55 L1176.18 1865.48 L1156.27 1865.48 L1156.27 1861.55 Z" fill="#000000" fill-rule="evenodd" fill-opacity="1" /><path clip-path="url(#clip900)" d="M1185.63 1859.6 L1190.51 1859.6 L1190.51 1865.48 L1185.63 1865.48 L1185.63 1859.6 Z" fill="#000000" fill-rule="evenodd" fill-opacity="1" /><path clip-path="url(#clip900)" d="M1204.72 1861.55 L1221.04 1861.55 L1221.04 1865.48 L1199.1 1865.48 L1199.1 1861.55 Q1201.76 1858.79 1206.34 1854.16 Q1210.95 1849.51 1212.13 1848.17 Q1214.37 1845.65 1215.25 1843.91 Q1216.16 1842.15 1216.16 1840.46 Q1216.16 1837.71 1214.21 1835.97 Q1212.29 1834.23 1209.19 1834.23 Q1206.99 1834.23 1204.54 1835 Q1202.11 1835.76 1199.33 1837.31 L1199.33 1832.59 Q1202.15 1831.46 1204.61 1830.88 Q1207.06 1830.3 1209.1 1830.3 Q1214.47 1830.3 1217.66 1832.98 Q1220.86 1835.67 1220.86 1840.16 Q1220.86 1842.29 1220.05 1844.21 Q1219.26 1846.11 1217.15 1848.7 Q1216.57 1849.37 1213.47 1852.59 Q1210.37 1855.78 1204.72 1861.55 Z" fill="#000000" fill-rule="evenodd" fill-opacity="1" /><path clip-path="url(#clip900)" d="M1616.89 1861.55 L1624.53 1861.55 L1624.53 1835.18 L1616.22 1836.85 L1616.22 1832.59 L1624.48 1830.92 L1629.16 1830.92 L1629.16 1861.55 L1636.8 1861.55 L1636.8 1865.48 L1616.89 1865.48 L1616.89 1861.55 Z" fill="#000000" fill-rule="evenodd" fill-opacity="1" /><path clip-path="url(#clip900)" d="M1646.24 1859.6 L1651.13 1859.6 L1651.13 1865.48 L1646.24 1865.48 L1646.24 1859.6 Z" fill="#000000" fill-rule="evenodd" fill-opacity="1" /><path clip-path="url(#clip900)" d="M1675.48 1846.85 Q1678.83 1847.57 1680.71 1849.84 Q1682.61 1852.1 1682.61 1855.44 Q1682.61 1860.55 1679.09 1863.35 Q1675.57 1866.15 1669.09 1866.15 Q1666.91 1866.15 1664.6 1865.71 Q1662.31 1865.3 1659.85 1864.44 L1659.85 1859.93 Q1661.8 1861.06 1664.11 1861.64 Q1666.43 1862.22 1668.95 1862.22 Q1673.35 1862.22 1675.64 1860.48 Q1677.95 1858.75 1677.95 1855.44 Q1677.95 1852.38 1675.8 1850.67 Q1673.67 1848.93 1669.85 1848.93 L1665.82 1848.93 L1665.82 1845.09 L1670.04 1845.09 Q1673.49 1845.09 1675.31 1843.72 Q1677.14 1842.34 1677.14 1839.74 Q1677.14 1837.08 1675.25 1835.67 Q1673.37 1834.23 1669.85 1834.23 Q1667.93 1834.23 1665.73 1834.65 Q1663.53 1835.07 1660.89 1835.95 L1660.89 1831.78 Q1663.56 1831.04 1665.87 1830.67 Q1668.21 1830.3 1670.27 1830.3 Q1675.59 1830.3 1678.69 1832.73 Q1681.8 1835.14 1681.8 1839.26 Q1681.8 1842.13 1680.15 1844.12 Q1678.51 1846.09 1675.48 1846.85 Z" fill="#000000" fill-rule="evenodd" fill-opacity="1" /><path clip-path="url(#clip900)" d="M2077.41 1861.55 L2085.05 1861.55 L2085.05 1835.18 L2076.74 1836.85 L2076.74 1832.59 L2085 1830.92 L2089.68 1830.92 L2089.68 1861.55 L2097.32 1861.55 L2097.32 1865.48 L2077.41 1865.48 L2077.41 1861.55 Z" fill="#000000" fill-rule="evenodd" fill-opacity="1" /><path clip-path="url(#clip900)" d="M2106.76 1859.6 L2111.65 1859.6 L2111.65 1865.48 L2106.76 1865.48 L2106.76 1859.6 Z" fill="#000000" fill-rule="evenodd" fill-opacity="1" /><path clip-path="url(#clip900)" d="M2134.68 1835 L2122.87 1853.45 L2134.68 1853.45 L2134.68 1835 M2133.45 1830.92 L2139.33 1830.92 L2139.33 1853.45 L2144.26 1853.45 L2144.26 1857.34 L2139.33 1857.34 L2139.33 1865.48 L2134.68 1865.48 L2134.68 1857.34 L2119.08 1857.34 L2119.08 1852.82 L2133.45 1830.92 Z" fill="#000000" fill-rule="evenodd" fill-opacity="1" /><path clip-path="url(#clip900)" d="M2539.24 1861.55 L2546.88 1861.55 L2546.88 1835.18 L2538.57 1836.85 L2538.57 1832.59 L2546.84 1830.92 L2551.51 1830.92 L2551.51 1861.55 L2559.15 1861.55 L2559.15 1865.48 L2539.24 1865.48 L2539.24 1861.55 Z" fill="#000000" fill-rule="evenodd" fill-opacity="1" /><path clip-path="url(#clip900)" d="M2568.59 1859.6 L2573.48 1859.6 L2573.48 1865.48 L2568.59 1865.48 L2568.59 1859.6 Z" fill="#000000" fill-rule="evenodd" fill-opacity="1" /><path clip-path="url(#clip900)" d="M2583.71 1830.92 L2602.07 1830.92 L2602.07 1834.86 L2587.99 1834.86 L2587.99 1843.33 Q2589.01 1842.98 2590.03 1842.82 Q2591.05 1842.64 2592.07 1842.64 Q2597.85 1842.64 2601.23 1845.81 Q2604.61 1848.98 2604.61 1854.4 Q2604.61 1859.97 2601.14 1863.08 Q2597.67 1866.15 2591.35 1866.15 Q2589.17 1866.15 2586.9 1865.78 Q2584.66 1865.41 2582.25 1864.67 L2582.25 1859.97 Q2584.34 1861.11 2586.56 1861.66 Q2588.78 1862.22 2591.26 1862.22 Q2595.26 1862.22 2597.6 1860.11 Q2599.94 1858.01 2599.94 1854.4 Q2599.94 1850.78 2597.6 1848.68 Q2595.26 1846.57 2591.26 1846.57 Q2589.38 1846.57 2587.51 1846.99 Q2585.65 1847.4 2583.71 1848.28 L2583.71 1830.92 Z" fill="#000000" fill-rule="evenodd" fill-opacity="1" /><polyline clip-path="url(#clip902)" style="stroke:#000000; stroke-linecap:butt; stroke-linejoin:round; stroke-width:2; stroke-opacity:0.1; fill:none" points="
  196.978,1618.81 2640.76,1618.81 
  "/>
<polyline clip-path="url(#clip902)" style="stroke:#000000; stroke-linecap:butt; stroke-linejoin:round; stroke-width:2; stroke-opacity:0.1; fill:none" points="
  196.978,1221.78 2640.76,1221.78 
  "/>
<polyline clip-path="url(#clip902)" style="stroke:#000000; stroke-linecap:butt; stroke-linejoin:round; stroke-width:2; stroke-opacity:0.1; fill:none" points="
  196.978,824.755 2640.76,824.755 
  "/>
<polyline clip-path="url(#clip902)" style="stroke:#000000; stroke-linecap:butt; stroke-linejoin:round; stroke-width:2; stroke-opacity:0.1; fill:none" points="
  196.978,427.728 2640.76,427.728 
  "/>
<polyline clip-path="url(#clip900)" style="stroke:#000000; stroke-linecap:butt; stroke-linejoin:round; stroke-width:4; stroke-opacity:1; fill:none" points="
  196.978,1800.78 196.978,47.2441 
  "/>
<polyline clip-path="url(#clip900)" style="stroke:#000000; stroke-linecap:butt; stroke-linejoin:round; stroke-width:4; stroke-opacity:1; fill:none" points="
  196.978,1618.81 215.876,1618.81 
  "/>
<polyline clip-path="url(#clip900)" style="stroke:#000000; stroke-linecap:butt; stroke-linejoin:round; stroke-width:4; stroke-opacity:1; fill:none" points="
  196.978,1221.78 215.876,1221.78 
  "/>
<polyline clip-path="url(#clip900)" style="stroke:#000000; stroke-linecap:butt; stroke-linejoin:round; stroke-width:4; stroke-opacity:1; fill:none" points="
  196.978,824.755 215.876,824.755 
  "/>
<polyline clip-path="url(#clip900)" style="stroke:#000000; stroke-linecap:butt; stroke-linejoin:round; stroke-width:4; stroke-opacity:1; fill:none" points="
  196.978,427.728 215.876,427.728 
  "/>
<path clip-path="url(#clip900)" d="M49.8993 1619.26 L79.5751 1619.26 L79.5751 1623.2 L49.8993 1623.2 L49.8993 1619.26 Z" fill="#000000" fill-rule="evenodd" fill-opacity="1" /><path clip-path="url(#clip900)" d="M99.6676 1604.61 Q96.0565 1604.61 94.2278 1608.17 Q92.4223 1611.71 92.4223 1618.84 Q92.4223 1625.95 94.2278 1629.51 Q96.0565 1633.06 99.6676 1633.06 Q103.302 1633.06 105.107 1629.51 Q106.936 1625.95 106.936 1618.84 Q106.936 1611.71 105.107 1608.17 Q103.302 1604.61 99.6676 1604.61 M99.6676 1600.9 Q105.478 1600.9 108.533 1605.51 Q111.612 1610.09 111.612 1618.84 Q111.612 1627.57 108.533 1632.18 Q105.478 1636.76 99.6676 1636.76 Q93.8574 1636.76 90.7788 1632.18 Q87.7232 1627.57 87.7232 1618.84 Q87.7232 1610.09 90.7788 1605.51 Q93.8574 1600.9 99.6676 1600.9 Z" fill="#000000" fill-rule="evenodd" fill-opacity="1" /><path clip-path="url(#clip900)" d="M119.83 1630.21 L124.714 1630.21 L124.714 1636.09 L119.83 1636.09 L119.83 1630.21 Z" fill="#000000" fill-rule="evenodd" fill-opacity="1" /><path clip-path="url(#clip900)" d="M135.038 1635.37 L135.038 1631.11 Q136.797 1631.95 138.603 1632.38 Q140.408 1632.82 142.144 1632.82 Q146.774 1632.82 149.204 1629.72 Q151.658 1626.6 152.005 1620.26 Q150.663 1622.25 148.603 1623.31 Q146.542 1624.38 144.042 1624.38 Q138.857 1624.38 135.825 1621.25 Q132.816 1618.1 132.816 1612.66 Q132.816 1607.34 135.964 1604.12 Q139.112 1600.9 144.343 1600.9 Q150.339 1600.9 153.487 1605.51 Q156.658 1610.09 156.658 1618.84 Q156.658 1627.01 152.769 1631.9 Q148.903 1636.76 142.353 1636.76 Q140.593 1636.76 138.788 1636.41 Q136.982 1636.07 135.038 1635.37 M144.343 1620.72 Q147.491 1620.72 149.32 1618.57 Q151.172 1616.41 151.172 1612.66 Q151.172 1608.94 149.32 1606.78 Q147.491 1604.61 144.343 1604.61 Q141.195 1604.61 139.343 1606.78 Q137.515 1608.94 137.515 1612.66 Q137.515 1616.41 139.343 1618.57 Q141.195 1620.72 144.343 1620.72 Z" fill="#000000" fill-rule="evenodd" fill-opacity="1" /><path clip-path="url(#clip900)" d="M49.5521 1222.23 L79.2279 1222.23 L79.2279 1226.17 L49.5521 1226.17 L49.5521 1222.23 Z" fill="#000000" fill-rule="evenodd" fill-opacity="1" /><path clip-path="url(#clip900)" d="M99.3204 1207.58 Q95.7093 1207.58 93.8806 1211.15 Q92.075 1214.69 92.075 1221.82 Q92.075 1228.92 93.8806 1232.49 Q95.7093 1236.03 99.3204 1236.03 Q102.955 1236.03 104.76 1232.49 Q106.589 1228.92 106.589 1221.82 Q106.589 1214.69 104.76 1211.15 Q102.955 1207.58 99.3204 1207.58 M99.3204 1203.88 Q105.131 1203.88 108.186 1208.48 Q111.265 1213.07 111.265 1221.82 Q111.265 1230.54 108.186 1235.15 Q105.131 1239.73 99.3204 1239.73 Q93.5102 1239.73 90.4315 1235.15 Q87.376 1230.54 87.376 1221.82 Q87.376 1213.07 90.4315 1208.48 Q93.5102 1203.88 99.3204 1203.88 Z" fill="#000000" fill-rule="evenodd" fill-opacity="1" /><path clip-path="url(#clip900)" d="M119.482 1233.18 L124.367 1233.18 L124.367 1239.06 L119.482 1239.06 L119.482 1233.18 Z" fill="#000000" fill-rule="evenodd" fill-opacity="1" /><path clip-path="url(#clip900)" d="M145.13 1219.92 Q141.982 1219.92 140.13 1222.07 Q138.302 1224.22 138.302 1227.97 Q138.302 1231.7 140.13 1233.88 Q141.982 1236.03 145.13 1236.03 Q148.278 1236.03 150.107 1233.88 Q151.959 1231.7 151.959 1227.97 Q151.959 1224.22 150.107 1222.07 Q148.278 1219.92 145.13 1219.92 M154.413 1205.27 L154.413 1209.52 Q152.653 1208.69 150.848 1208.25 Q149.065 1207.81 147.306 1207.81 Q142.677 1207.81 140.223 1210.94 Q137.792 1214.06 137.445 1220.38 Q138.811 1218.37 140.871 1217.3 Q142.931 1216.21 145.408 1216.21 Q150.616 1216.21 153.626 1219.39 Q156.658 1222.53 156.658 1227.97 Q156.658 1233.3 153.51 1236.52 Q150.362 1239.73 145.13 1239.73 Q139.135 1239.73 135.964 1235.15 Q132.792 1230.54 132.792 1221.82 Q132.792 1213.62 136.681 1208.76 Q140.57 1203.88 147.121 1203.88 Q148.88 1203.88 150.663 1204.22 Q152.468 1204.57 154.413 1205.27 Z" fill="#000000" fill-rule="evenodd" fill-opacity="1" /><path clip-path="url(#clip900)" d="M50.3623 825.206 L80.0381 825.206 L80.0381 829.142 L50.3623 829.142 L50.3623 825.206 Z" fill="#000000" fill-rule="evenodd" fill-opacity="1" /><path clip-path="url(#clip900)" d="M100.131 810.554 Q96.5195 810.554 94.6908 814.118 Q92.8852 817.66 92.8852 824.79 Q92.8852 831.896 94.6908 835.461 Q96.5195 839.003 100.131 839.003 Q103.765 839.003 105.57 835.461 Q107.399 831.896 107.399 824.79 Q107.399 817.66 105.57 814.118 Q103.765 810.554 100.131 810.554 M100.131 806.85 Q105.941 806.85 108.996 811.456 Q112.075 816.04 112.075 824.79 Q112.075 833.517 108.996 838.123 Q105.941 842.706 100.131 842.706 Q94.3204 842.706 91.2417 838.123 Q88.1862 833.517 88.1862 824.79 Q88.1862 816.04 91.2417 811.456 Q94.3204 806.85 100.131 806.85 Z" fill="#000000" fill-rule="evenodd" fill-opacity="1" /><path clip-path="url(#clip900)" d="M120.292 836.155 L125.177 836.155 L125.177 842.035 L120.292 842.035 L120.292 836.155 Z" fill="#000000" fill-rule="evenodd" fill-opacity="1" /><path clip-path="url(#clip900)" d="M149.528 823.401 Q152.885 824.118 154.76 826.387 Q156.658 828.655 156.658 831.989 Q156.658 837.104 153.14 839.905 Q149.621 842.706 143.14 842.706 Q140.964 842.706 138.649 842.266 Q136.357 841.85 133.904 840.993 L133.904 836.479 Q135.848 837.614 138.163 838.192 Q140.478 838.771 143.001 838.771 Q147.399 838.771 149.69 837.035 Q152.005 835.299 152.005 831.989 Q152.005 828.933 149.853 827.22 Q147.723 825.484 143.903 825.484 L139.876 825.484 L139.876 821.642 L144.089 821.642 Q147.538 821.642 149.366 820.276 Q151.195 818.887 151.195 816.294 Q151.195 813.632 149.297 812.22 Q147.422 810.785 143.903 810.785 Q141.982 810.785 139.783 811.202 Q137.584 811.618 134.945 812.498 L134.945 808.331 Q137.607 807.591 139.922 807.22 Q142.26 806.85 144.32 806.85 Q149.644 806.85 152.746 809.281 Q155.848 811.688 155.848 815.808 Q155.848 818.679 154.204 820.669 Q152.561 822.637 149.528 823.401 Z" fill="#000000" fill-rule="evenodd" fill-opacity="1" /><path clip-path="url(#clip900)" d="M99.4824 413.527 Q95.8713 413.527 94.0426 417.092 Q92.2371 420.633 92.2371 427.763 Q92.2371 434.869 94.0426 438.434 Q95.8713 441.976 99.4824 441.976 Q103.117 441.976 104.922 438.434 Q106.751 434.869 106.751 427.763 Q106.751 420.633 104.922 417.092 Q103.117 413.527 99.4824 413.527 M99.4824 409.823 Q105.293 409.823 108.348 414.43 Q111.427 419.013 111.427 427.763 Q111.427 436.49 108.348 441.096 Q105.293 445.679 99.4824 445.679 Q93.6723 445.679 90.5936 441.096 Q87.538 436.49 87.538 427.763 Q87.538 419.013 90.5936 414.43 Q93.6723 409.823 99.4824 409.823 Z" fill="#000000" fill-rule="evenodd" fill-opacity="1" /><path clip-path="url(#clip900)" d="M119.644 439.129 L124.529 439.129 L124.529 445.008 L119.644 445.008 L119.644 439.129 Z" fill="#000000" fill-rule="evenodd" fill-opacity="1" /><path clip-path="url(#clip900)" d="M144.714 413.527 Q141.103 413.527 139.274 417.092 Q137.468 420.633 137.468 427.763 Q137.468 434.869 139.274 438.434 Q141.103 441.976 144.714 441.976 Q148.348 441.976 150.153 438.434 Q151.982 434.869 151.982 427.763 Q151.982 420.633 150.153 417.092 Q148.348 413.527 144.714 413.527 M144.714 409.823 Q150.524 409.823 153.579 414.43 Q156.658 419.013 156.658 427.763 Q156.658 436.49 153.579 441.096 Q150.524 445.679 144.714 445.679 Q138.903 445.679 135.825 441.096 Q132.769 436.49 132.769 427.763 Q132.769 419.013 135.825 414.43 Q138.903 409.823 144.714 409.823 Z" fill="#000000" fill-rule="evenodd" fill-opacity="1" /><polyline clip-path="url(#clip902)" style="stroke:#009af9; stroke-linecap:butt; stroke-linejoin:round; stroke-width:4; stroke-opacity:1; fill:none" points="
  266.142,1751.15 288.656,1738.2 496.836,1615.41 621.944,1539.03 727.721,1472.92 842.624,1399.54 948.555,1330.43 1062.12,1254.79 1193.7,1165.14 1310.64,1083.66 
  1413.18,1010.81 1524.97,929.888 1637.43,846.918 1761.77,753.353 1880.08,662.54 2003.09,566.269 2106.64,483.768 2233.06,381.234 2351.9,283.035 2542.29,122.048 
  2571.59,96.8724 
  "/>
<path clip-path="url(#clip900)" d="
M2235.34 209.375 L2559.3 209.375 L2559.3 105.695 L2235.34 105.695  Z
  " fill="#ffffff" fill-rule="evenodd" fill-opacity="1"/>
<polyline clip-path="url(#clip900)" style="stroke:#000000; stroke-linecap:butt; stroke-linejoin:round; stroke-width:4; stroke-opacity:1; fill:none" points="
  2235.34,209.375 2559.3,209.375 2559.3,105.695 2235.34,105.695 2235.34,209.375 
  "/>
<polyline clip-path="url(#clip900)" style="stroke:#009af9; stroke-linecap:butt; stroke-linejoin:round; stroke-width:4; stroke-opacity:1; fill:none" points="
  2262.49,157.535 2425.41,157.535 
  "/>
<path clip-path="url(#clip900)" d="M2466.4 177.223 Q2464.6 181.852 2462.88 183.264 Q2461.17 184.676 2458.3 184.676 L2454.9 184.676 L2454.9 181.112 L2457.4 181.112 Q2459.16 181.112 2460.13 180.278 Q2461.1 179.445 2462.28 176.343 L2463.05 174.399 L2452.56 148.889 L2457.07 148.889 L2465.18 169.167 L2473.28 148.889 L2477.79 148.889 L2466.4 177.223 Z" fill="#000000" fill-rule="evenodd" fill-opacity="1" /><path clip-path="url(#clip900)" d="M2485.08 170.88 L2492.72 170.88 L2492.72 144.515 L2484.41 146.181 L2484.41 141.922 L2492.68 140.255 L2497.35 140.255 L2497.35 170.88 L2504.99 170.88 L2504.99 174.815 L2485.08 174.815 L2485.08 170.88 Z" fill="#000000" fill-rule="evenodd" fill-opacity="1" /></svg>
