<?xml version="1.0" encoding="utf-8"?>
<svg xmlns="http://www.w3.org/2000/svg" xmlns:xlink="http://www.w3.org/1999/xlink" width="672" height="480" viewBox="0 0 2688 1920">
<defs>
  <clipPath id="clip720">
    <rect x="0" y="0" width="2688" height="1920"/>
  </clipPath>
</defs>
<path clip-path="url(#clip720)" d="
M0 1920 L2688 1920 L2688 0 L0 0  Z
  " fill="#ffffff" fill-rule="evenodd" fill-opacity="1"/>
<defs>
  <clipPath id="clip721">
    <rect x="537" y="0" width="1883" height="1883"/>
  </clipPath>
</defs>
<path clip-path="url(#clip720)" d="
M197.302 1800.78 L2640.76 1800.78 L2640.76 47.2441 L197.302 47.2441  Z
  " fill="#ffffff" fill-rule="evenodd" fill-opacity="1"/>
<defs>
  <clipPath id="clip722">
    <rect x="197" y="47" width="2444" height="1755"/>
  </clipPath>
</defs>
<polyline clip-path="url(#clip722)" style="stroke:#000000; stroke-linecap:butt; stroke-linejoin:round; stroke-width:2; stroke-opacity:0.1; fill:none" points="
  266.456,1800.78 266.456,47.2441 
  "/>
<polyline clip-path="url(#clip722)" style="stroke:#000000; stroke-linecap:butt; stroke-linejoin:round; stroke-width:2; stroke-opacity:0.1; fill:none" points="
  727.485,1800.78 727.485,47.2441 
  "/>
<polyline clip-path="url(#clip722)" style="stroke:#000000; stroke-linecap:butt; stroke-linejoin:round; stroke-width:2; stroke-opacity:0.1; fill:none" points="
  1188.51,1800.78 1188.51,47.2441 
  "/>
<polyline clip-path="url(#clip722)" style="stroke:#000000; stroke-linecap:butt; stroke-linejoin:round; stroke-width:2; stroke-opacity:0.1; fill:none" points="
  1649.54,1800.78 1649.54,47.2441 
  "/>
<polyline clip-path="url(#clip722)" style="stroke:#000000; stroke-linecap:butt; stroke-linejoin:round; stroke-width:2; stroke-opacity:0.1; fill:none" points="
  2110.57,1800.78 2110.57,47.2441 
  "/>
<polyline clip-path="url(#clip722)" style="stroke:#000000; stroke-linecap:butt; stroke-linejoin:round; stroke-width:2; stroke-opacity:0.1; fill:none" points="
  2571.6,1800.78 2571.6,47.2441 
  "/>
<polyline clip-path="url(#clip720)" style="stroke:#000000; stroke-linecap:butt; stroke-linejoin:round; stroke-width:4; stroke-opacity:1; fill:none" points="
  197.302,1800.78 2640.76,1800.78 
  "/>
<polyline clip-path="url(#clip720)" style="stroke:#000000; stroke-linecap:butt; stroke-linejoin:round; stroke-width:4; stroke-opacity:1; fill:none" points="
  266.456,1800.78 266.456,1781.88 
  "/>
<polyline clip-path="url(#clip720)" style="stroke:#000000; stroke-linecap:butt; stroke-linejoin:round; stroke-width:4; stroke-opacity:1; fill:none" points="
  727.485,1800.78 727.485,1781.88 
  "/>
<polyline clip-path="url(#clip720)" style="stroke:#000000; stroke-linecap:butt; stroke-linejoin:round; stroke-width:4; stroke-opacity:1; fill:none" points="
  1188.51,1800.78 1188.51,1781.88 
  "/>
<polyline clip-path="url(#clip720)" style="stroke:#000000; stroke-linecap:butt; stroke-linejoin:round; stroke-width:4; stroke-opacity:1; fill:none" points="
  1649.54,1800.78 1649.54,1781.88 
  "/>
<polyline clip-path="url(#clip720)" style="stroke:#000000; stroke-linecap:butt; stroke-linejoin:round; stroke-width:4; stroke-opacity:1; fill:none" points="
  2110.57,1800.78 2110.57,1781.88 
  "/>
<polyline clip-path="url(#clip720)" style="stroke:#000000; stroke-linecap:butt; stroke-linejoin:round; stroke-width:4; stroke-opacity:1; fill:none" points="
  2571.6,1800.78 2571.6,1781.88 
  "/>
<path clip-path="url(#clip720)" d="M219.026 1861.55 L226.665 1861.55 L226.665 1835.18 L218.355 1836.85 L218.355 1832.59 L226.619 1830.92 L231.295 1830.92 L231.295 1861.55 L238.933 1861.55 L238.933 1865.48 L219.026 1865.48 L219.026 1861.55 Z" fill="#000000" fill-rule="evenodd" fill-opacity="1" /><path clip-path="url(#clip720)" d="M248.378 1859.6 L253.262 1859.6 L253.262 1865.48 L248.378 1865.48 L248.378 1859.6 Z" fill="#000000" fill-rule="evenodd" fill-opacity="1" /><path clip-path="url(#clip720)" d="M267.475 1861.55 L283.794 1861.55 L283.794 1865.48 L261.85 1865.48 L261.85 1861.55 Q264.512 1858.79 269.095 1854.16 Q273.702 1849.51 274.882 1848.17 Q277.128 1845.65 278.007 1843.91 Q278.91 1842.15 278.91 1840.46 Q278.91 1837.71 276.966 1835.97 Q275.044 1834.23 271.943 1834.23 Q269.743 1834.23 267.29 1835 Q264.859 1835.76 262.081 1837.31 L262.081 1832.59 Q264.906 1831.46 267.359 1830.88 Q269.813 1830.3 271.85 1830.3 Q277.22 1830.3 280.415 1832.98 Q283.609 1835.67 283.609 1840.16 Q283.609 1842.29 282.799 1844.21 Q282.012 1846.11 279.905 1848.7 Q279.327 1849.37 276.225 1852.59 Q273.123 1855.78 267.475 1861.55 Z" fill="#000000" fill-rule="evenodd" fill-opacity="1" /><path clip-path="url(#clip720)" d="M293.655 1830.92 L312.012 1830.92 L312.012 1834.86 L297.938 1834.86 L297.938 1843.33 Q298.956 1842.98 299.975 1842.82 Q300.993 1842.64 302.012 1842.64 Q307.799 1842.64 311.178 1845.81 Q314.558 1848.98 314.558 1854.4 Q314.558 1859.97 311.086 1863.08 Q307.614 1866.15 301.294 1866.15 Q299.118 1866.15 296.85 1865.78 Q294.604 1865.41 292.197 1864.67 L292.197 1859.97 Q294.28 1861.11 296.503 1861.66 Q298.725 1862.22 301.202 1862.22 Q305.206 1862.22 307.544 1860.11 Q309.882 1858.01 309.882 1854.4 Q309.882 1850.78 307.544 1848.68 Q305.206 1846.57 301.202 1846.57 Q299.327 1846.57 297.452 1846.99 Q295.6 1847.4 293.655 1848.28 L293.655 1830.92 Z" fill="#000000" fill-rule="evenodd" fill-opacity="1" /><path clip-path="url(#clip720)" d="M679.557 1861.55 L687.196 1861.55 L687.196 1835.18 L678.886 1836.85 L678.886 1832.59 L687.15 1830.92 L691.826 1830.92 L691.826 1861.55 L699.465 1861.55 L699.465 1865.48 L679.557 1865.48 L679.557 1861.55 Z" fill="#000000" fill-rule="evenodd" fill-opacity="1" /><path clip-path="url(#clip720)" d="M708.909 1859.6 L713.793 1859.6 L713.793 1865.48 L708.909 1865.48 L708.909 1859.6 Z" fill="#000000" fill-rule="evenodd" fill-opacity="1" /><path clip-path="url(#clip720)" d="M738.145 1846.85 Q741.502 1847.57 743.377 1849.84 Q745.275 1852.1 745.275 1855.44 Q745.275 1860.55 741.756 1863.35 Q738.238 1866.15 731.756 1866.15 Q729.58 1866.15 727.266 1865.71 Q724.974 1865.3 722.52 1864.44 L722.52 1859.93 Q724.465 1861.06 726.779 1861.64 Q729.094 1862.22 731.617 1862.22 Q736.016 1862.22 738.307 1860.48 Q740.622 1858.75 740.622 1855.44 Q740.622 1852.38 738.469 1850.67 Q736.34 1848.93 732.52 1848.93 L728.492 1848.93 L728.492 1845.09 L732.705 1845.09 Q736.154 1845.09 737.983 1843.72 Q739.812 1842.34 739.812 1839.74 Q739.812 1837.08 737.914 1835.67 Q736.039 1834.23 732.52 1834.23 Q730.599 1834.23 728.4 1834.65 Q726.201 1835.07 723.562 1835.95 L723.562 1831.78 Q726.224 1831.04 728.539 1830.67 Q730.877 1830.3 732.937 1830.3 Q738.261 1830.3 741.363 1832.73 Q744.465 1835.14 744.465 1839.26 Q744.465 1842.13 742.821 1844.12 Q741.178 1846.09 738.145 1846.85 Z" fill="#000000" fill-rule="evenodd" fill-opacity="1" /><path clip-path="url(#clip720)" d="M764.14 1834 Q760.529 1834 758.701 1837.57 Q756.895 1841.11 756.895 1848.24 Q756.895 1855.34 758.701 1858.91 Q760.529 1862.45 764.14 1862.45 Q767.775 1862.45 769.58 1858.91 Q771.409 1855.34 771.409 1848.24 Q771.409 1841.11 769.58 1837.57 Q767.775 1834 764.14 1834 M764.14 1830.3 Q769.951 1830.3 773.006 1834.9 Q776.085 1839.49 776.085 1848.24 Q776.085 1856.96 773.006 1861.57 Q769.951 1866.15 764.14 1866.15 Q758.33 1866.15 755.252 1861.57 Q752.196 1856.96 752.196 1848.24 Q752.196 1839.49 755.252 1834.9 Q758.33 1830.3 764.14 1830.3 Z" fill="#000000" fill-rule="evenodd" fill-opacity="1" /><path clip-path="url(#clip720)" d="M1141.08 1861.55 L1148.72 1861.55 L1148.72 1835.18 L1140.41 1836.85 L1140.41 1832.59 L1148.68 1830.92 L1153.35 1830.92 L1153.35 1861.55 L1160.99 1861.55 L1160.99 1865.48 L1141.08 1865.48 L1141.08 1861.55 Z" fill="#000000" fill-rule="evenodd" fill-opacity="1" /><path clip-path="url(#clip720)" d="M1170.44 1859.6 L1175.32 1859.6 L1175.32 1865.48 L1170.44 1865.48 L1170.44 1859.6 Z" fill="#000000" fill-rule="evenodd" fill-opacity="1" /><path clip-path="url(#clip720)" d="M1199.67 1846.85 Q1203.03 1847.57 1204.9 1849.84 Q1206.8 1852.1 1206.8 1855.44 Q1206.8 1860.55 1203.28 1863.35 Q1199.76 1866.15 1193.28 1866.15 Q1191.11 1866.15 1188.79 1865.71 Q1186.5 1865.3 1184.05 1864.44 L1184.05 1859.93 Q1185.99 1861.06 1188.31 1861.64 Q1190.62 1862.22 1193.14 1862.22 Q1197.54 1862.22 1199.83 1860.48 Q1202.15 1858.75 1202.15 1855.44 Q1202.15 1852.38 1200 1850.67 Q1197.87 1848.93 1194.05 1848.93 L1190.02 1848.93 L1190.02 1845.09 L1194.23 1845.09 Q1197.68 1845.09 1199.51 1843.72 Q1201.34 1842.34 1201.34 1839.74 Q1201.34 1837.08 1199.44 1835.67 Q1197.57 1834.23 1194.05 1834.23 Q1192.13 1834.23 1189.93 1834.65 Q1187.73 1835.07 1185.09 1835.95 L1185.09 1831.78 Q1187.75 1831.04 1190.07 1830.67 Q1192.4 1830.3 1194.46 1830.3 Q1199.79 1830.3 1202.89 1832.73 Q1205.99 1835.14 1205.99 1839.26 Q1205.99 1842.13 1204.35 1844.12 Q1202.7 1846.09 1199.67 1846.85 Z" fill="#000000" fill-rule="evenodd" fill-opacity="1" /><path clip-path="url(#clip720)" d="M1215.71 1830.92 L1234.07 1830.92 L1234.07 1834.86 L1220 1834.86 L1220 1843.33 Q1221.01 1842.98 1222.03 1842.82 Q1223.05 1842.64 1224.07 1842.64 Q1229.86 1842.64 1233.24 1845.81 Q1236.62 1848.98 1236.62 1854.4 Q1236.62 1859.97 1233.14 1863.08 Q1229.67 1866.15 1223.35 1866.15 Q1221.18 1866.15 1218.91 1865.78 Q1216.66 1865.41 1214.26 1864.67 L1214.26 1859.97 Q1216.34 1861.11 1218.56 1861.66 Q1220.78 1862.22 1223.26 1862.22 Q1227.26 1862.22 1229.6 1860.11 Q1231.94 1858.01 1231.94 1854.4 Q1231.94 1850.78 1229.6 1848.68 Q1227.26 1846.57 1223.26 1846.57 Q1221.38 1846.57 1219.51 1846.99 Q1217.66 1847.4 1215.71 1848.28 L1215.71 1830.92 Z" fill="#000000" fill-rule="evenodd" fill-opacity="1" /><path clip-path="url(#clip720)" d="M1601.62 1861.55 L1609.25 1861.55 L1609.25 1835.18 L1600.94 1836.85 L1600.94 1832.59 L1609.21 1830.92 L1613.88 1830.92 L1613.88 1861.55 L1621.52 1861.55 L1621.52 1865.48 L1601.62 1865.48 L1601.62 1861.55 Z" fill="#000000" fill-rule="evenodd" fill-opacity="1" /><path clip-path="url(#clip720)" d="M1630.97 1859.6 L1635.85 1859.6 L1635.85 1865.48 L1630.97 1865.48 L1630.97 1859.6 Z" fill="#000000" fill-rule="evenodd" fill-opacity="1" /><path clip-path="url(#clip720)" d="M1658.88 1835 L1647.08 1853.45 L1658.88 1853.45 L1658.88 1835 M1657.66 1830.92 L1663.54 1830.92 L1663.54 1853.45 L1668.47 1853.45 L1668.47 1857.34 L1663.54 1857.34 L1663.54 1865.48 L1658.88 1865.48 L1658.88 1857.34 L1643.28 1857.34 L1643.28 1852.82 L1657.66 1830.92 Z" fill="#000000" fill-rule="evenodd" fill-opacity="1" /><path clip-path="url(#clip720)" d="M1686.2 1834 Q1682.59 1834 1680.76 1837.57 Q1678.95 1841.11 1678.95 1848.24 Q1678.95 1855.34 1680.76 1858.91 Q1682.59 1862.45 1686.2 1862.45 Q1689.83 1862.45 1691.64 1858.91 Q1693.47 1855.34 1693.47 1848.24 Q1693.47 1841.11 1691.64 1837.57 Q1689.83 1834 1686.2 1834 M1686.2 1830.3 Q1692.01 1830.3 1695.06 1834.9 Q1698.14 1839.49 1698.14 1848.24 Q1698.14 1856.96 1695.06 1861.57 Q1692.01 1866.15 1686.2 1866.15 Q1680.39 1866.15 1677.31 1861.57 Q1674.25 1856.96 1674.25 1848.24 Q1674.25 1839.49 1677.31 1834.9 Q1680.39 1830.3 1686.2 1830.3 Z" fill="#000000" fill-rule="evenodd" fill-opacity="1" /><path clip-path="url(#clip720)" d="M2063.14 1861.55 L2070.78 1861.55 L2070.78 1835.18 L2062.47 1836.85 L2062.47 1832.59 L2070.73 1830.92 L2075.41 1830.92 L2075.41 1861.55 L2083.05 1861.55 L2083.05 1865.48 L2063.14 1865.48 L2063.14 1861.55 Z" fill="#000000" fill-rule="evenodd" fill-opacity="1" /><path clip-path="url(#clip720)" d="M2092.49 1859.6 L2097.38 1859.6 L2097.38 1865.48 L2092.49 1865.48 L2092.49 1859.6 Z" fill="#000000" fill-rule="evenodd" fill-opacity="1" /><path clip-path="url(#clip720)" d="M2120.41 1835 L2108.6 1853.45 L2120.41 1853.45 L2120.41 1835 M2119.18 1830.92 L2125.06 1830.92 L2125.06 1853.45 L2129.99 1853.45 L2129.99 1857.34 L2125.06 1857.34 L2125.06 1865.48 L2120.41 1865.48 L2120.41 1857.34 L2104.81 1857.34 L2104.81 1852.82 L2119.18 1830.92 Z" fill="#000000" fill-rule="evenodd" fill-opacity="1" /><path clip-path="url(#clip720)" d="M2137.77 1830.92 L2156.13 1830.92 L2156.13 1834.86 L2142.05 1834.86 L2142.05 1843.33 Q2143.07 1842.98 2144.09 1842.82 Q2145.11 1842.64 2146.13 1842.64 Q2151.91 1842.64 2155.29 1845.81 Q2158.67 1848.98 2158.67 1854.4 Q2158.67 1859.97 2155.2 1863.08 Q2151.73 1866.15 2145.41 1866.15 Q2143.23 1866.15 2140.97 1865.78 Q2138.72 1865.41 2136.31 1864.67 L2136.31 1859.97 Q2138.4 1861.11 2140.62 1861.66 Q2142.84 1862.22 2145.32 1862.22 Q2149.32 1862.22 2151.66 1860.11 Q2154 1858.01 2154 1854.4 Q2154 1850.78 2151.66 1848.68 Q2149.32 1846.57 2145.32 1846.57 Q2143.44 1846.57 2141.57 1846.99 Q2139.72 1847.4 2137.77 1848.28 L2137.77 1830.92 Z" fill="#000000" fill-rule="evenodd" fill-opacity="1" /><path clip-path="url(#clip720)" d="M2523.67 1861.55 L2531.31 1861.55 L2531.31 1835.18 L2523 1836.85 L2523 1832.59 L2531.27 1830.92 L2535.94 1830.92 L2535.94 1861.55 L2543.58 1861.55 L2543.58 1865.48 L2523.67 1865.48 L2523.67 1861.55 Z" fill="#000000" fill-rule="evenodd" fill-opacity="1" /><path clip-path="url(#clip720)" d="M2553.03 1859.6 L2557.91 1859.6 L2557.91 1865.48 L2553.03 1865.48 L2553.03 1859.6 Z" fill="#000000" fill-rule="evenodd" fill-opacity="1" /><path clip-path="url(#clip720)" d="M2568.14 1830.92 L2586.5 1830.92 L2586.5 1834.86 L2572.42 1834.86 L2572.42 1843.33 Q2573.44 1842.98 2574.46 1842.82 Q2575.48 1842.64 2576.5 1842.64 Q2582.28 1842.64 2585.66 1845.81 Q2589.04 1848.98 2589.04 1854.4 Q2589.04 1859.97 2585.57 1863.08 Q2582.1 1866.15 2575.78 1866.15 Q2573.6 1866.15 2571.34 1865.78 Q2569.09 1865.41 2566.68 1864.67 L2566.68 1859.97 Q2568.77 1861.11 2570.99 1861.66 Q2573.21 1862.22 2575.69 1862.22 Q2579.69 1862.22 2582.03 1860.11 Q2584.37 1858.01 2584.37 1854.4 Q2584.37 1850.78 2582.03 1848.68 Q2579.69 1846.57 2575.69 1846.57 Q2573.81 1846.57 2571.94 1846.99 Q2570.09 1847.4 2568.14 1848.28 L2568.14 1830.92 Z" fill="#000000" fill-rule="evenodd" fill-opacity="1" /><path clip-path="url(#clip720)" d="M2608.26 1834 Q2604.65 1834 2602.82 1837.57 Q2601.01 1841.11 2601.01 1848.24 Q2601.01 1855.34 2602.82 1858.91 Q2604.65 1862.45 2608.26 1862.45 Q2611.89 1862.45 2613.7 1858.91 Q2615.52 1855.34 2615.52 1848.24 Q2615.52 1841.11 2613.7 1837.57 Q2611.89 1834 2608.26 1834 M2608.26 1830.3 Q2614.07 1830.3 2617.12 1834.9 Q2620.2 1839.49 2620.2 1848.24 Q2620.2 1856.96 2617.12 1861.57 Q2614.07 1866.15 2608.26 1866.15 Q2602.45 1866.15 2599.37 1861.57 Q2596.31 1856.96 2596.31 1848.24 Q2596.31 1839.49 2599.37 1834.9 Q2602.45 1830.3 2608.26 1830.3 Z" fill="#000000" fill-rule="evenodd" fill-opacity="1" /><polyline clip-path="url(#clip722)" style="stroke:#000000; stroke-linecap:butt; stroke-linejoin:round; stroke-width:2; stroke-opacity:0.1; fill:none" points="
  197.302,1660.92 2640.76,1660.92 
  "/>
<polyline clip-path="url(#clip722)" style="stroke:#000000; stroke-linecap:butt; stroke-linejoin:round; stroke-width:2; stroke-opacity:0.1; fill:none" points="
  197.302,1420.3 2640.76,1420.3 
  "/>
<polyline clip-path="url(#clip722)" style="stroke:#000000; stroke-linecap:butt; stroke-linejoin:round; stroke-width:2; stroke-opacity:0.1; fill:none" points="
  197.302,1179.67 2640.76,1179.67 
  "/>
<polyline clip-path="url(#clip722)" style="stroke:#000000; stroke-linecap:butt; stroke-linejoin:round; stroke-width:2; stroke-opacity:0.1; fill:none" points="
  197.302,939.051 2640.76,939.051 
  "/>
<polyline clip-path="url(#clip722)" style="stroke:#000000; stroke-linecap:butt; stroke-linejoin:round; stroke-width:2; stroke-opacity:0.1; fill:none" points="
  197.302,698.428 2640.76,698.428 
  "/>
<polyline clip-path="url(#clip722)" style="stroke:#000000; stroke-linecap:butt; stroke-linejoin:round; stroke-width:2; stroke-opacity:0.1; fill:none" points="
  197.302,457.806 2640.76,457.806 
  "/>
<polyline clip-path="url(#clip722)" style="stroke:#000000; stroke-linecap:butt; stroke-linejoin:round; stroke-width:2; stroke-opacity:0.1; fill:none" points="
  197.302,217.184 2640.76,217.184 
  "/>
<polyline clip-path="url(#clip720)" style="stroke:#000000; stroke-linecap:butt; stroke-linejoin:round; stroke-width:4; stroke-opacity:1; fill:none" points="
  197.302,1800.78 197.302,47.2441 
  "/>
<polyline clip-path="url(#clip720)" style="stroke:#000000; stroke-linecap:butt; stroke-linejoin:round; stroke-width:4; stroke-opacity:1; fill:none" points="
  197.302,1660.92 216.2,1660.92 
  "/>
<polyline clip-path="url(#clip720)" style="stroke:#000000; stroke-linecap:butt; stroke-linejoin:round; stroke-width:4; stroke-opacity:1; fill:none" points="
  197.302,1420.3 216.2,1420.3 
  "/>
<polyline clip-path="url(#clip720)" style="stroke:#000000; stroke-linecap:butt; stroke-linejoin:round; stroke-width:4; stroke-opacity:1; fill:none" points="
  197.302,1179.67 216.2,1179.67 
  "/>
<polyline clip-path="url(#clip720)" style="stroke:#000000; stroke-linecap:butt; stroke-linejoin:round; stroke-width:4; stroke-opacity:1; fill:none" points="
  197.302,939.051 216.2,939.051 
  "/>
<polyline clip-path="url(#clip720)" style="stroke:#000000; stroke-linecap:butt; stroke-linejoin:round; stroke-width:4; stroke-opacity:1; fill:none" points="
  197.302,698.428 216.2,698.428 
  "/>
<polyline clip-path="url(#clip720)" style="stroke:#000000; stroke-linecap:butt; stroke-linejoin:round; stroke-width:4; stroke-opacity:1; fill:none" points="
  197.302,457.806 216.2,457.806 
  "/>
<polyline clip-path="url(#clip720)" style="stroke:#000000; stroke-linecap:butt; stroke-linejoin:round; stroke-width:4; stroke-opacity:1; fill:none" points="
  197.302,217.184 216.2,217.184 
  "/>
<path clip-path="url(#clip720)" d="M49.5521 1661.37 L79.2279 1661.37 L79.2279 1665.3 L49.5521 1665.3 L49.5521 1661.37 Z" fill="#000000" fill-rule="evenodd" fill-opacity="1" /><path clip-path="url(#clip720)" d="M99.3204 1646.72 Q95.7093 1646.72 93.8806 1650.28 Q92.075 1653.82 92.075 1660.95 Q92.075 1668.06 93.8806 1671.62 Q95.7093 1675.17 99.3204 1675.17 Q102.955 1675.17 104.76 1671.62 Q106.589 1668.06 106.589 1660.95 Q106.589 1653.82 104.76 1650.28 Q102.955 1646.72 99.3204 1646.72 M99.3204 1643.01 Q105.131 1643.01 108.186 1647.62 Q111.265 1652.2 111.265 1660.95 Q111.265 1669.68 108.186 1674.29 Q105.131 1678.87 99.3204 1678.87 Q93.5102 1678.87 90.4315 1674.29 Q87.376 1669.68 87.376 1660.95 Q87.376 1652.2 90.4315 1647.62 Q93.5102 1643.01 99.3204 1643.01 Z" fill="#000000" fill-rule="evenodd" fill-opacity="1" /><path clip-path="url(#clip720)" d="M119.482 1672.32 L124.367 1672.32 L124.367 1678.2 L119.482 1678.2 L119.482 1672.32 Z" fill="#000000" fill-rule="evenodd" fill-opacity="1" /><path clip-path="url(#clip720)" d="M147.399 1647.71 L135.593 1666.16 L147.399 1666.16 L147.399 1647.71 M146.172 1643.64 L152.052 1643.64 L152.052 1666.16 L156.982 1666.16 L156.982 1670.05 L152.052 1670.05 L152.052 1678.2 L147.399 1678.2 L147.399 1670.05 L131.797 1670.05 L131.797 1665.54 L146.172 1643.64 Z" fill="#000000" fill-rule="evenodd" fill-opacity="1" /><path clip-path="url(#clip720)" d="M50.6864 1420.75 L80.3621 1420.75 L80.3621 1424.68 L50.6864 1424.68 L50.6864 1420.75 Z" fill="#000000" fill-rule="evenodd" fill-opacity="1" /><path clip-path="url(#clip720)" d="M100.455 1406.09 Q96.8435 1406.09 95.0148 1409.66 Q93.2093 1413.2 93.2093 1420.33 Q93.2093 1427.44 95.0148 1431 Q96.8435 1434.54 100.455 1434.54 Q104.089 1434.54 105.894 1431 Q107.723 1427.44 107.723 1420.33 Q107.723 1413.2 105.894 1409.66 Q104.089 1406.09 100.455 1406.09 M100.455 1402.39 Q106.265 1402.39 109.32 1407 Q112.399 1411.58 112.399 1420.33 Q112.399 1429.06 109.32 1433.66 Q106.265 1438.25 100.455 1438.25 Q94.6445 1438.25 91.5658 1433.66 Q88.5103 1429.06 88.5103 1420.33 Q88.5103 1411.58 91.5658 1407 Q94.6445 1402.39 100.455 1402.39 Z" fill="#000000" fill-rule="evenodd" fill-opacity="1" /><path clip-path="url(#clip720)" d="M120.617 1431.7 L125.501 1431.7 L125.501 1437.58 L120.617 1437.58 L120.617 1431.7 Z" fill="#000000" fill-rule="evenodd" fill-opacity="1" /><path clip-path="url(#clip720)" d="M149.853 1418.94 Q153.209 1419.66 155.084 1421.93 Q156.982 1424.2 156.982 1427.53 Q156.982 1432.64 153.464 1435.45 Q149.945 1438.25 143.464 1438.25 Q141.288 1438.25 138.973 1437.81 Q136.681 1437.39 134.228 1436.53 L134.228 1432.02 Q136.172 1433.15 138.487 1433.73 Q140.802 1434.31 143.325 1434.31 Q147.723 1434.31 150.015 1432.58 Q152.329 1430.84 152.329 1427.53 Q152.329 1424.47 150.177 1422.76 Q148.047 1421.02 144.228 1421.02 L140.2 1421.02 L140.2 1417.18 L144.413 1417.18 Q147.862 1417.18 149.69 1415.82 Q151.519 1414.43 151.519 1411.83 Q151.519 1409.17 149.621 1407.76 Q147.746 1406.33 144.228 1406.33 Q142.306 1406.33 140.107 1406.74 Q137.908 1407.16 135.269 1408.04 L135.269 1403.87 Q137.931 1403.13 140.246 1402.76 Q142.584 1402.39 144.644 1402.39 Q149.968 1402.39 153.07 1404.82 Q156.172 1407.23 156.172 1411.35 Q156.172 1414.22 154.528 1416.21 Q152.885 1418.18 149.853 1418.94 Z" fill="#000000" fill-rule="evenodd" fill-opacity="1" /><path clip-path="url(#clip720)" d="M51.6354 1180.12 L81.3112 1180.12 L81.3112 1184.06 L51.6354 1184.06 L51.6354 1180.12 Z" fill="#000000" fill-rule="evenodd" fill-opacity="1" /><path clip-path="url(#clip720)" d="M101.404 1165.47 Q97.7926 1165.47 95.9639 1169.04 Q94.1584 1172.58 94.1584 1179.71 Q94.1584 1186.81 95.9639 1190.38 Q97.7926 1193.92 101.404 1193.92 Q105.038 1193.92 106.843 1190.38 Q108.672 1186.81 108.672 1179.71 Q108.672 1172.58 106.843 1169.04 Q105.038 1165.47 101.404 1165.47 M101.404 1161.77 Q107.214 1161.77 110.269 1166.37 Q113.348 1170.96 113.348 1179.71 Q113.348 1188.43 110.269 1193.04 Q107.214 1197.62 101.404 1197.62 Q95.5935 1197.62 92.5149 1193.04 Q89.4593 1188.43 89.4593 1179.71 Q89.4593 1170.96 92.5149 1166.37 Q95.5935 1161.77 101.404 1161.77 Z" fill="#000000" fill-rule="evenodd" fill-opacity="1" /><path clip-path="url(#clip720)" d="M121.566 1191.07 L126.45 1191.07 L126.45 1196.95 L121.566 1196.95 L121.566 1191.07 Z" fill="#000000" fill-rule="evenodd" fill-opacity="1" /><path clip-path="url(#clip720)" d="M140.663 1193.02 L156.982 1193.02 L156.982 1196.95 L135.038 1196.95 L135.038 1193.02 Q137.7 1190.26 142.283 1185.63 Q146.89 1180.98 148.07 1179.64 Q150.315 1177.12 151.195 1175.38 Q152.098 1173.62 152.098 1171.93 Q152.098 1169.18 150.153 1167.44 Q148.232 1165.7 145.13 1165.7 Q142.931 1165.7 140.478 1166.47 Q138.047 1167.23 135.269 1168.78 L135.269 1164.06 Q138.093 1162.93 140.547 1162.35 Q143.001 1161.77 145.038 1161.77 Q150.408 1161.77 153.602 1164.45 Q156.797 1167.14 156.797 1171.63 Q156.797 1173.76 155.987 1175.68 Q155.2 1177.58 153.093 1180.17 Q152.515 1180.84 149.413 1184.06 Q146.311 1187.25 140.663 1193.02 Z" fill="#000000" fill-rule="evenodd" fill-opacity="1" /><path clip-path="url(#clip720)" d="M51.2651 939.502 L80.9408 939.502 L80.9408 943.437 L51.2651 943.437 L51.2651 939.502 Z" fill="#000000" fill-rule="evenodd" fill-opacity="1" /><path clip-path="url(#clip720)" d="M101.033 924.849 Q97.4222 924.849 95.5935 928.414 Q93.788 931.956 93.788 939.085 Q93.788 946.192 95.5935 949.757 Q97.4222 953.298 101.033 953.298 Q104.668 953.298 106.473 949.757 Q108.302 946.192 108.302 939.085 Q108.302 931.956 106.473 928.414 Q104.668 924.849 101.033 924.849 M101.033 921.146 Q106.843 921.146 109.899 925.752 Q112.978 930.335 112.978 939.085 Q112.978 947.812 109.899 952.419 Q106.843 957.002 101.033 957.002 Q95.2232 957.002 92.1445 952.419 Q89.089 947.812 89.089 939.085 Q89.089 930.335 92.1445 925.752 Q95.2232 921.146 101.033 921.146 Z" fill="#000000" fill-rule="evenodd" fill-opacity="1" /><path clip-path="url(#clip720)" d="M121.195 950.451 L126.079 950.451 L126.079 956.331 L121.195 956.331 L121.195 950.451 Z" fill="#000000" fill-rule="evenodd" fill-opacity="1" /><path clip-path="url(#clip720)" d="M137.075 952.395 L144.714 952.395 L144.714 926.03 L136.404 927.696 L136.404 923.437 L144.667 921.771 L149.343 921.771 L149.343 952.395 L156.982 952.395 L156.982 956.331 L137.075 956.331 L137.075 952.395 Z" fill="#000000" fill-rule="evenodd" fill-opacity="1" /><path clip-path="url(#clip720)" d="M99.8065 684.227 Q96.1954 684.227 94.3667 687.792 Q92.5612 691.333 92.5612 698.463 Q92.5612 705.569 94.3667 709.134 Q96.1954 712.676 99.8065 712.676 Q103.441 712.676 105.246 709.134 Q107.075 705.569 107.075 698.463 Q107.075 691.333 105.246 687.792 Q103.441 684.227 99.8065 684.227 M99.8065 680.523 Q105.617 680.523 108.672 685.13 Q111.751 689.713 111.751 698.463 Q111.751 707.19 108.672 711.796 Q105.617 716.38 99.8065 716.38 Q93.9963 716.38 90.9176 711.796 Q87.8621 707.19 87.8621 698.463 Q87.8621 689.713 90.9176 685.13 Q93.9963 680.523 99.8065 680.523 Z" fill="#000000" fill-rule="evenodd" fill-opacity="1" /><path clip-path="url(#clip720)" d="M119.968 709.829 L124.853 709.829 L124.853 715.708 L119.968 715.708 L119.968 709.829 Z" fill="#000000" fill-rule="evenodd" fill-opacity="1" /><path clip-path="url(#clip720)" d="M145.038 684.227 Q141.427 684.227 139.598 687.792 Q137.792 691.333 137.792 698.463 Q137.792 705.569 139.598 709.134 Q141.427 712.676 145.038 712.676 Q148.672 712.676 150.478 709.134 Q152.306 705.569 152.306 698.463 Q152.306 691.333 150.478 687.792 Q148.672 684.227 145.038 684.227 M145.038 680.523 Q150.848 680.523 153.903 685.13 Q156.982 689.713 156.982 698.463 Q156.982 707.19 153.903 711.796 Q150.848 716.38 145.038 716.38 Q139.228 716.38 136.149 711.796 Q133.093 707.19 133.093 698.463 Q133.093 689.713 136.149 685.13 Q139.228 680.523 145.038 680.523 Z" fill="#000000" fill-rule="evenodd" fill-opacity="1" /><path clip-path="url(#clip720)" d="M101.033 443.605 Q97.4222 443.605 95.5935 447.169 Q93.788 450.711 93.788 457.841 Q93.788 464.947 95.5935 468.512 Q97.4222 472.054 101.033 472.054 Q104.668 472.054 106.473 468.512 Q108.302 464.947 108.302 457.841 Q108.302 450.711 106.473 447.169 Q104.668 443.605 101.033 443.605 M101.033 439.901 Q106.843 439.901 109.899 444.507 Q112.978 449.091 112.978 457.841 Q112.978 466.567 109.899 471.174 Q106.843 475.757 101.033 475.757 Q95.2232 475.757 92.1445 471.174 Q89.089 466.567 89.089 457.841 Q89.089 449.091 92.1445 444.507 Q95.2232 439.901 101.033 439.901 Z" fill="#000000" fill-rule="evenodd" fill-opacity="1" /><path clip-path="url(#clip720)" d="M121.195 469.206 L126.079 469.206 L126.079 475.086 L121.195 475.086 L121.195 469.206 Z" fill="#000000" fill-rule="evenodd" fill-opacity="1" /><path clip-path="url(#clip720)" d="M137.075 471.151 L144.714 471.151 L144.714 444.785 L136.404 446.452 L136.404 442.193 L144.667 440.526 L149.343 440.526 L149.343 471.151 L156.982 471.151 L156.982 475.086 L137.075 475.086 L137.075 471.151 Z" fill="#000000" fill-rule="evenodd" fill-opacity="1" /><path clip-path="url(#clip720)" d="M101.404 202.982 Q97.7926 202.982 95.9639 206.547 Q94.1584 210.089 94.1584 217.218 Q94.1584 224.325 95.9639 227.89 Q97.7926 231.431 101.404 231.431 Q105.038 231.431 106.843 227.89 Q108.672 224.325 108.672 217.218 Q108.672 210.089 106.843 206.547 Q105.038 202.982 101.404 202.982 M101.404 199.279 Q107.214 199.279 110.269 203.885 Q113.348 208.468 113.348 217.218 Q113.348 225.945 110.269 230.552 Q107.214 235.135 101.404 235.135 Q95.5935 235.135 92.5149 230.552 Q89.4593 225.945 89.4593 217.218 Q89.4593 208.468 92.5149 203.885 Q95.5935 199.279 101.404 199.279 Z" fill="#000000" fill-rule="evenodd" fill-opacity="1" /><path clip-path="url(#clip720)" d="M121.566 228.584 L126.45 228.584 L126.45 234.464 L121.566 234.464 L121.566 228.584 Z" fill="#000000" fill-rule="evenodd" fill-opacity="1" /><path clip-path="url(#clip720)" d="M140.663 230.528 L156.982 230.528 L156.982 234.464 L135.038 234.464 L135.038 230.528 Q137.7 227.774 142.283 223.144 Q146.89 218.491 148.07 217.149 Q150.315 214.626 151.195 212.89 Q152.098 211.13 152.098 209.441 Q152.098 206.686 150.153 204.95 Q148.232 203.214 145.13 203.214 Q142.931 203.214 140.478 203.978 Q138.047 204.742 135.269 206.292 L135.269 201.57 Q138.093 200.436 140.547 199.857 Q143.001 199.279 145.038 199.279 Q150.408 199.279 153.602 201.964 Q156.797 204.649 156.797 209.14 Q156.797 211.269 155.987 213.191 Q155.2 215.089 153.093 217.681 Q152.515 218.353 149.413 221.57 Q146.311 224.765 140.663 230.528 Z" fill="#000000" fill-rule="evenodd" fill-opacity="1" /><polyline clip-path="url(#clip722)" style="stroke:#009af9; stroke-linecap:butt; stroke-linejoin:round; stroke-width:4; stroke-opacity:1; fill:none" points="
  266.456,1751.15 288.968,1736.45 497.121,1599.16 622.212,1515.47 727.974,1444.03 842.863,1365.7 948.779,1292.82 1062.33,1213.99 1193.9,1121.74 1310.81,1038.94 
  1413.34,965.69 1525.12,885.153 1637.57,803.424 1761.89,712.228 1880.18,624.646 2003.18,532.741 2106.71,454.712 2233.12,358.626 2351.94,267.477 2542.31,119.784 
  2571.6,96.8724 
  "/>
<path clip-path="url(#clip720)" d="
M2235.38 209.375 L2559.31 209.375 L2559.31 105.695 L2235.38 105.695  Z
  " fill="#ffffff" fill-rule="evenodd" fill-opacity="1"/>
<polyline clip-path="url(#clip720)" style="stroke:#000000; stroke-linecap:butt; stroke-linejoin:round; stroke-width:4; stroke-opacity:1; fill:none" points="
  2235.38,209.375 2559.31,209.375 2559.31,105.695 2235.38,105.695 2235.38,209.375 
  "/>
<polyline clip-path="url(#clip720)" style="stroke:#009af9; stroke-linecap:butt; stroke-linejoin:round; stroke-width:4; stroke-opacity:1; fill:none" points="
  2262.53,157.535 2425.43,157.535 
  "/>
<path clip-path="url(#clip720)" d="M2466.42 177.223 Q2464.62 181.852 2462.9 183.264 Q2461.19 184.676 2458.32 184.676 L2454.92 184.676 L2454.92 181.112 L2457.42 181.112 Q2459.18 181.112 2460.15 180.278 Q2461.12 179.445 2462.3 176.343 L2463.06 174.399 L2452.58 148.889 L2457.09 148.889 L2465.19 169.167 L2473.3 148.889 L2477.81 148.889 L2466.42 177.223 Z" fill="#000000" fill-rule="evenodd" fill-opacity="1" /><path clip-path="url(#clip720)" d="M2485.1 170.88 L2492.74 170.88 L2492.74 144.515 L2484.43 146.181 L2484.43 141.922 L2492.69 140.255 L2497.37 140.255 L2497.37 170.88 L2505.01 170.88 L2505.01 174.815 L2485.1 174.815 L2485.1 170.88 Z" fill="#000000" fill-rule="evenodd" fill-opacity="1" /></svg>
