<?xml version="1.0" encoding="utf-8"?>
<svg xmlns="http://www.w3.org/2000/svg" xmlns:xlink="http://www.w3.org/1999/xlink" width="672" height="480" viewBox="0 0 2688 1920">
<defs>
  <clipPath id="clip620">
    <rect x="0" y="0" width="2688" height="1920"/>
  </clipPath>
</defs>
<path clip-path="url(#clip620)" d="
M0 1920 L2688 1920 L2688 0 L0 0  Z
  " fill="#ffffff" fill-rule="evenodd" fill-opacity="1"/>
<defs>
  <clipPath id="clip621">
    <rect x="537" y="0" width="1883" height="1883"/>
  </clipPath>
</defs>
<path clip-path="url(#clip620)" d="
M144.733 1800.78 L2640.76 1800.78 L2640.76 47.2441 L144.733 47.2441  Z
  " fill="#ffffff" fill-rule="evenodd" fill-opacity="1"/>
<defs>
  <clipPath id="clip622">
    <rect x="144" y="47" width="2497" height="1755"/>
  </clipPath>
</defs>
<polyline clip-path="url(#clip622)" style="stroke:#000000; stroke-linecap:butt; stroke-linejoin:round; stroke-width:2; stroke-opacity:0.1; fill:none" points="
  215.375,1800.78 215.375,47.2441 
  "/>
<polyline clip-path="url(#clip622)" style="stroke:#000000; stroke-linecap:butt; stroke-linejoin:round; stroke-width:2; stroke-opacity:0.1; fill:none" points="
  592.133,1800.78 592.133,47.2441 
  "/>
<polyline clip-path="url(#clip622)" style="stroke:#000000; stroke-linecap:butt; stroke-linejoin:round; stroke-width:2; stroke-opacity:0.1; fill:none" points="
  968.891,1800.78 968.891,47.2441 
  "/>
<polyline clip-path="url(#clip622)" style="stroke:#000000; stroke-linecap:butt; stroke-linejoin:round; stroke-width:2; stroke-opacity:0.1; fill:none" points="
  1345.65,1800.78 1345.65,47.2441 
  "/>
<polyline clip-path="url(#clip622)" style="stroke:#000000; stroke-linecap:butt; stroke-linejoin:round; stroke-width:2; stroke-opacity:0.1; fill:none" points="
  1722.41,1800.78 1722.41,47.2441 
  "/>
<polyline clip-path="url(#clip622)" style="stroke:#000000; stroke-linecap:butt; stroke-linejoin:round; stroke-width:2; stroke-opacity:0.1; fill:none" points="
  2099.17,1800.78 2099.17,47.2441 
  "/>
<polyline clip-path="url(#clip622)" style="stroke:#000000; stroke-linecap:butt; stroke-linejoin:round; stroke-width:2; stroke-opacity:0.1; fill:none" points="
  2475.92,1800.78 2475.92,47.2441 
  "/>
<polyline clip-path="url(#clip620)" style="stroke:#000000; stroke-linecap:butt; stroke-linejoin:round; stroke-width:4; stroke-opacity:1; fill:none" points="
  144.733,1800.78 2640.76,1800.78 
  "/>
<polyline clip-path="url(#clip620)" style="stroke:#000000; stroke-linecap:butt; stroke-linejoin:round; stroke-width:4; stroke-opacity:1; fill:none" points="
  215.375,1800.78 215.375,1781.88 
  "/>
<polyline clip-path="url(#clip620)" style="stroke:#000000; stroke-linecap:butt; stroke-linejoin:round; stroke-width:4; stroke-opacity:1; fill:none" points="
  592.133,1800.78 592.133,1781.88 
  "/>
<polyline clip-path="url(#clip620)" style="stroke:#000000; stroke-linecap:butt; stroke-linejoin:round; stroke-width:4; stroke-opacity:1; fill:none" points="
  968.891,1800.78 968.891,1781.88 
  "/>
<polyline clip-path="url(#clip620)" style="stroke:#000000; stroke-linecap:butt; stroke-linejoin:round; stroke-width:4; stroke-opacity:1; fill:none" points="
  1345.65,1800.78 1345.65,1781.88 
  "/>
<polyline clip-path="url(#clip620)" style="stroke:#000000; stroke-linecap:butt; stroke-linejoin:round; stroke-width:4; stroke-opacity:1; fill:none" points="
  1722.41,1800.78 1722.41,1781.88 
  "/>
<polyline clip-path="url(#clip620)" style="stroke:#000000; stroke-linecap:butt; stroke-linejoin:round; stroke-width:4; stroke-opacity:1; fill:none" points="
  2099.17,1800.78 2099.17,1781.88 
  "/>
<polyline clip-path="url(#clip620)" style="stroke:#000000; stroke-linecap:butt; stroke-linejoin:round; stroke-width:4; stroke-opacity:1; fill:none" points="
  2475.92,1800.78 2475.92,1781.88 
  "/>
<path clip-path="url(#clip620)" d="M215.375 1834 Q211.764 1834 209.935 1837.57 Q208.13 1841.11 208.13 1848.24 Q208.13 1855.34 209.935 1858.91 Q211.764 1862.45 215.375 1862.45 Q219.009 1862.45 220.815 1858.91 Q222.644 1855.34 222.644 1848.24 Q222.644 1841.11 220.815 1837.57 Q219.009 1834 215.375 1834 M215.375 1830.3 Q221.185 1830.3 224.241 1834.9 Q227.319 1839.49 227.319 1848.24 Q227.319 1856.96 224.241 1861.57 Q221.185 1866.15 215.375 1866.15 Q209.565 1866.15 206.486 1861.57 Q203.431 1856.96 203.431 1848.24 Q203.431 1839.49 206.486 1834.9 Q209.565 1830.3 215.375 1830.3 Z" fill="#000000" fill-rule="evenodd" fill-opacity="1" /><path clip-path="url(#clip620)" d="M555.826 1861.55 L572.145 1861.55 L572.145 1865.48 L550.201 1865.48 L550.201 1861.55 Q552.863 1858.79 557.446 1854.16 Q562.052 1849.51 563.233 1848.17 Q565.478 1845.65 566.358 1843.91 Q567.261 1842.15 567.261 1840.46 Q567.261 1837.71 565.316 1835.97 Q563.395 1834.23 560.293 1834.23 Q558.094 1834.23 555.64 1835 Q553.21 1835.76 550.432 1837.31 L550.432 1832.59 Q553.256 1831.46 555.71 1830.88 Q558.164 1830.3 560.201 1830.3 Q565.571 1830.3 568.765 1832.98 Q571.96 1835.67 571.96 1840.16 Q571.96 1842.29 571.15 1844.21 Q570.363 1846.11 568.256 1848.7 Q567.677 1849.37 564.576 1852.59 Q561.474 1855.78 555.826 1861.55 Z" fill="#000000" fill-rule="evenodd" fill-opacity="1" /><path clip-path="url(#clip620)" d="M591.96 1834 Q588.349 1834 586.52 1837.57 Q584.714 1841.11 584.714 1848.24 Q584.714 1855.34 586.52 1858.91 Q588.349 1862.45 591.96 1862.45 Q595.594 1862.45 597.399 1858.91 Q599.228 1855.34 599.228 1848.24 Q599.228 1841.11 597.399 1837.57 Q595.594 1834 591.96 1834 M591.96 1830.3 Q597.77 1830.3 600.825 1834.9 Q603.904 1839.49 603.904 1848.24 Q603.904 1856.96 600.825 1861.57 Q597.77 1866.15 591.96 1866.15 Q586.15 1866.15 583.071 1861.57 Q580.015 1856.96 580.015 1848.24 Q580.015 1839.49 583.071 1834.9 Q586.15 1830.3 591.96 1830.3 Z" fill="#000000" fill-rule="evenodd" fill-opacity="1" /><path clip-path="url(#clip620)" d="M622.122 1834 Q618.51 1834 616.682 1837.57 Q614.876 1841.11 614.876 1848.24 Q614.876 1855.34 616.682 1858.91 Q618.51 1862.45 622.122 1862.45 Q625.756 1862.45 627.561 1858.91 Q629.39 1855.34 629.39 1848.24 Q629.39 1841.11 627.561 1837.57 Q625.756 1834 622.122 1834 M622.122 1830.3 Q627.932 1830.3 630.987 1834.9 Q634.066 1839.49 634.066 1848.24 Q634.066 1856.96 630.987 1861.57 Q627.932 1866.15 622.122 1866.15 Q616.311 1866.15 613.233 1861.57 Q610.177 1856.96 610.177 1848.24 Q610.177 1839.49 613.233 1834.9 Q616.311 1830.3 622.122 1830.3 Z" fill="#000000" fill-rule="evenodd" fill-opacity="1" /><path clip-path="url(#clip620)" d="M941.982 1835 L930.176 1853.45 L941.982 1853.45 L941.982 1835 M940.755 1830.92 L946.635 1830.92 L946.635 1853.45 L951.565 1853.45 L951.565 1857.34 L946.635 1857.34 L946.635 1865.48 L941.982 1865.48 L941.982 1857.34 L926.38 1857.34 L926.38 1852.82 L940.755 1830.92 Z" fill="#000000" fill-rule="evenodd" fill-opacity="1" /><path clip-path="url(#clip620)" d="M969.297 1834 Q965.685 1834 963.857 1837.57 Q962.051 1841.11 962.051 1848.24 Q962.051 1855.34 963.857 1858.91 Q965.685 1862.45 969.297 1862.45 Q972.931 1862.45 974.736 1858.91 Q976.565 1855.34 976.565 1848.24 Q976.565 1841.11 974.736 1837.57 Q972.931 1834 969.297 1834 M969.297 1830.3 Q975.107 1830.3 978.162 1834.9 Q981.241 1839.49 981.241 1848.24 Q981.241 1856.96 978.162 1861.57 Q975.107 1866.15 969.297 1866.15 Q963.486 1866.15 960.408 1861.57 Q957.352 1856.96 957.352 1848.24 Q957.352 1839.49 960.408 1834.9 Q963.486 1830.3 969.297 1830.3 Z" fill="#000000" fill-rule="evenodd" fill-opacity="1" /><path clip-path="url(#clip620)" d="M999.458 1834 Q995.847 1834 994.019 1837.57 Q992.213 1841.11 992.213 1848.24 Q992.213 1855.34 994.019 1858.91 Q995.847 1862.45 999.458 1862.45 Q1003.09 1862.45 1004.9 1858.91 Q1006.73 1855.34 1006.73 1848.24 Q1006.73 1841.11 1004.9 1837.57 Q1003.09 1834 999.458 1834 M999.458 1830.3 Q1005.27 1830.3 1008.32 1834.9 Q1011.4 1839.49 1011.4 1848.24 Q1011.4 1856.96 1008.32 1861.57 Q1005.27 1866.15 999.458 1866.15 Q993.648 1866.15 990.57 1861.57 Q987.514 1856.96 987.514 1848.24 Q987.514 1839.49 990.57 1834.9 Q993.648 1830.3 999.458 1830.3 Z" fill="#000000" fill-rule="evenodd" fill-opacity="1" /><path clip-path="url(#clip620)" d="M1315.97 1846.34 Q1312.83 1846.34 1310.97 1848.49 Q1309.15 1850.65 1309.15 1854.4 Q1309.15 1858.12 1310.97 1860.3 Q1312.83 1862.45 1315.97 1862.45 Q1319.12 1862.45 1320.95 1860.3 Q1322.8 1858.12 1322.8 1854.4 Q1322.8 1850.65 1320.95 1848.49 Q1319.12 1846.34 1315.97 1846.34 M1325.26 1831.69 L1325.26 1835.95 Q1323.5 1835.11 1321.69 1834.67 Q1319.91 1834.23 1318.15 1834.23 Q1313.52 1834.23 1311.07 1837.36 Q1308.64 1840.48 1308.29 1846.8 Q1309.65 1844.79 1311.71 1843.72 Q1313.77 1842.64 1316.25 1842.64 Q1321.46 1842.64 1324.47 1845.81 Q1327.5 1848.96 1327.5 1854.4 Q1327.5 1859.72 1324.35 1862.94 Q1321.21 1866.15 1315.97 1866.15 Q1309.98 1866.15 1306.81 1861.57 Q1303.64 1856.96 1303.64 1848.24 Q1303.64 1840.04 1307.52 1835.18 Q1311.41 1830.3 1317.96 1830.3 Q1319.72 1830.3 1321.51 1830.65 Q1323.31 1830.99 1325.26 1831.69 Z" fill="#000000" fill-rule="evenodd" fill-opacity="1" /><path clip-path="url(#clip620)" d="M1345.56 1834 Q1341.95 1834 1340.12 1837.57 Q1338.31 1841.11 1338.31 1848.24 Q1338.31 1855.34 1340.12 1858.91 Q1341.95 1862.45 1345.56 1862.45 Q1349.19 1862.45 1351 1858.91 Q1352.83 1855.34 1352.83 1848.24 Q1352.83 1841.11 1351 1837.57 Q1349.19 1834 1345.56 1834 M1345.56 1830.3 Q1351.37 1830.3 1354.42 1834.9 Q1357.5 1839.49 1357.5 1848.24 Q1357.5 1856.96 1354.42 1861.57 Q1351.37 1866.15 1345.56 1866.15 Q1339.75 1866.15 1336.67 1861.57 Q1333.61 1856.96 1333.61 1848.24 Q1333.61 1839.49 1336.67 1834.9 Q1339.75 1830.3 1345.56 1830.3 Z" fill="#000000" fill-rule="evenodd" fill-opacity="1" /><path clip-path="url(#clip620)" d="M1375.72 1834 Q1372.11 1834 1370.28 1837.57 Q1368.47 1841.11 1368.47 1848.24 Q1368.47 1855.34 1370.28 1858.91 Q1372.11 1862.45 1375.72 1862.45 Q1379.35 1862.45 1381.16 1858.91 Q1382.99 1855.34 1382.99 1848.24 Q1382.99 1841.11 1381.16 1837.57 Q1379.35 1834 1375.72 1834 M1375.72 1830.3 Q1381.53 1830.3 1384.58 1834.9 Q1387.66 1839.49 1387.66 1848.24 Q1387.66 1856.96 1384.58 1861.57 Q1381.53 1866.15 1375.72 1866.15 Q1369.91 1866.15 1366.83 1861.57 Q1363.77 1856.96 1363.77 1848.24 Q1363.77 1839.49 1366.83 1834.9 Q1369.91 1830.3 1375.72 1830.3 Z" fill="#000000" fill-rule="evenodd" fill-opacity="1" /><path clip-path="url(#clip620)" d="M1692.2 1849.07 Q1688.87 1849.07 1686.95 1850.85 Q1685.05 1852.64 1685.05 1855.76 Q1685.05 1858.89 1686.95 1860.67 Q1688.87 1862.45 1692.2 1862.45 Q1695.53 1862.45 1697.45 1860.67 Q1699.38 1858.86 1699.38 1855.76 Q1699.38 1852.64 1697.45 1850.85 Q1695.56 1849.07 1692.2 1849.07 M1687.52 1847.08 Q1684.51 1846.34 1682.82 1844.28 Q1681.16 1842.22 1681.16 1839.26 Q1681.16 1835.11 1684.1 1832.71 Q1687.06 1830.3 1692.2 1830.3 Q1697.36 1830.3 1700.3 1832.71 Q1703.24 1835.11 1703.24 1839.26 Q1703.24 1842.22 1701.55 1844.28 Q1699.88 1846.34 1696.9 1847.08 Q1700.28 1847.87 1702.15 1850.16 Q1704.05 1852.45 1704.05 1855.76 Q1704.05 1860.78 1700.97 1863.47 Q1697.92 1866.15 1692.2 1866.15 Q1686.48 1866.15 1683.4 1863.47 Q1680.35 1860.78 1680.35 1855.76 Q1680.35 1852.45 1682.25 1850.16 Q1684.14 1847.87 1687.52 1847.08 M1685.81 1839.7 Q1685.81 1842.38 1687.48 1843.89 Q1689.17 1845.39 1692.2 1845.39 Q1695.21 1845.39 1696.9 1843.89 Q1698.61 1842.38 1698.61 1839.7 Q1698.61 1837.01 1696.9 1835.51 Q1695.21 1834 1692.2 1834 Q1689.17 1834 1687.48 1835.51 Q1685.81 1837.01 1685.81 1839.7 Z" fill="#000000" fill-rule="evenodd" fill-opacity="1" /><path clip-path="url(#clip620)" d="M1722.36 1834 Q1718.75 1834 1716.92 1837.57 Q1715.12 1841.11 1715.12 1848.24 Q1715.12 1855.34 1716.92 1858.91 Q1718.75 1862.45 1722.36 1862.45 Q1726 1862.45 1727.8 1858.91 Q1729.63 1855.34 1729.63 1848.24 Q1729.63 1841.11 1727.8 1837.57 Q1726 1834 1722.36 1834 M1722.36 1830.3 Q1728.17 1830.3 1731.23 1834.9 Q1734.31 1839.49 1734.31 1848.24 Q1734.31 1856.96 1731.23 1861.57 Q1728.17 1866.15 1722.36 1866.15 Q1716.55 1866.15 1713.47 1861.57 Q1710.42 1856.96 1710.42 1848.24 Q1710.42 1839.49 1713.47 1834.9 Q1716.55 1830.3 1722.36 1830.3 Z" fill="#000000" fill-rule="evenodd" fill-opacity="1" /><path clip-path="url(#clip620)" d="M1752.52 1834 Q1748.91 1834 1747.08 1837.57 Q1745.28 1841.11 1745.28 1848.24 Q1745.28 1855.34 1747.08 1858.91 Q1748.91 1862.45 1752.52 1862.45 Q1756.16 1862.45 1757.96 1858.91 Q1759.79 1855.34 1759.79 1848.24 Q1759.79 1841.11 1757.96 1837.57 Q1756.16 1834 1752.52 1834 M1752.52 1830.3 Q1758.33 1830.3 1761.39 1834.9 Q1764.47 1839.49 1764.47 1848.24 Q1764.47 1856.96 1761.39 1861.57 Q1758.33 1866.15 1752.52 1866.15 Q1746.71 1866.15 1743.63 1861.57 Q1740.58 1856.96 1740.58 1848.24 Q1740.58 1839.49 1743.63 1834.9 Q1746.71 1830.3 1752.52 1830.3 Z" fill="#000000" fill-rule="evenodd" fill-opacity="1" /><path clip-path="url(#clip620)" d="M2043.69 1861.55 L2051.33 1861.55 L2051.33 1835.18 L2043.02 1836.85 L2043.02 1832.59 L2051.28 1830.92 L2055.96 1830.92 L2055.96 1861.55 L2063.6 1861.55 L2063.6 1865.48 L2043.69 1865.48 L2043.69 1861.55 Z" fill="#000000" fill-rule="evenodd" fill-opacity="1" /><path clip-path="url(#clip620)" d="M2083.04 1834 Q2079.43 1834 2077.6 1837.57 Q2075.8 1841.11 2075.8 1848.24 Q2075.8 1855.34 2077.6 1858.91 Q2079.43 1862.45 2083.04 1862.45 Q2086.68 1862.45 2088.48 1858.91 Q2090.31 1855.34 2090.31 1848.24 Q2090.31 1841.11 2088.48 1837.57 Q2086.68 1834 2083.04 1834 M2083.04 1830.3 Q2088.85 1830.3 2091.91 1834.9 Q2094.99 1839.49 2094.99 1848.24 Q2094.99 1856.96 2091.91 1861.57 Q2088.85 1866.15 2083.04 1866.15 Q2077.23 1866.15 2074.15 1861.57 Q2071.1 1856.96 2071.1 1848.24 Q2071.1 1839.49 2074.15 1834.9 Q2077.23 1830.3 2083.04 1830.3 Z" fill="#000000" fill-rule="evenodd" fill-opacity="1" /><path clip-path="url(#clip620)" d="M2113.21 1834 Q2109.59 1834 2107.77 1837.57 Q2105.96 1841.11 2105.96 1848.24 Q2105.96 1855.34 2107.77 1858.91 Q2109.59 1862.45 2113.21 1862.45 Q2116.84 1862.45 2118.65 1858.91 Q2120.47 1855.34 2120.47 1848.24 Q2120.47 1841.11 2118.65 1837.57 Q2116.84 1834 2113.21 1834 M2113.21 1830.3 Q2119.02 1830.3 2122.07 1834.9 Q2125.15 1839.49 2125.15 1848.24 Q2125.15 1856.96 2122.07 1861.57 Q2119.02 1866.15 2113.21 1866.15 Q2107.4 1866.15 2104.32 1861.57 Q2101.26 1856.96 2101.26 1848.24 Q2101.26 1839.49 2104.32 1834.9 Q2107.4 1830.3 2113.21 1830.3 Z" fill="#000000" fill-rule="evenodd" fill-opacity="1" /><path clip-path="url(#clip620)" d="M2143.37 1834 Q2139.76 1834 2137.93 1837.57 Q2136.12 1841.11 2136.12 1848.24 Q2136.12 1855.34 2137.93 1858.91 Q2139.76 1862.45 2143.37 1862.45 Q2147 1862.45 2148.81 1858.91 Q2150.64 1855.34 2150.64 1848.24 Q2150.64 1841.11 2148.81 1837.57 Q2147 1834 2143.37 1834 M2143.37 1830.3 Q2149.18 1830.3 2152.23 1834.9 Q2155.31 1839.49 2155.31 1848.24 Q2155.31 1856.96 2152.23 1861.57 Q2149.18 1866.15 2143.37 1866.15 Q2137.56 1866.15 2134.48 1861.57 Q2131.42 1856.96 2131.42 1848.24 Q2131.42 1839.49 2134.48 1834.9 Q2137.56 1830.3 2143.37 1830.3 Z" fill="#000000" fill-rule="evenodd" fill-opacity="1" /><path clip-path="url(#clip620)" d="M2420.45 1861.55 L2428.09 1861.55 L2428.09 1835.18 L2419.78 1836.85 L2419.78 1832.59 L2428.04 1830.92 L2432.72 1830.92 L2432.72 1861.55 L2440.36 1861.55 L2440.36 1865.48 L2420.45 1865.48 L2420.45 1861.55 Z" fill="#000000" fill-rule="evenodd" fill-opacity="1" /><path clip-path="url(#clip620)" d="M2453.83 1861.55 L2470.15 1861.55 L2470.15 1865.48 L2448.2 1865.48 L2448.2 1861.55 Q2450.87 1858.79 2455.45 1854.16 Q2460.06 1849.51 2461.24 1848.17 Q2463.48 1845.65 2464.36 1843.91 Q2465.26 1842.15 2465.26 1840.46 Q2465.26 1837.71 2463.32 1835.97 Q2461.4 1834.23 2458.3 1834.23 Q2456.1 1834.23 2453.64 1835 Q2451.21 1835.76 2448.44 1837.31 L2448.44 1832.59 Q2451.26 1831.46 2453.71 1830.88 Q2456.17 1830.3 2458.2 1830.3 Q2463.57 1830.3 2466.77 1832.98 Q2469.96 1835.67 2469.96 1840.16 Q2469.96 1842.29 2469.15 1844.21 Q2468.37 1846.11 2466.26 1848.7 Q2465.68 1849.37 2462.58 1852.59 Q2459.48 1855.78 2453.83 1861.55 Z" fill="#000000" fill-rule="evenodd" fill-opacity="1" /><path clip-path="url(#clip620)" d="M2489.96 1834 Q2486.35 1834 2484.52 1837.57 Q2482.72 1841.11 2482.72 1848.24 Q2482.72 1855.34 2484.52 1858.91 Q2486.35 1862.45 2489.96 1862.45 Q2493.6 1862.45 2495.4 1858.91 Q2497.23 1855.34 2497.23 1848.24 Q2497.23 1841.11 2495.4 1837.57 Q2493.6 1834 2489.96 1834 M2489.96 1830.3 Q2495.77 1830.3 2498.83 1834.9 Q2501.91 1839.49 2501.91 1848.24 Q2501.91 1856.96 2498.83 1861.57 Q2495.77 1866.15 2489.96 1866.15 Q2484.15 1866.15 2481.07 1861.57 Q2478.02 1856.96 2478.02 1848.24 Q2478.02 1839.49 2481.07 1834.9 Q2484.15 1830.3 2489.96 1830.3 Z" fill="#000000" fill-rule="evenodd" fill-opacity="1" /><path clip-path="url(#clip620)" d="M2520.13 1834 Q2516.51 1834 2514.69 1837.57 Q2512.88 1841.11 2512.88 1848.24 Q2512.88 1855.34 2514.69 1858.91 Q2516.51 1862.45 2520.13 1862.45 Q2523.76 1862.45 2525.57 1858.91 Q2527.39 1855.34 2527.39 1848.24 Q2527.39 1841.11 2525.57 1837.57 Q2523.76 1834 2520.13 1834 M2520.13 1830.3 Q2525.94 1830.3 2528.99 1834.9 Q2532.07 1839.49 2532.07 1848.24 Q2532.07 1856.96 2528.99 1861.57 Q2525.94 1866.15 2520.13 1866.15 Q2514.32 1866.15 2511.24 1861.57 Q2508.18 1856.96 2508.18 1848.24 Q2508.18 1839.49 2511.24 1834.9 Q2514.32 1830.3 2520.13 1830.3 Z" fill="#000000" fill-rule="evenodd" fill-opacity="1" /><polyline clip-path="url(#clip622)" style="stroke:#000000; stroke-linecap:butt; stroke-linejoin:round; stroke-width:2; stroke-opacity:0.1; fill:none" points="
  144.733,1555.62 2640.76,1555.62 
  "/>
<polyline clip-path="url(#clip622)" style="stroke:#000000; stroke-linecap:butt; stroke-linejoin:round; stroke-width:2; stroke-opacity:0.1; fill:none" points="
  144.733,1221.53 2640.76,1221.53 
  "/>
<polyline clip-path="url(#clip622)" style="stroke:#000000; stroke-linecap:butt; stroke-linejoin:round; stroke-width:2; stroke-opacity:0.1; fill:none" points="
  144.733,887.438 2640.76,887.438 
  "/>
<polyline clip-path="url(#clip622)" style="stroke:#000000; stroke-linecap:butt; stroke-linejoin:round; stroke-width:2; stroke-opacity:0.1; fill:none" points="
  144.733,553.344 2640.76,553.344 
  "/>
<polyline clip-path="url(#clip622)" style="stroke:#000000; stroke-linecap:butt; stroke-linejoin:round; stroke-width:2; stroke-opacity:0.1; fill:none" points="
  144.733,219.251 2640.76,219.251 
  "/>
<polyline clip-path="url(#clip620)" style="stroke:#000000; stroke-linecap:butt; stroke-linejoin:round; stroke-width:4; stroke-opacity:1; fill:none" points="
  144.733,1800.78 144.733,47.2441 
  "/>
<polyline clip-path="url(#clip620)" style="stroke:#000000; stroke-linecap:butt; stroke-linejoin:round; stroke-width:4; stroke-opacity:1; fill:none" points="
  144.733,1555.62 163.631,1555.62 
  "/>
<polyline clip-path="url(#clip620)" style="stroke:#000000; stroke-linecap:butt; stroke-linejoin:round; stroke-width:4; stroke-opacity:1; fill:none" points="
  144.733,1221.53 163.631,1221.53 
  "/>
<polyline clip-path="url(#clip620)" style="stroke:#000000; stroke-linecap:butt; stroke-linejoin:round; stroke-width:4; stroke-opacity:1; fill:none" points="
  144.733,887.438 163.631,887.438 
  "/>
<polyline clip-path="url(#clip620)" style="stroke:#000000; stroke-linecap:butt; stroke-linejoin:round; stroke-width:4; stroke-opacity:1; fill:none" points="
  144.733,553.344 163.631,553.344 
  "/>
<polyline clip-path="url(#clip620)" style="stroke:#000000; stroke-linecap:butt; stroke-linejoin:round; stroke-width:4; stroke-opacity:1; fill:none" points="
  144.733,219.251 163.631,219.251 
  "/>
<path clip-path="url(#clip620)" d="M92.4686 1541.42 Q88.8575 1541.42 87.0288 1544.99 Q85.2232 1548.53 85.2232 1555.66 Q85.2232 1562.77 87.0288 1566.33 Q88.8575 1569.87 92.4686 1569.87 Q96.1028 1569.87 97.9083 1566.33 Q99.737 1562.77 99.737 1555.66 Q99.737 1548.53 97.9083 1544.99 Q96.1028 1541.42 92.4686 1541.42 M92.4686 1537.72 Q98.2787 1537.72 101.334 1542.33 Q104.413 1546.91 104.413 1555.66 Q104.413 1564.39 101.334 1568.99 Q98.2787 1573.58 92.4686 1573.58 Q86.6584 1573.58 83.5797 1568.99 Q80.5242 1564.39 80.5242 1555.66 Q80.5242 1546.91 83.5797 1542.33 Q86.6584 1537.72 92.4686 1537.72 Z" fill="#000000" fill-rule="evenodd" fill-opacity="1" /><path clip-path="url(#clip620)" d="M56.3345 1234.88 L72.6539 1234.88 L72.6539 1238.81 L50.7095 1238.81 L50.7095 1234.88 Q53.3715 1232.12 57.9549 1227.49 Q62.5613 1222.84 63.7419 1221.5 Q65.9872 1218.97 66.8668 1217.24 Q67.7696 1215.48 67.7696 1213.79 Q67.7696 1211.03 65.8252 1209.3 Q63.9039 1207.56 60.8021 1207.56 Q58.603 1207.56 56.1493 1208.33 Q53.7188 1209.09 50.941 1210.64 L50.941 1205.92 Q53.7651 1204.78 56.2188 1204.2 Q58.6724 1203.63 60.7095 1203.63 Q66.0798 1203.63 69.2742 1206.31 Q72.4687 1209 72.4687 1213.49 Q72.4687 1215.62 71.6585 1217.54 Q70.8715 1219.44 68.765 1222.03 Q68.1863 1222.7 65.0845 1225.92 Q61.9826 1229.11 56.3345 1234.88 Z" fill="#000000" fill-rule="evenodd" fill-opacity="1" /><path clip-path="url(#clip620)" d="M92.4686 1207.33 Q88.8575 1207.33 87.0288 1210.89 Q85.2232 1214.44 85.2232 1221.57 Q85.2232 1228.67 87.0288 1232.24 Q88.8575 1235.78 92.4686 1235.78 Q96.1028 1235.78 97.9083 1232.24 Q99.737 1228.67 99.737 1221.57 Q99.737 1214.44 97.9083 1210.89 Q96.1028 1207.33 92.4686 1207.33 M92.4686 1203.63 Q98.2787 1203.63 101.334 1208.23 Q104.413 1212.82 104.413 1221.57 Q104.413 1230.29 101.334 1234.9 Q98.2787 1239.48 92.4686 1239.48 Q86.6584 1239.48 83.5797 1234.9 Q80.5242 1230.29 80.5242 1221.57 Q80.5242 1212.82 83.5797 1208.23 Q86.6584 1203.63 92.4686 1203.63 Z" fill="#000000" fill-rule="evenodd" fill-opacity="1" /><path clip-path="url(#clip620)" d="M65.1539 874.232 L53.3484 892.681 L65.1539 892.681 L65.1539 874.232 M63.927 870.158 L69.8066 870.158 L69.8066 892.681 L74.7372 892.681 L74.7372 896.57 L69.8066 896.57 L69.8066 904.718 L65.1539 904.718 L65.1539 896.57 L49.5521 896.57 L49.5521 892.056 L63.927 870.158 Z" fill="#000000" fill-rule="evenodd" fill-opacity="1" /><path clip-path="url(#clip620)" d="M92.4686 873.236 Q88.8575 873.236 87.0288 876.801 Q85.2232 880.343 85.2232 887.472 Q85.2232 894.579 87.0288 898.144 Q88.8575 901.685 92.4686 901.685 Q96.1028 901.685 97.9083 898.144 Q99.737 894.579 99.737 887.472 Q99.737 880.343 97.9083 876.801 Q96.1028 873.236 92.4686 873.236 M92.4686 869.533 Q98.2787 869.533 101.334 874.139 Q104.413 878.722 104.413 887.472 Q104.413 896.199 101.334 900.806 Q98.2787 905.389 92.4686 905.389 Q86.6584 905.389 83.5797 900.806 Q80.5242 896.199 80.5242 887.472 Q80.5242 878.722 83.5797 874.139 Q86.6584 869.533 92.4686 869.533 Z" fill="#000000" fill-rule="evenodd" fill-opacity="1" /><path clip-path="url(#clip620)" d="M62.8854 551.481 Q59.7373 551.481 57.8854 553.634 Q56.0567 555.786 56.0567 559.536 Q56.0567 563.263 57.8854 565.439 Q59.7373 567.592 62.8854 567.592 Q66.0335 567.592 67.8622 565.439 Q69.7141 563.263 69.7141 559.536 Q69.7141 555.786 67.8622 553.634 Q66.0335 551.481 62.8854 551.481 M72.1677 536.828 L72.1677 541.087 Q70.4085 540.254 68.6029 539.814 Q66.8206 539.374 65.0613 539.374 Q60.4317 539.374 57.978 542.499 Q55.5475 545.624 55.2002 551.944 Q56.566 549.93 58.6262 548.865 Q60.6863 547.777 63.1632 547.777 Q68.3715 547.777 71.3807 550.948 Q74.4131 554.097 74.4131 559.536 Q74.4131 564.86 71.265 568.078 Q68.1168 571.296 62.8854 571.296 Q56.89 571.296 53.7188 566.712 Q50.5475 562.106 50.5475 553.379 Q50.5475 545.185 54.4364 540.324 Q58.3252 535.439 64.8761 535.439 Q66.6354 535.439 68.4178 535.786 Q70.2233 536.134 72.1677 536.828 Z" fill="#000000" fill-rule="evenodd" fill-opacity="1" /><path clip-path="url(#clip620)" d="M92.4686 539.143 Q88.8575 539.143 87.0288 542.708 Q85.2232 546.249 85.2232 553.379 Q85.2232 560.485 87.0288 564.05 Q88.8575 567.592 92.4686 567.592 Q96.1028 567.592 97.9083 564.05 Q99.737 560.485 99.737 553.379 Q99.737 546.249 97.9083 542.708 Q96.1028 539.143 92.4686 539.143 M92.4686 535.439 Q98.2787 535.439 101.334 540.046 Q104.413 544.629 104.413 553.379 Q104.413 562.106 101.334 566.712 Q98.2787 571.296 92.4686 571.296 Q86.6584 571.296 83.5797 566.712 Q80.5242 562.106 80.5242 553.379 Q80.5242 544.629 83.5797 540.046 Q86.6584 535.439 92.4686 535.439 Z" fill="#000000" fill-rule="evenodd" fill-opacity="1" /><path clip-path="url(#clip620)" d="M62.3067 220.119 Q58.9734 220.119 57.0521 221.901 Q55.1539 223.684 55.1539 226.809 Q55.1539 229.934 57.0521 231.716 Q58.9734 233.498 62.3067 233.498 Q65.64 233.498 67.5613 231.716 Q69.4826 229.911 69.4826 226.809 Q69.4826 223.684 67.5613 221.901 Q65.6632 220.119 62.3067 220.119 M57.6308 218.128 Q54.6215 217.387 52.9317 215.327 Q51.2651 213.267 51.2651 210.304 Q51.2651 206.161 54.2049 203.753 Q57.1678 201.346 62.3067 201.346 Q67.4687 201.346 70.4085 203.753 Q73.3483 206.161 73.3483 210.304 Q73.3483 213.267 71.6585 215.327 Q69.9918 217.387 67.0057 218.128 Q70.3853 218.915 72.2603 221.207 Q74.1585 223.499 74.1585 226.809 Q74.1585 231.832 71.0798 234.517 Q68.0242 237.202 62.3067 237.202 Q56.5891 237.202 53.5104 234.517 Q50.4549 231.832 50.4549 226.809 Q50.4549 223.499 52.353 221.207 Q54.2512 218.915 57.6308 218.128 M55.9178 210.744 Q55.9178 213.429 57.5845 214.934 Q59.2743 216.438 62.3067 216.438 Q65.3159 216.438 67.0057 214.934 Q68.7187 213.429 68.7187 210.744 Q68.7187 208.059 67.0057 206.554 Q65.3159 205.05 62.3067 205.05 Q59.2743 205.05 57.5845 206.554 Q55.9178 208.059 55.9178 210.744 Z" fill="#000000" fill-rule="evenodd" fill-opacity="1" /><path clip-path="url(#clip620)" d="M92.4686 205.05 Q88.8575 205.05 87.0288 208.614 Q85.2232 212.156 85.2232 219.286 Q85.2232 226.392 87.0288 229.957 Q88.8575 233.498 92.4686 233.498 Q96.1028 233.498 97.9083 229.957 Q99.737 226.392 99.737 219.286 Q99.737 212.156 97.9083 208.614 Q96.1028 205.05 92.4686 205.05 M92.4686 201.346 Q98.2787 201.346 101.334 205.952 Q104.413 210.536 104.413 219.286 Q104.413 228.012 101.334 232.619 Q98.2787 237.202 92.4686 237.202 Q86.6584 237.202 83.5797 232.619 Q80.5242 228.012 80.5242 219.286 Q80.5242 210.536 83.5797 205.952 Q86.6584 201.346 92.4686 201.346 Z" fill="#000000" fill-rule="evenodd" fill-opacity="1" /><polyline clip-path="url(#clip622)" style="stroke:#009af9; stroke-linecap:butt; stroke-linejoin:round; stroke-width:4; stroke-opacity:1; fill:none" points="
  215.375,1555.62 221.124,1504.77 226.873,1454.18 232.622,1403.86 238.371,1353.82 264.95,1126.61 291.529,907.488 318.108,698.904 344.686,504.605 357.976,414.598 
  371.265,330.785 384.555,254.758 397.844,188.811 411.134,136.435 424.423,103.314 431.068,96.8724 437.712,99.6861 444.357,114.792 451.002,147.018 452.998,161.155 
  454.995,177.87 456.992,197.563 458.988,220.735 460.985,248.023 462.981,280.26 464.978,318.559 466.975,364.457 468.971,420.161 470.968,489.007 471.966,529.919 
  472.964,576.388 473.963,629.75 474.961,691.894 475.959,765.608 476.958,855.263 477.956,968.298 478.954,1118.99 479.952,1340.77 480.951,1751.15 
  "/>
<path clip-path="url(#clip620)" d="
M2227.79 209.375 L2557.56 209.375 L2557.56 105.695 L2227.79 105.695  Z
  " fill="#ffffff" fill-rule="evenodd" fill-opacity="1"/>
<polyline clip-path="url(#clip620)" style="stroke:#000000; stroke-linecap:butt; stroke-linejoin:round; stroke-width:4; stroke-opacity:1; fill:none" points="
  2227.79,209.375 2557.56,209.375 2557.56,105.695 2227.79,105.695 2227.79,209.375 
  "/>
<polyline clip-path="url(#clip620)" style="stroke:#009af9; stroke-linecap:butt; stroke-linejoin:round; stroke-width:4; stroke-opacity:1; fill:none" points="
  2255.52,157.535 2421.92,157.535 
  "/>
<path clip-path="url(#clip620)" d="M2463.5 177.223 Q2461.69 181.852 2459.98 183.264 Q2458.27 184.676 2455.4 184.676 L2452 184.676 L2452 181.112 L2454.5 181.112 Q2456.25 181.112 2457.23 180.278 Q2458.2 179.445 2459.38 176.343 L2460.14 174.399 L2449.66 148.889 L2454.17 148.889 L2462.27 169.167 L2470.38 148.889 L2474.89 148.889 L2463.5 177.223 Z" fill="#000000" fill-rule="evenodd" fill-opacity="1" /><path clip-path="url(#clip620)" d="M2482.18 170.88 L2489.82 170.88 L2489.82 144.515 L2481.51 146.181 L2481.51 141.922 L2489.77 140.255 L2494.45 140.255 L2494.45 170.88 L2502.09 170.88 L2502.09 174.815 L2482.18 174.815 L2482.18 170.88 Z" fill="#000000" fill-rule="evenodd" fill-opacity="1" /></svg>
