<?xml version="1.0" encoding="utf-8"?>
<svg xmlns="http://www.w3.org/2000/svg" xmlns:xlink="http://www.w3.org/1999/xlink" width="672" height="480" viewBox="0 0 2688 1920">
<defs>
  <clipPath id="clip000">
    <rect x="0" y="0" width="2688" height="1920"/>
  </clipPath>
</defs>
<path clip-path="url(#clip000)" d="
M0 1920 L2688 1920 L2688 0 L0 0  Z
  " fill="#ffffff" fill-rule="evenodd" fill-opacity="1"/>
<defs>
  <clipPath id="clip001">
    <rect x="537" y="0" width="1883" height="1883"/>
  </clipPath>
</defs>
<path clip-path="url(#clip000)" d="
M232.325 1800.78 L2640.76 1800.78 L2640.76 47.2441 L232.325 47.2441  Z
  " fill="#ffffff" fill-rule="evenodd" fill-opacity="1"/>
<defs>
  <clipPath id="clip002">
    <rect x="232" y="47" width="2409" height="1755"/>
  </clipPath>
</defs>
<polyline clip-path="url(#clip002)" style="stroke:#000000; stroke-linecap:butt; stroke-linejoin:round; stroke-width:2; stroke-opacity:0.1; fill:none" points="
  300.488,1800.78 300.488,47.2441 
  "/>
<polyline clip-path="url(#clip002)" style="stroke:#000000; stroke-linecap:butt; stroke-linejoin:round; stroke-width:2; stroke-opacity:0.1; fill:none" points="
  868.514,1800.78 868.514,47.2441 
  "/>
<polyline clip-path="url(#clip002)" style="stroke:#000000; stroke-linecap:butt; stroke-linejoin:round; stroke-width:2; stroke-opacity:0.1; fill:none" points="
  1436.54,1800.78 1436.54,47.2441 
  "/>
<polyline clip-path="url(#clip002)" style="stroke:#000000; stroke-linecap:butt; stroke-linejoin:round; stroke-width:2; stroke-opacity:0.1; fill:none" points="
  2004.57,1800.78 2004.57,47.2441 
  "/>
<polyline clip-path="url(#clip002)" style="stroke:#000000; stroke-linecap:butt; stroke-linejoin:round; stroke-width:2; stroke-opacity:0.1; fill:none" points="
  2572.59,1800.78 2572.59,47.2441 
  "/>
<polyline clip-path="url(#clip000)" style="stroke:#000000; stroke-linecap:butt; stroke-linejoin:round; stroke-width:4; stroke-opacity:1; fill:none" points="
  232.325,1800.78 2640.76,1800.78 
  "/>
<polyline clip-path="url(#clip000)" style="stroke:#000000; stroke-linecap:butt; stroke-linejoin:round; stroke-width:4; stroke-opacity:1; fill:none" points="
  300.488,1800.78 300.488,1781.88 
  "/>
<polyline clip-path="url(#clip000)" style="stroke:#000000; stroke-linecap:butt; stroke-linejoin:round; stroke-width:4; stroke-opacity:1; fill:none" points="
  868.514,1800.78 868.514,1781.88 
  "/>
<polyline clip-path="url(#clip000)" style="stroke:#000000; stroke-linecap:butt; stroke-linejoin:round; stroke-width:4; stroke-opacity:1; fill:none" points="
  1436.54,1800.78 1436.54,1781.88 
  "/>
<polyline clip-path="url(#clip000)" style="stroke:#000000; stroke-linecap:butt; stroke-linejoin:round; stroke-width:4; stroke-opacity:1; fill:none" points="
  2004.57,1800.78 2004.57,1781.88 
  "/>
<polyline clip-path="url(#clip000)" style="stroke:#000000; stroke-linecap:butt; stroke-linejoin:round; stroke-width:4; stroke-opacity:1; fill:none" points="
  2572.59,1800.78 2572.59,1781.88 
  "/>
<path clip-path="url(#clip000)" d="M277.873 1834 Q274.261 1834 272.433 1837.57 Q270.627 1841.11 270.627 1848.24 Q270.627 1855.34 272.433 1858.91 Q274.261 1862.45 277.873 1862.45 Q281.507 1862.45 283.312 1858.91 Q285.141 1855.34 285.141 1848.24 Q285.141 1841.11 283.312 1837.57 Q281.507 1834 277.873 1834 M277.873 1830.3 Q283.683 1830.3 286.738 1834.9 Q289.817 1839.49 289.817 1848.24 Q289.817 1856.96 286.738 1861.57 Q283.683 1866.15 277.873 1866.15 Q272.062 1866.15 268.984 1861.57 Q265.928 1856.96 265.928 1848.24 Q265.928 1839.49 268.984 1834.9 Q272.062 1830.3 277.873 1830.3 Z" fill="#000000" fill-rule="evenodd" fill-opacity="1" /><path clip-path="url(#clip000)" d="M298.035 1859.6 L302.919 1859.6 L302.919 1865.48 L298.035 1865.48 L298.035 1859.6 Z" fill="#000000" fill-rule="evenodd" fill-opacity="1" /><path clip-path="url(#clip000)" d="M323.104 1834 Q319.493 1834 317.664 1837.57 Q315.858 1841.11 315.858 1848.24 Q315.858 1855.34 317.664 1858.91 Q319.493 1862.45 323.104 1862.45 Q326.738 1862.45 328.544 1858.91 Q330.372 1855.34 330.372 1848.24 Q330.372 1841.11 328.544 1837.57 Q326.738 1834 323.104 1834 M323.104 1830.3 Q328.914 1830.3 331.97 1834.9 Q335.048 1839.49 335.048 1848.24 Q335.048 1856.96 331.97 1861.57 Q328.914 1866.15 323.104 1866.15 Q317.294 1866.15 314.215 1861.57 Q311.159 1856.96 311.159 1848.24 Q311.159 1839.49 314.215 1834.9 Q317.294 1830.3 323.104 1830.3 Z" fill="#000000" fill-rule="evenodd" fill-opacity="1" /><path clip-path="url(#clip000)" d="M840.251 1861.55 L856.57 1861.55 L856.57 1865.48 L834.626 1865.48 L834.626 1861.55 Q837.288 1858.79 841.871 1854.16 Q846.477 1849.51 847.658 1848.17 Q849.903 1845.65 850.783 1843.91 Q851.686 1842.15 851.686 1840.46 Q851.686 1837.71 849.741 1835.97 Q847.82 1834.23 844.718 1834.23 Q842.519 1834.23 840.065 1835 Q837.635 1835.76 834.857 1837.31 L834.857 1832.59 Q837.681 1831.46 840.135 1830.88 Q842.589 1830.3 844.626 1830.3 Q849.996 1830.3 853.19 1832.98 Q856.385 1835.67 856.385 1840.16 Q856.385 1842.29 855.575 1844.21 Q854.788 1846.11 852.681 1848.7 Q852.102 1849.37 849.001 1852.59 Q845.899 1855.78 840.251 1861.55 Z" fill="#000000" fill-rule="evenodd" fill-opacity="1" /><path clip-path="url(#clip000)" d="M866.385 1859.6 L871.269 1859.6 L871.269 1865.48 L866.385 1865.48 L866.385 1859.6 Z" fill="#000000" fill-rule="evenodd" fill-opacity="1" /><path clip-path="url(#clip000)" d="M881.5 1830.92 L899.857 1830.92 L899.857 1834.86 L885.783 1834.86 L885.783 1843.33 Q886.801 1842.98 887.82 1842.82 Q888.838 1842.64 889.857 1842.64 Q895.644 1842.64 899.023 1845.81 Q902.403 1848.98 902.403 1854.4 Q902.403 1859.97 898.931 1863.08 Q895.459 1866.15 889.139 1866.15 Q886.963 1866.15 884.695 1865.78 Q882.449 1865.41 880.042 1864.67 L880.042 1859.97 Q882.125 1861.11 884.348 1861.66 Q886.57 1862.22 889.047 1862.22 Q893.051 1862.22 895.389 1860.11 Q897.727 1858.01 897.727 1854.4 Q897.727 1850.78 895.389 1848.68 Q893.051 1846.57 889.047 1846.57 Q887.172 1846.57 885.297 1846.99 Q883.445 1847.4 881.5 1848.28 L881.5 1830.92 Z" fill="#000000" fill-rule="evenodd" fill-opacity="1" /><path clip-path="url(#clip000)" d="M1403.71 1830.92 L1422.06 1830.92 L1422.06 1834.86 L1407.99 1834.86 L1407.99 1843.33 Q1409.01 1842.98 1410.02 1842.82 Q1411.04 1842.64 1412.06 1842.64 Q1417.85 1842.64 1421.23 1845.81 Q1424.61 1848.98 1424.61 1854.4 Q1424.61 1859.97 1421.14 1863.08 Q1417.66 1866.15 1411.34 1866.15 Q1409.17 1866.15 1406.9 1865.78 Q1404.65 1865.41 1402.25 1864.67 L1402.25 1859.97 Q1404.33 1861.11 1406.55 1861.66 Q1408.77 1862.22 1411.25 1862.22 Q1415.26 1862.22 1417.59 1860.11 Q1419.93 1858.01 1419.93 1854.4 Q1419.93 1850.78 1417.59 1848.68 Q1415.26 1846.57 1411.25 1846.57 Q1409.38 1846.57 1407.5 1846.99 Q1405.65 1847.4 1403.71 1848.28 L1403.71 1830.92 Z" fill="#000000" fill-rule="evenodd" fill-opacity="1" /><path clip-path="url(#clip000)" d="M1433.82 1859.6 L1438.7 1859.6 L1438.7 1865.48 L1433.82 1865.48 L1433.82 1859.6 Z" fill="#000000" fill-rule="evenodd" fill-opacity="1" /><path clip-path="url(#clip000)" d="M1458.89 1834 Q1455.28 1834 1453.45 1837.57 Q1451.64 1841.11 1451.64 1848.24 Q1451.64 1855.34 1453.45 1858.91 Q1455.28 1862.45 1458.89 1862.45 Q1462.52 1862.45 1464.33 1858.91 Q1466.16 1855.34 1466.16 1848.24 Q1466.16 1841.11 1464.33 1837.57 Q1462.52 1834 1458.89 1834 M1458.89 1830.3 Q1464.7 1830.3 1467.76 1834.9 Q1470.83 1839.49 1470.83 1848.24 Q1470.83 1856.96 1467.76 1861.57 Q1464.7 1866.15 1458.89 1866.15 Q1453.08 1866.15 1450 1861.57 Q1446.95 1856.96 1446.95 1848.24 Q1446.95 1839.49 1450 1834.9 Q1453.08 1830.3 1458.89 1830.3 Z" fill="#000000" fill-rule="evenodd" fill-opacity="1" /><path clip-path="url(#clip000)" d="M1970.89 1830.92 L1993.11 1830.92 L1993.11 1832.91 L1980.56 1865.48 L1975.68 1865.48 L1987.48 1834.86 L1970.89 1834.86 L1970.89 1830.92 Z" fill="#000000" fill-rule="evenodd" fill-opacity="1" /><path clip-path="url(#clip000)" d="M2002.23 1859.6 L2007.11 1859.6 L2007.11 1865.48 L2002.23 1865.48 L2002.23 1859.6 Z" fill="#000000" fill-rule="evenodd" fill-opacity="1" /><path clip-path="url(#clip000)" d="M2017.34 1830.92 L2035.7 1830.92 L2035.7 1834.86 L2021.63 1834.86 L2021.63 1843.33 Q2022.65 1842.98 2023.66 1842.82 Q2024.68 1842.64 2025.7 1842.64 Q2031.49 1842.64 2034.87 1845.81 Q2038.25 1848.98 2038.25 1854.4 Q2038.25 1859.97 2034.77 1863.08 Q2031.3 1866.15 2024.98 1866.15 Q2022.81 1866.15 2020.54 1865.78 Q2018.29 1865.41 2015.89 1864.67 L2015.89 1859.97 Q2017.97 1861.11 2020.19 1861.66 Q2022.41 1862.22 2024.89 1862.22 Q2028.9 1862.22 2031.23 1860.11 Q2033.57 1858.01 2033.57 1854.4 Q2033.57 1850.78 2031.23 1848.68 Q2028.9 1846.57 2024.89 1846.57 Q2023.02 1846.57 2021.14 1846.99 Q2019.29 1847.4 2017.34 1848.28 L2017.34 1830.92 Z" fill="#000000" fill-rule="evenodd" fill-opacity="1" /><path clip-path="url(#clip000)" d="M2524.66 1861.55 L2532.3 1861.55 L2532.3 1835.18 L2523.99 1836.85 L2523.99 1832.59 L2532.26 1830.92 L2536.93 1830.92 L2536.93 1861.55 L2544.57 1861.55 L2544.57 1865.48 L2524.66 1865.48 L2524.66 1861.55 Z" fill="#000000" fill-rule="evenodd" fill-opacity="1" /><path clip-path="url(#clip000)" d="M2564.02 1834 Q2560.41 1834 2558.58 1837.57 Q2556.77 1841.11 2556.77 1848.24 Q2556.77 1855.34 2558.58 1858.91 Q2560.41 1862.45 2564.02 1862.45 Q2567.65 1862.45 2569.46 1858.91 Q2571.28 1855.34 2571.28 1848.24 Q2571.28 1841.11 2569.46 1837.57 Q2567.65 1834 2564.02 1834 M2564.02 1830.3 Q2569.83 1830.3 2572.88 1834.9 Q2575.96 1839.49 2575.96 1848.24 Q2575.96 1856.96 2572.88 1861.57 Q2569.83 1866.15 2564.02 1866.15 Q2558.21 1866.15 2555.13 1861.57 Q2552.07 1856.96 2552.07 1848.24 Q2552.07 1839.49 2555.13 1834.9 Q2558.21 1830.3 2564.02 1830.3 Z" fill="#000000" fill-rule="evenodd" fill-opacity="1" /><path clip-path="url(#clip000)" d="M2584.18 1859.6 L2589.06 1859.6 L2589.06 1865.48 L2584.18 1865.48 L2584.18 1859.6 Z" fill="#000000" fill-rule="evenodd" fill-opacity="1" /><path clip-path="url(#clip000)" d="M2609.25 1834 Q2605.64 1834 2603.81 1837.57 Q2602 1841.11 2602 1848.24 Q2602 1855.34 2603.81 1858.91 Q2605.64 1862.45 2609.25 1862.45 Q2612.88 1862.45 2614.69 1858.91 Q2616.52 1855.34 2616.52 1848.24 Q2616.52 1841.11 2614.69 1837.57 Q2612.88 1834 2609.25 1834 M2609.25 1830.3 Q2615.06 1830.3 2618.11 1834.9 Q2621.19 1839.49 2621.19 1848.24 Q2621.19 1856.96 2618.11 1861.57 Q2615.06 1866.15 2609.25 1866.15 Q2603.44 1866.15 2600.36 1861.57 Q2597.3 1856.96 2597.3 1848.24 Q2597.3 1839.49 2600.36 1834.9 Q2603.44 1830.3 2609.25 1830.3 Z" fill="#000000" fill-rule="evenodd" fill-opacity="1" /><polyline clip-path="url(#clip002)" style="stroke:#000000; stroke-linecap:butt; stroke-linejoin:round; stroke-width:2; stroke-opacity:0.1; fill:none" points="
  232.325,1583.46 2640.76,1583.46 
  "/>
<polyline clip-path="url(#clip002)" style="stroke:#000000; stroke-linecap:butt; stroke-linejoin:round; stroke-width:2; stroke-opacity:0.1; fill:none" points="
  232.325,1274.44 2640.76,1274.44 
  "/>
<polyline clip-path="url(#clip002)" style="stroke:#000000; stroke-linecap:butt; stroke-linejoin:round; stroke-width:2; stroke-opacity:0.1; fill:none" points="
  232.325,965.412 2640.76,965.412 
  "/>
<polyline clip-path="url(#clip002)" style="stroke:#000000; stroke-linecap:butt; stroke-linejoin:round; stroke-width:2; stroke-opacity:0.1; fill:none" points="
  232.325,656.388 2640.76,656.388 
  "/>
<polyline clip-path="url(#clip002)" style="stroke:#000000; stroke-linecap:butt; stroke-linejoin:round; stroke-width:2; stroke-opacity:0.1; fill:none" points="
  232.325,347.363 2640.76,347.363 
  "/>
<polyline clip-path="url(#clip000)" style="stroke:#000000; stroke-linecap:butt; stroke-linejoin:round; stroke-width:4; stroke-opacity:1; fill:none" points="
  232.325,1800.78 232.325,47.2441 
  "/>
<polyline clip-path="url(#clip000)" style="stroke:#000000; stroke-linecap:butt; stroke-linejoin:round; stroke-width:4; stroke-opacity:1; fill:none" points="
  232.325,1583.46 251.223,1583.46 
  "/>
<polyline clip-path="url(#clip000)" style="stroke:#000000; stroke-linecap:butt; stroke-linejoin:round; stroke-width:4; stroke-opacity:1; fill:none" points="
  232.325,1274.44 251.223,1274.44 
  "/>
<polyline clip-path="url(#clip000)" style="stroke:#000000; stroke-linecap:butt; stroke-linejoin:round; stroke-width:4; stroke-opacity:1; fill:none" points="
  232.325,965.412 251.223,965.412 
  "/>
<polyline clip-path="url(#clip000)" style="stroke:#000000; stroke-linecap:butt; stroke-linejoin:round; stroke-width:4; stroke-opacity:1; fill:none" points="
  232.325,656.388 251.223,656.388 
  "/>
<polyline clip-path="url(#clip000)" style="stroke:#000000; stroke-linecap:butt; stroke-linejoin:round; stroke-width:4; stroke-opacity:1; fill:none" points="
  232.325,347.363 251.223,347.363 
  "/>
<path clip-path="url(#clip000)" d="M180.061 1569.26 Q176.45 1569.26 174.621 1572.82 Q172.815 1576.37 172.815 1583.5 Q172.815 1590.6 174.621 1594.17 Q176.45 1597.71 180.061 1597.71 Q183.695 1597.71 185.5 1594.17 Q187.329 1590.6 187.329 1583.5 Q187.329 1576.37 185.5 1572.82 Q183.695 1569.26 180.061 1569.26 M180.061 1565.56 Q185.871 1565.56 188.926 1570.16 Q192.005 1574.75 192.005 1583.5 Q192.005 1592.22 188.926 1596.83 Q185.871 1601.41 180.061 1601.41 Q174.251 1601.41 171.172 1596.83 Q168.116 1592.22 168.116 1583.5 Q168.116 1574.75 171.172 1570.16 Q174.251 1565.56 180.061 1565.56 Z" fill="#000000" fill-rule="evenodd" fill-opacity="1" /><path clip-path="url(#clip000)" d="M83.6029 1287.78 L99.9222 1287.78 L99.9222 1291.72 L77.9779 1291.72 L77.9779 1287.78 Q80.6399 1285.03 85.2232 1280.4 Q89.8297 1275.74 91.0102 1274.4 Q93.2556 1271.88 94.1352 1270.14 Q95.038 1268.38 95.038 1266.69 Q95.038 1263.94 93.0936 1262.2 Q91.1723 1260.47 88.0704 1260.47 Q85.8714 1260.47 83.4177 1261.23 Q80.9871 1261.99 78.2094 1263.55 L78.2094 1258.82 Q81.0334 1257.69 83.4871 1257.11 Q85.9408 1256.53 87.9778 1256.53 Q93.3482 1256.53 96.5426 1259.22 Q99.737 1261.9 99.737 1266.39 Q99.737 1268.52 98.9269 1270.44 Q98.1398 1272.34 96.0334 1274.93 Q95.4547 1275.61 92.3528 1278.82 Q89.251 1282.02 83.6029 1287.78 Z" fill="#000000" fill-rule="evenodd" fill-opacity="1" /><path clip-path="url(#clip000)" d="M109.783 1257.16 L128.14 1257.16 L128.14 1261.09 L114.066 1261.09 L114.066 1269.56 Q115.084 1269.22 116.103 1269.05 Q117.121 1268.87 118.14 1268.87 Q123.927 1268.87 127.306 1272.04 Q130.686 1275.21 130.686 1280.63 Q130.686 1286.21 127.214 1289.31 Q123.742 1292.39 117.422 1292.39 Q115.246 1292.39 112.978 1292.02 Q110.732 1291.65 108.325 1290.91 L108.325 1286.21 Q110.408 1287.34 112.63 1287.9 Q114.853 1288.45 117.33 1288.45 Q121.334 1288.45 123.672 1286.35 Q126.01 1284.24 126.01 1280.63 Q126.01 1277.02 123.672 1274.91 Q121.334 1272.8 117.33 1272.8 Q115.455 1272.8 113.58 1273.22 Q111.728 1273.64 109.783 1274.52 L109.783 1257.16 Z" fill="#000000" fill-rule="evenodd" fill-opacity="1" /><path clip-path="url(#clip000)" d="M149.899 1260.24 Q146.288 1260.24 144.459 1263.8 Q142.653 1267.34 142.653 1274.47 Q142.653 1281.58 144.459 1285.14 Q146.288 1288.68 149.899 1288.68 Q153.533 1288.68 155.339 1285.14 Q157.167 1281.58 157.167 1274.47 Q157.167 1267.34 155.339 1263.8 Q153.533 1260.24 149.899 1260.24 M149.899 1256.53 Q155.709 1256.53 158.765 1261.14 Q161.843 1265.72 161.843 1274.47 Q161.843 1283.2 158.765 1287.8 Q155.709 1292.39 149.899 1292.39 Q144.089 1292.39 141.01 1287.8 Q137.954 1283.2 137.954 1274.47 Q137.954 1265.72 141.01 1261.14 Q144.089 1256.53 149.899 1256.53 Z" fill="#000000" fill-rule="evenodd" fill-opacity="1" /><path clip-path="url(#clip000)" d="M180.061 1260.24 Q176.45 1260.24 174.621 1263.8 Q172.815 1267.34 172.815 1274.47 Q172.815 1281.58 174.621 1285.14 Q176.45 1288.68 180.061 1288.68 Q183.695 1288.68 185.5 1285.14 Q187.329 1281.58 187.329 1274.47 Q187.329 1267.34 185.5 1263.8 Q183.695 1260.24 180.061 1260.24 M180.061 1256.53 Q185.871 1256.53 188.926 1261.14 Q192.005 1265.72 192.005 1274.47 Q192.005 1283.2 188.926 1287.8 Q185.871 1292.39 180.061 1292.39 Q174.251 1292.39 171.172 1287.8 Q168.116 1283.2 168.116 1274.47 Q168.116 1265.72 171.172 1261.14 Q174.251 1256.53 180.061 1256.53 Z" fill="#000000" fill-rule="evenodd" fill-opacity="1" /><path clip-path="url(#clip000)" d="M79.6214 948.132 L97.9778 948.132 L97.9778 952.067 L83.9038 952.067 L83.9038 960.54 Q84.9223 960.192 85.9408 960.03 Q86.9593 959.845 87.9778 959.845 Q93.7649 959.845 97.1445 963.016 Q100.524 966.188 100.524 971.604 Q100.524 977.183 97.0519 980.285 Q93.5797 983.364 87.2603 983.364 Q85.0843 983.364 82.8158 982.993 Q80.5705 982.623 78.1631 981.882 L78.1631 977.183 Q80.2464 978.317 82.4686 978.873 Q84.6908 979.428 87.1677 979.428 Q91.1723 979.428 93.5102 977.322 Q95.8482 975.215 95.8482 971.604 Q95.8482 967.993 93.5102 965.887 Q91.1723 963.78 87.1677 963.78 Q85.2927 963.78 83.4177 964.197 Q81.5658 964.614 79.6214 965.493 L79.6214 948.132 Z" fill="#000000" fill-rule="evenodd" fill-opacity="1" /><path clip-path="url(#clip000)" d="M119.737 951.211 Q116.126 951.211 114.297 954.776 Q112.492 958.317 112.492 965.447 Q112.492 972.553 114.297 976.118 Q116.126 979.66 119.737 979.66 Q123.371 979.66 125.177 976.118 Q127.005 972.553 127.005 965.447 Q127.005 958.317 125.177 954.776 Q123.371 951.211 119.737 951.211 M119.737 947.507 Q125.547 947.507 128.603 952.114 Q131.681 956.697 131.681 965.447 Q131.681 974.174 128.603 978.78 Q125.547 983.364 119.737 983.364 Q113.927 983.364 110.848 978.78 Q107.793 974.174 107.793 965.447 Q107.793 956.697 110.848 952.114 Q113.927 947.507 119.737 947.507 Z" fill="#000000" fill-rule="evenodd" fill-opacity="1" /><path clip-path="url(#clip000)" d="M149.899 951.211 Q146.288 951.211 144.459 954.776 Q142.653 958.317 142.653 965.447 Q142.653 972.553 144.459 976.118 Q146.288 979.66 149.899 979.66 Q153.533 979.66 155.339 976.118 Q157.167 972.553 157.167 965.447 Q157.167 958.317 155.339 954.776 Q153.533 951.211 149.899 951.211 M149.899 947.507 Q155.709 947.507 158.765 952.114 Q161.843 956.697 161.843 965.447 Q161.843 974.174 158.765 978.78 Q155.709 983.364 149.899 983.364 Q144.089 983.364 141.01 978.78 Q137.954 974.174 137.954 965.447 Q137.954 956.697 141.01 952.114 Q144.089 947.507 149.899 947.507 Z" fill="#000000" fill-rule="evenodd" fill-opacity="1" /><path clip-path="url(#clip000)" d="M180.061 951.211 Q176.45 951.211 174.621 954.776 Q172.815 958.317 172.815 965.447 Q172.815 972.553 174.621 976.118 Q176.45 979.66 180.061 979.66 Q183.695 979.66 185.5 976.118 Q187.329 972.553 187.329 965.447 Q187.329 958.317 185.5 954.776 Q183.695 951.211 180.061 951.211 M180.061 947.507 Q185.871 947.507 188.926 952.114 Q192.005 956.697 192.005 965.447 Q192.005 974.174 188.926 978.78 Q185.871 983.364 180.061 983.364 Q174.251 983.364 171.172 978.78 Q168.116 974.174 168.116 965.447 Q168.116 956.697 171.172 952.114 Q174.251 947.507 180.061 947.507 Z" fill="#000000" fill-rule="evenodd" fill-opacity="1" /><path clip-path="url(#clip000)" d="M78.3946 639.108 L100.617 639.108 L100.617 641.099 L88.0704 673.668 L83.1862 673.668 L94.9917 643.043 L78.3946 643.043 L78.3946 639.108 Z" fill="#000000" fill-rule="evenodd" fill-opacity="1" /><path clip-path="url(#clip000)" d="M109.783 639.108 L128.14 639.108 L128.14 643.043 L114.066 643.043 L114.066 651.515 Q115.084 651.168 116.103 651.006 Q117.121 650.821 118.14 650.821 Q123.927 650.821 127.306 653.992 Q130.686 657.163 130.686 662.58 Q130.686 668.159 127.214 671.26 Q123.742 674.339 117.422 674.339 Q115.246 674.339 112.978 673.969 Q110.732 673.598 108.325 672.858 L108.325 668.159 Q110.408 669.293 112.63 669.848 Q114.853 670.404 117.33 670.404 Q121.334 670.404 123.672 668.298 Q126.01 666.191 126.01 662.58 Q126.01 658.969 123.672 656.862 Q121.334 654.756 117.33 654.756 Q115.455 654.756 113.58 655.173 Q111.728 655.589 109.783 656.469 L109.783 639.108 Z" fill="#000000" fill-rule="evenodd" fill-opacity="1" /><path clip-path="url(#clip000)" d="M149.899 642.187 Q146.288 642.187 144.459 645.751 Q142.653 649.293 142.653 656.423 Q142.653 663.529 144.459 667.094 Q146.288 670.635 149.899 670.635 Q153.533 670.635 155.339 667.094 Q157.167 663.529 157.167 656.423 Q157.167 649.293 155.339 645.751 Q153.533 642.187 149.899 642.187 M149.899 638.483 Q155.709 638.483 158.765 643.089 Q161.843 647.673 161.843 656.423 Q161.843 665.149 158.765 669.756 Q155.709 674.339 149.899 674.339 Q144.089 674.339 141.01 669.756 Q137.954 665.149 137.954 656.423 Q137.954 647.673 141.01 643.089 Q144.089 638.483 149.899 638.483 Z" fill="#000000" fill-rule="evenodd" fill-opacity="1" /><path clip-path="url(#clip000)" d="M180.061 642.187 Q176.45 642.187 174.621 645.751 Q172.815 649.293 172.815 656.423 Q172.815 663.529 174.621 667.094 Q176.45 670.635 180.061 670.635 Q183.695 670.635 185.5 667.094 Q187.329 663.529 187.329 656.423 Q187.329 649.293 185.5 645.751 Q183.695 642.187 180.061 642.187 M180.061 638.483 Q185.871 638.483 188.926 643.089 Q192.005 647.673 192.005 656.423 Q192.005 665.149 188.926 669.756 Q185.871 674.339 180.061 674.339 Q174.251 674.339 171.172 669.756 Q168.116 665.149 168.116 656.423 Q168.116 647.673 171.172 643.089 Q174.251 638.483 180.061 638.483 Z" fill="#000000" fill-rule="evenodd" fill-opacity="1" /><path clip-path="url(#clip000)" d="M50.2234 360.708 L57.8623 360.708 L57.8623 334.343 L49.5521 336.009 L49.5521 331.75 L57.816 330.083 L62.4919 330.083 L62.4919 360.708 L70.1307 360.708 L70.1307 364.643 L50.2234 364.643 L50.2234 360.708 Z" fill="#000000" fill-rule="evenodd" fill-opacity="1" /><path clip-path="url(#clip000)" d="M89.5751 333.162 Q85.964 333.162 84.1353 336.727 Q82.3297 340.269 82.3297 347.398 Q82.3297 354.505 84.1353 358.069 Q85.964 361.611 89.5751 361.611 Q93.2093 361.611 95.0148 358.069 Q96.8435 354.505 96.8435 347.398 Q96.8435 340.269 95.0148 336.727 Q93.2093 333.162 89.5751 333.162 M89.5751 329.458 Q95.3852 329.458 98.4408 334.065 Q101.519 338.648 101.519 347.398 Q101.519 356.125 98.4408 360.731 Q95.3852 365.315 89.5751 365.315 Q83.7649 365.315 80.6862 360.731 Q77.6307 356.125 77.6307 347.398 Q77.6307 338.648 80.6862 334.065 Q83.7649 329.458 89.5751 329.458 Z" fill="#000000" fill-rule="evenodd" fill-opacity="1" /><path clip-path="url(#clip000)" d="M119.737 333.162 Q116.126 333.162 114.297 336.727 Q112.492 340.269 112.492 347.398 Q112.492 354.505 114.297 358.069 Q116.126 361.611 119.737 361.611 Q123.371 361.611 125.177 358.069 Q127.005 354.505 127.005 347.398 Q127.005 340.269 125.177 336.727 Q123.371 333.162 119.737 333.162 M119.737 329.458 Q125.547 329.458 128.603 334.065 Q131.681 338.648 131.681 347.398 Q131.681 356.125 128.603 360.731 Q125.547 365.315 119.737 365.315 Q113.927 365.315 110.848 360.731 Q107.793 356.125 107.793 347.398 Q107.793 338.648 110.848 334.065 Q113.927 329.458 119.737 329.458 Z" fill="#000000" fill-rule="evenodd" fill-opacity="1" /><path clip-path="url(#clip000)" d="M149.899 333.162 Q146.288 333.162 144.459 336.727 Q142.653 340.269 142.653 347.398 Q142.653 354.505 144.459 358.069 Q146.288 361.611 149.899 361.611 Q153.533 361.611 155.339 358.069 Q157.167 354.505 157.167 347.398 Q157.167 340.269 155.339 336.727 Q153.533 333.162 149.899 333.162 M149.899 329.458 Q155.709 329.458 158.765 334.065 Q161.843 338.648 161.843 347.398 Q161.843 356.125 158.765 360.731 Q155.709 365.315 149.899 365.315 Q144.089 365.315 141.01 360.731 Q137.954 356.125 137.954 347.398 Q137.954 338.648 141.01 334.065 Q144.089 329.458 149.899 329.458 Z" fill="#000000" fill-rule="evenodd" fill-opacity="1" /><path clip-path="url(#clip000)" d="M180.061 333.162 Q176.45 333.162 174.621 336.727 Q172.815 340.269 172.815 347.398 Q172.815 354.505 174.621 358.069 Q176.45 361.611 180.061 361.611 Q183.695 361.611 185.5 358.069 Q187.329 354.505 187.329 347.398 Q187.329 340.269 185.5 336.727 Q183.695 333.162 180.061 333.162 M180.061 329.458 Q185.871 329.458 188.926 334.065 Q192.005 338.648 192.005 347.398 Q192.005 356.125 188.926 360.731 Q185.871 365.315 180.061 365.315 Q174.251 365.315 171.172 360.731 Q168.116 356.125 168.116 347.398 Q168.116 338.648 171.172 334.065 Q174.251 329.458 180.061 329.458 Z" fill="#000000" fill-rule="evenodd" fill-opacity="1" /><polyline clip-path="url(#clip002)" style="stroke:#009af9; stroke-linecap:butt; stroke-linejoin:round; stroke-width:4; stroke-opacity:1; fill:none" points="
  300.488,1583.34 322.677,1583.32 527.846,1583.25 651.144,1583.58 755.391,1584.53 868.632,1586.79 973.031,1590.56 1084.96,1597.12 1214.63,1608.94 1329.88,1624.07 
  1430.93,1641.31 1541.11,1664.27 1651.95,1690.84 1774.49,1721.22 1891.08,1744.71 1951.7,1751.15 2012.31,1750.49 2063.34,1741.91 2114.37,1723.19 2145.51,1705.33 
  2176.66,1681.49 2207.81,1650.58 2238.96,1611.34 2268.24,1565.57 2297.52,1509.79 2326.8,1442.42 2356.08,1361.66 2379.53,1285.94 2402.99,1199.12 2426.44,1099.89 
  2449.9,986.786 2473.35,858.171 2496.81,712.238 2520.26,546.98 2543.72,360.165 2550.94,297.95 2558.15,233.384 2565.37,166.385 2572.59,96.8724 
  "/>
<path clip-path="url(#clip000)" d="
M2240.44 209.375 L2560.47 209.375 L2560.47 105.695 L2240.44 105.695  Z
  " fill="#ffffff" fill-rule="evenodd" fill-opacity="1"/>
<polyline clip-path="url(#clip000)" style="stroke:#000000; stroke-linecap:butt; stroke-linejoin:round; stroke-width:4; stroke-opacity:1; fill:none" points="
  2240.44,209.375 2560.47,209.375 2560.47,105.695 2240.44,105.695 2240.44,209.375 
  "/>
<polyline clip-path="url(#clip000)" style="stroke:#009af9; stroke-linecap:butt; stroke-linejoin:round; stroke-width:4; stroke-opacity:1; fill:none" points="
  2267.2,157.535 2427.76,157.535 
  "/>
<path clip-path="url(#clip000)" d="M2468.37 177.223 Q2466.56 181.852 2464.85 183.264 Q2463.13 184.676 2460.26 184.676 L2456.86 184.676 L2456.86 181.112 L2459.36 181.112 Q2461.12 181.112 2462.09 180.278 Q2463.07 179.445 2464.25 176.343 L2465.01 174.399 L2454.52 148.889 L2459.04 148.889 L2467.14 169.167 L2475.24 148.889 L2479.76 148.889 L2468.37 177.223 Z" fill="#000000" fill-rule="evenodd" fill-opacity="1" /><path clip-path="url(#clip000)" d="M2487.05 170.88 L2494.69 170.88 L2494.69 144.515 L2486.38 146.181 L2486.38 141.922 L2494.64 140.255 L2499.32 140.255 L2499.32 170.88 L2506.95 170.88 L2506.95 174.815 L2487.05 174.815 L2487.05 170.88 Z" fill="#000000" fill-rule="evenodd" fill-opacity="1" /></svg>
