<?xml version="1.0" encoding="utf-8"?>
<svg xmlns="http://www.w3.org/2000/svg" xmlns:xlink="http://www.w3.org/1999/xlink" width="672" height="480" viewBox="0 0 2688 1920">
<defs>
  <clipPath id="clip540">
    <rect x="0" y="0" width="2688" height="1920"/>
  </clipPath>
</defs>
<path clip-path="url(#clip540)" d="
M0 1920 L2688 1920 L2688 0 L0 0  Z
  " fill="#ffffff" fill-rule="evenodd" fill-opacity="1"/>
<defs>
  <clipPath id="clip541">
    <rect x="537" y="0" width="1883" height="1883"/>
  </clipPath>
</defs>
<path clip-path="url(#clip540)" d="
M172.001 1800.78 L2640.76 1800.78 L2640.76 47.2441 L172.001 47.2441  Z
  " fill="#ffffff" fill-rule="evenodd" fill-opacity="1"/>
<defs>
  <clipPath id="clip542">
    <rect x="172" y="47" width="2470" height="1755"/>
  </clipPath>
</defs>
<polyline clip-path="url(#clip542)" style="stroke:#000000; stroke-linecap:butt; stroke-linejoin:round; stroke-width:2; stroke-opacity:0.1; fill:none" points="
  241.872,1800.78 241.872,47.2441 
  "/>
<polyline clip-path="url(#clip542)" style="stroke:#000000; stroke-linecap:butt; stroke-linejoin:round; stroke-width:2; stroke-opacity:0.1; fill:none" points="
  824.125,1800.78 824.125,47.2441 
  "/>
<polyline clip-path="url(#clip542)" style="stroke:#000000; stroke-linecap:butt; stroke-linejoin:round; stroke-width:2; stroke-opacity:0.1; fill:none" points="
  1406.38,1800.78 1406.38,47.2441 
  "/>
<polyline clip-path="url(#clip542)" style="stroke:#000000; stroke-linecap:butt; stroke-linejoin:round; stroke-width:2; stroke-opacity:0.1; fill:none" points="
  1988.63,1800.78 1988.63,47.2441 
  "/>
<polyline clip-path="url(#clip542)" style="stroke:#000000; stroke-linecap:butt; stroke-linejoin:round; stroke-width:2; stroke-opacity:0.1; fill:none" points="
  2570.89,1800.78 2570.89,47.2441 
  "/>
<polyline clip-path="url(#clip540)" style="stroke:#000000; stroke-linecap:butt; stroke-linejoin:round; stroke-width:4; stroke-opacity:1; fill:none" points="
  172.001,1800.78 2640.76,1800.78 
  "/>
<polyline clip-path="url(#clip540)" style="stroke:#000000; stroke-linecap:butt; stroke-linejoin:round; stroke-width:4; stroke-opacity:1; fill:none" points="
  241.872,1800.78 241.872,1781.88 
  "/>
<polyline clip-path="url(#clip540)" style="stroke:#000000; stroke-linecap:butt; stroke-linejoin:round; stroke-width:4; stroke-opacity:1; fill:none" points="
  824.125,1800.78 824.125,1781.88 
  "/>
<polyline clip-path="url(#clip540)" style="stroke:#000000; stroke-linecap:butt; stroke-linejoin:round; stroke-width:4; stroke-opacity:1; fill:none" points="
  1406.38,1800.78 1406.38,1781.88 
  "/>
<polyline clip-path="url(#clip540)" style="stroke:#000000; stroke-linecap:butt; stroke-linejoin:round; stroke-width:4; stroke-opacity:1; fill:none" points="
  1988.63,1800.78 1988.63,1781.88 
  "/>
<polyline clip-path="url(#clip540)" style="stroke:#000000; stroke-linecap:butt; stroke-linejoin:round; stroke-width:4; stroke-opacity:1; fill:none" points="
  2570.89,1800.78 2570.89,1781.88 
  "/>
<path clip-path="url(#clip540)" d="M241.872 1834 Q238.261 1834 236.432 1837.57 Q234.626 1841.11 234.626 1848.24 Q234.626 1855.34 236.432 1858.91 Q238.261 1862.45 241.872 1862.45 Q245.506 1862.45 247.312 1858.91 Q249.14 1855.34 249.14 1848.24 Q249.14 1841.11 247.312 1837.57 Q245.506 1834 241.872 1834 M241.872 1830.3 Q247.682 1830.3 250.737 1834.9 Q253.816 1839.49 253.816 1848.24 Q253.816 1856.96 250.737 1861.57 Q247.682 1866.15 241.872 1866.15 Q236.062 1866.15 232.983 1861.57 Q229.927 1856.96 229.927 1848.24 Q229.927 1839.49 232.983 1834.9 Q236.062 1830.3 241.872 1830.3 Z" fill="#000000" fill-rule="evenodd" fill-opacity="1" /><path clip-path="url(#clip540)" d="M787.817 1861.55 L804.137 1861.55 L804.137 1865.48 L782.193 1865.48 L782.193 1861.55 Q784.855 1858.79 789.438 1854.16 Q794.044 1849.51 795.225 1848.17 Q797.47 1845.65 798.35 1843.91 Q799.253 1842.15 799.253 1840.46 Q799.253 1837.71 797.308 1835.97 Q795.387 1834.23 792.285 1834.23 Q790.086 1834.23 787.632 1835 Q785.202 1835.76 782.424 1837.31 L782.424 1832.59 Q785.248 1831.46 787.702 1830.88 Q790.155 1830.3 792.192 1830.3 Q797.563 1830.3 800.757 1832.98 Q803.952 1835.67 803.952 1840.16 Q803.952 1842.29 803.141 1844.21 Q802.354 1846.11 800.248 1848.7 Q799.669 1849.37 796.567 1852.59 Q793.466 1855.78 787.817 1861.55 Z" fill="#000000" fill-rule="evenodd" fill-opacity="1" /><path clip-path="url(#clip540)" d="M813.998 1830.92 L832.354 1830.92 L832.354 1834.86 L818.28 1834.86 L818.28 1843.33 Q819.299 1842.98 820.317 1842.82 Q821.336 1842.64 822.354 1842.64 Q828.141 1842.64 831.521 1845.81 Q834.901 1848.98 834.901 1854.4 Q834.901 1859.97 831.428 1863.08 Q827.956 1866.15 821.637 1866.15 Q819.461 1866.15 817.192 1865.78 Q814.947 1865.41 812.54 1864.67 L812.54 1859.97 Q814.623 1861.11 816.845 1861.66 Q819.067 1862.22 821.544 1862.22 Q825.549 1862.22 827.887 1860.11 Q830.225 1858.01 830.225 1854.4 Q830.225 1850.78 827.887 1848.68 Q825.549 1846.57 821.544 1846.57 Q819.669 1846.57 817.794 1846.99 Q815.942 1847.4 813.998 1848.28 L813.998 1830.92 Z" fill="#000000" fill-rule="evenodd" fill-opacity="1" /><path clip-path="url(#clip540)" d="M854.113 1834 Q850.502 1834 848.674 1837.57 Q846.868 1841.11 846.868 1848.24 Q846.868 1855.34 848.674 1858.91 Q850.502 1862.45 854.113 1862.45 Q857.748 1862.45 859.553 1858.91 Q861.382 1855.34 861.382 1848.24 Q861.382 1841.11 859.553 1837.57 Q857.748 1834 854.113 1834 M854.113 1830.3 Q859.924 1830.3 862.979 1834.9 Q866.058 1839.49 866.058 1848.24 Q866.058 1856.96 862.979 1861.57 Q859.924 1866.15 854.113 1866.15 Q848.303 1866.15 845.225 1861.57 Q842.169 1856.96 842.169 1848.24 Q842.169 1839.49 845.225 1834.9 Q848.303 1830.3 854.113 1830.3 Z" fill="#000000" fill-rule="evenodd" fill-opacity="1" /><path clip-path="url(#clip540)" d="M1366 1830.92 L1384.35 1830.92 L1384.35 1834.86 L1370.28 1834.86 L1370.28 1843.33 Q1371.3 1842.98 1372.32 1842.82 Q1373.33 1842.64 1374.35 1842.64 Q1380.14 1842.64 1383.52 1845.81 Q1386.9 1848.98 1386.9 1854.4 Q1386.9 1859.97 1383.43 1863.08 Q1379.96 1866.15 1373.64 1866.15 Q1371.46 1866.15 1369.19 1865.78 Q1366.95 1865.41 1364.54 1864.67 L1364.54 1859.97 Q1366.62 1861.11 1368.84 1861.66 Q1371.07 1862.22 1373.54 1862.22 Q1377.55 1862.22 1379.89 1860.11 Q1382.22 1858.01 1382.22 1854.4 Q1382.22 1850.78 1379.89 1848.68 Q1377.55 1846.57 1373.54 1846.57 Q1371.67 1846.57 1369.79 1846.99 Q1367.94 1847.4 1366 1848.28 L1366 1830.92 Z" fill="#000000" fill-rule="evenodd" fill-opacity="1" /><path clip-path="url(#clip540)" d="M1406.11 1834 Q1402.5 1834 1400.67 1837.57 Q1398.87 1841.11 1398.87 1848.24 Q1398.87 1855.34 1400.67 1858.91 Q1402.5 1862.45 1406.11 1862.45 Q1409.75 1862.45 1411.55 1858.91 Q1413.38 1855.34 1413.38 1848.24 Q1413.38 1841.11 1411.55 1837.57 Q1409.75 1834 1406.11 1834 M1406.11 1830.3 Q1411.92 1830.3 1414.98 1834.9 Q1418.06 1839.49 1418.06 1848.24 Q1418.06 1856.96 1414.98 1861.57 Q1411.92 1866.15 1406.11 1866.15 Q1400.3 1866.15 1397.22 1861.57 Q1394.17 1856.96 1394.17 1848.24 Q1394.17 1839.49 1397.22 1834.9 Q1400.3 1830.3 1406.11 1830.3 Z" fill="#000000" fill-rule="evenodd" fill-opacity="1" /><path clip-path="url(#clip540)" d="M1436.27 1834 Q1432.66 1834 1430.83 1837.57 Q1429.03 1841.11 1429.03 1848.24 Q1429.03 1855.34 1430.83 1858.91 Q1432.66 1862.45 1436.27 1862.45 Q1439.91 1862.45 1441.71 1858.91 Q1443.54 1855.34 1443.54 1848.24 Q1443.54 1841.11 1441.71 1837.57 Q1439.91 1834 1436.27 1834 M1436.27 1830.3 Q1442.08 1830.3 1445.14 1834.9 Q1448.22 1839.49 1448.22 1848.24 Q1448.22 1856.96 1445.14 1861.57 Q1442.08 1866.15 1436.27 1866.15 Q1430.46 1866.15 1427.39 1861.57 Q1424.33 1856.96 1424.33 1848.24 Q1424.33 1839.49 1427.39 1834.9 Q1430.46 1830.3 1436.27 1830.3 Z" fill="#000000" fill-rule="evenodd" fill-opacity="1" /><path clip-path="url(#clip540)" d="M1946.91 1830.92 L1969.13 1830.92 L1969.13 1832.91 L1956.58 1865.48 L1951.7 1865.48 L1963.5 1834.86 L1946.91 1834.86 L1946.91 1830.92 Z" fill="#000000" fill-rule="evenodd" fill-opacity="1" /><path clip-path="url(#clip540)" d="M1978.3 1830.92 L1996.65 1830.92 L1996.65 1834.86 L1982.58 1834.86 L1982.58 1843.33 Q1983.6 1842.98 1984.62 1842.82 Q1985.63 1842.64 1986.65 1842.64 Q1992.44 1842.64 1995.82 1845.81 Q1999.2 1848.98 1999.2 1854.4 Q1999.2 1859.97 1995.73 1863.08 Q1992.25 1866.15 1985.94 1866.15 Q1983.76 1866.15 1981.49 1865.78 Q1979.25 1865.41 1976.84 1864.67 L1976.84 1859.97 Q1978.92 1861.11 1981.14 1861.66 Q1983.37 1862.22 1985.84 1862.22 Q1989.85 1862.22 1992.19 1860.11 Q1994.52 1858.01 1994.52 1854.4 Q1994.52 1850.78 1992.19 1848.68 Q1989.85 1846.57 1985.84 1846.57 Q1983.97 1846.57 1982.09 1846.99 Q1980.24 1847.4 1978.3 1848.28 L1978.3 1830.92 Z" fill="#000000" fill-rule="evenodd" fill-opacity="1" /><path clip-path="url(#clip540)" d="M2018.41 1834 Q2014.8 1834 2012.97 1837.57 Q2011.17 1841.11 2011.17 1848.24 Q2011.17 1855.34 2012.97 1858.91 Q2014.8 1862.45 2018.41 1862.45 Q2022.05 1862.45 2023.85 1858.91 Q2025.68 1855.34 2025.68 1848.24 Q2025.68 1841.11 2023.85 1837.57 Q2022.05 1834 2018.41 1834 M2018.41 1830.3 Q2024.22 1830.3 2027.28 1834.9 Q2030.36 1839.49 2030.36 1848.24 Q2030.36 1856.96 2027.28 1861.57 Q2024.22 1866.15 2018.41 1866.15 Q2012.6 1866.15 2009.52 1861.57 Q2006.47 1856.96 2006.47 1848.24 Q2006.47 1839.49 2009.52 1834.9 Q2012.6 1830.3 2018.41 1830.3 Z" fill="#000000" fill-rule="evenodd" fill-opacity="1" /><path clip-path="url(#clip540)" d="M2515.41 1861.55 L2523.05 1861.55 L2523.05 1835.18 L2514.74 1836.85 L2514.74 1832.59 L2523 1830.92 L2527.68 1830.92 L2527.68 1861.55 L2535.32 1861.55 L2535.32 1865.48 L2515.41 1865.48 L2515.41 1861.55 Z" fill="#000000" fill-rule="evenodd" fill-opacity="1" /><path clip-path="url(#clip540)" d="M2554.76 1834 Q2551.15 1834 2549.32 1837.57 Q2547.52 1841.11 2547.52 1848.24 Q2547.52 1855.34 2549.32 1858.91 Q2551.15 1862.45 2554.76 1862.45 Q2558.4 1862.45 2560.2 1858.91 Q2562.03 1855.34 2562.03 1848.24 Q2562.03 1841.11 2560.2 1837.57 Q2558.4 1834 2554.76 1834 M2554.76 1830.3 Q2560.57 1830.3 2563.63 1834.9 Q2566.71 1839.49 2566.71 1848.24 Q2566.71 1856.96 2563.63 1861.57 Q2560.57 1866.15 2554.76 1866.15 Q2548.95 1866.15 2545.87 1861.57 Q2542.82 1856.96 2542.82 1848.24 Q2542.82 1839.49 2545.87 1834.9 Q2548.95 1830.3 2554.76 1830.3 Z" fill="#000000" fill-rule="evenodd" fill-opacity="1" /><path clip-path="url(#clip540)" d="M2584.92 1834 Q2581.31 1834 2579.48 1837.57 Q2577.68 1841.11 2577.68 1848.24 Q2577.68 1855.34 2579.48 1858.91 Q2581.31 1862.45 2584.92 1862.45 Q2588.56 1862.45 2590.36 1858.91 Q2592.19 1855.34 2592.19 1848.24 Q2592.19 1841.11 2590.36 1837.57 Q2588.56 1834 2584.92 1834 M2584.92 1830.3 Q2590.73 1830.3 2593.79 1834.9 Q2596.87 1839.49 2596.87 1848.24 Q2596.87 1856.96 2593.79 1861.57 Q2590.73 1866.15 2584.92 1866.15 Q2579.11 1866.15 2576.04 1861.57 Q2572.98 1856.96 2572.98 1848.24 Q2572.98 1839.49 2576.04 1834.9 Q2579.11 1830.3 2584.92 1830.3 Z" fill="#000000" fill-rule="evenodd" fill-opacity="1" /><path clip-path="url(#clip540)" d="M2615.09 1834 Q2611.48 1834 2609.65 1837.57 Q2607.84 1841.11 2607.84 1848.24 Q2607.84 1855.34 2609.65 1858.91 Q2611.48 1862.45 2615.09 1862.45 Q2618.72 1862.45 2620.53 1858.91 Q2622.36 1855.34 2622.36 1848.24 Q2622.36 1841.11 2620.53 1837.57 Q2618.72 1834 2615.09 1834 M2615.09 1830.3 Q2620.9 1830.3 2623.95 1834.9 Q2627.03 1839.49 2627.03 1848.24 Q2627.03 1856.96 2623.95 1861.57 Q2620.9 1866.15 2615.09 1866.15 Q2609.28 1866.15 2606.2 1861.57 Q2603.14 1856.96 2603.14 1848.24 Q2603.14 1839.49 2606.2 1834.9 Q2609.28 1830.3 2615.09 1830.3 Z" fill="#000000" fill-rule="evenodd" fill-opacity="1" /><polyline clip-path="url(#clip542)" style="stroke:#000000; stroke-linecap:butt; stroke-linejoin:round; stroke-width:2; stroke-opacity:0.1; fill:none" points="
  172.001,1486.47 2640.76,1486.47 
  "/>
<polyline clip-path="url(#clip542)" style="stroke:#000000; stroke-linecap:butt; stroke-linejoin:round; stroke-width:2; stroke-opacity:0.1; fill:none" points="
  172.001,1155.61 2640.76,1155.61 
  "/>
<polyline clip-path="url(#clip542)" style="stroke:#000000; stroke-linecap:butt; stroke-linejoin:round; stroke-width:2; stroke-opacity:0.1; fill:none" points="
  172.001,824.755 2640.76,824.755 
  "/>
<polyline clip-path="url(#clip542)" style="stroke:#000000; stroke-linecap:butt; stroke-linejoin:round; stroke-width:2; stroke-opacity:0.1; fill:none" points="
  172.001,493.899 2640.76,493.899 
  "/>
<polyline clip-path="url(#clip542)" style="stroke:#000000; stroke-linecap:butt; stroke-linejoin:round; stroke-width:2; stroke-opacity:0.1; fill:none" points="
  172.001,163.044 2640.76,163.044 
  "/>
<polyline clip-path="url(#clip540)" style="stroke:#000000; stroke-linecap:butt; stroke-linejoin:round; stroke-width:4; stroke-opacity:1; fill:none" points="
  172.001,1800.78 172.001,47.2441 
  "/>
<polyline clip-path="url(#clip540)" style="stroke:#000000; stroke-linecap:butt; stroke-linejoin:round; stroke-width:4; stroke-opacity:1; fill:none" points="
  172.001,1486.47 190.899,1486.47 
  "/>
<polyline clip-path="url(#clip540)" style="stroke:#000000; stroke-linecap:butt; stroke-linejoin:round; stroke-width:4; stroke-opacity:1; fill:none" points="
  172.001,1155.61 190.899,1155.61 
  "/>
<polyline clip-path="url(#clip540)" style="stroke:#000000; stroke-linecap:butt; stroke-linejoin:round; stroke-width:4; stroke-opacity:1; fill:none" points="
  172.001,824.755 190.899,824.755 
  "/>
<polyline clip-path="url(#clip540)" style="stroke:#000000; stroke-linecap:butt; stroke-linejoin:round; stroke-width:4; stroke-opacity:1; fill:none" points="
  172.001,493.899 190.899,493.899 
  "/>
<polyline clip-path="url(#clip540)" style="stroke:#000000; stroke-linecap:butt; stroke-linejoin:round; stroke-width:4; stroke-opacity:1; fill:none" points="
  172.001,163.044 190.899,163.044 
  "/>
<path clip-path="url(#clip540)" d="M79.6214 1469.19 L97.9778 1469.19 L97.9778 1473.12 L83.9038 1473.12 L83.9038 1481.59 Q84.9223 1481.25 85.9408 1481.08 Q86.9593 1480.9 87.9778 1480.9 Q93.7649 1480.9 97.1445 1484.07 Q100.524 1487.24 100.524 1492.66 Q100.524 1498.24 97.0519 1501.34 Q93.5797 1504.42 87.2603 1504.42 Q85.0843 1504.42 82.8158 1504.05 Q80.5705 1503.68 78.1631 1502.94 L78.1631 1498.24 Q80.2464 1499.37 82.4686 1499.93 Q84.6908 1500.48 87.1677 1500.48 Q91.1723 1500.48 93.5102 1498.38 Q95.8482 1496.27 95.8482 1492.66 Q95.8482 1489.05 93.5102 1486.94 Q91.1723 1484.83 87.1677 1484.83 Q85.2927 1484.83 83.4177 1485.25 Q81.5658 1485.67 79.6214 1486.55 L79.6214 1469.19 Z" fill="#000000" fill-rule="evenodd" fill-opacity="1" /><path clip-path="url(#clip540)" d="M119.737 1472.27 Q116.126 1472.27 114.297 1475.83 Q112.492 1479.37 112.492 1486.5 Q112.492 1493.61 114.297 1497.17 Q116.126 1500.71 119.737 1500.71 Q123.371 1500.71 125.177 1497.17 Q127.005 1493.61 127.005 1486.5 Q127.005 1479.37 125.177 1475.83 Q123.371 1472.27 119.737 1472.27 M119.737 1468.56 Q125.547 1468.56 128.603 1473.17 Q131.681 1477.75 131.681 1486.5 Q131.681 1495.23 128.603 1499.83 Q125.547 1504.42 119.737 1504.42 Q113.927 1504.42 110.848 1499.83 Q107.793 1495.23 107.793 1486.5 Q107.793 1477.75 110.848 1473.17 Q113.927 1468.56 119.737 1468.56 Z" fill="#000000" fill-rule="evenodd" fill-opacity="1" /><path clip-path="url(#clip540)" d="M79.3899 1138.33 L101.612 1138.33 L101.612 1140.32 L89.0658 1172.89 L84.1816 1172.89 L95.9871 1142.27 L79.3899 1142.27 L79.3899 1138.33 Z" fill="#000000" fill-rule="evenodd" fill-opacity="1" /><path clip-path="url(#clip540)" d="M110.779 1138.33 L129.135 1138.33 L129.135 1142.27 L115.061 1142.27 L115.061 1150.74 Q116.08 1150.39 117.098 1150.23 Q118.117 1150.04 119.135 1150.04 Q124.922 1150.04 128.302 1153.21 Q131.681 1156.39 131.681 1161.8 Q131.681 1167.38 128.209 1170.48 Q124.737 1173.56 118.417 1173.56 Q116.242 1173.56 113.973 1173.19 Q111.728 1172.82 109.32 1172.08 L109.32 1167.38 Q111.404 1168.52 113.626 1169.07 Q115.848 1169.63 118.325 1169.63 Q122.33 1169.63 124.667 1167.52 Q127.005 1165.41 127.005 1161.8 Q127.005 1158.19 124.667 1156.09 Q122.33 1153.98 118.325 1153.98 Q116.45 1153.98 114.575 1154.4 Q112.723 1154.81 110.779 1155.69 L110.779 1138.33 Z" fill="#000000" fill-rule="evenodd" fill-opacity="1" /><path clip-path="url(#clip540)" d="M50.2234 838.1 L57.8623 838.1 L57.8623 811.734 L49.5521 813.401 L49.5521 809.142 L57.816 807.475 L62.4919 807.475 L62.4919 838.1 L70.1307 838.1 L70.1307 842.035 L50.2234 842.035 L50.2234 838.1 Z" fill="#000000" fill-rule="evenodd" fill-opacity="1" /><path clip-path="url(#clip540)" d="M89.5751 810.554 Q85.964 810.554 84.1353 814.118 Q82.3297 817.66 82.3297 824.79 Q82.3297 831.896 84.1353 835.461 Q85.964 839.003 89.5751 839.003 Q93.2093 839.003 95.0148 835.461 Q96.8435 831.896 96.8435 824.79 Q96.8435 817.66 95.0148 814.118 Q93.2093 810.554 89.5751 810.554 M89.5751 806.85 Q95.3852 806.85 98.4408 811.456 Q101.519 816.04 101.519 824.79 Q101.519 833.517 98.4408 838.123 Q95.3852 842.706 89.5751 842.706 Q83.7649 842.706 80.6862 838.123 Q77.6307 833.517 77.6307 824.79 Q77.6307 816.04 80.6862 811.456 Q83.7649 806.85 89.5751 806.85 Z" fill="#000000" fill-rule="evenodd" fill-opacity="1" /><path clip-path="url(#clip540)" d="M119.737 810.554 Q116.126 810.554 114.297 814.118 Q112.492 817.66 112.492 824.79 Q112.492 831.896 114.297 835.461 Q116.126 839.003 119.737 839.003 Q123.371 839.003 125.177 835.461 Q127.005 831.896 127.005 824.79 Q127.005 817.66 125.177 814.118 Q123.371 810.554 119.737 810.554 M119.737 806.85 Q125.547 806.85 128.603 811.456 Q131.681 816.04 131.681 824.79 Q131.681 833.517 128.603 838.123 Q125.547 842.706 119.737 842.706 Q113.927 842.706 110.848 838.123 Q107.793 833.517 107.793 824.79 Q107.793 816.04 110.848 811.456 Q113.927 806.85 119.737 806.85 Z" fill="#000000" fill-rule="evenodd" fill-opacity="1" /><path clip-path="url(#clip540)" d="M51.2188 507.244 L58.8576 507.244 L58.8576 480.879 L50.5475 482.545 L50.5475 478.286 L58.8113 476.619 L63.4872 476.619 L63.4872 507.244 L71.1261 507.244 L71.1261 511.179 L51.2188 511.179 L51.2188 507.244 Z" fill="#000000" fill-rule="evenodd" fill-opacity="1" /><path clip-path="url(#clip540)" d="M84.5982 507.244 L100.918 507.244 L100.918 511.179 L78.9733 511.179 L78.9733 507.244 Q81.6353 504.49 86.2186 499.86 Q90.8251 495.207 92.0056 493.865 Q94.251 491.341 95.1306 489.605 Q96.0334 487.846 96.0334 486.156 Q96.0334 483.402 94.0889 481.666 Q92.1676 479.929 89.0658 479.929 Q86.8667 479.929 84.4131 480.693 Q81.9825 481.457 79.2047 483.008 L79.2047 478.286 Q82.0288 477.152 84.4825 476.573 Q86.9362 475.994 88.9732 475.994 Q94.3436 475.994 97.538 478.679 Q100.732 481.365 100.732 485.855 Q100.732 487.985 99.9222 489.906 Q99.1352 491.804 97.0287 494.397 Q96.45 495.068 93.3482 498.286 Q90.2464 501.48 84.5982 507.244 Z" fill="#000000" fill-rule="evenodd" fill-opacity="1" /><path clip-path="url(#clip540)" d="M110.779 476.619 L129.135 476.619 L129.135 480.554 L115.061 480.554 L115.061 489.027 Q116.08 488.679 117.098 488.517 Q118.117 488.332 119.135 488.332 Q124.922 488.332 128.302 491.503 Q131.681 494.675 131.681 500.091 Q131.681 505.67 128.209 508.772 Q124.737 511.851 118.417 511.851 Q116.242 511.851 113.973 511.48 Q111.728 511.11 109.32 510.369 L109.32 505.67 Q111.404 506.804 113.626 507.36 Q115.848 507.915 118.325 507.915 Q122.33 507.915 124.667 505.809 Q127.005 503.702 127.005 500.091 Q127.005 496.48 124.667 494.374 Q122.33 492.267 118.325 492.267 Q116.45 492.267 114.575 492.684 Q112.723 493.101 110.779 493.98 L110.779 476.619 Z" fill="#000000" fill-rule="evenodd" fill-opacity="1" /><path clip-path="url(#clip540)" d="M50.2234 176.388 L57.8623 176.388 L57.8623 150.023 L49.5521 151.689 L49.5521 147.43 L57.816 145.764 L62.4919 145.764 L62.4919 176.388 L70.1307 176.388 L70.1307 180.324 L50.2234 180.324 L50.2234 176.388 Z" fill="#000000" fill-rule="evenodd" fill-opacity="1" /><path clip-path="url(#clip540)" d="M79.6214 145.764 L97.9778 145.764 L97.9778 149.699 L83.9038 149.699 L83.9038 158.171 Q84.9223 157.824 85.9408 157.662 Q86.9593 157.476 87.9778 157.476 Q93.7649 157.476 97.1445 160.648 Q100.524 163.819 100.524 169.236 Q100.524 174.814 97.0519 177.916 Q93.5797 180.995 87.2603 180.995 Q85.0843 180.995 82.8158 180.625 Q80.5705 180.254 78.1631 179.513 L78.1631 174.814 Q80.2464 175.949 82.4686 176.504 Q84.6908 177.06 87.1677 177.06 Q91.1723 177.06 93.5102 174.953 Q95.8482 172.847 95.8482 169.236 Q95.8482 165.625 93.5102 163.518 Q91.1723 161.412 87.1677 161.412 Q85.2927 161.412 83.4177 161.828 Q81.5658 162.245 79.6214 163.125 L79.6214 145.764 Z" fill="#000000" fill-rule="evenodd" fill-opacity="1" /><path clip-path="url(#clip540)" d="M119.737 148.842 Q116.126 148.842 114.297 152.407 Q112.492 155.949 112.492 163.078 Q112.492 170.185 114.297 173.75 Q116.126 177.291 119.737 177.291 Q123.371 177.291 125.177 173.75 Q127.005 170.185 127.005 163.078 Q127.005 155.949 125.177 152.407 Q123.371 148.842 119.737 148.842 M119.737 145.139 Q125.547 145.139 128.603 149.745 Q131.681 154.328 131.681 163.078 Q131.681 171.805 128.603 176.412 Q125.547 180.995 119.737 180.995 Q113.927 180.995 110.848 176.412 Q107.793 171.805 107.793 163.078 Q107.793 154.328 110.848 149.745 Q113.927 145.139 119.737 145.139 Z" fill="#000000" fill-rule="evenodd" fill-opacity="1" /><polyline clip-path="url(#clip542)" style="stroke:#009af9; stroke-linecap:butt; stroke-linejoin:round; stroke-width:4; stroke-opacity:1; fill:none" points="
  241.872,1751.15 257.035,1751.15 397.24,1751.15 481.498,1751.15 552.736,1751.15 630.121,1751.15 701.464,1751.15 777.95,1751.15 866.567,1751.15 945.319,1751.15 
  1014.38,1751.15 1089.67,1751.15 1165.41,1751.15 1249.15,1751.15 1328.83,1751.15 1349.54,1751.15 1370.25,1751.15 1380.61,1751.15 1390.96,1751.15 1396.14,1751.15 
  1401.32,1751.15 1406.5,1750.99 1411.67,1743.63 1420.39,1731.25 1429.11,1718.86 1437.82,1706.48 1446.54,1694.1 1463.98,1669.33 1481.41,1644.56 1566.55,1523.61 
  1644.55,1412.81 1716.58,1310.48 1789.55,1206.82 1871.33,1090.65 1945.44,985.375 2030.28,864.846 2108.84,753.248 2186.29,643.225 2261.48,536.402 2338.57,426.894 
  2423.03,306.916 2545.72,132.628 2570.89,96.8724 
  "/>
<path clip-path="url(#clip540)" d="
M2231.73 209.375 L2558.46 209.375 L2558.46 105.695 L2231.73 105.695  Z
  " fill="#ffffff" fill-rule="evenodd" fill-opacity="1"/>
<polyline clip-path="url(#clip540)" style="stroke:#000000; stroke-linecap:butt; stroke-linejoin:round; stroke-width:4; stroke-opacity:1; fill:none" points="
  2231.73,209.375 2558.46,209.375 2558.46,105.695 2231.73,105.695 2231.73,209.375 
  "/>
<polyline clip-path="url(#clip540)" style="stroke:#009af9; stroke-linecap:butt; stroke-linejoin:round; stroke-width:4; stroke-opacity:1; fill:none" points="
  2259.16,157.535 2423.74,157.535 
  "/>
<path clip-path="url(#clip540)" d="M2465.02 177.223 Q2463.21 181.852 2461.5 183.264 Q2459.78 184.676 2456.91 184.676 L2453.51 184.676 L2453.51 181.112 L2456.01 181.112 Q2457.77 181.112 2458.74 180.278 Q2459.71 179.445 2460.89 176.343 L2461.66 174.399 L2451.17 148.889 L2455.69 148.889 L2463.79 169.167 L2471.89 148.889 L2476.4 148.889 L2465.02 177.223 Z" fill="#000000" fill-rule="evenodd" fill-opacity="1" /><path clip-path="url(#clip540)" d="M2483.7 170.88 L2491.33 170.88 L2491.33 144.515 L2483.02 146.181 L2483.02 141.922 L2491.29 140.255 L2495.96 140.255 L2495.96 170.88 L2503.6 170.88 L2503.6 174.815 L2483.7 174.815 L2483.7 170.88 Z" fill="#000000" fill-rule="evenodd" fill-opacity="1" /></svg>
