<?xml version="1.0" encoding="utf-8"?>
<svg xmlns="http://www.w3.org/2000/svg" xmlns:xlink="http://www.w3.org/1999/xlink" width="672" height="480" viewBox="0 0 2688 1920">
<defs>
  <clipPath id="clip720">
    <rect x="0" y="0" width="2688" height="1920"/>
  </clipPath>
</defs>
<path clip-path="url(#clip720)" d="
M0 1920 L2688 1920 L2688 0 L0 0  Z
  " fill="#ffffff" fill-rule="evenodd" fill-opacity="1"/>
<defs>
  <clipPath id="clip721">
    <rect x="537" y="0" width="1883" height="1883"/>
  </clipPath>
</defs>
<path clip-path="url(#clip720)" d="
M196.816 1800.78 L2640.76 1800.78 L2640.76 47.2441 L196.816 47.2441  Z
  " fill="#ffffff" fill-rule="evenodd" fill-opacity="1"/>
<defs>
  <clipPath id="clip722">
    <rect x="196" y="47" width="2445" height="1755"/>
  </clipPath>
</defs>
<polyline clip-path="url(#clip722)" style="stroke:#000000; stroke-linecap:butt; stroke-linejoin:round; stroke-width:2; stroke-opacity:0.1; fill:none" points="
  265.984,1800.78 265.984,47.2441 
  "/>
<polyline clip-path="url(#clip722)" style="stroke:#000000; stroke-linecap:butt; stroke-linejoin:round; stroke-width:2; stroke-opacity:0.1; fill:none" points="
  999.881,1800.78 999.881,47.2441 
  "/>
<polyline clip-path="url(#clip722)" style="stroke:#000000; stroke-linecap:butt; stroke-linejoin:round; stroke-width:2; stroke-opacity:0.1; fill:none" points="
  1733.78,1800.78 1733.78,47.2441 
  "/>
<polyline clip-path="url(#clip722)" style="stroke:#000000; stroke-linecap:butt; stroke-linejoin:round; stroke-width:2; stroke-opacity:0.1; fill:none" points="
  2467.67,1800.78 2467.67,47.2441 
  "/>
<polyline clip-path="url(#clip720)" style="stroke:#000000; stroke-linecap:butt; stroke-linejoin:round; stroke-width:4; stroke-opacity:1; fill:none" points="
  196.816,1800.78 2640.76,1800.78 
  "/>
<polyline clip-path="url(#clip720)" style="stroke:#000000; stroke-linecap:butt; stroke-linejoin:round; stroke-width:4; stroke-opacity:1; fill:none" points="
  265.984,1800.78 265.984,1781.88 
  "/>
<polyline clip-path="url(#clip720)" style="stroke:#000000; stroke-linecap:butt; stroke-linejoin:round; stroke-width:4; stroke-opacity:1; fill:none" points="
  999.881,1800.78 999.881,1781.88 
  "/>
<polyline clip-path="url(#clip720)" style="stroke:#000000; stroke-linecap:butt; stroke-linejoin:round; stroke-width:4; stroke-opacity:1; fill:none" points="
  1733.78,1800.78 1733.78,1781.88 
  "/>
<polyline clip-path="url(#clip720)" style="stroke:#000000; stroke-linecap:butt; stroke-linejoin:round; stroke-width:4; stroke-opacity:1; fill:none" points="
  2467.67,1800.78 2467.67,1781.88 
  "/>
<path clip-path="url(#clip720)" d="M265.984 1834 Q262.373 1834 260.544 1837.57 Q258.739 1841.11 258.739 1848.24 Q258.739 1855.34 260.544 1858.91 Q262.373 1862.45 265.984 1862.45 Q269.618 1862.45 271.424 1858.91 Q273.253 1855.34 273.253 1848.24 Q273.253 1841.11 271.424 1837.57 Q269.618 1834 265.984 1834 M265.984 1830.3 Q271.794 1830.3 274.85 1834.9 Q277.928 1839.49 277.928 1848.24 Q277.928 1856.96 274.85 1861.57 Q271.794 1866.15 265.984 1866.15 Q260.174 1866.15 257.095 1861.57 Q254.04 1856.96 254.04 1848.24 Q254.04 1839.49 257.095 1834.9 Q260.174 1830.3 265.984 1830.3 Z" fill="#000000" fill-rule="evenodd" fill-opacity="1" /><path clip-path="url(#clip720)" d="M990.263 1861.55 L997.901 1861.55 L997.901 1835.18 L989.591 1836.85 L989.591 1832.59 L997.855 1830.92 L1002.53 1830.92 L1002.53 1861.55 L1010.17 1861.55 L1010.17 1865.48 L990.263 1865.48 L990.263 1861.55 Z" fill="#000000" fill-rule="evenodd" fill-opacity="1" /><path clip-path="url(#clip720)" d="M1728.43 1861.55 L1744.75 1861.55 L1744.75 1865.48 L1722.8 1865.48 L1722.8 1861.55 Q1725.47 1858.79 1730.05 1854.16 Q1734.66 1849.51 1735.84 1848.17 Q1738.08 1845.65 1738.96 1843.91 Q1739.86 1842.15 1739.86 1840.46 Q1739.86 1837.71 1737.92 1835.97 Q1736 1834.23 1732.9 1834.23 Q1730.7 1834.23 1728.24 1835 Q1725.81 1835.76 1723.04 1837.31 L1723.04 1832.59 Q1725.86 1831.46 1728.31 1830.88 Q1730.77 1830.3 1732.8 1830.3 Q1738.18 1830.3 1741.37 1832.98 Q1744.56 1835.67 1744.56 1840.16 Q1744.56 1842.29 1743.75 1844.21 Q1742.97 1846.11 1740.86 1848.7 Q1740.28 1849.37 1737.18 1852.59 Q1734.08 1855.78 1728.43 1861.55 Z" fill="#000000" fill-rule="evenodd" fill-opacity="1" /><path clip-path="url(#clip720)" d="M2471.92 1846.85 Q2475.28 1847.57 2477.15 1849.84 Q2479.05 1852.1 2479.05 1855.44 Q2479.05 1860.55 2475.53 1863.35 Q2472.01 1866.15 2465.53 1866.15 Q2463.36 1866.15 2461.04 1865.71 Q2458.75 1865.3 2456.3 1864.44 L2456.3 1859.93 Q2458.24 1861.06 2460.56 1861.64 Q2462.87 1862.22 2465.39 1862.22 Q2469.79 1862.22 2472.08 1860.48 Q2474.4 1858.75 2474.4 1855.44 Q2474.4 1852.38 2472.25 1850.67 Q2470.12 1848.93 2466.3 1848.93 L2462.27 1848.93 L2462.27 1845.09 L2466.48 1845.09 Q2469.93 1845.09 2471.76 1843.72 Q2473.59 1842.34 2473.59 1839.74 Q2473.59 1837.08 2471.69 1835.67 Q2469.81 1834.23 2466.3 1834.23 Q2464.37 1834.23 2462.18 1834.65 Q2459.98 1835.07 2457.34 1835.95 L2457.34 1831.78 Q2460 1831.04 2462.31 1830.67 Q2464.65 1830.3 2466.71 1830.3 Q2472.04 1830.3 2475.14 1832.73 Q2478.24 1835.14 2478.24 1839.26 Q2478.24 1842.13 2476.6 1844.12 Q2474.95 1846.09 2471.92 1846.85 Z" fill="#000000" fill-rule="evenodd" fill-opacity="1" /><polyline clip-path="url(#clip722)" style="stroke:#000000; stroke-linecap:butt; stroke-linejoin:round; stroke-width:2; stroke-opacity:0.1; fill:none" points="
  196.816,1751.19 2640.76,1751.19 
  "/>
<polyline clip-path="url(#clip722)" style="stroke:#000000; stroke-linecap:butt; stroke-linejoin:round; stroke-width:2; stroke-opacity:0.1; fill:none" points="
  196.816,1337.58 2640.76,1337.58 
  "/>
<polyline clip-path="url(#clip722)" style="stroke:#000000; stroke-linecap:butt; stroke-linejoin:round; stroke-width:2; stroke-opacity:0.1; fill:none" points="
  196.816,923.973 2640.76,923.973 
  "/>
<polyline clip-path="url(#clip722)" style="stroke:#000000; stroke-linecap:butt; stroke-linejoin:round; stroke-width:2; stroke-opacity:0.1; fill:none" points="
  196.816,510.362 2640.76,510.362 
  "/>
<polyline clip-path="url(#clip722)" style="stroke:#000000; stroke-linecap:butt; stroke-linejoin:round; stroke-width:2; stroke-opacity:0.1; fill:none" points="
  196.816,96.7506 2640.76,96.7506 
  "/>
<polyline clip-path="url(#clip720)" style="stroke:#000000; stroke-linecap:butt; stroke-linejoin:round; stroke-width:4; stroke-opacity:1; fill:none" points="
  196.816,1800.78 196.816,47.2441 
  "/>
<polyline clip-path="url(#clip720)" style="stroke:#000000; stroke-linecap:butt; stroke-linejoin:round; stroke-width:4; stroke-opacity:1; fill:none" points="
  196.816,1751.19 215.714,1751.19 
  "/>
<polyline clip-path="url(#clip720)" style="stroke:#000000; stroke-linecap:butt; stroke-linejoin:round; stroke-width:4; stroke-opacity:1; fill:none" points="
  196.816,1337.58 215.714,1337.58 
  "/>
<polyline clip-path="url(#clip720)" style="stroke:#000000; stroke-linecap:butt; stroke-linejoin:round; stroke-width:4; stroke-opacity:1; fill:none" points="
  196.816,923.973 215.714,923.973 
  "/>
<polyline clip-path="url(#clip720)" style="stroke:#000000; stroke-linecap:butt; stroke-linejoin:round; stroke-width:4; stroke-opacity:1; fill:none" points="
  196.816,510.362 215.714,510.362 
  "/>
<polyline clip-path="url(#clip720)" style="stroke:#000000; stroke-linecap:butt; stroke-linejoin:round; stroke-width:4; stroke-opacity:1; fill:none" points="
  196.816,96.7506 215.714,96.7506 
  "/>
<path clip-path="url(#clip720)" d="M49.5521 1751.65 L79.2279 1751.65 L79.2279 1755.58 L49.5521 1755.58 L49.5521 1751.65 Z" fill="#000000" fill-rule="evenodd" fill-opacity="1" /><path clip-path="url(#clip720)" d="M90.1306 1764.54 L97.7695 1764.54 L97.7695 1738.17 L89.4593 1739.84 L89.4593 1735.58 L97.7232 1733.91 L102.399 1733.91 L102.399 1764.54 L110.038 1764.54 L110.038 1768.47 L90.1306 1768.47 L90.1306 1764.54 Z" fill="#000000" fill-rule="evenodd" fill-opacity="1" /><path clip-path="url(#clip720)" d="M119.482 1762.6 L124.367 1762.6 L124.367 1768.47 L119.482 1768.47 L119.482 1762.6 Z" fill="#000000" fill-rule="evenodd" fill-opacity="1" /><path clip-path="url(#clip720)" d="M144.552 1736.99 Q140.941 1736.99 139.112 1740.56 Q137.306 1744.1 137.306 1751.23 Q137.306 1758.34 139.112 1761.9 Q140.941 1765.44 144.552 1765.44 Q148.186 1765.44 149.991 1761.9 Q151.82 1758.34 151.82 1751.23 Q151.82 1744.1 149.991 1740.56 Q148.186 1736.99 144.552 1736.99 M144.552 1733.29 Q150.362 1733.29 153.417 1737.9 Q156.496 1742.48 156.496 1751.23 Q156.496 1759.96 153.417 1764.56 Q150.362 1769.15 144.552 1769.15 Q138.741 1769.15 135.663 1764.56 Q132.607 1759.96 132.607 1751.23 Q132.607 1742.48 135.663 1737.9 Q138.741 1733.29 144.552 1733.29 Z" fill="#000000" fill-rule="evenodd" fill-opacity="1" /><path clip-path="url(#clip720)" d="M50.5475 1338.04 L80.2233 1338.04 L80.2233 1341.97 L50.5475 1341.97 L50.5475 1338.04 Z" fill="#000000" fill-rule="evenodd" fill-opacity="1" /><path clip-path="url(#clip720)" d="M100.316 1323.38 Q96.7047 1323.38 94.876 1326.95 Q93.0704 1330.49 93.0704 1337.62 Q93.0704 1344.73 94.876 1348.29 Q96.7047 1351.83 100.316 1351.83 Q103.95 1351.83 105.756 1348.29 Q107.584 1344.73 107.584 1337.62 Q107.584 1330.49 105.756 1326.95 Q103.95 1323.38 100.316 1323.38 M100.316 1319.68 Q106.126 1319.68 109.181 1324.29 Q112.26 1328.87 112.26 1337.62 Q112.26 1346.35 109.181 1350.95 Q106.126 1355.54 100.316 1355.54 Q94.5056 1355.54 91.4269 1350.95 Q88.3714 1346.35 88.3714 1337.62 Q88.3714 1328.87 91.4269 1324.29 Q94.5056 1319.68 100.316 1319.68 Z" fill="#000000" fill-rule="evenodd" fill-opacity="1" /><path clip-path="url(#clip720)" d="M120.478 1348.98 L125.362 1348.98 L125.362 1354.86 L120.478 1354.86 L120.478 1348.98 Z" fill="#000000" fill-rule="evenodd" fill-opacity="1" /><path clip-path="url(#clip720)" d="M135.593 1320.3 L153.95 1320.3 L153.95 1324.24 L139.876 1324.24 L139.876 1332.71 Q140.894 1332.36 141.913 1332.2 Q142.931 1332.02 143.95 1332.02 Q149.737 1332.02 153.116 1335.19 Q156.496 1338.36 156.496 1343.78 Q156.496 1349.35 153.024 1352.46 Q149.552 1355.54 143.232 1355.54 Q141.056 1355.54 138.788 1355.16 Q136.542 1354.79 134.135 1354.05 L134.135 1349.35 Q136.218 1350.49 138.441 1351.04 Q140.663 1351.6 143.14 1351.6 Q147.144 1351.6 149.482 1349.49 Q151.82 1347.39 151.82 1343.78 Q151.82 1340.16 149.482 1338.06 Q147.144 1335.95 143.14 1335.95 Q141.265 1335.95 139.39 1336.37 Q137.538 1336.79 135.593 1337.66 L135.593 1320.3 Z" fill="#000000" fill-rule="evenodd" fill-opacity="1" /><path clip-path="url(#clip720)" d="M99.3204 909.771 Q95.7093 909.771 93.8806 913.336 Q92.075 916.878 92.075 924.007 Q92.075 931.114 93.8806 934.679 Q95.7093 938.22 99.3204 938.22 Q102.955 938.22 104.76 934.679 Q106.589 931.114 106.589 924.007 Q106.589 916.878 104.76 913.336 Q102.955 909.771 99.3204 909.771 M99.3204 906.068 Q105.131 906.068 108.186 910.674 Q111.265 915.258 111.265 924.007 Q111.265 932.734 108.186 937.341 Q105.131 941.924 99.3204 941.924 Q93.5102 941.924 90.4315 937.341 Q87.376 932.734 87.376 924.007 Q87.376 915.258 90.4315 910.674 Q93.5102 906.068 99.3204 906.068 Z" fill="#000000" fill-rule="evenodd" fill-opacity="1" /><path clip-path="url(#clip720)" d="M119.482 935.373 L124.367 935.373 L124.367 941.253 L119.482 941.253 L119.482 935.373 Z" fill="#000000" fill-rule="evenodd" fill-opacity="1" /><path clip-path="url(#clip720)" d="M144.552 909.771 Q140.941 909.771 139.112 913.336 Q137.306 916.878 137.306 924.007 Q137.306 931.114 139.112 934.679 Q140.941 938.22 144.552 938.22 Q148.186 938.22 149.991 934.679 Q151.82 931.114 151.82 924.007 Q151.82 916.878 149.991 913.336 Q148.186 909.771 144.552 909.771 M144.552 906.068 Q150.362 906.068 153.417 910.674 Q156.496 915.258 156.496 924.007 Q156.496 932.734 153.417 937.341 Q150.362 941.924 144.552 941.924 Q138.741 941.924 135.663 937.341 Q132.607 932.734 132.607 924.007 Q132.607 915.258 135.663 910.674 Q138.741 906.068 144.552 906.068 Z" fill="#000000" fill-rule="evenodd" fill-opacity="1" /><path clip-path="url(#clip720)" d="M100.316 496.16 Q96.7047 496.16 94.876 499.725 Q93.0704 503.267 93.0704 510.396 Q93.0704 517.503 94.876 521.068 Q96.7047 524.609 100.316 524.609 Q103.95 524.609 105.756 521.068 Q107.584 517.503 107.584 510.396 Q107.584 503.267 105.756 499.725 Q103.95 496.16 100.316 496.16 M100.316 492.457 Q106.126 492.457 109.181 497.063 Q112.26 501.646 112.26 510.396 Q112.26 519.123 109.181 523.73 Q106.126 528.313 100.316 528.313 Q94.5056 528.313 91.4269 523.73 Q88.3714 519.123 88.3714 510.396 Q88.3714 501.646 91.4269 497.063 Q94.5056 492.457 100.316 492.457 Z" fill="#000000" fill-rule="evenodd" fill-opacity="1" /><path clip-path="url(#clip720)" d="M120.478 521.762 L125.362 521.762 L125.362 527.642 L120.478 527.642 L120.478 521.762 Z" fill="#000000" fill-rule="evenodd" fill-opacity="1" /><path clip-path="url(#clip720)" d="M135.593 493.082 L153.95 493.082 L153.95 497.017 L139.876 497.017 L139.876 505.489 Q140.894 505.142 141.913 504.98 Q142.931 504.795 143.95 504.795 Q149.737 504.795 153.116 507.966 Q156.496 511.137 156.496 516.554 Q156.496 522.132 153.024 525.234 Q149.552 528.313 143.232 528.313 Q141.056 528.313 138.788 527.943 Q136.542 527.572 134.135 526.831 L134.135 522.132 Q136.218 523.267 138.441 523.822 Q140.663 524.378 143.14 524.378 Q147.144 524.378 149.482 522.271 Q151.82 520.165 151.82 516.554 Q151.82 512.943 149.482 510.836 Q147.144 508.73 143.14 508.73 Q141.265 508.73 139.39 509.146 Q137.538 509.563 135.593 510.443 L135.593 493.082 Z" fill="#000000" fill-rule="evenodd" fill-opacity="1" /><path clip-path="url(#clip720)" d="M90.1306 110.095 L97.7695 110.095 L97.7695 83.7298 L89.4593 85.3965 L89.4593 81.1372 L97.7232 79.4706 L102.399 79.4706 L102.399 110.095 L110.038 110.095 L110.038 114.031 L90.1306 114.031 L90.1306 110.095 Z" fill="#000000" fill-rule="evenodd" fill-opacity="1" /><path clip-path="url(#clip720)" d="M119.482 108.151 L124.367 108.151 L124.367 114.031 L119.482 114.031 L119.482 108.151 Z" fill="#000000" fill-rule="evenodd" fill-opacity="1" /><path clip-path="url(#clip720)" d="M144.552 82.5493 Q140.941 82.5493 139.112 86.114 Q137.306 89.6557 137.306 96.7853 Q137.306 103.892 139.112 107.457 Q140.941 110.998 144.552 110.998 Q148.186 110.998 149.991 107.457 Q151.82 103.892 151.82 96.7853 Q151.82 89.6557 149.991 86.114 Q148.186 82.5493 144.552 82.5493 M144.552 78.8456 Q150.362 78.8456 153.417 83.452 Q156.496 88.0353 156.496 96.7853 Q156.496 105.512 153.417 110.119 Q150.362 114.702 144.552 114.702 Q138.741 114.702 135.663 110.119 Q132.607 105.512 132.607 96.7853 Q132.607 88.0353 135.663 83.452 Q138.741 78.8456 144.552 78.8456 Z" fill="#000000" fill-rule="evenodd" fill-opacity="1" /><polyline clip-path="url(#clip722)" style="stroke:#009af9; stroke-linecap:butt; stroke-linejoin:round; stroke-width:4; stroke-opacity:1; fill:none" points="
  265.984,923.973 271.613,923.828 277.242,923.395 282.871,922.679 288.5,921.685 340.549,900.094 392.597,858.672 444.646,801.223 496.694,731.891 559.252,639.209 
  621.81,543.98 674.702,467.179 727.594,397.935 785.049,334.551 842.505,285.469 895.474,253.492 948.443,234.237 1005.23,227.961 1062.02,238.223 1094.92,253.342 
  1127.81,276.892 1160.71,310.825 1193.61,357.588 1222.84,412.213 1252.08,481.368 1281.31,567.108 1310.55,671.068 1336.19,777.85 1361.82,898.817 1387.46,1032.27 
  1413.1,1174.78 1441.05,1333.94 1469,1486.72 1482.97,1556.44 1496.95,1618.99 1510.92,1672.12 1524.9,1713.46 1538.96,1740.7 1553.02,1751.15 1560.05,1749.38 
  1567.08,1742.59 1574.1,1730.56 1581.13,1713.1 1595.19,1661.25 1609.25,1586.29 1616.28,1540.13 1623.31,1488.3 1630.34,1430.98 1637.37,1368.42 1652.91,1213.24 
  1668.46,1039.23 1684,853.531 1699.54,665.318 1715.09,485.554 1730.63,326.482 1738.4,258.7 1746.17,200.863 1753.94,154.477 1761.72,120.935 1769.11,102.079 
  1776.51,96.8724 1783.9,106.014 1791.29,129.963 1798.69,168.911 1806.08,222.745 1813.48,291.024 1820.87,372.957 1828.27,467.388 1835.66,572.792 1843.06,687.277 
  1850.45,808.6 1865.24,1061.21 1880.03,1307.04 1887.72,1423.53 1895.41,1527.4 1903.1,1615.09 1910.78,1683.26 1914.63,1709.1 1918.47,1729.01 1922.32,1742.72 
  1926.16,1750 1930.01,1750.65 1933.85,1744.55 1937.7,1731.61 1941.54,1711.81 1945.38,1685.19 1949.23,1651.85 1953.07,1611.95 1956.92,1565.73 1960.76,1513.48 
  1964.61,1455.57 1968.45,1392.42 1972.29,1324.53 1979.98,1176.82 1987.67,1017.55 1995.36,852.64 2003.05,688.63 2009.52,556.322 2015.99,433.704 2022.47,324.858 
  2028.94,233.627 2032.17,195.717 2035.41,163.472 2038.65,137.238 2041.88,117.323 2045.12,103.986 2048.35,97.4387 2051.59,97.8359 2054.83,105.277 2058.06,119.802 
  2061.3,141.387 2064.54,169.946 2067.77,205.324 2071.01,247.304 2074.24,295.6 2077.48,349.858 2080.72,409.664 2087.19,543.938 2093.66,693.884 2100.13,854.124 
  2106.6,1018.61 2114.51,1215.68 2122.41,1397.13 2126.36,1478.24 2130.31,1551.03 2134.26,1614.2 2138.21,1666.56 2142.16,1707.06 2146.11,1734.83 2150.06,1749.19 
  2154.02,1749.67 2157.97,1736.04 2161.92,1708.29 2165.87,1666.68 2169.82,1611.72 2173.77,1544.18 2177.72,1465.06 2181.67,1375.64 2185.62,1277.41 2193.53,1061.45 
  2201.43,832.765 2209.33,608.782 2217.23,407.489 2221.18,320.769 2225.13,245.977 2229.08,184.857 2233.03,138.912 2236.75,110.648 2240.46,97.6182 2244.18,100.296 
  2247.89,118.861 2251.6,153.182 2255.32,202.812 2259.03,266.988 2262.75,344.631 2266.46,434.361 2270.17,534.515 2273.89,643.174 2277.6,758.192 2285.03,997.834 
  2292.46,1233.38 2296.17,1343.14 2299.89,1444.18 2303.6,1534.12 2307.31,1610.8 2311.03,1672.27 2314.74,1716.92 2318.46,1743.48 2322.17,1751.09 2325.88,1739.28 
  2329.6,1708.09 2333.31,1657.98 2337.03,1589.92 2340.74,1505.31 2344.45,1406.01 2348.17,1294.3 2351.88,1172.81 2357.83,965.241 2363.78,753.49 2369.73,551.605 
  2375.68,373.472 2378.66,297.367 2381.63,231.838 2384.61,178.143 2387.58,137.352 2390.56,110.326 2393.53,97.6936 2396.51,99.8349 2399.48,116.868 2402.46,148.64 
  2405.43,194.724 2408.41,254.42 2411.38,326.76 2414.36,410.522 2417.33,504.246 2420.31,606.256 2423.28,714.686 2429.23,942.602 2435.18,1170.61 2438.16,1279.01 
  2441.13,1380.71 2444.11,1473.61 2447.08,1555.73 2450.06,1625.29 2453.03,1680.74 2456.01,1720.8 2458.98,1744.46 2461.96,1751.07 2464.93,1740.32 2467.91,1712.26 
  2470.88,1667.31 2473.86,1606.26 2476.83,1530.27 2479.81,1440.84 2482.78,1339.81 2488.73,1111.61 2494.68,865.227 2500.63,622.549 2506.58,405.839 2509.56,313.779 
  2512.54,235.689 2515.51,173.547 2518.49,128.986 2521.46,103.242 2524.44,97.1197 2527.41,110.96 2530.39,144.622 2533.36,197.473 2536.34,268.399 2539.31,355.814 
  2542.29,457.694 2545.95,599.379 2549.61,754.074 2553.27,915.944 2556.94,1078.76 2560.6,1236.13 2564.26,1381.76 2567.93,1509.69 2571.59,1614.56 
  "/>
<path clip-path="url(#clip720)" d="
M2235.31 209.375 L2559.29 209.375 L2559.29 105.695 L2235.31 105.695  Z
  " fill="#ffffff" fill-rule="evenodd" fill-opacity="1"/>
<polyline clip-path="url(#clip720)" style="stroke:#000000; stroke-linecap:butt; stroke-linejoin:round; stroke-width:4; stroke-opacity:1; fill:none" points="
  2235.31,209.375 2559.29,209.375 2559.29,105.695 2235.31,105.695 2235.31,209.375 
  "/>
<polyline clip-path="url(#clip720)" style="stroke:#009af9; stroke-linecap:butt; stroke-linejoin:round; stroke-width:4; stroke-opacity:1; fill:none" points="
  2262.47,157.535 2425.4,157.535 
  "/>
<path clip-path="url(#clip720)" d="M2466.39 177.223 Q2464.59 181.852 2462.88 183.264 Q2461.16 184.676 2458.29 184.676 L2454.89 184.676 L2454.89 181.112 L2457.39 181.112 Q2459.15 181.112 2460.12 180.278 Q2461.09 179.445 2462.27 176.343 L2463.04 174.399 L2452.55 148.889 L2457.07 148.889 L2465.17 169.167 L2473.27 148.889 L2477.78 148.889 L2466.39 177.223 Z" fill="#000000" fill-rule="evenodd" fill-opacity="1" /><path clip-path="url(#clip720)" d="M2485.07 170.88 L2492.71 170.88 L2492.71 144.515 L2484.4 146.181 L2484.4 141.922 L2492.67 140.255 L2497.34 140.255 L2497.34 170.88 L2504.98 170.88 L2504.98 174.815 L2485.07 174.815 L2485.07 170.88 Z" fill="#000000" fill-rule="evenodd" fill-opacity="1" /></svg>
