<?xml version="1.0" encoding="utf-8"?>
<svg xmlns="http://www.w3.org/2000/svg" xmlns:xlink="http://www.w3.org/1999/xlink" width="672" height="480" viewBox="0 0 2688 1920">
<defs>
  <clipPath id="clip570">
    <rect x="0" y="0" width="2688" height="1920"/>
  </clipPath>
</defs>
<path clip-path="url(#clip570)" d="M0 1920 L2688 1920 L2688 0 L0 0  Z" fill="#ffffff" fill-rule="evenodd" fill-opacity="1"/>
<defs>
  <clipPath id="clip571">
    <rect x="537" y="0" width="1883" height="1883"/>
  </clipPath>
</defs>
<path clip-path="url(#clip570)" d="M196.816 1800.78 L2640.76 1800.78 L2640.76 47.2441 L196.816 47.2441  Z" fill="#ffffff" fill-rule="evenodd" fill-opacity="1"/>
<defs>
  <clipPath id="clip572">
    <rect x="196" y="47" width="2445" height="1755"/>
  </clipPath>
</defs>
<polyline clip-path="url(#clip572)" style="stroke:#000000; stroke-linecap:round; stroke-linejoin:round; stroke-width:2; stroke-opacity:0.1; fill:none" points="265.984,1800.78 265.984,47.2441 "/>
<polyline clip-path="url(#clip572)" style="stroke:#000000; stroke-linecap:round; stroke-linejoin:round; stroke-width:2; stroke-opacity:0.1; fill:none" points="999.881,1800.78 999.881,47.2441 "/>
<polyline clip-path="url(#clip572)" style="stroke:#000000; stroke-linecap:round; stroke-linejoin:round; stroke-width:2; stroke-opacity:0.1; fill:none" points="1733.78,1800.78 1733.78,47.2441 "/>
<polyline clip-path="url(#clip572)" style="stroke:#000000; stroke-linecap:round; stroke-linejoin:round; stroke-width:2; stroke-opacity:0.1; fill:none" points="2467.67,1800.78 2467.67,47.2441 "/>
<polyline clip-path="url(#clip570)" style="stroke:#000000; stroke-linecap:round; stroke-linejoin:round; stroke-width:4; stroke-opacity:1; fill:none" points="196.816,1800.78 2640.76,1800.78 "/>
<polyline clip-path="url(#clip570)" style="stroke:#000000; stroke-linecap:round; stroke-linejoin:round; stroke-width:4; stroke-opacity:1; fill:none" points="265.984,1800.78 265.984,1781.88 "/>
<polyline clip-path="url(#clip570)" style="stroke:#000000; stroke-linecap:round; stroke-linejoin:round; stroke-width:4; stroke-opacity:1; fill:none" points="999.881,1800.78 999.881,1781.88 "/>
<polyline clip-path="url(#clip570)" style="stroke:#000000; stroke-linecap:round; stroke-linejoin:round; stroke-width:4; stroke-opacity:1; fill:none" points="1733.78,1800.78 1733.78,1781.88 "/>
<polyline clip-path="url(#clip570)" style="stroke:#000000; stroke-linecap:round; stroke-linejoin:round; stroke-width:4; stroke-opacity:1; fill:none" points="2467.67,1800.78 2467.67,1781.88 "/>
<path clip-path="url(#clip570)" d="M265.984 1834 Q262.373 1834 260.544 1837.57 Q258.739 1841.11 258.739 1848.24 Q258.739 1855.34 260.544 1858.91 Q262.373 1862.45 265.984 1862.45 Q269.618 1862.45 271.424 1858.91 Q273.253 1855.34 273.253 1848.24 Q273.253 1841.11 271.424 1837.57 Q269.618 1834 265.984 1834 M265.984 1830.3 Q271.794 1830.3 274.85 1834.9 Q277.928 1839.49 277.928 1848.24 Q277.928 1856.96 274.85 1861.57 Q271.794 1866.15 265.984 1866.15 Q260.174 1866.15 257.095 1861.57 Q254.04 1856.96 254.04 1848.24 Q254.04 1839.49 257.095 1834.9 Q260.174 1830.3 265.984 1830.3 Z" fill="#000000" fill-rule="evenodd" fill-opacity="1" /><path clip-path="url(#clip570)" d="M990.263 1861.55 L997.901 1861.55 L997.901 1835.18 L989.591 1836.85 L989.591 1832.59 L997.855 1830.92 L1002.53 1830.92 L1002.53 1861.55 L1010.17 1861.55 L1010.17 1865.48 L990.263 1865.48 L990.263 1861.55 Z" fill="#000000" fill-rule="evenodd" fill-opacity="1" /><path clip-path="url(#clip570)" d="M1728.43 1861.55 L1744.75 1861.55 L1744.75 1865.48 L1722.8 1865.48 L1722.8 1861.55 Q1725.47 1858.79 1730.05 1854.16 Q1734.66 1849.51 1735.84 1848.17 Q1738.08 1845.65 1738.96 1843.91 Q1739.86 1842.15 1739.86 1840.46 Q1739.86 1837.71 1737.92 1835.97 Q1736 1834.23 1732.9 1834.23 Q1730.7 1834.23 1728.24 1835 Q1725.81 1835.76 1723.04 1837.31 L1723.04 1832.59 Q1725.86 1831.46 1728.31 1830.88 Q1730.77 1830.3 1732.8 1830.3 Q1738.18 1830.3 1741.37 1832.98 Q1744.56 1835.67 1744.56 1840.16 Q1744.56 1842.29 1743.75 1844.21 Q1742.97 1846.11 1740.86 1848.7 Q1740.28 1849.37 1737.18 1852.59 Q1734.08 1855.78 1728.43 1861.55 Z" fill="#000000" fill-rule="evenodd" fill-opacity="1" /><path clip-path="url(#clip570)" d="M2471.92 1846.85 Q2475.28 1847.57 2477.15 1849.84 Q2479.05 1852.1 2479.05 1855.44 Q2479.05 1860.55 2475.53 1863.35 Q2472.01 1866.15 2465.53 1866.15 Q2463.36 1866.15 2461.04 1865.71 Q2458.75 1865.3 2456.3 1864.44 L2456.3 1859.93 Q2458.24 1861.06 2460.56 1861.64 Q2462.87 1862.22 2465.39 1862.22 Q2469.79 1862.22 2472.08 1860.48 Q2474.4 1858.75 2474.4 1855.44 Q2474.4 1852.38 2472.25 1850.67 Q2470.12 1848.93 2466.3 1848.93 L2462.27 1848.93 L2462.27 1845.09 L2466.48 1845.09 Q2469.93 1845.09 2471.76 1843.72 Q2473.59 1842.34 2473.59 1839.74 Q2473.59 1837.08 2471.69 1835.67 Q2469.81 1834.23 2466.3 1834.23 Q2464.37 1834.23 2462.18 1834.65 Q2459.98 1835.07 2457.34 1835.95 L2457.34 1831.78 Q2460 1831.04 2462.31 1830.67 Q2464.65 1830.3 2466.71 1830.3 Q2472.04 1830.3 2475.14 1832.73 Q2478.24 1835.14 2478.24 1839.26 Q2478.24 1842.13 2476.6 1844.12 Q2474.95 1846.09 2471.92 1846.85 Z" fill="#000000" fill-rule="evenodd" fill-opacity="1" /><polyline clip-path="url(#clip572)" style="stroke:#000000; stroke-linecap:round; stroke-linejoin:round; stroke-width:2; stroke-opacity:0.1; fill:none" points="196.816,1751.2 2640.76,1751.2 "/>
<polyline clip-path="url(#clip572)" style="stroke:#000000; stroke-linecap:round; stroke-linejoin:round; stroke-width:2; stroke-opacity:0.1; fill:none" points="196.816,1337.62 2640.76,1337.62 "/>
<polyline clip-path="url(#clip572)" style="stroke:#000000; stroke-linecap:round; stroke-linejoin:round; stroke-width:2; stroke-opacity:0.1; fill:none" points="196.816,924.038 2640.76,924.038 "/>
<polyline clip-path="url(#clip572)" style="stroke:#000000; stroke-linecap:round; stroke-linejoin:round; stroke-width:2; stroke-opacity:0.1; fill:none" points="196.816,510.455 2640.76,510.455 "/>
<polyline clip-path="url(#clip572)" style="stroke:#000000; stroke-linecap:round; stroke-linejoin:round; stroke-width:2; stroke-opacity:0.1; fill:none" points="196.816,96.8724 2640.76,96.8724 "/>
<polyline clip-path="url(#clip570)" style="stroke:#000000; stroke-linecap:round; stroke-linejoin:round; stroke-width:4; stroke-opacity:1; fill:none" points="196.816,1800.78 196.816,47.2441 "/>
<polyline clip-path="url(#clip570)" style="stroke:#000000; stroke-linecap:round; stroke-linejoin:round; stroke-width:4; stroke-opacity:1; fill:none" points="196.816,1751.2 215.714,1751.2 "/>
<polyline clip-path="url(#clip570)" style="stroke:#000000; stroke-linecap:round; stroke-linejoin:round; stroke-width:4; stroke-opacity:1; fill:none" points="196.816,1337.62 215.714,1337.62 "/>
<polyline clip-path="url(#clip570)" style="stroke:#000000; stroke-linecap:round; stroke-linejoin:round; stroke-width:4; stroke-opacity:1; fill:none" points="196.816,924.038 215.714,924.038 "/>
<polyline clip-path="url(#clip570)" style="stroke:#000000; stroke-linecap:round; stroke-linejoin:round; stroke-width:4; stroke-opacity:1; fill:none" points="196.816,510.455 215.714,510.455 "/>
<polyline clip-path="url(#clip570)" style="stroke:#000000; stroke-linecap:round; stroke-linejoin:round; stroke-width:4; stroke-opacity:1; fill:none" points="196.816,96.8724 215.714,96.8724 "/>
<path clip-path="url(#clip570)" d="M49.5521 1751.65 L79.2279 1751.65 L79.2279 1755.59 L49.5521 1755.59 L49.5521 1751.65 Z" fill="#000000" fill-rule="evenodd" fill-opacity="1" /><path clip-path="url(#clip570)" d="M90.1306 1764.55 L97.7695 1764.55 L97.7695 1738.18 L89.4593 1739.85 L89.4593 1735.59 L97.7232 1733.92 L102.399 1733.92 L102.399 1764.55 L110.038 1764.55 L110.038 1768.48 L90.1306 1768.48 L90.1306 1764.55 Z" fill="#000000" fill-rule="evenodd" fill-opacity="1" /><path clip-path="url(#clip570)" d="M119.482 1762.6 L124.367 1762.6 L124.367 1768.48 L119.482 1768.48 L119.482 1762.6 Z" fill="#000000" fill-rule="evenodd" fill-opacity="1" /><path clip-path="url(#clip570)" d="M144.552 1737 Q140.941 1737 139.112 1740.57 Q137.306 1744.11 137.306 1751.24 Q137.306 1758.34 139.112 1761.91 Q140.941 1765.45 144.552 1765.45 Q148.186 1765.45 149.991 1761.91 Q151.82 1758.34 151.82 1751.24 Q151.82 1744.11 149.991 1740.57 Q148.186 1737 144.552 1737 M144.552 1733.3 Q150.362 1733.3 153.417 1737.9 Q156.496 1742.49 156.496 1751.24 Q156.496 1759.97 153.417 1764.57 Q150.362 1769.15 144.552 1769.15 Q138.741 1769.15 135.663 1764.57 Q132.607 1759.97 132.607 1751.24 Q132.607 1742.49 135.663 1737.9 Q138.741 1733.3 144.552 1733.3 Z" fill="#000000" fill-rule="evenodd" fill-opacity="1" /><path clip-path="url(#clip570)" d="M50.5475 1338.07 L80.2233 1338.07 L80.2233 1342.01 L50.5475 1342.01 L50.5475 1338.07 Z" fill="#000000" fill-rule="evenodd" fill-opacity="1" /><path clip-path="url(#clip570)" d="M100.316 1323.42 Q96.7047 1323.42 94.876 1326.98 Q93.0704 1330.53 93.0704 1337.66 Q93.0704 1344.76 94.876 1348.33 Q96.7047 1351.87 100.316 1351.87 Q103.95 1351.87 105.756 1348.33 Q107.584 1344.76 107.584 1337.66 Q107.584 1330.53 105.756 1326.98 Q103.95 1323.42 100.316 1323.42 M100.316 1319.72 Q106.126 1319.72 109.181 1324.32 Q112.26 1328.91 112.26 1337.66 Q112.26 1346.38 109.181 1350.99 Q106.126 1355.57 100.316 1355.57 Q94.5056 1355.57 91.4269 1350.99 Q88.3714 1346.38 88.3714 1337.66 Q88.3714 1328.91 91.4269 1324.32 Q94.5056 1319.72 100.316 1319.72 Z" fill="#000000" fill-rule="evenodd" fill-opacity="1" /><path clip-path="url(#clip570)" d="M120.478 1349.02 L125.362 1349.02 L125.362 1354.9 L120.478 1354.9 L120.478 1349.02 Z" fill="#000000" fill-rule="evenodd" fill-opacity="1" /><path clip-path="url(#clip570)" d="M135.593 1320.34 L153.95 1320.34 L153.95 1324.28 L139.876 1324.28 L139.876 1332.75 Q140.894 1332.4 141.913 1332.24 Q142.931 1332.05 143.95 1332.05 Q149.737 1332.05 153.116 1335.22 Q156.496 1338.4 156.496 1343.81 Q156.496 1349.39 153.024 1352.49 Q149.552 1355.57 143.232 1355.57 Q141.056 1355.57 138.788 1355.2 Q136.542 1354.83 134.135 1354.09 L134.135 1349.39 Q136.218 1350.53 138.441 1351.08 Q140.663 1351.64 143.14 1351.64 Q147.144 1351.64 149.482 1349.53 Q151.82 1347.42 151.82 1343.81 Q151.82 1340.2 149.482 1338.1 Q147.144 1335.99 143.14 1335.99 Q141.265 1335.99 139.39 1336.41 Q137.538 1336.82 135.593 1337.7 L135.593 1320.34 Z" fill="#000000" fill-rule="evenodd" fill-opacity="1" /><path clip-path="url(#clip570)" d="M99.3204 909.837 Q95.7093 909.837 93.8806 913.401 Q92.075 916.943 92.075 924.073 Q92.075 931.179 93.8806 934.744 Q95.7093 938.286 99.3204 938.286 Q102.955 938.286 104.76 934.744 Q106.589 931.179 106.589 924.073 Q106.589 916.943 104.76 913.401 Q102.955 909.837 99.3204 909.837 M99.3204 906.133 Q105.131 906.133 108.186 910.739 Q111.265 915.323 111.265 924.073 Q111.265 932.799 108.186 937.406 Q105.131 941.989 99.3204 941.989 Q93.5102 941.989 90.4315 937.406 Q87.376 932.799 87.376 924.073 Q87.376 915.323 90.4315 910.739 Q93.5102 906.133 99.3204 906.133 Z" fill="#000000" fill-rule="evenodd" fill-opacity="1" /><path clip-path="url(#clip570)" d="M119.482 935.438 L124.367 935.438 L124.367 941.318 L119.482 941.318 L119.482 935.438 Z" fill="#000000" fill-rule="evenodd" fill-opacity="1" /><path clip-path="url(#clip570)" d="M144.552 909.837 Q140.941 909.837 139.112 913.401 Q137.306 916.943 137.306 924.073 Q137.306 931.179 139.112 934.744 Q140.941 938.286 144.552 938.286 Q148.186 938.286 149.991 934.744 Q151.82 931.179 151.82 924.073 Q151.82 916.943 149.991 913.401 Q148.186 909.837 144.552 909.837 M144.552 906.133 Q150.362 906.133 153.417 910.739 Q156.496 915.323 156.496 924.073 Q156.496 932.799 153.417 937.406 Q150.362 941.989 144.552 941.989 Q138.741 941.989 135.663 937.406 Q132.607 932.799 132.607 924.073 Q132.607 915.323 135.663 910.739 Q138.741 906.133 144.552 906.133 Z" fill="#000000" fill-rule="evenodd" fill-opacity="1" /><path clip-path="url(#clip570)" d="M100.316 496.254 Q96.7047 496.254 94.876 499.819 Q93.0704 503.36 93.0704 510.49 Q93.0704 517.596 94.876 521.161 Q96.7047 524.703 100.316 524.703 Q103.95 524.703 105.756 521.161 Q107.584 517.596 107.584 510.49 Q107.584 503.36 105.756 499.819 Q103.95 496.254 100.316 496.254 M100.316 492.55 Q106.126 492.55 109.181 497.157 Q112.26 501.74 112.26 510.49 Q112.26 519.217 109.181 523.823 Q106.126 528.406 100.316 528.406 Q94.5056 528.406 91.4269 523.823 Q88.3714 519.217 88.3714 510.49 Q88.3714 501.74 91.4269 497.157 Q94.5056 492.55 100.316 492.55 Z" fill="#000000" fill-rule="evenodd" fill-opacity="1" /><path clip-path="url(#clip570)" d="M120.478 521.856 L125.362 521.856 L125.362 527.735 L120.478 527.735 L120.478 521.856 Z" fill="#000000" fill-rule="evenodd" fill-opacity="1" /><path clip-path="url(#clip570)" d="M135.593 493.175 L153.95 493.175 L153.95 497.11 L139.876 497.11 L139.876 505.583 Q140.894 505.235 141.913 505.073 Q142.931 504.888 143.95 504.888 Q149.737 504.888 153.116 508.059 Q156.496 511.231 156.496 516.647 Q156.496 522.226 153.024 525.328 Q149.552 528.406 143.232 528.406 Q141.056 528.406 138.788 528.036 Q136.542 527.666 134.135 526.925 L134.135 522.226 Q136.218 523.36 138.441 523.916 Q140.663 524.471 143.14 524.471 Q147.144 524.471 149.482 522.365 Q151.82 520.258 151.82 516.647 Q151.82 513.036 149.482 510.93 Q147.144 508.823 143.14 508.823 Q141.265 508.823 139.39 509.24 Q137.538 509.657 135.593 510.536 L135.593 493.175 Z" fill="#000000" fill-rule="evenodd" fill-opacity="1" /><path clip-path="url(#clip570)" d="M90.1306 110.217 L97.7695 110.217 L97.7695 83.8517 L89.4593 85.5183 L89.4593 81.2591 L97.7232 79.5924 L102.399 79.5924 L102.399 110.217 L110.038 110.217 L110.038 114.152 L90.1306 114.152 L90.1306 110.217 Z" fill="#000000" fill-rule="evenodd" fill-opacity="1" /><path clip-path="url(#clip570)" d="M119.482 108.273 L124.367 108.273 L124.367 114.152 L119.482 114.152 L119.482 108.273 Z" fill="#000000" fill-rule="evenodd" fill-opacity="1" /><path clip-path="url(#clip570)" d="M144.552 82.6711 Q140.941 82.6711 139.112 86.2359 Q137.306 89.7776 137.306 96.9072 Q137.306 104.014 139.112 107.578 Q140.941 111.12 144.552 111.12 Q148.186 111.12 149.991 107.578 Q151.82 104.014 151.82 96.9072 Q151.82 89.7776 149.991 86.2359 Q148.186 82.6711 144.552 82.6711 M144.552 78.9675 Q150.362 78.9675 153.417 83.5739 Q156.496 88.1572 156.496 96.9072 Q156.496 105.634 153.417 110.24 Q150.362 114.824 144.552 114.824 Q138.741 114.824 135.663 110.24 Q132.607 105.634 132.607 96.9072 Q132.607 88.1572 135.663 83.5739 Q138.741 78.9675 144.552 78.9675 Z" fill="#000000" fill-rule="evenodd" fill-opacity="1" /><polyline clip-path="url(#clip572)" style="stroke:#009af9; stroke-linecap:round; stroke-linejoin:round; stroke-width:4; stroke-opacity:1; fill:none" points="265.984,924.038 269.737,923.973 273.489,923.78 277.242,923.46 280.995,923.014 298.344,919.355 315.694,913.168 333.043,904.583 350.393,893.736 367.742,880.761 385.092,865.796 402.441,848.986 419.791,830.475 440.643,806.191 461.496,779.942 482.349,752.011 503.201,722.688 538.463,670.774 573.724,617.198 612.028,558.808 650.331,501.935 685.644,452.221 720.956,406.202 739.886,383.353 758.815,361.909 777.745,341.948 796.674,323.533 818.606,304.186 840.537,287.012 862.469,272.027 884.4,259.233 903.891,249.695 923.381,241.876 942.871,235.776 962.361,231.407 979.452,229.024 996.543,228.03 1013.63,228.479 1030.73,230.447 1049.36,234.441 1067.99,240.526 1086.63,248.915 1105.26,259.868 1124.01,273.786 1142.75,290.985 1161.5,311.887 1180.24,336.967 1190.6,352.813 1200.96,370.186 1211.33,389.182 1221.69,409.896 1232.05,432.424 1242.41,456.864 1252.78,483.308 1263.14,511.845 1273,541.015 1282.86,572.218 1292.72,605.509 1302.58,640.93 1312.44,678.509 1322.3,718.259 1332.16,760.172 1342.01,804.216 1352.27,852.21 1362.52,902.347 1372.77,954.487 1383.02,1008.45 1403.52,1120.86 1424.03,1237.07 1441.29,1335.33 1458.55,1431.18 1467.18,1477.24 1475.81,1521.46 1484.43,1563.37 1493.06,1602.47 1498.33,1624.72 1503.6,1645.61 1508.87,1665 1514.14,1682.76 1519.4,1698.77 1524.67,1712.9 1529.94,1725.01 1535.21,1734.98 1540.48,1742.68 1545.74,1747.99 1551.01,1750.78 1556.28,1750.94 1561.55,1748.36 1566.82,1742.94 1572.08,1734.58 1577.35,1723.19 1582.18,1710.05 1587,1694.25 1591.83,1675.76 1596.65,1654.56 1601.48,1630.62 1606.31,1603.94 1611.13,1574.53 1615.96,1542.4 1620.78,1507.6 1625.61,1470.18 1630.43,1430.2 1635.26,1387.75 1640.09,1342.93 1644.91,1295.87 1649.74,1246.7 1654.56,1195.59 1663.48,1096.67 1672.39,993.051 1681.3,886.248 1690.22,778.016 1699.13,670.307 1708.05,565.25 1712.5,514.423 1716.96,465.119 1721.42,417.64 1725.87,372.288 1730.39,328.827 1734.9,288.175 1739.42,250.642 1743.93,216.535 1748.45,186.15 1752.96,159.774 1755.22,148.175 1757.48,137.678 1759.73,128.315 1761.99,120.117 1764.25,113.111 1766.51,107.326 1768.76,102.786 1771.02,99.5156 1773.28,97.5377 1775.54,96.8724 1777.79,97.5385 1780.05,99.5524 1782.31,102.929 1784.57,107.679 1786.82,113.815 1789.08,121.342 1791.34,130.267 1793.6,140.591 1795.85,152.315 1798.11,165.436 1800.64,181.794 1803.17,199.887 1805.7,219.699 1808.23,241.209 1810.76,264.39 1813.29,289.21 1815.82,315.635 1818.35,343.623 1820.88,373.128 1823.41,404.099 1825.94,436.48 1828.47,470.209 1831,505.22 1833.53,541.442 1836.06,578.798 1838.59,617.206 1843.65,696.832 1848.71,779.576 1853.77,864.622 1858.83,951.09 1863.89,1038.04 1868.95,1124.5 1874.01,1209.42 1879.07,1291.77 1881.36,1327.94 1883.65,1363.27 1885.94,1397.65 1888.24,1430.98 1890.53,1463.17 1892.82,1494.12 1895.11,1523.73 1897.41,1551.92 1899.7,1578.58 1901.99,1603.63 1904.28,1626.98 1906.58,1648.56 1908.87,1668.27 1911.16,1686.05 1913.45,1701.82 1915.75,1715.52 1918.04,1727.08 1920.33,1736.44 1922.62,1743.55 1924.92,1748.37 1927.21,1750.85 1929.5,1750.96 1931.79,1748.67 1934.09,1743.96 1936.38,1736.82 1938.67,1727.24 1940.96,1715.23 1943.26,1700.78 1945.55,1683.92 1947.84,1664.66 1950.13,1643.06 1952.43,1619.13 1955.05,1588.97 1957.67,1555.92 1960.3,1520.09 1962.92,1481.59 1965.55,1440.57 1968.17,1397.15 1970.8,1351.51 1973.42,1303.81 1976.05,1254.24 1978.67,1203 1981.3,1150.3 1983.92,1096.35 1989.17,985.677 1994.42,872.937 1999.67,760.223 2004.92,649.711 2007.54,595.974 2010.17,543.623 2012.79,492.935 2015.42,444.186 2018.04,397.645 2020.67,353.577 2023.29,312.24 2025.92,273.881 2028.54,238.738 2031.17,207.033 2033.79,178.979 2036.42,154.768 2038.85,135.934 2041.28,120.673 2043.71,109.098 2046.14,101.304 2048.57,97.3712 2051,97.3606 2053.43,101.316 2055.86,109.262 2058.29,121.203 2060.72,137.126 2063.15,156.993 2065.58,180.75 2068.01,208.318 2070.44,239.6 2072.87,274.475 2075.3,312.803 2077.73,354.424 2080.16,399.153 2082.59,446.791 2085.02,497.115 2087.45,549.885 2089.88,604.845 2092.31,661.719 2094.74,720.219 2104.46,964.203 2114.19,1207.94 2116.58,1265.38 2118.98,1321.08 2121.37,1374.72 2123.77,1425.95 2126.17,1474.46 2128.56,1519.94 2130.96,1562.09 2133.35,1600.62 2135.75,1635.26 2138.15,1665.78 2139.34,1679.42 2140.54,1691.94 2141.74,1703.32 2142.94,1713.54 2144.13,1722.57 2145.33,1730.39 2146.53,1737 2147.73,1742.36 2148.93,1746.47 2150.12,1749.31 2151.32,1750.87 2152.52,1751.15 2153.72,1750.13 2154.92,1747.82 2156.11,1744.2 2157.31,1739.28 2158.51,1733.06 2159.71,1725.55 2160.91,1716.74 2162.1,1706.64 2163.3,1695.28 2164.5,1682.65 2165.7,1668.77 2166.9,1653.66 2168.09,1637.33 2169.29,1619.82 2170.49,1601.13 2171.69,1581.3 2172.89,1560.36 2174.08,1538.32 2175.28,1515.23 2176.48,1491.11 2178.88,1439.96 2181.27,1385.16 2183.67,1327.05 2186.06,1266.01 2188.46,1202.42 2190.86,1136.69 2195.51,1004.64 2200.16,869.616 2204.81,735.214 2209.47,605.12 2211.79,542.842 2214.12,483.016 2216.45,426.083 2218.77,372.474 2221.1,322.599 2223.42,276.848 2224.59,255.635 2225.75,235.589 2226.91,216.752 2228.08,199.162 2229.24,182.859 2230.4,167.877 2231.57,154.25 2232.73,142.01 2233.89,131.185 2235.06,121.801 2236.22,113.884 2237.38,107.453 2238.54,102.529 2239.71,99.1265 2240.87,97.2598 2242.03,96.9391 2243.2,98.1723 2244.36,100.964 2245.52,105.316 2246.69,111.227 2247.85,118.694 2249.01,127.708 2250.18,138.26 2251.34,150.337 2252.5,163.921 2253.67,178.994 2254.83,195.533 2255.99,213.513 2257.16,232.904 2258.32,253.676 2259.48,275.793 2260.64,299.219 2261.81,323.912 2262.97,349.83 2264.13,376.926 2265.3,405.152 2267.68,466.334 2270.07,531.57 2272.45,600.341 2274.84,672.09 2279.61,822.125 2284.37,976.614 2286.76,1053.86 2289.14,1130.18 2291.53,1204.9 2293.91,1277.32 2295.11,1312.46 2296.3,1346.77 2297.49,1380.17 2298.68,1412.59 2299.88,1443.93 2301.07,1474.14 2302.26,1503.12 2303.45,1530.81 2304.65,1557.15 2305.84,1582.05 2307.03,1605.46 2308.22,1627.31 2309.41,1647.55 2310.61,1666.13 2311.8,1682.98 2312.99,1698.07 2314.18,1711.35 2315.38,1722.78 2316.57,1732.32 2317.76,1739.94 2318.95,1745.62 2320.15,1749.34 2321.34,1751.07 2322.53,1750.8 2323.72,1748.53 2324.92,1744.25 2326.11,1737.96 2327.3,1729.67 2328.49,1719.4 2329.68,1707.15 2330.88,1692.94 2332.07,1676.82 2333.26,1658.8 2334.45,1638.93 2335.65,1617.24 2336.84,1593.78 2338.03,1568.6 2339.22,1541.77 2340.42,1513.33 2341.61,1483.36 2342.91,1448.84 2344.22,1412.66 2345.53,1374.93 2346.83,1335.74 2348.14,1295.22 2349.45,1253.48 2350.75,1210.65 2352.06,1166.86 2354.67,1076.92 2357.29,984.777 2359.9,891.567 2362.51,798.478 2365.12,706.708 2367.74,617.457 2369.04,574.148 2370.35,531.913 2371.66,490.894 2372.96,451.233 2374.27,413.066 2375.57,376.526 2376.88,341.744 2378.19,308.843 2379.49,277.942 2380.8,249.153 2382.11,222.584 2383.41,198.334 2384.72,176.496 2386.03,157.157 2387.33,140.392 2388.64,126.273 2389.94,114.858 2391.25,106.201 2392.56,100.343 2393.86,97.3192 2395.17,97.1519 2396.48,99.8555 2397.78,105.434 2399.09,113.881 2400.4,125.18 2401.7,139.304 2403.01,156.218 2404.31,175.874 2405.62,198.214 2406.93,223.173 2408.23,250.671 2409.54,280.623 2410.85,312.932 2412.15,347.493 2413.46,384.19 2414.77,422.901 2416.07,463.493 2417.38,505.827 2418.68,549.755 2419.99,595.125 2422.6,689.536 2425.22,787.708 2429.01,934.07 2432.81,1080.75 2434.71,1152.75 2436.6,1223.07 2438.5,1291.12 2440.4,1356.35 2442.3,1418.2 2444.19,1476.14 2445.14,1503.49 2446.09,1529.67 2447.04,1554.64 2447.99,1578.33 2448.94,1600.68 2449.89,1621.66 2450.84,1641.21 2451.78,1659.28 2452.73,1675.84 2453.68,1690.84 2454.63,1704.25 2455.58,1716.03 2456.53,1726.15 2457.48,1734.59 2458.43,1741.32 2459.38,1746.33 2460.32,1749.59 2461.27,1751.09 2462.22,1750.83 2463.17,1748.8 2464.12,1745 2465.07,1739.43 2466.02,1732.1 2466.97,1723.02 2467.92,1712.19 2468.86,1699.65 2469.81,1685.41 2470.76,1669.49 2471.71,1651.93 2472.66,1632.76 2473.61,1612.01 2474.56,1589.74 2475.51,1565.97 2476.46,1540.76 2477.4,1514.16 2478.35,1486.22 2479.3,1457.01 2480.25,1426.58 2481.2,1394.99 2482.15,1362.32 2483.1,1328.64 2484.05,1294.01 2485,1258.51 2485.94,1222.22 2489.74,1070.76 2493.53,913.317 2497.33,755.611 2501.13,603.479 2502.07,566.996 2503.02,531.311 2503.97,496.51 2504.92,462.678 2506.82,398.247 2508.72,338.658 2509.67,310.867 2510.61,284.507 2511.56,259.646 2512.51,236.347 2513.46,214.671 2514.41,194.676 2515.36,176.415 2516.31,159.938 2517.26,145.29 2518.21,132.512 2519.15,121.642 2520.1,112.711 2521.05,105.749 2522,100.777 2522.95,97.8137 2523.9,96.8738 2524.85,97.9654 2525.8,101.092 2526.74,106.253 2527.69,113.441 2528.64,122.644 2529.59,133.848 2530.54,147.028 2531.49,162.16 2532.44,179.211 2533.39,198.145 2534.34,218.919 2535.28,241.487 2536.23,265.798 2537.18,291.796 2538.13,319.421 2539.08,348.606 2540.03,379.283 2540.98,411.379 2541.93,444.815 2542.88,479.511 2543.82,515.381 2544.77,552.337 2545.72,590.287 2546.67,629.136 2549.79,761.75 2552.9,899.349 2556.01,1038.1 2559.13,1174.08 2560.69,1239.81 2562.24,1303.38 2563.8,1364.33 2565.36,1422.2 2566.92,1476.56 2568.47,1527 2570.03,1573.12 2571.59,1614.58 "/>
<path clip-path="url(#clip570)" d="M278.281 1742.33 L575.105 1742.33 L575.105 1638.65 L278.281 1638.65  Z" fill="#ffffff" fill-rule="evenodd" fill-opacity="1"/>
<polyline clip-path="url(#clip570)" style="stroke:#000000; stroke-linecap:round; stroke-linejoin:round; stroke-width:4; stroke-opacity:1; fill:none" points="278.281,1742.33 575.105,1742.33 575.105,1638.65 278.281,1638.65 278.281,1742.33 "/>
<polyline clip-path="url(#clip570)" style="stroke:#009af9; stroke-linecap:round; stroke-linejoin:round; stroke-width:4; stroke-opacity:1; fill:none" points="305.436,1690.49 468.365,1690.49 "/>
<path clip-path="url(#clip570)" d="M509.362 1710.18 Q507.557 1714.81 505.844 1716.22 Q504.131 1717.63 501.26 1717.63 L497.858 1717.63 L497.858 1714.06 L500.358 1714.06 Q502.117 1714.06 503.089 1713.23 Q504.061 1712.4 505.242 1709.3 L506.006 1707.35 L495.52 1681.84 L500.034 1681.84 L508.135 1702.12 L516.237 1681.84 L520.751 1681.84 L509.362 1710.18 Z" fill="#000000" fill-rule="evenodd" fill-opacity="1" /><path clip-path="url(#clip570)" d="M528.043 1703.83 L535.682 1703.83 L535.682 1677.47 L527.371 1679.13 L527.371 1674.87 L535.635 1673.21 L540.311 1673.21 L540.311 1703.83 L547.95 1703.83 L547.95 1707.77 L528.043 1707.77 L528.043 1703.83 Z" fill="#000000" fill-rule="evenodd" fill-opacity="1" /></svg>
