<?xml version="1.0" encoding="utf-8"?>
<svg xmlns="http://www.w3.org/2000/svg" xmlns:xlink="http://www.w3.org/1999/xlink" width="672" height="480" viewBox="0 0 2688 1920">
<defs>
  <clipPath id="clip400">
    <rect x="0" y="0" width="2688" height="1920"/>
  </clipPath>
</defs>
<path clip-path="url(#clip400)" d="M0 1920 L2688 1920 L2688 0 L0 0  Z" fill="#ffffff" fill-rule="evenodd" fill-opacity="1"/>
<defs>
  <clipPath id="clip401">
    <rect x="537" y="0" width="1883" height="1883"/>
  </clipPath>
</defs>
<path clip-path="url(#clip400)" d="M226.978 1800.78 L2640.76 1800.78 L2640.76 47.2441 L226.978 47.2441  Z" fill="#ffffff" fill-rule="evenodd" fill-opacity="1"/>
<defs>
  <clipPath id="clip402">
    <rect x="226" y="47" width="2415" height="1755"/>
  </clipPath>
</defs>
<polyline clip-path="url(#clip402)" style="stroke:#000000; stroke-linecap:round; stroke-linejoin:round; stroke-width:2; stroke-opacity:0.1; fill:none" points="295.292,1800.78 295.292,47.2441 "/>
<polyline clip-path="url(#clip402)" style="stroke:#000000; stroke-linecap:round; stroke-linejoin:round; stroke-width:2; stroke-opacity:0.1; fill:none" points="879.177,1800.78 879.177,47.2441 "/>
<polyline clip-path="url(#clip402)" style="stroke:#000000; stroke-linecap:round; stroke-linejoin:round; stroke-width:2; stroke-opacity:0.1; fill:none" points="1463.06,1800.78 1463.06,47.2441 "/>
<polyline clip-path="url(#clip402)" style="stroke:#000000; stroke-linecap:round; stroke-linejoin:round; stroke-width:2; stroke-opacity:0.1; fill:none" points="2046.95,1800.78 2046.95,47.2441 "/>
<polyline clip-path="url(#clip402)" style="stroke:#000000; stroke-linecap:round; stroke-linejoin:round; stroke-width:2; stroke-opacity:0.1; fill:none" points="2630.83,1800.78 2630.83,47.2441 "/>
<polyline clip-path="url(#clip400)" style="stroke:#000000; stroke-linecap:round; stroke-linejoin:round; stroke-width:4; stroke-opacity:1; fill:none" points="226.978,1800.78 2640.76,1800.78 "/>
<polyline clip-path="url(#clip400)" style="stroke:#000000; stroke-linecap:round; stroke-linejoin:round; stroke-width:4; stroke-opacity:1; fill:none" points="295.292,1800.78 295.292,1781.88 "/>
<polyline clip-path="url(#clip400)" style="stroke:#000000; stroke-linecap:round; stroke-linejoin:round; stroke-width:4; stroke-opacity:1; fill:none" points="879.177,1800.78 879.177,1781.88 "/>
<polyline clip-path="url(#clip400)" style="stroke:#000000; stroke-linecap:round; stroke-linejoin:round; stroke-width:4; stroke-opacity:1; fill:none" points="1463.06,1800.78 1463.06,1781.88 "/>
<polyline clip-path="url(#clip400)" style="stroke:#000000; stroke-linecap:round; stroke-linejoin:round; stroke-width:4; stroke-opacity:1; fill:none" points="2046.95,1800.78 2046.95,1781.88 "/>
<polyline clip-path="url(#clip400)" style="stroke:#000000; stroke-linecap:round; stroke-linejoin:round; stroke-width:4; stroke-opacity:1; fill:none" points="2630.83,1800.78 2630.83,1781.88 "/>
<path clip-path="url(#clip400)" d="M264.76 1848.65 L294.436 1848.65 L294.436 1852.59 L264.76 1852.59 L264.76 1848.65 Z" fill="#000000" fill-rule="evenodd" fill-opacity="1" /><path clip-path="url(#clip400)" d="M318.695 1846.85 Q322.051 1847.57 323.926 1849.84 Q325.825 1852.1 325.825 1855.44 Q325.825 1860.55 322.306 1863.35 Q318.788 1866.15 312.306 1866.15 Q310.13 1866.15 307.815 1865.71 Q305.524 1865.3 303.07 1864.44 L303.07 1859.93 Q305.015 1861.06 307.329 1861.64 Q309.644 1862.22 312.167 1862.22 Q316.565 1862.22 318.857 1860.48 Q321.172 1858.75 321.172 1855.44 Q321.172 1852.38 319.019 1850.67 Q316.889 1848.93 313.07 1848.93 L309.042 1848.93 L309.042 1845.09 L313.255 1845.09 Q316.704 1845.09 318.533 1843.72 Q320.362 1842.34 320.362 1839.74 Q320.362 1837.08 318.464 1835.67 Q316.589 1834.23 313.07 1834.23 Q311.149 1834.23 308.95 1834.65 Q306.751 1835.07 304.112 1835.95 L304.112 1831.78 Q306.774 1831.04 309.089 1830.67 Q311.427 1830.3 313.487 1830.3 Q318.811 1830.3 321.913 1832.73 Q325.014 1835.14 325.014 1839.26 Q325.014 1842.13 323.371 1844.12 Q321.727 1846.09 318.695 1846.85 Z" fill="#000000" fill-rule="evenodd" fill-opacity="1" /><path clip-path="url(#clip400)" d="M849.119 1848.65 L878.795 1848.65 L878.795 1852.59 L849.119 1852.59 L849.119 1848.65 Z" fill="#000000" fill-rule="evenodd" fill-opacity="1" /><path clip-path="url(#clip400)" d="M892.915 1861.55 L909.234 1861.55 L909.234 1865.48 L887.29 1865.48 L887.29 1861.55 Q889.952 1858.79 894.535 1854.16 Q899.142 1849.51 900.322 1848.17 Q902.568 1845.65 903.447 1843.91 Q904.35 1842.15 904.35 1840.46 Q904.35 1837.71 902.406 1835.97 Q900.484 1834.23 897.383 1834.23 Q895.184 1834.23 892.73 1835 Q890.299 1835.76 887.522 1837.31 L887.522 1832.59 Q890.346 1831.46 892.799 1830.88 Q895.253 1830.3 897.29 1830.3 Q902.66 1830.3 905.855 1832.98 Q909.049 1835.67 909.049 1840.16 Q909.049 1842.29 908.239 1844.21 Q907.452 1846.11 905.346 1848.7 Q904.767 1849.37 901.665 1852.59 Q898.563 1855.78 892.915 1861.55 Z" fill="#000000" fill-rule="evenodd" fill-opacity="1" /><path clip-path="url(#clip400)" d="M1432.82 1848.65 L1462.49 1848.65 L1462.49 1852.59 L1432.82 1852.59 L1432.82 1848.65 Z" fill="#000000" fill-rule="evenodd" fill-opacity="1" /><path clip-path="url(#clip400)" d="M1473.4 1861.55 L1481.04 1861.55 L1481.04 1835.18 L1472.73 1836.85 L1472.73 1832.59 L1480.99 1830.92 L1485.67 1830.92 L1485.67 1861.55 L1493.3 1861.55 L1493.3 1865.48 L1473.4 1865.48 L1473.4 1861.55 Z" fill="#000000" fill-rule="evenodd" fill-opacity="1" /><path clip-path="url(#clip400)" d="M2046.95 1834 Q2043.33 1834 2041.51 1837.57 Q2039.7 1841.11 2039.7 1848.24 Q2039.7 1855.34 2041.51 1858.91 Q2043.33 1862.45 2046.95 1862.45 Q2050.58 1862.45 2052.39 1858.91 Q2054.21 1855.34 2054.21 1848.24 Q2054.21 1841.11 2052.39 1837.57 Q2050.58 1834 2046.95 1834 M2046.95 1830.3 Q2052.76 1830.3 2055.81 1834.9 Q2058.89 1839.49 2058.89 1848.24 Q2058.89 1856.96 2055.81 1861.57 Q2052.76 1866.15 2046.95 1866.15 Q2041.14 1866.15 2038.06 1861.57 Q2035 1856.96 2035 1848.24 Q2035 1839.49 2038.06 1834.9 Q2041.14 1830.3 2046.95 1830.3 Z" fill="#000000" fill-rule="evenodd" fill-opacity="1" /><path clip-path="url(#clip400)" d="M2621.21 1861.55 L2628.85 1861.55 L2628.85 1835.18 L2620.54 1836.85 L2620.54 1832.59 L2628.8 1830.92 L2633.48 1830.92 L2633.48 1861.55 L2641.12 1861.55 L2641.12 1865.48 L2621.21 1865.48 L2621.21 1861.55 Z" fill="#000000" fill-rule="evenodd" fill-opacity="1" /><polyline clip-path="url(#clip402)" style="stroke:#000000; stroke-linecap:round; stroke-linejoin:round; stroke-width:2; stroke-opacity:0.1; fill:none" points="226.978,1693.68 2640.76,1693.68 "/>
<polyline clip-path="url(#clip402)" style="stroke:#000000; stroke-linecap:round; stroke-linejoin:round; stroke-width:2; stroke-opacity:0.1; fill:none" points="226.978,1454.23 2640.76,1454.23 "/>
<polyline clip-path="url(#clip402)" style="stroke:#000000; stroke-linecap:round; stroke-linejoin:round; stroke-width:2; stroke-opacity:0.1; fill:none" points="226.978,1214.78 2640.76,1214.78 "/>
<polyline clip-path="url(#clip402)" style="stroke:#000000; stroke-linecap:round; stroke-linejoin:round; stroke-width:2; stroke-opacity:0.1; fill:none" points="226.978,975.328 2640.76,975.328 "/>
<polyline clip-path="url(#clip402)" style="stroke:#000000; stroke-linecap:round; stroke-linejoin:round; stroke-width:2; stroke-opacity:0.1; fill:none" points="226.978,735.877 2640.76,735.877 "/>
<polyline clip-path="url(#clip402)" style="stroke:#000000; stroke-linecap:round; stroke-linejoin:round; stroke-width:2; stroke-opacity:0.1; fill:none" points="226.978,496.426 2640.76,496.426 "/>
<polyline clip-path="url(#clip402)" style="stroke:#000000; stroke-linecap:round; stroke-linejoin:round; stroke-width:2; stroke-opacity:0.1; fill:none" points="226.978,256.974 2640.76,256.974 "/>
<polyline clip-path="url(#clip400)" style="stroke:#000000; stroke-linecap:round; stroke-linejoin:round; stroke-width:4; stroke-opacity:1; fill:none" points="226.978,1800.78 226.978,47.2441 "/>
<polyline clip-path="url(#clip400)" style="stroke:#000000; stroke-linecap:round; stroke-linejoin:round; stroke-width:4; stroke-opacity:1; fill:none" points="226.978,1693.68 245.876,1693.68 "/>
<polyline clip-path="url(#clip400)" style="stroke:#000000; stroke-linecap:round; stroke-linejoin:round; stroke-width:4; stroke-opacity:1; fill:none" points="226.978,1454.23 245.876,1454.23 "/>
<polyline clip-path="url(#clip400)" style="stroke:#000000; stroke-linecap:round; stroke-linejoin:round; stroke-width:4; stroke-opacity:1; fill:none" points="226.978,1214.78 245.876,1214.78 "/>
<polyline clip-path="url(#clip400)" style="stroke:#000000; stroke-linecap:round; stroke-linejoin:round; stroke-width:4; stroke-opacity:1; fill:none" points="226.978,975.328 245.876,975.328 "/>
<polyline clip-path="url(#clip400)" style="stroke:#000000; stroke-linecap:round; stroke-linejoin:round; stroke-width:4; stroke-opacity:1; fill:none" points="226.978,735.877 245.876,735.877 "/>
<polyline clip-path="url(#clip400)" style="stroke:#000000; stroke-linecap:round; stroke-linejoin:round; stroke-width:4; stroke-opacity:1; fill:none" points="226.978,496.426 245.876,496.426 "/>
<polyline clip-path="url(#clip400)" style="stroke:#000000; stroke-linecap:round; stroke-linejoin:round; stroke-width:4; stroke-opacity:1; fill:none" points="226.978,256.974 245.876,256.974 "/>
<path clip-path="url(#clip400)" d="M50.5475 1694.13 L80.2233 1694.13 L80.2233 1698.07 L50.5475 1698.07 L50.5475 1694.13 Z" fill="#000000" fill-rule="evenodd" fill-opacity="1" /><path clip-path="url(#clip400)" d="M94.3436 1707.03 L110.663 1707.03 L110.663 1710.96 L88.7186 1710.96 L88.7186 1707.03 Q91.3806 1704.27 95.9639 1699.64 Q100.57 1694.99 101.751 1693.65 Q103.996 1691.12 104.876 1689.39 Q105.779 1687.63 105.779 1685.94 Q105.779 1683.18 103.834 1681.45 Q101.913 1679.71 98.8111 1679.71 Q96.6121 1679.71 94.1584 1680.48 Q91.7278 1681.24 88.9501 1682.79 L88.9501 1678.07 Q91.7741 1676.94 94.2278 1676.36 Q96.6815 1675.78 98.7185 1675.78 Q104.089 1675.78 107.283 1678.46 Q110.478 1681.15 110.478 1685.64 Q110.478 1687.77 109.668 1689.69 Q108.881 1691.59 106.774 1694.18 Q106.195 1694.85 103.094 1698.07 Q99.9917 1701.26 94.3436 1707.03 Z" fill="#000000" fill-rule="evenodd" fill-opacity="1" /><path clip-path="url(#clip400)" d="M124.505 1707.03 L140.825 1707.03 L140.825 1710.96 L118.88 1710.96 L118.88 1707.03 Q121.542 1704.27 126.126 1699.64 Q130.732 1694.99 131.913 1693.65 Q134.158 1691.12 135.038 1689.39 Q135.941 1687.63 135.941 1685.94 Q135.941 1683.18 133.996 1681.45 Q132.075 1679.71 128.973 1679.71 Q126.774 1679.71 124.32 1680.48 Q121.89 1681.24 119.112 1682.79 L119.112 1678.07 Q121.936 1676.94 124.39 1676.36 Q126.843 1675.78 128.88 1675.78 Q134.251 1675.78 137.445 1678.46 Q140.64 1681.15 140.64 1685.64 Q140.64 1687.77 139.829 1689.69 Q139.042 1691.59 136.936 1694.18 Q136.357 1694.85 133.255 1698.07 Q130.154 1701.26 124.505 1707.03 Z" fill="#000000" fill-rule="evenodd" fill-opacity="1" /><path clip-path="url(#clip400)" d="M150.64 1705.08 L155.524 1705.08 L155.524 1710.96 L150.64 1710.96 L150.64 1705.08 Z" fill="#000000" fill-rule="evenodd" fill-opacity="1" /><path clip-path="url(#clip400)" d="M165.755 1676.4 L184.112 1676.4 L184.112 1680.34 L170.038 1680.34 L170.038 1688.81 Q171.056 1688.46 172.075 1688.3 Q173.093 1688.12 174.112 1688.12 Q179.899 1688.12 183.278 1691.29 Q186.658 1694.46 186.658 1699.87 Q186.658 1705.45 183.186 1708.56 Q179.713 1711.63 173.394 1711.63 Q171.218 1711.63 168.95 1711.26 Q166.704 1710.89 164.297 1710.15 L164.297 1705.45 Q166.38 1706.59 168.602 1707.14 Q170.825 1707.7 173.301 1707.7 Q177.306 1707.7 179.644 1705.59 Q181.982 1703.49 181.982 1699.87 Q181.982 1696.26 179.644 1694.16 Q177.306 1692.05 173.301 1692.05 Q171.426 1692.05 169.551 1692.47 Q167.7 1692.88 165.755 1693.76 L165.755 1676.4 Z" fill="#000000" fill-rule="evenodd" fill-opacity="1" /><path clip-path="url(#clip400)" d="M49.5521 1454.68 L79.2279 1454.68 L79.2279 1458.62 L49.5521 1458.62 L49.5521 1454.68 Z" fill="#000000" fill-rule="evenodd" fill-opacity="1" /><path clip-path="url(#clip400)" d="M93.3482 1467.58 L109.668 1467.58 L109.668 1471.51 L87.7232 1471.51 L87.7232 1467.58 Q90.3852 1464.82 94.9685 1460.19 Q99.575 1455.54 100.756 1454.2 Q103.001 1451.67 103.881 1449.94 Q104.783 1448.18 104.783 1446.49 Q104.783 1443.73 102.839 1442 Q100.918 1440.26 97.8158 1440.26 Q95.6167 1440.26 93.163 1441.03 Q90.7325 1441.79 87.9547 1443.34 L87.9547 1438.62 Q90.7788 1437.48 93.2324 1436.9 Q95.6861 1436.33 97.7232 1436.33 Q103.094 1436.33 106.288 1439.01 Q109.482 1441.7 109.482 1446.19 Q109.482 1448.32 108.672 1450.24 Q107.885 1452.14 105.779 1454.73 Q105.2 1455.4 102.098 1458.62 Q98.9963 1461.81 93.3482 1467.58 Z" fill="#000000" fill-rule="evenodd" fill-opacity="1" /><path clip-path="url(#clip400)" d="M129.482 1440.03 Q125.871 1440.03 124.042 1443.59 Q122.237 1447.14 122.237 1454.27 Q122.237 1461.37 124.042 1464.94 Q125.871 1468.48 129.482 1468.48 Q133.116 1468.48 134.922 1464.94 Q136.751 1461.37 136.751 1454.27 Q136.751 1447.14 134.922 1443.59 Q133.116 1440.03 129.482 1440.03 M129.482 1436.33 Q135.292 1436.33 138.348 1440.93 Q141.427 1445.52 141.427 1454.27 Q141.427 1462.99 138.348 1467.6 Q135.292 1472.18 129.482 1472.18 Q123.672 1472.18 120.593 1467.6 Q117.538 1462.99 117.538 1454.27 Q117.538 1445.52 120.593 1440.93 Q123.672 1436.33 129.482 1436.33 Z" fill="#000000" fill-rule="evenodd" fill-opacity="1" /><path clip-path="url(#clip400)" d="M149.644 1465.63 L154.528 1465.63 L154.528 1471.51 L149.644 1471.51 L149.644 1465.63 Z" fill="#000000" fill-rule="evenodd" fill-opacity="1" /><path clip-path="url(#clip400)" d="M174.713 1440.03 Q171.102 1440.03 169.274 1443.59 Q167.468 1447.14 167.468 1454.27 Q167.468 1461.37 169.274 1464.94 Q171.102 1468.48 174.713 1468.48 Q178.348 1468.48 180.153 1464.94 Q181.982 1461.37 181.982 1454.27 Q181.982 1447.14 180.153 1443.59 Q178.348 1440.03 174.713 1440.03 M174.713 1436.33 Q180.524 1436.33 183.579 1440.93 Q186.658 1445.52 186.658 1454.27 Q186.658 1462.99 183.579 1467.6 Q180.524 1472.18 174.713 1472.18 Q168.903 1472.18 165.825 1467.6 Q162.769 1462.99 162.769 1454.27 Q162.769 1445.52 165.825 1440.93 Q168.903 1436.33 174.713 1436.33 Z" fill="#000000" fill-rule="evenodd" fill-opacity="1" /><path clip-path="url(#clip400)" d="M50.5475 1215.23 L80.2233 1215.23 L80.2233 1219.17 L50.5475 1219.17 L50.5475 1215.23 Z" fill="#000000" fill-rule="evenodd" fill-opacity="1" /><path clip-path="url(#clip400)" d="M91.126 1228.12 L98.7648 1228.12 L98.7648 1201.76 L90.4547 1203.43 L90.4547 1199.17 L98.7185 1197.5 L103.394 1197.5 L103.394 1228.12 L111.033 1228.12 L111.033 1232.06 L91.126 1232.06 L91.126 1228.12 Z" fill="#000000" fill-rule="evenodd" fill-opacity="1" /><path clip-path="url(#clip400)" d="M119.297 1197.5 L141.519 1197.5 L141.519 1199.49 L128.973 1232.06 L124.089 1232.06 L135.894 1201.44 L119.297 1201.44 L119.297 1197.5 Z" fill="#000000" fill-rule="evenodd" fill-opacity="1" /><path clip-path="url(#clip400)" d="M150.64 1226.18 L155.524 1226.18 L155.524 1232.06 L150.64 1232.06 L150.64 1226.18 Z" fill="#000000" fill-rule="evenodd" fill-opacity="1" /><path clip-path="url(#clip400)" d="M165.755 1197.5 L184.112 1197.5 L184.112 1201.44 L170.038 1201.44 L170.038 1209.91 Q171.056 1209.56 172.075 1209.4 Q173.093 1209.21 174.112 1209.21 Q179.899 1209.21 183.278 1212.38 Q186.658 1215.56 186.658 1220.97 Q186.658 1226.55 183.186 1229.65 Q179.713 1232.73 173.394 1232.73 Q171.218 1232.73 168.95 1232.36 Q166.704 1231.99 164.297 1231.25 L164.297 1226.55 Q166.38 1227.68 168.602 1228.24 Q170.825 1228.8 173.301 1228.8 Q177.306 1228.8 179.644 1226.69 Q181.982 1224.58 181.982 1220.97 Q181.982 1217.36 179.644 1215.25 Q177.306 1213.15 173.301 1213.15 Q171.426 1213.15 169.551 1213.56 Q167.7 1213.98 165.755 1214.86 L165.755 1197.5 Z" fill="#000000" fill-rule="evenodd" fill-opacity="1" /><path clip-path="url(#clip400)" d="M49.5521 975.78 L79.2279 975.78 L79.2279 979.715 L49.5521 979.715 L49.5521 975.78 Z" fill="#000000" fill-rule="evenodd" fill-opacity="1" /><path clip-path="url(#clip400)" d="M90.1306 988.673 L97.7695 988.673 L97.7695 962.308 L89.4593 963.974 L89.4593 959.715 L97.7232 958.048 L102.399 958.048 L102.399 988.673 L110.038 988.673 L110.038 992.608 L90.1306 992.608 L90.1306 988.673 Z" fill="#000000" fill-rule="evenodd" fill-opacity="1" /><path clip-path="url(#clip400)" d="M119.529 958.048 L137.885 958.048 L137.885 961.984 L123.811 961.984 L123.811 970.456 Q124.83 970.109 125.848 969.947 Q126.867 969.761 127.885 969.761 Q133.672 969.761 137.052 972.933 Q140.431 976.104 140.431 981.521 Q140.431 987.099 136.959 990.201 Q133.487 993.28 127.167 993.28 Q124.992 993.28 122.723 992.909 Q120.478 992.539 118.07 991.798 L118.07 987.099 Q120.154 988.233 122.376 988.789 Q124.598 989.345 127.075 989.345 Q131.079 989.345 133.417 987.238 Q135.755 985.132 135.755 981.521 Q135.755 977.909 133.417 975.803 Q131.079 973.697 127.075 973.697 Q125.2 973.697 123.325 974.113 Q121.473 974.53 119.529 975.409 L119.529 958.048 Z" fill="#000000" fill-rule="evenodd" fill-opacity="1" /><path clip-path="url(#clip400)" d="M149.644 986.729 L154.528 986.729 L154.528 992.608 L149.644 992.608 L149.644 986.729 Z" fill="#000000" fill-rule="evenodd" fill-opacity="1" /><path clip-path="url(#clip400)" d="M174.713 961.127 Q171.102 961.127 169.274 964.692 Q167.468 968.234 167.468 975.363 Q167.468 982.47 169.274 986.034 Q171.102 989.576 174.713 989.576 Q178.348 989.576 180.153 986.034 Q181.982 982.47 181.982 975.363 Q181.982 968.234 180.153 964.692 Q178.348 961.127 174.713 961.127 M174.713 957.423 Q180.524 957.423 183.579 962.03 Q186.658 966.613 186.658 975.363 Q186.658 984.09 183.579 988.696 Q180.524 993.28 174.713 993.28 Q168.903 993.28 165.825 988.696 Q162.769 984.09 162.769 975.363 Q162.769 966.613 165.825 962.03 Q168.903 957.423 174.713 957.423 Z" fill="#000000" fill-rule="evenodd" fill-opacity="1" /><path clip-path="url(#clip400)" d="M50.5475 736.328 L80.2233 736.328 L80.2233 740.264 L50.5475 740.264 L50.5475 736.328 Z" fill="#000000" fill-rule="evenodd" fill-opacity="1" /><path clip-path="url(#clip400)" d="M91.126 749.222 L98.7648 749.222 L98.7648 722.856 L90.4547 724.523 L90.4547 720.264 L98.7185 718.597 L103.394 718.597 L103.394 749.222 L111.033 749.222 L111.033 753.157 L91.126 753.157 L91.126 749.222 Z" fill="#000000" fill-rule="evenodd" fill-opacity="1" /><path clip-path="url(#clip400)" d="M124.505 749.222 L140.825 749.222 L140.825 753.157 L118.88 753.157 L118.88 749.222 Q121.542 746.467 126.126 741.838 Q130.732 737.185 131.913 735.842 Q134.158 733.319 135.038 731.583 Q135.941 729.824 135.941 728.134 Q135.941 725.379 133.996 723.643 Q132.075 721.907 128.973 721.907 Q126.774 721.907 124.32 722.671 Q121.89 723.435 119.112 724.986 L119.112 720.264 Q121.936 719.129 124.39 718.551 Q126.843 717.972 128.88 717.972 Q134.251 717.972 137.445 720.657 Q140.64 723.342 140.64 727.833 Q140.64 729.963 139.829 731.884 Q139.042 733.782 136.936 736.375 Q136.357 737.046 133.255 740.264 Q130.154 743.458 124.505 749.222 Z" fill="#000000" fill-rule="evenodd" fill-opacity="1" /><path clip-path="url(#clip400)" d="M150.64 747.277 L155.524 747.277 L155.524 753.157 L150.64 753.157 L150.64 747.277 Z" fill="#000000" fill-rule="evenodd" fill-opacity="1" /><path clip-path="url(#clip400)" d="M165.755 718.597 L184.112 718.597 L184.112 722.532 L170.038 722.532 L170.038 731.004 Q171.056 730.657 172.075 730.495 Q173.093 730.31 174.112 730.31 Q179.899 730.31 183.278 733.481 Q186.658 736.653 186.658 742.069 Q186.658 747.648 183.186 750.75 Q179.713 753.828 173.394 753.828 Q171.218 753.828 168.95 753.458 Q166.704 753.088 164.297 752.347 L164.297 747.648 Q166.38 748.782 168.602 749.338 Q170.825 749.893 173.301 749.893 Q177.306 749.893 179.644 747.787 Q181.982 745.68 181.982 742.069 Q181.982 738.458 179.644 736.352 Q177.306 734.245 173.301 734.245 Q171.426 734.245 169.551 734.662 Q167.7 735.078 165.755 735.958 L165.755 718.597 Z" fill="#000000" fill-rule="evenodd" fill-opacity="1" /><path clip-path="url(#clip400)" d="M49.5521 496.877 L79.2279 496.877 L79.2279 500.812 L49.5521 500.812 L49.5521 496.877 Z" fill="#000000" fill-rule="evenodd" fill-opacity="1" /><path clip-path="url(#clip400)" d="M90.1306 509.771 L97.7695 509.771 L97.7695 483.405 L89.4593 485.072 L89.4593 480.812 L97.7232 479.146 L102.399 479.146 L102.399 509.771 L110.038 509.771 L110.038 513.706 L90.1306 513.706 L90.1306 509.771 Z" fill="#000000" fill-rule="evenodd" fill-opacity="1" /><path clip-path="url(#clip400)" d="M129.482 482.224 Q125.871 482.224 124.042 485.789 Q122.237 489.331 122.237 496.46 Q122.237 503.567 124.042 507.132 Q125.871 510.673 129.482 510.673 Q133.116 510.673 134.922 507.132 Q136.751 503.567 136.751 496.46 Q136.751 489.331 134.922 485.789 Q133.116 482.224 129.482 482.224 M129.482 478.521 Q135.292 478.521 138.348 483.127 Q141.427 487.71 141.427 496.46 Q141.427 505.187 138.348 509.794 Q135.292 514.377 129.482 514.377 Q123.672 514.377 120.593 509.794 Q117.538 505.187 117.538 496.46 Q117.538 487.71 120.593 483.127 Q123.672 478.521 129.482 478.521 Z" fill="#000000" fill-rule="evenodd" fill-opacity="1" /><path clip-path="url(#clip400)" d="M149.644 507.826 L154.528 507.826 L154.528 513.706 L149.644 513.706 L149.644 507.826 Z" fill="#000000" fill-rule="evenodd" fill-opacity="1" /><path clip-path="url(#clip400)" d="M174.713 482.224 Q171.102 482.224 169.274 485.789 Q167.468 489.331 167.468 496.46 Q167.468 503.567 169.274 507.132 Q171.102 510.673 174.713 510.673 Q178.348 510.673 180.153 507.132 Q181.982 503.567 181.982 496.46 Q181.982 489.331 180.153 485.789 Q178.348 482.224 174.713 482.224 M174.713 478.521 Q180.524 478.521 183.579 483.127 Q186.658 487.71 186.658 496.46 Q186.658 505.187 183.579 509.794 Q180.524 514.377 174.713 514.377 Q168.903 514.377 165.825 509.794 Q162.769 505.187 162.769 496.46 Q162.769 487.71 165.825 483.127 Q168.903 478.521 174.713 478.521 Z" fill="#000000" fill-rule="evenodd" fill-opacity="1" /><path clip-path="url(#clip400)" d="M80.7094 257.426 L110.385 257.426 L110.385 261.361 L80.7094 261.361 L80.7094 257.426 Z" fill="#000000" fill-rule="evenodd" fill-opacity="1" /><path clip-path="url(#clip400)" d="M119.297 239.694 L141.519 239.694 L141.519 241.685 L128.973 274.254 L124.089 274.254 L135.894 243.629 L119.297 243.629 L119.297 239.694 Z" fill="#000000" fill-rule="evenodd" fill-opacity="1" /><path clip-path="url(#clip400)" d="M150.64 268.375 L155.524 268.375 L155.524 274.254 L150.64 274.254 L150.64 268.375 Z" fill="#000000" fill-rule="evenodd" fill-opacity="1" /><path clip-path="url(#clip400)" d="M165.755 239.694 L184.112 239.694 L184.112 243.629 L170.038 243.629 L170.038 252.102 Q171.056 251.754 172.075 251.592 Q173.093 251.407 174.112 251.407 Q179.899 251.407 183.278 254.578 Q186.658 257.75 186.658 263.166 Q186.658 268.745 183.186 271.847 Q179.713 274.926 173.394 274.926 Q171.218 274.926 168.95 274.555 Q166.704 274.185 164.297 273.444 L164.297 268.745 Q166.38 269.879 168.602 270.435 Q170.825 270.99 173.301 270.99 Q177.306 270.99 179.644 268.884 Q181.982 266.777 181.982 263.166 Q181.982 259.555 179.644 257.449 Q177.306 255.342 173.301 255.342 Q171.426 255.342 169.551 255.759 Q167.7 256.176 165.755 257.055 L165.755 239.694 Z" fill="#000000" fill-rule="evenodd" fill-opacity="1" /><polyline clip-path="url(#clip402)" style="stroke:#009af9; stroke-linecap:round; stroke-linejoin:round; stroke-width:4; stroke-opacity:1; fill:none" points="295.292,256.974 310.118,254.848 447.201,235.387 529.582,223.881 599.234,214.28 674.896,203.998 744.65,194.671 819.433,184.852 906.076,173.74 983.075,164.14 1050.6,155.964 1124.21,147.347 1198.27,139.037 1280.14,130.338 1358.04,122.628 1439.04,115.313 1507.23,109.823 1590.48,104.133 1666.73,100.127 1737.16,97.7171 1808.51,96.8724 1888.47,98.4061 1960.92,102.816 2002.4,107.032 2043.88,112.805 2082.28,119.846 2120.68,128.896 2158.55,140.262 2196.41,154.692 2214.79,163.052 2233.17,172.463 2251.55,183.079 2269.93,195.083 2288.77,209.064 2307.62,225.036 2326.46,243.368 2345.3,264.527 2355.62,277.526 2365.94,291.67 2376.27,307.099 2386.59,323.974 2396.91,342.488 2407.23,362.869 2417.55,385.385 2427.88,410.364 2435.37,430.274 2442.87,451.87 2450.37,475.362 2457.87,500.998 2465.36,529.068 2472.86,559.919 2480.36,593.967 2487.85,631.715 2491.6,652.163 2495.35,673.777 2499.1,696.655 2502.85,720.91 2506.6,746.666 2510.35,774.063 2514.09,803.259 2517.84,834.433 2521.59,867.789 2525.34,903.559 2529.09,942.01 2532.84,983.451 2536.59,1028.24 2540.34,1076.78 2542.21,1102.62 2544.08,1129.58 2545.96,1157.75 2547.83,1187.2 2549.37,1212.39 2550.91,1238.56 2552.45,1265.77 2553.98,1294.08 2555.52,1323.56 2557.06,1354.27 2558.6,1386.31 2560.14,1419.74 2561.67,1454.68 2563.21,1491.22 2564.75,1529.47 2566.29,1569.56 2567.83,1611.61 2569.37,1655.78 2570.9,1702.24 2572.44,1751.15 "/>
<path clip-path="url(#clip400)" d="M307.437 1742.33 L601.245 1742.33 L601.245 1638.65 L307.437 1638.65  Z" fill="#ffffff" fill-rule="evenodd" fill-opacity="1"/>
<polyline clip-path="url(#clip400)" style="stroke:#000000; stroke-linecap:round; stroke-linejoin:round; stroke-width:4; stroke-opacity:1; fill:none" points="307.437,1742.33 601.245,1742.33 601.245,1638.65 307.437,1638.65 307.437,1742.33 "/>
<polyline clip-path="url(#clip400)" style="stroke:#009af9; stroke-linecap:round; stroke-linejoin:round; stroke-width:4; stroke-opacity:1; fill:none" points="334.257,1690.49 495.175,1690.49 "/>
<path clip-path="url(#clip400)" d="M535.838 1710.18 Q534.032 1714.81 532.319 1716.22 Q530.606 1717.63 527.736 1717.63 L524.333 1717.63 L524.333 1714.06 L526.833 1714.06 Q528.592 1714.06 529.565 1713.23 Q530.537 1712.4 531.717 1709.3 L532.481 1707.35 L521.995 1681.84 L526.509 1681.84 L534.611 1702.12 L542.713 1681.84 L547.227 1681.84 L535.838 1710.18 Z" fill="#000000" fill-rule="evenodd" fill-opacity="1" /><path clip-path="url(#clip400)" d="M554.518 1703.83 L562.157 1703.83 L562.157 1677.47 L553.847 1679.13 L553.847 1674.87 L562.111 1673.21 L566.787 1673.21 L566.787 1703.83 L574.425 1703.83 L574.425 1707.77 L554.518 1707.77 L554.518 1703.83 Z" fill="#000000" fill-rule="evenodd" fill-opacity="1" /></svg>
