<?xml version="1.0" encoding="utf-8"?>
<svg xmlns="http://www.w3.org/2000/svg" xmlns:xlink="http://www.w3.org/1999/xlink" width="672" height="480" viewBox="0 0 2688 1920">
<defs>
  <clipPath id="clip210">
    <rect x="0" y="0" width="2688" height="1920"/>
  </clipPath>
</defs>
<path clip-path="url(#clip210)" d="
M0 1920 L2688 1920 L2688 0 L0 0  Z
  " fill="#ffffff" fill-rule="evenodd" fill-opacity="1"/>
<defs>
  <clipPath id="clip211">
    <rect x="537" y="0" width="1883" height="1883"/>
  </clipPath>
</defs>
<path clip-path="url(#clip210)" d="
M302.203 1800.78 L2640.76 1800.78 L2640.76 47.2441 L302.203 47.2441  Z
  " fill="#ffffff" fill-rule="evenodd" fill-opacity="1"/>
<defs>
  <clipPath id="clip212">
    <rect x="302" y="47" width="2340" height="1755"/>
  </clipPath>
</defs>
<polyline clip-path="url(#clip212)" style="stroke:#000000; stroke-linecap:butt; stroke-linejoin:round; stroke-width:2; stroke-opacity:0.1; fill:none" points="
  368.389,1800.78 368.389,47.2441 
  "/>
<polyline clip-path="url(#clip212)" style="stroke:#000000; stroke-linecap:butt; stroke-linejoin:round; stroke-width:2; stroke-opacity:0.1; fill:none" points="
  1070.64,1800.78 1070.64,47.2441 
  "/>
<polyline clip-path="url(#clip212)" style="stroke:#000000; stroke-linecap:butt; stroke-linejoin:round; stroke-width:2; stroke-opacity:0.1; fill:none" points="
  1772.89,1800.78 1772.89,47.2441 
  "/>
<polyline clip-path="url(#clip212)" style="stroke:#000000; stroke-linecap:butt; stroke-linejoin:round; stroke-width:2; stroke-opacity:0.1; fill:none" points="
  2475.14,1800.78 2475.14,47.2441 
  "/>
<polyline clip-path="url(#clip210)" style="stroke:#000000; stroke-linecap:butt; stroke-linejoin:round; stroke-width:4; stroke-opacity:1; fill:none" points="
  302.203,1800.78 2640.76,1800.78 
  "/>
<polyline clip-path="url(#clip210)" style="stroke:#000000; stroke-linecap:butt; stroke-linejoin:round; stroke-width:4; stroke-opacity:1; fill:none" points="
  368.389,1800.78 368.389,1781.88 
  "/>
<polyline clip-path="url(#clip210)" style="stroke:#000000; stroke-linecap:butt; stroke-linejoin:round; stroke-width:4; stroke-opacity:1; fill:none" points="
  1070.64,1800.78 1070.64,1781.88 
  "/>
<polyline clip-path="url(#clip210)" style="stroke:#000000; stroke-linecap:butt; stroke-linejoin:round; stroke-width:4; stroke-opacity:1; fill:none" points="
  1772.89,1800.78 1772.89,1781.88 
  "/>
<polyline clip-path="url(#clip210)" style="stroke:#000000; stroke-linecap:butt; stroke-linejoin:round; stroke-width:4; stroke-opacity:1; fill:none" points="
  2475.14,1800.78 2475.14,1781.88 
  "/>
<path clip-path="url(#clip210)" d="M345.773 1834 Q342.162 1834 340.333 1837.57 Q338.528 1841.11 338.528 1848.24 Q338.528 1855.34 340.333 1858.91 Q342.162 1862.45 345.773 1862.45 Q349.407 1862.45 351.213 1858.91 Q353.041 1855.34 353.041 1848.24 Q353.041 1841.11 351.213 1837.57 Q349.407 1834 345.773 1834 M345.773 1830.3 Q351.583 1830.3 354.639 1834.9 Q357.717 1839.49 357.717 1848.24 Q357.717 1856.96 354.639 1861.57 Q351.583 1866.15 345.773 1866.15 Q339.963 1866.15 336.884 1861.57 Q333.829 1856.96 333.829 1848.24 Q333.829 1839.49 336.884 1834.9 Q339.963 1830.3 345.773 1830.3 Z" fill="#000000" fill-rule="evenodd" fill-opacity="1" /><path clip-path="url(#clip210)" d="M365.935 1859.6 L370.819 1859.6 L370.819 1865.48 L365.935 1865.48 L365.935 1859.6 Z" fill="#000000" fill-rule="evenodd" fill-opacity="1" /><path clip-path="url(#clip210)" d="M391.004 1834 Q387.393 1834 385.564 1837.57 Q383.759 1841.11 383.759 1848.24 Q383.759 1855.34 385.564 1858.91 Q387.393 1862.45 391.004 1862.45 Q394.638 1862.45 396.444 1858.91 Q398.273 1855.34 398.273 1848.24 Q398.273 1841.11 396.444 1837.57 Q394.638 1834 391.004 1834 M391.004 1830.3 Q396.814 1830.3 399.87 1834.9 Q402.949 1839.49 402.949 1848.24 Q402.949 1856.96 399.87 1861.57 Q396.814 1866.15 391.004 1866.15 Q385.194 1866.15 382.115 1861.57 Q379.06 1856.96 379.06 1848.24 Q379.06 1839.49 382.115 1834.9 Q385.194 1830.3 391.004 1830.3 Z" fill="#000000" fill-rule="evenodd" fill-opacity="1" /><path clip-path="url(#clip210)" d="M1048.52 1834 Q1044.91 1834 1043.08 1837.57 Q1041.27 1841.11 1041.27 1848.24 Q1041.27 1855.34 1043.08 1858.91 Q1044.91 1862.45 1048.52 1862.45 Q1052.15 1862.45 1053.96 1858.91 Q1055.79 1855.34 1055.79 1848.24 Q1055.79 1841.11 1053.96 1837.57 Q1052.15 1834 1048.52 1834 M1048.52 1830.3 Q1054.33 1830.3 1057.39 1834.9 Q1060.46 1839.49 1060.46 1848.24 Q1060.46 1856.96 1057.39 1861.57 Q1054.33 1866.15 1048.52 1866.15 Q1042.71 1866.15 1039.63 1861.57 Q1036.58 1856.96 1036.58 1848.24 Q1036.58 1839.49 1039.63 1834.9 Q1042.71 1830.3 1048.52 1830.3 Z" fill="#000000" fill-rule="evenodd" fill-opacity="1" /><path clip-path="url(#clip210)" d="M1068.68 1859.6 L1073.57 1859.6 L1073.57 1865.48 L1068.68 1865.48 L1068.68 1859.6 Z" fill="#000000" fill-rule="evenodd" fill-opacity="1" /><path clip-path="url(#clip210)" d="M1083.8 1830.92 L1102.15 1830.92 L1102.15 1834.86 L1088.08 1834.86 L1088.08 1843.33 Q1089.1 1842.98 1090.12 1842.82 Q1091.14 1842.64 1092.15 1842.64 Q1097.94 1842.64 1101.32 1845.81 Q1104.7 1848.98 1104.7 1854.4 Q1104.7 1859.97 1101.23 1863.08 Q1097.76 1866.15 1091.44 1866.15 Q1089.26 1866.15 1086.99 1865.78 Q1084.75 1865.41 1082.34 1864.67 L1082.34 1859.97 Q1084.42 1861.11 1086.64 1861.66 Q1088.87 1862.22 1091.34 1862.22 Q1095.35 1862.22 1097.69 1860.11 Q1100.02 1858.01 1100.02 1854.4 Q1100.02 1850.78 1097.69 1848.68 Q1095.35 1846.57 1091.34 1846.57 Q1089.47 1846.57 1087.59 1846.99 Q1085.74 1847.4 1083.8 1848.28 L1083.8 1830.92 Z" fill="#000000" fill-rule="evenodd" fill-opacity="1" /><path clip-path="url(#clip210)" d="M1740.04 1861.55 L1747.68 1861.55 L1747.68 1835.18 L1739.37 1836.85 L1739.37 1832.59 L1747.63 1830.92 L1752.31 1830.92 L1752.31 1861.55 L1759.95 1861.55 L1759.95 1865.48 L1740.04 1865.48 L1740.04 1861.55 Z" fill="#000000" fill-rule="evenodd" fill-opacity="1" /><path clip-path="url(#clip210)" d="M1769.39 1859.6 L1774.28 1859.6 L1774.28 1865.48 L1769.39 1865.48 L1769.39 1859.6 Z" fill="#000000" fill-rule="evenodd" fill-opacity="1" /><path clip-path="url(#clip210)" d="M1794.46 1834 Q1790.85 1834 1789.02 1837.57 Q1787.22 1841.11 1787.22 1848.24 Q1787.22 1855.34 1789.02 1858.91 Q1790.85 1862.45 1794.46 1862.45 Q1798.1 1862.45 1799.9 1858.91 Q1801.73 1855.34 1801.73 1848.24 Q1801.73 1841.11 1799.9 1837.57 Q1798.1 1834 1794.46 1834 M1794.46 1830.3 Q1800.27 1830.3 1803.33 1834.9 Q1806.41 1839.49 1806.41 1848.24 Q1806.41 1856.96 1803.33 1861.57 Q1800.27 1866.15 1794.46 1866.15 Q1788.65 1866.15 1785.57 1861.57 Q1782.52 1856.96 1782.52 1848.24 Q1782.52 1839.49 1785.57 1834.9 Q1788.65 1830.3 1794.46 1830.3 Z" fill="#000000" fill-rule="evenodd" fill-opacity="1" /><path clip-path="url(#clip210)" d="M2442.79 1861.55 L2450.43 1861.55 L2450.43 1835.18 L2442.12 1836.85 L2442.12 1832.59 L2450.38 1830.92 L2455.06 1830.92 L2455.06 1861.55 L2462.7 1861.55 L2462.7 1865.48 L2442.79 1865.48 L2442.79 1861.55 Z" fill="#000000" fill-rule="evenodd" fill-opacity="1" /><path clip-path="url(#clip210)" d="M2472.14 1859.6 L2477.02 1859.6 L2477.02 1865.48 L2472.14 1865.48 L2472.14 1859.6 Z" fill="#000000" fill-rule="evenodd" fill-opacity="1" /><path clip-path="url(#clip210)" d="M2487.26 1830.92 L2505.61 1830.92 L2505.61 1834.86 L2491.54 1834.86 L2491.54 1843.33 Q2492.56 1842.98 2493.57 1842.82 Q2494.59 1842.64 2495.61 1842.64 Q2501.4 1842.64 2504.78 1845.81 Q2508.16 1848.98 2508.16 1854.4 Q2508.16 1859.97 2504.69 1863.08 Q2501.21 1866.15 2494.89 1866.15 Q2492.72 1866.15 2490.45 1865.78 Q2488.2 1865.41 2485.8 1864.67 L2485.8 1859.97 Q2487.88 1861.11 2490.1 1861.66 Q2492.32 1862.22 2494.8 1862.22 Q2498.81 1862.22 2501.14 1860.11 Q2503.48 1858.01 2503.48 1854.4 Q2503.48 1850.78 2501.14 1848.68 Q2498.81 1846.57 2494.8 1846.57 Q2492.93 1846.57 2491.05 1846.99 Q2489.2 1847.4 2487.26 1848.28 L2487.26 1830.92 Z" fill="#000000" fill-rule="evenodd" fill-opacity="1" /><polyline clip-path="url(#clip212)" style="stroke:#000000; stroke-linecap:butt; stroke-linejoin:round; stroke-width:2; stroke-opacity:0.1; fill:none" points="
  302.203,1751.15 2640.76,1751.15 
  "/>
<polyline clip-path="url(#clip212)" style="stroke:#000000; stroke-linecap:butt; stroke-linejoin:round; stroke-width:2; stroke-opacity:0.1; fill:none" points="
  302.203,1345.97 2640.76,1345.97 
  "/>
<polyline clip-path="url(#clip212)" style="stroke:#000000; stroke-linecap:butt; stroke-linejoin:round; stroke-width:2; stroke-opacity:0.1; fill:none" points="
  302.203,940.788 2640.76,940.788 
  "/>
<polyline clip-path="url(#clip212)" style="stroke:#000000; stroke-linecap:butt; stroke-linejoin:round; stroke-width:2; stroke-opacity:0.1; fill:none" points="
  302.203,535.607 2640.76,535.607 
  "/>
<polyline clip-path="url(#clip212)" style="stroke:#000000; stroke-linecap:butt; stroke-linejoin:round; stroke-width:2; stroke-opacity:0.1; fill:none" points="
  302.203,130.425 2640.76,130.425 
  "/>
<polyline clip-path="url(#clip210)" style="stroke:#000000; stroke-linecap:butt; stroke-linejoin:round; stroke-width:4; stroke-opacity:1; fill:none" points="
  302.203,1800.78 302.203,47.2441 
  "/>
<polyline clip-path="url(#clip210)" style="stroke:#000000; stroke-linecap:butt; stroke-linejoin:round; stroke-width:4; stroke-opacity:1; fill:none" points="
  302.203,1751.15 321.101,1751.15 
  "/>
<polyline clip-path="url(#clip210)" style="stroke:#000000; stroke-linecap:butt; stroke-linejoin:round; stroke-width:4; stroke-opacity:1; fill:none" points="
  302.203,1345.97 321.101,1345.97 
  "/>
<polyline clip-path="url(#clip210)" style="stroke:#000000; stroke-linecap:butt; stroke-linejoin:round; stroke-width:4; stroke-opacity:1; fill:none" points="
  302.203,940.788 321.101,940.788 
  "/>
<polyline clip-path="url(#clip210)" style="stroke:#000000; stroke-linecap:butt; stroke-linejoin:round; stroke-width:4; stroke-opacity:1; fill:none" points="
  302.203,535.607 321.101,535.607 
  "/>
<polyline clip-path="url(#clip210)" style="stroke:#000000; stroke-linecap:butt; stroke-linejoin:round; stroke-width:4; stroke-opacity:1; fill:none" points="
  302.203,130.425 321.101,130.425 
  "/>
<path clip-path="url(#clip210)" d="M249.939 1736.95 Q246.328 1736.95 244.499 1740.51 Q242.693 1744.06 242.693 1751.19 Q242.693 1758.29 244.499 1761.86 Q246.328 1765.4 249.939 1765.4 Q253.573 1765.4 255.379 1761.86 Q257.207 1758.29 257.207 1751.19 Q257.207 1744.06 255.379 1740.51 Q253.573 1736.95 249.939 1736.95 M249.939 1733.25 Q255.749 1733.25 258.804 1737.85 Q261.883 1742.44 261.883 1751.19 Q261.883 1759.91 258.804 1764.52 Q255.749 1769.1 249.939 1769.1 Q244.129 1769.1 241.05 1764.52 Q237.994 1759.91 237.994 1751.19 Q237.994 1742.44 241.05 1737.85 Q244.129 1733.25 249.939 1733.25 Z" fill="#000000" fill-rule="evenodd" fill-opacity="1" /><path clip-path="url(#clip210)" d="M56.3345 1365.76 L72.6539 1365.76 L72.6539 1369.7 L50.7095 1369.7 L50.7095 1365.76 Q53.3715 1363.01 57.9549 1358.38 Q62.5613 1353.73 63.7419 1352.38 Q65.9872 1349.86 66.8668 1348.12 Q67.7696 1346.36 67.7696 1344.67 Q67.7696 1341.92 65.8252 1340.18 Q63.9039 1338.45 60.8021 1338.45 Q58.603 1338.45 56.1493 1339.21 Q53.7188 1339.98 50.941 1341.53 L50.941 1336.8 Q53.7651 1335.67 56.2188 1335.09 Q58.6724 1334.51 60.7095 1334.51 Q66.0798 1334.51 69.2742 1337.2 Q72.4687 1339.88 72.4687 1344.37 Q72.4687 1346.5 71.6585 1348.42 Q70.8715 1350.32 68.765 1352.91 Q68.1863 1353.59 65.0845 1356.8 Q61.9826 1360 56.3345 1365.76 Z" fill="#000000" fill-rule="evenodd" fill-opacity="1" /><path clip-path="url(#clip210)" d="M82.4686 1363.82 L87.3528 1363.82 L87.3528 1369.7 L82.4686 1369.7 L82.4686 1363.82 Z" fill="#000000" fill-rule="evenodd" fill-opacity="1" /><path clip-path="url(#clip210)" d="M107.538 1338.22 Q103.927 1338.22 102.098 1341.78 Q100.293 1345.32 100.293 1352.45 Q100.293 1359.56 102.098 1363.12 Q103.927 1366.66 107.538 1366.66 Q111.172 1366.66 112.978 1363.12 Q114.806 1359.56 114.806 1352.45 Q114.806 1345.32 112.978 1341.78 Q111.172 1338.22 107.538 1338.22 M107.538 1334.51 Q113.348 1334.51 116.404 1339.12 Q119.482 1343.7 119.482 1352.45 Q119.482 1361.18 116.404 1365.79 Q113.348 1370.37 107.538 1370.37 Q101.728 1370.37 98.6491 1365.79 Q95.5935 1361.18 95.5935 1352.45 Q95.5935 1343.7 98.6491 1339.12 Q101.728 1334.51 107.538 1334.51 Z" fill="#000000" fill-rule="evenodd" fill-opacity="1" /><path clip-path="url(#clip210)" d="M155.871 1344.23 L145.292 1354.86 L155.871 1365.44 L153.116 1368.24 L142.491 1357.61 L131.866 1368.24 L129.135 1365.44 L139.691 1354.86 L129.135 1344.23 L131.866 1341.43 L142.491 1352.06 L153.116 1341.43 L155.871 1344.23 Z" fill="#000000" fill-rule="evenodd" fill-opacity="1" /><path clip-path="url(#clip210)" d="M168.232 1365.76 L175.871 1365.76 L175.871 1339.4 L167.561 1341.06 L167.561 1336.8 L175.825 1335.14 L180.5 1335.14 L180.5 1365.76 L188.139 1365.76 L188.139 1369.7 L168.232 1369.7 L168.232 1365.76 Z" fill="#000000" fill-rule="evenodd" fill-opacity="1" /><path clip-path="url(#clip210)" d="M207.584 1338.22 Q203.973 1338.22 202.144 1341.78 Q200.338 1345.32 200.338 1352.45 Q200.338 1359.56 202.144 1363.12 Q203.973 1366.66 207.584 1366.66 Q211.218 1366.66 213.023 1363.12 Q214.852 1359.56 214.852 1352.45 Q214.852 1345.32 213.023 1341.78 Q211.218 1338.22 207.584 1338.22 M207.584 1334.51 Q213.394 1334.51 216.449 1339.12 Q219.528 1343.7 219.528 1352.45 Q219.528 1361.18 216.449 1365.79 Q213.394 1370.37 207.584 1370.37 Q201.774 1370.37 198.695 1365.79 Q195.639 1361.18 195.639 1352.45 Q195.639 1343.7 198.695 1339.12 Q201.774 1334.51 207.584 1334.51 Z" fill="#000000" fill-rule="evenodd" fill-opacity="1" /><path clip-path="url(#clip210)" d="M220.073 1339.09 L226.28 1339.09 L226.28 1317.67 L219.528 1319.02 L219.528 1315.56 L226.242 1314.21 L230.042 1314.21 L230.042 1339.09 L236.248 1339.09 L236.248 1342.29 L220.073 1342.29 L220.073 1339.09 Z" fill="#000000" fill-rule="evenodd" fill-opacity="1" /><path clip-path="url(#clip210)" d="M252.517 1326.73 Q249.959 1326.73 248.454 1328.48 Q246.969 1330.23 246.969 1333.28 Q246.969 1336.31 248.454 1338.07 Q249.959 1339.82 252.517 1339.82 Q255.075 1339.82 256.561 1338.07 Q258.065 1336.31 258.065 1333.28 Q258.065 1330.23 256.561 1328.48 Q255.075 1326.73 252.517 1326.73 M260.059 1314.83 L260.059 1318.29 Q258.629 1317.61 257.162 1317.25 Q255.714 1316.9 254.285 1316.9 Q250.523 1316.9 248.53 1319.44 Q246.555 1321.97 246.273 1327.11 Q247.382 1325.47 249.056 1324.61 Q250.73 1323.72 252.743 1323.72 Q256.974 1323.72 259.419 1326.3 Q261.883 1328.86 261.883 1333.28 Q261.883 1337.6 259.325 1340.22 Q256.767 1342.83 252.517 1342.83 Q247.646 1342.83 245.069 1339.11 Q242.492 1335.37 242.492 1328.27 Q242.492 1321.62 245.652 1317.67 Q248.812 1313.7 254.134 1313.7 Q255.564 1313.7 257.012 1313.98 Q258.479 1314.26 260.059 1314.83 Z" fill="#000000" fill-rule="evenodd" fill-opacity="1" /><path clip-path="url(#clip210)" d="M65.1539 934.03 L53.3484 952.479 L65.1539 952.479 L65.1539 934.03 M63.927 929.956 L69.8066 929.956 L69.8066 952.479 L74.7372 952.479 L74.7372 956.368 L69.8066 956.368 L69.8066 964.516 L65.1539 964.516 L65.1539 956.368 L49.5521 956.368 L49.5521 951.854 L63.927 929.956 Z" fill="#000000" fill-rule="evenodd" fill-opacity="1" /><path clip-path="url(#clip210)" d="M82.4686 958.636 L87.3528 958.636 L87.3528 964.516 L82.4686 964.516 L82.4686 958.636 Z" fill="#000000" fill-rule="evenodd" fill-opacity="1" /><path clip-path="url(#clip210)" d="M107.538 933.034 Q103.927 933.034 102.098 936.599 Q100.293 940.141 100.293 947.271 Q100.293 954.377 102.098 957.942 Q103.927 961.483 107.538 961.483 Q111.172 961.483 112.978 957.942 Q114.806 954.377 114.806 947.271 Q114.806 940.141 112.978 936.599 Q111.172 933.034 107.538 933.034 M107.538 929.331 Q113.348 929.331 116.404 933.937 Q119.482 938.521 119.482 947.271 Q119.482 955.997 116.404 960.604 Q113.348 965.187 107.538 965.187 Q101.728 965.187 98.6491 960.604 Q95.5935 955.997 95.5935 947.271 Q95.5935 938.521 98.6491 933.937 Q101.728 929.331 107.538 929.331 Z" fill="#000000" fill-rule="evenodd" fill-opacity="1" /><path clip-path="url(#clip210)" d="M155.871 939.053 L145.292 949.678 L155.871 960.257 L153.116 963.057 L142.491 952.433 L131.866 963.057 L129.135 960.257 L139.691 949.678 L129.135 939.053 L131.866 936.252 L142.491 946.877 L153.116 936.252 L155.871 939.053 Z" fill="#000000" fill-rule="evenodd" fill-opacity="1" /><path clip-path="url(#clip210)" d="M168.232 960.581 L175.871 960.581 L175.871 934.215 L167.561 935.882 L167.561 931.622 L175.825 929.956 L180.5 929.956 L180.5 960.581 L188.139 960.581 L188.139 964.516 L168.232 964.516 L168.232 960.581 Z" fill="#000000" fill-rule="evenodd" fill-opacity="1" /><path clip-path="url(#clip210)" d="M207.584 933.034 Q203.973 933.034 202.144 936.599 Q200.338 940.141 200.338 947.271 Q200.338 954.377 202.144 957.942 Q203.973 961.483 207.584 961.483 Q211.218 961.483 213.023 957.942 Q214.852 954.377 214.852 947.271 Q214.852 940.141 213.023 936.599 Q211.218 933.034 207.584 933.034 M207.584 929.331 Q213.394 929.331 216.449 933.937 Q219.528 938.521 219.528 947.271 Q219.528 955.997 216.449 960.604 Q213.394 965.187 207.584 965.187 Q201.774 965.187 198.695 960.604 Q195.639 955.997 195.639 947.271 Q195.639 938.521 198.695 933.937 Q201.774 929.331 207.584 929.331 Z" fill="#000000" fill-rule="evenodd" fill-opacity="1" /><path clip-path="url(#clip210)" d="M220.073 933.908 L226.28 933.908 L226.28 912.486 L219.528 913.84 L219.528 910.38 L226.242 909.025 L230.042 909.025 L230.042 933.908 L236.248 933.908 L236.248 937.105 L220.073 937.105 L220.073 933.908 Z" fill="#000000" fill-rule="evenodd" fill-opacity="1" /><path clip-path="url(#clip210)" d="M252.517 921.551 Q249.959 921.551 248.454 923.3 Q246.969 925.05 246.969 928.096 Q246.969 931.125 248.454 932.892 Q249.959 934.642 252.517 934.642 Q255.075 934.642 256.561 932.892 Q258.065 931.125 258.065 928.096 Q258.065 925.05 256.561 923.3 Q255.075 921.551 252.517 921.551 M260.059 909.646 L260.059 913.107 Q258.629 912.43 257.162 912.072 Q255.714 911.715 254.285 911.715 Q250.523 911.715 248.53 914.254 Q246.555 916.793 246.273 921.928 Q247.382 920.291 249.056 919.426 Q250.73 918.542 252.743 918.542 Q256.974 918.542 259.419 921.119 Q261.883 923.677 261.883 928.096 Q261.883 932.422 259.325 935.037 Q256.767 937.651 252.517 937.651 Q247.646 937.651 245.069 933.927 Q242.492 930.184 242.492 923.094 Q242.492 916.436 245.652 912.486 Q248.812 908.518 254.134 908.518 Q255.564 908.518 257.012 908.8 Q258.479 909.082 260.059 909.646 Z" fill="#000000" fill-rule="evenodd" fill-opacity="1" /><path clip-path="url(#clip210)" d="M62.8854 540.191 Q59.7373 540.191 57.8854 542.344 Q56.0567 544.497 56.0567 548.247 Q56.0567 551.973 57.8854 554.149 Q59.7373 556.302 62.8854 556.302 Q66.0335 556.302 67.8622 554.149 Q69.7141 551.973 69.7141 548.247 Q69.7141 544.497 67.8622 542.344 Q66.0335 540.191 62.8854 540.191 M72.1677 525.538 L72.1677 529.798 Q70.4085 528.964 68.6029 528.524 Q66.8206 528.085 65.0613 528.085 Q60.4317 528.085 57.978 531.21 Q55.5475 534.335 55.2002 540.654 Q56.566 538.64 58.6262 537.575 Q60.6863 536.487 63.1632 536.487 Q68.3715 536.487 71.3807 539.659 Q74.4131 542.807 74.4131 548.247 Q74.4131 553.571 71.265 556.788 Q68.1168 560.006 62.8854 560.006 Q56.89 560.006 53.7188 555.422 Q50.5475 550.816 50.5475 542.089 Q50.5475 533.895 54.4364 529.034 Q58.3252 524.149 64.8761 524.149 Q66.6354 524.149 68.4178 524.497 Q70.2233 524.844 72.1677 525.538 Z" fill="#000000" fill-rule="evenodd" fill-opacity="1" /><path clip-path="url(#clip210)" d="M82.4686 553.455 L87.3528 553.455 L87.3528 559.334 L82.4686 559.334 L82.4686 553.455 Z" fill="#000000" fill-rule="evenodd" fill-opacity="1" /><path clip-path="url(#clip210)" d="M107.538 527.853 Q103.927 527.853 102.098 531.418 Q100.293 534.96 100.293 542.089 Q100.293 549.196 102.098 552.76 Q103.927 556.302 107.538 556.302 Q111.172 556.302 112.978 552.76 Q114.806 549.196 114.806 542.089 Q114.806 534.96 112.978 531.418 Q111.172 527.853 107.538 527.853 M107.538 524.149 Q113.348 524.149 116.404 528.756 Q119.482 533.339 119.482 542.089 Q119.482 550.816 116.404 555.422 Q113.348 560.006 107.538 560.006 Q101.728 560.006 98.6491 555.422 Q95.5935 550.816 95.5935 542.089 Q95.5935 533.339 98.6491 528.756 Q101.728 524.149 107.538 524.149 Z" fill="#000000" fill-rule="evenodd" fill-opacity="1" /><path clip-path="url(#clip210)" d="M155.871 533.872 L145.292 544.497 L155.871 555.075 L153.116 557.876 L142.491 547.251 L131.866 557.876 L129.135 555.075 L139.691 544.497 L129.135 533.872 L131.866 531.071 L142.491 541.696 L153.116 531.071 L155.871 533.872 Z" fill="#000000" fill-rule="evenodd" fill-opacity="1" /><path clip-path="url(#clip210)" d="M168.232 555.399 L175.871 555.399 L175.871 529.034 L167.561 530.7 L167.561 526.441 L175.825 524.774 L180.5 524.774 L180.5 555.399 L188.139 555.399 L188.139 559.334 L168.232 559.334 L168.232 555.399 Z" fill="#000000" fill-rule="evenodd" fill-opacity="1" /><path clip-path="url(#clip210)" d="M207.584 527.853 Q203.973 527.853 202.144 531.418 Q200.338 534.96 200.338 542.089 Q200.338 549.196 202.144 552.76 Q203.973 556.302 207.584 556.302 Q211.218 556.302 213.023 552.76 Q214.852 549.196 214.852 542.089 Q214.852 534.96 213.023 531.418 Q211.218 527.853 207.584 527.853 M207.584 524.149 Q213.394 524.149 216.449 528.756 Q219.528 533.339 219.528 542.089 Q219.528 550.816 216.449 555.422 Q213.394 560.006 207.584 560.006 Q201.774 560.006 198.695 555.422 Q195.639 550.816 195.639 542.089 Q195.639 533.339 198.695 528.756 Q201.774 524.149 207.584 524.149 Z" fill="#000000" fill-rule="evenodd" fill-opacity="1" /><path clip-path="url(#clip210)" d="M220.073 528.727 L226.28 528.727 L226.28 507.305 L219.528 508.659 L219.528 505.198 L226.242 503.844 L230.042 503.844 L230.042 528.727 L236.248 528.727 L236.248 531.924 L220.073 531.924 L220.073 528.727 Z" fill="#000000" fill-rule="evenodd" fill-opacity="1" /><path clip-path="url(#clip210)" d="M252.517 516.37 Q249.959 516.37 248.454 518.119 Q246.969 519.868 246.969 522.915 Q246.969 525.943 248.454 527.711 Q249.959 529.46 252.517 529.46 Q255.075 529.46 256.561 527.711 Q258.065 525.943 258.065 522.915 Q258.065 519.868 256.561 518.119 Q255.075 516.37 252.517 516.37 M260.059 504.465 L260.059 507.925 Q258.629 507.248 257.162 506.891 Q255.714 506.534 254.285 506.534 Q250.523 506.534 248.53 509.073 Q246.555 511.612 246.273 516.746 Q247.382 515.11 249.056 514.245 Q250.73 513.361 252.743 513.361 Q256.974 513.361 259.419 515.937 Q261.883 518.495 261.883 522.915 Q261.883 527.241 259.325 529.855 Q256.767 532.469 252.517 532.469 Q247.646 532.469 245.069 528.746 Q242.492 525.003 242.492 517.912 Q242.492 511.254 245.652 507.305 Q248.812 503.336 254.134 503.336 Q255.564 503.336 257.012 503.618 Q258.479 503.9 260.059 504.465 Z" fill="#000000" fill-rule="evenodd" fill-opacity="1" /><path clip-path="url(#clip210)" d="M62.3067 137.741 Q58.9734 137.741 57.0521 139.524 Q55.1539 141.306 55.1539 144.431 Q55.1539 147.556 57.0521 149.338 Q58.9734 151.121 62.3067 151.121 Q65.64 151.121 67.5613 149.338 Q69.4826 147.533 69.4826 144.431 Q69.4826 141.306 67.5613 139.524 Q65.6632 137.741 62.3067 137.741 M57.6308 135.75 Q54.6215 135.01 52.9317 132.949 Q51.2651 130.889 51.2651 127.926 Q51.2651 123.783 54.2049 121.375 Q57.1678 118.968 62.3067 118.968 Q67.4687 118.968 70.4085 121.375 Q73.3483 123.783 73.3483 127.926 Q73.3483 130.889 71.6585 132.949 Q69.9918 135.01 67.0057 135.75 Q70.3853 136.537 72.2603 138.829 Q74.1585 141.121 74.1585 144.431 Q74.1585 149.454 71.0798 152.139 Q68.0242 154.824 62.3067 154.824 Q56.5891 154.824 53.5104 152.139 Q50.4549 149.454 50.4549 144.431 Q50.4549 141.121 52.353 138.829 Q54.2512 136.537 57.6308 135.75 M55.9178 128.366 Q55.9178 131.051 57.5845 132.556 Q59.2743 134.061 62.3067 134.061 Q65.3159 134.061 67.0057 132.556 Q68.7187 131.051 68.7187 128.366 Q68.7187 125.681 67.0057 124.176 Q65.3159 122.672 62.3067 122.672 Q59.2743 122.672 57.5845 124.176 Q55.9178 125.681 55.9178 128.366 Z" fill="#000000" fill-rule="evenodd" fill-opacity="1" /><path clip-path="url(#clip210)" d="M82.4686 148.273 L87.3528 148.273 L87.3528 154.153 L82.4686 154.153 L82.4686 148.273 Z" fill="#000000" fill-rule="evenodd" fill-opacity="1" /><path clip-path="url(#clip210)" d="M107.538 122.672 Q103.927 122.672 102.098 126.237 Q100.293 129.778 100.293 136.908 Q100.293 144.014 102.098 147.579 Q103.927 151.121 107.538 151.121 Q111.172 151.121 112.978 147.579 Q114.806 144.014 114.806 136.908 Q114.806 129.778 112.978 126.237 Q111.172 122.672 107.538 122.672 M107.538 118.968 Q113.348 118.968 116.404 123.575 Q119.482 128.158 119.482 136.908 Q119.482 145.635 116.404 150.241 Q113.348 154.824 107.538 154.824 Q101.728 154.824 98.6491 150.241 Q95.5935 145.635 95.5935 136.908 Q95.5935 128.158 98.6491 123.575 Q101.728 118.968 107.538 118.968 Z" fill="#000000" fill-rule="evenodd" fill-opacity="1" /><path clip-path="url(#clip210)" d="M155.871 128.69 L145.292 139.315 L155.871 149.894 L153.116 152.695 L142.491 142.07 L131.866 152.695 L129.135 149.894 L139.691 139.315 L129.135 128.69 L131.866 125.889 L142.491 136.514 L153.116 125.889 L155.871 128.69 Z" fill="#000000" fill-rule="evenodd" fill-opacity="1" /><path clip-path="url(#clip210)" d="M168.232 150.218 L175.871 150.218 L175.871 123.852 L167.561 125.519 L167.561 121.26 L175.825 119.593 L180.5 119.593 L180.5 150.218 L188.139 150.218 L188.139 154.153 L168.232 154.153 L168.232 150.218 Z" fill="#000000" fill-rule="evenodd" fill-opacity="1" /><path clip-path="url(#clip210)" d="M207.584 122.672 Q203.973 122.672 202.144 126.237 Q200.338 129.778 200.338 136.908 Q200.338 144.014 202.144 147.579 Q203.973 151.121 207.584 151.121 Q211.218 151.121 213.023 147.579 Q214.852 144.014 214.852 136.908 Q214.852 129.778 213.023 126.237 Q211.218 122.672 207.584 122.672 M207.584 118.968 Q213.394 118.968 216.449 123.575 Q219.528 128.158 219.528 136.908 Q219.528 145.635 216.449 150.241 Q213.394 154.824 207.584 154.824 Q201.774 154.824 198.695 150.241 Q195.639 145.635 195.639 136.908 Q195.639 128.158 198.695 123.575 Q201.774 118.968 207.584 118.968 Z" fill="#000000" fill-rule="evenodd" fill-opacity="1" /><path clip-path="url(#clip210)" d="M220.073 123.545 L226.28 123.545 L226.28 102.123 L219.528 103.477 L219.528 100.017 L226.242 98.6627 L230.042 98.6627 L230.042 123.545 L236.248 123.545 L236.248 126.743 L220.073 126.743 L220.073 123.545 Z" fill="#000000" fill-rule="evenodd" fill-opacity="1" /><path clip-path="url(#clip210)" d="M252.517 111.189 Q249.959 111.189 248.454 112.938 Q246.969 114.687 246.969 117.734 Q246.969 120.762 248.454 122.53 Q249.959 124.279 252.517 124.279 Q255.075 124.279 256.561 122.53 Q258.065 120.762 258.065 117.734 Q258.065 114.687 256.561 112.938 Q255.075 111.189 252.517 111.189 M260.059 99.2833 L260.059 102.744 Q258.629 102.067 257.162 101.71 Q255.714 101.352 254.285 101.352 Q250.523 101.352 248.53 103.891 Q246.555 106.43 246.273 111.565 Q247.382 109.929 249.056 109.063 Q250.73 108.179 252.743 108.179 Q256.974 108.179 259.419 110.756 Q261.883 113.314 261.883 117.734 Q261.883 122.06 259.325 124.674 Q256.767 127.288 252.517 127.288 Q247.646 127.288 245.069 123.564 Q242.492 119.821 242.492 112.731 Q242.492 106.073 245.652 102.123 Q248.812 98.1548 254.134 98.1548 Q255.564 98.1548 257.012 98.437 Q258.479 98.7191 260.059 99.2833 Z" fill="#000000" fill-rule="evenodd" fill-opacity="1" /><polyline clip-path="url(#clip212)" style="stroke:#009af9; stroke-linecap:butt; stroke-linejoin:round; stroke-width:4; stroke-opacity:1; fill:none" points="
  382.752,1751.15 515.563,1751.15 595.377,1751.15 662.858,1751.15 736.162,1751.15 803.742,1751.15 876.194,1751.15 960.138,1751.15 1034.74,1751.15 1100.15,1751.15 
  1171.47,1751.15 1243.22,1751.15 1322.54,1751.15 1398.02,1751.15 1476.49,1751.15 1542.55,1751.15 1623.21,1751.15 1697.09,1751.15 1765.33,1751.15 1834.45,1751.15 
  1911.91,1751.15 1982.11,1751.15 2062.48,1751.15 2136.89,1751.15 2210.26,1751.15 2281.49,1751.15 2354.51,1751.15 2434.51,1751.15 2550.73,1751.15 2574.57,96.8724 
  
  "/>
<path clip-path="url(#clip210)" d="
M2250.53 209.375 L2562.8 209.375 L2562.8 105.695 L2250.53 105.695  Z
  " fill="#ffffff" fill-rule="evenodd" fill-opacity="1"/>
<polyline clip-path="url(#clip210)" style="stroke:#000000; stroke-linecap:butt; stroke-linejoin:round; stroke-width:4; stroke-opacity:1; fill:none" points="
  2250.53,209.375 2562.8,209.375 2562.8,105.695 2250.53,105.695 2250.53,209.375 
  "/>
<polyline clip-path="url(#clip210)" style="stroke:#009af9; stroke-linecap:butt; stroke-linejoin:round; stroke-width:4; stroke-opacity:1; fill:none" points="
  2276.52,157.535 2432.42,157.535 
  "/>
<path clip-path="url(#clip210)" d="M2472.25 177.223 Q2470.44 181.852 2468.73 183.264 Q2467.02 184.676 2464.15 184.676 L2460.74 184.676 L2460.74 181.112 L2463.24 181.112 Q2465 181.112 2465.98 180.278 Q2466.95 179.445 2468.13 176.343 L2468.89 174.399 L2458.41 148.889 L2462.92 148.889 L2471.02 169.167 L2479.12 148.889 L2483.64 148.889 L2472.25 177.223 Z" fill="#000000" fill-rule="evenodd" fill-opacity="1" /><path clip-path="url(#clip210)" d="M2490.93 170.88 L2498.57 170.88 L2498.57 144.515 L2490.26 146.181 L2490.26 141.922 L2498.52 140.255 L2503.2 140.255 L2503.2 170.88 L2510.84 170.88 L2510.84 174.815 L2490.93 174.815 L2490.93 170.88 Z" fill="#000000" fill-rule="evenodd" fill-opacity="1" /></svg>
