<?xml version="1.0" encoding="utf-8"?>
<svg xmlns="http://www.w3.org/2000/svg" xmlns:xlink="http://www.w3.org/1999/xlink" width="672" height="480" viewBox="0 0 2688 1920">
<defs>
  <clipPath id="clip810">
    <rect x="0" y="0" width="2688" height="1920"/>
  </clipPath>
</defs>
<path clip-path="url(#clip810)" d="
M0 1920 L2688 1920 L2688 0 L0 0  Z
  " fill="#ffffff" fill-rule="evenodd" fill-opacity="1"/>
<defs>
  <clipPath id="clip811">
    <rect x="537" y="0" width="1883" height="1883"/>
  </clipPath>
</defs>
<path clip-path="url(#clip810)" d="
M181.747 1800.78 L2640.76 1800.78 L2640.76 47.2441 L181.747 47.2441  Z
  " fill="#ffffff" fill-rule="evenodd" fill-opacity="1"/>
<defs>
  <clipPath id="clip812">
    <rect x="181" y="47" width="2460" height="1755"/>
  </clipPath>
</defs>
<polyline clip-path="url(#clip812)" style="stroke:#000000; stroke-linecap:butt; stroke-linejoin:round; stroke-width:2; stroke-opacity:0.1; fill:none" points="
  251.341,1800.78 251.341,47.2441 
  "/>
<polyline clip-path="url(#clip812)" style="stroke:#000000; stroke-linecap:butt; stroke-linejoin:round; stroke-width:2; stroke-opacity:0.1; fill:none" points="
  637.978,1800.78 637.978,47.2441 
  "/>
<polyline clip-path="url(#clip812)" style="stroke:#000000; stroke-linecap:butt; stroke-linejoin:round; stroke-width:2; stroke-opacity:0.1; fill:none" points="
  1024.61,1800.78 1024.61,47.2441 
  "/>
<polyline clip-path="url(#clip812)" style="stroke:#000000; stroke-linecap:butt; stroke-linejoin:round; stroke-width:2; stroke-opacity:0.1; fill:none" points="
  1411.25,1800.78 1411.25,47.2441 
  "/>
<polyline clip-path="url(#clip812)" style="stroke:#000000; stroke-linecap:butt; stroke-linejoin:round; stroke-width:2; stroke-opacity:0.1; fill:none" points="
  1797.89,1800.78 1797.89,47.2441 
  "/>
<polyline clip-path="url(#clip812)" style="stroke:#000000; stroke-linecap:butt; stroke-linejoin:round; stroke-width:2; stroke-opacity:0.1; fill:none" points="
  2184.52,1800.78 2184.52,47.2441 
  "/>
<polyline clip-path="url(#clip812)" style="stroke:#000000; stroke-linecap:butt; stroke-linejoin:round; stroke-width:2; stroke-opacity:0.1; fill:none" points="
  2571.16,1800.78 2571.16,47.2441 
  "/>
<polyline clip-path="url(#clip810)" style="stroke:#000000; stroke-linecap:butt; stroke-linejoin:round; stroke-width:4; stroke-opacity:1; fill:none" points="
  181.747,1800.78 2640.76,1800.78 
  "/>
<polyline clip-path="url(#clip810)" style="stroke:#000000; stroke-linecap:butt; stroke-linejoin:round; stroke-width:4; stroke-opacity:1; fill:none" points="
  251.341,1800.78 251.341,1781.88 
  "/>
<polyline clip-path="url(#clip810)" style="stroke:#000000; stroke-linecap:butt; stroke-linejoin:round; stroke-width:4; stroke-opacity:1; fill:none" points="
  637.978,1800.78 637.978,1781.88 
  "/>
<polyline clip-path="url(#clip810)" style="stroke:#000000; stroke-linecap:butt; stroke-linejoin:round; stroke-width:4; stroke-opacity:1; fill:none" points="
  1024.61,1800.78 1024.61,1781.88 
  "/>
<polyline clip-path="url(#clip810)" style="stroke:#000000; stroke-linecap:butt; stroke-linejoin:round; stroke-width:4; stroke-opacity:1; fill:none" points="
  1411.25,1800.78 1411.25,1781.88 
  "/>
<polyline clip-path="url(#clip810)" style="stroke:#000000; stroke-linecap:butt; stroke-linejoin:round; stroke-width:4; stroke-opacity:1; fill:none" points="
  1797.89,1800.78 1797.89,1781.88 
  "/>
<polyline clip-path="url(#clip810)" style="stroke:#000000; stroke-linecap:butt; stroke-linejoin:round; stroke-width:4; stroke-opacity:1; fill:none" points="
  2184.52,1800.78 2184.52,1781.88 
  "/>
<polyline clip-path="url(#clip810)" style="stroke:#000000; stroke-linecap:butt; stroke-linejoin:round; stroke-width:4; stroke-opacity:1; fill:none" points="
  2571.16,1800.78 2571.16,1781.88 
  "/>
<path clip-path="url(#clip810)" d="M220.809 1848.65 L250.485 1848.65 L250.485 1852.59 L220.809 1852.59 L220.809 1848.65 Z" fill="#000000" fill-rule="evenodd" fill-opacity="1" /><path clip-path="url(#clip810)" d="M274.744 1846.85 Q278.1 1847.57 279.975 1849.84 Q281.873 1852.1 281.873 1855.44 Q281.873 1860.55 278.355 1863.35 Q274.836 1866.15 268.355 1866.15 Q266.179 1866.15 263.864 1865.71 Q261.573 1865.3 259.119 1864.44 L259.119 1859.93 Q261.063 1861.06 263.378 1861.64 Q265.693 1862.22 268.216 1862.22 Q272.614 1862.22 274.906 1860.48 Q277.221 1858.75 277.221 1855.44 Q277.221 1852.38 275.068 1850.67 Q272.938 1848.93 269.119 1848.93 L265.091 1848.93 L265.091 1845.09 L269.304 1845.09 Q272.753 1845.09 274.582 1843.72 Q276.411 1842.34 276.411 1839.74 Q276.411 1837.08 274.512 1835.67 Q272.637 1834.23 269.119 1834.23 Q267.198 1834.23 264.999 1834.65 Q262.8 1835.07 260.161 1835.95 L260.161 1831.78 Q262.823 1831.04 265.137 1830.67 Q267.475 1830.3 269.536 1830.3 Q274.86 1830.3 277.961 1832.73 Q281.063 1835.14 281.063 1839.26 Q281.063 1842.13 279.42 1844.12 Q277.776 1846.09 274.744 1846.85 Z" fill="#000000" fill-rule="evenodd" fill-opacity="1" /><path clip-path="url(#clip810)" d="M607.92 1848.65 L637.596 1848.65 L637.596 1852.59 L607.92 1852.59 L607.92 1848.65 Z" fill="#000000" fill-rule="evenodd" fill-opacity="1" /><path clip-path="url(#clip810)" d="M651.716 1861.55 L668.036 1861.55 L668.036 1865.48 L646.091 1865.48 L646.091 1861.55 Q648.753 1858.79 653.337 1854.16 Q657.943 1849.51 659.124 1848.17 Q661.369 1845.65 662.249 1843.91 Q663.151 1842.15 663.151 1840.46 Q663.151 1837.71 661.207 1835.97 Q659.286 1834.23 656.184 1834.23 Q653.985 1834.23 651.531 1835 Q649.101 1835.76 646.323 1837.31 L646.323 1832.59 Q649.147 1831.46 651.601 1830.88 Q654.054 1830.3 656.091 1830.3 Q661.462 1830.3 664.656 1832.98 Q667.85 1835.67 667.85 1840.16 Q667.85 1842.29 667.04 1844.21 Q666.253 1846.11 664.147 1848.7 Q663.568 1849.37 660.466 1852.59 Q657.364 1855.78 651.716 1861.55 Z" fill="#000000" fill-rule="evenodd" fill-opacity="1" /><path clip-path="url(#clip810)" d="M994.372 1848.65 L1024.05 1848.65 L1024.05 1852.59 L994.372 1852.59 L994.372 1848.65 Z" fill="#000000" fill-rule="evenodd" fill-opacity="1" /><path clip-path="url(#clip810)" d="M1034.95 1861.55 L1042.59 1861.55 L1042.59 1835.18 L1034.28 1836.85 L1034.28 1832.59 L1042.54 1830.92 L1047.22 1830.92 L1047.22 1861.55 L1054.86 1861.55 L1054.86 1865.48 L1034.95 1865.48 L1034.95 1861.55 Z" fill="#000000" fill-rule="evenodd" fill-opacity="1" /><path clip-path="url(#clip810)" d="M1411.25 1834 Q1407.64 1834 1405.81 1837.57 Q1404.01 1841.11 1404.01 1848.24 Q1404.01 1855.34 1405.81 1858.91 Q1407.64 1862.45 1411.25 1862.45 Q1414.89 1862.45 1416.69 1858.91 Q1418.52 1855.34 1418.52 1848.24 Q1418.52 1841.11 1416.69 1837.57 Q1414.89 1834 1411.25 1834 M1411.25 1830.3 Q1417.06 1830.3 1420.12 1834.9 Q1423.2 1839.49 1423.2 1848.24 Q1423.2 1856.96 1420.12 1861.57 Q1417.06 1866.15 1411.25 1866.15 Q1405.44 1866.15 1402.36 1861.57 Q1399.31 1856.96 1399.31 1848.24 Q1399.31 1839.49 1402.36 1834.9 Q1405.44 1830.3 1411.25 1830.3 Z" fill="#000000" fill-rule="evenodd" fill-opacity="1" /><path clip-path="url(#clip810)" d="M1788.27 1861.55 L1795.91 1861.55 L1795.91 1835.18 L1787.6 1836.85 L1787.6 1832.59 L1795.86 1830.92 L1800.54 1830.92 L1800.54 1861.55 L1808.18 1861.55 L1808.18 1865.48 L1788.27 1865.48 L1788.27 1861.55 Z" fill="#000000" fill-rule="evenodd" fill-opacity="1" /><path clip-path="url(#clip810)" d="M2179.18 1861.55 L2195.5 1861.55 L2195.5 1865.48 L2173.55 1865.48 L2173.55 1861.55 Q2176.21 1858.79 2180.8 1854.16 Q2185.4 1849.51 2186.58 1848.17 Q2188.83 1845.65 2189.71 1843.91 Q2190.61 1842.15 2190.61 1840.46 Q2190.61 1837.71 2188.67 1835.97 Q2186.75 1834.23 2183.65 1834.23 Q2181.45 1834.23 2178.99 1835 Q2176.56 1835.76 2173.78 1837.31 L2173.78 1832.59 Q2176.61 1831.46 2179.06 1830.88 Q2181.52 1830.3 2183.55 1830.3 Q2188.92 1830.3 2192.12 1832.98 Q2195.31 1835.67 2195.31 1840.16 Q2195.31 1842.29 2194.5 1844.21 Q2193.71 1846.11 2191.61 1848.7 Q2191.03 1849.37 2187.93 1852.59 Q2184.83 1855.78 2179.18 1861.55 Z" fill="#000000" fill-rule="evenodd" fill-opacity="1" /><path clip-path="url(#clip810)" d="M2575.41 1846.85 Q2578.77 1847.57 2580.64 1849.84 Q2582.54 1852.1 2582.54 1855.44 Q2582.54 1860.55 2579.02 1863.35 Q2575.5 1866.15 2569.02 1866.15 Q2566.84 1866.15 2564.53 1865.71 Q2562.24 1865.3 2559.78 1864.44 L2559.78 1859.93 Q2561.73 1861.06 2564.04 1861.64 Q2566.36 1862.22 2568.88 1862.22 Q2573.28 1862.22 2575.57 1860.48 Q2577.89 1858.75 2577.89 1855.44 Q2577.89 1852.38 2575.73 1850.67 Q2573.6 1848.93 2569.78 1848.93 L2565.76 1848.93 L2565.76 1845.09 L2569.97 1845.09 Q2573.42 1845.09 2575.25 1843.72 Q2577.08 1842.34 2577.08 1839.74 Q2577.08 1837.08 2575.18 1835.67 Q2573.3 1834.23 2569.78 1834.23 Q2567.86 1834.23 2565.66 1834.65 Q2563.46 1835.07 2560.83 1835.95 L2560.83 1831.78 Q2563.49 1831.04 2565.8 1830.67 Q2568.14 1830.3 2570.2 1830.3 Q2575.52 1830.3 2578.63 1832.73 Q2581.73 1835.14 2581.73 1839.26 Q2581.73 1842.13 2580.08 1844.12 Q2578.44 1846.09 2575.41 1846.85 Z" fill="#000000" fill-rule="evenodd" fill-opacity="1" /><polyline clip-path="url(#clip812)" style="stroke:#000000; stroke-linecap:butt; stroke-linejoin:round; stroke-width:2; stroke-opacity:0.1; fill:none" points="
  181.747,1411.84 2640.76,1411.84 
  "/>
<polyline clip-path="url(#clip812)" style="stroke:#000000; stroke-linecap:butt; stroke-linejoin:round; stroke-width:2; stroke-opacity:0.1; fill:none" points="
  181.747,964.693 2640.76,964.693 
  "/>
<polyline clip-path="url(#clip812)" style="stroke:#000000; stroke-linecap:butt; stroke-linejoin:round; stroke-width:2; stroke-opacity:0.1; fill:none" points="
  181.747,517.549 2640.76,517.549 
  "/>
<polyline clip-path="url(#clip812)" style="stroke:#000000; stroke-linecap:butt; stroke-linejoin:round; stroke-width:2; stroke-opacity:0.1; fill:none" points="
  181.747,70.4046 2640.76,70.4046 
  "/>
<polyline clip-path="url(#clip810)" style="stroke:#000000; stroke-linecap:butt; stroke-linejoin:round; stroke-width:4; stroke-opacity:1; fill:none" points="
  181.747,1800.78 181.747,47.2441 
  "/>
<polyline clip-path="url(#clip810)" style="stroke:#000000; stroke-linecap:butt; stroke-linejoin:round; stroke-width:4; stroke-opacity:1; fill:none" points="
  181.747,1411.84 200.644,1411.84 
  "/>
<polyline clip-path="url(#clip810)" style="stroke:#000000; stroke-linecap:butt; stroke-linejoin:round; stroke-width:4; stroke-opacity:1; fill:none" points="
  181.747,964.693 200.644,964.693 
  "/>
<polyline clip-path="url(#clip810)" style="stroke:#000000; stroke-linecap:butt; stroke-linejoin:round; stroke-width:4; stroke-opacity:1; fill:none" points="
  181.747,517.549 200.644,517.549 
  "/>
<polyline clip-path="url(#clip810)" style="stroke:#000000; stroke-linecap:butt; stroke-linejoin:round; stroke-width:4; stroke-opacity:1; fill:none" points="
  181.747,70.4046 200.644,70.4046 
  "/>
<path clip-path="url(#clip810)" d="M49.5521 1412.29 L79.2279 1412.29 L79.2279 1416.22 L49.5521 1416.22 L49.5521 1412.29 Z" fill="#000000" fill-rule="evenodd" fill-opacity="1" /><path clip-path="url(#clip810)" d="M89.3667 1394.56 L107.723 1394.56 L107.723 1398.49 L93.6491 1398.49 L93.6491 1406.96 Q94.6676 1406.62 95.6861 1406.46 Q96.7047 1406.27 97.7232 1406.27 Q103.51 1406.27 106.89 1409.44 Q110.269 1412.61 110.269 1418.03 Q110.269 1423.61 106.797 1426.71 Q103.325 1429.79 97.0056 1429.79 Q94.8297 1429.79 92.5612 1429.42 Q90.3158 1429.05 87.9084 1428.31 L87.9084 1423.61 Q89.9917 1424.74 92.2139 1425.3 Q94.4361 1425.85 96.913 1425.85 Q100.918 1425.85 103.256 1423.75 Q105.593 1421.64 105.593 1418.03 Q105.593 1414.42 103.256 1412.31 Q100.918 1410.21 96.913 1410.21 Q95.038 1410.21 93.163 1410.62 Q91.3112 1411.04 89.3667 1411.92 L89.3667 1394.56 Z" fill="#000000" fill-rule="evenodd" fill-opacity="1" /><path clip-path="url(#clip810)" d="M129.482 1397.64 Q125.871 1397.64 124.042 1401.2 Q122.237 1404.74 122.237 1411.87 Q122.237 1418.98 124.042 1422.54 Q125.871 1426.08 129.482 1426.08 Q133.116 1426.08 134.922 1422.54 Q136.751 1418.98 136.751 1411.87 Q136.751 1404.74 134.922 1401.2 Q133.116 1397.64 129.482 1397.64 M129.482 1393.93 Q135.292 1393.93 138.348 1398.54 Q141.427 1403.12 141.427 1411.87 Q141.427 1420.6 138.348 1425.2 Q135.292 1429.79 129.482 1429.79 Q123.672 1429.79 120.593 1425.2 Q117.538 1420.6 117.538 1411.87 Q117.538 1403.12 120.593 1398.54 Q123.672 1393.93 129.482 1393.93 Z" fill="#000000" fill-rule="evenodd" fill-opacity="1" /><path clip-path="url(#clip810)" d="M129.482 950.492 Q125.871 950.492 124.042 954.056 Q122.237 957.598 122.237 964.728 Q122.237 971.834 124.042 975.399 Q125.871 978.94 129.482 978.94 Q133.116 978.94 134.922 975.399 Q136.751 971.834 136.751 964.728 Q136.751 957.598 134.922 954.056 Q133.116 950.492 129.482 950.492 M129.482 946.788 Q135.292 946.788 138.348 951.394 Q141.427 955.978 141.427 964.728 Q141.427 973.454 138.348 978.061 Q135.292 982.644 129.482 982.644 Q123.672 982.644 120.593 978.061 Q117.538 973.454 117.538 964.728 Q117.538 955.978 120.593 951.394 Q123.672 946.788 129.482 946.788 Z" fill="#000000" fill-rule="evenodd" fill-opacity="1" /><path clip-path="url(#clip810)" d="M89.3667 500.269 L107.723 500.269 L107.723 504.204 L93.6491 504.204 L93.6491 512.676 Q94.6676 512.329 95.6861 512.167 Q96.7047 511.982 97.7232 511.982 Q103.51 511.982 106.89 515.153 Q110.269 518.324 110.269 523.741 Q110.269 529.319 106.797 532.421 Q103.325 535.5 97.0056 535.5 Q94.8297 535.5 92.5612 535.13 Q90.3158 534.759 87.9084 534.019 L87.9084 529.319 Q89.9917 530.454 92.2139 531.009 Q94.4361 531.565 96.913 531.565 Q100.918 531.565 103.256 529.458 Q105.593 527.352 105.593 523.741 Q105.593 520.13 103.256 518.023 Q100.918 515.917 96.913 515.917 Q95.038 515.917 93.163 516.333 Q91.3112 516.75 89.3667 517.63 L89.3667 500.269 Z" fill="#000000" fill-rule="evenodd" fill-opacity="1" /><path clip-path="url(#clip810)" d="M129.482 503.347 Q125.871 503.347 124.042 506.912 Q122.237 510.454 122.237 517.583 Q122.237 524.69 124.042 528.255 Q125.871 531.796 129.482 531.796 Q133.116 531.796 134.922 528.255 Q136.751 524.69 136.751 517.583 Q136.751 510.454 134.922 506.912 Q133.116 503.347 129.482 503.347 M129.482 499.644 Q135.292 499.644 138.348 504.25 Q141.427 508.833 141.427 517.583 Q141.427 526.31 138.348 530.917 Q135.292 535.5 129.482 535.5 Q123.672 535.5 120.593 530.917 Q117.538 526.31 117.538 517.583 Q117.538 508.833 120.593 504.25 Q123.672 499.644 129.482 499.644 Z" fill="#000000" fill-rule="evenodd" fill-opacity="1" /><path clip-path="url(#clip810)" d="M59.9687 83.7494 L67.6076 83.7494 L67.6076 57.3838 L59.2974 59.0505 L59.2974 54.7912 L67.5613 53.1246 L72.2372 53.1246 L72.2372 83.7494 L79.876 83.7494 L79.876 87.6846 L59.9687 87.6846 L59.9687 83.7494 Z" fill="#000000" fill-rule="evenodd" fill-opacity="1" /><path clip-path="url(#clip810)" d="M99.3204 56.2033 Q95.7093 56.2033 93.8806 59.768 Q92.075 63.3097 92.075 70.4393 Q92.075 77.5457 93.8806 81.1105 Q95.7093 84.6522 99.3204 84.6522 Q102.955 84.6522 104.76 81.1105 Q106.589 77.5457 106.589 70.4393 Q106.589 63.3097 104.76 59.768 Q102.955 56.2033 99.3204 56.2033 M99.3204 52.4996 Q105.131 52.4996 108.186 57.106 Q111.265 61.6893 111.265 70.4393 Q111.265 79.1661 108.186 83.7726 Q105.131 88.3559 99.3204 88.3559 Q93.5102 88.3559 90.4315 83.7726 Q87.376 79.1661 87.376 70.4393 Q87.376 61.6893 90.4315 57.106 Q93.5102 52.4996 99.3204 52.4996 Z" fill="#000000" fill-rule="evenodd" fill-opacity="1" /><path clip-path="url(#clip810)" d="M129.482 56.2033 Q125.871 56.2033 124.042 59.768 Q122.237 63.3097 122.237 70.4393 Q122.237 77.5457 124.042 81.1105 Q125.871 84.6522 129.482 84.6522 Q133.116 84.6522 134.922 81.1105 Q136.751 77.5457 136.751 70.4393 Q136.751 63.3097 134.922 59.768 Q133.116 56.2033 129.482 56.2033 M129.482 52.4996 Q135.292 52.4996 138.348 57.106 Q141.427 61.6893 141.427 70.4393 Q141.427 79.1661 138.348 83.7726 Q135.292 88.3559 129.482 88.3559 Q123.672 88.3559 120.593 83.7726 Q117.538 79.1661 117.538 70.4393 Q117.538 61.6893 120.593 57.106 Q123.672 52.4996 129.482 52.4996 Z" fill="#000000" fill-rule="evenodd" fill-opacity="1" /><polyline clip-path="url(#clip812)" style="stroke:#009af9; stroke-linecap:butt; stroke-linejoin:round; stroke-width:4; stroke-opacity:1; fill:none" points="
  251.341,967.674 266.445,967.713 406.096,968.133 490.021,968.446 560.979,968.759 638.058,969.165 709.119,969.617 785.303,970.217 873.571,971.124 952.012,972.222 
  1020.8,973.548 1095.79,975.654 1171.23,979.099 1192.09,980.469 1212.94,982.128 1233.79,984.177 1254.64,986.771 1274.48,989.974 1294.33,994.264 1304.25,997.006 
  1314.17,1000.31 1324.09,1004.36 1334.01,1009.46 1344.32,1016.35 1354.64,1025.77 1359.79,1031.89 1364.95,1039.37 1370.11,1048.73 1375.27,1060.78 1377.84,1068.19 
  1380.42,1076.85 1383,1087.09 1385.58,1099.39 1386.87,1106.51 1388.16,1114.43 1389.45,1123.28 1390.74,1133.25 1392.03,1144.55 1393.32,1157.48 1393.96,1164.67 
  1394.61,1172.42 1395.25,1180.79 1395.9,1189.86 1397.18,1210.5 1398.47,1235.3 1399.12,1249.68 1399.76,1265.67 1400.41,1283.57 1401.05,1303.73 1401.7,1326.6 
  1402.34,1352.79 1402.99,1383.06 1403.63,1418.46 1404.28,1460.4 1404.92,1510.88 1405.57,1572.81 1406.21,1650.58 1406.85,1751.15 
  "/>
<polyline clip-path="url(#clip812)" style="stroke:#009af9; stroke-linecap:butt; stroke-linejoin:round; stroke-width:4; stroke-opacity:1; fill:none" points="
  1415.24,96.8724 1415.88,217.734 1416.52,309.045 1417.07,370.219 1417.61,420.952 1418.15,463.706 1418.7,500.227 1419.24,531.785 1419.78,559.328 1420.32,583.575 
  1420.87,605.086 1421.41,624.298 1421.95,641.561 1422.49,657.158 1423.04,671.318 1424.12,696.057 1425.21,716.948 1425.75,726.221 1426.29,734.824 1426.84,742.829 
  1427.38,750.295 1428.46,763.814 1429.55,775.729 1430.63,786.31 1431.72,795.769 1432.81,804.275 1433.89,811.966 1436.06,825.328 1438.23,836.541 1440.4,846.083 
  1442.57,854.303 1446.91,867.741 1451.26,878.263 1455.6,886.724 1459.94,893.676 1464.28,899.49 1468.62,904.424 1477.3,912.347 1485.99,918.428 1496.59,924.175 
  1507.19,928.652 1517.79,932.239 1528.39,935.176 1549.59,939.699 1570.79,943.021 1609.64,947.264 1648.48,950.118 1720.23,953.502 1792.91,955.633 1874.37,957.227 
  1948.18,958.253 2032.69,959.129 2110.94,959.751 2188.08,960.242 2262.98,960.633 2339.76,960.969 2423.89,961.278 2546.09,961.646 2571.16,961.712 
  "/>
<path clip-path="url(#clip810)" d="
M2233.14 209.375 L2558.79 209.375 L2558.79 105.695 L2233.14 105.695  Z
  " fill="#ffffff" fill-rule="evenodd" fill-opacity="1"/>
<polyline clip-path="url(#clip810)" style="stroke:#000000; stroke-linecap:butt; stroke-linejoin:round; stroke-width:4; stroke-opacity:1; fill:none" points="
  2233.14,209.375 2558.79,209.375 2558.79,105.695 2233.14,105.695 2233.14,209.375 
  "/>
<polyline clip-path="url(#clip810)" style="stroke:#009af9; stroke-linecap:butt; stroke-linejoin:round; stroke-width:4; stroke-opacity:1; fill:none" points="
  2260.46,157.535 2424.39,157.535 
  "/>
<path clip-path="url(#clip810)" d="M2465.56 177.223 Q2463.75 181.852 2462.04 183.264 Q2460.33 184.676 2457.45 184.676 L2454.05 184.676 L2454.05 181.112 L2456.55 181.112 Q2458.31 181.112 2459.28 180.278 Q2460.26 179.445 2461.44 176.343 L2462.2 174.399 L2451.71 148.889 L2456.23 148.889 L2464.33 169.167 L2472.43 148.889 L2476.95 148.889 L2465.56 177.223 Z" fill="#000000" fill-rule="evenodd" fill-opacity="1" /><path clip-path="url(#clip810)" d="M2484.24 170.88 L2491.88 170.88 L2491.88 144.515 L2483.57 146.181 L2483.57 141.922 L2491.83 140.255 L2496.51 140.255 L2496.51 170.88 L2504.14 170.88 L2504.14 174.815 L2484.24 174.815 L2484.24 170.88 Z" fill="#000000" fill-rule="evenodd" fill-opacity="1" /></svg>
