<?xml version="1.0" encoding="utf-8"?>
<svg xmlns="http://www.w3.org/2000/svg" xmlns:xlink="http://www.w3.org/1999/xlink" width="672" height="480" viewBox="0 0 2688 1920">
<defs>
  <clipPath id="clip250">
    <rect x="0" y="0" width="2688" height="1920"/>
  </clipPath>
</defs>
<path clip-path="url(#clip250)" d="
M0 1920 L2688 1920 L2688 0 L0 0  Z
  " fill="#ffffff" fill-rule="evenodd" fill-opacity="1"/>
<defs>
  <clipPath id="clip251">
    <rect x="537" y="0" width="1883" height="1883"/>
  </clipPath>
</defs>
<path clip-path="url(#clip250)" d="
M158.992 1800.78 L2640.76 1800.78 L2640.76 47.2441 L158.992 47.2441  Z
  " fill="#ffffff" fill-rule="evenodd" fill-opacity="1"/>
<defs>
  <clipPath id="clip252">
    <rect x="158" y="47" width="2483" height="1755"/>
  </clipPath>
</defs>
<polyline clip-path="url(#clip252)" style="stroke:#000000; stroke-linecap:butt; stroke-linejoin:round; stroke-width:2; stroke-opacity:0.1; fill:none" points="
  229.231,1800.78 229.231,47.2441 
  "/>
<polyline clip-path="url(#clip252)" style="stroke:#000000; stroke-linecap:butt; stroke-linejoin:round; stroke-width:2; stroke-opacity:0.1; fill:none" points="
  697.488,1800.78 697.488,47.2441 
  "/>
<polyline clip-path="url(#clip252)" style="stroke:#000000; stroke-linecap:butt; stroke-linejoin:round; stroke-width:2; stroke-opacity:0.1; fill:none" points="
  1165.75,1800.78 1165.75,47.2441 
  "/>
<polyline clip-path="url(#clip252)" style="stroke:#000000; stroke-linecap:butt; stroke-linejoin:round; stroke-width:2; stroke-opacity:0.1; fill:none" points="
  1634,1800.78 1634,47.2441 
  "/>
<polyline clip-path="url(#clip252)" style="stroke:#000000; stroke-linecap:butt; stroke-linejoin:round; stroke-width:2; stroke-opacity:0.1; fill:none" points="
  2102.26,1800.78 2102.26,47.2441 
  "/>
<polyline clip-path="url(#clip252)" style="stroke:#000000; stroke-linecap:butt; stroke-linejoin:round; stroke-width:2; stroke-opacity:0.1; fill:none" points="
  2570.52,1800.78 2570.52,47.2441 
  "/>
<polyline clip-path="url(#clip250)" style="stroke:#000000; stroke-linecap:butt; stroke-linejoin:round; stroke-width:4; stroke-opacity:1; fill:none" points="
  158.992,1800.78 2640.76,1800.78 
  "/>
<polyline clip-path="url(#clip250)" style="stroke:#000000; stroke-linecap:butt; stroke-linejoin:round; stroke-width:4; stroke-opacity:1; fill:none" points="
  229.231,1800.78 229.231,1781.88 
  "/>
<polyline clip-path="url(#clip250)" style="stroke:#000000; stroke-linecap:butt; stroke-linejoin:round; stroke-width:4; stroke-opacity:1; fill:none" points="
  697.488,1800.78 697.488,1781.88 
  "/>
<polyline clip-path="url(#clip250)" style="stroke:#000000; stroke-linecap:butt; stroke-linejoin:round; stroke-width:4; stroke-opacity:1; fill:none" points="
  1165.75,1800.78 1165.75,1781.88 
  "/>
<polyline clip-path="url(#clip250)" style="stroke:#000000; stroke-linecap:butt; stroke-linejoin:round; stroke-width:4; stroke-opacity:1; fill:none" points="
  1634,1800.78 1634,1781.88 
  "/>
<polyline clip-path="url(#clip250)" style="stroke:#000000; stroke-linecap:butt; stroke-linejoin:round; stroke-width:4; stroke-opacity:1; fill:none" points="
  2102.26,1800.78 2102.26,1781.88 
  "/>
<polyline clip-path="url(#clip250)" style="stroke:#000000; stroke-linecap:butt; stroke-linejoin:round; stroke-width:4; stroke-opacity:1; fill:none" points="
  2570.52,1800.78 2570.52,1781.88 
  "/>
<path clip-path="url(#clip250)" d="M196.881 1861.55 L204.52 1861.55 L204.52 1835.18 L196.21 1836.85 L196.21 1832.59 L204.474 1830.92 L209.15 1830.92 L209.15 1861.55 L216.789 1861.55 L216.789 1865.48 L196.881 1865.48 L196.881 1861.55 Z" fill="#000000" fill-rule="evenodd" fill-opacity="1" /><path clip-path="url(#clip250)" d="M226.233 1859.6 L231.117 1859.6 L231.117 1865.48 L226.233 1865.48 L226.233 1859.6 Z" fill="#000000" fill-rule="evenodd" fill-opacity="1" /><path clip-path="url(#clip250)" d="M241.349 1830.92 L259.705 1830.92 L259.705 1834.86 L245.631 1834.86 L245.631 1843.33 Q246.65 1842.98 247.668 1842.82 Q248.687 1842.64 249.705 1842.64 Q255.492 1842.64 258.872 1845.81 Q262.251 1848.98 262.251 1854.4 Q262.251 1859.97 258.779 1863.08 Q255.307 1866.15 248.988 1866.15 Q246.812 1866.15 244.543 1865.78 Q242.298 1865.41 239.89 1864.67 L239.89 1859.97 Q241.974 1861.11 244.196 1861.66 Q246.418 1862.22 248.895 1862.22 Q252.9 1862.22 255.238 1860.11 Q257.575 1858.01 257.575 1854.4 Q257.575 1850.78 255.238 1848.68 Q252.9 1846.57 248.895 1846.57 Q247.02 1846.57 245.145 1846.99 Q243.293 1847.4 241.349 1848.28 L241.349 1830.92 Z" fill="#000000" fill-rule="evenodd" fill-opacity="1" /><path clip-path="url(#clip250)" d="M668.727 1861.55 L685.046 1861.55 L685.046 1865.48 L663.102 1865.48 L663.102 1861.55 Q665.764 1858.79 670.347 1854.16 Q674.953 1849.51 676.134 1848.17 Q678.379 1845.65 679.259 1843.91 Q680.162 1842.15 680.162 1840.46 Q680.162 1837.71 678.217 1835.97 Q676.296 1834.23 673.194 1834.23 Q670.995 1834.23 668.541 1835 Q666.111 1835.76 663.333 1837.31 L663.333 1832.59 Q666.157 1831.46 668.611 1830.88 Q671.065 1830.3 673.102 1830.3 Q678.472 1830.3 681.666 1832.98 Q684.861 1835.67 684.861 1840.16 Q684.861 1842.29 684.051 1844.21 Q683.264 1846.11 681.157 1848.7 Q680.578 1849.37 677.477 1852.59 Q674.375 1855.78 668.727 1861.55 Z" fill="#000000" fill-rule="evenodd" fill-opacity="1" /><path clip-path="url(#clip250)" d="M694.861 1859.6 L699.745 1859.6 L699.745 1865.48 L694.861 1865.48 L694.861 1859.6 Z" fill="#000000" fill-rule="evenodd" fill-opacity="1" /><path clip-path="url(#clip250)" d="M719.93 1834 Q716.319 1834 714.49 1837.57 Q712.685 1841.11 712.685 1848.24 Q712.685 1855.34 714.49 1858.91 Q716.319 1862.45 719.93 1862.45 Q723.564 1862.45 725.37 1858.91 Q727.199 1855.34 727.199 1848.24 Q727.199 1841.11 725.37 1837.57 Q723.564 1834 719.93 1834 M719.93 1830.3 Q725.74 1830.3 728.796 1834.9 Q731.874 1839.49 731.874 1848.24 Q731.874 1856.96 728.796 1861.57 Q725.74 1866.15 719.93 1866.15 Q714.12 1866.15 711.041 1861.57 Q707.986 1856.96 707.986 1848.24 Q707.986 1839.49 711.041 1834.9 Q714.12 1830.3 719.93 1830.3 Z" fill="#000000" fill-rule="evenodd" fill-opacity="1" /><path clip-path="url(#clip250)" d="M1137.48 1861.55 L1153.8 1861.55 L1153.8 1865.48 L1131.86 1865.48 L1131.86 1861.55 Q1134.52 1858.79 1139.1 1854.16 Q1143.71 1849.51 1144.89 1848.17 Q1147.13 1845.65 1148.01 1843.91 Q1148.92 1842.15 1148.92 1840.46 Q1148.92 1837.71 1146.97 1835.97 Q1145.05 1834.23 1141.95 1834.23 Q1139.75 1834.23 1137.3 1835 Q1134.87 1835.76 1132.09 1837.31 L1132.09 1832.59 Q1134.91 1831.46 1137.37 1830.88 Q1139.82 1830.3 1141.86 1830.3 Q1147.23 1830.3 1150.42 1832.98 Q1153.62 1835.67 1153.62 1840.16 Q1153.62 1842.29 1152.81 1844.21 Q1152.02 1846.11 1149.91 1848.7 Q1149.33 1849.37 1146.23 1852.59 Q1143.13 1855.78 1137.48 1861.55 Z" fill="#000000" fill-rule="evenodd" fill-opacity="1" /><path clip-path="url(#clip250)" d="M1163.62 1859.6 L1168.5 1859.6 L1168.5 1865.48 L1163.62 1865.48 L1163.62 1859.6 Z" fill="#000000" fill-rule="evenodd" fill-opacity="1" /><path clip-path="url(#clip250)" d="M1178.73 1830.92 L1197.09 1830.92 L1197.09 1834.86 L1183.01 1834.86 L1183.01 1843.33 Q1184.03 1842.98 1185.05 1842.82 Q1186.07 1842.64 1187.09 1842.64 Q1192.87 1842.64 1196.25 1845.81 Q1199.63 1848.98 1199.63 1854.4 Q1199.63 1859.97 1196.16 1863.08 Q1192.69 1866.15 1186.37 1866.15 Q1184.19 1866.15 1181.93 1865.78 Q1179.68 1865.41 1177.27 1864.67 L1177.27 1859.97 Q1179.36 1861.11 1181.58 1861.66 Q1183.8 1862.22 1186.28 1862.22 Q1190.28 1862.22 1192.62 1860.11 Q1194.96 1858.01 1194.96 1854.4 Q1194.96 1850.78 1192.62 1848.68 Q1190.28 1846.57 1186.28 1846.57 Q1184.4 1846.57 1182.53 1846.99 Q1180.68 1847.4 1178.73 1848.28 L1178.73 1830.92 Z" fill="#000000" fill-rule="evenodd" fill-opacity="1" /><path clip-path="url(#clip250)" d="M1615.31 1846.85 Q1618.67 1847.57 1620.54 1849.84 Q1622.44 1852.1 1622.44 1855.44 Q1622.44 1860.55 1618.92 1863.35 Q1615.4 1866.15 1608.92 1866.15 Q1606.75 1866.15 1604.43 1865.71 Q1602.14 1865.3 1599.69 1864.44 L1599.69 1859.93 Q1601.63 1861.06 1603.94 1861.64 Q1606.26 1862.22 1608.78 1862.22 Q1613.18 1862.22 1615.47 1860.48 Q1617.79 1858.75 1617.79 1855.44 Q1617.79 1852.38 1615.63 1850.67 Q1613.51 1848.93 1609.69 1848.93 L1605.66 1848.93 L1605.66 1845.09 L1609.87 1845.09 Q1613.32 1845.09 1615.15 1843.72 Q1616.98 1842.34 1616.98 1839.74 Q1616.98 1837.08 1615.08 1835.67 Q1613.2 1834.23 1609.69 1834.23 Q1607.76 1834.23 1605.57 1834.65 Q1603.37 1835.07 1600.73 1835.95 L1600.73 1831.78 Q1603.39 1831.04 1605.7 1830.67 Q1608.04 1830.3 1610.1 1830.3 Q1615.43 1830.3 1618.53 1832.73 Q1621.63 1835.14 1621.63 1839.26 Q1621.63 1842.13 1619.99 1844.12 Q1618.34 1846.09 1615.31 1846.85 Z" fill="#000000" fill-rule="evenodd" fill-opacity="1" /><path clip-path="url(#clip250)" d="M1631.31 1859.6 L1636.19 1859.6 L1636.19 1865.48 L1631.31 1865.48 L1631.31 1859.6 Z" fill="#000000" fill-rule="evenodd" fill-opacity="1" /><path clip-path="url(#clip250)" d="M1656.38 1834 Q1652.76 1834 1650.94 1837.57 Q1649.13 1841.11 1649.13 1848.24 Q1649.13 1855.34 1650.94 1858.91 Q1652.76 1862.45 1656.38 1862.45 Q1660.01 1862.45 1661.82 1858.91 Q1663.64 1855.34 1663.64 1848.24 Q1663.64 1841.11 1661.82 1837.57 Q1660.01 1834 1656.38 1834 M1656.38 1830.3 Q1662.19 1830.3 1665.24 1834.9 Q1668.32 1839.49 1668.32 1848.24 Q1668.32 1856.96 1665.24 1861.57 Q1662.19 1866.15 1656.38 1866.15 Q1650.57 1866.15 1647.49 1861.57 Q1644.43 1856.96 1644.43 1848.24 Q1644.43 1839.49 1647.49 1834.9 Q1650.57 1830.3 1656.38 1830.3 Z" fill="#000000" fill-rule="evenodd" fill-opacity="1" /><path clip-path="url(#clip250)" d="M2084.07 1846.85 Q2087.42 1847.57 2089.3 1849.84 Q2091.2 1852.1 2091.2 1855.44 Q2091.2 1860.55 2087.68 1863.35 Q2084.16 1866.15 2077.68 1866.15 Q2075.5 1866.15 2073.19 1865.71 Q2070.89 1865.3 2068.44 1864.44 L2068.44 1859.93 Q2070.39 1861.06 2072.7 1861.64 Q2075.01 1862.22 2077.54 1862.22 Q2081.94 1862.22 2084.23 1860.48 Q2086.54 1858.75 2086.54 1855.44 Q2086.54 1852.38 2084.39 1850.67 Q2082.26 1848.93 2078.44 1848.93 L2074.41 1848.93 L2074.41 1845.09 L2078.63 1845.09 Q2082.07 1845.09 2083.9 1843.72 Q2085.73 1842.34 2085.73 1839.74 Q2085.73 1837.08 2083.83 1835.67 Q2081.96 1834.23 2078.44 1834.23 Q2076.52 1834.23 2074.32 1834.65 Q2072.12 1835.07 2069.48 1835.95 L2069.48 1831.78 Q2072.14 1831.04 2074.46 1830.67 Q2076.8 1830.3 2078.86 1830.3 Q2084.18 1830.3 2087.28 1832.73 Q2090.39 1835.14 2090.39 1839.26 Q2090.39 1842.13 2088.74 1844.12 Q2087.1 1846.09 2084.07 1846.85 Z" fill="#000000" fill-rule="evenodd" fill-opacity="1" /><path clip-path="url(#clip250)" d="M2100.06 1859.6 L2104.95 1859.6 L2104.95 1865.48 L2100.06 1865.48 L2100.06 1859.6 Z" fill="#000000" fill-rule="evenodd" fill-opacity="1" /><path clip-path="url(#clip250)" d="M2115.18 1830.92 L2133.53 1830.92 L2133.53 1834.86 L2119.46 1834.86 L2119.46 1843.33 Q2120.48 1842.98 2121.5 1842.82 Q2122.51 1842.64 2123.53 1842.64 Q2129.32 1842.64 2132.7 1845.81 Q2136.08 1848.98 2136.08 1854.4 Q2136.08 1859.97 2132.61 1863.08 Q2129.13 1866.15 2122.82 1866.15 Q2120.64 1866.15 2118.37 1865.78 Q2116.13 1865.41 2113.72 1864.67 L2113.72 1859.97 Q2115.8 1861.11 2118.02 1861.66 Q2120.25 1862.22 2122.72 1862.22 Q2126.73 1862.22 2129.07 1860.11 Q2131.4 1858.01 2131.4 1854.4 Q2131.4 1850.78 2129.07 1848.68 Q2126.73 1846.57 2122.72 1846.57 Q2120.85 1846.57 2118.97 1846.99 Q2117.12 1847.4 2115.18 1848.28 L2115.18 1830.92 Z" fill="#000000" fill-rule="evenodd" fill-opacity="1" /><path clip-path="url(#clip250)" d="M2551.15 1835 L2539.35 1853.45 L2551.15 1853.45 L2551.15 1835 M2549.93 1830.92 L2555.81 1830.92 L2555.81 1853.45 L2560.74 1853.45 L2560.74 1857.34 L2555.81 1857.34 L2555.81 1865.48 L2551.15 1865.48 L2551.15 1857.34 L2535.55 1857.34 L2535.55 1852.82 L2549.93 1830.92 Z" fill="#000000" fill-rule="evenodd" fill-opacity="1" /><path clip-path="url(#clip250)" d="M2568.47 1859.6 L2573.35 1859.6 L2573.35 1865.48 L2568.47 1865.48 L2568.47 1859.6 Z" fill="#000000" fill-rule="evenodd" fill-opacity="1" /><path clip-path="url(#clip250)" d="M2593.54 1834 Q2589.93 1834 2588.1 1837.57 Q2586.29 1841.11 2586.29 1848.24 Q2586.29 1855.34 2588.1 1858.91 Q2589.93 1862.45 2593.54 1862.45 Q2597.17 1862.45 2598.98 1858.91 Q2600.81 1855.34 2600.81 1848.24 Q2600.81 1841.11 2598.98 1837.57 Q2597.17 1834 2593.54 1834 M2593.54 1830.3 Q2599.35 1830.3 2602.4 1834.9 Q2605.48 1839.49 2605.48 1848.24 Q2605.48 1856.96 2602.4 1861.57 Q2599.35 1866.15 2593.54 1866.15 Q2587.73 1866.15 2584.65 1861.57 Q2581.59 1856.96 2581.59 1848.24 Q2581.59 1839.49 2584.65 1834.9 Q2587.73 1830.3 2593.54 1830.3 Z" fill="#000000" fill-rule="evenodd" fill-opacity="1" /><polyline clip-path="url(#clip252)" style="stroke:#000000; stroke-linecap:butt; stroke-linejoin:round; stroke-width:2; stroke-opacity:0.1; fill:none" points="
  158.992,1581.61 2640.76,1581.61 
  "/>
<polyline clip-path="url(#clip252)" style="stroke:#000000; stroke-linecap:butt; stroke-linejoin:round; stroke-width:2; stroke-opacity:0.1; fill:none" points="
  158.992,1086.7 2640.76,1086.7 
  "/>
<polyline clip-path="url(#clip252)" style="stroke:#000000; stroke-linecap:butt; stroke-linejoin:round; stroke-width:2; stroke-opacity:0.1; fill:none" points="
  158.992,591.784 2640.76,591.784 
  "/>
<polyline clip-path="url(#clip252)" style="stroke:#000000; stroke-linecap:butt; stroke-linejoin:round; stroke-width:2; stroke-opacity:0.1; fill:none" points="
  158.992,96.8724 2640.76,96.8724 
  "/>
<polyline clip-path="url(#clip250)" style="stroke:#000000; stroke-linecap:butt; stroke-linejoin:round; stroke-width:4; stroke-opacity:1; fill:none" points="
  158.992,1800.78 158.992,47.2441 
  "/>
<polyline clip-path="url(#clip250)" style="stroke:#000000; stroke-linecap:butt; stroke-linejoin:round; stroke-width:4; stroke-opacity:1; fill:none" points="
  158.992,1581.61 177.89,1581.61 
  "/>
<polyline clip-path="url(#clip250)" style="stroke:#000000; stroke-linecap:butt; stroke-linejoin:round; stroke-width:4; stroke-opacity:1; fill:none" points="
  158.992,1086.7 177.89,1086.7 
  "/>
<polyline clip-path="url(#clip250)" style="stroke:#000000; stroke-linecap:butt; stroke-linejoin:round; stroke-width:4; stroke-opacity:1; fill:none" points="
  158.992,591.784 177.89,591.784 
  "/>
<polyline clip-path="url(#clip250)" style="stroke:#000000; stroke-linecap:butt; stroke-linejoin:round; stroke-width:4; stroke-opacity:1; fill:none" points="
  158.992,96.8724 177.89,96.8724 
  "/>
<path clip-path="url(#clip250)" d="M61.4965 1567.41 Q57.8854 1567.41 56.0567 1570.97 Q54.2512 1574.51 54.2512 1581.64 Q54.2512 1588.75 56.0567 1592.31 Q57.8854 1595.86 61.4965 1595.86 Q65.1307 1595.86 66.9363 1592.31 Q68.765 1588.75 68.765 1581.64 Q68.765 1574.51 66.9363 1570.97 Q65.1307 1567.41 61.4965 1567.41 M61.4965 1563.7 Q67.3067 1563.7 70.3622 1568.31 Q73.4409 1572.89 73.4409 1581.64 Q73.4409 1590.37 70.3622 1594.98 Q67.3067 1599.56 61.4965 1599.56 Q55.6864 1599.56 52.6077 1594.98 Q49.5521 1590.37 49.5521 1581.64 Q49.5521 1572.89 52.6077 1568.31 Q55.6864 1563.7 61.4965 1563.7 Z" fill="#000000" fill-rule="evenodd" fill-opacity="1" /><path clip-path="url(#clip250)" d="M81.6584 1593.01 L86.5427 1593.01 L86.5427 1598.89 L81.6584 1598.89 L81.6584 1593.01 Z" fill="#000000" fill-rule="evenodd" fill-opacity="1" /><path clip-path="url(#clip250)" d="M106.728 1567.41 Q103.117 1567.41 101.288 1570.97 Q99.4824 1574.51 99.4824 1581.64 Q99.4824 1588.75 101.288 1592.31 Q103.117 1595.86 106.728 1595.86 Q110.362 1595.86 112.168 1592.31 Q113.996 1588.75 113.996 1581.64 Q113.996 1574.51 112.168 1570.97 Q110.362 1567.41 106.728 1567.41 M106.728 1563.7 Q112.538 1563.7 115.593 1568.31 Q118.672 1572.89 118.672 1581.64 Q118.672 1590.37 115.593 1594.98 Q112.538 1599.56 106.728 1599.56 Q100.918 1599.56 97.8389 1594.98 Q94.7834 1590.37 94.7834 1581.64 Q94.7834 1572.89 97.8389 1568.31 Q100.918 1563.7 106.728 1563.7 Z" fill="#000000" fill-rule="evenodd" fill-opacity="1" /><path clip-path="url(#clip250)" d="M62.4919 1072.49 Q58.8808 1072.49 57.0521 1076.06 Q55.2465 1079.6 55.2465 1086.73 Q55.2465 1093.84 57.0521 1097.4 Q58.8808 1100.94 62.4919 1100.94 Q66.1261 1100.94 67.9317 1097.4 Q69.7604 1093.84 69.7604 1086.73 Q69.7604 1079.6 67.9317 1076.06 Q66.1261 1072.49 62.4919 1072.49 M62.4919 1068.79 Q68.302 1068.79 71.3576 1073.4 Q74.4363 1077.98 74.4363 1086.73 Q74.4363 1095.46 71.3576 1100.06 Q68.302 1104.65 62.4919 1104.65 Q56.6817 1104.65 53.603 1100.06 Q50.5475 1095.46 50.5475 1086.73 Q50.5475 1077.98 53.603 1073.4 Q56.6817 1068.79 62.4919 1068.79 Z" fill="#000000" fill-rule="evenodd" fill-opacity="1" /><path clip-path="url(#clip250)" d="M82.6538 1098.1 L87.538 1098.1 L87.538 1103.98 L82.6538 1103.98 L82.6538 1098.1 Z" fill="#000000" fill-rule="evenodd" fill-opacity="1" /><path clip-path="url(#clip250)" d="M97.7695 1069.42 L116.126 1069.42 L116.126 1073.35 L102.052 1073.35 L102.052 1081.82 Q103.07 1081.48 104.089 1081.31 Q105.107 1081.13 106.126 1081.13 Q111.913 1081.13 115.293 1084.3 Q118.672 1087.47 118.672 1092.89 Q118.672 1098.47 115.2 1101.57 Q111.728 1104.65 105.408 1104.65 Q103.232 1104.65 100.964 1104.28 Q98.7185 1103.91 96.3111 1103.17 L96.3111 1098.47 Q98.3945 1099.6 100.617 1100.16 Q102.839 1100.71 105.316 1100.71 Q109.32 1100.71 111.658 1098.61 Q113.996 1096.5 113.996 1092.89 Q113.996 1089.28 111.658 1087.17 Q109.32 1085.06 105.316 1085.06 Q103.441 1085.06 101.566 1085.48 Q99.7139 1085.9 97.7695 1086.78 L97.7695 1069.42 Z" fill="#000000" fill-rule="evenodd" fill-opacity="1" /><path clip-path="url(#clip250)" d="M52.3067 605.129 L59.9456 605.129 L59.9456 578.763 L51.6354 580.43 L51.6354 576.171 L59.8993 574.504 L64.5752 574.504 L64.5752 605.129 L72.214 605.129 L72.214 609.064 L52.3067 609.064 L52.3067 605.129 Z" fill="#000000" fill-rule="evenodd" fill-opacity="1" /><path clip-path="url(#clip250)" d="M81.6584 603.185 L86.5427 603.185 L86.5427 609.064 L81.6584 609.064 L81.6584 603.185 Z" fill="#000000" fill-rule="evenodd" fill-opacity="1" /><path clip-path="url(#clip250)" d="M106.728 577.583 Q103.117 577.583 101.288 581.148 Q99.4824 584.689 99.4824 591.819 Q99.4824 598.925 101.288 602.49 Q103.117 606.032 106.728 606.032 Q110.362 606.032 112.168 602.49 Q113.996 598.925 113.996 591.819 Q113.996 584.689 112.168 581.148 Q110.362 577.583 106.728 577.583 M106.728 573.879 Q112.538 573.879 115.593 578.486 Q118.672 583.069 118.672 591.819 Q118.672 600.546 115.593 605.152 Q112.538 609.736 106.728 609.736 Q100.918 609.736 97.8389 605.152 Q94.7834 600.546 94.7834 591.819 Q94.7834 583.069 97.8389 578.486 Q100.918 573.879 106.728 573.879 Z" fill="#000000" fill-rule="evenodd" fill-opacity="1" /><path clip-path="url(#clip250)" d="M53.3021 110.217 L60.941 110.217 L60.941 83.8517 L52.6308 85.5183 L52.6308 81.2591 L60.8947 79.5924 L65.5706 79.5924 L65.5706 110.217 L73.2094 110.217 L73.2094 114.152 L53.3021 114.152 L53.3021 110.217 Z" fill="#000000" fill-rule="evenodd" fill-opacity="1" /><path clip-path="url(#clip250)" d="M82.6538 108.273 L87.538 108.273 L87.538 114.152 L82.6538 114.152 L82.6538 108.273 Z" fill="#000000" fill-rule="evenodd" fill-opacity="1" /><path clip-path="url(#clip250)" d="M97.7695 79.5924 L116.126 79.5924 L116.126 83.5276 L102.052 83.5276 L102.052 91.9998 Q103.07 91.6526 104.089 91.4905 Q105.107 91.3053 106.126 91.3053 Q111.913 91.3053 115.293 94.4766 Q118.672 97.6479 118.672 103.065 Q118.672 108.643 115.2 111.745 Q111.728 114.824 105.408 114.824 Q103.232 114.824 100.964 114.453 Q98.7185 114.083 96.3111 113.342 L96.3111 108.643 Q98.3945 109.777 100.617 110.333 Q102.839 110.889 105.316 110.889 Q109.32 110.889 111.658 108.782 Q113.996 106.676 113.996 103.065 Q113.996 99.4535 111.658 97.347 Q109.32 95.2405 105.316 95.2405 Q103.441 95.2405 101.566 95.6572 Q99.7139 96.0738 97.7695 96.9535 L97.7695 79.5924 Z" fill="#000000" fill-rule="evenodd" fill-opacity="1" /><polyline clip-path="url(#clip252)" style="stroke:#009af9; stroke-linecap:butt; stroke-linejoin:round; stroke-width:4; stroke-opacity:1; fill:none" points="
  229.231,96.8724 234.947,138.58 240.663,179.15 246.379,218.622 252.095,257.035 278.522,421.86 304.949,567.957 331.376,697.928 357.803,813.916 384.23,917.699 
  410.657,1010.77 437.084,1094.37 463.511,1169.59 495.274,1250.17 527.037,1321.29 558.801,1384.06 590.564,1439.47 644.274,1518.59 697.985,1582.13 756.329,1636.45 
  814.674,1677.92 868.463,1706.52 922.251,1727.21 979.918,1741.79 1037.59,1749.54 1104.4,1751.15 1171.21,1745.92 1289.96,1722.51 1394.1,1689.76 1507.63,1643.56 
  1621.84,1587.99 1748.11,1517.84 1868.26,1444.05 1993.18,1361.26 2098.34,1287.48 2226.72,1193.08 2347.41,1100.61 2540.76,946.111 2570.52,921.725 
  "/>
<path clip-path="url(#clip250)" d="
M2229.85 209.375 L2558.03 209.375 L2558.03 105.695 L2229.85 105.695  Z
  " fill="#ffffff" fill-rule="evenodd" fill-opacity="1"/>
<polyline clip-path="url(#clip250)" style="stroke:#000000; stroke-linecap:butt; stroke-linejoin:round; stroke-width:4; stroke-opacity:1; fill:none" points="
  2229.85,209.375 2558.03,209.375 2558.03,105.695 2229.85,105.695 2229.85,209.375 
  "/>
<polyline clip-path="url(#clip250)" style="stroke:#009af9; stroke-linecap:butt; stroke-linejoin:round; stroke-width:4; stroke-opacity:1; fill:none" points="
  2257.42,157.535 2422.87,157.535 
  "/>
<path clip-path="url(#clip250)" d="M2464.29 177.223 Q2462.49 181.852 2460.77 183.264 Q2459.06 184.676 2456.19 184.676 L2452.79 184.676 L2452.79 181.112 L2455.29 181.112 Q2457.05 181.112 2458.02 180.278 Q2458.99 179.445 2460.17 176.343 L2460.94 174.399 L2450.45 148.889 L2454.96 148.889 L2463.07 169.167 L2471.17 148.889 L2475.68 148.889 L2464.29 177.223 Z" fill="#000000" fill-rule="evenodd" fill-opacity="1" /><path clip-path="url(#clip250)" d="M2482.97 170.88 L2490.61 170.88 L2490.61 144.515 L2482.3 146.181 L2482.3 141.922 L2490.57 140.255 L2495.24 140.255 L2495.24 170.88 L2502.88 170.88 L2502.88 174.815 L2482.97 174.815 L2482.97 170.88 Z" fill="#000000" fill-rule="evenodd" fill-opacity="1" /></svg>
