<?xml version="1.0" encoding="utf-8"?>
<svg xmlns="http://www.w3.org/2000/svg" xmlns:xlink="http://www.w3.org/1999/xlink" width="672" height="480" viewBox="0 0 2688 1920">
<defs>
  <clipPath id="clip170">
    <rect x="0" y="0" width="2688" height="1920"/>
  </clipPath>
</defs>
<path clip-path="url(#clip170)" d="
M0 1920 L2688 1920 L2688 0 L0 0  Z
  " fill="#ffffff" fill-rule="evenodd" fill-opacity="1"/>
<defs>
  <clipPath id="clip171">
    <rect x="537" y="0" width="1883" height="1883"/>
  </clipPath>
</defs>
<path clip-path="url(#clip170)" d="
M181.747 1800.78 L2640.76 1800.78 L2640.76 47.2441 L181.747 47.2441  Z
  " fill="#ffffff" fill-rule="evenodd" fill-opacity="1"/>
<defs>
  <clipPath id="clip172">
    <rect x="181" y="47" width="2460" height="1755"/>
  </clipPath>
</defs>
<polyline clip-path="url(#clip172)" style="stroke:#000000; stroke-linecap:butt; stroke-linejoin:round; stroke-width:2; stroke-opacity:0.1; fill:none" points="
  251.341,1800.78 251.341,47.2441 
  "/>
<polyline clip-path="url(#clip172)" style="stroke:#000000; stroke-linecap:butt; stroke-linejoin:round; stroke-width:2; stroke-opacity:0.1; fill:none" points="
  831.296,1800.78 831.296,47.2441 
  "/>
<polyline clip-path="url(#clip172)" style="stroke:#000000; stroke-linecap:butt; stroke-linejoin:round; stroke-width:2; stroke-opacity:0.1; fill:none" points="
  1411.25,1800.78 1411.25,47.2441 
  "/>
<polyline clip-path="url(#clip172)" style="stroke:#000000; stroke-linecap:butt; stroke-linejoin:round; stroke-width:2; stroke-opacity:0.1; fill:none" points="
  1991.21,1800.78 1991.21,47.2441 
  "/>
<polyline clip-path="url(#clip172)" style="stroke:#000000; stroke-linecap:butt; stroke-linejoin:round; stroke-width:2; stroke-opacity:0.1; fill:none" points="
  2571.16,1800.78 2571.16,47.2441 
  "/>
<polyline clip-path="url(#clip170)" style="stroke:#000000; stroke-linecap:butt; stroke-linejoin:round; stroke-width:4; stroke-opacity:1; fill:none" points="
  181.747,1800.78 2640.76,1800.78 
  "/>
<polyline clip-path="url(#clip170)" style="stroke:#000000; stroke-linecap:butt; stroke-linejoin:round; stroke-width:4; stroke-opacity:1; fill:none" points="
  251.341,1800.78 251.341,1781.88 
  "/>
<polyline clip-path="url(#clip170)" style="stroke:#000000; stroke-linecap:butt; stroke-linejoin:round; stroke-width:4; stroke-opacity:1; fill:none" points="
  831.296,1800.78 831.296,1781.88 
  "/>
<polyline clip-path="url(#clip170)" style="stroke:#000000; stroke-linecap:butt; stroke-linejoin:round; stroke-width:4; stroke-opacity:1; fill:none" points="
  1411.25,1800.78 1411.25,1781.88 
  "/>
<polyline clip-path="url(#clip170)" style="stroke:#000000; stroke-linecap:butt; stroke-linejoin:round; stroke-width:4; stroke-opacity:1; fill:none" points="
  1991.21,1800.78 1991.21,1781.88 
  "/>
<polyline clip-path="url(#clip170)" style="stroke:#000000; stroke-linecap:butt; stroke-linejoin:round; stroke-width:4; stroke-opacity:1; fill:none" points="
  2571.16,1800.78 2571.16,1781.88 
  "/>
<path clip-path="url(#clip170)" d="M205.404 1848.65 L235.08 1848.65 L235.08 1852.59 L205.404 1852.59 L205.404 1848.65 Z" fill="#000000" fill-rule="evenodd" fill-opacity="1" /><path clip-path="url(#clip170)" d="M245.982 1861.55 L253.621 1861.55 L253.621 1835.18 L245.311 1836.85 L245.311 1832.59 L253.575 1830.92 L258.251 1830.92 L258.251 1861.55 L265.89 1861.55 L265.89 1865.48 L245.982 1865.48 L245.982 1861.55 Z" fill="#000000" fill-rule="evenodd" fill-opacity="1" /><path clip-path="url(#clip170)" d="M285.334 1834 Q281.723 1834 279.894 1837.57 Q278.089 1841.11 278.089 1848.24 Q278.089 1855.34 279.894 1858.91 Q281.723 1862.45 285.334 1862.45 Q288.968 1862.45 290.774 1858.91 Q292.603 1855.34 292.603 1848.24 Q292.603 1841.11 290.774 1837.57 Q288.968 1834 285.334 1834 M285.334 1830.3 Q291.144 1830.3 294.2 1834.9 Q297.278 1839.49 297.278 1848.24 Q297.278 1856.96 294.2 1861.57 Q291.144 1866.15 285.334 1866.15 Q279.524 1866.15 276.445 1861.57 Q273.39 1856.96 273.39 1848.24 Q273.39 1839.49 276.445 1834.9 Q279.524 1830.3 285.334 1830.3 Z" fill="#000000" fill-rule="evenodd" fill-opacity="1" /><path clip-path="url(#clip170)" d="M800.938 1848.65 L830.613 1848.65 L830.613 1852.59 L800.938 1852.59 L800.938 1848.65 Z" fill="#000000" fill-rule="evenodd" fill-opacity="1" /><path clip-path="url(#clip170)" d="M840.752 1830.92 L859.109 1830.92 L859.109 1834.86 L845.035 1834.86 L845.035 1843.33 Q846.053 1842.98 847.072 1842.82 Q848.09 1842.64 849.109 1842.64 Q854.896 1842.64 858.275 1845.81 Q861.655 1848.98 861.655 1854.4 Q861.655 1859.97 858.183 1863.08 Q854.71 1866.15 848.391 1866.15 Q846.215 1866.15 843.947 1865.78 Q841.701 1865.41 839.294 1864.67 L839.294 1859.97 Q841.377 1861.11 843.599 1861.66 Q845.822 1862.22 848.298 1862.22 Q852.303 1862.22 854.641 1860.11 Q856.979 1858.01 856.979 1854.4 Q856.979 1850.78 854.641 1848.68 Q852.303 1846.57 848.298 1846.57 Q846.423 1846.57 844.548 1846.99 Q842.697 1847.4 840.752 1848.28 L840.752 1830.92 Z" fill="#000000" fill-rule="evenodd" fill-opacity="1" /><path clip-path="url(#clip170)" d="M1411.25 1834 Q1407.64 1834 1405.81 1837.57 Q1404.01 1841.11 1404.01 1848.24 Q1404.01 1855.34 1405.81 1858.91 Q1407.64 1862.45 1411.25 1862.45 Q1414.89 1862.45 1416.69 1858.91 Q1418.52 1855.34 1418.52 1848.24 Q1418.52 1841.11 1416.69 1837.57 Q1414.89 1834 1411.25 1834 M1411.25 1830.3 Q1417.06 1830.3 1420.12 1834.9 Q1423.2 1839.49 1423.2 1848.24 Q1423.2 1856.96 1420.12 1861.57 Q1417.06 1866.15 1411.25 1866.15 Q1405.44 1866.15 1402.36 1861.57 Q1399.31 1856.96 1399.31 1848.24 Q1399.31 1839.49 1402.36 1834.9 Q1405.44 1830.3 1411.25 1830.3 Z" fill="#000000" fill-rule="evenodd" fill-opacity="1" /><path clip-path="url(#clip170)" d="M1981.48 1830.92 L1999.84 1830.92 L1999.84 1834.86 L1985.77 1834.86 L1985.77 1843.33 Q1986.79 1842.98 1987.8 1842.82 Q1988.82 1842.64 1989.84 1842.64 Q1995.63 1842.64 1999.01 1845.81 Q2002.39 1848.98 2002.39 1854.4 Q2002.39 1859.97 1998.91 1863.08 Q1995.44 1866.15 1989.12 1866.15 Q1986.95 1866.15 1984.68 1865.78 Q1982.43 1865.41 1980.03 1864.67 L1980.03 1859.97 Q1982.11 1861.11 1984.33 1861.66 Q1986.55 1862.22 1989.03 1862.22 Q1993.03 1862.22 1995.37 1860.11 Q1997.71 1858.01 1997.71 1854.4 Q1997.71 1850.78 1995.37 1848.68 Q1993.03 1846.57 1989.03 1846.57 Q1987.16 1846.57 1985.28 1846.99 Q1983.43 1847.4 1981.48 1848.28 L1981.48 1830.92 Z" fill="#000000" fill-rule="evenodd" fill-opacity="1" /><path clip-path="url(#clip170)" d="M2545.85 1861.55 L2553.49 1861.55 L2553.49 1835.18 L2545.18 1836.85 L2545.18 1832.59 L2553.44 1830.92 L2558.12 1830.92 L2558.12 1861.55 L2565.76 1861.55 L2565.76 1865.48 L2545.85 1865.48 L2545.85 1861.55 Z" fill="#000000" fill-rule="evenodd" fill-opacity="1" /><path clip-path="url(#clip170)" d="M2585.2 1834 Q2581.59 1834 2579.76 1837.57 Q2577.96 1841.11 2577.96 1848.24 Q2577.96 1855.34 2579.76 1858.91 Q2581.59 1862.45 2585.2 1862.45 Q2588.83 1862.45 2590.64 1858.91 Q2592.47 1855.34 2592.47 1848.24 Q2592.47 1841.11 2590.64 1837.57 Q2588.83 1834 2585.2 1834 M2585.2 1830.3 Q2591.01 1830.3 2594.07 1834.9 Q2597.14 1839.49 2597.14 1848.24 Q2597.14 1856.96 2594.07 1861.57 Q2591.01 1866.15 2585.2 1866.15 Q2579.39 1866.15 2576.31 1861.57 Q2573.26 1856.96 2573.26 1848.24 Q2573.26 1839.49 2576.31 1834.9 Q2579.39 1830.3 2585.2 1830.3 Z" fill="#000000" fill-rule="evenodd" fill-opacity="1" /><polyline clip-path="url(#clip172)" style="stroke:#000000; stroke-linecap:butt; stroke-linejoin:round; stroke-width:2; stroke-opacity:0.1; fill:none" points="
  181.747,1768.75 2640.76,1768.75 
  "/>
<polyline clip-path="url(#clip172)" style="stroke:#000000; stroke-linecap:butt; stroke-linejoin:round; stroke-width:2; stroke-opacity:0.1; fill:none" points="
  181.747,1343.81 2640.76,1343.81 
  "/>
<polyline clip-path="url(#clip172)" style="stroke:#000000; stroke-linecap:butt; stroke-linejoin:round; stroke-width:2; stroke-opacity:0.1; fill:none" points="
  181.747,918.871 2640.76,918.871 
  "/>
<polyline clip-path="url(#clip172)" style="stroke:#000000; stroke-linecap:butt; stroke-linejoin:round; stroke-width:2; stroke-opacity:0.1; fill:none" points="
  181.747,493.93 2640.76,493.93 
  "/>
<polyline clip-path="url(#clip172)" style="stroke:#000000; stroke-linecap:butt; stroke-linejoin:round; stroke-width:2; stroke-opacity:0.1; fill:none" points="
  181.747,68.9889 2640.76,68.9889 
  "/>
<polyline clip-path="url(#clip170)" style="stroke:#000000; stroke-linecap:butt; stroke-linejoin:round; stroke-width:4; stroke-opacity:1; fill:none" points="
  181.747,1800.78 181.747,47.2441 
  "/>
<polyline clip-path="url(#clip170)" style="stroke:#000000; stroke-linecap:butt; stroke-linejoin:round; stroke-width:4; stroke-opacity:1; fill:none" points="
  181.747,1768.75 200.644,1768.75 
  "/>
<polyline clip-path="url(#clip170)" style="stroke:#000000; stroke-linecap:butt; stroke-linejoin:round; stroke-width:4; stroke-opacity:1; fill:none" points="
  181.747,1343.81 200.644,1343.81 
  "/>
<polyline clip-path="url(#clip170)" style="stroke:#000000; stroke-linecap:butt; stroke-linejoin:round; stroke-width:4; stroke-opacity:1; fill:none" points="
  181.747,918.871 200.644,918.871 
  "/>
<polyline clip-path="url(#clip170)" style="stroke:#000000; stroke-linecap:butt; stroke-linejoin:round; stroke-width:4; stroke-opacity:1; fill:none" points="
  181.747,493.93 200.644,493.93 
  "/>
<polyline clip-path="url(#clip170)" style="stroke:#000000; stroke-linecap:butt; stroke-linejoin:round; stroke-width:4; stroke-opacity:1; fill:none" points="
  181.747,68.9889 200.644,68.9889 
  "/>
<path clip-path="url(#clip170)" d="M49.5521 1769.2 L79.2279 1769.2 L79.2279 1773.14 L49.5521 1773.14 L49.5521 1769.2 Z" fill="#000000" fill-rule="evenodd" fill-opacity="1" /><path clip-path="url(#clip170)" d="M93.3482 1782.1 L109.668 1782.1 L109.668 1786.03 L87.7232 1786.03 L87.7232 1782.1 Q90.3852 1779.34 94.9685 1774.71 Q99.575 1770.06 100.756 1768.72 Q103.001 1766.2 103.881 1764.46 Q104.783 1762.7 104.783 1761.01 Q104.783 1758.26 102.839 1756.52 Q100.918 1754.78 97.8158 1754.78 Q95.6167 1754.78 93.163 1755.55 Q90.7325 1756.31 87.9547 1757.86 L87.9547 1753.14 Q90.7788 1752.01 93.2324 1751.43 Q95.6861 1750.85 97.7232 1750.85 Q103.094 1750.85 106.288 1753.53 Q109.482 1756.22 109.482 1760.71 Q109.482 1762.84 108.672 1764.76 Q107.885 1766.66 105.779 1769.25 Q105.2 1769.92 102.098 1773.14 Q98.9963 1776.33 93.3482 1782.1 Z" fill="#000000" fill-rule="evenodd" fill-opacity="1" /><path clip-path="url(#clip170)" d="M129.482 1754.55 Q125.871 1754.55 124.042 1758.12 Q122.237 1761.66 122.237 1768.79 Q122.237 1775.89 124.042 1779.46 Q125.871 1783 129.482 1783 Q133.116 1783 134.922 1779.46 Q136.751 1775.89 136.751 1768.79 Q136.751 1761.66 134.922 1758.12 Q133.116 1754.55 129.482 1754.55 M129.482 1750.85 Q135.292 1750.85 138.348 1755.45 Q141.427 1760.04 141.427 1768.79 Q141.427 1777.51 138.348 1782.12 Q135.292 1786.7 129.482 1786.7 Q123.672 1786.7 120.593 1782.12 Q117.538 1777.51 117.538 1768.79 Q117.538 1760.04 120.593 1755.45 Q123.672 1750.85 129.482 1750.85 Z" fill="#000000" fill-rule="evenodd" fill-opacity="1" /><path clip-path="url(#clip170)" d="M49.5521 1344.26 L79.2279 1344.26 L79.2279 1348.2 L49.5521 1348.2 L49.5521 1344.26 Z" fill="#000000" fill-rule="evenodd" fill-opacity="1" /><path clip-path="url(#clip170)" d="M90.1306 1357.16 L97.7695 1357.16 L97.7695 1330.79 L89.4593 1332.46 L89.4593 1328.2 L97.7232 1326.53 L102.399 1326.53 L102.399 1357.16 L110.038 1357.16 L110.038 1361.09 L90.1306 1361.09 L90.1306 1357.16 Z" fill="#000000" fill-rule="evenodd" fill-opacity="1" /><path clip-path="url(#clip170)" d="M129.482 1329.61 Q125.871 1329.61 124.042 1333.18 Q122.237 1336.72 122.237 1343.85 Q122.237 1350.95 124.042 1354.52 Q125.871 1358.06 129.482 1358.06 Q133.116 1358.06 134.922 1354.52 Q136.751 1350.95 136.751 1343.85 Q136.751 1336.72 134.922 1333.18 Q133.116 1329.61 129.482 1329.61 M129.482 1325.91 Q135.292 1325.91 138.348 1330.51 Q141.427 1335.1 141.427 1343.85 Q141.427 1352.57 138.348 1357.18 Q135.292 1361.76 129.482 1361.76 Q123.672 1361.76 120.593 1357.18 Q117.538 1352.57 117.538 1343.85 Q117.538 1335.1 120.593 1330.51 Q123.672 1325.91 129.482 1325.91 Z" fill="#000000" fill-rule="evenodd" fill-opacity="1" /><path clip-path="url(#clip170)" d="M129.482 904.67 Q125.871 904.67 124.042 908.235 Q122.237 911.776 122.237 918.906 Q122.237 926.012 124.042 929.577 Q125.871 933.119 129.482 933.119 Q133.116 933.119 134.922 929.577 Q136.751 926.012 136.751 918.906 Q136.751 911.776 134.922 908.235 Q133.116 904.67 129.482 904.67 M129.482 900.966 Q135.292 900.966 138.348 905.573 Q141.427 910.156 141.427 918.906 Q141.427 927.633 138.348 932.239 Q135.292 936.822 129.482 936.822 Q123.672 936.822 120.593 932.239 Q117.538 927.633 117.538 918.906 Q117.538 910.156 120.593 905.573 Q123.672 900.966 129.482 900.966 Z" fill="#000000" fill-rule="evenodd" fill-opacity="1" /><path clip-path="url(#clip170)" d="M90.1306 507.275 L97.7695 507.275 L97.7695 480.909 L89.4593 482.576 L89.4593 478.317 L97.7232 476.65 L102.399 476.65 L102.399 507.275 L110.038 507.275 L110.038 511.21 L90.1306 511.21 L90.1306 507.275 Z" fill="#000000" fill-rule="evenodd" fill-opacity="1" /><path clip-path="url(#clip170)" d="M129.482 479.729 Q125.871 479.729 124.042 483.293 Q122.237 486.835 122.237 493.965 Q122.237 501.071 124.042 504.636 Q125.871 508.178 129.482 508.178 Q133.116 508.178 134.922 504.636 Q136.751 501.071 136.751 493.965 Q136.751 486.835 134.922 483.293 Q133.116 479.729 129.482 479.729 M129.482 476.025 Q135.292 476.025 138.348 480.631 Q141.427 485.215 141.427 493.965 Q141.427 502.692 138.348 507.298 Q135.292 511.881 129.482 511.881 Q123.672 511.881 120.593 507.298 Q117.538 502.692 117.538 493.965 Q117.538 485.215 120.593 480.631 Q123.672 476.025 129.482 476.025 Z" fill="#000000" fill-rule="evenodd" fill-opacity="1" /><path clip-path="url(#clip170)" d="M93.3482 82.3337 L109.668 82.3337 L109.668 86.2689 L87.7232 86.2689 L87.7232 82.3337 Q90.3852 79.5791 94.9685 74.9495 Q99.575 70.2967 100.756 68.9541 Q103.001 66.431 103.881 64.6949 Q104.783 62.9356 104.783 61.2458 Q104.783 58.4912 102.839 56.7551 Q100.918 55.019 97.8158 55.019 Q95.6167 55.019 93.163 55.7829 Q90.7325 56.5468 87.9547 58.0977 L87.9547 53.3755 Q90.7788 52.2413 93.2324 51.6626 Q95.6861 51.0839 97.7232 51.0839 Q103.094 51.0839 106.288 53.769 Q109.482 56.4542 109.482 60.9449 Q109.482 63.0745 108.672 64.9958 Q107.885 66.894 105.779 69.4865 Q105.2 70.1578 102.098 73.3754 Q98.9963 76.5698 93.3482 82.3337 Z" fill="#000000" fill-rule="evenodd" fill-opacity="1" /><path clip-path="url(#clip170)" d="M129.482 54.7875 Q125.871 54.7875 124.042 58.3523 Q122.237 61.894 122.237 69.0236 Q122.237 76.13 124.042 79.6948 Q125.871 83.2365 129.482 83.2365 Q133.116 83.2365 134.922 79.6948 Q136.751 76.13 136.751 69.0236 Q136.751 61.894 134.922 58.3523 Q133.116 54.7875 129.482 54.7875 M129.482 51.0839 Q135.292 51.0839 138.348 55.6903 Q141.427 60.2736 141.427 69.0236 Q141.427 77.7504 138.348 82.3568 Q135.292 86.9402 129.482 86.9402 Q123.672 86.9402 120.593 82.3568 Q117.538 77.7504 117.538 69.0236 Q117.538 60.2736 120.593 55.6903 Q123.672 51.0839 129.482 51.0839 Z" fill="#000000" fill-rule="evenodd" fill-opacity="1" /><polyline clip-path="url(#clip172)" style="stroke:#009af9; stroke-linecap:butt; stroke-linejoin:round; stroke-width:4; stroke-opacity:1; fill:none" points="
  251.341,1521.51 266.445,1516.07 406.096,1465.89 490.021,1435.85 560.979,1410.55 638.058,1383.2 709.119,1358.13 785.303,1331.45 873.571,1300.91 952.012,1274.23 
  1020.8,1251.36 1095.79,1227.27 1171.23,1204.47 1212.94,1192.86 1254.64,1182.38 1274.48,1177.95 1294.33,1174.01 1314.17,1170.68 1334.01,1168.16 1354.64,1166.7 
  1375.27,1166.9 1385.58,1167.84 1395.9,1169.53 1406.21,1172.14 1416.52,1175.95 1425.21,1180.35 1433.89,1186.15 1442.57,1193.8 1451.26,1203.92 1455.6,1210.2 
  1459.94,1217.48 1464.28,1225.99 1468.62,1235.99 1472.96,1247.85 1477.3,1262.05 1479.48,1270.23 1481.65,1279.26 1483.82,1289.27 1485.99,1300.42 1488.64,1315.85 
  1491.29,1333.7 1493.94,1354.55 1496.59,1379.17 1497.91,1393.22 1499.24,1408.64 1500.56,1425.63 1501.89,1444.46 1503.21,1465.42 1504.54,1488.88 1505.2,1501.69 
  1505.86,1515.31 1506.53,1529.81 1507.19,1545.29 1507.85,1561.85 1508.51,1579.59 1509.18,1598.65 1509.84,1619.18 1510.5,1641.36 1511.16,1665.38 1511.83,1691.5 
  1512.49,1719.97 1513.15,1751.15 
  "/>
<polyline clip-path="url(#clip172)" style="stroke:#009af9; stroke-linecap:butt; stroke-linejoin:round; stroke-width:4; stroke-opacity:1; fill:none" points="
  1537.67,96.8724 1538.33,153.142 1538.99,203.039 1539.65,247.582 1540.32,287.587 1540.98,323.709 1541.64,356.485 1542.3,386.356 1542.97,413.689 1543.63,438.792 
  1544.29,461.926 1544.95,483.311 1545.62,503.136 1546.28,521.564 1546.94,538.737 1548.27,569.789 1549.59,597.101 1550.26,609.557 1550.92,621.302 1551.58,632.394 
  1552.24,642.886 1553.57,662.248 1554.89,679.708 1556.22,695.526 1557.54,709.919 1558.87,723.064 1560.19,735.114 1562.84,756.413 1565.49,774.627 1568.14,790.354 
  1570.79,804.05 1575.65,824.975 1580.51,841.76 1585.36,855.444 1590.22,866.743 1595.07,876.17 1599.93,884.1 1604.78,890.814 1609.64,896.527 1619.35,905.583 
  1629.06,912.233 1638.77,917.105 1648.48,920.627 1657.45,922.942 1666.42,924.535 1675.39,925.538 1684.36,926.05 1702.3,925.908 1720.23,924.57 1738.4,922.309 
  1756.57,919.351 1774.74,915.85 1792.91,911.917 1833.64,901.929 1874.37,890.783 1911.28,879.991 1948.18,868.721 2032.69,841.676 2110.94,815.624 2188.08,789.333 
  2262.98,763.411 2339.76,736.548 2423.89,706.867 2546.09,663.416 2571.16,654.463 
  "/>
<path clip-path="url(#clip170)" d="
M2233.14 209.375 L2558.79 209.375 L2558.79 105.695 L2233.14 105.695  Z
  " fill="#ffffff" fill-rule="evenodd" fill-opacity="1"/>
<polyline clip-path="url(#clip170)" style="stroke:#000000; stroke-linecap:butt; stroke-linejoin:round; stroke-width:4; stroke-opacity:1; fill:none" points="
  2233.14,209.375 2558.79,209.375 2558.79,105.695 2233.14,105.695 2233.14,209.375 
  "/>
<polyline clip-path="url(#clip170)" style="stroke:#009af9; stroke-linecap:butt; stroke-linejoin:round; stroke-width:4; stroke-opacity:1; fill:none" points="
  2260.46,157.535 2424.39,157.535 
  "/>
<path clip-path="url(#clip170)" d="M2465.56 177.223 Q2463.75 181.852 2462.04 183.264 Q2460.33 184.676 2457.45 184.676 L2454.05 184.676 L2454.05 181.112 L2456.55 181.112 Q2458.31 181.112 2459.28 180.278 Q2460.26 179.445 2461.44 176.343 L2462.2 174.399 L2451.71 148.889 L2456.23 148.889 L2464.33 169.167 L2472.43 148.889 L2476.95 148.889 L2465.56 177.223 Z" fill="#000000" fill-rule="evenodd" fill-opacity="1" /><path clip-path="url(#clip170)" d="M2484.24 170.88 L2491.88 170.88 L2491.88 144.515 L2483.57 146.181 L2483.57 141.922 L2491.83 140.255 L2496.51 140.255 L2496.51 170.88 L2504.14 170.88 L2504.14 174.815 L2484.24 174.815 L2484.24 170.88 Z" fill="#000000" fill-rule="evenodd" fill-opacity="1" /></svg>
