<?xml version="1.0" encoding="utf-8"?>
<svg xmlns="http://www.w3.org/2000/svg" xmlns:xlink="http://www.w3.org/1999/xlink" width="672" height="480" viewBox="0 0 2688 1920">
<defs>
  <clipPath id="clip700">
    <rect x="0" y="0" width="2688" height="1920"/>
  </clipPath>
</defs>
<path clip-path="url(#clip700)" d="
M0 1920 L2688 1920 L2688 0 L0 0  Z
  " fill="#ffffff" fill-rule="evenodd" fill-opacity="1"/>
<defs>
  <clipPath id="clip701">
    <rect x="537" y="0" width="1883" height="1883"/>
  </clipPath>
</defs>
<path clip-path="url(#clip700)" d="
M211.909 1800.78 L2640.76 1800.78 L2640.76 47.2441 L211.909 47.2441  Z
  " fill="#ffffff" fill-rule="evenodd" fill-opacity="1"/>
<defs>
  <clipPath id="clip702">
    <rect x="211" y="47" width="2430" height="1755"/>
  </clipPath>
</defs>
<polyline clip-path="url(#clip702)" style="stroke:#000000; stroke-linecap:butt; stroke-linejoin:round; stroke-width:2; stroke-opacity:0.1; fill:none" points="
  280.649,1800.78 280.649,47.2441 
  "/>
<polyline clip-path="url(#clip702)" style="stroke:#000000; stroke-linecap:butt; stroke-linejoin:round; stroke-width:2; stroke-opacity:0.1; fill:none" points="
  853.491,1800.78 853.491,47.2441 
  "/>
<polyline clip-path="url(#clip702)" style="stroke:#000000; stroke-linecap:butt; stroke-linejoin:round; stroke-width:2; stroke-opacity:0.1; fill:none" points="
  1426.33,1800.78 1426.33,47.2441 
  "/>
<polyline clip-path="url(#clip702)" style="stroke:#000000; stroke-linecap:butt; stroke-linejoin:round; stroke-width:2; stroke-opacity:0.1; fill:none" points="
  1999.17,1800.78 1999.17,47.2441 
  "/>
<polyline clip-path="url(#clip702)" style="stroke:#000000; stroke-linecap:butt; stroke-linejoin:round; stroke-width:2; stroke-opacity:0.1; fill:none" points="
  2572.01,1800.78 2572.01,47.2441 
  "/>
<polyline clip-path="url(#clip700)" style="stroke:#000000; stroke-linecap:butt; stroke-linejoin:round; stroke-width:4; stroke-opacity:1; fill:none" points="
  211.909,1800.78 2640.76,1800.78 
  "/>
<polyline clip-path="url(#clip700)" style="stroke:#000000; stroke-linecap:butt; stroke-linejoin:round; stroke-width:4; stroke-opacity:1; fill:none" points="
  280.649,1800.78 280.649,1781.88 
  "/>
<polyline clip-path="url(#clip700)" style="stroke:#000000; stroke-linecap:butt; stroke-linejoin:round; stroke-width:4; stroke-opacity:1; fill:none" points="
  853.491,1800.78 853.491,1781.88 
  "/>
<polyline clip-path="url(#clip700)" style="stroke:#000000; stroke-linecap:butt; stroke-linejoin:round; stroke-width:4; stroke-opacity:1; fill:none" points="
  1426.33,1800.78 1426.33,1781.88 
  "/>
<polyline clip-path="url(#clip700)" style="stroke:#000000; stroke-linecap:butt; stroke-linejoin:round; stroke-width:4; stroke-opacity:1; fill:none" points="
  1999.17,1800.78 1999.17,1781.88 
  "/>
<polyline clip-path="url(#clip700)" style="stroke:#000000; stroke-linecap:butt; stroke-linejoin:round; stroke-width:4; stroke-opacity:1; fill:none" points="
  2572.01,1800.78 2572.01,1781.88 
  "/>
<path clip-path="url(#clip700)" d="M280.649 1834 Q277.038 1834 275.21 1837.57 Q273.404 1841.11 273.404 1848.24 Q273.404 1855.34 275.21 1858.91 Q277.038 1862.45 280.649 1862.45 Q284.284 1862.45 286.089 1858.91 Q287.918 1855.34 287.918 1848.24 Q287.918 1841.11 286.089 1837.57 Q284.284 1834 280.649 1834 M280.649 1830.3 Q286.46 1830.3 289.515 1834.9 Q292.594 1839.49 292.594 1848.24 Q292.594 1856.96 289.515 1861.57 Q286.46 1866.15 280.649 1866.15 Q274.839 1866.15 271.761 1861.57 Q268.705 1856.96 268.705 1848.24 Q268.705 1839.49 271.761 1834.9 Q274.839 1830.3 280.649 1830.3 Z" fill="#000000" fill-rule="evenodd" fill-opacity="1" /><path clip-path="url(#clip700)" d="M832.762 1861.55 L849.081 1861.55 L849.081 1865.48 L827.137 1865.48 L827.137 1861.55 Q829.799 1858.79 834.382 1854.16 Q838.989 1849.51 840.169 1848.17 Q842.415 1845.65 843.294 1843.91 Q844.197 1842.15 844.197 1840.46 Q844.197 1837.71 842.252 1835.97 Q840.331 1834.23 837.229 1834.23 Q835.03 1834.23 832.577 1835 Q830.146 1835.76 827.368 1837.31 L827.368 1832.59 Q830.192 1831.46 832.646 1830.88 Q835.1 1830.3 837.137 1830.3 Q842.507 1830.3 845.702 1832.98 Q848.896 1835.67 848.896 1840.16 Q848.896 1842.29 848.086 1844.21 Q847.299 1846.11 845.192 1848.7 Q844.614 1849.37 841.512 1852.59 Q838.41 1855.78 832.762 1861.55 Z" fill="#000000" fill-rule="evenodd" fill-opacity="1" /><path clip-path="url(#clip700)" d="M858.942 1830.92 L877.299 1830.92 L877.299 1834.86 L863.225 1834.86 L863.225 1843.33 Q864.243 1842.98 865.262 1842.82 Q866.28 1842.64 867.299 1842.64 Q873.086 1842.64 876.465 1845.81 Q879.845 1848.98 879.845 1854.4 Q879.845 1859.97 876.373 1863.08 Q872.9 1866.15 866.581 1866.15 Q864.405 1866.15 862.137 1865.78 Q859.891 1865.41 857.484 1864.67 L857.484 1859.97 Q859.567 1861.11 861.789 1861.66 Q864.012 1862.22 866.488 1862.22 Q870.493 1862.22 872.831 1860.11 Q875.169 1858.01 875.169 1854.4 Q875.169 1850.78 872.831 1848.68 Q870.493 1846.57 866.488 1846.57 Q864.613 1846.57 862.738 1846.99 Q860.887 1847.4 858.942 1848.28 L858.942 1830.92 Z" fill="#000000" fill-rule="evenodd" fill-opacity="1" /><path clip-path="url(#clip700)" d="M1401.03 1830.92 L1419.39 1830.92 L1419.39 1834.86 L1405.31 1834.86 L1405.31 1843.33 Q1406.33 1842.98 1407.35 1842.82 Q1408.37 1842.64 1409.39 1842.64 Q1415.17 1842.64 1418.55 1845.81 Q1421.93 1848.98 1421.93 1854.4 Q1421.93 1859.97 1418.46 1863.08 Q1414.99 1866.15 1408.67 1866.15 Q1406.49 1866.15 1404.23 1865.78 Q1401.98 1865.41 1399.57 1864.67 L1399.57 1859.97 Q1401.66 1861.11 1403.88 1861.66 Q1406.1 1862.22 1408.58 1862.22 Q1412.58 1862.22 1414.92 1860.11 Q1417.26 1858.01 1417.26 1854.4 Q1417.26 1850.78 1414.92 1848.68 Q1412.58 1846.57 1408.58 1846.57 Q1406.7 1846.57 1404.83 1846.99 Q1402.98 1847.4 1401.03 1848.28 L1401.03 1830.92 Z" fill="#000000" fill-rule="evenodd" fill-opacity="1" /><path clip-path="url(#clip700)" d="M1441.15 1834 Q1437.54 1834 1435.71 1837.57 Q1433.9 1841.11 1433.9 1848.24 Q1433.9 1855.34 1435.71 1858.91 Q1437.54 1862.45 1441.15 1862.45 Q1444.78 1862.45 1446.59 1858.91 Q1448.42 1855.34 1448.42 1848.24 Q1448.42 1841.11 1446.59 1837.57 Q1444.78 1834 1441.15 1834 M1441.15 1830.3 Q1446.96 1830.3 1450.01 1834.9 Q1453.09 1839.49 1453.09 1848.24 Q1453.09 1856.96 1450.01 1861.57 Q1446.96 1866.15 1441.15 1866.15 Q1435.34 1866.15 1432.26 1861.57 Q1429.2 1856.96 1429.2 1848.24 Q1429.2 1839.49 1432.26 1834.9 Q1435.34 1830.3 1441.15 1830.3 Z" fill="#000000" fill-rule="evenodd" fill-opacity="1" /><path clip-path="url(#clip700)" d="M1973.03 1830.92 L1995.25 1830.92 L1995.25 1832.91 L1982.7 1865.48 L1977.82 1865.48 L1989.63 1834.86 L1973.03 1834.86 L1973.03 1830.92 Z" fill="#000000" fill-rule="evenodd" fill-opacity="1" /><path clip-path="url(#clip700)" d="M2004.42 1830.92 L2022.77 1830.92 L2022.77 1834.86 L2008.7 1834.86 L2008.7 1843.33 Q2009.72 1842.98 2010.74 1842.82 Q2011.75 1842.64 2012.77 1842.64 Q2018.56 1842.64 2021.94 1845.81 Q2025.32 1848.98 2025.32 1854.4 Q2025.32 1859.97 2021.85 1863.08 Q2018.37 1866.15 2012.06 1866.15 Q2009.88 1866.15 2007.61 1865.78 Q2005.37 1865.41 2002.96 1864.67 L2002.96 1859.97 Q2005.04 1861.11 2007.26 1861.66 Q2009.49 1862.22 2011.96 1862.22 Q2015.97 1862.22 2018.31 1860.11 Q2020.64 1858.01 2020.64 1854.4 Q2020.64 1850.78 2018.31 1848.68 Q2015.97 1846.57 2011.96 1846.57 Q2010.09 1846.57 2008.21 1846.99 Q2006.36 1847.4 2004.42 1848.28 L2004.42 1830.92 Z" fill="#000000" fill-rule="evenodd" fill-opacity="1" /><path clip-path="url(#clip700)" d="M2531.62 1861.55 L2539.26 1861.55 L2539.26 1835.18 L2530.95 1836.85 L2530.95 1832.59 L2539.21 1830.92 L2543.89 1830.92 L2543.89 1861.55 L2551.53 1861.55 L2551.53 1865.48 L2531.62 1865.48 L2531.62 1861.55 Z" fill="#000000" fill-rule="evenodd" fill-opacity="1" /><path clip-path="url(#clip700)" d="M2570.97 1834 Q2567.36 1834 2565.53 1837.57 Q2563.73 1841.11 2563.73 1848.24 Q2563.73 1855.34 2565.53 1858.91 Q2567.36 1862.45 2570.97 1862.45 Q2574.61 1862.45 2576.41 1858.91 Q2578.24 1855.34 2578.24 1848.24 Q2578.24 1841.11 2576.41 1837.57 Q2574.61 1834 2570.97 1834 M2570.97 1830.3 Q2576.78 1830.3 2579.84 1834.9 Q2582.92 1839.49 2582.92 1848.24 Q2582.92 1856.96 2579.84 1861.57 Q2576.78 1866.15 2570.97 1866.15 Q2565.16 1866.15 2562.08 1861.57 Q2559.03 1856.96 2559.03 1848.24 Q2559.03 1839.49 2562.08 1834.9 Q2565.16 1830.3 2570.97 1830.3 Z" fill="#000000" fill-rule="evenodd" fill-opacity="1" /><path clip-path="url(#clip700)" d="M2601.14 1834 Q2597.52 1834 2595.7 1837.57 Q2593.89 1841.11 2593.89 1848.24 Q2593.89 1855.34 2595.7 1858.91 Q2597.52 1862.45 2601.14 1862.45 Q2604.77 1862.45 2606.57 1858.91 Q2608.4 1855.34 2608.4 1848.24 Q2608.4 1841.11 2606.57 1837.57 Q2604.77 1834 2601.14 1834 M2601.14 1830.3 Q2606.95 1830.3 2610 1834.9 Q2613.08 1839.49 2613.08 1848.24 Q2613.08 1856.96 2610 1861.57 Q2606.95 1866.15 2601.14 1866.15 Q2595.33 1866.15 2592.25 1861.57 Q2589.19 1856.96 2589.19 1848.24 Q2589.19 1839.49 2592.25 1834.9 Q2595.33 1830.3 2601.14 1830.3 Z" fill="#000000" fill-rule="evenodd" fill-opacity="1" /><polyline clip-path="url(#clip702)" style="stroke:#000000; stroke-linecap:butt; stroke-linejoin:round; stroke-width:2; stroke-opacity:0.1; fill:none" points="
  211.909,1530.95 2640.76,1530.95 
  "/>
<polyline clip-path="url(#clip702)" style="stroke:#000000; stroke-linecap:butt; stroke-linejoin:round; stroke-width:2; stroke-opacity:0.1; fill:none" points="
  211.909,1217.04 2640.76,1217.04 
  "/>
<polyline clip-path="url(#clip702)" style="stroke:#000000; stroke-linecap:butt; stroke-linejoin:round; stroke-width:2; stroke-opacity:0.1; fill:none" points="
  211.909,903.13 2640.76,903.13 
  "/>
<polyline clip-path="url(#clip702)" style="stroke:#000000; stroke-linecap:butt; stroke-linejoin:round; stroke-width:2; stroke-opacity:0.1; fill:none" points="
  211.909,589.218 2640.76,589.218 
  "/>
<polyline clip-path="url(#clip702)" style="stroke:#000000; stroke-linecap:butt; stroke-linejoin:round; stroke-width:2; stroke-opacity:0.1; fill:none" points="
  211.909,275.306 2640.76,275.306 
  "/>
<polyline clip-path="url(#clip700)" style="stroke:#000000; stroke-linecap:butt; stroke-linejoin:round; stroke-width:4; stroke-opacity:1; fill:none" points="
  211.909,1800.78 211.909,47.2441 
  "/>
<polyline clip-path="url(#clip700)" style="stroke:#000000; stroke-linecap:butt; stroke-linejoin:round; stroke-width:4; stroke-opacity:1; fill:none" points="
  211.909,1530.95 230.806,1530.95 
  "/>
<polyline clip-path="url(#clip700)" style="stroke:#000000; stroke-linecap:butt; stroke-linejoin:round; stroke-width:4; stroke-opacity:1; fill:none" points="
  211.909,1217.04 230.806,1217.04 
  "/>
<polyline clip-path="url(#clip700)" style="stroke:#000000; stroke-linecap:butt; stroke-linejoin:round; stroke-width:4; stroke-opacity:1; fill:none" points="
  211.909,903.13 230.806,903.13 
  "/>
<polyline clip-path="url(#clip700)" style="stroke:#000000; stroke-linecap:butt; stroke-linejoin:round; stroke-width:4; stroke-opacity:1; fill:none" points="
  211.909,589.218 230.806,589.218 
  "/>
<polyline clip-path="url(#clip700)" style="stroke:#000000; stroke-linecap:butt; stroke-linejoin:round; stroke-width:4; stroke-opacity:1; fill:none" points="
  211.909,275.306 230.806,275.306 
  "/>
<path clip-path="url(#clip700)" d="M49.5521 1531.41 L79.2279 1531.41 L79.2279 1535.34 L49.5521 1535.34 L49.5521 1531.41 Z" fill="#000000" fill-rule="evenodd" fill-opacity="1" /><path clip-path="url(#clip700)" d="M99.3204 1531.82 Q95.9871 1531.82 94.0658 1533.6 Q92.1676 1535.39 92.1676 1538.51 Q92.1676 1541.64 94.0658 1543.42 Q95.9871 1545.2 99.3204 1545.2 Q102.654 1545.2 104.575 1543.42 Q106.496 1541.61 106.496 1538.51 Q106.496 1535.39 104.575 1533.6 Q102.677 1531.82 99.3204 1531.82 M94.6445 1529.83 Q91.6352 1529.09 89.9454 1527.03 Q88.2788 1524.97 88.2788 1522.01 Q88.2788 1517.86 91.2186 1515.46 Q94.1815 1513.05 99.3204 1513.05 Q104.482 1513.05 107.422 1515.46 Q110.362 1517.86 110.362 1522.01 Q110.362 1524.97 108.672 1527.03 Q107.006 1529.09 104.019 1529.83 Q107.399 1530.62 109.274 1532.91 Q111.172 1535.2 111.172 1538.51 Q111.172 1543.53 108.093 1546.22 Q105.038 1548.91 99.3204 1548.91 Q93.6028 1548.91 90.5241 1546.22 Q87.4686 1543.53 87.4686 1538.51 Q87.4686 1535.2 89.3667 1532.91 Q91.2649 1530.62 94.6445 1529.83 M92.9315 1522.45 Q92.9315 1525.13 94.5982 1526.64 Q96.288 1528.14 99.3204 1528.14 Q102.33 1528.14 104.019 1526.64 Q105.732 1525.13 105.732 1522.45 Q105.732 1519.76 104.019 1518.26 Q102.33 1516.75 99.3204 1516.75 Q96.288 1516.75 94.5982 1518.26 Q92.9315 1519.76 92.9315 1522.45 Z" fill="#000000" fill-rule="evenodd" fill-opacity="1" /><path clip-path="url(#clip700)" d="M129.482 1516.75 Q125.871 1516.75 124.042 1520.32 Q122.237 1523.86 122.237 1530.99 Q122.237 1538.09 124.042 1541.66 Q125.871 1545.2 129.482 1545.2 Q133.116 1545.2 134.922 1541.66 Q136.751 1538.09 136.751 1530.99 Q136.751 1523.86 134.922 1520.32 Q133.116 1516.75 129.482 1516.75 M129.482 1513.05 Q135.292 1513.05 138.348 1517.66 Q141.427 1522.24 141.427 1530.99 Q141.427 1539.72 138.348 1544.32 Q135.292 1548.91 129.482 1548.91 Q123.672 1548.91 120.593 1544.32 Q117.538 1539.72 117.538 1530.99 Q117.538 1522.24 120.593 1517.66 Q123.672 1513.05 129.482 1513.05 Z" fill="#000000" fill-rule="evenodd" fill-opacity="1" /><path clip-path="url(#clip700)" d="M159.644 1516.75 Q156.033 1516.75 154.204 1520.32 Q152.399 1523.86 152.399 1530.99 Q152.399 1538.09 154.204 1541.66 Q156.033 1545.2 159.644 1545.2 Q163.278 1545.2 165.084 1541.66 Q166.913 1538.09 166.913 1530.99 Q166.913 1523.86 165.084 1520.32 Q163.278 1516.75 159.644 1516.75 M159.644 1513.05 Q165.454 1513.05 168.51 1517.66 Q171.589 1522.24 171.589 1530.99 Q171.589 1539.72 168.51 1544.32 Q165.454 1548.91 159.644 1548.91 Q153.834 1548.91 150.755 1544.32 Q147.7 1539.72 147.7 1530.99 Q147.7 1522.24 150.755 1517.66 Q153.834 1513.05 159.644 1513.05 Z" fill="#000000" fill-rule="evenodd" fill-opacity="1" /><path clip-path="url(#clip700)" d="M49.5521 1217.49 L79.2279 1217.49 L79.2279 1221.43 L49.5521 1221.43 L49.5521 1217.49 Z" fill="#000000" fill-rule="evenodd" fill-opacity="1" /><path clip-path="url(#clip700)" d="M99.8991 1215.18 Q96.7509 1215.18 94.8991 1217.33 Q93.0704 1219.48 93.0704 1223.23 Q93.0704 1226.96 94.8991 1229.14 Q96.7509 1231.29 99.8991 1231.29 Q103.047 1231.29 104.876 1229.14 Q106.728 1226.96 106.728 1223.23 Q106.728 1219.48 104.876 1217.33 Q103.047 1215.18 99.8991 1215.18 M109.181 1200.53 L109.181 1204.78 Q107.422 1203.95 105.617 1203.51 Q103.834 1203.07 102.075 1203.07 Q97.4454 1203.07 94.9917 1206.2 Q92.5612 1209.32 92.2139 1215.64 Q93.5797 1213.63 95.6398 1212.56 Q97.7 1211.47 100.177 1211.47 Q105.385 1211.47 108.394 1214.65 Q111.427 1217.79 111.427 1223.23 Q111.427 1228.56 108.279 1231.78 Q105.131 1234.99 99.8991 1234.99 Q93.9037 1234.99 90.7325 1230.41 Q87.5612 1225.8 87.5612 1217.08 Q87.5612 1208.88 91.45 1204.02 Q95.3389 1199.14 101.89 1199.14 Q103.649 1199.14 105.431 1199.48 Q107.237 1199.83 109.181 1200.53 Z" fill="#000000" fill-rule="evenodd" fill-opacity="1" /><path clip-path="url(#clip700)" d="M129.482 1202.84 Q125.871 1202.84 124.042 1206.41 Q122.237 1209.95 122.237 1217.08 Q122.237 1224.18 124.042 1227.75 Q125.871 1231.29 129.482 1231.29 Q133.116 1231.29 134.922 1227.75 Q136.751 1224.18 136.751 1217.08 Q136.751 1209.95 134.922 1206.41 Q133.116 1202.84 129.482 1202.84 M129.482 1199.14 Q135.292 1199.14 138.348 1203.74 Q141.427 1208.33 141.427 1217.08 Q141.427 1225.8 138.348 1230.41 Q135.292 1234.99 129.482 1234.99 Q123.672 1234.99 120.593 1230.41 Q117.538 1225.8 117.538 1217.08 Q117.538 1208.33 120.593 1203.74 Q123.672 1199.14 129.482 1199.14 Z" fill="#000000" fill-rule="evenodd" fill-opacity="1" /><path clip-path="url(#clip700)" d="M159.644 1202.84 Q156.033 1202.84 154.204 1206.41 Q152.399 1209.95 152.399 1217.08 Q152.399 1224.18 154.204 1227.75 Q156.033 1231.29 159.644 1231.29 Q163.278 1231.29 165.084 1227.75 Q166.913 1224.18 166.913 1217.08 Q166.913 1209.95 165.084 1206.41 Q163.278 1202.84 159.644 1202.84 M159.644 1199.14 Q165.454 1199.14 168.51 1203.74 Q171.589 1208.33 171.589 1217.08 Q171.589 1225.8 168.51 1230.41 Q165.454 1234.99 159.644 1234.99 Q153.834 1234.99 150.755 1230.41 Q147.7 1225.8 147.7 1217.08 Q147.7 1208.33 150.755 1203.74 Q153.834 1199.14 159.644 1199.14 Z" fill="#000000" fill-rule="evenodd" fill-opacity="1" /><path clip-path="url(#clip700)" d="M49.5521 903.581 L79.2279 903.581 L79.2279 907.516 L49.5521 907.516 L49.5521 903.581 Z" fill="#000000" fill-rule="evenodd" fill-opacity="1" /><path clip-path="url(#clip700)" d="M102.168 889.924 L90.3621 908.373 L102.168 908.373 L102.168 889.924 M100.941 885.85 L106.82 885.85 L106.82 908.373 L111.751 908.373 L111.751 912.262 L106.82 912.262 L106.82 920.41 L102.168 920.41 L102.168 912.262 L86.5658 912.262 L86.5658 907.748 L100.941 885.85 Z" fill="#000000" fill-rule="evenodd" fill-opacity="1" /><path clip-path="url(#clip700)" d="M129.482 888.928 Q125.871 888.928 124.042 892.493 Q122.237 896.035 122.237 903.164 Q122.237 910.271 124.042 913.836 Q125.871 917.377 129.482 917.377 Q133.116 917.377 134.922 913.836 Q136.751 910.271 136.751 903.164 Q136.751 896.035 134.922 892.493 Q133.116 888.928 129.482 888.928 M129.482 885.225 Q135.292 885.225 138.348 889.831 Q141.427 894.414 141.427 903.164 Q141.427 911.891 138.348 916.498 Q135.292 921.081 129.482 921.081 Q123.672 921.081 120.593 916.498 Q117.538 911.891 117.538 903.164 Q117.538 894.414 120.593 889.831 Q123.672 885.225 129.482 885.225 Z" fill="#000000" fill-rule="evenodd" fill-opacity="1" /><path clip-path="url(#clip700)" d="M159.644 888.928 Q156.033 888.928 154.204 892.493 Q152.399 896.035 152.399 903.164 Q152.399 910.271 154.204 913.836 Q156.033 917.377 159.644 917.377 Q163.278 917.377 165.084 913.836 Q166.913 910.271 166.913 903.164 Q166.913 896.035 165.084 892.493 Q163.278 888.928 159.644 888.928 M159.644 885.225 Q165.454 885.225 168.51 889.831 Q171.589 894.414 171.589 903.164 Q171.589 911.891 168.51 916.498 Q165.454 921.081 159.644 921.081 Q153.834 921.081 150.755 916.498 Q147.7 911.891 147.7 903.164 Q147.7 894.414 150.755 889.831 Q153.834 885.225 159.644 885.225 Z" fill="#000000" fill-rule="evenodd" fill-opacity="1" /><path clip-path="url(#clip700)" d="M49.5521 589.669 L79.2279 589.669 L79.2279 593.604 L49.5521 593.604 L49.5521 589.669 Z" fill="#000000" fill-rule="evenodd" fill-opacity="1" /><path clip-path="url(#clip700)" d="M93.3482 602.563 L109.668 602.563 L109.668 606.498 L87.7232 606.498 L87.7232 602.563 Q90.3852 599.808 94.9685 595.178 Q99.575 590.526 100.756 589.183 Q103.001 586.66 103.881 584.924 Q104.783 583.164 104.783 581.475 Q104.783 578.72 102.839 576.984 Q100.918 575.248 97.8158 575.248 Q95.6167 575.248 93.163 576.012 Q90.7325 576.776 87.9547 578.327 L87.9547 573.604 Q90.7788 572.47 93.2324 571.891 Q95.6861 571.313 97.7232 571.313 Q103.094 571.313 106.288 573.998 Q109.482 576.683 109.482 581.174 Q109.482 583.303 108.672 585.225 Q107.885 587.123 105.779 589.715 Q105.2 590.387 102.098 593.604 Q98.9963 596.799 93.3482 602.563 Z" fill="#000000" fill-rule="evenodd" fill-opacity="1" /><path clip-path="url(#clip700)" d="M129.482 575.016 Q125.871 575.016 124.042 578.581 Q122.237 582.123 122.237 589.252 Q122.237 596.359 124.042 599.924 Q125.871 603.465 129.482 603.465 Q133.116 603.465 134.922 599.924 Q136.751 596.359 136.751 589.252 Q136.751 582.123 134.922 578.581 Q133.116 575.016 129.482 575.016 M129.482 571.313 Q135.292 571.313 138.348 575.919 Q141.427 580.502 141.427 589.252 Q141.427 597.979 138.348 602.586 Q135.292 607.169 129.482 607.169 Q123.672 607.169 120.593 602.586 Q117.538 597.979 117.538 589.252 Q117.538 580.502 120.593 575.919 Q123.672 571.313 129.482 571.313 Z" fill="#000000" fill-rule="evenodd" fill-opacity="1" /><path clip-path="url(#clip700)" d="M159.644 575.016 Q156.033 575.016 154.204 578.581 Q152.399 582.123 152.399 589.252 Q152.399 596.359 154.204 599.924 Q156.033 603.465 159.644 603.465 Q163.278 603.465 165.084 599.924 Q166.913 596.359 166.913 589.252 Q166.913 582.123 165.084 578.581 Q163.278 575.016 159.644 575.016 M159.644 571.313 Q165.454 571.313 168.51 575.919 Q171.589 580.502 171.589 589.252 Q171.589 597.979 168.51 602.586 Q165.454 607.169 159.644 607.169 Q153.834 607.169 150.755 602.586 Q147.7 597.979 147.7 589.252 Q147.7 580.502 150.755 575.919 Q153.834 571.313 159.644 571.313 Z" fill="#000000" fill-rule="evenodd" fill-opacity="1" /><path clip-path="url(#clip700)" d="M159.644 261.104 Q156.033 261.104 154.204 264.669 Q152.399 268.211 152.399 275.34 Q152.399 282.447 154.204 286.012 Q156.033 289.553 159.644 289.553 Q163.278 289.553 165.084 286.012 Q166.913 282.447 166.913 275.34 Q166.913 268.211 165.084 264.669 Q163.278 261.104 159.644 261.104 M159.644 257.401 Q165.454 257.401 168.51 262.007 Q171.589 266.59 171.589 275.34 Q171.589 284.067 168.51 288.674 Q165.454 293.257 159.644 293.257 Q153.834 293.257 150.755 288.674 Q147.7 284.067 147.7 275.34 Q147.7 266.59 150.755 262.007 Q153.834 257.401 159.644 257.401 Z" fill="#000000" fill-rule="evenodd" fill-opacity="1" /><polyline clip-path="url(#clip702)" style="stroke:#009af9; stroke-linecap:butt; stroke-linejoin:round; stroke-width:4; stroke-opacity:1; fill:none" points="
  280.649,275.306 303.027,272.653 509.935,248.372 634.278,234.018 739.409,222.042 853.61,209.221 958.893,197.598 1071.77,185.375 1202.55,171.574 1318.76,159.692 
  1420.68,149.626 1531.79,139.105 1643.56,129.103 1767.14,118.907 1884.73,110.311 2006.99,102.964 2109.9,98.5964 2235.55,96.8724 2353.67,101.987 2542.89,176.575 
  2572.01,1751.15 
  "/>
<path clip-path="url(#clip700)" d="
M2237.49 209.375 L2559.79 209.375 L2559.79 105.695 L2237.49 105.695  Z
  " fill="#ffffff" fill-rule="evenodd" fill-opacity="1"/>
<polyline clip-path="url(#clip700)" style="stroke:#000000; stroke-linecap:butt; stroke-linejoin:round; stroke-width:4; stroke-opacity:1; fill:none" points="
  2237.49,209.375 2559.79,209.375 2559.79,105.695 2237.49,105.695 2237.49,209.375 
  "/>
<polyline clip-path="url(#clip700)" style="stroke:#009af9; stroke-linecap:butt; stroke-linejoin:round; stroke-width:4; stroke-opacity:1; fill:none" points="
  2264.48,157.535 2426.4,157.535 
  "/>
<path clip-path="url(#clip700)" d="M2467.23 177.223 Q2465.43 181.852 2463.71 183.264 Q2462 184.676 2459.13 184.676 L2455.73 184.676 L2455.73 181.112 L2458.23 181.112 Q2459.99 181.112 2460.96 180.278 Q2461.93 179.445 2463.11 176.343 L2463.88 174.399 L2453.39 148.889 L2457.9 148.889 L2466.01 169.167 L2474.11 148.889 L2478.62 148.889 L2467.23 177.223 Z" fill="#000000" fill-rule="evenodd" fill-opacity="1" /><path clip-path="url(#clip700)" d="M2485.91 170.88 L2493.55 170.88 L2493.55 144.515 L2485.24 146.181 L2485.24 141.922 L2493.51 140.255 L2498.18 140.255 L2498.18 170.88 L2505.82 170.88 L2505.82 174.815 L2485.91 174.815 L2485.91 170.88 Z" fill="#000000" fill-rule="evenodd" fill-opacity="1" /></svg>
