<?xml version="1.0" encoding="utf-8"?>
<svg xmlns="http://www.w3.org/2000/svg" xmlns:xlink="http://www.w3.org/1999/xlink" width="672" height="480" viewBox="0 0 2688 1920">
<defs>
  <clipPath id="clip390">
    <rect x="0" y="0" width="2688" height="1920"/>
  </clipPath>
</defs>
<path clip-path="url(#clip390)" d="
M0 1920 L2688 1920 L2688 0 L0 0  Z
  " fill="#ffffff" fill-rule="evenodd" fill-opacity="1"/>
<defs>
  <clipPath id="clip391">
    <rect x="537" y="0" width="1883" height="1883"/>
  </clipPath>
</defs>
<path clip-path="url(#clip390)" d="
M242.07 1800.78 L2640.76 1800.78 L2640.76 47.2441 L242.07 47.2441  Z
  " fill="#ffffff" fill-rule="evenodd" fill-opacity="1"/>
<defs>
  <clipPath id="clip392">
    <rect x="242" y="47" width="2400" height="1755"/>
  </clipPath>
</defs>
<polyline clip-path="url(#clip392)" style="stroke:#000000; stroke-linecap:butt; stroke-linejoin:round; stroke-width:2; stroke-opacity:0.1; fill:none" points="
  309.958,1800.78 309.958,47.2441 
  "/>
<polyline clip-path="url(#clip392)" style="stroke:#000000; stroke-linecap:butt; stroke-linejoin:round; stroke-width:2; stroke-opacity:0.1; fill:none" points="
  875.685,1800.78 875.685,47.2441 
  "/>
<polyline clip-path="url(#clip392)" style="stroke:#000000; stroke-linecap:butt; stroke-linejoin:round; stroke-width:2; stroke-opacity:0.1; fill:none" points="
  1441.41,1800.78 1441.41,47.2441 
  "/>
<polyline clip-path="url(#clip392)" style="stroke:#000000; stroke-linecap:butt; stroke-linejoin:round; stroke-width:2; stroke-opacity:0.1; fill:none" points="
  2007.14,1800.78 2007.14,47.2441 
  "/>
<polyline clip-path="url(#clip392)" style="stroke:#000000; stroke-linecap:butt; stroke-linejoin:round; stroke-width:2; stroke-opacity:0.1; fill:none" points="
  2572.87,1800.78 2572.87,47.2441 
  "/>
<polyline clip-path="url(#clip390)" style="stroke:#000000; stroke-linecap:butt; stroke-linejoin:round; stroke-width:4; stroke-opacity:1; fill:none" points="
  242.07,1800.78 2640.76,1800.78 
  "/>
<polyline clip-path="url(#clip390)" style="stroke:#000000; stroke-linecap:butt; stroke-linejoin:round; stroke-width:4; stroke-opacity:1; fill:none" points="
  309.958,1800.78 309.958,1781.88 
  "/>
<polyline clip-path="url(#clip390)" style="stroke:#000000; stroke-linecap:butt; stroke-linejoin:round; stroke-width:4; stroke-opacity:1; fill:none" points="
  875.685,1800.78 875.685,1781.88 
  "/>
<polyline clip-path="url(#clip390)" style="stroke:#000000; stroke-linecap:butt; stroke-linejoin:round; stroke-width:4; stroke-opacity:1; fill:none" points="
  1441.41,1800.78 1441.41,1781.88 
  "/>
<polyline clip-path="url(#clip390)" style="stroke:#000000; stroke-linecap:butt; stroke-linejoin:round; stroke-width:4; stroke-opacity:1; fill:none" points="
  2007.14,1800.78 2007.14,1781.88 
  "/>
<polyline clip-path="url(#clip390)" style="stroke:#000000; stroke-linecap:butt; stroke-linejoin:round; stroke-width:4; stroke-opacity:1; fill:none" points="
  2572.87,1800.78 2572.87,1781.88 
  "/>
<path clip-path="url(#clip390)" d="M264.02 1848.65 L293.696 1848.65 L293.696 1852.59 L264.02 1852.59 L264.02 1848.65 Z" fill="#000000" fill-rule="evenodd" fill-opacity="1" /><path clip-path="url(#clip390)" d="M304.599 1861.55 L312.238 1861.55 L312.238 1835.18 L303.928 1836.85 L303.928 1832.59 L312.191 1830.92 L316.867 1830.92 L316.867 1861.55 L324.506 1861.55 L324.506 1865.48 L304.599 1865.48 L304.599 1861.55 Z" fill="#000000" fill-rule="evenodd" fill-opacity="1" /><path clip-path="url(#clip390)" d="M343.951 1834 Q340.339 1834 338.511 1837.57 Q336.705 1841.11 336.705 1848.24 Q336.705 1855.34 338.511 1858.91 Q340.339 1862.45 343.951 1862.45 Q347.585 1862.45 349.39 1858.91 Q351.219 1855.34 351.219 1848.24 Q351.219 1841.11 349.39 1837.57 Q347.585 1834 343.951 1834 M343.951 1830.3 Q349.761 1830.3 352.816 1834.9 Q355.895 1839.49 355.895 1848.24 Q355.895 1856.96 352.816 1861.57 Q349.761 1866.15 343.951 1866.15 Q338.14 1866.15 335.062 1861.57 Q332.006 1856.96 332.006 1848.24 Q332.006 1839.49 335.062 1834.9 Q338.14 1830.3 343.951 1830.3 Z" fill="#000000" fill-rule="evenodd" fill-opacity="1" /><path clip-path="url(#clip390)" d="M845.327 1848.65 L875.003 1848.65 L875.003 1852.59 L845.327 1852.59 L845.327 1848.65 Z" fill="#000000" fill-rule="evenodd" fill-opacity="1" /><path clip-path="url(#clip390)" d="M885.141 1830.92 L903.498 1830.92 L903.498 1834.86 L889.424 1834.86 L889.424 1843.33 Q890.442 1842.98 891.461 1842.82 Q892.479 1842.64 893.498 1842.64 Q899.285 1842.64 902.664 1845.81 Q906.044 1848.98 906.044 1854.4 Q906.044 1859.97 902.572 1863.08 Q899.1 1866.15 892.78 1866.15 Q890.604 1866.15 888.336 1865.78 Q886.09 1865.41 883.683 1864.67 L883.683 1859.97 Q885.766 1861.11 887.989 1861.66 Q890.211 1862.22 892.688 1862.22 Q896.692 1862.22 899.03 1860.11 Q901.368 1858.01 901.368 1854.4 Q901.368 1850.78 899.03 1848.68 Q896.692 1846.57 892.688 1846.57 Q890.813 1846.57 888.938 1846.99 Q887.086 1847.4 885.141 1848.28 L885.141 1830.92 Z" fill="#000000" fill-rule="evenodd" fill-opacity="1" /><path clip-path="url(#clip390)" d="M1441.41 1834 Q1437.8 1834 1435.97 1837.57 Q1434.17 1841.11 1434.17 1848.24 Q1434.17 1855.34 1435.97 1858.91 Q1437.8 1862.45 1441.41 1862.45 Q1445.05 1862.45 1446.85 1858.91 Q1448.68 1855.34 1448.68 1848.24 Q1448.68 1841.11 1446.85 1837.57 Q1445.05 1834 1441.41 1834 M1441.41 1830.3 Q1447.22 1830.3 1450.28 1834.9 Q1453.36 1839.49 1453.36 1848.24 Q1453.36 1856.96 1450.28 1861.57 Q1447.22 1866.15 1441.41 1866.15 Q1435.6 1866.15 1432.52 1861.57 Q1429.47 1856.96 1429.47 1848.24 Q1429.47 1839.49 1432.52 1834.9 Q1435.6 1830.3 1441.41 1830.3 Z" fill="#000000" fill-rule="evenodd" fill-opacity="1" /><path clip-path="url(#clip390)" d="M1997.42 1830.92 L2015.78 1830.92 L2015.78 1834.86 L2001.7 1834.86 L2001.7 1843.33 Q2002.72 1842.98 2003.74 1842.82 Q2004.76 1842.64 2005.78 1842.64 Q2011.56 1842.64 2014.94 1845.81 Q2018.32 1848.98 2018.32 1854.4 Q2018.32 1859.97 2014.85 1863.08 Q2011.38 1866.15 2005.06 1866.15 Q2002.88 1866.15 2000.61 1865.78 Q1998.37 1865.41 1995.96 1864.67 L1995.96 1859.97 Q1998.04 1861.11 2000.27 1861.66 Q2002.49 1862.22 2004.96 1862.22 Q2008.97 1862.22 2011.31 1860.11 Q2013.65 1858.01 2013.65 1854.4 Q2013.65 1850.78 2011.31 1848.68 Q2008.97 1846.57 2004.96 1846.57 Q2003.09 1846.57 2001.21 1846.99 Q1999.36 1847.4 1997.42 1848.28 L1997.42 1830.92 Z" fill="#000000" fill-rule="evenodd" fill-opacity="1" /><path clip-path="url(#clip390)" d="M2547.56 1861.55 L2555.2 1861.55 L2555.2 1835.18 L2546.88 1836.85 L2546.88 1832.59 L2555.15 1830.92 L2559.82 1830.92 L2559.82 1861.55 L2567.46 1861.55 L2567.46 1865.48 L2547.56 1865.48 L2547.56 1861.55 Z" fill="#000000" fill-rule="evenodd" fill-opacity="1" /><path clip-path="url(#clip390)" d="M2586.91 1834 Q2583.3 1834 2581.47 1837.57 Q2579.66 1841.11 2579.66 1848.24 Q2579.66 1855.34 2581.47 1858.91 Q2583.3 1862.45 2586.91 1862.45 Q2590.54 1862.45 2592.35 1858.91 Q2594.18 1855.34 2594.18 1848.24 Q2594.18 1841.11 2592.35 1837.57 Q2590.54 1834 2586.91 1834 M2586.91 1830.3 Q2592.72 1830.3 2595.77 1834.9 Q2598.85 1839.49 2598.85 1848.24 Q2598.85 1856.96 2595.77 1861.57 Q2592.72 1866.15 2586.91 1866.15 Q2581.1 1866.15 2578.02 1861.57 Q2574.96 1856.96 2574.96 1848.24 Q2574.96 1839.49 2578.02 1834.9 Q2581.1 1830.3 2586.91 1830.3 Z" fill="#000000" fill-rule="evenodd" fill-opacity="1" /><polyline clip-path="url(#clip392)" style="stroke:#000000; stroke-linecap:butt; stroke-linejoin:round; stroke-width:2; stroke-opacity:0.1; fill:none" points="
  242.07,1458 2640.76,1458 
  "/>
<polyline clip-path="url(#clip392)" style="stroke:#000000; stroke-linecap:butt; stroke-linejoin:round; stroke-width:2; stroke-opacity:0.1; fill:none" points="
  242.07,996.374 2640.76,996.374 
  "/>
<polyline clip-path="url(#clip392)" style="stroke:#000000; stroke-linecap:butt; stroke-linejoin:round; stroke-width:2; stroke-opacity:0.1; fill:none" points="
  242.07,534.742 2640.76,534.742 
  "/>
<polyline clip-path="url(#clip392)" style="stroke:#000000; stroke-linecap:butt; stroke-linejoin:round; stroke-width:2; stroke-opacity:0.1; fill:none" points="
  242.07,73.1111 2640.76,73.1111 
  "/>
<polyline clip-path="url(#clip390)" style="stroke:#000000; stroke-linecap:butt; stroke-linejoin:round; stroke-width:4; stroke-opacity:1; fill:none" points="
  242.07,1800.78 242.07,47.2441 
  "/>
<polyline clip-path="url(#clip390)" style="stroke:#000000; stroke-linecap:butt; stroke-linejoin:round; stroke-width:4; stroke-opacity:1; fill:none" points="
  242.07,1458 260.968,1458 
  "/>
<polyline clip-path="url(#clip390)" style="stroke:#000000; stroke-linecap:butt; stroke-linejoin:round; stroke-width:4; stroke-opacity:1; fill:none" points="
  242.07,996.374 260.968,996.374 
  "/>
<polyline clip-path="url(#clip390)" style="stroke:#000000; stroke-linecap:butt; stroke-linejoin:round; stroke-width:4; stroke-opacity:1; fill:none" points="
  242.07,534.742 260.968,534.742 
  "/>
<polyline clip-path="url(#clip390)" style="stroke:#000000; stroke-linecap:butt; stroke-linejoin:round; stroke-width:4; stroke-opacity:1; fill:none" points="
  242.07,73.1111 260.968,73.1111 
  "/>
<path clip-path="url(#clip390)" d="M49.5521 1458.46 L79.2279 1458.46 L79.2279 1462.39 L49.5521 1462.39 L49.5521 1458.46 Z" fill="#000000" fill-rule="evenodd" fill-opacity="1" /><path clip-path="url(#clip390)" d="M90.1306 1471.35 L97.7695 1471.35 L97.7695 1444.98 L89.4593 1446.65 L89.4593 1442.39 L97.7232 1440.72 L102.399 1440.72 L102.399 1471.35 L110.038 1471.35 L110.038 1475.28 L90.1306 1475.28 L90.1306 1471.35 Z" fill="#000000" fill-rule="evenodd" fill-opacity="1" /><path clip-path="url(#clip390)" d="M129.482 1443.8 Q125.871 1443.8 124.042 1447.37 Q122.237 1450.91 122.237 1458.04 Q122.237 1465.15 124.042 1468.71 Q125.871 1472.25 129.482 1472.25 Q133.116 1472.25 134.922 1468.71 Q136.751 1465.15 136.751 1458.04 Q136.751 1450.91 134.922 1447.37 Q133.116 1443.8 129.482 1443.8 M129.482 1440.1 Q135.292 1440.1 138.348 1444.71 Q141.427 1449.29 141.427 1458.04 Q141.427 1466.77 138.348 1471.37 Q135.292 1475.96 129.482 1475.96 Q123.672 1475.96 120.593 1471.37 Q117.538 1466.77 117.538 1458.04 Q117.538 1449.29 120.593 1444.71 Q123.672 1440.1 129.482 1440.1 Z" fill="#000000" fill-rule="evenodd" fill-opacity="1" /><path clip-path="url(#clip390)" d="M159.644 1443.8 Q156.033 1443.8 154.204 1447.37 Q152.399 1450.91 152.399 1458.04 Q152.399 1465.15 154.204 1468.71 Q156.033 1472.25 159.644 1472.25 Q163.278 1472.25 165.084 1468.71 Q166.913 1465.15 166.913 1458.04 Q166.913 1450.91 165.084 1447.37 Q163.278 1443.8 159.644 1443.8 M159.644 1440.1 Q165.454 1440.1 168.51 1444.71 Q171.589 1449.29 171.589 1458.04 Q171.589 1466.77 168.51 1471.37 Q165.454 1475.96 159.644 1475.96 Q153.834 1475.96 150.755 1471.37 Q147.7 1466.77 147.7 1458.04 Q147.7 1449.29 150.755 1444.71 Q153.834 1440.1 159.644 1440.1 Z" fill="#000000" fill-rule="evenodd" fill-opacity="1" /><path clip-path="url(#clip390)" d="M189.806 1443.8 Q186.195 1443.8 184.366 1447.37 Q182.561 1450.91 182.561 1458.04 Q182.561 1465.15 184.366 1468.71 Q186.195 1472.25 189.806 1472.25 Q193.44 1472.25 195.246 1468.71 Q197.074 1465.15 197.074 1458.04 Q197.074 1450.91 195.246 1447.37 Q193.44 1443.8 189.806 1443.8 M189.806 1440.1 Q195.616 1440.1 198.672 1444.71 Q201.75 1449.29 201.75 1458.04 Q201.75 1466.77 198.672 1471.37 Q195.616 1475.96 189.806 1475.96 Q183.996 1475.96 180.917 1471.37 Q177.862 1466.77 177.862 1458.04 Q177.862 1449.29 180.917 1444.71 Q183.996 1440.1 189.806 1440.1 Z" fill="#000000" fill-rule="evenodd" fill-opacity="1" /><path clip-path="url(#clip390)" d="M79.714 996.825 L109.39 996.825 L109.39 1000.76 L79.714 1000.76 L79.714 996.825 Z" fill="#000000" fill-rule="evenodd" fill-opacity="1" /><path clip-path="url(#clip390)" d="M119.529 979.094 L137.885 979.094 L137.885 983.029 L123.811 983.029 L123.811 991.501 Q124.83 991.154 125.848 990.992 Q126.867 990.806 127.885 990.806 Q133.672 990.806 137.052 993.978 Q140.431 997.149 140.431 1002.57 Q140.431 1008.14 136.959 1011.25 Q133.487 1014.32 127.167 1014.32 Q124.992 1014.32 122.723 1013.95 Q120.478 1013.58 118.07 1012.84 L118.07 1008.14 Q120.154 1009.28 122.376 1009.83 Q124.598 1010.39 127.075 1010.39 Q131.079 1010.39 133.417 1008.28 Q135.755 1006.18 135.755 1002.57 Q135.755 998.955 133.417 996.848 Q131.079 994.742 127.075 994.742 Q125.2 994.742 123.325 995.158 Q121.473 995.575 119.529 996.455 L119.529 979.094 Z" fill="#000000" fill-rule="evenodd" fill-opacity="1" /><path clip-path="url(#clip390)" d="M159.644 982.172 Q156.033 982.172 154.204 985.737 Q152.399 989.279 152.399 996.408 Q152.399 1003.51 154.204 1007.08 Q156.033 1010.62 159.644 1010.62 Q163.278 1010.62 165.084 1007.08 Q166.913 1003.51 166.913 996.408 Q166.913 989.279 165.084 985.737 Q163.278 982.172 159.644 982.172 M159.644 978.469 Q165.454 978.469 168.51 983.075 Q171.589 987.658 171.589 996.408 Q171.589 1005.14 168.51 1009.74 Q165.454 1014.32 159.644 1014.32 Q153.834 1014.32 150.755 1009.74 Q147.7 1005.14 147.7 996.408 Q147.7 987.658 150.755 983.075 Q153.834 978.469 159.644 978.469 Z" fill="#000000" fill-rule="evenodd" fill-opacity="1" /><path clip-path="url(#clip390)" d="M189.806 982.172 Q186.195 982.172 184.366 985.737 Q182.561 989.279 182.561 996.408 Q182.561 1003.51 184.366 1007.08 Q186.195 1010.62 189.806 1010.62 Q193.44 1010.62 195.246 1007.08 Q197.074 1003.51 197.074 996.408 Q197.074 989.279 195.246 985.737 Q193.44 982.172 189.806 982.172 M189.806 978.469 Q195.616 978.469 198.672 983.075 Q201.75 987.658 201.75 996.408 Q201.75 1005.14 198.672 1009.74 Q195.616 1014.32 189.806 1014.32 Q183.996 1014.32 180.917 1009.74 Q177.862 1005.14 177.862 996.408 Q177.862 987.658 180.917 983.075 Q183.996 978.469 189.806 978.469 Z" fill="#000000" fill-rule="evenodd" fill-opacity="1" /><path clip-path="url(#clip390)" d="M189.806 520.541 Q186.195 520.541 184.366 524.106 Q182.561 527.647 182.561 534.777 Q182.561 541.883 184.366 545.448 Q186.195 548.99 189.806 548.99 Q193.44 548.99 195.246 545.448 Q197.074 541.883 197.074 534.777 Q197.074 527.647 195.246 524.106 Q193.44 520.541 189.806 520.541 M189.806 516.837 Q195.616 516.837 198.672 521.444 Q201.75 526.027 201.75 534.777 Q201.75 543.504 198.672 548.11 Q195.616 552.694 189.806 552.694 Q183.996 552.694 180.917 548.11 Q177.862 543.504 177.862 534.777 Q177.862 526.027 180.917 521.444 Q183.996 516.837 189.806 516.837 Z" fill="#000000" fill-rule="evenodd" fill-opacity="1" /><path clip-path="url(#clip390)" d="M119.529 55.8311 L137.885 55.8311 L137.885 59.7663 L123.811 59.7663 L123.811 68.2384 Q124.83 67.8912 125.848 67.7292 Q126.867 67.544 127.885 67.544 Q133.672 67.544 137.052 70.7153 Q140.431 73.8865 140.431 79.3032 Q140.431 84.8819 136.959 87.9837 Q133.487 91.0624 127.167 91.0624 Q124.992 91.0624 122.723 90.692 Q120.478 90.3216 118.07 89.5809 L118.07 84.8819 Q120.154 86.0161 122.376 86.5717 Q124.598 87.1272 127.075 87.1272 Q131.079 87.1272 133.417 85.0207 Q135.755 82.9143 135.755 79.3032 Q135.755 75.6921 133.417 73.5856 Q131.079 71.4792 127.075 71.4792 Q125.2 71.4792 123.325 71.8958 Q121.473 72.3125 119.529 73.1921 L119.529 55.8311 Z" fill="#000000" fill-rule="evenodd" fill-opacity="1" /><path clip-path="url(#clip390)" d="M159.644 58.9098 Q156.033 58.9098 154.204 62.4746 Q152.399 66.0162 152.399 73.1458 Q152.399 80.2523 154.204 83.8171 Q156.033 87.3587 159.644 87.3587 Q163.278 87.3587 165.084 83.8171 Q166.913 80.2523 166.913 73.1458 Q166.913 66.0162 165.084 62.4746 Q163.278 58.9098 159.644 58.9098 M159.644 55.2061 Q165.454 55.2061 168.51 59.8126 Q171.589 64.3959 171.589 73.1458 Q171.589 81.8726 168.51 86.4791 Q165.454 91.0624 159.644 91.0624 Q153.834 91.0624 150.755 86.4791 Q147.7 81.8726 147.7 73.1458 Q147.7 64.3959 150.755 59.8126 Q153.834 55.2061 159.644 55.2061 Z" fill="#000000" fill-rule="evenodd" fill-opacity="1" /><path clip-path="url(#clip390)" d="M189.806 58.9098 Q186.195 58.9098 184.366 62.4746 Q182.561 66.0162 182.561 73.1458 Q182.561 80.2523 184.366 83.8171 Q186.195 87.3587 189.806 87.3587 Q193.44 87.3587 195.246 83.8171 Q197.074 80.2523 197.074 73.1458 Q197.074 66.0162 195.246 62.4746 Q193.44 58.9098 189.806 58.9098 M189.806 55.2061 Q195.616 55.2061 198.672 59.8126 Q201.75 64.3959 201.75 73.1458 Q201.75 81.8726 198.672 86.4791 Q195.616 91.0624 189.806 91.0624 Q183.996 91.0624 180.917 86.4791 Q177.862 81.8726 177.862 73.1458 Q177.862 64.3959 180.917 59.8126 Q183.996 55.2061 189.806 55.2061 Z" fill="#000000" fill-rule="evenodd" fill-opacity="1" /><polyline clip-path="url(#clip392)" style="stroke:#009af9; stroke-linecap:butt; stroke-linejoin:round; stroke-width:4; stroke-opacity:1; fill:none" points="
  309.958,547.836 324.69,547.718 460.916,546.627 542.782,545.975 611.999,545.425 687.188,544.831 756.505,544.286 830.821,543.706 916.923,543.043 993.44,542.463 
  1060.54,541.966 1133.69,541.443 1207.28,540.947 1247.97,540.695 1288.65,540.468 1327.36,540.286 1366.06,540.159 1406.31,540.131 1446.56,540.328 1463.5,540.55 
  1480.44,540.936 1488.91,541.23 1497.38,541.632 1505.85,542.199 1514.32,543.032 1519.49,543.755 1524.66,544.743 1527.24,545.383 1529.83,546.162 1532.41,547.127 
  1535,548.352 1537.58,549.958 1540.17,552.148 1541.46,553.57 1542.75,555.306 1544.05,557.471 1545.34,560.247 1546.63,563.931 1547.92,569.054 1548.57,572.447 
  1549.22,576.662 1549.86,582.039 1550.51,589.133 1551.16,598.923 1551.8,613.306 1552.45,636.498 1553.09,680.161 1553.74,792.791 1554.39,1751.15 1555.03,96.8724 
  1555.68,351.035 1556.33,419.242 1556.97,450.91 1557.62,469.196 1558.26,481.101 1558.91,489.469 1559.56,495.671 1560.2,500.452 1560.85,504.249 1562.14,509.9 
  1563.43,513.901 1564.73,516.883 1566.02,519.19 1567.31,521.027 1568.61,522.523 1569.9,523.766 1571.19,524.814 1573.78,526.483 1576.36,527.751 1578.95,528.746 
  1581.53,529.546 1584.12,530.202 1586.7,530.75 1591.87,531.608 1597.04,532.248 1606.51,533.067 1615.99,533.61 1625.46,533.987 1634.93,534.257 1653.88,534.598 
  1672.82,534.78 1707.82,534.898 1742.81,534.866 1778.26,534.753 1813.71,534.591 1853.44,534.374 1893.17,534.132 1929.17,533.898 1965.17,533.653 2047.61,533.065 
  2123.94,532.499 2199.19,531.928 2272.25,531.365 2347.15,530.781 2429.21,530.136 2548.41,529.192 2572.87,528.998 
  "/>
<path clip-path="url(#clip390)" d="
M2241.85 209.375 L2560.8 209.375 L2560.8 105.695 L2241.85 105.695  Z
  " fill="#ffffff" fill-rule="evenodd" fill-opacity="1"/>
<polyline clip-path="url(#clip390)" style="stroke:#000000; stroke-linecap:butt; stroke-linejoin:round; stroke-width:4; stroke-opacity:1; fill:none" points="
  2241.85,209.375 2560.8,209.375 2560.8,105.695 2241.85,105.695 2241.85,209.375 
  "/>
<polyline clip-path="url(#clip390)" style="stroke:#009af9; stroke-linecap:butt; stroke-linejoin:round; stroke-width:4; stroke-opacity:1; fill:none" points="
  2268.5,157.535 2428.41,157.535 
  "/>
<path clip-path="url(#clip390)" d="M2468.91 177.223 Q2467.1 181.852 2465.39 183.264 Q2463.68 184.676 2460.81 184.676 L2457.4 184.676 L2457.4 181.112 L2459.9 181.112 Q2461.66 181.112 2462.63 180.278 Q2463.61 179.445 2464.79 176.343 L2465.55 174.399 L2455.07 148.889 L2459.58 148.889 L2467.68 169.167 L2475.78 148.889 L2480.3 148.889 L2468.91 177.223 Z" fill="#000000" fill-rule="evenodd" fill-opacity="1" /><path clip-path="url(#clip390)" d="M2487.59 170.88 L2495.23 170.88 L2495.23 144.515 L2486.92 146.181 L2486.92 141.922 L2495.18 140.255 L2499.86 140.255 L2499.86 170.88 L2507.5 170.88 L2507.5 174.815 L2487.59 174.815 L2487.59 170.88 Z" fill="#000000" fill-rule="evenodd" fill-opacity="1" /></svg>
