<?xml version="1.0" encoding="utf-8"?>
<svg xmlns="http://www.w3.org/2000/svg" xmlns:xlink="http://www.w3.org/1999/xlink" width="672" height="480" viewBox="0 0 2688 1920">
<defs>
  <clipPath id="clip780">
    <rect x="0" y="0" width="2688" height="1920"/>
  </clipPath>
</defs>
<path clip-path="url(#clip780)" d="
M0 1920 L2688 1920 L2688 0 L0 0  Z
  " fill="#ffffff" fill-rule="evenodd" fill-opacity="1"/>
<defs>
  <clipPath id="clip781">
    <rect x="537" y="0" width="1883" height="1883"/>
  </clipPath>
</defs>
<path clip-path="url(#clip780)" d="
M141.839 1800.78 L2640.76 1800.78 L2640.76 47.2441 L141.839 47.2441  Z
  " fill="#ffffff" fill-rule="evenodd" fill-opacity="1"/>
<defs>
  <clipPath id="clip782">
    <rect x="141" y="47" width="2500" height="1755"/>
  </clipPath>
</defs>
<polyline clip-path="url(#clip782)" style="stroke:#000000; stroke-linecap:butt; stroke-linejoin:round; stroke-width:2; stroke-opacity:0.1; fill:none" points="
  537.732,1800.78 537.732,47.2441 
  "/>
<polyline clip-path="url(#clip782)" style="stroke:#000000; stroke-linecap:butt; stroke-linejoin:round; stroke-width:2; stroke-opacity:0.1; fill:none" points="
  944.192,1800.78 944.192,47.2441 
  "/>
<polyline clip-path="url(#clip782)" style="stroke:#000000; stroke-linecap:butt; stroke-linejoin:round; stroke-width:2; stroke-opacity:0.1; fill:none" points="
  1350.65,1800.78 1350.65,47.2441 
  "/>
<polyline clip-path="url(#clip782)" style="stroke:#000000; stroke-linecap:butt; stroke-linejoin:round; stroke-width:2; stroke-opacity:0.1; fill:none" points="
  1757.11,1800.78 1757.11,47.2441 
  "/>
<polyline clip-path="url(#clip782)" style="stroke:#000000; stroke-linecap:butt; stroke-linejoin:round; stroke-width:2; stroke-opacity:0.1; fill:none" points="
  2163.57,1800.78 2163.57,47.2441 
  "/>
<polyline clip-path="url(#clip782)" style="stroke:#000000; stroke-linecap:butt; stroke-linejoin:round; stroke-width:2; stroke-opacity:0.1; fill:none" points="
  2570.03,1800.78 2570.03,47.2441 
  "/>
<polyline clip-path="url(#clip780)" style="stroke:#000000; stroke-linecap:butt; stroke-linejoin:round; stroke-width:4; stroke-opacity:1; fill:none" points="
  141.839,1800.78 2640.76,1800.78 
  "/>
<polyline clip-path="url(#clip780)" style="stroke:#000000; stroke-linecap:butt; stroke-linejoin:round; stroke-width:4; stroke-opacity:1; fill:none" points="
  537.732,1800.78 537.732,1781.88 
  "/>
<polyline clip-path="url(#clip780)" style="stroke:#000000; stroke-linecap:butt; stroke-linejoin:round; stroke-width:4; stroke-opacity:1; fill:none" points="
  944.192,1800.78 944.192,1781.88 
  "/>
<polyline clip-path="url(#clip780)" style="stroke:#000000; stroke-linecap:butt; stroke-linejoin:round; stroke-width:4; stroke-opacity:1; fill:none" points="
  1350.65,1800.78 1350.65,1781.88 
  "/>
<polyline clip-path="url(#clip780)" style="stroke:#000000; stroke-linecap:butt; stroke-linejoin:round; stroke-width:4; stroke-opacity:1; fill:none" points="
  1757.11,1800.78 1757.11,1781.88 
  "/>
<polyline clip-path="url(#clip780)" style="stroke:#000000; stroke-linecap:butt; stroke-linejoin:round; stroke-width:4; stroke-opacity:1; fill:none" points="
  2163.57,1800.78 2163.57,1781.88 
  "/>
<polyline clip-path="url(#clip780)" style="stroke:#000000; stroke-linecap:butt; stroke-linejoin:round; stroke-width:4; stroke-opacity:1; fill:none" points="
  2570.03,1800.78 2570.03,1781.88 
  "/>
<path clip-path="url(#clip780)" d="M515.614 1834 Q512.003 1834 510.174 1837.57 Q508.368 1841.11 508.368 1848.24 Q508.368 1855.34 510.174 1858.91 Q512.003 1862.45 515.614 1862.45 Q519.248 1862.45 521.053 1858.91 Q522.882 1855.34 522.882 1848.24 Q522.882 1841.11 521.053 1837.57 Q519.248 1834 515.614 1834 M515.614 1830.3 Q521.424 1830.3 524.479 1834.9 Q527.558 1839.49 527.558 1848.24 Q527.558 1856.96 524.479 1861.57 Q521.424 1866.15 515.614 1866.15 Q509.803 1866.15 506.725 1861.57 Q503.669 1856.96 503.669 1848.24 Q503.669 1839.49 506.725 1834.9 Q509.803 1830.3 515.614 1830.3 Z" fill="#000000" fill-rule="evenodd" fill-opacity="1" /><path clip-path="url(#clip780)" d="M535.776 1859.6 L540.66 1859.6 L540.66 1865.48 L535.776 1865.48 L535.776 1859.6 Z" fill="#000000" fill-rule="evenodd" fill-opacity="1" /><path clip-path="url(#clip780)" d="M550.891 1830.92 L569.248 1830.92 L569.248 1834.86 L555.174 1834.86 L555.174 1843.33 Q556.192 1842.98 557.211 1842.82 Q558.229 1842.64 559.248 1842.64 Q565.035 1842.64 568.414 1845.81 Q571.794 1848.98 571.794 1854.4 Q571.794 1859.97 568.322 1863.08 Q564.849 1866.15 558.53 1866.15 Q556.354 1866.15 554.086 1865.78 Q551.84 1865.41 549.433 1864.67 L549.433 1859.97 Q551.516 1861.11 553.738 1861.66 Q555.961 1862.22 558.437 1862.22 Q562.442 1862.22 564.78 1860.11 Q567.118 1858.01 567.118 1854.4 Q567.118 1850.78 564.78 1848.68 Q562.442 1846.57 558.437 1846.57 Q556.562 1846.57 554.687 1846.99 Q552.836 1847.4 550.891 1848.28 L550.891 1830.92 Z" fill="#000000" fill-rule="evenodd" fill-opacity="1" /><path clip-path="url(#clip780)" d="M911.345 1861.55 L918.983 1861.55 L918.983 1835.18 L910.673 1836.85 L910.673 1832.59 L918.937 1830.92 L923.613 1830.92 L923.613 1861.55 L931.252 1861.55 L931.252 1865.48 L911.345 1865.48 L911.345 1861.55 Z" fill="#000000" fill-rule="evenodd" fill-opacity="1" /><path clip-path="url(#clip780)" d="M940.696 1859.6 L945.58 1859.6 L945.58 1865.48 L940.696 1865.48 L940.696 1859.6 Z" fill="#000000" fill-rule="evenodd" fill-opacity="1" /><path clip-path="url(#clip780)" d="M965.766 1834 Q962.154 1834 960.326 1837.57 Q958.52 1841.11 958.52 1848.24 Q958.52 1855.34 960.326 1858.91 Q962.154 1862.45 965.766 1862.45 Q969.4 1862.45 971.205 1858.91 Q973.034 1855.34 973.034 1848.24 Q973.034 1841.11 971.205 1837.57 Q969.4 1834 965.766 1834 M965.766 1830.3 Q971.576 1830.3 974.631 1834.9 Q977.71 1839.49 977.71 1848.24 Q977.71 1856.96 974.631 1861.57 Q971.576 1866.15 965.766 1866.15 Q959.955 1866.15 956.877 1861.57 Q953.821 1856.96 953.821 1848.24 Q953.821 1839.49 956.877 1834.9 Q959.955 1830.3 965.766 1830.3 Z" fill="#000000" fill-rule="evenodd" fill-opacity="1" /><path clip-path="url(#clip780)" d="M1318.3 1861.55 L1325.94 1861.55 L1325.94 1835.18 L1317.63 1836.85 L1317.63 1832.59 L1325.89 1830.92 L1330.57 1830.92 L1330.57 1861.55 L1338.21 1861.55 L1338.21 1865.48 L1318.3 1865.48 L1318.3 1861.55 Z" fill="#000000" fill-rule="evenodd" fill-opacity="1" /><path clip-path="url(#clip780)" d="M1347.65 1859.6 L1352.54 1859.6 L1352.54 1865.48 L1347.65 1865.48 L1347.65 1859.6 Z" fill="#000000" fill-rule="evenodd" fill-opacity="1" /><path clip-path="url(#clip780)" d="M1362.77 1830.92 L1381.13 1830.92 L1381.13 1834.86 L1367.05 1834.86 L1367.05 1843.33 Q1368.07 1842.98 1369.09 1842.82 Q1370.11 1842.64 1371.13 1842.64 Q1376.91 1842.64 1380.29 1845.81 Q1383.67 1848.98 1383.67 1854.4 Q1383.67 1859.97 1380.2 1863.08 Q1376.73 1866.15 1370.41 1866.15 Q1368.23 1866.15 1365.96 1865.78 Q1363.72 1865.41 1361.31 1864.67 L1361.31 1859.97 Q1363.39 1861.11 1365.62 1861.66 Q1367.84 1862.22 1370.32 1862.22 Q1374.32 1862.22 1376.66 1860.11 Q1379 1858.01 1379 1854.4 Q1379 1850.78 1376.66 1848.68 Q1374.32 1846.57 1370.32 1846.57 Q1368.44 1846.57 1366.57 1846.99 Q1364.71 1847.4 1362.77 1848.28 L1362.77 1830.92 Z" fill="#000000" fill-rule="evenodd" fill-opacity="1" /><path clip-path="url(#clip780)" d="M1728.35 1861.55 L1744.67 1861.55 L1744.67 1865.48 L1722.73 1865.48 L1722.73 1861.55 Q1725.39 1858.79 1729.97 1854.16 Q1734.58 1849.51 1735.76 1848.17 Q1738 1845.65 1738.88 1843.91 Q1739.79 1842.15 1739.79 1840.46 Q1739.79 1837.71 1737.84 1835.97 Q1735.92 1834.23 1732.82 1834.23 Q1730.62 1834.23 1728.17 1835 Q1725.73 1835.76 1722.96 1837.31 L1722.96 1832.59 Q1725.78 1831.46 1728.23 1830.88 Q1730.69 1830.3 1732.73 1830.3 Q1738.1 1830.3 1741.29 1832.98 Q1744.48 1835.67 1744.48 1840.16 Q1744.48 1842.29 1743.67 1844.21 Q1742.89 1846.11 1740.78 1848.7 Q1740.2 1849.37 1737.1 1852.59 Q1734 1855.78 1728.35 1861.55 Z" fill="#000000" fill-rule="evenodd" fill-opacity="1" /><path clip-path="url(#clip780)" d="M1754.48 1859.6 L1759.37 1859.6 L1759.37 1865.48 L1754.48 1865.48 L1754.48 1859.6 Z" fill="#000000" fill-rule="evenodd" fill-opacity="1" /><path clip-path="url(#clip780)" d="M1779.55 1834 Q1775.94 1834 1774.11 1837.57 Q1772.31 1841.11 1772.31 1848.24 Q1772.31 1855.34 1774.11 1858.91 Q1775.94 1862.45 1779.55 1862.45 Q1783.19 1862.45 1784.99 1858.91 Q1786.82 1855.34 1786.82 1848.24 Q1786.82 1841.11 1784.99 1837.57 Q1783.19 1834 1779.55 1834 M1779.55 1830.3 Q1785.36 1830.3 1788.42 1834.9 Q1791.5 1839.49 1791.5 1848.24 Q1791.5 1856.96 1788.42 1861.57 Q1785.36 1866.15 1779.55 1866.15 Q1773.74 1866.15 1770.66 1861.57 Q1767.61 1856.96 1767.61 1848.24 Q1767.61 1839.49 1770.66 1834.9 Q1773.74 1830.3 1779.55 1830.3 Z" fill="#000000" fill-rule="evenodd" fill-opacity="1" /><path clip-path="url(#clip780)" d="M2135.31 1861.55 L2151.63 1861.55 L2151.63 1865.48 L2129.68 1865.48 L2129.68 1861.55 Q2132.35 1858.79 2136.93 1854.16 Q2141.53 1849.51 2142.72 1848.17 Q2144.96 1845.65 2145.84 1843.91 Q2146.74 1842.15 2146.74 1840.46 Q2146.74 1837.71 2144.8 1835.97 Q2142.88 1834.23 2139.78 1834.23 Q2137.58 1834.23 2135.12 1835 Q2132.69 1835.76 2129.91 1837.31 L2129.91 1832.59 Q2132.74 1831.46 2135.19 1830.88 Q2137.65 1830.3 2139.68 1830.3 Q2145.05 1830.3 2148.25 1832.98 Q2151.44 1835.67 2151.44 1840.16 Q2151.44 1842.29 2150.63 1844.21 Q2149.85 1846.11 2147.74 1848.7 Q2147.16 1849.37 2144.06 1852.59 Q2140.96 1855.78 2135.31 1861.55 Z" fill="#000000" fill-rule="evenodd" fill-opacity="1" /><path clip-path="url(#clip780)" d="M2161.44 1859.6 L2166.33 1859.6 L2166.33 1865.48 L2161.44 1865.48 L2161.44 1859.6 Z" fill="#000000" fill-rule="evenodd" fill-opacity="1" /><path clip-path="url(#clip780)" d="M2176.56 1830.92 L2194.91 1830.92 L2194.91 1834.86 L2180.84 1834.86 L2180.84 1843.33 Q2181.86 1842.98 2182.88 1842.82 Q2183.9 1842.64 2184.91 1842.64 Q2190.7 1842.64 2194.08 1845.81 Q2197.46 1848.98 2197.46 1854.4 Q2197.46 1859.97 2193.99 1863.08 Q2190.52 1866.15 2184.2 1866.15 Q2182.02 1866.15 2179.75 1865.78 Q2177.51 1865.41 2175.1 1864.67 L2175.1 1859.97 Q2177.18 1861.11 2179.41 1861.66 Q2181.63 1862.22 2184.1 1862.22 Q2188.11 1862.22 2190.45 1860.11 Q2192.78 1858.01 2192.78 1854.4 Q2192.78 1850.78 2190.45 1848.68 Q2188.11 1846.57 2184.1 1846.57 Q2182.23 1846.57 2180.35 1846.99 Q2178.5 1847.4 2176.56 1848.28 L2176.56 1830.92 Z" fill="#000000" fill-rule="evenodd" fill-opacity="1" /><path clip-path="url(#clip780)" d="M2551.34 1846.85 Q2554.7 1847.57 2556.57 1849.84 Q2558.47 1852.1 2558.47 1855.44 Q2558.47 1860.55 2554.95 1863.35 Q2551.43 1866.15 2544.95 1866.15 Q2542.78 1866.15 2540.46 1865.71 Q2538.17 1865.3 2535.71 1864.44 L2535.71 1859.93 Q2537.66 1861.06 2539.97 1861.64 Q2542.29 1862.22 2544.81 1862.22 Q2549.21 1862.22 2551.5 1860.48 Q2553.82 1858.75 2553.82 1855.44 Q2553.82 1852.38 2551.66 1850.67 Q2549.53 1848.93 2545.71 1848.93 L2541.69 1848.93 L2541.69 1845.09 L2545.9 1845.09 Q2549.35 1845.09 2551.18 1843.72 Q2553.01 1842.34 2553.01 1839.74 Q2553.01 1837.08 2551.11 1835.67 Q2549.23 1834.23 2545.71 1834.23 Q2543.79 1834.23 2541.59 1834.65 Q2539.4 1835.07 2536.76 1835.95 L2536.76 1831.78 Q2539.42 1831.04 2541.73 1830.67 Q2544.07 1830.3 2546.13 1830.3 Q2551.46 1830.3 2554.56 1832.73 Q2557.66 1835.14 2557.66 1839.26 Q2557.66 1842.13 2556.02 1844.12 Q2554.37 1846.09 2551.34 1846.85 Z" fill="#000000" fill-rule="evenodd" fill-opacity="1" /><path clip-path="url(#clip780)" d="M2567.34 1859.6 L2572.22 1859.6 L2572.22 1865.48 L2567.34 1865.48 L2567.34 1859.6 Z" fill="#000000" fill-rule="evenodd" fill-opacity="1" /><path clip-path="url(#clip780)" d="M2592.4 1834 Q2588.79 1834 2586.96 1837.57 Q2585.16 1841.11 2585.16 1848.24 Q2585.16 1855.34 2586.96 1858.91 Q2588.79 1862.45 2592.4 1862.45 Q2596.04 1862.45 2597.84 1858.91 Q2599.67 1855.34 2599.67 1848.24 Q2599.67 1841.11 2597.84 1837.57 Q2596.04 1834 2592.4 1834 M2592.4 1830.3 Q2598.21 1830.3 2601.27 1834.9 Q2604.35 1839.49 2604.35 1848.24 Q2604.35 1856.96 2601.27 1861.57 Q2598.21 1866.15 2592.4 1866.15 Q2586.59 1866.15 2583.52 1861.57 Q2580.46 1856.96 2580.46 1848.24 Q2580.46 1839.49 2583.52 1834.9 Q2586.59 1830.3 2592.4 1830.3 Z" fill="#000000" fill-rule="evenodd" fill-opacity="1" /><polyline clip-path="url(#clip782)" style="stroke:#000000; stroke-linecap:butt; stroke-linejoin:round; stroke-width:2; stroke-opacity:0.1; fill:none" points="
  141.839,1465.93 2640.76,1465.93 
  "/>
<polyline clip-path="url(#clip782)" style="stroke:#000000; stroke-linecap:butt; stroke-linejoin:round; stroke-width:2; stroke-opacity:0.1; fill:none" points="
  141.839,1123.67 2640.76,1123.67 
  "/>
<polyline clip-path="url(#clip782)" style="stroke:#000000; stroke-linecap:butt; stroke-linejoin:round; stroke-width:2; stroke-opacity:0.1; fill:none" points="
  141.839,781.401 2640.76,781.401 
  "/>
<polyline clip-path="url(#clip782)" style="stroke:#000000; stroke-linecap:butt; stroke-linejoin:round; stroke-width:2; stroke-opacity:0.1; fill:none" points="
  141.839,439.137 2640.76,439.137 
  "/>
<polyline clip-path="url(#clip782)" style="stroke:#000000; stroke-linecap:butt; stroke-linejoin:round; stroke-width:2; stroke-opacity:0.1; fill:none" points="
  141.839,96.8724 2640.76,96.8724 
  "/>
<polyline clip-path="url(#clip780)" style="stroke:#000000; stroke-linecap:butt; stroke-linejoin:round; stroke-width:4; stroke-opacity:1; fill:none" points="
  141.839,1800.78 141.839,47.2441 
  "/>
<polyline clip-path="url(#clip780)" style="stroke:#000000; stroke-linecap:butt; stroke-linejoin:round; stroke-width:4; stroke-opacity:1; fill:none" points="
  141.839,1465.93 160.737,1465.93 
  "/>
<polyline clip-path="url(#clip780)" style="stroke:#000000; stroke-linecap:butt; stroke-linejoin:round; stroke-width:4; stroke-opacity:1; fill:none" points="
  141.839,1123.67 160.737,1123.67 
  "/>
<polyline clip-path="url(#clip780)" style="stroke:#000000; stroke-linecap:butt; stroke-linejoin:round; stroke-width:4; stroke-opacity:1; fill:none" points="
  141.839,781.401 160.737,781.401 
  "/>
<polyline clip-path="url(#clip780)" style="stroke:#000000; stroke-linecap:butt; stroke-linejoin:round; stroke-width:4; stroke-opacity:1; fill:none" points="
  141.839,439.137 160.737,439.137 
  "/>
<polyline clip-path="url(#clip780)" style="stroke:#000000; stroke-linecap:butt; stroke-linejoin:round; stroke-width:4; stroke-opacity:1; fill:none" points="
  141.839,96.8724 160.737,96.8724 
  "/>
<path clip-path="url(#clip780)" d="M85.2001 1479.28 L101.519 1479.28 L101.519 1483.21 L79.5751 1483.21 L79.5751 1479.28 Q82.2371 1476.52 86.8204 1471.89 Q91.4269 1467.24 92.6075 1465.9 Q94.8528 1463.37 95.7324 1461.64 Q96.6352 1459.88 96.6352 1458.19 Q96.6352 1455.43 94.6908 1453.7 Q92.7695 1451.96 89.6677 1451.96 Q87.4686 1451.96 85.0149 1452.72 Q82.5844 1453.49 79.8066 1455.04 L79.8066 1450.32 Q82.6307 1449.18 85.0843 1448.6 Q87.538 1448.03 89.5751 1448.03 Q94.9454 1448.03 98.1398 1450.71 Q101.334 1453.4 101.334 1457.89 Q101.334 1460.02 100.524 1461.94 Q99.737 1463.84 97.6306 1466.43 Q97.0519 1467.1 93.95 1470.32 Q90.8482 1473.51 85.2001 1479.28 Z" fill="#000000" fill-rule="evenodd" fill-opacity="1" /><path clip-path="url(#clip780)" d="M91.9362 1110.46 L80.1307 1128.91 L91.9362 1128.91 L91.9362 1110.46 M90.7093 1106.39 L96.5889 1106.39 L96.5889 1128.91 L101.519 1128.91 L101.519 1132.8 L96.5889 1132.8 L96.5889 1140.95 L91.9362 1140.95 L91.9362 1132.8 L76.3344 1132.8 L76.3344 1128.28 L90.7093 1106.39 Z" fill="#000000" fill-rule="evenodd" fill-opacity="1" /><path clip-path="url(#clip780)" d="M89.9917 779.538 Q86.8436 779.538 84.9918 781.691 Q83.1631 783.844 83.1631 787.594 Q83.1631 791.32 84.9918 793.496 Q86.8436 795.649 89.9917 795.649 Q93.1399 795.649 94.9685 793.496 Q96.8204 791.32 96.8204 787.594 Q96.8204 783.844 94.9685 781.691 Q93.1399 779.538 89.9917 779.538 M99.2741 764.885 L99.2741 769.145 Q97.5148 768.311 95.7093 767.871 Q93.9269 767.432 92.1676 767.432 Q87.538 767.432 85.0843 770.557 Q82.6538 773.682 82.3066 780.001 Q83.6723 777.987 85.7325 776.922 Q87.7927 775.834 90.2695 775.834 Q95.4778 775.834 98.487 779.006 Q101.519 782.154 101.519 787.594 Q101.519 792.918 98.3713 796.135 Q95.2232 799.353 89.9917 799.353 Q83.9964 799.353 80.8251 794.769 Q77.6538 790.163 77.6538 781.436 Q77.6538 773.242 81.5427 768.381 Q85.4316 763.496 91.9825 763.496 Q93.7417 763.496 95.5241 763.844 Q97.3296 764.191 99.2741 764.885 Z" fill="#000000" fill-rule="evenodd" fill-opacity="1" /><path clip-path="url(#clip780)" d="M89.6677 440.005 Q86.3343 440.005 84.4131 441.787 Q82.5149 443.57 82.5149 446.695 Q82.5149 449.82 84.4131 451.602 Q86.3343 453.385 89.6677 453.385 Q93.001 453.385 94.9223 451.602 Q96.8435 449.797 96.8435 446.695 Q96.8435 443.57 94.9223 441.787 Q93.0241 440.005 89.6677 440.005 M84.9918 438.014 Q81.9825 437.274 80.2927 435.213 Q78.626 433.153 78.626 430.19 Q78.626 426.047 81.5658 423.639 Q84.5288 421.232 89.6677 421.232 Q94.8297 421.232 97.7695 423.639 Q100.709 426.047 100.709 430.19 Q100.709 433.153 99.0195 435.213 Q97.3528 437.274 94.3667 438.014 Q97.7463 438.801 99.6213 441.093 Q101.519 443.385 101.519 446.695 Q101.519 451.718 98.4408 454.403 Q95.3852 457.088 89.6677 457.088 Q83.9501 457.088 80.8714 454.403 Q77.8159 451.718 77.8159 446.695 Q77.8159 443.385 79.714 441.093 Q81.6121 438.801 84.9918 438.014 M83.2788 430.63 Q83.2788 433.315 84.9455 434.82 Q86.6353 436.324 89.6677 436.324 Q92.6769 436.324 94.3667 434.82 Q96.0797 433.315 96.0797 430.63 Q96.0797 427.945 94.3667 426.44 Q92.6769 424.936 89.6677 424.936 Q86.6353 424.936 84.9455 426.44 Q83.2788 427.945 83.2788 430.63 Z" fill="#000000" fill-rule="evenodd" fill-opacity="1" /><path clip-path="url(#clip780)" d="M50.2234 110.217 L57.8623 110.217 L57.8623 83.8517 L49.5521 85.5183 L49.5521 81.2591 L57.816 79.5924 L62.4919 79.5924 L62.4919 110.217 L70.1307 110.217 L70.1307 114.152 L50.2234 114.152 L50.2234 110.217 Z" fill="#000000" fill-rule="evenodd" fill-opacity="1" /><path clip-path="url(#clip780)" d="M89.5751 82.6711 Q85.964 82.6711 84.1353 86.2359 Q82.3297 89.7776 82.3297 96.9072 Q82.3297 104.014 84.1353 107.578 Q85.964 111.12 89.5751 111.12 Q93.2093 111.12 95.0148 107.578 Q96.8435 104.014 96.8435 96.9072 Q96.8435 89.7776 95.0148 86.2359 Q93.2093 82.6711 89.5751 82.6711 M89.5751 78.9675 Q95.3852 78.9675 98.4408 83.5739 Q101.519 88.1572 101.519 96.9072 Q101.519 105.634 98.4408 110.24 Q95.3852 114.824 89.5751 114.824 Q83.7649 114.824 80.6862 110.24 Q77.6307 105.634 77.6307 96.9072 Q77.6307 88.1572 80.6862 83.5739 Q83.7649 78.9675 89.5751 78.9675 Z" fill="#000000" fill-rule="evenodd" fill-opacity="1" /><polyline clip-path="url(#clip782)" style="stroke:#009af9; stroke-linecap:butt; stroke-linejoin:round; stroke-width:4; stroke-opacity:1; fill:none" points="
  212.563,96.8724 215.441,155.384 218.319,210.026 221.197,261.171 224.075,309.145 226.953,354.232 229.83,396.686 232.708,436.732 235.586,474.567 242.239,554.518 
  248.891,625.424 255.543,688.739 262.196,745.62 275.501,843.64 288.805,925.104 302.11,993.878 315.415,1052.71 328.72,1103.62 342.025,1148.1 368.634,1222.1 
  395.244,1281.18 421.854,1329.44 448.463,1369.61 480.446,1409.78 512.429,1443.21 544.411,1471.46 576.394,1495.66 630.475,1529.52 684.557,1556.76 802.053,1600.8 
  910.374,1629.63 1026.51,1652.8 1161.05,1673.1 1280.63,1687.16 1385.48,1697.28 1499.8,1706.54 1614.8,1714.42 1741.94,1721.82 1862.92,1727.86 1988.7,1733.3 
  2094.59,1737.34 2223.86,1741.71 2345.38,1745.36 2540.07,1750.44 2570.03,1751.15 
  "/>
<path clip-path="url(#clip780)" d="
M2227.37 209.375 L2557.46 209.375 L2557.46 105.695 L2227.37 105.695  Z
  " fill="#ffffff" fill-rule="evenodd" fill-opacity="1"/>
<polyline clip-path="url(#clip780)" style="stroke:#000000; stroke-linecap:butt; stroke-linejoin:round; stroke-width:4; stroke-opacity:1; fill:none" points="
  2227.37,209.375 2557.46,209.375 2557.46,105.695 2227.37,105.695 2227.37,209.375 
  "/>
<polyline clip-path="url(#clip780)" style="stroke:#009af9; stroke-linecap:butt; stroke-linejoin:round; stroke-width:4; stroke-opacity:1; fill:none" points="
  2255.14,157.535 2421.73,157.535 
  "/>
<path clip-path="url(#clip780)" d="M2463.34 177.223 Q2461.53 181.852 2459.82 183.264 Q2458.11 184.676 2455.24 184.676 L2451.83 184.676 L2451.83 181.112 L2454.33 181.112 Q2456.09 181.112 2457.07 180.278 Q2458.04 179.445 2459.22 176.343 L2459.98 174.399 L2449.5 148.889 L2454.01 148.889 L2462.11 169.167 L2470.21 148.889 L2474.73 148.889 L2463.34 177.223 Z" fill="#000000" fill-rule="evenodd" fill-opacity="1" /><path clip-path="url(#clip780)" d="M2482.02 170.88 L2489.66 170.88 L2489.66 144.515 L2481.35 146.181 L2481.35 141.922 L2489.61 140.255 L2494.29 140.255 L2494.29 170.88 L2501.93 170.88 L2501.93 174.815 L2482.02 174.815 L2482.02 170.88 Z" fill="#000000" fill-rule="evenodd" fill-opacity="1" /></svg>
