<?xml version="1.0" encoding="utf-8"?>
<svg xmlns="http://www.w3.org/2000/svg" xmlns:xlink="http://www.w3.org/1999/xlink" width="672" height="480" viewBox="0 0 2688 1920">
<defs>
  <clipPath id="clip000">
    <rect x="0" y="0" width="2688" height="1920"/>
  </clipPath>
</defs>
<path clip-path="url(#clip000)" d="M0 1920 L2688 1920 L2688 0 L0 0  Z" fill="#ffffff" fill-rule="evenodd" fill-opacity="1"/>
<defs>
  <clipPath id="clip001">
    <rect x="537" y="0" width="1883" height="1883"/>
  </clipPath>
</defs>
<path clip-path="url(#clip000)" d="M158.992 1800.78 L2640.76 1800.78 L2640.76 47.2441 L158.992 47.2441  Z" fill="#ffffff" fill-rule="evenodd" fill-opacity="1"/>
<defs>
  <clipPath id="clip002">
    <rect x="158" y="47" width="2483" height="1755"/>
  </clipPath>
</defs>
<polyline clip-path="url(#clip002)" style="stroke:#000000; stroke-linecap:round; stroke-linejoin:round; stroke-width:2; stroke-opacity:0.1; fill:none" points="229.231,1800.78 229.231,47.2441 "/>
<polyline clip-path="url(#clip002)" style="stroke:#000000; stroke-linecap:round; stroke-linejoin:round; stroke-width:2; stroke-opacity:0.1; fill:none" points="1009.66,1800.78 1009.66,47.2441 "/>
<polyline clip-path="url(#clip002)" style="stroke:#000000; stroke-linecap:round; stroke-linejoin:round; stroke-width:2; stroke-opacity:0.1; fill:none" points="1790.09,1800.78 1790.09,47.2441 "/>
<polyline clip-path="url(#clip002)" style="stroke:#000000; stroke-linecap:round; stroke-linejoin:round; stroke-width:2; stroke-opacity:0.1; fill:none" points="2570.52,1800.78 2570.52,47.2441 "/>
<polyline clip-path="url(#clip000)" style="stroke:#000000; stroke-linecap:round; stroke-linejoin:round; stroke-width:4; stroke-opacity:1; fill:none" points="158.992,1800.78 2640.76,1800.78 "/>
<polyline clip-path="url(#clip000)" style="stroke:#000000; stroke-linecap:round; stroke-linejoin:round; stroke-width:4; stroke-opacity:1; fill:none" points="229.231,1800.78 229.231,1781.88 "/>
<polyline clip-path="url(#clip000)" style="stroke:#000000; stroke-linecap:round; stroke-linejoin:round; stroke-width:4; stroke-opacity:1; fill:none" points="1009.66,1800.78 1009.66,1781.88 "/>
<polyline clip-path="url(#clip000)" style="stroke:#000000; stroke-linecap:round; stroke-linejoin:round; stroke-width:4; stroke-opacity:1; fill:none" points="1790.09,1800.78 1790.09,1781.88 "/>
<polyline clip-path="url(#clip000)" style="stroke:#000000; stroke-linecap:round; stroke-linejoin:round; stroke-width:4; stroke-opacity:1; fill:none" points="2570.52,1800.78 2570.52,1781.88 "/>
<path clip-path="url(#clip000)" d="M229.231 1834 Q225.62 1834 223.791 1837.57 Q221.985 1841.11 221.985 1848.24 Q221.985 1855.34 223.791 1858.91 Q225.62 1862.45 229.231 1862.45 Q232.865 1862.45 234.671 1858.91 Q236.499 1855.34 236.499 1848.24 Q236.499 1841.11 234.671 1837.57 Q232.865 1834 229.231 1834 M229.231 1830.3 Q235.041 1830.3 238.096 1834.9 Q241.175 1839.49 241.175 1848.24 Q241.175 1856.96 238.096 1861.57 Q235.041 1866.15 229.231 1866.15 Q223.421 1866.15 220.342 1861.57 Q217.286 1856.96 217.286 1848.24 Q217.286 1839.49 220.342 1834.9 Q223.421 1830.3 229.231 1830.3 Z" fill="#000000" fill-rule="evenodd" fill-opacity="1" /><path clip-path="url(#clip000)" d="M1000.04 1861.55 L1007.68 1861.55 L1007.68 1835.18 L999.37 1836.85 L999.37 1832.59 L1007.63 1830.92 L1012.31 1830.92 L1012.31 1861.55 L1019.95 1861.55 L1019.95 1865.48 L1000.04 1865.48 L1000.04 1861.55 Z" fill="#000000" fill-rule="evenodd" fill-opacity="1" /><path clip-path="url(#clip000)" d="M1784.74 1861.55 L1801.06 1861.55 L1801.06 1865.48 L1779.12 1865.48 L1779.12 1861.55 Q1781.78 1858.79 1786.36 1854.16 Q1790.97 1849.51 1792.15 1848.17 Q1794.39 1845.65 1795.27 1843.91 Q1796.18 1842.15 1796.18 1840.46 Q1796.18 1837.71 1794.23 1835.97 Q1792.31 1834.23 1789.21 1834.23 Q1787.01 1834.23 1784.56 1835 Q1782.13 1835.76 1779.35 1837.31 L1779.35 1832.59 Q1782.17 1831.46 1784.63 1830.88 Q1787.08 1830.3 1789.12 1830.3 Q1794.49 1830.3 1797.68 1832.98 Q1800.88 1835.67 1800.88 1840.16 Q1800.88 1842.29 1800.07 1844.21 Q1799.28 1846.11 1797.17 1848.7 Q1796.59 1849.37 1793.49 1852.59 Q1790.39 1855.78 1784.74 1861.55 Z" fill="#000000" fill-rule="evenodd" fill-opacity="1" /><path clip-path="url(#clip000)" d="M2574.76 1846.85 Q2578.12 1847.57 2580 1849.84 Q2581.89 1852.1 2581.89 1855.44 Q2581.89 1860.55 2578.38 1863.35 Q2574.86 1866.15 2568.38 1866.15 Q2566.2 1866.15 2563.89 1865.71 Q2561.59 1865.3 2559.14 1864.44 L2559.14 1859.93 Q2561.08 1861.06 2563.4 1861.64 Q2565.71 1862.22 2568.24 1862.22 Q2572.64 1862.22 2574.93 1860.48 Q2577.24 1858.75 2577.24 1855.44 Q2577.24 1852.38 2575.09 1850.67 Q2572.96 1848.93 2569.14 1848.93 L2565.11 1848.93 L2565.11 1845.09 L2569.33 1845.09 Q2572.77 1845.09 2574.6 1843.72 Q2576.43 1842.34 2576.43 1839.74 Q2576.43 1837.08 2574.53 1835.67 Q2572.66 1834.23 2569.14 1834.23 Q2567.22 1834.23 2565.02 1834.65 Q2562.82 1835.07 2560.18 1835.95 L2560.18 1831.78 Q2562.84 1831.04 2565.16 1830.67 Q2567.5 1830.3 2569.56 1830.3 Q2574.88 1830.3 2577.98 1832.73 Q2581.08 1835.14 2581.08 1839.26 Q2581.08 1842.13 2579.44 1844.12 Q2577.8 1846.09 2574.76 1846.85 Z" fill="#000000" fill-rule="evenodd" fill-opacity="1" /><polyline clip-path="url(#clip002)" style="stroke:#000000; stroke-linecap:round; stroke-linejoin:round; stroke-width:2; stroke-opacity:0.1; fill:none" points="158.992,1567.37 2640.76,1567.37 "/>
<polyline clip-path="url(#clip002)" style="stroke:#000000; stroke-linecap:round; stroke-linejoin:round; stroke-width:2; stroke-opacity:0.1; fill:none" points="158.992,1199.75 2640.76,1199.75 "/>
<polyline clip-path="url(#clip002)" style="stroke:#000000; stroke-linecap:round; stroke-linejoin:round; stroke-width:2; stroke-opacity:0.1; fill:none" points="158.992,832.123 2640.76,832.123 "/>
<polyline clip-path="url(#clip002)" style="stroke:#000000; stroke-linecap:round; stroke-linejoin:round; stroke-width:2; stroke-opacity:0.1; fill:none" points="158.992,464.497 2640.76,464.497 "/>
<polyline clip-path="url(#clip002)" style="stroke:#000000; stroke-linecap:round; stroke-linejoin:round; stroke-width:2; stroke-opacity:0.1; fill:none" points="158.992,96.8724 2640.76,96.8724 "/>
<polyline clip-path="url(#clip000)" style="stroke:#000000; stroke-linecap:round; stroke-linejoin:round; stroke-width:4; stroke-opacity:1; fill:none" points="158.992,1800.78 158.992,47.2441 "/>
<polyline clip-path="url(#clip000)" style="stroke:#000000; stroke-linecap:round; stroke-linejoin:round; stroke-width:4; stroke-opacity:1; fill:none" points="158.992,1567.37 177.89,1567.37 "/>
<polyline clip-path="url(#clip000)" style="stroke:#000000; stroke-linecap:round; stroke-linejoin:round; stroke-width:4; stroke-opacity:1; fill:none" points="158.992,1199.75 177.89,1199.75 "/>
<polyline clip-path="url(#clip000)" style="stroke:#000000; stroke-linecap:round; stroke-linejoin:round; stroke-width:4; stroke-opacity:1; fill:none" points="158.992,832.123 177.89,832.123 "/>
<polyline clip-path="url(#clip000)" style="stroke:#000000; stroke-linecap:round; stroke-linejoin:round; stroke-width:4; stroke-opacity:1; fill:none" points="158.992,464.497 177.89,464.497 "/>
<polyline clip-path="url(#clip000)" style="stroke:#000000; stroke-linecap:round; stroke-linejoin:round; stroke-width:4; stroke-opacity:1; fill:none" points="158.992,96.8724 177.89,96.8724 "/>
<path clip-path="url(#clip000)" d="M61.4965 1553.17 Q57.8854 1553.17 56.0567 1556.74 Q54.2512 1560.28 54.2512 1567.41 Q54.2512 1574.51 56.0567 1578.08 Q57.8854 1581.62 61.4965 1581.62 Q65.1307 1581.62 66.9363 1578.08 Q68.765 1574.51 68.765 1567.41 Q68.765 1560.28 66.9363 1556.74 Q65.1307 1553.17 61.4965 1553.17 M61.4965 1549.47 Q67.3067 1549.47 70.3622 1554.07 Q73.4409 1558.66 73.4409 1567.41 Q73.4409 1576.13 70.3622 1580.74 Q67.3067 1585.32 61.4965 1585.32 Q55.6864 1585.32 52.6077 1580.74 Q49.5521 1576.13 49.5521 1567.41 Q49.5521 1558.66 52.6077 1554.07 Q55.6864 1549.47 61.4965 1549.47 Z" fill="#000000" fill-rule="evenodd" fill-opacity="1" /><path clip-path="url(#clip000)" d="M81.6584 1578.77 L86.5427 1578.77 L86.5427 1584.65 L81.6584 1584.65 L81.6584 1578.77 Z" fill="#000000" fill-rule="evenodd" fill-opacity="1" /><path clip-path="url(#clip000)" d="M106.728 1553.17 Q103.117 1553.17 101.288 1556.74 Q99.4824 1560.28 99.4824 1567.41 Q99.4824 1574.51 101.288 1578.08 Q103.117 1581.62 106.728 1581.62 Q110.362 1581.62 112.168 1578.08 Q113.996 1574.51 113.996 1567.41 Q113.996 1560.28 112.168 1556.74 Q110.362 1553.17 106.728 1553.17 M106.728 1549.47 Q112.538 1549.47 115.593 1554.07 Q118.672 1558.66 118.672 1567.41 Q118.672 1576.13 115.593 1580.74 Q112.538 1585.32 106.728 1585.32 Q100.918 1585.32 97.8389 1580.74 Q94.7834 1576.13 94.7834 1567.41 Q94.7834 1558.66 97.8389 1554.07 Q100.918 1549.47 106.728 1549.47 Z" fill="#000000" fill-rule="evenodd" fill-opacity="1" /><path clip-path="url(#clip000)" d="M62.4919 1185.55 Q58.8808 1185.55 57.0521 1189.11 Q55.2465 1192.65 55.2465 1199.78 Q55.2465 1206.89 57.0521 1210.45 Q58.8808 1214 62.4919 1214 Q66.1261 1214 67.9317 1210.45 Q69.7604 1206.89 69.7604 1199.78 Q69.7604 1192.65 67.9317 1189.11 Q66.1261 1185.55 62.4919 1185.55 M62.4919 1181.84 Q68.302 1181.84 71.3576 1186.45 Q74.4363 1191.03 74.4363 1199.78 Q74.4363 1208.51 71.3576 1213.12 Q68.302 1217.7 62.4919 1217.7 Q56.6817 1217.7 53.603 1213.12 Q50.5475 1208.51 50.5475 1199.78 Q50.5475 1191.03 53.603 1186.45 Q56.6817 1181.84 62.4919 1181.84 Z" fill="#000000" fill-rule="evenodd" fill-opacity="1" /><path clip-path="url(#clip000)" d="M82.6538 1211.15 L87.538 1211.15 L87.538 1217.03 L82.6538 1217.03 L82.6538 1211.15 Z" fill="#000000" fill-rule="evenodd" fill-opacity="1" /><path clip-path="url(#clip000)" d="M97.7695 1182.47 L116.126 1182.47 L116.126 1186.4 L102.052 1186.4 L102.052 1194.87 Q103.07 1194.53 104.089 1194.37 Q105.107 1194.18 106.126 1194.18 Q111.913 1194.18 115.293 1197.35 Q118.672 1200.52 118.672 1205.94 Q118.672 1211.52 115.2 1214.62 Q111.728 1217.7 105.408 1217.7 Q103.232 1217.7 100.964 1217.33 Q98.7185 1216.96 96.3111 1216.22 L96.3111 1211.52 Q98.3945 1212.65 100.617 1213.21 Q102.839 1213.76 105.316 1213.76 Q109.32 1213.76 111.658 1211.66 Q113.996 1209.55 113.996 1205.94 Q113.996 1202.33 111.658 1200.22 Q109.32 1198.12 105.316 1198.12 Q103.441 1198.12 101.566 1198.53 Q99.7139 1198.95 97.7695 1199.83 L97.7695 1182.47 Z" fill="#000000" fill-rule="evenodd" fill-opacity="1" /><path clip-path="url(#clip000)" d="M52.3067 845.467 L59.9456 845.467 L59.9456 819.102 L51.6354 820.768 L51.6354 816.509 L59.8993 814.843 L64.5752 814.843 L64.5752 845.467 L72.214 845.467 L72.214 849.403 L52.3067 849.403 L52.3067 845.467 Z" fill="#000000" fill-rule="evenodd" fill-opacity="1" /><path clip-path="url(#clip000)" d="M81.6584 843.523 L86.5427 843.523 L86.5427 849.403 L81.6584 849.403 L81.6584 843.523 Z" fill="#000000" fill-rule="evenodd" fill-opacity="1" /><path clip-path="url(#clip000)" d="M106.728 817.921 Q103.117 817.921 101.288 821.486 Q99.4824 825.028 99.4824 832.157 Q99.4824 839.264 101.288 842.828 Q103.117 846.37 106.728 846.37 Q110.362 846.37 112.168 842.828 Q113.996 839.264 113.996 832.157 Q113.996 825.028 112.168 821.486 Q110.362 817.921 106.728 817.921 M106.728 814.218 Q112.538 814.218 115.593 818.824 Q118.672 823.407 118.672 832.157 Q118.672 840.884 115.593 845.491 Q112.538 850.074 106.728 850.074 Q100.918 850.074 97.8389 845.491 Q94.7834 840.884 94.7834 832.157 Q94.7834 823.407 97.8389 818.824 Q100.918 814.218 106.728 814.218 Z" fill="#000000" fill-rule="evenodd" fill-opacity="1" /><path clip-path="url(#clip000)" d="M53.3021 477.842 L60.941 477.842 L60.941 451.477 L52.6308 453.143 L52.6308 448.884 L60.8947 447.217 L65.5706 447.217 L65.5706 477.842 L73.2094 477.842 L73.2094 481.777 L53.3021 481.777 L53.3021 477.842 Z" fill="#000000" fill-rule="evenodd" fill-opacity="1" /><path clip-path="url(#clip000)" d="M82.6538 475.898 L87.538 475.898 L87.538 481.777 L82.6538 481.777 L82.6538 475.898 Z" fill="#000000" fill-rule="evenodd" fill-opacity="1" /><path clip-path="url(#clip000)" d="M97.7695 447.217 L116.126 447.217 L116.126 451.153 L102.052 451.153 L102.052 459.625 Q103.07 459.278 104.089 459.116 Q105.107 458.93 106.126 458.93 Q111.913 458.93 115.293 462.102 Q118.672 465.273 118.672 470.69 Q118.672 476.268 115.2 479.37 Q111.728 482.449 105.408 482.449 Q103.232 482.449 100.964 482.078 Q98.7185 481.708 96.3111 480.967 L96.3111 476.268 Q98.3945 477.403 100.617 477.958 Q102.839 478.514 105.316 478.514 Q109.32 478.514 111.658 476.407 Q113.996 474.301 113.996 470.69 Q113.996 467.078 111.658 464.972 Q109.32 462.866 105.316 462.866 Q103.441 462.866 101.566 463.282 Q99.7139 463.699 97.7695 464.579 L97.7695 447.217 Z" fill="#000000" fill-rule="evenodd" fill-opacity="1" /><path clip-path="url(#clip000)" d="M55.5243 110.217 L71.8437 110.217 L71.8437 114.152 L49.8993 114.152 L49.8993 110.217 Q52.5614 107.463 57.1447 102.833 Q61.7511 98.1803 62.9317 96.8377 Q65.177 94.3146 66.0567 92.5785 Q66.9594 90.8192 66.9594 89.1294 Q66.9594 86.3748 65.015 84.6387 Q63.0937 82.9026 59.9919 82.9026 Q57.7928 82.9026 55.3391 83.6665 Q52.9086 84.4304 50.1308 85.9813 L50.1308 81.2591 Q52.9549 80.1249 55.4086 79.5462 Q57.8623 78.9675 59.8993 78.9675 Q65.2696 78.9675 68.4641 81.6526 Q71.6585 84.3378 71.6585 88.8285 Q71.6585 90.9581 70.8483 92.8794 Q70.0613 94.7776 67.9548 97.3701 Q67.3761 98.0414 64.2743 101.259 Q61.1724 104.453 55.5243 110.217 Z" fill="#000000" fill-rule="evenodd" fill-opacity="1" /><path clip-path="url(#clip000)" d="M81.6584 108.273 L86.5427 108.273 L86.5427 114.152 L81.6584 114.152 L81.6584 108.273 Z" fill="#000000" fill-rule="evenodd" fill-opacity="1" /><path clip-path="url(#clip000)" d="M106.728 82.6711 Q103.117 82.6711 101.288 86.2359 Q99.4824 89.7776 99.4824 96.9072 Q99.4824 104.014 101.288 107.578 Q103.117 111.12 106.728 111.12 Q110.362 111.12 112.168 107.578 Q113.996 104.014 113.996 96.9072 Q113.996 89.7776 112.168 86.2359 Q110.362 82.6711 106.728 82.6711 M106.728 78.9675 Q112.538 78.9675 115.593 83.5739 Q118.672 88.1572 118.672 96.9072 Q118.672 105.634 115.593 110.24 Q112.538 114.824 106.728 114.824 Q100.918 114.824 97.8389 110.24 Q94.7834 105.634 94.7834 96.9072 Q94.7834 88.1572 97.8389 83.5739 Q100.918 78.9675 106.728 78.9675 Z" fill="#000000" fill-rule="evenodd" fill-opacity="1" /><polyline clip-path="url(#clip002)" style="stroke:#009af9; stroke-linecap:round; stroke-linejoin:round; stroke-width:4; stroke-opacity:1; fill:none" points="229.231,96.8724 233.041,107.625 236.852,118.343 240.663,129.026 244.474,139.674 279.71,236.467 314.946,330.262 350.182,421.06 385.418,508.861 427.769,610.423 470.119,707.655 505.926,786.484 541.733,862.219 580.63,940.98 619.526,1016.09 655.385,1082.1 691.244,1145 729.689,1208.99 768.134,1269.41 790.405,1302.78 812.676,1334.95 834.947,1365.93 857.218,1395.7 896.802,1445.67 936.385,1491.86 971.097,1529.25 1005.81,1563.73 1043.65,1598 1081.5,1628.82 1119.57,1656.34 1157.64,1680.35 1199.73,1702.83 1241.82,1721.03 1281.87,1734.37 1321.91,1743.85 1363.56,1749.59 1405.2,1751.15 1440.25,1749.22 1475.3,1744.32 1496.7,1739.87 1518.1,1734.31 1539.5,1727.65 1560.89,1719.89 1600.1,1702.79 1639.3,1681.98 1675.51,1659.47 1711.71,1633.79 1748.39,1604.56 1785.07,1572.07 1826.17,1531.81 1867.28,1487.46 1904.52,1443.75 1941.77,1396.7 1963.1,1368.25 1984.42,1338.71 2005.74,1308.06 2027.06,1276.32 2066.55,1214.65 2106.04,1149.21 2144.96,1081.01 2183.89,1009.15 2221.69,935.885 2259.49,859.167 2298.23,776.941 2336.98,691.09 2358.2,642.524 2379.43,592.87 2400.66,542.128 2421.88,490.299 2452.71,413.07 2483.55,333.546 2514.38,251.727 2545.21,167.612 2551.54,150.072 2557.87,132.436 2564.19,114.702 2570.52,96.8724 "/>
<circle clip-path="url(#clip002)" cx="1009.66" cy="1567.37" r="14.4" fill="#e26f46" fill-rule="evenodd" fill-opacity="1" stroke="#000000" stroke-opacity="1" stroke-width="3.84"/>
<circle clip-path="url(#clip002)" cx="1790.09" cy="1567.37" r="14.4" fill="#e26f46" fill-rule="evenodd" fill-opacity="1" stroke="#000000" stroke-opacity="1" stroke-width="3.84"/>
<path clip-path="url(#clip000)" d="M2257.42 1742.33 L2558.03 1742.33 L2558.03 1586.81 L2257.42 1586.81  Z" fill="#ffffff" fill-rule="evenodd" fill-opacity="1"/>
<polyline clip-path="url(#clip000)" style="stroke:#000000; stroke-linecap:round; stroke-linejoin:round; stroke-width:4; stroke-opacity:1; fill:none" points="2257.42,1742.33 2558.03,1742.33 2558.03,1586.81 2257.42,1586.81 2257.42,1742.33 "/>
<polyline clip-path="url(#clip000)" style="stroke:#009af9; stroke-linecap:round; stroke-linejoin:round; stroke-width:4; stroke-opacity:1; fill:none" points="2285,1638.65 2450.45,1638.65 "/>
<path clip-path="url(#clip000)" d="M2491.87 1658.34 Q2490.06 1662.97 2488.35 1664.38 Q2486.64 1665.79 2483.77 1665.79 L2480.36 1665.79 L2480.36 1662.22 L2482.86 1662.22 Q2484.62 1662.22 2485.59 1661.39 Q2486.57 1660.56 2487.75 1657.46 L2488.51 1655.51 L2478.03 1630 L2482.54 1630 L2490.64 1650.28 L2498.74 1630 L2503.26 1630 L2491.87 1658.34 Z" fill="#000000" fill-rule="evenodd" fill-opacity="1" /><path clip-path="url(#clip000)" d="M2510.55 1651.99 L2518.19 1651.99 L2518.19 1625.63 L2509.88 1627.29 L2509.88 1623.03 L2518.14 1621.37 L2522.82 1621.37 L2522.82 1651.99 L2530.46 1651.99 L2530.46 1655.93 L2510.55 1655.93 L2510.55 1651.99 Z" fill="#000000" fill-rule="evenodd" fill-opacity="1" /><circle clip-path="url(#clip000)" cx="2367.72" cy="1690.49" r="23.04" fill="#e26f46" fill-rule="evenodd" fill-opacity="1" stroke="#000000" stroke-opacity="1" stroke-width="6.144"/>
<path clip-path="url(#clip000)" d="M2491.87 1710.18 Q2490.06 1714.81 2488.35 1716.22 Q2486.64 1717.63 2483.77 1717.63 L2480.36 1717.63 L2480.36 1714.06 L2482.86 1714.06 Q2484.62 1714.06 2485.59 1713.23 Q2486.57 1712.4 2487.75 1709.3 L2488.51 1707.35 L2478.03 1681.84 L2482.54 1681.84 L2490.64 1702.12 L2498.74 1681.84 L2503.26 1681.84 L2491.87 1710.18 Z" fill="#000000" fill-rule="evenodd" fill-opacity="1" /><path clip-path="url(#clip000)" d="M2513.77 1703.83 L2530.08 1703.83 L2530.08 1707.77 L2508.14 1707.77 L2508.14 1703.83 Q2510.8 1701.08 2515.39 1696.45 Q2519.99 1691.8 2521.17 1690.45 Q2523.42 1687.93 2524.3 1686.19 Q2525.2 1684.43 2525.2 1682.75 Q2525.2 1679.99 2523.26 1678.25 Q2521.33 1676.52 2518.23 1676.52 Q2516.03 1676.52 2513.58 1677.28 Q2511.15 1678.05 2508.37 1679.6 L2508.37 1674.87 Q2511.2 1673.74 2513.65 1673.16 Q2516.1 1672.58 2518.14 1672.58 Q2523.51 1672.58 2526.71 1675.27 Q2529.9 1677.95 2529.9 1682.44 Q2529.9 1684.57 2529.09 1686.5 Q2528.3 1688.39 2526.2 1690.99 Q2525.62 1691.66 2522.52 1694.87 Q2519.41 1698.07 2513.77 1703.83 Z" fill="#000000" fill-rule="evenodd" fill-opacity="1" /></svg>
