<?xml version="1.0" encoding="utf-8"?>
<svg xmlns="http://www.w3.org/2000/svg" xmlns:xlink="http://www.w3.org/1999/xlink" width="672" height="480" viewBox="0 0 2688 1920">
<defs>
  <clipPath id="clip340">
    <rect x="0" y="0" width="2688" height="1920"/>
  </clipPath>
</defs>
<path clip-path="url(#clip340)" d="
M0 1920 L2688 1920 L2688 0 L0 0  Z
  " fill="#ffffff" fill-rule="evenodd" fill-opacity="1"/>
<defs>
  <clipPath id="clip341">
    <rect x="537" y="0" width="1883" height="1883"/>
  </clipPath>
</defs>
<path clip-path="url(#clip340)" d="
M140.844 1800.78 L2640.76 1800.78 L2640.76 47.2441 L140.844 47.2441  Z
  " fill="#ffffff" fill-rule="evenodd" fill-opacity="1"/>
<defs>
  <clipPath id="clip342">
    <rect x="140" y="47" width="2501" height="1755"/>
  </clipPath>
</defs>
<polyline clip-path="url(#clip342)" style="stroke:#000000; stroke-linecap:butt; stroke-linejoin:round; stroke-width:2; stroke-opacity:0.1; fill:none" points="
  211.596,1800.78 211.596,47.2441 
  "/>
<polyline clip-path="url(#clip342)" style="stroke:#000000; stroke-linecap:butt; stroke-linejoin:round; stroke-width:2; stroke-opacity:0.1; fill:none" points="
  604.664,1800.78 604.664,47.2441 
  "/>
<polyline clip-path="url(#clip342)" style="stroke:#000000; stroke-linecap:butt; stroke-linejoin:round; stroke-width:2; stroke-opacity:0.1; fill:none" points="
  997.732,1800.78 997.732,47.2441 
  "/>
<polyline clip-path="url(#clip342)" style="stroke:#000000; stroke-linecap:butt; stroke-linejoin:round; stroke-width:2; stroke-opacity:0.1; fill:none" points="
  1390.8,1800.78 1390.8,47.2441 
  "/>
<polyline clip-path="url(#clip342)" style="stroke:#000000; stroke-linecap:butt; stroke-linejoin:round; stroke-width:2; stroke-opacity:0.1; fill:none" points="
  1783.87,1800.78 1783.87,47.2441 
  "/>
<polyline clip-path="url(#clip342)" style="stroke:#000000; stroke-linecap:butt; stroke-linejoin:round; stroke-width:2; stroke-opacity:0.1; fill:none" points="
  2176.94,1800.78 2176.94,47.2441 
  "/>
<polyline clip-path="url(#clip342)" style="stroke:#000000; stroke-linecap:butt; stroke-linejoin:round; stroke-width:2; stroke-opacity:0.1; fill:none" points="
  2570,1800.78 2570,47.2441 
  "/>
<polyline clip-path="url(#clip340)" style="stroke:#000000; stroke-linecap:butt; stroke-linejoin:round; stroke-width:4; stroke-opacity:1; fill:none" points="
  140.844,1800.78 2640.76,1800.78 
  "/>
<polyline clip-path="url(#clip340)" style="stroke:#000000; stroke-linecap:butt; stroke-linejoin:round; stroke-width:4; stroke-opacity:1; fill:none" points="
  211.596,1800.78 211.596,1781.88 
  "/>
<polyline clip-path="url(#clip340)" style="stroke:#000000; stroke-linecap:butt; stroke-linejoin:round; stroke-width:4; stroke-opacity:1; fill:none" points="
  604.664,1800.78 604.664,1781.88 
  "/>
<polyline clip-path="url(#clip340)" style="stroke:#000000; stroke-linecap:butt; stroke-linejoin:round; stroke-width:4; stroke-opacity:1; fill:none" points="
  997.732,1800.78 997.732,1781.88 
  "/>
<polyline clip-path="url(#clip340)" style="stroke:#000000; stroke-linecap:butt; stroke-linejoin:round; stroke-width:4; stroke-opacity:1; fill:none" points="
  1390.8,1800.78 1390.8,1781.88 
  "/>
<polyline clip-path="url(#clip340)" style="stroke:#000000; stroke-linecap:butt; stroke-linejoin:round; stroke-width:4; stroke-opacity:1; fill:none" points="
  1783.87,1800.78 1783.87,1781.88 
  "/>
<polyline clip-path="url(#clip340)" style="stroke:#000000; stroke-linecap:butt; stroke-linejoin:round; stroke-width:4; stroke-opacity:1; fill:none" points="
  2176.94,1800.78 2176.94,1781.88 
  "/>
<polyline clip-path="url(#clip340)" style="stroke:#000000; stroke-linecap:butt; stroke-linejoin:round; stroke-width:4; stroke-opacity:1; fill:none" points="
  2570,1800.78 2570,1781.88 
  "/>
<path clip-path="url(#clip340)" d="M181.064 1848.65 L210.74 1848.65 L210.74 1852.59 L181.064 1852.59 L181.064 1848.65 Z" fill="#000000" fill-rule="evenodd" fill-opacity="1" /><path clip-path="url(#clip340)" d="M234.999 1846.85 Q238.355 1847.57 240.23 1849.84 Q242.129 1852.1 242.129 1855.44 Q242.129 1860.55 238.61 1863.35 Q235.092 1866.15 228.61 1866.15 Q226.434 1866.15 224.119 1865.71 Q221.828 1865.3 219.374 1864.44 L219.374 1859.93 Q221.318 1861.06 223.633 1861.64 Q225.948 1862.22 228.471 1862.22 Q232.869 1862.22 235.161 1860.48 Q237.476 1858.75 237.476 1855.44 Q237.476 1852.38 235.323 1850.67 Q233.193 1848.93 229.374 1848.93 L225.346 1848.93 L225.346 1845.09 L229.559 1845.09 Q233.008 1845.09 234.837 1843.72 Q236.666 1842.34 236.666 1839.74 Q236.666 1837.08 234.767 1835.67 Q232.892 1834.23 229.374 1834.23 Q227.453 1834.23 225.254 1834.65 Q223.055 1835.07 220.416 1835.95 L220.416 1831.78 Q223.078 1831.04 225.393 1830.67 Q227.73 1830.3 229.791 1830.3 Q235.115 1830.3 238.217 1832.73 Q241.318 1835.14 241.318 1839.26 Q241.318 1842.13 239.675 1844.12 Q238.031 1846.09 234.999 1846.85 Z" fill="#000000" fill-rule="evenodd" fill-opacity="1" /><path clip-path="url(#clip340)" d="M574.606 1848.65 L604.282 1848.65 L604.282 1852.59 L574.606 1852.59 L574.606 1848.65 Z" fill="#000000" fill-rule="evenodd" fill-opacity="1" /><path clip-path="url(#clip340)" d="M618.403 1861.55 L634.722 1861.55 L634.722 1865.48 L612.778 1865.48 L612.778 1861.55 Q615.44 1858.79 620.023 1854.16 Q624.629 1849.51 625.81 1848.17 Q628.055 1845.65 628.935 1843.91 Q629.838 1842.15 629.838 1840.46 Q629.838 1837.71 627.893 1835.97 Q625.972 1834.23 622.87 1834.23 Q620.671 1834.23 618.217 1835 Q615.787 1835.76 613.009 1837.31 L613.009 1832.59 Q615.833 1831.46 618.287 1830.88 Q620.74 1830.3 622.778 1830.3 Q628.148 1830.3 631.342 1832.98 Q634.537 1835.67 634.537 1840.16 Q634.537 1842.29 633.727 1844.21 Q632.94 1846.11 630.833 1848.7 Q630.254 1849.37 627.152 1852.59 Q624.051 1855.78 618.403 1861.55 Z" fill="#000000" fill-rule="evenodd" fill-opacity="1" /><path clip-path="url(#clip340)" d="M967.489 1848.65 L997.165 1848.65 L997.165 1852.59 L967.489 1852.59 L967.489 1848.65 Z" fill="#000000" fill-rule="evenodd" fill-opacity="1" /><path clip-path="url(#clip340)" d="M1008.07 1861.55 L1015.71 1861.55 L1015.71 1835.18 L1007.4 1836.85 L1007.4 1832.59 L1015.66 1830.92 L1020.34 1830.92 L1020.34 1861.55 L1027.97 1861.55 L1027.97 1865.48 L1008.07 1865.48 L1008.07 1861.55 Z" fill="#000000" fill-rule="evenodd" fill-opacity="1" /><path clip-path="url(#clip340)" d="M1390.8 1834 Q1387.19 1834 1385.36 1837.57 Q1383.55 1841.11 1383.55 1848.24 Q1383.55 1855.34 1385.36 1858.91 Q1387.19 1862.45 1390.8 1862.45 Q1394.43 1862.45 1396.24 1858.91 Q1398.07 1855.34 1398.07 1848.24 Q1398.07 1841.11 1396.24 1837.57 Q1394.43 1834 1390.8 1834 M1390.8 1830.3 Q1396.61 1830.3 1399.67 1834.9 Q1402.74 1839.49 1402.74 1848.24 Q1402.74 1856.96 1399.67 1861.57 Q1396.61 1866.15 1390.8 1866.15 Q1384.99 1866.15 1381.91 1861.57 Q1378.86 1856.96 1378.86 1848.24 Q1378.86 1839.49 1381.91 1834.9 Q1384.99 1830.3 1390.8 1830.3 Z" fill="#000000" fill-rule="evenodd" fill-opacity="1" /><path clip-path="url(#clip340)" d="M1774.25 1861.55 L1781.89 1861.55 L1781.89 1835.18 L1773.58 1836.85 L1773.58 1832.59 L1781.84 1830.92 L1786.52 1830.92 L1786.52 1861.55 L1794.16 1861.55 L1794.16 1865.48 L1774.25 1865.48 L1774.25 1861.55 Z" fill="#000000" fill-rule="evenodd" fill-opacity="1" /><path clip-path="url(#clip340)" d="M2171.59 1861.55 L2187.91 1861.55 L2187.91 1865.48 L2165.96 1865.48 L2165.96 1861.55 Q2168.63 1858.79 2173.21 1854.16 Q2177.82 1849.51 2179 1848.17 Q2181.24 1845.65 2182.12 1843.91 Q2183.02 1842.15 2183.02 1840.46 Q2183.02 1837.71 2181.08 1835.97 Q2179.16 1834.23 2176.06 1834.23 Q2173.86 1834.23 2171.4 1835 Q2168.97 1835.76 2166.2 1837.31 L2166.2 1832.59 Q2169.02 1831.46 2171.47 1830.88 Q2173.93 1830.3 2175.96 1830.3 Q2181.33 1830.3 2184.53 1832.98 Q2187.72 1835.67 2187.72 1840.16 Q2187.72 1842.29 2186.91 1844.21 Q2186.13 1846.11 2184.02 1848.7 Q2183.44 1849.37 2180.34 1852.59 Q2177.24 1855.78 2171.59 1861.55 Z" fill="#000000" fill-rule="evenodd" fill-opacity="1" /><path clip-path="url(#clip340)" d="M2574.25 1846.85 Q2577.61 1847.57 2579.48 1849.84 Q2581.38 1852.1 2581.38 1855.44 Q2581.38 1860.55 2577.86 1863.35 Q2574.34 1866.15 2567.86 1866.15 Q2565.69 1866.15 2563.37 1865.71 Q2561.08 1865.3 2558.63 1864.44 L2558.63 1859.93 Q2560.57 1861.06 2562.89 1861.64 Q2565.2 1862.22 2567.72 1862.22 Q2572.12 1862.22 2574.41 1860.48 Q2576.73 1858.75 2576.73 1855.44 Q2576.73 1852.38 2574.58 1850.67 Q2572.45 1848.93 2568.63 1848.93 L2564.6 1848.93 L2564.6 1845.09 L2568.81 1845.09 Q2572.26 1845.09 2574.09 1843.72 Q2575.92 1842.34 2575.92 1839.74 Q2575.92 1837.08 2574.02 1835.67 Q2572.14 1834.23 2568.63 1834.23 Q2566.71 1834.23 2564.51 1834.65 Q2562.31 1835.07 2559.67 1835.95 L2559.67 1831.78 Q2562.33 1831.04 2564.64 1830.67 Q2566.98 1830.3 2569.04 1830.3 Q2574.37 1830.3 2577.47 1832.73 Q2580.57 1835.14 2580.57 1839.26 Q2580.57 1842.13 2578.93 1844.12 Q2577.28 1846.09 2574.25 1846.85 Z" fill="#000000" fill-rule="evenodd" fill-opacity="1" /><polyline clip-path="url(#clip342)" style="stroke:#000000; stroke-linecap:butt; stroke-linejoin:round; stroke-width:2; stroke-opacity:0.1; fill:none" points="
  140.844,1545.41 2640.76,1545.41 
  "/>
<polyline clip-path="url(#clip342)" style="stroke:#000000; stroke-linecap:butt; stroke-linejoin:round; stroke-width:2; stroke-opacity:0.1; fill:none" points="
  140.844,1235.01 2640.76,1235.01 
  "/>
<polyline clip-path="url(#clip342)" style="stroke:#000000; stroke-linecap:butt; stroke-linejoin:round; stroke-width:2; stroke-opacity:0.1; fill:none" points="
  140.844,924.61 2640.76,924.61 
  "/>
<polyline clip-path="url(#clip342)" style="stroke:#000000; stroke-linecap:butt; stroke-linejoin:round; stroke-width:2; stroke-opacity:0.1; fill:none" points="
  140.844,614.209 2640.76,614.209 
  "/>
<polyline clip-path="url(#clip342)" style="stroke:#000000; stroke-linecap:butt; stroke-linejoin:round; stroke-width:2; stroke-opacity:0.1; fill:none" points="
  140.844,303.807 2640.76,303.807 
  "/>
<polyline clip-path="url(#clip340)" style="stroke:#000000; stroke-linecap:butt; stroke-linejoin:round; stroke-width:4; stroke-opacity:1; fill:none" points="
  140.844,1800.78 140.844,47.2441 
  "/>
<polyline clip-path="url(#clip340)" style="stroke:#000000; stroke-linecap:butt; stroke-linejoin:round; stroke-width:4; stroke-opacity:1; fill:none" points="
  140.844,1545.41 159.742,1545.41 
  "/>
<polyline clip-path="url(#clip340)" style="stroke:#000000; stroke-linecap:butt; stroke-linejoin:round; stroke-width:4; stroke-opacity:1; fill:none" points="
  140.844,1235.01 159.742,1235.01 
  "/>
<polyline clip-path="url(#clip340)" style="stroke:#000000; stroke-linecap:butt; stroke-linejoin:round; stroke-width:4; stroke-opacity:1; fill:none" points="
  140.844,924.61 159.742,924.61 
  "/>
<polyline clip-path="url(#clip340)" style="stroke:#000000; stroke-linecap:butt; stroke-linejoin:round; stroke-width:4; stroke-opacity:1; fill:none" points="
  140.844,614.209 159.742,614.209 
  "/>
<polyline clip-path="url(#clip340)" style="stroke:#000000; stroke-linecap:butt; stroke-linejoin:round; stroke-width:4; stroke-opacity:1; fill:none" points="
  140.844,303.807 159.742,303.807 
  "/>
<path clip-path="url(#clip340)" d="M93.3945 1544.06 Q96.7509 1544.78 98.6259 1547.05 Q100.524 1549.31 100.524 1552.65 Q100.524 1557.76 97.0056 1560.56 Q93.4871 1563.37 87.0056 1563.37 Q84.8297 1563.37 82.5149 1562.93 Q80.2233 1562.51 77.7696 1561.65 L77.7696 1557.14 Q79.714 1558.27 82.0288 1558.85 Q84.3436 1559.43 86.8667 1559.43 Q91.2649 1559.43 93.5565 1557.69 Q95.8713 1555.96 95.8713 1552.65 Q95.8713 1549.59 93.7186 1547.88 Q91.5889 1546.14 87.7695 1546.14 L83.7418 1546.14 L83.7418 1542.3 L87.9547 1542.3 Q91.4038 1542.3 93.2324 1540.93 Q95.0611 1539.55 95.0611 1536.95 Q95.0611 1534.29 93.163 1532.88 Q91.288 1531.44 87.7695 1531.44 Q85.8482 1531.44 83.6492 1531.86 Q81.4501 1532.28 78.8112 1533.16 L78.8112 1528.99 Q81.4733 1528.25 83.7881 1527.88 Q86.126 1527.51 88.1862 1527.51 Q93.5102 1527.51 96.6121 1529.94 Q99.7139 1532.35 99.7139 1536.47 Q99.7139 1539.34 98.0704 1541.33 Q96.4269 1543.3 93.3945 1544.06 Z" fill="#000000" fill-rule="evenodd" fill-opacity="1" /><path clip-path="url(#clip340)" d="M88.9964 1233.15 Q85.8482 1233.15 83.9964 1235.3 Q82.1677 1237.45 82.1677 1241.2 Q82.1677 1244.93 83.9964 1247.11 Q85.8482 1249.26 88.9964 1249.26 Q92.1445 1249.26 93.9732 1247.11 Q95.825 1244.93 95.825 1241.2 Q95.825 1237.45 93.9732 1235.3 Q92.1445 1233.15 88.9964 1233.15 M98.2787 1218.5 L98.2787 1222.76 Q96.5195 1221.92 94.7139 1221.48 Q92.9315 1221.04 91.1723 1221.04 Q86.5427 1221.04 84.089 1224.17 Q81.6584 1227.29 81.3112 1233.61 Q82.6769 1231.6 84.7371 1230.53 Q86.7973 1229.44 89.2741 1229.44 Q94.4824 1229.44 97.4917 1232.62 Q100.524 1235.76 100.524 1241.2 Q100.524 1246.53 97.3759 1249.75 Q94.2278 1252.96 88.9964 1252.96 Q83.001 1252.96 79.8297 1248.38 Q76.6585 1243.77 76.6585 1235.05 Q76.6585 1226.85 80.5473 1221.99 Q84.4362 1217.11 90.9871 1217.11 Q92.7463 1217.11 94.5287 1217.45 Q96.3343 1217.8 98.2787 1218.5 Z" fill="#000000" fill-rule="evenodd" fill-opacity="1" /><path clip-path="url(#clip340)" d="M78.9038 941.173 L78.9038 936.914 Q80.6631 937.747 82.4686 938.187 Q84.2742 938.626 86.0103 938.626 Q90.6399 938.626 93.0704 935.525 Q95.5241 932.4 95.8713 926.057 Q94.5287 928.048 92.4686 929.113 Q90.4084 930.177 87.9084 930.177 Q82.7232 930.177 79.6909 927.052 Q76.6816 923.904 76.6816 918.465 Q76.6816 913.141 79.8297 909.923 Q82.9779 906.705 88.2093 906.705 Q94.2047 906.705 97.3528 911.312 Q100.524 915.895 100.524 924.645 Q100.524 932.816 96.6352 937.701 Q92.7695 942.562 86.2186 942.562 Q84.4593 942.562 82.6538 942.214 Q80.8483 941.867 78.9038 941.173 M88.2093 926.52 Q91.3575 926.52 93.1862 924.367 Q95.038 922.215 95.038 918.465 Q95.038 914.738 93.1862 912.585 Q91.3575 910.409 88.2093 910.409 Q85.0612 910.409 83.2094 912.585 Q81.3807 914.738 81.3807 918.465 Q81.3807 922.215 83.2094 924.367 Q85.0612 926.52 88.2093 926.52 Z" fill="#000000" fill-rule="evenodd" fill-opacity="1" /><path clip-path="url(#clip340)" d="M50.8253 627.553 L58.4641 627.553 L58.4641 601.188 L50.154 602.855 L50.154 598.595 L58.4178 596.929 L63.0937 596.929 L63.0937 627.553 L70.7326 627.553 L70.7326 631.489 L50.8253 631.489 L50.8253 627.553 Z" fill="#000000" fill-rule="evenodd" fill-opacity="1" /><path clip-path="url(#clip340)" d="M84.2047 627.553 L100.524 627.553 L100.524 631.489 L78.5797 631.489 L78.5797 627.553 Q81.2418 624.799 85.8251 620.169 Q90.4315 615.517 91.6121 614.174 Q93.8574 611.651 94.7371 609.915 Q95.6398 608.155 95.6398 606.466 Q95.6398 603.711 93.6954 601.975 Q91.7741 600.239 88.6723 600.239 Q86.4732 600.239 84.0195 601.003 Q81.589 601.767 78.8112 603.318 L78.8112 598.595 Q81.6353 597.461 84.089 596.882 Q86.5427 596.304 88.5797 596.304 Q93.95 596.304 97.1445 598.989 Q100.339 601.674 100.339 606.165 Q100.339 608.294 99.5287 610.216 Q98.7417 612.114 96.6352 614.706 Q96.0565 615.378 92.9547 618.595 Q89.8528 621.79 84.2047 627.553 Z" fill="#000000" fill-rule="evenodd" fill-opacity="1" /><path clip-path="url(#clip340)" d="M50.2234 317.152 L57.8623 317.152 L57.8623 290.786 L49.5521 292.453 L49.5521 288.194 L57.816 286.527 L62.4919 286.527 L62.4919 317.152 L70.1307 317.152 L70.1307 321.087 L50.2234 321.087 L50.2234 317.152 Z" fill="#000000" fill-rule="evenodd" fill-opacity="1" /><path clip-path="url(#clip340)" d="M79.6214 286.527 L97.9778 286.527 L97.9778 290.462 L83.9038 290.462 L83.9038 298.934 Q84.9223 298.587 85.9408 298.425 Q86.9593 298.24 87.9778 298.24 Q93.7649 298.24 97.1445 301.411 Q100.524 304.582 100.524 309.999 Q100.524 315.578 97.0519 318.68 Q93.5797 321.758 87.2603 321.758 Q85.0843 321.758 82.8158 321.388 Q80.5705 321.017 78.1631 320.277 L78.1631 315.578 Q80.2464 316.712 82.4686 317.268 Q84.6908 317.823 87.1677 317.823 Q91.1723 317.823 93.5102 315.717 Q95.8482 313.61 95.8482 309.999 Q95.8482 306.388 93.5102 304.281 Q91.1723 302.175 87.1677 302.175 Q85.2927 302.175 83.4177 302.592 Q81.5658 303.008 79.6214 303.888 L79.6214 286.527 Z" fill="#000000" fill-rule="evenodd" fill-opacity="1" /><polyline clip-path="url(#clip342)" style="stroke:#009af9; stroke-linecap:butt; stroke-linejoin:round; stroke-width:4; stroke-opacity:1; fill:none" points="
  211.596,96.8724 223.112,121.034 234.628,145.018 341.109,358.373 447.59,556.541 511.581,668.327 575.571,774.628 629.675,860.225 683.778,941.902 801.321,1105.84 
  909.685,1240.58 1025.86,1367.57 1160.47,1492.09 1280.08,1582.39 1384.98,1645.79 1499.34,1698.14 1614.39,1733.11 1741.58,1751.15 1862.61,1748.2 1988.44,1724.32 
  2094.37,1687.78 2159.03,1658.09 2223.7,1622.8 2284.48,1584.52 2345.27,1541.29 2442.65,1461.71 2540.03,1369.44 2555.02,1354.11 2570,1338.48 
  "/>
<path clip-path="url(#clip340)" d="
M2227.23 209.375 L2557.43 209.375 L2557.43 105.695 L2227.23 105.695  Z
  " fill="#ffffff" fill-rule="evenodd" fill-opacity="1"/>
<polyline clip-path="url(#clip340)" style="stroke:#000000; stroke-linecap:butt; stroke-linejoin:round; stroke-width:4; stroke-opacity:1; fill:none" points="
  2227.23,209.375 2557.43,209.375 2557.43,105.695 2227.23,105.695 2227.23,209.375 
  "/>
<polyline clip-path="url(#clip340)" style="stroke:#009af9; stroke-linecap:butt; stroke-linejoin:round; stroke-width:4; stroke-opacity:1; fill:none" points="
  2255,157.535 2421.66,157.535 
  "/>
<path clip-path="url(#clip340)" d="M2463.28 177.223 Q2461.48 181.852 2459.77 183.264 Q2458.05 184.676 2455.18 184.676 L2451.78 184.676 L2451.78 181.112 L2454.28 181.112 Q2456.04 181.112 2457.01 180.278 Q2457.98 179.445 2459.16 176.343 L2459.93 174.399 L2449.44 148.889 L2453.96 148.889 L2462.06 169.167 L2470.16 148.889 L2474.67 148.889 L2463.28 177.223 Z" fill="#000000" fill-rule="evenodd" fill-opacity="1" /><path clip-path="url(#clip340)" d="M2481.96 170.88 L2489.6 170.88 L2489.6 144.515 L2481.29 146.181 L2481.29 141.922 L2489.56 140.255 L2494.23 140.255 L2494.23 170.88 L2501.87 170.88 L2501.87 174.815 L2481.96 174.815 L2481.96 170.88 Z" fill="#000000" fill-rule="evenodd" fill-opacity="1" /></svg>
