<?xml version="1.0" encoding="utf-8"?>
<svg xmlns="http://www.w3.org/2000/svg" xmlns:xlink="http://www.w3.org/1999/xlink" width="672" height="480" viewBox="0 0 2688 1920">
<defs>
  <clipPath id="clip740">
    <rect x="0" y="0" width="2688" height="1920"/>
  </clipPath>
</defs>
<path clip-path="url(#clip740)" d="
M0 1920 L2688 1920 L2688 0 L0 0  Z
  " fill="#ffffff" fill-rule="evenodd" fill-opacity="1"/>
<defs>
  <clipPath id="clip741">
    <rect x="537" y="0" width="1883" height="1883"/>
  </clipPath>
</defs>
<path clip-path="url(#clip740)" d="
M211.909 1800.78 L2640.76 1800.78 L2640.76 47.2441 L211.909 47.2441  Z
  " fill="#ffffff" fill-rule="evenodd" fill-opacity="1"/>
<defs>
  <clipPath id="clip742">
    <rect x="211" y="47" width="2430" height="1755"/>
  </clipPath>
</defs>
<polyline clip-path="url(#clip742)" style="stroke:#000000; stroke-linecap:butt; stroke-linejoin:round; stroke-width:2; stroke-opacity:0.1; fill:none" points="
  280.649,1800.78 280.649,47.2441 
  "/>
<polyline clip-path="url(#clip742)" style="stroke:#000000; stroke-linecap:butt; stroke-linejoin:round; stroke-width:2; stroke-opacity:0.1; fill:none" points="
  853.491,1800.78 853.491,47.2441 
  "/>
<polyline clip-path="url(#clip742)" style="stroke:#000000; stroke-linecap:butt; stroke-linejoin:round; stroke-width:2; stroke-opacity:0.1; fill:none" points="
  1426.33,1800.78 1426.33,47.2441 
  "/>
<polyline clip-path="url(#clip742)" style="stroke:#000000; stroke-linecap:butt; stroke-linejoin:round; stroke-width:2; stroke-opacity:0.1; fill:none" points="
  1999.17,1800.78 1999.17,47.2441 
  "/>
<polyline clip-path="url(#clip742)" style="stroke:#000000; stroke-linecap:butt; stroke-linejoin:round; stroke-width:2; stroke-opacity:0.1; fill:none" points="
  2572.01,1800.78 2572.01,47.2441 
  "/>
<polyline clip-path="url(#clip740)" style="stroke:#000000; stroke-linecap:butt; stroke-linejoin:round; stroke-width:4; stroke-opacity:1; fill:none" points="
  211.909,1800.78 2640.76,1800.78 
  "/>
<polyline clip-path="url(#clip740)" style="stroke:#000000; stroke-linecap:butt; stroke-linejoin:round; stroke-width:4; stroke-opacity:1; fill:none" points="
  280.649,1800.78 280.649,1781.88 
  "/>
<polyline clip-path="url(#clip740)" style="stroke:#000000; stroke-linecap:butt; stroke-linejoin:round; stroke-width:4; stroke-opacity:1; fill:none" points="
  853.491,1800.78 853.491,1781.88 
  "/>
<polyline clip-path="url(#clip740)" style="stroke:#000000; stroke-linecap:butt; stroke-linejoin:round; stroke-width:4; stroke-opacity:1; fill:none" points="
  1426.33,1800.78 1426.33,1781.88 
  "/>
<polyline clip-path="url(#clip740)" style="stroke:#000000; stroke-linecap:butt; stroke-linejoin:round; stroke-width:4; stroke-opacity:1; fill:none" points="
  1999.17,1800.78 1999.17,1781.88 
  "/>
<polyline clip-path="url(#clip740)" style="stroke:#000000; stroke-linecap:butt; stroke-linejoin:round; stroke-width:4; stroke-opacity:1; fill:none" points="
  2572.01,1800.78 2572.01,1781.88 
  "/>
<path clip-path="url(#clip740)" d="M234.712 1848.65 L264.388 1848.65 L264.388 1852.59 L234.712 1852.59 L234.712 1848.65 Z" fill="#000000" fill-rule="evenodd" fill-opacity="1" /><path clip-path="url(#clip740)" d="M275.291 1861.55 L282.93 1861.55 L282.93 1835.18 L274.619 1836.85 L274.619 1832.59 L282.883 1830.92 L287.559 1830.92 L287.559 1861.55 L295.198 1861.55 L295.198 1865.48 L275.291 1865.48 L275.291 1861.55 Z" fill="#000000" fill-rule="evenodd" fill-opacity="1" /><path clip-path="url(#clip740)" d="M314.642 1834 Q311.031 1834 309.203 1837.57 Q307.397 1841.11 307.397 1848.24 Q307.397 1855.34 309.203 1858.91 Q311.031 1862.45 314.642 1862.45 Q318.277 1862.45 320.082 1858.91 Q321.911 1855.34 321.911 1848.24 Q321.911 1841.11 320.082 1837.57 Q318.277 1834 314.642 1834 M314.642 1830.3 Q320.453 1830.3 323.508 1834.9 Q326.587 1839.49 326.587 1848.24 Q326.587 1856.96 323.508 1861.57 Q320.453 1866.15 314.642 1866.15 Q308.832 1866.15 305.754 1861.57 Q302.698 1856.96 302.698 1848.24 Q302.698 1839.49 305.754 1834.9 Q308.832 1830.3 314.642 1830.3 Z" fill="#000000" fill-rule="evenodd" fill-opacity="1" /><path clip-path="url(#clip740)" d="M823.132 1848.65 L852.808 1848.65 L852.808 1852.59 L823.132 1852.59 L823.132 1848.65 Z" fill="#000000" fill-rule="evenodd" fill-opacity="1" /><path clip-path="url(#clip740)" d="M862.947 1830.92 L881.303 1830.92 L881.303 1834.86 L867.229 1834.86 L867.229 1843.33 Q868.248 1842.98 869.266 1842.82 Q870.285 1842.64 871.303 1842.64 Q877.09 1842.64 880.47 1845.81 Q883.849 1848.98 883.849 1854.4 Q883.849 1859.97 880.377 1863.08 Q876.905 1866.15 870.586 1866.15 Q868.41 1866.15 866.141 1865.78 Q863.896 1865.41 861.488 1864.67 L861.488 1859.97 Q863.572 1861.11 865.794 1861.66 Q868.016 1862.22 870.493 1862.22 Q874.498 1862.22 876.836 1860.11 Q879.174 1858.01 879.174 1854.4 Q879.174 1850.78 876.836 1848.68 Q874.498 1846.57 870.493 1846.57 Q868.618 1846.57 866.743 1846.99 Q864.891 1847.4 862.947 1848.28 L862.947 1830.92 Z" fill="#000000" fill-rule="evenodd" fill-opacity="1" /><path clip-path="url(#clip740)" d="M1426.33 1834 Q1422.72 1834 1420.89 1837.57 Q1419.09 1841.11 1419.09 1848.24 Q1419.09 1855.34 1420.89 1858.91 Q1422.72 1862.45 1426.33 1862.45 Q1429.97 1862.45 1431.77 1858.91 Q1433.6 1855.34 1433.6 1848.24 Q1433.6 1841.11 1431.77 1837.57 Q1429.97 1834 1426.33 1834 M1426.33 1830.3 Q1432.14 1830.3 1435.2 1834.9 Q1438.28 1839.49 1438.28 1848.24 Q1438.28 1856.96 1435.2 1861.57 Q1432.14 1866.15 1426.33 1866.15 Q1420.52 1866.15 1417.44 1861.57 Q1414.39 1856.96 1414.39 1848.24 Q1414.39 1839.49 1417.44 1834.9 Q1420.52 1830.3 1426.33 1830.3 Z" fill="#000000" fill-rule="evenodd" fill-opacity="1" /><path clip-path="url(#clip740)" d="M1989.45 1830.92 L2007.81 1830.92 L2007.81 1834.86 L1993.73 1834.86 L1993.73 1843.33 Q1994.75 1842.98 1995.77 1842.82 Q1996.79 1842.64 1997.81 1842.64 Q2003.59 1842.64 2006.97 1845.81 Q2010.35 1848.98 2010.35 1854.4 Q2010.35 1859.97 2006.88 1863.08 Q2003.41 1866.15 1997.09 1866.15 Q1994.91 1866.15 1992.65 1865.78 Q1990.4 1865.41 1987.99 1864.67 L1987.99 1859.97 Q1990.08 1861.11 1992.3 1861.66 Q1994.52 1862.22 1997 1862.22 Q2001 1862.22 2003.34 1860.11 Q2005.68 1858.01 2005.68 1854.4 Q2005.68 1850.78 2003.34 1848.68 Q2001 1846.57 1997 1846.57 Q1995.12 1846.57 1993.25 1846.99 Q1991.4 1847.4 1989.45 1848.28 L1989.45 1830.92 Z" fill="#000000" fill-rule="evenodd" fill-opacity="1" /><path clip-path="url(#clip740)" d="M2546.7 1861.55 L2554.34 1861.55 L2554.34 1835.18 L2546.03 1836.85 L2546.03 1832.59 L2554.3 1830.92 L2558.97 1830.92 L2558.97 1861.55 L2566.61 1861.55 L2566.61 1865.48 L2546.7 1865.48 L2546.7 1861.55 Z" fill="#000000" fill-rule="evenodd" fill-opacity="1" /><path clip-path="url(#clip740)" d="M2586.05 1834 Q2582.44 1834 2580.61 1837.57 Q2578.81 1841.11 2578.81 1848.24 Q2578.81 1855.34 2580.61 1858.91 Q2582.44 1862.45 2586.05 1862.45 Q2589.69 1862.45 2591.49 1858.91 Q2593.32 1855.34 2593.32 1848.24 Q2593.32 1841.11 2591.49 1837.57 Q2589.69 1834 2586.05 1834 M2586.05 1830.3 Q2591.86 1830.3 2594.92 1834.9 Q2598 1839.49 2598 1848.24 Q2598 1856.96 2594.92 1861.57 Q2591.86 1866.15 2586.05 1866.15 Q2580.24 1866.15 2577.17 1861.57 Q2574.11 1856.96 2574.11 1848.24 Q2574.11 1839.49 2577.17 1834.9 Q2580.24 1830.3 2586.05 1830.3 Z" fill="#000000" fill-rule="evenodd" fill-opacity="1" /><polyline clip-path="url(#clip742)" style="stroke:#000000; stroke-linecap:butt; stroke-linejoin:round; stroke-width:2; stroke-opacity:0.1; fill:none" points="
  211.909,1580.06 2640.76,1580.06 
  "/>
<polyline clip-path="url(#clip742)" style="stroke:#000000; stroke-linecap:butt; stroke-linejoin:round; stroke-width:2; stroke-opacity:0.1; fill:none" points="
  211.909,1193.36 2640.76,1193.36 
  "/>
<polyline clip-path="url(#clip742)" style="stroke:#000000; stroke-linecap:butt; stroke-linejoin:round; stroke-width:2; stroke-opacity:0.1; fill:none" points="
  211.909,806.652 2640.76,806.652 
  "/>
<polyline clip-path="url(#clip742)" style="stroke:#000000; stroke-linecap:butt; stroke-linejoin:round; stroke-width:2; stroke-opacity:0.1; fill:none" points="
  211.909,419.948 2640.76,419.948 
  "/>
<polyline clip-path="url(#clip740)" style="stroke:#000000; stroke-linecap:butt; stroke-linejoin:round; stroke-width:4; stroke-opacity:1; fill:none" points="
  211.909,1800.78 211.909,47.2441 
  "/>
<polyline clip-path="url(#clip740)" style="stroke:#000000; stroke-linecap:butt; stroke-linejoin:round; stroke-width:4; stroke-opacity:1; fill:none" points="
  211.909,1580.06 230.806,1580.06 
  "/>
<polyline clip-path="url(#clip740)" style="stroke:#000000; stroke-linecap:butt; stroke-linejoin:round; stroke-width:4; stroke-opacity:1; fill:none" points="
  211.909,1193.36 230.806,1193.36 
  "/>
<polyline clip-path="url(#clip740)" style="stroke:#000000; stroke-linecap:butt; stroke-linejoin:round; stroke-width:4; stroke-opacity:1; fill:none" points="
  211.909,806.652 230.806,806.652 
  "/>
<polyline clip-path="url(#clip740)" style="stroke:#000000; stroke-linecap:butt; stroke-linejoin:round; stroke-width:4; stroke-opacity:1; fill:none" points="
  211.909,419.948 230.806,419.948 
  "/>
<path clip-path="url(#clip740)" d="M49.5521 1580.51 L79.2279 1580.51 L79.2279 1584.45 L49.5521 1584.45 L49.5521 1580.51 Z" fill="#000000" fill-rule="evenodd" fill-opacity="1" /><path clip-path="url(#clip740)" d="M89.3667 1562.78 L107.723 1562.78 L107.723 1566.72 L93.6491 1566.72 L93.6491 1575.19 Q94.6676 1574.84 95.6861 1574.68 Q96.7047 1574.49 97.7232 1574.49 Q103.51 1574.49 106.89 1577.66 Q110.269 1580.84 110.269 1586.25 Q110.269 1591.83 106.797 1594.93 Q103.325 1598.01 97.0056 1598.01 Q94.8297 1598.01 92.5612 1597.64 Q90.3158 1597.27 87.9084 1596.53 L87.9084 1591.83 Q89.9917 1592.97 92.2139 1593.52 Q94.4361 1594.08 96.913 1594.08 Q100.918 1594.08 103.256 1591.97 Q105.593 1589.86 105.593 1586.25 Q105.593 1582.64 103.256 1580.54 Q100.918 1578.43 96.913 1578.43 Q95.038 1578.43 93.163 1578.85 Q91.3112 1579.26 89.3667 1580.14 L89.3667 1562.78 Z" fill="#000000" fill-rule="evenodd" fill-opacity="1" /><path clip-path="url(#clip740)" d="M129.482 1565.86 Q125.871 1565.86 124.042 1569.42 Q122.237 1572.97 122.237 1580.1 Q122.237 1587.2 124.042 1590.77 Q125.871 1594.31 129.482 1594.31 Q133.116 1594.31 134.922 1590.77 Q136.751 1587.2 136.751 1580.1 Q136.751 1572.97 134.922 1569.42 Q133.116 1565.86 129.482 1565.86 M129.482 1562.16 Q135.292 1562.16 138.348 1566.76 Q141.427 1571.35 141.427 1580.1 Q141.427 1588.82 138.348 1593.43 Q135.292 1598.01 129.482 1598.01 Q123.672 1598.01 120.593 1593.43 Q117.538 1588.82 117.538 1580.1 Q117.538 1571.35 120.593 1566.76 Q123.672 1562.16 129.482 1562.16 Z" fill="#000000" fill-rule="evenodd" fill-opacity="1" /><path clip-path="url(#clip740)" d="M159.644 1565.86 Q156.033 1565.86 154.204 1569.42 Q152.399 1572.97 152.399 1580.1 Q152.399 1587.2 154.204 1590.77 Q156.033 1594.31 159.644 1594.31 Q163.278 1594.31 165.084 1590.77 Q166.913 1587.2 166.913 1580.1 Q166.913 1572.97 165.084 1569.42 Q163.278 1565.86 159.644 1565.86 M159.644 1562.16 Q165.454 1562.16 168.51 1566.76 Q171.589 1571.35 171.589 1580.1 Q171.589 1588.82 168.51 1593.43 Q165.454 1598.01 159.644 1598.01 Q153.834 1598.01 150.755 1593.43 Q147.7 1588.82 147.7 1580.1 Q147.7 1571.35 150.755 1566.76 Q153.834 1562.16 159.644 1562.16 Z" fill="#000000" fill-rule="evenodd" fill-opacity="1" /><path clip-path="url(#clip740)" d="M49.5521 1193.81 L79.2279 1193.81 L79.2279 1197.74 L49.5521 1197.74 L49.5521 1193.81 Z" fill="#000000" fill-rule="evenodd" fill-opacity="1" /><path clip-path="url(#clip740)" d="M93.3482 1206.7 L109.668 1206.7 L109.668 1210.64 L87.7232 1210.64 L87.7232 1206.7 Q90.3852 1203.95 94.9685 1199.32 Q99.575 1194.66 100.756 1193.32 Q103.001 1190.8 103.881 1189.06 Q104.783 1187.3 104.783 1185.61 Q104.783 1182.86 102.839 1181.12 Q100.918 1179.39 97.8158 1179.39 Q95.6167 1179.39 93.163 1180.15 Q90.7325 1180.91 87.9547 1182.47 L87.9547 1177.74 Q90.7788 1176.61 93.2324 1176.03 Q95.6861 1175.45 97.7232 1175.45 Q103.094 1175.45 106.288 1178.14 Q109.482 1180.82 109.482 1185.31 Q109.482 1187.44 108.672 1189.36 Q107.885 1191.26 105.779 1193.85 Q105.2 1194.53 102.098 1197.74 Q98.9963 1200.94 93.3482 1206.7 Z" fill="#000000" fill-rule="evenodd" fill-opacity="1" /><path clip-path="url(#clip740)" d="M119.529 1176.08 L137.885 1176.08 L137.885 1180.01 L123.811 1180.01 L123.811 1188.48 Q124.83 1188.14 125.848 1187.97 Q126.867 1187.79 127.885 1187.79 Q133.672 1187.79 137.052 1190.96 Q140.431 1194.13 140.431 1199.55 Q140.431 1205.13 136.959 1208.23 Q133.487 1211.31 127.167 1211.31 Q124.992 1211.31 122.723 1210.94 Q120.478 1210.57 118.07 1209.83 L118.07 1205.13 Q120.154 1206.26 122.376 1206.82 Q124.598 1207.37 127.075 1207.37 Q131.079 1207.37 133.417 1205.27 Q135.755 1203.16 135.755 1199.55 Q135.755 1195.94 133.417 1193.83 Q131.079 1191.72 127.075 1191.72 Q125.2 1191.72 123.325 1192.14 Q121.473 1192.56 119.529 1193.44 L119.529 1176.08 Z" fill="#000000" fill-rule="evenodd" fill-opacity="1" /><path clip-path="url(#clip740)" d="M159.644 1179.16 Q156.033 1179.16 154.204 1182.72 Q152.399 1186.26 152.399 1193.39 Q152.399 1200.5 154.204 1204.06 Q156.033 1207.6 159.644 1207.6 Q163.278 1207.6 165.084 1204.06 Q166.913 1200.5 166.913 1193.39 Q166.913 1186.26 165.084 1182.72 Q163.278 1179.16 159.644 1179.16 M159.644 1175.45 Q165.454 1175.45 168.51 1180.06 Q171.589 1184.64 171.589 1193.39 Q171.589 1202.12 168.51 1206.72 Q165.454 1211.31 159.644 1211.31 Q153.834 1211.31 150.755 1206.72 Q147.7 1202.12 147.7 1193.39 Q147.7 1184.64 150.755 1180.06 Q153.834 1175.45 159.644 1175.45 Z" fill="#000000" fill-rule="evenodd" fill-opacity="1" /><path clip-path="url(#clip740)" d="M159.644 792.451 Q156.033 792.451 154.204 796.016 Q152.399 799.557 152.399 806.687 Q152.399 813.793 154.204 817.358 Q156.033 820.9 159.644 820.9 Q163.278 820.9 165.084 817.358 Q166.913 813.793 166.913 806.687 Q166.913 799.557 165.084 796.016 Q163.278 792.451 159.644 792.451 M159.644 788.747 Q165.454 788.747 168.51 793.354 Q171.589 797.937 171.589 806.687 Q171.589 815.414 168.51 820.02 Q165.454 824.604 159.644 824.604 Q153.834 824.604 150.755 820.02 Q147.7 815.414 147.7 806.687 Q147.7 797.937 150.755 793.354 Q153.834 788.747 159.644 788.747 Z" fill="#000000" fill-rule="evenodd" fill-opacity="1" /><path clip-path="url(#clip740)" d="M93.3482 433.293 L109.668 433.293 L109.668 437.228 L87.7232 437.228 L87.7232 433.293 Q90.3852 430.538 94.9685 425.909 Q99.575 421.256 100.756 419.913 Q103.001 417.39 103.881 415.654 Q104.783 413.895 104.783 412.205 Q104.783 409.45 102.839 407.714 Q100.918 405.978 97.8158 405.978 Q95.6167 405.978 93.163 406.742 Q90.7325 407.506 87.9547 409.057 L87.9547 404.335 Q90.7788 403.2 93.2324 402.622 Q95.6861 402.043 97.7232 402.043 Q103.094 402.043 106.288 404.728 Q109.482 407.413 109.482 411.904 Q109.482 414.034 108.672 415.955 Q107.885 417.853 105.779 420.446 Q105.2 421.117 102.098 424.335 Q98.9963 427.529 93.3482 433.293 Z" fill="#000000" fill-rule="evenodd" fill-opacity="1" /><path clip-path="url(#clip740)" d="M119.529 402.668 L137.885 402.668 L137.885 406.603 L123.811 406.603 L123.811 415.075 Q124.83 414.728 125.848 414.566 Q126.867 414.381 127.885 414.381 Q133.672 414.381 137.052 417.552 Q140.431 420.724 140.431 426.14 Q140.431 431.719 136.959 434.821 Q133.487 437.899 127.167 437.899 Q124.992 437.899 122.723 437.529 Q120.478 437.159 118.07 436.418 L118.07 431.719 Q120.154 432.853 122.376 433.409 Q124.598 433.964 127.075 433.964 Q131.079 433.964 133.417 431.858 Q135.755 429.751 135.755 426.14 Q135.755 422.529 133.417 420.423 Q131.079 418.316 127.075 418.316 Q125.2 418.316 123.325 418.733 Q121.473 419.149 119.529 420.029 L119.529 402.668 Z" fill="#000000" fill-rule="evenodd" fill-opacity="1" /><path clip-path="url(#clip740)" d="M159.644 405.747 Q156.033 405.747 154.204 409.312 Q152.399 412.853 152.399 419.983 Q152.399 427.089 154.204 430.654 Q156.033 434.196 159.644 434.196 Q163.278 434.196 165.084 430.654 Q166.913 427.089 166.913 419.983 Q166.913 412.853 165.084 409.312 Q163.278 405.747 159.644 405.747 M159.644 402.043 Q165.454 402.043 168.51 406.65 Q171.589 411.233 171.589 419.983 Q171.589 428.71 168.51 433.316 Q165.454 437.899 159.644 437.899 Q153.834 437.899 150.755 433.316 Q147.7 428.71 147.7 419.983 Q147.7 411.233 150.755 406.65 Q153.834 402.043 159.644 402.043 Z" fill="#000000" fill-rule="evenodd" fill-opacity="1" /><polyline clip-path="url(#clip742)" style="stroke:#009af9; stroke-linecap:butt; stroke-linejoin:round; stroke-width:4; stroke-opacity:1; fill:none" points="
  280.649,828.589 303.027,828.292 509.935,825.556 634.278,823.924 739.409,822.556 853.61,821.088 958.893,819.76 1071.77,818.382 1202.55,816.908 1260.65,816.341 
  1318.76,815.887 1369.72,815.674 1420.68,815.864 1434.57,816.062 1448.46,816.375 1462.35,816.865 1476.23,817.647 1483.18,818.212 1490.12,818.958 1497.07,819.971 
  1504.01,821.399 1510.96,823.534 1517.9,827.014 1521.37,829.708 1524.85,833.587 1526.58,836.241 1528.32,839.633 1530.05,844.119 1531.79,850.324 1533.54,859.529 
  1535.28,874.474 1536.16,886.08 1537.03,902.929 1537.9,929.603 1538.78,978.225 1539.65,1094.78 1540.52,1751.15 1541.4,96.8724 1542.27,552.441 1543.14,653.216 
  1544.02,697.498 1544.89,722.387 1545.76,738.333 1547.51,757.573 1549.26,768.759 1551,776.07 1552.75,781.218 1556.24,787.982 1559.73,792.22 1566.72,797.217 
  1573.71,800.046 1580.69,801.848 1587.68,803.084 1601.65,804.638 1615.62,805.54 1629.59,806.099 1643.56,806.454 1674.46,806.836 1705.35,806.917 1736.25,806.841 
  1767.14,806.672 1825.94,806.201 1884.73,805.62 2006.99,804.24 2109.9,802.988 2235.55,801.404 2353.67,799.883 2542.89,797.411 2572.01,797.028 
  "/>
<path clip-path="url(#clip740)" d="
M2237.49 209.375 L2559.79 209.375 L2559.79 105.695 L2237.49 105.695  Z
  " fill="#ffffff" fill-rule="evenodd" fill-opacity="1"/>
<polyline clip-path="url(#clip740)" style="stroke:#000000; stroke-linecap:butt; stroke-linejoin:round; stroke-width:4; stroke-opacity:1; fill:none" points="
  2237.49,209.375 2559.79,209.375 2559.79,105.695 2237.49,105.695 2237.49,209.375 
  "/>
<polyline clip-path="url(#clip740)" style="stroke:#009af9; stroke-linecap:butt; stroke-linejoin:round; stroke-width:4; stroke-opacity:1; fill:none" points="
  2264.48,157.535 2426.4,157.535 
  "/>
<path clip-path="url(#clip740)" d="M2467.23 177.223 Q2465.43 181.852 2463.71 183.264 Q2462 184.676 2459.13 184.676 L2455.73 184.676 L2455.73 181.112 L2458.23 181.112 Q2459.99 181.112 2460.96 180.278 Q2461.93 179.445 2463.11 176.343 L2463.88 174.399 L2453.39 148.889 L2457.9 148.889 L2466.01 169.167 L2474.11 148.889 L2478.62 148.889 L2467.23 177.223 Z" fill="#000000" fill-rule="evenodd" fill-opacity="1" /><path clip-path="url(#clip740)" d="M2485.91 170.88 L2493.55 170.88 L2493.55 144.515 L2485.24 146.181 L2485.24 141.922 L2493.51 140.255 L2498.18 140.255 L2498.18 170.88 L2505.82 170.88 L2505.82 174.815 L2485.91 174.815 L2485.91 170.88 Z" fill="#000000" fill-rule="evenodd" fill-opacity="1" /></svg>
