<?xml version="1.0" encoding="utf-8"?>
<svg xmlns="http://www.w3.org/2000/svg" xmlns:xlink="http://www.w3.org/1999/xlink" width="672" height="480" viewBox="0 0 2688 1920">
<defs>
  <clipPath id="clip190">
    <rect x="0" y="0" width="2688" height="1920"/>
  </clipPath>
</defs>
<path clip-path="url(#clip190)" d="
M0 1920 L2688 1920 L2688 0 L0 0  Z
  " fill="#ffffff" fill-rule="evenodd" fill-opacity="1"/>
<defs>
  <clipPath id="clip191">
    <rect x="537" y="0" width="1883" height="1883"/>
  </clipPath>
</defs>
<path clip-path="url(#clip190)" d="
M205.057 1800.78 L2640.76 1800.78 L2640.76 47.2441 L205.057 47.2441  Z
  " fill="#ffffff" fill-rule="evenodd" fill-opacity="1"/>
<defs>
  <clipPath id="clip192">
    <rect x="205" y="47" width="2437" height="1755"/>
  </clipPath>
</defs>
<polyline clip-path="url(#clip192)" style="stroke:#000000; stroke-linecap:butt; stroke-linejoin:round; stroke-width:2; stroke-opacity:0.1; fill:none" points="
  273.992,1800.78 273.992,47.2441 
  "/>
<polyline clip-path="url(#clip192)" style="stroke:#000000; stroke-linecap:butt; stroke-linejoin:round; stroke-width:2; stroke-opacity:0.1; fill:none" points="
  1039.93,1800.78 1039.93,47.2441 
  "/>
<polyline clip-path="url(#clip192)" style="stroke:#000000; stroke-linecap:butt; stroke-linejoin:round; stroke-width:2; stroke-opacity:0.1; fill:none" points="
  1805.88,1800.78 1805.88,47.2441 
  "/>
<polyline clip-path="url(#clip192)" style="stroke:#000000; stroke-linecap:butt; stroke-linejoin:round; stroke-width:2; stroke-opacity:0.1; fill:none" points="
  2571.82,1800.78 2571.82,47.2441 
  "/>
<polyline clip-path="url(#clip190)" style="stroke:#000000; stroke-linecap:butt; stroke-linejoin:round; stroke-width:4; stroke-opacity:1; fill:none" points="
  205.057,1800.78 2640.76,1800.78 
  "/>
<polyline clip-path="url(#clip190)" style="stroke:#000000; stroke-linecap:butt; stroke-linejoin:round; stroke-width:4; stroke-opacity:1; fill:none" points="
  273.992,1800.78 273.992,1781.88 
  "/>
<polyline clip-path="url(#clip190)" style="stroke:#000000; stroke-linecap:butt; stroke-linejoin:round; stroke-width:4; stroke-opacity:1; fill:none" points="
  1039.93,1800.78 1039.93,1781.88 
  "/>
<polyline clip-path="url(#clip190)" style="stroke:#000000; stroke-linecap:butt; stroke-linejoin:round; stroke-width:4; stroke-opacity:1; fill:none" points="
  1805.88,1800.78 1805.88,1781.88 
  "/>
<polyline clip-path="url(#clip190)" style="stroke:#000000; stroke-linecap:butt; stroke-linejoin:round; stroke-width:4; stroke-opacity:1; fill:none" points="
  2571.82,1800.78 2571.82,1781.88 
  "/>
<path clip-path="url(#clip190)" d="M273.992 1834 Q270.38 1834 268.552 1837.57 Q266.746 1841.11 266.746 1848.24 Q266.746 1855.34 268.552 1858.91 Q270.38 1862.45 273.992 1862.45 Q277.626 1862.45 279.431 1858.91 Q281.26 1855.34 281.26 1848.24 Q281.26 1841.11 279.431 1837.57 Q277.626 1834 273.992 1834 M273.992 1830.3 Q279.802 1830.3 282.857 1834.9 Q285.936 1839.49 285.936 1848.24 Q285.936 1856.96 282.857 1861.57 Q279.802 1866.15 273.992 1866.15 Q268.181 1866.15 265.103 1861.57 Q262.047 1856.96 262.047 1848.24 Q262.047 1839.49 265.103 1834.9 Q268.181 1830.3 273.992 1830.3 Z" fill="#000000" fill-rule="evenodd" fill-opacity="1" /><path clip-path="url(#clip190)" d="M1030.32 1861.55 L1037.96 1861.55 L1037.96 1835.18 L1029.65 1836.85 L1029.65 1832.59 L1037.91 1830.92 L1042.59 1830.92 L1042.59 1861.55 L1050.22 1861.55 L1050.22 1865.48 L1030.32 1865.48 L1030.32 1861.55 Z" fill="#000000" fill-rule="evenodd" fill-opacity="1" /><path clip-path="url(#clip190)" d="M1800.53 1861.55 L1816.85 1861.55 L1816.85 1865.48 L1794.91 1865.48 L1794.91 1861.55 Q1797.57 1858.79 1802.15 1854.16 Q1806.76 1849.51 1807.94 1848.17 Q1810.18 1845.65 1811.06 1843.91 Q1811.97 1842.15 1811.97 1840.46 Q1811.97 1837.71 1810.02 1835.97 Q1808.1 1834.23 1805 1834.23 Q1802.8 1834.23 1800.35 1835 Q1797.91 1835.76 1795.14 1837.31 L1795.14 1832.59 Q1797.96 1831.46 1800.41 1830.88 Q1802.87 1830.3 1804.91 1830.3 Q1810.28 1830.3 1813.47 1832.98 Q1816.66 1835.67 1816.66 1840.16 Q1816.66 1842.29 1815.85 1844.21 Q1815.07 1846.11 1812.96 1848.7 Q1812.38 1849.37 1809.28 1852.59 Q1806.18 1855.78 1800.53 1861.55 Z" fill="#000000" fill-rule="evenodd" fill-opacity="1" /><path clip-path="url(#clip190)" d="M2576.07 1846.85 Q2579.43 1847.57 2581.3 1849.84 Q2583.2 1852.1 2583.2 1855.44 Q2583.2 1860.55 2579.68 1863.35 Q2576.16 1866.15 2569.68 1866.15 Q2567.5 1866.15 2565.19 1865.71 Q2562.9 1865.3 2560.44 1864.44 L2560.44 1859.93 Q2562.39 1861.06 2564.7 1861.64 Q2567.02 1862.22 2569.54 1862.22 Q2573.94 1862.22 2576.23 1860.48 Q2578.55 1858.75 2578.55 1855.44 Q2578.55 1852.38 2576.39 1850.67 Q2574.26 1848.93 2570.44 1848.93 L2566.42 1848.93 L2566.42 1845.09 L2570.63 1845.09 Q2574.08 1845.09 2575.91 1843.72 Q2577.74 1842.34 2577.74 1839.74 Q2577.74 1837.08 2575.84 1835.67 Q2573.96 1834.23 2570.44 1834.23 Q2568.52 1834.23 2566.32 1834.65 Q2564.12 1835.07 2561.49 1835.95 L2561.49 1831.78 Q2564.15 1831.04 2566.46 1830.67 Q2568.8 1830.3 2570.86 1830.3 Q2576.18 1830.3 2579.29 1832.73 Q2582.39 1835.14 2582.39 1839.26 Q2582.39 1842.13 2580.74 1844.12 Q2579.1 1846.09 2576.07 1846.85 Z" fill="#000000" fill-rule="evenodd" fill-opacity="1" /><polyline clip-path="url(#clip192)" style="stroke:#000000; stroke-linecap:butt; stroke-linejoin:round; stroke-width:2; stroke-opacity:0.1; fill:none" points="
  205.057,1751.28 2640.76,1751.28 
  "/>
<polyline clip-path="url(#clip192)" style="stroke:#000000; stroke-linecap:butt; stroke-linejoin:round; stroke-width:2; stroke-opacity:0.1; fill:none" points="
  205.057,1372.61 2640.76,1372.61 
  "/>
<polyline clip-path="url(#clip192)" style="stroke:#000000; stroke-linecap:butt; stroke-linejoin:round; stroke-width:2; stroke-opacity:0.1; fill:none" points="
  205.057,993.936 2640.76,993.936 
  "/>
<polyline clip-path="url(#clip192)" style="stroke:#000000; stroke-linecap:butt; stroke-linejoin:round; stroke-width:2; stroke-opacity:0.1; fill:none" points="
  205.057,615.265 2640.76,615.265 
  "/>
<polyline clip-path="url(#clip192)" style="stroke:#000000; stroke-linecap:butt; stroke-linejoin:round; stroke-width:2; stroke-opacity:0.1; fill:none" points="
  205.057,236.594 2640.76,236.594 
  "/>
<polyline clip-path="url(#clip190)" style="stroke:#000000; stroke-linecap:butt; stroke-linejoin:round; stroke-width:4; stroke-opacity:1; fill:none" points="
  205.057,1800.78 205.057,47.2441 
  "/>
<polyline clip-path="url(#clip190)" style="stroke:#000000; stroke-linecap:butt; stroke-linejoin:round; stroke-width:4; stroke-opacity:1; fill:none" points="
  205.057,1751.28 223.954,1751.28 
  "/>
<polyline clip-path="url(#clip190)" style="stroke:#000000; stroke-linecap:butt; stroke-linejoin:round; stroke-width:4; stroke-opacity:1; fill:none" points="
  205.057,1372.61 223.954,1372.61 
  "/>
<polyline clip-path="url(#clip190)" style="stroke:#000000; stroke-linecap:butt; stroke-linejoin:round; stroke-width:4; stroke-opacity:1; fill:none" points="
  205.057,993.936 223.954,993.936 
  "/>
<polyline clip-path="url(#clip190)" style="stroke:#000000; stroke-linecap:butt; stroke-linejoin:round; stroke-width:4; stroke-opacity:1; fill:none" points="
  205.057,615.265 223.954,615.265 
  "/>
<polyline clip-path="url(#clip190)" style="stroke:#000000; stroke-linecap:butt; stroke-linejoin:round; stroke-width:4; stroke-opacity:1; fill:none" points="
  205.057,236.594 223.954,236.594 
  "/>
<path clip-path="url(#clip190)" d="M152.792 1737.08 Q149.181 1737.08 147.353 1740.64 Q145.547 1744.18 145.547 1751.31 Q145.547 1758.42 147.353 1761.98 Q149.181 1765.52 152.792 1765.52 Q156.427 1765.52 158.232 1761.98 Q160.061 1758.42 160.061 1751.31 Q160.061 1744.18 158.232 1740.64 Q156.427 1737.08 152.792 1737.08 M152.792 1733.37 Q158.602 1733.37 161.658 1737.98 Q164.737 1742.56 164.737 1751.31 Q164.737 1760.04 161.658 1764.65 Q158.602 1769.23 152.792 1769.23 Q146.982 1769.23 143.903 1764.65 Q140.848 1760.04 140.848 1751.31 Q140.848 1742.56 143.903 1737.98 Q146.982 1733.37 152.792 1733.37 Z" fill="#000000" fill-rule="evenodd" fill-opacity="1" /><path clip-path="url(#clip190)" d="M53.1169 1385.95 L60.7558 1385.95 L60.7558 1359.59 L52.4456 1361.25 L52.4456 1356.99 L60.7095 1355.33 L65.3854 1355.33 L65.3854 1385.95 L73.0242 1385.95 L73.0242 1389.89 L53.1169 1389.89 L53.1169 1385.95 Z" fill="#000000" fill-rule="evenodd" fill-opacity="1" /><path clip-path="url(#clip190)" d="M92.4686 1358.41 Q88.8575 1358.41 87.0288 1361.97 Q85.2232 1365.51 85.2232 1372.64 Q85.2232 1379.75 87.0288 1383.31 Q88.8575 1386.85 92.4686 1386.85 Q96.1028 1386.85 97.9083 1383.31 Q99.737 1379.75 99.737 1372.64 Q99.737 1365.51 97.9083 1361.97 Q96.1028 1358.41 92.4686 1358.41 M92.4686 1354.7 Q98.2787 1354.7 101.334 1359.31 Q104.413 1363.89 104.413 1372.64 Q104.413 1381.37 101.334 1385.97 Q98.2787 1390.56 92.4686 1390.56 Q86.6584 1390.56 83.5797 1385.97 Q80.5242 1381.37 80.5242 1372.64 Q80.5242 1363.89 83.5797 1359.31 Q86.6584 1354.7 92.4686 1354.7 Z" fill="#000000" fill-rule="evenodd" fill-opacity="1" /><path clip-path="url(#clip190)" d="M122.63 1358.41 Q119.019 1358.41 117.191 1361.97 Q115.385 1365.51 115.385 1372.64 Q115.385 1379.75 117.191 1383.31 Q119.019 1386.85 122.63 1386.85 Q126.265 1386.85 128.07 1383.31 Q129.899 1379.75 129.899 1372.64 Q129.899 1365.51 128.07 1361.97 Q126.265 1358.41 122.63 1358.41 M122.63 1354.7 Q128.441 1354.7 131.496 1359.31 Q134.575 1363.89 134.575 1372.64 Q134.575 1381.37 131.496 1385.97 Q128.441 1390.56 122.63 1390.56 Q116.82 1390.56 113.742 1385.97 Q110.686 1381.37 110.686 1372.64 Q110.686 1363.89 113.742 1359.31 Q116.82 1354.7 122.63 1354.7 Z" fill="#000000" fill-rule="evenodd" fill-opacity="1" /><path clip-path="url(#clip190)" d="M152.792 1358.41 Q149.181 1358.41 147.353 1361.97 Q145.547 1365.51 145.547 1372.64 Q145.547 1379.75 147.353 1383.31 Q149.181 1386.85 152.792 1386.85 Q156.427 1386.85 158.232 1383.31 Q160.061 1379.75 160.061 1372.64 Q160.061 1365.51 158.232 1361.97 Q156.427 1358.41 152.792 1358.41 M152.792 1354.7 Q158.602 1354.7 161.658 1359.31 Q164.737 1363.89 164.737 1372.64 Q164.737 1381.37 161.658 1385.97 Q158.602 1390.56 152.792 1390.56 Q146.982 1390.56 143.903 1385.97 Q140.848 1381.37 140.848 1372.64 Q140.848 1363.89 143.903 1359.31 Q146.982 1354.7 152.792 1354.7 Z" fill="#000000" fill-rule="evenodd" fill-opacity="1" /><path clip-path="url(#clip190)" d="M56.3345 1007.28 L72.6539 1007.28 L72.6539 1011.22 L50.7095 1011.22 L50.7095 1007.28 Q53.3715 1004.53 57.9549 999.896 Q62.5613 995.244 63.7419 993.901 Q65.9872 991.378 66.8668 989.642 Q67.7696 987.883 67.7696 986.193 Q67.7696 983.438 65.8252 981.702 Q63.9039 979.966 60.8021 979.966 Q58.603 979.966 56.1493 980.73 Q53.7188 981.494 50.941 983.045 L50.941 978.322 Q53.7651 977.188 56.2188 976.609 Q58.6724 976.031 60.7095 976.031 Q66.0798 976.031 69.2742 978.716 Q72.4687 981.401 72.4687 985.892 Q72.4687 988.021 71.6585 989.943 Q70.8715 991.841 68.765 994.433 Q68.1863 995.105 65.0845 998.322 Q61.9826 1001.52 56.3345 1007.28 Z" fill="#000000" fill-rule="evenodd" fill-opacity="1" /><path clip-path="url(#clip190)" d="M92.4686 979.734 Q88.8575 979.734 87.0288 983.299 Q85.2232 986.841 85.2232 993.97 Q85.2232 1001.08 87.0288 1004.64 Q88.8575 1008.18 92.4686 1008.18 Q96.1028 1008.18 97.9083 1004.64 Q99.737 1001.08 99.737 993.97 Q99.737 986.841 97.9083 983.299 Q96.1028 979.734 92.4686 979.734 M92.4686 976.031 Q98.2787 976.031 101.334 980.637 Q104.413 985.221 104.413 993.97 Q104.413 1002.7 101.334 1007.3 Q98.2787 1011.89 92.4686 1011.89 Q86.6584 1011.89 83.5797 1007.3 Q80.5242 1002.7 80.5242 993.97 Q80.5242 985.221 83.5797 980.637 Q86.6584 976.031 92.4686 976.031 Z" fill="#000000" fill-rule="evenodd" fill-opacity="1" /><path clip-path="url(#clip190)" d="M122.63 979.734 Q119.019 979.734 117.191 983.299 Q115.385 986.841 115.385 993.97 Q115.385 1001.08 117.191 1004.64 Q119.019 1008.18 122.63 1008.18 Q126.265 1008.18 128.07 1004.64 Q129.899 1001.08 129.899 993.97 Q129.899 986.841 128.07 983.299 Q126.265 979.734 122.63 979.734 M122.63 976.031 Q128.441 976.031 131.496 980.637 Q134.575 985.221 134.575 993.97 Q134.575 1002.7 131.496 1007.3 Q128.441 1011.89 122.63 1011.89 Q116.82 1011.89 113.742 1007.3 Q110.686 1002.7 110.686 993.97 Q110.686 985.221 113.742 980.637 Q116.82 976.031 122.63 976.031 Z" fill="#000000" fill-rule="evenodd" fill-opacity="1" /><path clip-path="url(#clip190)" d="M152.792 979.734 Q149.181 979.734 147.353 983.299 Q145.547 986.841 145.547 993.97 Q145.547 1001.08 147.353 1004.64 Q149.181 1008.18 152.792 1008.18 Q156.427 1008.18 158.232 1004.64 Q160.061 1001.08 160.061 993.97 Q160.061 986.841 158.232 983.299 Q156.427 979.734 152.792 979.734 M152.792 976.031 Q158.602 976.031 161.658 980.637 Q164.737 985.221 164.737 993.97 Q164.737 1002.7 161.658 1007.3 Q158.602 1011.89 152.792 1011.89 Q146.982 1011.89 143.903 1007.3 Q140.848 1002.7 140.848 993.97 Q140.848 985.221 143.903 980.637 Q146.982 976.031 152.792 976.031 Z" fill="#000000" fill-rule="evenodd" fill-opacity="1" /><path clip-path="url(#clip190)" d="M66.4733 613.911 Q69.8298 614.628 71.7048 616.897 Q73.6029 619.165 73.6029 622.499 Q73.6029 627.615 70.0844 630.415 Q66.5659 633.216 60.0845 633.216 Q57.9086 633.216 55.5938 632.777 Q53.3021 632.36 50.8484 631.503 L50.8484 626.99 Q52.7928 628.124 55.1077 628.702 Q57.4225 629.281 59.9456 629.281 Q64.3437 629.281 66.6354 627.545 Q68.9502 625.809 68.9502 622.499 Q68.9502 619.443 66.7974 617.73 Q64.6678 615.994 60.8484 615.994 L56.8206 615.994 L56.8206 612.152 L61.0335 612.152 Q64.4826 612.152 66.3113 610.786 Q68.14 609.397 68.14 606.804 Q68.14 604.142 66.2419 602.73 Q64.3669 601.295 60.8484 601.295 Q58.9271 601.295 56.728 601.712 Q54.529 602.129 51.8901 603.008 L51.8901 598.842 Q54.5521 598.101 56.8669 597.73 Q59.2049 597.36 61.265 597.36 Q66.5891 597.36 69.6909 599.791 Q72.7927 602.198 72.7927 606.318 Q72.7927 609.189 71.1492 611.179 Q69.5057 613.147 66.4733 613.911 Z" fill="#000000" fill-rule="evenodd" fill-opacity="1" /><path clip-path="url(#clip190)" d="M92.4686 601.064 Q88.8575 601.064 87.0288 604.629 Q85.2232 608.17 85.2232 615.3 Q85.2232 622.406 87.0288 625.971 Q88.8575 629.513 92.4686 629.513 Q96.1028 629.513 97.9083 625.971 Q99.737 622.406 99.737 615.3 Q99.737 608.17 97.9083 604.629 Q96.1028 601.064 92.4686 601.064 M92.4686 597.36 Q98.2787 597.36 101.334 601.966 Q104.413 606.55 104.413 615.3 Q104.413 624.027 101.334 628.633 Q98.2787 633.216 92.4686 633.216 Q86.6584 633.216 83.5797 628.633 Q80.5242 624.027 80.5242 615.3 Q80.5242 606.55 83.5797 601.966 Q86.6584 597.36 92.4686 597.36 Z" fill="#000000" fill-rule="evenodd" fill-opacity="1" /><path clip-path="url(#clip190)" d="M122.63 601.064 Q119.019 601.064 117.191 604.629 Q115.385 608.17 115.385 615.3 Q115.385 622.406 117.191 625.971 Q119.019 629.513 122.63 629.513 Q126.265 629.513 128.07 625.971 Q129.899 622.406 129.899 615.3 Q129.899 608.17 128.07 604.629 Q126.265 601.064 122.63 601.064 M122.63 597.36 Q128.441 597.36 131.496 601.966 Q134.575 606.55 134.575 615.3 Q134.575 624.027 131.496 628.633 Q128.441 633.216 122.63 633.216 Q116.82 633.216 113.742 628.633 Q110.686 624.027 110.686 615.3 Q110.686 606.55 113.742 601.966 Q116.82 597.36 122.63 597.36 Z" fill="#000000" fill-rule="evenodd" fill-opacity="1" /><path clip-path="url(#clip190)" d="M152.792 601.064 Q149.181 601.064 147.353 604.629 Q145.547 608.17 145.547 615.3 Q145.547 622.406 147.353 625.971 Q149.181 629.513 152.792 629.513 Q156.427 629.513 158.232 625.971 Q160.061 622.406 160.061 615.3 Q160.061 608.17 158.232 604.629 Q156.427 601.064 152.792 601.064 M152.792 597.36 Q158.602 597.36 161.658 601.966 Q164.737 606.55 164.737 615.3 Q164.737 624.027 161.658 628.633 Q158.602 633.216 152.792 633.216 Q146.982 633.216 143.903 628.633 Q140.848 624.027 140.848 615.3 Q140.848 606.55 143.903 601.966 Q146.982 597.36 152.792 597.36 Z" fill="#000000" fill-rule="evenodd" fill-opacity="1" /><path clip-path="url(#clip190)" d="M65.1539 223.388 L53.3484 241.837 L65.1539 241.837 L65.1539 223.388 M63.927 219.314 L69.8066 219.314 L69.8066 241.837 L74.7372 241.837 L74.7372 245.726 L69.8066 245.726 L69.8066 253.874 L65.1539 253.874 L65.1539 245.726 L49.5521 245.726 L49.5521 241.212 L63.927 219.314 Z" fill="#000000" fill-rule="evenodd" fill-opacity="1" /><path clip-path="url(#clip190)" d="M92.4686 222.393 Q88.8575 222.393 87.0288 225.958 Q85.2232 229.499 85.2232 236.629 Q85.2232 243.735 87.0288 247.3 Q88.8575 250.842 92.4686 250.842 Q96.1028 250.842 97.9083 247.3 Q99.737 243.735 99.737 236.629 Q99.737 229.499 97.9083 225.958 Q96.1028 222.393 92.4686 222.393 M92.4686 218.689 Q98.2787 218.689 101.334 223.296 Q104.413 227.879 104.413 236.629 Q104.413 245.356 101.334 249.962 Q98.2787 254.546 92.4686 254.546 Q86.6584 254.546 83.5797 249.962 Q80.5242 245.356 80.5242 236.629 Q80.5242 227.879 83.5797 223.296 Q86.6584 218.689 92.4686 218.689 Z" fill="#000000" fill-rule="evenodd" fill-opacity="1" /><path clip-path="url(#clip190)" d="M122.63 222.393 Q119.019 222.393 117.191 225.958 Q115.385 229.499 115.385 236.629 Q115.385 243.735 117.191 247.3 Q119.019 250.842 122.63 250.842 Q126.265 250.842 128.07 247.3 Q129.899 243.735 129.899 236.629 Q129.899 229.499 128.07 225.958 Q126.265 222.393 122.63 222.393 M122.63 218.689 Q128.441 218.689 131.496 223.296 Q134.575 227.879 134.575 236.629 Q134.575 245.356 131.496 249.962 Q128.441 254.546 122.63 254.546 Q116.82 254.546 113.742 249.962 Q110.686 245.356 110.686 236.629 Q110.686 227.879 113.742 223.296 Q116.82 218.689 122.63 218.689 Z" fill="#000000" fill-rule="evenodd" fill-opacity="1" /><path clip-path="url(#clip190)" d="M152.792 222.393 Q149.181 222.393 147.353 225.958 Q145.547 229.499 145.547 236.629 Q145.547 243.735 147.353 247.3 Q149.181 250.842 152.792 250.842 Q156.427 250.842 158.232 247.3 Q160.061 243.735 160.061 236.629 Q160.061 229.499 158.232 225.958 Q156.427 222.393 152.792 222.393 M152.792 218.689 Q158.602 218.689 161.658 223.296 Q164.737 227.879 164.737 236.629 Q164.737 245.356 161.658 249.962 Q158.602 254.546 152.792 254.546 Q146.982 254.546 143.903 249.962 Q140.848 245.356 140.848 236.629 Q140.848 227.879 143.903 223.296 Q146.982 218.689 152.792 218.689 Z" fill="#000000" fill-rule="evenodd" fill-opacity="1" /><polyline clip-path="url(#clip192)" style="stroke:#009af9; stroke-linecap:butt; stroke-linejoin:round; stroke-width:4; stroke-opacity:1; fill:none" points="
  274.167,96.8724 274.342,924.075 274.518,1199.81 274.693,1337.68 274.868,1420.4 275.043,1475.54 275.219,1514.93 275.394,1544.48 275.569,1567.45 275.745,1585.84 
  275.92,1600.88 276.095,1613.41 276.446,1633.11 276.797,1647.88 277.147,1659.37 277.498,1668.56 277.848,1676.08 278.199,1682.34 278.9,1692.19 279.602,1699.58 
  280.303,1705.32 281.004,1709.92 281.705,1713.68 282.407,1716.81 283.809,1721.73 285.212,1725.43 286.614,1728.3 288.017,1730.6 289.419,1732.48 290.822,1734.04 
  292.224,1735.37 293.627,1736.51 295.029,1737.49 296.432,1738.35 309.4,1743.09 322.368,1745.28 335.337,1746.55 348.305,1747.37 374.241,1748.38 400.178,1748.98 
  452.051,1749.65 503.924,1750.02 566.271,1750.28 628.618,1750.46 681.331,1750.57 734.045,1750.65 848.568,1750.77 954.149,1750.85 1067.34,1750.91 1198.49,1750.96 
  1315.03,1751 1417.24,1751.02 1528.66,1751.05 1640.75,1751.06 1764.68,1751.08 1882.59,1751.1 2005.2,1751.11 2108.41,1751.12 2234.41,1751.13 2352.86,1751.14 
  2542.62,1751.15 2571.82,1751.15 
  "/>
<path clip-path="url(#clip190)" d="
M2236.5 209.375 L2559.57 209.375 L2559.57 105.695 L2236.5 105.695  Z
  " fill="#ffffff" fill-rule="evenodd" fill-opacity="1"/>
<polyline clip-path="url(#clip190)" style="stroke:#000000; stroke-linecap:butt; stroke-linejoin:round; stroke-width:4; stroke-opacity:1; fill:none" points="
  2236.5,209.375 2559.57,209.375 2559.57,105.695 2236.5,105.695 2236.5,209.375 
  "/>
<polyline clip-path="url(#clip190)" style="stroke:#009af9; stroke-linecap:butt; stroke-linejoin:round; stroke-width:4; stroke-opacity:1; fill:none" points="
  2263.57,157.535 2425.95,157.535 
  "/>
<path clip-path="url(#clip190)" d="M2466.85 177.223 Q2465.05 181.852 2463.33 183.264 Q2461.62 184.676 2458.75 184.676 L2455.35 184.676 L2455.35 181.112 L2457.85 181.112 Q2459.61 181.112 2460.58 180.278 Q2461.55 179.445 2462.73 176.343 L2463.5 174.399 L2453.01 148.889 L2457.52 148.889 L2465.62 169.167 L2473.73 148.889 L2478.24 148.889 L2466.85 177.223 Z" fill="#000000" fill-rule="evenodd" fill-opacity="1" /><path clip-path="url(#clip190)" d="M2485.53 170.88 L2493.17 170.88 L2493.17 144.515 L2484.86 146.181 L2484.86 141.922 L2493.12 140.255 L2497.8 140.255 L2497.8 170.88 L2505.44 170.88 L2505.44 174.815 L2485.53 174.815 L2485.53 170.88 Z" fill="#000000" fill-rule="evenodd" fill-opacity="1" /></svg>
