<?xml version="1.0" encoding="utf-8"?>
<svg xmlns="http://www.w3.org/2000/svg" xmlns:xlink="http://www.w3.org/1999/xlink" width="672" height="480" viewBox="0 0 2688 1920">
<defs>
  <clipPath id="clip530">
    <rect x="0" y="0" width="2688" height="1920"/>
  </clipPath>
</defs>
<path clip-path="url(#clip530)" d="
M0 1920 L2688 1920 L2688 0 L0 0  Z
  " fill="#ffffff" fill-rule="evenodd" fill-opacity="1"/>
<defs>
  <clipPath id="clip531">
    <rect x="537" y="0" width="1883" height="1883"/>
  </clipPath>
</defs>
<path clip-path="url(#clip530)" d="
M189.154 1800.78 L2640.76 1800.78 L2640.76 47.2441 L189.154 47.2441  Z
  " fill="#ffffff" fill-rule="evenodd" fill-opacity="1"/>
<defs>
  <clipPath id="clip532">
    <rect x="189" y="47" width="2453" height="1755"/>
  </clipPath>
</defs>
<polyline clip-path="url(#clip532)" style="stroke:#000000; stroke-linecap:butt; stroke-linejoin:round; stroke-width:2; stroke-opacity:0.1; fill:none" points="
  258.539,1800.78 258.539,47.2441 
  "/>
<polyline clip-path="url(#clip532)" style="stroke:#000000; stroke-linecap:butt; stroke-linejoin:round; stroke-width:2; stroke-opacity:0.1; fill:none" points="
  644.011,1800.78 644.011,47.2441 
  "/>
<polyline clip-path="url(#clip532)" style="stroke:#000000; stroke-linecap:butt; stroke-linejoin:round; stroke-width:2; stroke-opacity:0.1; fill:none" points="
  1029.48,1800.78 1029.48,47.2441 
  "/>
<polyline clip-path="url(#clip532)" style="stroke:#000000; stroke-linecap:butt; stroke-linejoin:round; stroke-width:2; stroke-opacity:0.1; fill:none" points="
  1414.95,1800.78 1414.95,47.2441 
  "/>
<polyline clip-path="url(#clip532)" style="stroke:#000000; stroke-linecap:butt; stroke-linejoin:round; stroke-width:2; stroke-opacity:0.1; fill:none" points="
  1800.43,1800.78 1800.43,47.2441 
  "/>
<polyline clip-path="url(#clip532)" style="stroke:#000000; stroke-linecap:butt; stroke-linejoin:round; stroke-width:2; stroke-opacity:0.1; fill:none" points="
  2185.9,1800.78 2185.9,47.2441 
  "/>
<polyline clip-path="url(#clip532)" style="stroke:#000000; stroke-linecap:butt; stroke-linejoin:round; stroke-width:2; stroke-opacity:0.1; fill:none" points="
  2571.37,1800.78 2571.37,47.2441 
  "/>
<polyline clip-path="url(#clip530)" style="stroke:#000000; stroke-linecap:butt; stroke-linejoin:round; stroke-width:4; stroke-opacity:1; fill:none" points="
  189.154,1800.78 2640.76,1800.78 
  "/>
<polyline clip-path="url(#clip530)" style="stroke:#000000; stroke-linecap:butt; stroke-linejoin:round; stroke-width:4; stroke-opacity:1; fill:none" points="
  258.539,1800.78 258.539,1781.88 
  "/>
<polyline clip-path="url(#clip530)" style="stroke:#000000; stroke-linecap:butt; stroke-linejoin:round; stroke-width:4; stroke-opacity:1; fill:none" points="
  644.011,1800.78 644.011,1781.88 
  "/>
<polyline clip-path="url(#clip530)" style="stroke:#000000; stroke-linecap:butt; stroke-linejoin:round; stroke-width:4; stroke-opacity:1; fill:none" points="
  1029.48,1800.78 1029.48,1781.88 
  "/>
<polyline clip-path="url(#clip530)" style="stroke:#000000; stroke-linecap:butt; stroke-linejoin:round; stroke-width:4; stroke-opacity:1; fill:none" points="
  1414.95,1800.78 1414.95,1781.88 
  "/>
<polyline clip-path="url(#clip530)" style="stroke:#000000; stroke-linecap:butt; stroke-linejoin:round; stroke-width:4; stroke-opacity:1; fill:none" points="
  1800.43,1800.78 1800.43,1781.88 
  "/>
<polyline clip-path="url(#clip530)" style="stroke:#000000; stroke-linecap:butt; stroke-linejoin:round; stroke-width:4; stroke-opacity:1; fill:none" points="
  2185.9,1800.78 2185.9,1781.88 
  "/>
<polyline clip-path="url(#clip530)" style="stroke:#000000; stroke-linecap:butt; stroke-linejoin:round; stroke-width:4; stroke-opacity:1; fill:none" points="
  2571.37,1800.78 2571.37,1781.88 
  "/>
<path clip-path="url(#clip530)" d="M228.007 1848.65 L257.682 1848.65 L257.682 1852.59 L228.007 1852.59 L228.007 1848.65 Z" fill="#000000" fill-rule="evenodd" fill-opacity="1" /><path clip-path="url(#clip530)" d="M281.942 1846.85 Q285.298 1847.57 287.173 1849.84 Q289.071 1852.1 289.071 1855.44 Q289.071 1860.55 285.553 1863.35 Q282.034 1866.15 275.553 1866.15 Q273.377 1866.15 271.062 1865.71 Q268.77 1865.3 266.317 1864.44 L266.317 1859.93 Q268.261 1861.06 270.576 1861.64 Q272.891 1862.22 275.414 1862.22 Q279.812 1862.22 282.104 1860.48 Q284.418 1858.75 284.418 1855.44 Q284.418 1852.38 282.266 1850.67 Q280.136 1848.93 276.317 1848.93 L272.289 1848.93 L272.289 1845.09 L276.502 1845.09 Q279.951 1845.09 281.78 1843.72 Q283.608 1842.34 283.608 1839.74 Q283.608 1837.08 281.71 1835.67 Q279.835 1834.23 276.317 1834.23 Q274.395 1834.23 272.196 1834.65 Q269.997 1835.07 267.358 1835.95 L267.358 1831.78 Q270.02 1831.04 272.335 1830.67 Q274.673 1830.3 276.733 1830.3 Q282.057 1830.3 285.159 1832.73 Q288.261 1835.14 288.261 1839.26 Q288.261 1842.13 286.618 1844.12 Q284.974 1846.09 281.942 1846.85 Z" fill="#000000" fill-rule="evenodd" fill-opacity="1" /><path clip-path="url(#clip530)" d="M613.953 1848.65 L643.629 1848.65 L643.629 1852.59 L613.953 1852.59 L613.953 1848.65 Z" fill="#000000" fill-rule="evenodd" fill-opacity="1" /><path clip-path="url(#clip530)" d="M657.749 1861.55 L674.069 1861.55 L674.069 1865.48 L652.124 1865.48 L652.124 1861.55 Q654.786 1858.79 659.37 1854.16 Q663.976 1849.51 665.157 1848.17 Q667.402 1845.65 668.282 1843.91 Q669.184 1842.15 669.184 1840.46 Q669.184 1837.71 667.24 1835.97 Q665.319 1834.23 662.217 1834.23 Q660.018 1834.23 657.564 1835 Q655.134 1835.76 652.356 1837.31 L652.356 1832.59 Q655.18 1831.46 657.634 1830.88 Q660.087 1830.3 662.124 1830.3 Q667.495 1830.3 670.689 1832.98 Q673.883 1835.67 673.883 1840.16 Q673.883 1842.29 673.073 1844.21 Q672.286 1846.11 670.18 1848.7 Q669.601 1849.37 666.499 1852.59 Q663.397 1855.78 657.749 1861.55 Z" fill="#000000" fill-rule="evenodd" fill-opacity="1" /><path clip-path="url(#clip530)" d="M999.24 1848.65 L1028.92 1848.65 L1028.92 1852.59 L999.24 1852.59 L999.24 1848.65 Z" fill="#000000" fill-rule="evenodd" fill-opacity="1" /><path clip-path="url(#clip530)" d="M1039.82 1861.55 L1047.46 1861.55 L1047.46 1835.18 L1039.15 1836.85 L1039.15 1832.59 L1047.41 1830.92 L1052.09 1830.92 L1052.09 1861.55 L1059.73 1861.55 L1059.73 1865.48 L1039.82 1865.48 L1039.82 1861.55 Z" fill="#000000" fill-rule="evenodd" fill-opacity="1" /><path clip-path="url(#clip530)" d="M1414.95 1834 Q1411.34 1834 1409.52 1837.57 Q1407.71 1841.11 1407.71 1848.24 Q1407.71 1855.34 1409.52 1858.91 Q1411.34 1862.45 1414.95 1862.45 Q1418.59 1862.45 1420.39 1858.91 Q1422.22 1855.34 1422.22 1848.24 Q1422.22 1841.11 1420.39 1837.57 Q1418.59 1834 1414.95 1834 M1414.95 1830.3 Q1420.77 1830.3 1423.82 1834.9 Q1426.9 1839.49 1426.9 1848.24 Q1426.9 1856.96 1423.82 1861.57 Q1420.77 1866.15 1414.95 1866.15 Q1409.14 1866.15 1406.07 1861.57 Q1403.01 1856.96 1403.01 1848.24 Q1403.01 1839.49 1406.07 1834.9 Q1409.14 1830.3 1414.95 1830.3 Z" fill="#000000" fill-rule="evenodd" fill-opacity="1" /><path clip-path="url(#clip530)" d="M1790.81 1861.55 L1798.45 1861.55 L1798.45 1835.18 L1790.14 1836.85 L1790.14 1832.59 L1798.4 1830.92 L1803.08 1830.92 L1803.08 1861.55 L1810.72 1861.55 L1810.72 1865.48 L1790.81 1865.48 L1790.81 1861.55 Z" fill="#000000" fill-rule="evenodd" fill-opacity="1" /><path clip-path="url(#clip530)" d="M2180.55 1861.55 L2196.87 1861.55 L2196.87 1865.48 L2174.93 1865.48 L2174.93 1861.55 Q2177.59 1858.79 2182.17 1854.16 Q2186.78 1849.51 2187.96 1848.17 Q2190.2 1845.65 2191.08 1843.91 Q2191.99 1842.15 2191.99 1840.46 Q2191.99 1837.71 2190.04 1835.97 Q2188.12 1834.23 2185.02 1834.23 Q2182.82 1834.23 2180.37 1835 Q2177.94 1835.76 2175.16 1837.31 L2175.16 1832.59 Q2177.98 1831.46 2180.44 1830.88 Q2182.89 1830.3 2184.93 1830.3 Q2190.3 1830.3 2193.49 1832.98 Q2196.69 1835.67 2196.69 1840.16 Q2196.69 1842.29 2195.88 1844.21 Q2195.09 1846.11 2192.98 1848.7 Q2192.4 1849.37 2189.3 1852.59 Q2186.2 1855.78 2180.55 1861.55 Z" fill="#000000" fill-rule="evenodd" fill-opacity="1" /><path clip-path="url(#clip530)" d="M2575.62 1846.85 Q2578.98 1847.57 2580.85 1849.84 Q2582.75 1852.1 2582.75 1855.44 Q2582.75 1860.55 2579.23 1863.35 Q2575.71 1866.15 2569.23 1866.15 Q2567.05 1866.15 2564.74 1865.71 Q2562.45 1865.3 2559.99 1864.44 L2559.99 1859.93 Q2561.94 1861.06 2564.25 1861.64 Q2566.57 1862.22 2569.09 1862.22 Q2573.49 1862.22 2575.78 1860.48 Q2578.1 1858.75 2578.1 1855.44 Q2578.1 1852.38 2575.94 1850.67 Q2573.81 1848.93 2569.99 1848.93 L2565.97 1848.93 L2565.97 1845.09 L2570.18 1845.09 Q2573.63 1845.09 2575.46 1843.72 Q2577.29 1842.34 2577.29 1839.74 Q2577.29 1837.08 2575.39 1835.67 Q2573.51 1834.23 2569.99 1834.23 Q2568.07 1834.23 2565.87 1834.65 Q2563.67 1835.07 2561.04 1835.95 L2561.04 1831.78 Q2563.7 1831.04 2566.01 1830.67 Q2568.35 1830.3 2570.41 1830.3 Q2575.73 1830.3 2578.84 1832.73 Q2581.94 1835.14 2581.94 1839.26 Q2581.94 1842.13 2580.29 1844.12 Q2578.65 1846.09 2575.62 1846.85 Z" fill="#000000" fill-rule="evenodd" fill-opacity="1" /><polyline clip-path="url(#clip532)" style="stroke:#000000; stroke-linecap:butt; stroke-linejoin:round; stroke-width:2; stroke-opacity:0.1; fill:none" points="
  189.154,1769.74 2640.76,1769.74 
  "/>
<polyline clip-path="url(#clip532)" style="stroke:#000000; stroke-linecap:butt; stroke-linejoin:round; stroke-width:2; stroke-opacity:0.1; fill:none" points="
  189.154,1351.48 2640.76,1351.48 
  "/>
<polyline clip-path="url(#clip532)" style="stroke:#000000; stroke-linecap:butt; stroke-linejoin:round; stroke-width:2; stroke-opacity:0.1; fill:none" points="
  189.154,933.233 2640.76,933.233 
  "/>
<polyline clip-path="url(#clip532)" style="stroke:#000000; stroke-linecap:butt; stroke-linejoin:round; stroke-width:2; stroke-opacity:0.1; fill:none" points="
  189.154,514.982 2640.76,514.982 
  "/>
<polyline clip-path="url(#clip532)" style="stroke:#000000; stroke-linecap:butt; stroke-linejoin:round; stroke-width:2; stroke-opacity:0.1; fill:none" points="
  189.154,96.7302 2640.76,96.7302 
  "/>
<polyline clip-path="url(#clip530)" style="stroke:#000000; stroke-linecap:butt; stroke-linejoin:round; stroke-width:4; stroke-opacity:1; fill:none" points="
  189.154,1800.78 189.154,47.2441 
  "/>
<polyline clip-path="url(#clip530)" style="stroke:#000000; stroke-linecap:butt; stroke-linejoin:round; stroke-width:4; stroke-opacity:1; fill:none" points="
  189.154,1769.74 208.052,1769.74 
  "/>
<polyline clip-path="url(#clip530)" style="stroke:#000000; stroke-linecap:butt; stroke-linejoin:round; stroke-width:4; stroke-opacity:1; fill:none" points="
  189.154,1351.48 208.052,1351.48 
  "/>
<polyline clip-path="url(#clip530)" style="stroke:#000000; stroke-linecap:butt; stroke-linejoin:round; stroke-width:4; stroke-opacity:1; fill:none" points="
  189.154,933.233 208.052,933.233 
  "/>
<polyline clip-path="url(#clip530)" style="stroke:#000000; stroke-linecap:butt; stroke-linejoin:round; stroke-width:4; stroke-opacity:1; fill:none" points="
  189.154,514.982 208.052,514.982 
  "/>
<polyline clip-path="url(#clip530)" style="stroke:#000000; stroke-linecap:butt; stroke-linejoin:round; stroke-width:4; stroke-opacity:1; fill:none" points="
  189.154,96.7302 208.052,96.7302 
  "/>
<path clip-path="url(#clip530)" d="M61.4965 1755.54 Q57.8854 1755.54 56.0567 1759.1 Q54.2512 1762.64 54.2512 1769.77 Q54.2512 1776.88 56.0567 1780.44 Q57.8854 1783.98 61.4965 1783.98 Q65.1307 1783.98 66.9363 1780.44 Q68.765 1776.88 68.765 1769.77 Q68.765 1762.64 66.9363 1759.1 Q65.1307 1755.54 61.4965 1755.54 M61.4965 1751.83 Q67.3067 1751.83 70.3622 1756.44 Q73.4409 1761.02 73.4409 1769.77 Q73.4409 1778.5 70.3622 1783.1 Q67.3067 1787.69 61.4965 1787.69 Q55.6864 1787.69 52.6077 1783.1 Q49.5521 1778.5 49.5521 1769.77 Q49.5521 1761.02 52.6077 1756.44 Q55.6864 1751.83 61.4965 1751.83 Z" fill="#000000" fill-rule="evenodd" fill-opacity="1" /><path clip-path="url(#clip530)" d="M81.6584 1781.14 L86.5427 1781.14 L86.5427 1787.02 L81.6584 1787.02 L81.6584 1781.14 Z" fill="#000000" fill-rule="evenodd" fill-opacity="1" /><path clip-path="url(#clip530)" d="M106.728 1755.54 Q103.117 1755.54 101.288 1759.1 Q99.4824 1762.64 99.4824 1769.77 Q99.4824 1776.88 101.288 1780.44 Q103.117 1783.98 106.728 1783.98 Q110.362 1783.98 112.168 1780.44 Q113.996 1776.88 113.996 1769.77 Q113.996 1762.64 112.168 1759.1 Q110.362 1755.54 106.728 1755.54 M106.728 1751.83 Q112.538 1751.83 115.593 1756.44 Q118.672 1761.02 118.672 1769.77 Q118.672 1778.5 115.593 1783.1 Q112.538 1787.69 106.728 1787.69 Q100.918 1787.69 97.8389 1783.1 Q94.7834 1778.5 94.7834 1769.77 Q94.7834 1761.02 97.8389 1756.44 Q100.918 1751.83 106.728 1751.83 Z" fill="#000000" fill-rule="evenodd" fill-opacity="1" /><path clip-path="url(#clip530)" d="M136.89 1755.54 Q133.279 1755.54 131.45 1759.1 Q129.644 1762.64 129.644 1769.77 Q129.644 1776.88 131.45 1780.44 Q133.279 1783.98 136.89 1783.98 Q140.524 1783.98 142.329 1780.44 Q144.158 1776.88 144.158 1769.77 Q144.158 1762.64 142.329 1759.1 Q140.524 1755.54 136.89 1755.54 M136.89 1751.83 Q142.7 1751.83 145.755 1756.44 Q148.834 1761.02 148.834 1769.77 Q148.834 1778.5 145.755 1783.1 Q142.7 1787.69 136.89 1787.69 Q131.079 1787.69 128.001 1783.1 Q124.945 1778.5 124.945 1769.77 Q124.945 1761.02 128.001 1756.44 Q131.079 1751.83 136.89 1751.83 Z" fill="#000000" fill-rule="evenodd" fill-opacity="1" /><path clip-path="url(#clip530)" d="M62.4919 1337.28 Q58.8808 1337.28 57.0521 1340.85 Q55.2465 1344.39 55.2465 1351.52 Q55.2465 1358.63 57.0521 1362.19 Q58.8808 1365.73 62.4919 1365.73 Q66.1261 1365.73 67.9317 1362.19 Q69.7604 1358.63 69.7604 1351.52 Q69.7604 1344.39 67.9317 1340.85 Q66.1261 1337.28 62.4919 1337.28 M62.4919 1333.58 Q68.302 1333.58 71.3576 1338.19 Q74.4363 1342.77 74.4363 1351.52 Q74.4363 1360.25 71.3576 1364.85 Q68.302 1369.44 62.4919 1369.44 Q56.6817 1369.44 53.603 1364.85 Q50.5475 1360.25 50.5475 1351.52 Q50.5475 1342.77 53.603 1338.19 Q56.6817 1333.58 62.4919 1333.58 Z" fill="#000000" fill-rule="evenodd" fill-opacity="1" /><path clip-path="url(#clip530)" d="M82.6538 1362.89 L87.538 1362.89 L87.538 1368.76 L82.6538 1368.76 L82.6538 1362.89 Z" fill="#000000" fill-rule="evenodd" fill-opacity="1" /><path clip-path="url(#clip530)" d="M101.751 1364.83 L118.07 1364.83 L118.07 1368.76 L96.126 1368.76 L96.126 1364.83 Q98.788 1362.08 103.371 1357.45 Q107.978 1352.79 109.158 1351.45 Q111.404 1348.93 112.283 1347.19 Q113.186 1345.43 113.186 1343.74 Q113.186 1340.99 111.242 1339.25 Q109.32 1337.52 106.218 1337.52 Q104.019 1337.52 101.566 1338.28 Q99.1352 1339.04 96.3574 1340.59 L96.3574 1335.87 Q99.1815 1334.74 101.635 1334.16 Q104.089 1333.58 106.126 1333.58 Q111.496 1333.58 114.691 1336.27 Q117.885 1338.95 117.885 1343.44 Q117.885 1345.57 117.075 1347.49 Q116.288 1349.39 114.181 1351.98 Q113.603 1352.65 110.501 1355.87 Q107.399 1359.07 101.751 1364.83 Z" fill="#000000" fill-rule="evenodd" fill-opacity="1" /><path clip-path="url(#clip530)" d="M127.931 1334.2 L146.288 1334.2 L146.288 1338.14 L132.214 1338.14 L132.214 1346.61 Q133.232 1346.26 134.251 1346.1 Q135.269 1345.92 136.288 1345.92 Q142.075 1345.92 145.454 1349.09 Q148.834 1352.26 148.834 1357.68 Q148.834 1363.26 145.362 1366.36 Q141.89 1369.44 135.57 1369.44 Q133.394 1369.44 131.126 1369.07 Q128.88 1368.7 126.473 1367.95 L126.473 1363.26 Q128.556 1364.39 130.779 1364.95 Q133.001 1365.5 135.478 1365.5 Q139.482 1365.5 141.82 1363.39 Q144.158 1361.29 144.158 1357.68 Q144.158 1354.07 141.82 1351.96 Q139.482 1349.85 135.478 1349.85 Q133.603 1349.85 131.728 1350.27 Q129.876 1350.69 127.931 1351.57 L127.931 1334.2 Z" fill="#000000" fill-rule="evenodd" fill-opacity="1" /><path clip-path="url(#clip530)" d="M61.4965 919.032 Q57.8854 919.032 56.0567 922.597 Q54.2512 926.138 54.2512 933.268 Q54.2512 940.374 56.0567 943.939 Q57.8854 947.481 61.4965 947.481 Q65.1307 947.481 66.9363 943.939 Q68.765 940.374 68.765 933.268 Q68.765 926.138 66.9363 922.597 Q65.1307 919.032 61.4965 919.032 M61.4965 915.328 Q67.3067 915.328 70.3622 919.935 Q73.4409 924.518 73.4409 933.268 Q73.4409 941.995 70.3622 946.601 Q67.3067 951.185 61.4965 951.185 Q55.6864 951.185 52.6077 946.601 Q49.5521 941.995 49.5521 933.268 Q49.5521 924.518 52.6077 919.935 Q55.6864 915.328 61.4965 915.328 Z" fill="#000000" fill-rule="evenodd" fill-opacity="1" /><path clip-path="url(#clip530)" d="M81.6584 944.634 L86.5427 944.634 L86.5427 950.513 L81.6584 950.513 L81.6584 944.634 Z" fill="#000000" fill-rule="evenodd" fill-opacity="1" /><path clip-path="url(#clip530)" d="M96.7741 915.953 L115.13 915.953 L115.13 919.888 L101.056 919.888 L101.056 928.361 Q102.075 928.013 103.094 927.851 Q104.112 927.666 105.131 927.666 Q110.918 927.666 114.297 930.837 Q117.677 934.009 117.677 939.425 Q117.677 945.004 114.205 948.106 Q110.732 951.185 104.413 951.185 Q102.237 951.185 99.9685 950.814 Q97.7232 950.444 95.3158 949.703 L95.3158 945.004 Q97.3991 946.138 99.6213 946.694 Q101.844 947.249 104.32 947.249 Q108.325 947.249 110.663 945.143 Q113.001 943.036 113.001 939.425 Q113.001 935.814 110.663 933.708 Q108.325 931.601 104.32 931.601 Q102.445 931.601 100.57 932.018 Q98.7185 932.435 96.7741 933.314 L96.7741 915.953 Z" fill="#000000" fill-rule="evenodd" fill-opacity="1" /><path clip-path="url(#clip530)" d="M136.89 919.032 Q133.279 919.032 131.45 922.597 Q129.644 926.138 129.644 933.268 Q129.644 940.374 131.45 943.939 Q133.279 947.481 136.89 947.481 Q140.524 947.481 142.329 943.939 Q144.158 940.374 144.158 933.268 Q144.158 926.138 142.329 922.597 Q140.524 919.032 136.89 919.032 M136.89 915.328 Q142.7 915.328 145.755 919.935 Q148.834 924.518 148.834 933.268 Q148.834 941.995 145.755 946.601 Q142.7 951.185 136.89 951.185 Q131.079 951.185 128.001 946.601 Q124.945 941.995 124.945 933.268 Q124.945 924.518 128.001 919.935 Q131.079 915.328 136.89 915.328 Z" fill="#000000" fill-rule="evenodd" fill-opacity="1" /><path clip-path="url(#clip530)" d="M62.4919 500.78 Q58.8808 500.78 57.0521 504.345 Q55.2465 507.887 55.2465 515.017 Q55.2465 522.123 57.0521 525.688 Q58.8808 529.229 62.4919 529.229 Q66.1261 529.229 67.9317 525.688 Q69.7604 522.123 69.7604 515.017 Q69.7604 507.887 67.9317 504.345 Q66.1261 500.78 62.4919 500.78 M62.4919 497.077 Q68.302 497.077 71.3576 501.683 Q74.4363 506.267 74.4363 515.017 Q74.4363 523.743 71.3576 528.35 Q68.302 532.933 62.4919 532.933 Q56.6817 532.933 53.603 528.35 Q50.5475 523.743 50.5475 515.017 Q50.5475 506.267 53.603 501.683 Q56.6817 497.077 62.4919 497.077 Z" fill="#000000" fill-rule="evenodd" fill-opacity="1" /><path clip-path="url(#clip530)" d="M82.6538 526.382 L87.538 526.382 L87.538 532.262 L82.6538 532.262 L82.6538 526.382 Z" fill="#000000" fill-rule="evenodd" fill-opacity="1" /><path clip-path="url(#clip530)" d="M96.5426 497.702 L118.765 497.702 L118.765 499.693 L106.218 532.262 L101.334 532.262 L113.14 501.637 L96.5426 501.637 L96.5426 497.702 Z" fill="#000000" fill-rule="evenodd" fill-opacity="1" /><path clip-path="url(#clip530)" d="M127.931 497.702 L146.288 497.702 L146.288 501.637 L132.214 501.637 L132.214 510.109 Q133.232 509.762 134.251 509.6 Q135.269 509.415 136.288 509.415 Q142.075 509.415 145.454 512.586 Q148.834 515.757 148.834 521.174 Q148.834 526.753 145.362 529.854 Q141.89 532.933 135.57 532.933 Q133.394 532.933 131.126 532.563 Q128.88 532.192 126.473 531.452 L126.473 526.753 Q128.556 527.887 130.779 528.442 Q133.001 528.998 135.478 528.998 Q139.482 528.998 141.82 526.891 Q144.158 524.785 144.158 521.174 Q144.158 517.563 141.82 515.456 Q139.482 513.35 135.478 513.35 Q133.603 513.35 131.728 513.767 Q129.876 514.183 127.931 515.063 L127.931 497.702 Z" fill="#000000" fill-rule="evenodd" fill-opacity="1" /><path clip-path="url(#clip530)" d="M52.3067 110.075 L59.9456 110.075 L59.9456 83.7095 L51.6354 85.3761 L51.6354 81.1169 L59.8993 79.4502 L64.5752 79.4502 L64.5752 110.075 L72.214 110.075 L72.214 114.01 L52.3067 114.01 L52.3067 110.075 Z" fill="#000000" fill-rule="evenodd" fill-opacity="1" /><path clip-path="url(#clip530)" d="M81.6584 108.131 L86.5427 108.131 L86.5427 114.01 L81.6584 114.01 L81.6584 108.131 Z" fill="#000000" fill-rule="evenodd" fill-opacity="1" /><path clip-path="url(#clip530)" d="M106.728 82.5289 Q103.117 82.5289 101.288 86.0937 Q99.4824 89.6354 99.4824 96.765 Q99.4824 103.871 101.288 107.436 Q103.117 110.978 106.728 110.978 Q110.362 110.978 112.168 107.436 Q113.996 103.871 113.996 96.765 Q113.996 89.6354 112.168 86.0937 Q110.362 82.5289 106.728 82.5289 M106.728 78.8253 Q112.538 78.8253 115.593 83.4317 Q118.672 88.015 118.672 96.765 Q118.672 105.492 115.593 110.098 Q112.538 114.682 106.728 114.682 Q100.918 114.682 97.8389 110.098 Q94.7834 105.492 94.7834 96.765 Q94.7834 88.015 97.8389 83.4317 Q100.918 78.8253 106.728 78.8253 Z" fill="#000000" fill-rule="evenodd" fill-opacity="1" /><path clip-path="url(#clip530)" d="M136.89 82.5289 Q133.279 82.5289 131.45 86.0937 Q129.644 89.6354 129.644 96.765 Q129.644 103.871 131.45 107.436 Q133.279 110.978 136.89 110.978 Q140.524 110.978 142.329 107.436 Q144.158 103.871 144.158 96.765 Q144.158 89.6354 142.329 86.0937 Q140.524 82.5289 136.89 82.5289 M136.89 78.8253 Q142.7 78.8253 145.755 83.4317 Q148.834 88.015 148.834 96.765 Q148.834 105.492 145.755 110.098 Q142.7 114.682 136.89 114.682 Q131.079 114.682 128.001 110.098 Q124.945 105.492 124.945 96.765 Q124.945 88.015 128.001 83.4317 Q131.079 78.8253 136.89 78.8253 Z" fill="#000000" fill-rule="evenodd" fill-opacity="1" /><polyline clip-path="url(#clip532)" style="stroke:#009af9; stroke-linecap:butt; stroke-linejoin:round; stroke-width:4; stroke-opacity:1; fill:none" points="
  258.539,1751.15 262.303,1750.6 266.068,1750.03 269.832,1749.45 273.597,1748.86 308.405,1742.57 343.212,1734.67 378.02,1724.85 412.828,1712.74 433.746,1704.2 
  454.664,1694.6 475.582,1683.85 496.5,1671.85 531.872,1648.44 567.244,1620.69 586.455,1603.63 605.667,1585.08 624.879,1564.97 644.091,1543.23 661.803,1521.69 
  679.514,1498.68 697.226,1474.15 714.938,1448.09 733.926,1418.42 752.915,1386.94 771.904,1353.65 790.893,1318.56 812.893,1275.69 834.893,1230.5 856.894,1183.1 
  878.894,1133.6 898.445,1087.99 917.997,1040.98 937.548,992.74 957.099,943.429 991.389,854.97 1025.68,765.023 1063.06,666.838 1100.45,570.393 1119.25,523.181 
  1138.05,477.189 1156.86,432.686 1175.66,389.938 1196.45,345.033 1217.24,302.939 1238.03,263.988 1258.82,228.493 1278.6,198.193 1298.38,171.511 1318.16,148.651 
  1337.94,129.788 1348.23,121.61 1358.51,114.57 1368.79,108.683 1379.08,103.961 1389.36,100.414 1399.65,98.0492 1409.93,96.8724 1420.21,96.8859 1437.53,99.5959 
  1454.84,105.662 1472.15,115.047 1489.47,127.696 1500.04,136.989 1510.6,147.45 1521.17,159.055 1531.74,171.779 1552.88,200.468 1574.02,233.27 1593.38,266.688 
  1612.74,303.085 1632.11,342.207 1651.47,383.788 1669.35,424.133 1687.24,466.113 1705.12,509.499 1723.01,554.061 1759.24,647 1795.47,741.954 1836.07,848.582 
  1876.68,953.258 1913.47,1044.78 1950.27,1131.88 1971.33,1179.38 1992.39,1224.97 2013.46,1268.53 2034.52,1309.99 2054.03,1346.44 2073.53,1380.99 2093.03,1413.64 
  2112.53,1444.38 2131.76,1472.83 2150.99,1499.47 2170.22,1524.33 2189.45,1547.46 2208.11,1568.3 2226.78,1587.62 2245.45,1605.48 2264.12,1621.92 2283.26,1637.4 
  2302.4,1651.55 2321.53,1664.44 2340.67,1676.16 2361.64,1687.74 2382.61,1698.1 2403.57,1707.34 2424.54,1715.54 2455,1725.81 2485.46,1734.36 2515.92,1741.42 
  2546.38,1747.21 2552.62,1748.26 2558.87,1749.26 2565.12,1750.23 2571.37,1751.15 
  "/>
<path clip-path="url(#clip530)" d="
M2234.21 209.375 L2559.04 209.375 L2559.04 105.695 L2234.21 105.695  Z
  " fill="#ffffff" fill-rule="evenodd" fill-opacity="1"/>
<polyline clip-path="url(#clip530)" style="stroke:#000000; stroke-linecap:butt; stroke-linejoin:round; stroke-width:4; stroke-opacity:1; fill:none" points="
  2234.21,209.375 2559.04,209.375 2559.04,105.695 2234.21,105.695 2234.21,209.375 
  "/>
<polyline clip-path="url(#clip530)" style="stroke:#009af9; stroke-linecap:butt; stroke-linejoin:round; stroke-width:4; stroke-opacity:1; fill:none" points="
  2261.45,157.535 2424.89,157.535 
  "/>
<path clip-path="url(#clip530)" d="M2465.97 177.223 Q2464.16 181.852 2462.45 183.264 Q2460.74 184.676 2457.87 184.676 L2454.46 184.676 L2454.46 181.112 L2456.96 181.112 Q2458.72 181.112 2459.69 180.278 Q2460.67 179.445 2461.85 176.343 L2462.61 174.399 L2452.13 148.889 L2456.64 148.889 L2464.74 169.167 L2472.84 148.889 L2477.36 148.889 L2465.97 177.223 Z" fill="#000000" fill-rule="evenodd" fill-opacity="1" /><path clip-path="url(#clip530)" d="M2484.65 170.88 L2492.29 170.88 L2492.29 144.515 L2483.98 146.181 L2483.98 141.922 L2492.24 140.255 L2496.92 140.255 L2496.92 170.88 L2504.56 170.88 L2504.56 174.815 L2484.65 174.815 L2484.65 170.88 Z" fill="#000000" fill-rule="evenodd" fill-opacity="1" /></svg>
