<?xml version="1.0" encoding="utf-8"?>
<svg xmlns="http://www.w3.org/2000/svg" xmlns:xlink="http://www.w3.org/1999/xlink" width="672" height="480" viewBox="0 0 2688 1920">
<defs>
  <clipPath id="clip410">
    <rect x="0" y="0" width="2688" height="1920"/>
  </clipPath>
</defs>
<path clip-path="url(#clip410)" d="
M0 1920 L2688 1920 L2688 0 L0 0  Z
  " fill="#ffffff" fill-rule="evenodd" fill-opacity="1"/>
<defs>
  <clipPath id="clip411">
    <rect x="537" y="0" width="1883" height="1883"/>
  </clipPath>
</defs>
<path clip-path="url(#clip410)" d="
M172.001 1800.78 L2640.76 1800.78 L2640.76 47.2441 L172.001 47.2441  Z
  " fill="#ffffff" fill-rule="evenodd" fill-opacity="1"/>
<defs>
  <clipPath id="clip412">
    <rect x="172" y="47" width="2470" height="1755"/>
  </clipPath>
</defs>
<polyline clip-path="url(#clip412)" style="stroke:#000000; stroke-linecap:butt; stroke-linejoin:round; stroke-width:2; stroke-opacity:0.1; fill:none" points="
  241.872,1800.78 241.872,47.2441 
  "/>
<polyline clip-path="url(#clip412)" style="stroke:#000000; stroke-linecap:butt; stroke-linejoin:round; stroke-width:2; stroke-opacity:0.1; fill:none" points="
  824.125,1800.78 824.125,47.2441 
  "/>
<polyline clip-path="url(#clip412)" style="stroke:#000000; stroke-linecap:butt; stroke-linejoin:round; stroke-width:2; stroke-opacity:0.1; fill:none" points="
  1406.38,1800.78 1406.38,47.2441 
  "/>
<polyline clip-path="url(#clip412)" style="stroke:#000000; stroke-linecap:butt; stroke-linejoin:round; stroke-width:2; stroke-opacity:0.1; fill:none" points="
  1988.63,1800.78 1988.63,47.2441 
  "/>
<polyline clip-path="url(#clip412)" style="stroke:#000000; stroke-linecap:butt; stroke-linejoin:round; stroke-width:2; stroke-opacity:0.1; fill:none" points="
  2570.89,1800.78 2570.89,47.2441 
  "/>
<polyline clip-path="url(#clip410)" style="stroke:#000000; stroke-linecap:butt; stroke-linejoin:round; stroke-width:4; stroke-opacity:1; fill:none" points="
  172.001,1800.78 2640.76,1800.78 
  "/>
<polyline clip-path="url(#clip410)" style="stroke:#000000; stroke-linecap:butt; stroke-linejoin:round; stroke-width:4; stroke-opacity:1; fill:none" points="
  241.872,1800.78 241.872,1781.88 
  "/>
<polyline clip-path="url(#clip410)" style="stroke:#000000; stroke-linecap:butt; stroke-linejoin:round; stroke-width:4; stroke-opacity:1; fill:none" points="
  824.125,1800.78 824.125,1781.88 
  "/>
<polyline clip-path="url(#clip410)" style="stroke:#000000; stroke-linecap:butt; stroke-linejoin:round; stroke-width:4; stroke-opacity:1; fill:none" points="
  1406.38,1800.78 1406.38,1781.88 
  "/>
<polyline clip-path="url(#clip410)" style="stroke:#000000; stroke-linecap:butt; stroke-linejoin:round; stroke-width:4; stroke-opacity:1; fill:none" points="
  1988.63,1800.78 1988.63,1781.88 
  "/>
<polyline clip-path="url(#clip410)" style="stroke:#000000; stroke-linecap:butt; stroke-linejoin:round; stroke-width:4; stroke-opacity:1; fill:none" points="
  2570.89,1800.78 2570.89,1781.88 
  "/>
<path clip-path="url(#clip410)" d="M195.934 1848.65 L225.61 1848.65 L225.61 1852.59 L195.934 1852.59 L195.934 1848.65 Z" fill="#000000" fill-rule="evenodd" fill-opacity="1" /><path clip-path="url(#clip410)" d="M236.513 1861.55 L244.152 1861.55 L244.152 1835.18 L235.842 1836.85 L235.842 1832.59 L244.106 1830.92 L248.781 1830.92 L248.781 1861.55 L256.42 1861.55 L256.42 1865.48 L236.513 1865.48 L236.513 1861.55 Z" fill="#000000" fill-rule="evenodd" fill-opacity="1" /><path clip-path="url(#clip410)" d="M275.865 1834 Q272.254 1834 270.425 1837.57 Q268.619 1841.11 268.619 1848.24 Q268.619 1855.34 270.425 1858.91 Q272.254 1862.45 275.865 1862.45 Q279.499 1862.45 281.304 1858.91 Q283.133 1855.34 283.133 1848.24 Q283.133 1841.11 281.304 1837.57 Q279.499 1834 275.865 1834 M275.865 1830.3 Q281.675 1830.3 284.73 1834.9 Q287.809 1839.49 287.809 1848.24 Q287.809 1856.96 284.73 1861.57 Q281.675 1866.15 275.865 1866.15 Q270.054 1866.15 266.976 1861.57 Q263.92 1856.96 263.92 1848.24 Q263.92 1839.49 266.976 1834.9 Q270.054 1830.3 275.865 1830.3 Z" fill="#000000" fill-rule="evenodd" fill-opacity="1" /><path clip-path="url(#clip410)" d="M793.767 1848.65 L823.442 1848.65 L823.442 1852.59 L793.767 1852.59 L793.767 1848.65 Z" fill="#000000" fill-rule="evenodd" fill-opacity="1" /><path clip-path="url(#clip410)" d="M833.581 1830.92 L851.938 1830.92 L851.938 1834.86 L837.864 1834.86 L837.864 1843.33 Q838.882 1842.98 839.901 1842.82 Q840.919 1842.64 841.938 1842.64 Q847.725 1842.64 851.104 1845.81 Q854.484 1848.98 854.484 1854.4 Q854.484 1859.97 851.012 1863.08 Q847.539 1866.15 841.22 1866.15 Q839.044 1866.15 836.776 1865.78 Q834.53 1865.41 832.123 1864.67 L832.123 1859.97 Q834.206 1861.11 836.428 1861.66 Q838.651 1862.22 841.127 1862.22 Q845.132 1862.22 847.47 1860.11 Q849.808 1858.01 849.808 1854.4 Q849.808 1850.78 847.47 1848.68 Q845.132 1846.57 841.127 1846.57 Q839.252 1846.57 837.377 1846.99 Q835.526 1847.4 833.581 1848.28 L833.581 1830.92 Z" fill="#000000" fill-rule="evenodd" fill-opacity="1" /><path clip-path="url(#clip410)" d="M1406.38 1834 Q1402.77 1834 1400.94 1837.57 Q1399.13 1841.11 1399.13 1848.24 Q1399.13 1855.34 1400.94 1858.91 Q1402.77 1862.45 1406.38 1862.45 Q1410.01 1862.45 1411.82 1858.91 Q1413.65 1855.34 1413.65 1848.24 Q1413.65 1841.11 1411.82 1837.57 Q1410.01 1834 1406.38 1834 M1406.38 1830.3 Q1412.19 1830.3 1415.24 1834.9 Q1418.32 1839.49 1418.32 1848.24 Q1418.32 1856.96 1415.24 1861.57 Q1412.19 1866.15 1406.38 1866.15 Q1400.57 1866.15 1397.49 1861.57 Q1394.43 1856.96 1394.43 1848.24 Q1394.43 1839.49 1397.49 1834.9 Q1400.57 1830.3 1406.38 1830.3 Z" fill="#000000" fill-rule="evenodd" fill-opacity="1" /><path clip-path="url(#clip410)" d="M1978.91 1830.92 L1997.27 1830.92 L1997.27 1834.86 L1983.19 1834.86 L1983.19 1843.33 Q1984.21 1842.98 1985.23 1842.82 Q1986.25 1842.64 1987.27 1842.64 Q1993.05 1842.64 1996.43 1845.81 Q1999.81 1848.98 1999.81 1854.4 Q1999.81 1859.97 1996.34 1863.08 Q1992.87 1866.15 1986.55 1866.15 Q1984.37 1866.15 1982.1 1865.78 Q1979.86 1865.41 1977.45 1864.67 L1977.45 1859.97 Q1979.53 1861.11 1981.76 1861.66 Q1983.98 1862.22 1986.46 1862.22 Q1990.46 1862.22 1992.8 1860.11 Q1995.14 1858.01 1995.14 1854.4 Q1995.14 1850.78 1992.8 1848.68 Q1990.46 1846.57 1986.46 1846.57 Q1984.58 1846.57 1982.71 1846.99 Q1980.85 1847.4 1978.91 1848.28 L1978.91 1830.92 Z" fill="#000000" fill-rule="evenodd" fill-opacity="1" /><path clip-path="url(#clip410)" d="M2545.57 1861.55 L2553.21 1861.55 L2553.21 1835.18 L2544.9 1836.85 L2544.9 1832.59 L2553.17 1830.92 L2557.84 1830.92 L2557.84 1861.55 L2565.48 1861.55 L2565.48 1865.48 L2545.57 1865.48 L2545.57 1861.55 Z" fill="#000000" fill-rule="evenodd" fill-opacity="1" /><path clip-path="url(#clip410)" d="M2584.92 1834 Q2581.31 1834 2579.48 1837.57 Q2577.68 1841.11 2577.68 1848.24 Q2577.68 1855.34 2579.48 1858.91 Q2581.31 1862.45 2584.92 1862.45 Q2588.56 1862.45 2590.36 1858.91 Q2592.19 1855.34 2592.19 1848.24 Q2592.19 1841.11 2590.36 1837.57 Q2588.56 1834 2584.92 1834 M2584.92 1830.3 Q2590.73 1830.3 2593.79 1834.9 Q2596.87 1839.49 2596.87 1848.24 Q2596.87 1856.96 2593.79 1861.57 Q2590.73 1866.15 2584.92 1866.15 Q2579.11 1866.15 2576.04 1861.57 Q2572.98 1856.96 2572.98 1848.24 Q2572.98 1839.49 2576.04 1834.9 Q2579.11 1830.3 2584.92 1830.3 Z" fill="#000000" fill-rule="evenodd" fill-opacity="1" /><polyline clip-path="url(#clip412)" style="stroke:#000000; stroke-linecap:butt; stroke-linejoin:round; stroke-width:2; stroke-opacity:0.1; fill:none" points="
  172.001,1751.17 2640.76,1751.17 
  "/>
<polyline clip-path="url(#clip412)" style="stroke:#000000; stroke-linecap:butt; stroke-linejoin:round; stroke-width:2; stroke-opacity:0.1; fill:none" points="
  172.001,1301.63 2640.76,1301.63 
  "/>
<polyline clip-path="url(#clip412)" style="stroke:#000000; stroke-linecap:butt; stroke-linejoin:round; stroke-width:2; stroke-opacity:0.1; fill:none" points="
  172.001,852.095 2640.76,852.095 
  "/>
<polyline clip-path="url(#clip412)" style="stroke:#000000; stroke-linecap:butt; stroke-linejoin:round; stroke-width:2; stroke-opacity:0.1; fill:none" points="
  172.001,402.558 2640.76,402.558 
  "/>
<polyline clip-path="url(#clip410)" style="stroke:#000000; stroke-linecap:butt; stroke-linejoin:round; stroke-width:4; stroke-opacity:1; fill:none" points="
  172.001,1800.78 172.001,47.2441 
  "/>
<polyline clip-path="url(#clip410)" style="stroke:#000000; stroke-linecap:butt; stroke-linejoin:round; stroke-width:4; stroke-opacity:1; fill:none" points="
  172.001,1751.17 190.899,1751.17 
  "/>
<polyline clip-path="url(#clip410)" style="stroke:#000000; stroke-linecap:butt; stroke-linejoin:round; stroke-width:4; stroke-opacity:1; fill:none" points="
  172.001,1301.63 190.899,1301.63 
  "/>
<polyline clip-path="url(#clip410)" style="stroke:#000000; stroke-linecap:butt; stroke-linejoin:round; stroke-width:4; stroke-opacity:1; fill:none" points="
  172.001,852.095 190.899,852.095 
  "/>
<polyline clip-path="url(#clip410)" style="stroke:#000000; stroke-linecap:butt; stroke-linejoin:round; stroke-width:4; stroke-opacity:1; fill:none" points="
  172.001,402.558 190.899,402.558 
  "/>
<path clip-path="url(#clip410)" d="M119.737 1736.97 Q116.126 1736.97 114.297 1740.53 Q112.492 1744.07 112.492 1751.2 Q112.492 1758.31 114.297 1761.88 Q116.126 1765.42 119.737 1765.42 Q123.371 1765.42 125.177 1761.88 Q127.005 1758.31 127.005 1751.2 Q127.005 1744.07 125.177 1740.53 Q123.371 1736.97 119.737 1736.97 M119.737 1733.26 Q125.547 1733.26 128.603 1737.87 Q131.681 1742.45 131.681 1751.2 Q131.681 1759.93 128.603 1764.54 Q125.547 1769.12 119.737 1769.12 Q113.927 1769.12 110.848 1764.54 Q107.793 1759.93 107.793 1751.2 Q107.793 1742.45 110.848 1737.87 Q113.927 1733.26 119.737 1733.26 Z" fill="#000000" fill-rule="evenodd" fill-opacity="1" /><path clip-path="url(#clip410)" d="M79.6214 1284.35 L97.9778 1284.35 L97.9778 1288.29 L83.9038 1288.29 L83.9038 1296.76 Q84.9223 1296.41 85.9408 1296.25 Q86.9593 1296.07 87.9778 1296.07 Q93.7649 1296.07 97.1445 1299.24 Q100.524 1302.41 100.524 1307.82 Q100.524 1313.4 97.0519 1316.5 Q93.5797 1319.58 87.2603 1319.58 Q85.0843 1319.58 82.8158 1319.21 Q80.5705 1318.84 78.1631 1318.1 L78.1631 1313.4 Q80.2464 1314.54 82.4686 1315.09 Q84.6908 1315.65 87.1677 1315.65 Q91.1723 1315.65 93.5102 1313.54 Q95.8482 1311.44 95.8482 1307.82 Q95.8482 1304.21 93.5102 1302.11 Q91.1723 1300 87.1677 1300 Q85.2927 1300 83.4177 1300.42 Q81.5658 1300.83 79.6214 1301.71 L79.6214 1284.35 Z" fill="#000000" fill-rule="evenodd" fill-opacity="1" /><path clip-path="url(#clip410)" d="M119.737 1287.43 Q116.126 1287.43 114.297 1291 Q112.492 1294.54 112.492 1301.67 Q112.492 1308.77 114.297 1312.34 Q116.126 1315.88 119.737 1315.88 Q123.371 1315.88 125.177 1312.34 Q127.005 1308.77 127.005 1301.67 Q127.005 1294.54 125.177 1291 Q123.371 1287.43 119.737 1287.43 M119.737 1283.73 Q125.547 1283.73 128.603 1288.33 Q131.681 1292.92 131.681 1301.67 Q131.681 1310.39 128.603 1315 Q125.547 1319.58 119.737 1319.58 Q113.927 1319.58 110.848 1315 Q107.793 1310.39 107.793 1301.67 Q107.793 1292.92 110.848 1288.33 Q113.927 1283.73 119.737 1283.73 Z" fill="#000000" fill-rule="evenodd" fill-opacity="1" /><path clip-path="url(#clip410)" d="M50.2234 865.44 L57.8623 865.44 L57.8623 839.074 L49.5521 840.741 L49.5521 836.482 L57.816 834.815 L62.4919 834.815 L62.4919 865.44 L70.1307 865.44 L70.1307 869.375 L50.2234 869.375 L50.2234 865.44 Z" fill="#000000" fill-rule="evenodd" fill-opacity="1" /><path clip-path="url(#clip410)" d="M89.5751 837.894 Q85.964 837.894 84.1353 841.459 Q82.3297 845 82.3297 852.13 Q82.3297 859.236 84.1353 862.801 Q85.964 866.343 89.5751 866.343 Q93.2093 866.343 95.0148 862.801 Q96.8435 859.236 96.8435 852.13 Q96.8435 845 95.0148 841.459 Q93.2093 837.894 89.5751 837.894 M89.5751 834.19 Q95.3852 834.19 98.4408 838.796 Q101.519 843.38 101.519 852.13 Q101.519 860.857 98.4408 865.463 Q95.3852 870.046 89.5751 870.046 Q83.7649 870.046 80.6862 865.463 Q77.6307 860.857 77.6307 852.13 Q77.6307 843.38 80.6862 838.796 Q83.7649 834.19 89.5751 834.19 Z" fill="#000000" fill-rule="evenodd" fill-opacity="1" /><path clip-path="url(#clip410)" d="M119.737 837.894 Q116.126 837.894 114.297 841.459 Q112.492 845 112.492 852.13 Q112.492 859.236 114.297 862.801 Q116.126 866.343 119.737 866.343 Q123.371 866.343 125.177 862.801 Q127.005 859.236 127.005 852.13 Q127.005 845 125.177 841.459 Q123.371 837.894 119.737 837.894 M119.737 834.19 Q125.547 834.19 128.603 838.796 Q131.681 843.38 131.681 852.13 Q131.681 860.857 128.603 865.463 Q125.547 870.046 119.737 870.046 Q113.927 870.046 110.848 865.463 Q107.793 860.857 107.793 852.13 Q107.793 843.38 110.848 838.796 Q113.927 834.19 119.737 834.19 Z" fill="#000000" fill-rule="evenodd" fill-opacity="1" /><path clip-path="url(#clip410)" d="M50.2234 415.903 L57.8623 415.903 L57.8623 389.537 L49.5521 391.204 L49.5521 386.944 L57.816 385.278 L62.4919 385.278 L62.4919 415.903 L70.1307 415.903 L70.1307 419.838 L50.2234 419.838 L50.2234 415.903 Z" fill="#000000" fill-rule="evenodd" fill-opacity="1" /><path clip-path="url(#clip410)" d="M79.6214 385.278 L97.9778 385.278 L97.9778 389.213 L83.9038 389.213 L83.9038 397.685 Q84.9223 397.338 85.9408 397.176 Q86.9593 396.991 87.9778 396.991 Q93.7649 396.991 97.1445 400.162 Q100.524 403.333 100.524 408.75 Q100.524 414.329 97.0519 417.43 Q93.5797 420.509 87.2603 420.509 Q85.0843 420.509 82.8158 420.139 Q80.5705 419.768 78.1631 419.028 L78.1631 414.329 Q80.2464 415.463 82.4686 416.018 Q84.6908 416.574 87.1677 416.574 Q91.1723 416.574 93.5102 414.467 Q95.8482 412.361 95.8482 408.75 Q95.8482 405.139 93.5102 403.032 Q91.1723 400.926 87.1677 400.926 Q85.2927 400.926 83.4177 401.343 Q81.5658 401.759 79.6214 402.639 L79.6214 385.278 Z" fill="#000000" fill-rule="evenodd" fill-opacity="1" /><path clip-path="url(#clip410)" d="M119.737 388.356 Q116.126 388.356 114.297 391.921 Q112.492 395.463 112.492 402.593 Q112.492 409.699 114.297 413.264 Q116.126 416.805 119.737 416.805 Q123.371 416.805 125.177 413.264 Q127.005 409.699 127.005 402.593 Q127.005 395.463 125.177 391.921 Q123.371 388.356 119.737 388.356 M119.737 384.653 Q125.547 384.653 128.603 389.259 Q131.681 393.843 131.681 402.593 Q131.681 411.319 128.603 415.926 Q125.547 420.509 119.737 420.509 Q113.927 420.509 110.848 415.926 Q107.793 411.319 107.793 402.593 Q107.793 393.843 110.848 389.259 Q113.927 384.653 119.737 384.653 Z" fill="#000000" fill-rule="evenodd" fill-opacity="1" /><polyline clip-path="url(#clip412)" style="stroke:#009af9; stroke-linecap:butt; stroke-linejoin:round; stroke-width:4; stroke-opacity:1; fill:none" points="
  241.872,852.095 245.663,857.939 249.453,863.764 253.244,869.57 257.035,875.356 292.086,927.961 327.137,978.936 362.189,1028.28 397.24,1076 439.369,1131.2 
  481.498,1184.04 517.117,1226.88 552.736,1268.04 591.429,1310.84 630.121,1351.66 665.793,1387.54 701.464,1421.72 739.707,1456.5 777.95,1489.34 800.104,1507.47 
  822.259,1524.96 844.413,1541.79 866.567,1557.97 905.943,1585.13 945.319,1610.23 979.849,1630.55 1014.38,1649.29 1052.02,1667.92 1089.67,1684.67 1127.54,1699.62 
  1165.41,1712.67 1207.28,1724.89 1249.15,1734.78 1288.99,1742.03 1328.83,1747.18 1370.25,1750.3 1411.67,1751.15 1446.54,1750.1 1481.41,1747.44 1502.7,1745.02 
  1523.98,1742 1545.27,1738.38 1566.55,1734.16 1605.55,1724.87 1644.55,1713.56 1680.57,1701.33 1716.58,1687.37 1753.07,1671.48 1789.55,1653.83 1830.44,1631.94 
  1871.33,1607.84 1908.38,1584.09 1945.44,1558.51 1966.65,1543.05 1987.86,1527 2009.07,1510.34 2030.28,1493.1 2069.56,1459.58 2108.84,1424.01 2147.56,1386.95 
  2186.29,1347.9 2223.89,1308.08 2261.48,1266.38 2300.03,1221.69 2338.57,1175.04 2359.69,1148.64 2380.8,1121.66 2401.91,1094.08 2423.03,1065.91 2453.7,1023.94 
  2484.37,980.721 2515.04,936.254 2545.72,890.54 2552.01,881.008 2558.3,871.423 2564.59,861.785 2570.89,852.095 
  "/>
<polyline clip-path="url(#clip412)" style="stroke:#e26f46; stroke-linecap:butt; stroke-linejoin:round; stroke-width:4; stroke-opacity:1; fill:none" points="
  241.872,96.8724 245.663,104.472 249.453,112.053 253.244,119.615 257.035,127.158 292.086,196 327.137,263.212 362.189,328.795 397.24,392.75 439.369,467.462 
  481.498,539.82 517.117,599.162 552.736,656.822 591.429,717.55 630.121,776.294 665.793,828.691 701.464,879.401 739.707,931.894 777.95,982.447 822.259,1038.59 
  866.567,1092.14 905.943,1137.53 945.319,1180.87 979.849,1217.19 1014.38,1251.92 1052.02,1287.99 1089.67,1322.18 1127.54,1354.67 1165.41,1385.27 1207.28,1416.88 
  1249.15,1446.17 1288.99,1471.88 1328.83,1495.48 1370.25,1517.79 1411.67,1537.83 1446.54,1552.93 1481.41,1566.42 1523.98,1580.7 1566.55,1592.58 1605.55,1601.36 
  1644.55,1608.11 1680.57,1612.56 1716.58,1615.29 1753.07,1616.3 1789.55,1615.55 1830.44,1612.61 1871.33,1607.45 1908.38,1600.86 1945.44,1592.45 1987.86,1580.58 
  2030.28,1566.33 2069.56,1551.01 2108.84,1533.64 2147.56,1514.52 2186.29,1493.4 2223.89,1471 2261.48,1446.72 2300.03,1419.89 2338.57,1391.09 2380.8,1357.27 
  2423.03,1321.09 2484.37,1264.31 2545.72,1202.55 2552.01,1195.93 2558.3,1189.26 2564.59,1182.54 2570.89,1175.76 
  "/>
<path clip-path="url(#clip410)" d="
M2231.73 261.215 L2558.46 261.215 L2558.46 105.695 L2231.73 105.695  Z
  " fill="#ffffff" fill-rule="evenodd" fill-opacity="1"/>
<polyline clip-path="url(#clip410)" style="stroke:#000000; stroke-linecap:butt; stroke-linejoin:round; stroke-width:4; stroke-opacity:1; fill:none" points="
  2231.73,261.215 2558.46,261.215 2558.46,105.695 2231.73,105.695 2231.73,261.215 
  "/>
<polyline clip-path="url(#clip410)" style="stroke:#009af9; stroke-linecap:butt; stroke-linejoin:round; stroke-width:4; stroke-opacity:1; fill:none" points="
  2259.16,157.535 2423.74,157.535 
  "/>
<path clip-path="url(#clip410)" d="M2465.02 177.223 Q2463.21 181.852 2461.5 183.264 Q2459.78 184.676 2456.91 184.676 L2453.51 184.676 L2453.51 181.112 L2456.01 181.112 Q2457.77 181.112 2458.74 180.278 Q2459.71 179.445 2460.89 176.343 L2461.66 174.399 L2451.17 148.889 L2455.69 148.889 L2463.79 169.167 L2471.89 148.889 L2476.4 148.889 L2465.02 177.223 Z" fill="#000000" fill-rule="evenodd" fill-opacity="1" /><path clip-path="url(#clip410)" d="M2483.7 170.88 L2491.33 170.88 L2491.33 144.515 L2483.02 146.181 L2483.02 141.922 L2491.29 140.255 L2495.96 140.255 L2495.96 170.88 L2503.6 170.88 L2503.6 174.815 L2483.7 174.815 L2483.7 170.88 Z" fill="#000000" fill-rule="evenodd" fill-opacity="1" /><polyline clip-path="url(#clip410)" style="stroke:#e26f46; stroke-linecap:butt; stroke-linejoin:round; stroke-width:4; stroke-opacity:1; fill:none" points="
  2259.16,209.375 2423.74,209.375 
  "/>
<path clip-path="url(#clip410)" d="M2465.02 229.063 Q2463.21 233.692 2461.5 235.104 Q2459.78 236.516 2456.91 236.516 L2453.51 236.516 L2453.51 232.952 L2456.01 232.952 Q2457.77 232.952 2458.74 232.118 Q2459.71 231.285 2460.89 228.183 L2461.66 226.239 L2451.17 200.729 L2455.69 200.729 L2463.79 221.007 L2471.89 200.729 L2476.4 200.729 L2465.02 229.063 Z" fill="#000000" fill-rule="evenodd" fill-opacity="1" /><path clip-path="url(#clip410)" d="M2486.91 222.72 L2503.23 222.72 L2503.23 226.655 L2481.29 226.655 L2481.29 222.72 Q2483.95 219.965 2488.53 215.336 Q2493.14 210.683 2494.32 209.341 Q2496.57 206.817 2497.45 205.081 Q2498.35 203.322 2498.35 201.632 Q2498.35 198.878 2496.4 197.142 Q2494.48 195.405 2491.38 195.405 Q2489.18 195.405 2486.73 196.169 Q2484.3 196.933 2481.52 198.484 L2481.52 193.762 Q2484.34 192.628 2486.8 192.049 Q2489.25 191.47 2491.29 191.47 Q2496.66 191.47 2499.85 194.155 Q2503.05 196.841 2503.05 201.331 Q2503.05 203.461 2502.24 205.382 Q2501.45 207.28 2499.34 209.873 Q2498.76 210.544 2495.66 213.762 Q2492.56 216.956 2486.91 222.72 Z" fill="#000000" fill-rule="evenodd" fill-opacity="1" /></svg>
