<?xml version="1.0" encoding="utf-8"?>
<svg xmlns="http://www.w3.org/2000/svg" xmlns:xlink="http://www.w3.org/1999/xlink" width="672" height="480" viewBox="0 0 2688 1920">
<defs>
  <clipPath id="clip800">
    <rect x="0" y="0" width="2688" height="1920"/>
  </clipPath>
</defs>
<path clip-path="url(#clip800)" d="M0 1920 L2688 1920 L2688 0 L0 0  Z" fill="#ffffff" fill-rule="evenodd" fill-opacity="1"/>
<defs>
  <clipPath id="clip801">
    <rect x="537" y="0" width="1883" height="1883"/>
  </clipPath>
</defs>
<path clip-path="url(#clip800)" d="M189.154 1800.78 L2640.76 1800.78 L2640.76 47.2441 L189.154 47.2441  Z" fill="#ffffff" fill-rule="evenodd" fill-opacity="1"/>
<defs>
  <clipPath id="clip802">
    <rect x="189" y="47" width="2453" height="1755"/>
  </clipPath>
</defs>
<polyline clip-path="url(#clip802)" style="stroke:#000000; stroke-linecap:round; stroke-linejoin:round; stroke-width:2; stroke-opacity:0.1; fill:none" points="258.539,1800.78 258.539,47.2441 "/>
<polyline clip-path="url(#clip802)" style="stroke:#000000; stroke-linecap:round; stroke-linejoin:round; stroke-width:2; stroke-opacity:0.1; fill:none" points="994.736,1800.78 994.736,47.2441 "/>
<polyline clip-path="url(#clip802)" style="stroke:#000000; stroke-linecap:round; stroke-linejoin:round; stroke-width:2; stroke-opacity:0.1; fill:none" points="1730.93,1800.78 1730.93,47.2441 "/>
<polyline clip-path="url(#clip802)" style="stroke:#000000; stroke-linecap:round; stroke-linejoin:round; stroke-width:2; stroke-opacity:0.1; fill:none" points="2467.13,1800.78 2467.13,47.2441 "/>
<polyline clip-path="url(#clip800)" style="stroke:#000000; stroke-linecap:round; stroke-linejoin:round; stroke-width:4; stroke-opacity:1; fill:none" points="189.154,1800.78 2640.76,1800.78 "/>
<polyline clip-path="url(#clip800)" style="stroke:#000000; stroke-linecap:round; stroke-linejoin:round; stroke-width:4; stroke-opacity:1; fill:none" points="258.539,1800.78 258.539,1781.88 "/>
<polyline clip-path="url(#clip800)" style="stroke:#000000; stroke-linecap:round; stroke-linejoin:round; stroke-width:4; stroke-opacity:1; fill:none" points="994.736,1800.78 994.736,1781.88 "/>
<polyline clip-path="url(#clip800)" style="stroke:#000000; stroke-linecap:round; stroke-linejoin:round; stroke-width:4; stroke-opacity:1; fill:none" points="1730.93,1800.78 1730.93,1781.88 "/>
<polyline clip-path="url(#clip800)" style="stroke:#000000; stroke-linecap:round; stroke-linejoin:round; stroke-width:4; stroke-opacity:1; fill:none" points="2467.13,1800.78 2467.13,1781.88 "/>
<path clip-path="url(#clip800)" d="M235.923 1834 Q232.312 1834 230.484 1837.57 Q228.678 1841.11 228.678 1848.24 Q228.678 1855.34 230.484 1858.91 Q232.312 1862.45 235.923 1862.45 Q239.558 1862.45 241.363 1858.91 Q243.192 1855.34 243.192 1848.24 Q243.192 1841.11 241.363 1837.57 Q239.558 1834 235.923 1834 M235.923 1830.3 Q241.733 1830.3 244.789 1834.9 Q247.868 1839.49 247.868 1848.24 Q247.868 1856.96 244.789 1861.57 Q241.733 1866.15 235.923 1866.15 Q230.113 1866.15 227.035 1861.57 Q223.979 1856.96 223.979 1848.24 Q223.979 1839.49 227.035 1834.9 Q230.113 1830.3 235.923 1830.3 Z" fill="#000000" fill-rule="evenodd" fill-opacity="1" /><path clip-path="url(#clip800)" d="M256.085 1859.6 L260.97 1859.6 L260.97 1865.48 L256.085 1865.48 L256.085 1859.6 Z" fill="#000000" fill-rule="evenodd" fill-opacity="1" /><path clip-path="url(#clip800)" d="M281.155 1834 Q277.543 1834 275.715 1837.57 Q273.909 1841.11 273.909 1848.24 Q273.909 1855.34 275.715 1858.91 Q277.543 1862.45 281.155 1862.45 Q284.789 1862.45 286.594 1858.91 Q288.423 1855.34 288.423 1848.24 Q288.423 1841.11 286.594 1837.57 Q284.789 1834 281.155 1834 M281.155 1830.3 Q286.965 1830.3 290.02 1834.9 Q293.099 1839.49 293.099 1848.24 Q293.099 1856.96 290.02 1861.57 Q286.965 1866.15 281.155 1866.15 Q275.344 1866.15 272.266 1861.57 Q269.21 1856.96 269.21 1848.24 Q269.21 1839.49 272.266 1834.9 Q275.344 1830.3 281.155 1830.3 Z" fill="#000000" fill-rule="evenodd" fill-opacity="1" /><path clip-path="url(#clip800)" d="M972.618 1834 Q969.007 1834 967.179 1837.57 Q965.373 1841.11 965.373 1848.24 Q965.373 1855.34 967.179 1858.91 Q969.007 1862.45 972.618 1862.45 Q976.253 1862.45 978.058 1858.91 Q979.887 1855.34 979.887 1848.24 Q979.887 1841.11 978.058 1837.57 Q976.253 1834 972.618 1834 M972.618 1830.3 Q978.428 1830.3 981.484 1834.9 Q984.563 1839.49 984.563 1848.24 Q984.563 1856.96 981.484 1861.57 Q978.428 1866.15 972.618 1866.15 Q966.808 1866.15 963.729 1861.57 Q960.674 1856.96 960.674 1848.24 Q960.674 1839.49 963.729 1834.9 Q966.808 1830.3 972.618 1830.3 Z" fill="#000000" fill-rule="evenodd" fill-opacity="1" /><path clip-path="url(#clip800)" d="M992.78 1859.6 L997.664 1859.6 L997.664 1865.48 L992.78 1865.48 L992.78 1859.6 Z" fill="#000000" fill-rule="evenodd" fill-opacity="1" /><path clip-path="url(#clip800)" d="M1007.9 1830.92 L1026.25 1830.92 L1026.25 1834.86 L1012.18 1834.86 L1012.18 1843.33 Q1013.2 1842.98 1014.22 1842.82 Q1015.23 1842.64 1016.25 1842.64 Q1022.04 1842.64 1025.42 1845.81 Q1028.8 1848.98 1028.8 1854.4 Q1028.8 1859.97 1025.33 1863.08 Q1021.85 1866.15 1015.53 1866.15 Q1013.36 1866.15 1011.09 1865.78 Q1008.84 1865.41 1006.44 1864.67 L1006.44 1859.97 Q1008.52 1861.11 1010.74 1861.66 Q1012.97 1862.22 1015.44 1862.22 Q1019.45 1862.22 1021.78 1860.11 Q1024.12 1858.01 1024.12 1854.4 Q1024.12 1850.78 1021.78 1848.68 Q1019.45 1846.57 1015.44 1846.57 Q1013.57 1846.57 1011.69 1846.99 Q1009.84 1847.4 1007.9 1848.28 L1007.9 1830.92 Z" fill="#000000" fill-rule="evenodd" fill-opacity="1" /><path clip-path="url(#clip800)" d="M1698.09 1861.55 L1705.73 1861.55 L1705.73 1835.18 L1697.42 1836.85 L1697.42 1832.59 L1705.68 1830.92 L1710.35 1830.92 L1710.35 1861.55 L1717.99 1861.55 L1717.99 1865.48 L1698.09 1865.48 L1698.09 1861.55 Z" fill="#000000" fill-rule="evenodd" fill-opacity="1" /><path clip-path="url(#clip800)" d="M1727.44 1859.6 L1732.32 1859.6 L1732.32 1865.48 L1727.44 1865.48 L1727.44 1859.6 Z" fill="#000000" fill-rule="evenodd" fill-opacity="1" /><path clip-path="url(#clip800)" d="M1752.51 1834 Q1748.9 1834 1747.07 1837.57 Q1745.26 1841.11 1745.26 1848.24 Q1745.26 1855.34 1747.07 1858.91 Q1748.9 1862.45 1752.51 1862.45 Q1756.14 1862.45 1757.95 1858.91 Q1759.78 1855.34 1759.78 1848.24 Q1759.78 1841.11 1757.95 1837.57 Q1756.14 1834 1752.51 1834 M1752.51 1830.3 Q1758.32 1830.3 1761.37 1834.9 Q1764.45 1839.49 1764.45 1848.24 Q1764.45 1856.96 1761.37 1861.57 Q1758.32 1866.15 1752.51 1866.15 Q1746.7 1866.15 1743.62 1861.57 Q1740.56 1856.96 1740.56 1848.24 Q1740.56 1839.49 1743.62 1834.9 Q1746.7 1830.3 1752.51 1830.3 Z" fill="#000000" fill-rule="evenodd" fill-opacity="1" /><path clip-path="url(#clip800)" d="M2434.78 1861.55 L2442.42 1861.55 L2442.42 1835.18 L2434.11 1836.85 L2434.11 1832.59 L2442.37 1830.92 L2447.05 1830.92 L2447.05 1861.55 L2454.69 1861.55 L2454.69 1865.48 L2434.78 1865.48 L2434.78 1861.55 Z" fill="#000000" fill-rule="evenodd" fill-opacity="1" /><path clip-path="url(#clip800)" d="M2464.13 1859.6 L2469.02 1859.6 L2469.02 1865.48 L2464.13 1865.48 L2464.13 1859.6 Z" fill="#000000" fill-rule="evenodd" fill-opacity="1" /><path clip-path="url(#clip800)" d="M2479.25 1830.92 L2497.61 1830.92 L2497.61 1834.86 L2483.53 1834.86 L2483.53 1843.33 Q2484.55 1842.98 2485.57 1842.82 Q2486.59 1842.64 2487.61 1842.64 Q2493.39 1842.64 2496.77 1845.81 Q2500.15 1848.98 2500.15 1854.4 Q2500.15 1859.97 2496.68 1863.08 Q2493.21 1866.15 2486.89 1866.15 Q2484.71 1866.15 2482.44 1865.78 Q2480.2 1865.41 2477.79 1864.67 L2477.79 1859.97 Q2479.87 1861.11 2482.1 1861.66 Q2484.32 1862.22 2486.8 1862.22 Q2490.8 1862.22 2493.14 1860.11 Q2495.48 1858.01 2495.48 1854.4 Q2495.48 1850.78 2493.14 1848.68 Q2490.8 1846.57 2486.8 1846.57 Q2484.92 1846.57 2483.05 1846.99 Q2481.19 1847.4 2479.25 1848.28 L2479.25 1830.92 Z" fill="#000000" fill-rule="evenodd" fill-opacity="1" /><polyline clip-path="url(#clip802)" style="stroke:#000000; stroke-linecap:round; stroke-linejoin:round; stroke-width:2; stroke-opacity:0.1; fill:none" points="189.154,1751.15 2640.76,1751.15 "/>
<polyline clip-path="url(#clip802)" style="stroke:#000000; stroke-linecap:round; stroke-linejoin:round; stroke-width:2; stroke-opacity:0.1; fill:none" points="189.154,1337.58 2640.76,1337.58 "/>
<polyline clip-path="url(#clip802)" style="stroke:#000000; stroke-linecap:round; stroke-linejoin:round; stroke-width:2; stroke-opacity:0.1; fill:none" points="189.154,924.012 2640.76,924.012 "/>
<polyline clip-path="url(#clip802)" style="stroke:#000000; stroke-linecap:round; stroke-linejoin:round; stroke-width:2; stroke-opacity:0.1; fill:none" points="189.154,510.442 2640.76,510.442 "/>
<polyline clip-path="url(#clip802)" style="stroke:#000000; stroke-linecap:round; stroke-linejoin:round; stroke-width:2; stroke-opacity:0.1; fill:none" points="189.154,96.8724 2640.76,96.8724 "/>
<polyline clip-path="url(#clip800)" style="stroke:#000000; stroke-linecap:round; stroke-linejoin:round; stroke-width:4; stroke-opacity:1; fill:none" points="189.154,1800.78 189.154,47.2441 "/>
<polyline clip-path="url(#clip800)" style="stroke:#000000; stroke-linecap:round; stroke-linejoin:round; stroke-width:4; stroke-opacity:1; fill:none" points="189.154,1751.15 208.052,1751.15 "/>
<polyline clip-path="url(#clip800)" style="stroke:#000000; stroke-linecap:round; stroke-linejoin:round; stroke-width:4; stroke-opacity:1; fill:none" points="189.154,1337.58 208.052,1337.58 "/>
<polyline clip-path="url(#clip800)" style="stroke:#000000; stroke-linecap:round; stroke-linejoin:round; stroke-width:4; stroke-opacity:1; fill:none" points="189.154,924.012 208.052,924.012 "/>
<polyline clip-path="url(#clip800)" style="stroke:#000000; stroke-linecap:round; stroke-linejoin:round; stroke-width:4; stroke-opacity:1; fill:none" points="189.154,510.442 208.052,510.442 "/>
<polyline clip-path="url(#clip800)" style="stroke:#000000; stroke-linecap:round; stroke-linejoin:round; stroke-width:4; stroke-opacity:1; fill:none" points="189.154,96.8724 208.052,96.8724 "/>
<path clip-path="url(#clip800)" d="M61.4965 1736.95 Q57.8854 1736.95 56.0567 1740.51 Q54.2512 1744.06 54.2512 1751.19 Q54.2512 1758.29 56.0567 1761.86 Q57.8854 1765.4 61.4965 1765.4 Q65.1307 1765.4 66.9363 1761.86 Q68.765 1758.29 68.765 1751.19 Q68.765 1744.06 66.9363 1740.51 Q65.1307 1736.95 61.4965 1736.95 M61.4965 1733.25 Q67.3067 1733.25 70.3622 1737.85 Q73.4409 1742.44 73.4409 1751.19 Q73.4409 1759.91 70.3622 1764.52 Q67.3067 1769.1 61.4965 1769.1 Q55.6864 1769.1 52.6077 1764.52 Q49.5521 1759.91 49.5521 1751.19 Q49.5521 1742.44 52.6077 1737.85 Q55.6864 1733.25 61.4965 1733.25 Z" fill="#000000" fill-rule="evenodd" fill-opacity="1" /><path clip-path="url(#clip800)" d="M81.6584 1762.55 L86.5427 1762.55 L86.5427 1768.43 L81.6584 1768.43 L81.6584 1762.55 Z" fill="#000000" fill-rule="evenodd" fill-opacity="1" /><path clip-path="url(#clip800)" d="M106.728 1736.95 Q103.117 1736.95 101.288 1740.51 Q99.4824 1744.06 99.4824 1751.19 Q99.4824 1758.29 101.288 1761.86 Q103.117 1765.4 106.728 1765.4 Q110.362 1765.4 112.168 1761.86 Q113.996 1758.29 113.996 1751.19 Q113.996 1744.06 112.168 1740.51 Q110.362 1736.95 106.728 1736.95 M106.728 1733.25 Q112.538 1733.25 115.593 1737.85 Q118.672 1742.44 118.672 1751.19 Q118.672 1759.91 115.593 1764.52 Q112.538 1769.1 106.728 1769.1 Q100.918 1769.1 97.8389 1764.52 Q94.7834 1759.91 94.7834 1751.19 Q94.7834 1742.44 97.8389 1737.85 Q100.918 1733.25 106.728 1733.25 Z" fill="#000000" fill-rule="evenodd" fill-opacity="1" /><path clip-path="url(#clip800)" d="M136.89 1736.95 Q133.279 1736.95 131.45 1740.51 Q129.644 1744.06 129.644 1751.19 Q129.644 1758.29 131.45 1761.86 Q133.279 1765.4 136.89 1765.4 Q140.524 1765.4 142.329 1761.86 Q144.158 1758.29 144.158 1751.19 Q144.158 1744.06 142.329 1740.51 Q140.524 1736.95 136.89 1736.95 M136.89 1733.25 Q142.7 1733.25 145.755 1737.85 Q148.834 1742.44 148.834 1751.19 Q148.834 1759.91 145.755 1764.52 Q142.7 1769.1 136.89 1769.1 Q131.079 1769.1 128.001 1764.52 Q124.945 1759.91 124.945 1751.19 Q124.945 1742.44 128.001 1737.85 Q131.079 1733.25 136.89 1733.25 Z" fill="#000000" fill-rule="evenodd" fill-opacity="1" /><path clip-path="url(#clip800)" d="M62.4919 1323.38 Q58.8808 1323.38 57.0521 1326.94 Q55.2465 1330.49 55.2465 1337.62 Q55.2465 1344.72 57.0521 1348.29 Q58.8808 1351.83 62.4919 1351.83 Q66.1261 1351.83 67.9317 1348.29 Q69.7604 1344.72 69.7604 1337.62 Q69.7604 1330.49 67.9317 1326.94 Q66.1261 1323.38 62.4919 1323.38 M62.4919 1319.68 Q68.302 1319.68 71.3576 1324.28 Q74.4363 1328.87 74.4363 1337.62 Q74.4363 1346.34 71.3576 1350.95 Q68.302 1355.53 62.4919 1355.53 Q56.6817 1355.53 53.603 1350.95 Q50.5475 1346.34 50.5475 1337.62 Q50.5475 1328.87 53.603 1324.28 Q56.6817 1319.68 62.4919 1319.68 Z" fill="#000000" fill-rule="evenodd" fill-opacity="1" /><path clip-path="url(#clip800)" d="M82.6538 1348.98 L87.538 1348.98 L87.538 1354.86 L82.6538 1354.86 L82.6538 1348.98 Z" fill="#000000" fill-rule="evenodd" fill-opacity="1" /><path clip-path="url(#clip800)" d="M101.751 1350.93 L118.07 1350.93 L118.07 1354.86 L96.126 1354.86 L96.126 1350.93 Q98.788 1348.17 103.371 1343.54 Q107.978 1338.89 109.158 1337.55 Q111.404 1335.02 112.283 1333.29 Q113.186 1331.53 113.186 1329.84 Q113.186 1327.08 111.242 1325.35 Q109.32 1323.61 106.218 1323.61 Q104.019 1323.61 101.566 1324.38 Q99.1352 1325.14 96.3574 1326.69 L96.3574 1321.97 Q99.1815 1320.83 101.635 1320.26 Q104.089 1319.68 106.126 1319.68 Q111.496 1319.68 114.691 1322.36 Q117.885 1325.05 117.885 1329.54 Q117.885 1331.67 117.075 1333.59 Q116.288 1335.49 114.181 1338.08 Q113.603 1338.75 110.501 1341.97 Q107.399 1345.16 101.751 1350.93 Z" fill="#000000" fill-rule="evenodd" fill-opacity="1" /><path clip-path="url(#clip800)" d="M127.931 1320.3 L146.288 1320.3 L146.288 1324.24 L132.214 1324.24 L132.214 1332.71 Q133.232 1332.36 134.251 1332.2 Q135.269 1332.01 136.288 1332.01 Q142.075 1332.01 145.454 1335.19 Q148.834 1338.36 148.834 1343.77 Q148.834 1349.35 145.362 1352.45 Q141.89 1355.53 135.57 1355.53 Q133.394 1355.53 131.126 1355.16 Q128.88 1354.79 126.473 1354.05 L126.473 1349.35 Q128.556 1350.49 130.779 1351.04 Q133.001 1351.6 135.478 1351.6 Q139.482 1351.6 141.82 1349.49 Q144.158 1347.38 144.158 1343.77 Q144.158 1340.16 141.82 1338.06 Q139.482 1335.95 135.478 1335.95 Q133.603 1335.95 131.728 1336.37 Q129.876 1336.78 127.931 1337.66 L127.931 1320.3 Z" fill="#000000" fill-rule="evenodd" fill-opacity="1" /><path clip-path="url(#clip800)" d="M61.4965 909.81 Q57.8854 909.81 56.0567 913.375 Q54.2512 916.917 54.2512 924.046 Q54.2512 931.153 56.0567 934.718 Q57.8854 938.259 61.4965 938.259 Q65.1307 938.259 66.9363 934.718 Q68.765 931.153 68.765 924.046 Q68.765 916.917 66.9363 913.375 Q65.1307 909.81 61.4965 909.81 M61.4965 906.107 Q67.3067 906.107 70.3622 910.713 Q73.4409 915.296 73.4409 924.046 Q73.4409 932.773 70.3622 937.38 Q67.3067 941.963 61.4965 941.963 Q55.6864 941.963 52.6077 937.38 Q49.5521 932.773 49.5521 924.046 Q49.5521 915.296 52.6077 910.713 Q55.6864 906.107 61.4965 906.107 Z" fill="#000000" fill-rule="evenodd" fill-opacity="1" /><path clip-path="url(#clip800)" d="M81.6584 935.412 L86.5427 935.412 L86.5427 941.292 L81.6584 941.292 L81.6584 935.412 Z" fill="#000000" fill-rule="evenodd" fill-opacity="1" /><path clip-path="url(#clip800)" d="M96.7741 906.732 L115.13 906.732 L115.13 910.667 L101.056 910.667 L101.056 919.139 Q102.075 918.792 103.094 918.63 Q104.112 918.445 105.131 918.445 Q110.918 918.445 114.297 921.616 Q117.677 924.787 117.677 930.204 Q117.677 935.782 114.205 938.884 Q110.732 941.963 104.413 941.963 Q102.237 941.963 99.9685 941.593 Q97.7232 941.222 95.3158 940.482 L95.3158 935.782 Q97.3991 936.917 99.6213 937.472 Q101.844 938.028 104.32 938.028 Q108.325 938.028 110.663 935.921 Q113.001 933.815 113.001 930.204 Q113.001 926.593 110.663 924.486 Q108.325 922.38 104.32 922.38 Q102.445 922.38 100.57 922.796 Q98.7185 923.213 96.7741 924.093 L96.7741 906.732 Z" fill="#000000" fill-rule="evenodd" fill-opacity="1" /><path clip-path="url(#clip800)" d="M136.89 909.81 Q133.279 909.81 131.45 913.375 Q129.644 916.917 129.644 924.046 Q129.644 931.153 131.45 934.718 Q133.279 938.259 136.89 938.259 Q140.524 938.259 142.329 934.718 Q144.158 931.153 144.158 924.046 Q144.158 916.917 142.329 913.375 Q140.524 909.81 136.89 909.81 M136.89 906.107 Q142.7 906.107 145.755 910.713 Q148.834 915.296 148.834 924.046 Q148.834 932.773 145.755 937.38 Q142.7 941.963 136.89 941.963 Q131.079 941.963 128.001 937.38 Q124.945 932.773 124.945 924.046 Q124.945 915.296 128.001 910.713 Q131.079 906.107 136.89 906.107 Z" fill="#000000" fill-rule="evenodd" fill-opacity="1" /><path clip-path="url(#clip800)" d="M62.4919 496.241 Q58.8808 496.241 57.0521 499.806 Q55.2465 503.347 55.2465 510.477 Q55.2465 517.583 57.0521 521.148 Q58.8808 524.69 62.4919 524.69 Q66.1261 524.69 67.9317 521.148 Q69.7604 517.583 69.7604 510.477 Q69.7604 503.347 67.9317 499.806 Q66.1261 496.241 62.4919 496.241 M62.4919 492.537 Q68.302 492.537 71.3576 497.144 Q74.4363 501.727 74.4363 510.477 Q74.4363 519.204 71.3576 523.81 Q68.302 528.393 62.4919 528.393 Q56.6817 528.393 53.603 523.81 Q50.5475 519.204 50.5475 510.477 Q50.5475 501.727 53.603 497.144 Q56.6817 492.537 62.4919 492.537 Z" fill="#000000" fill-rule="evenodd" fill-opacity="1" /><path clip-path="url(#clip800)" d="M82.6538 521.842 L87.538 521.842 L87.538 527.722 L82.6538 527.722 L82.6538 521.842 Z" fill="#000000" fill-rule="evenodd" fill-opacity="1" /><path clip-path="url(#clip800)" d="M96.5426 493.162 L118.765 493.162 L118.765 495.153 L106.218 527.722 L101.334 527.722 L113.14 497.097 L96.5426 497.097 L96.5426 493.162 Z" fill="#000000" fill-rule="evenodd" fill-opacity="1" /><path clip-path="url(#clip800)" d="M127.931 493.162 L146.288 493.162 L146.288 497.097 L132.214 497.097 L132.214 505.569 Q133.232 505.222 134.251 505.06 Q135.269 504.875 136.288 504.875 Q142.075 504.875 145.454 508.046 Q148.834 511.218 148.834 516.634 Q148.834 522.213 145.362 525.315 Q141.89 528.393 135.57 528.393 Q133.394 528.393 131.126 528.023 Q128.88 527.653 126.473 526.912 L126.473 522.213 Q128.556 523.347 130.779 523.903 Q133.001 524.458 135.478 524.458 Q139.482 524.458 141.82 522.352 Q144.158 520.245 144.158 516.634 Q144.158 513.023 141.82 510.917 Q139.482 508.81 135.478 508.81 Q133.603 508.81 131.728 509.227 Q129.876 509.643 127.931 510.523 L127.931 493.162 Z" fill="#000000" fill-rule="evenodd" fill-opacity="1" /><path clip-path="url(#clip800)" d="M52.3067 110.217 L59.9456 110.217 L59.9456 83.8517 L51.6354 85.5183 L51.6354 81.2591 L59.8993 79.5924 L64.5752 79.5924 L64.5752 110.217 L72.214 110.217 L72.214 114.152 L52.3067 114.152 L52.3067 110.217 Z" fill="#000000" fill-rule="evenodd" fill-opacity="1" /><path clip-path="url(#clip800)" d="M81.6584 108.273 L86.5427 108.273 L86.5427 114.152 L81.6584 114.152 L81.6584 108.273 Z" fill="#000000" fill-rule="evenodd" fill-opacity="1" /><path clip-path="url(#clip800)" d="M106.728 82.6711 Q103.117 82.6711 101.288 86.2359 Q99.4824 89.7776 99.4824 96.9072 Q99.4824 104.014 101.288 107.578 Q103.117 111.12 106.728 111.12 Q110.362 111.12 112.168 107.578 Q113.996 104.014 113.996 96.9072 Q113.996 89.7776 112.168 86.2359 Q110.362 82.6711 106.728 82.6711 M106.728 78.9675 Q112.538 78.9675 115.593 83.5739 Q118.672 88.1572 118.672 96.9072 Q118.672 105.634 115.593 110.24 Q112.538 114.824 106.728 114.824 Q100.918 114.824 97.8389 110.24 Q94.7834 105.634 94.7834 96.9072 Q94.7834 88.1572 97.8389 83.5739 Q100.918 78.9675 106.728 78.9675 Z" fill="#000000" fill-rule="evenodd" fill-opacity="1" /><path clip-path="url(#clip800)" d="M136.89 82.6711 Q133.279 82.6711 131.45 86.2359 Q129.644 89.7776 129.644 96.9072 Q129.644 104.014 131.45 107.578 Q133.279 111.12 136.89 111.12 Q140.524 111.12 142.329 107.578 Q144.158 104.014 144.158 96.9072 Q144.158 89.7776 142.329 86.2359 Q140.524 82.6711 136.89 82.6711 M136.89 78.9675 Q142.7 78.9675 145.755 83.5739 Q148.834 88.1572 148.834 96.9072 Q148.834 105.634 145.755 110.24 Q142.7 114.824 136.89 114.824 Q131.079 114.824 128.001 110.24 Q124.945 105.634 124.945 96.9072 Q124.945 88.1572 128.001 83.5739 Q131.079 78.9675 136.89 78.9675 Z" fill="#000000" fill-rule="evenodd" fill-opacity="1" /><polyline clip-path="url(#clip802)" style="stroke:#009af9; stroke-linecap:round; stroke-linejoin:round; stroke-width:4; stroke-opacity:1; fill:none" points="258.539,1751.15 273.597,1734.23 412.828,1578.12 496.5,1484.96 567.244,1406.85 644.091,1322.91 714.938,1246.55 790.893,1165.98 878.894,1074.6 957.099,995.412 1025.68,927.717 1100.45,855.95 1175.66,786.086 1258.82,711.78 1337.94,644.154 1420.21,577.23 1489.47,523.726 1574.02,462.096 1651.47,409.364 1723.01,363.956 1795.47,321.298 1876.68,277.608 1950.27,241.886 1992.39,223.127 2034.52,205.62 2073.53,190.536 2112.53,176.549 2150.99,163.84 2189.45,152.214 2226.78,141.969 2264.12,132.76 2302.4,124.399 2340.67,117.137 2382.61,110.449 2424.54,105.091 2485.46,99.6877 2546.38,97.1108 2558.87,96.932 2571.37,96.8724 "/>
<polyline clip-path="url(#clip802)" style="stroke:#e26f46; stroke-linecap:round; stroke-linejoin:round; stroke-width:4; stroke-opacity:1; fill:none" points="258.539,1751.15 273.597,1740.38 412.828,1640.79 496.5,1580.95 567.244,1530.35 644.091,1475.38 714.938,1424.71 790.893,1370.38 878.894,1307.44 957.099,1251.5 1025.68,1202.45 1100.45,1148.97 1175.66,1095.17 1258.82,1035.69 1337.94,979.095 1420.21,920.251 1489.47,870.717 1574.02,810.241 1651.47,754.841 1723.01,703.675 1795.47,651.846 1876.68,593.759 1950.27,541.124 2034.52,480.859 2112.53,425.06 2189.45,370.049 2264.12,316.637 2340.67,261.883 2424.54,201.894 2546.38,114.75 2571.37,96.8724 "/>
<path clip-path="url(#clip800)" d="M270.874 261.215 L568.465 261.215 L568.465 105.695 L270.874 105.695  Z" fill="#ffffff" fill-rule="evenodd" fill-opacity="1"/>
<polyline clip-path="url(#clip800)" style="stroke:#000000; stroke-linecap:round; stroke-linejoin:round; stroke-width:4; stroke-opacity:1; fill:none" points="270.874,261.215 568.465,261.215 568.465,105.695 270.874,105.695 270.874,261.215 "/>
<polyline clip-path="url(#clip800)" style="stroke:#009af9; stroke-linecap:round; stroke-linejoin:round; stroke-width:4; stroke-opacity:1; fill:none" points="298.114,157.535 461.554,157.535 "/>
<path clip-path="url(#clip800)" d="M502.637 177.223 Q500.831 181.852 499.118 183.264 Q497.405 184.676 494.535 184.676 L491.132 184.676 L491.132 181.112 L493.632 181.112 Q495.391 181.112 496.364 180.278 Q497.336 179.445 498.516 176.343 L499.28 174.399 L488.794 148.889 L493.308 148.889 L501.41 169.167 L509.512 148.889 L514.026 148.889 L502.637 177.223 Z" fill="#000000" fill-rule="evenodd" fill-opacity="1" /><path clip-path="url(#clip800)" d="M521.317 170.88 L528.956 170.88 L528.956 144.515 L520.646 146.181 L520.646 141.922 L528.91 140.255 L533.586 140.255 L533.586 170.88 L541.225 170.88 L541.225 174.815 L521.317 174.815 L521.317 170.88 Z" fill="#000000" fill-rule="evenodd" fill-opacity="1" /><polyline clip-path="url(#clip800)" style="stroke:#e26f46; stroke-linecap:round; stroke-linejoin:round; stroke-width:4; stroke-opacity:1; fill:none" points="298.114,209.375 461.554,209.375 "/>
<path clip-path="url(#clip800)" d="M502.637 229.063 Q500.831 233.692 499.118 235.104 Q497.405 236.516 494.535 236.516 L491.132 236.516 L491.132 232.952 L493.632 232.952 Q495.391 232.952 496.364 232.118 Q497.336 231.285 498.516 228.183 L499.28 226.239 L488.794 200.729 L493.308 200.729 L501.41 221.007 L509.512 200.729 L514.026 200.729 L502.637 229.063 Z" fill="#000000" fill-rule="evenodd" fill-opacity="1" /><path clip-path="url(#clip800)" d="M524.535 222.72 L540.854 222.72 L540.854 226.655 L518.91 226.655 L518.91 222.72 Q521.572 219.965 526.155 215.336 Q530.762 210.683 531.942 209.341 Q534.188 206.817 535.067 205.081 Q535.97 203.322 535.97 201.632 Q535.97 198.878 534.025 197.142 Q532.104 195.405 529.002 195.405 Q526.803 195.405 524.35 196.169 Q521.919 196.933 519.141 198.484 L519.141 193.762 Q521.965 192.628 524.419 192.049 Q526.873 191.47 528.91 191.47 Q534.28 191.47 537.475 194.155 Q540.669 196.841 540.669 201.331 Q540.669 203.461 539.859 205.382 Q539.072 207.28 536.965 209.873 Q536.387 210.544 533.285 213.762 Q530.183 216.956 524.535 222.72 Z" fill="#000000" fill-rule="evenodd" fill-opacity="1" /></svg>
