<?xml version="1.0" encoding="utf-8"?>
<svg xmlns="http://www.w3.org/2000/svg" xmlns:xlink="http://www.w3.org/1999/xlink" width="672" height="480" viewBox="0 0 2688 1920">
<defs>
  <clipPath id="clip650">
    <rect x="0" y="0" width="2688" height="1920"/>
  </clipPath>
</defs>
<path clip-path="url(#clip650)" d="
M0 1920 L2688 1920 L2688 0 L0 0  Z
  " fill="#ffffff" fill-rule="evenodd" fill-opacity="1"/>
<defs>
  <clipPath id="clip651">
    <rect x="537" y="0" width="1883" height="1883"/>
  </clipPath>
</defs>
<path clip-path="url(#clip650)" d="
M140.844 1800.78 L2640.76 1800.78 L2640.76 47.2441 L140.844 47.2441  Z
  " fill="#ffffff" fill-rule="evenodd" fill-opacity="1"/>
<defs>
  <clipPath id="clip652">
    <rect x="140" y="47" width="2501" height="1755"/>
  </clipPath>
</defs>
<polyline clip-path="url(#clip652)" style="stroke:#000000; stroke-linecap:butt; stroke-linejoin:round; stroke-width:2; stroke-opacity:0.1; fill:none" points="
  211.596,1800.78 211.596,47.2441 
  "/>
<polyline clip-path="url(#clip652)" style="stroke:#000000; stroke-linecap:butt; stroke-linejoin:round; stroke-width:2; stroke-opacity:0.1; fill:none" points="
  604.664,1800.78 604.664,47.2441 
  "/>
<polyline clip-path="url(#clip652)" style="stroke:#000000; stroke-linecap:butt; stroke-linejoin:round; stroke-width:2; stroke-opacity:0.1; fill:none" points="
  997.732,1800.78 997.732,47.2441 
  "/>
<polyline clip-path="url(#clip652)" style="stroke:#000000; stroke-linecap:butt; stroke-linejoin:round; stroke-width:2; stroke-opacity:0.1; fill:none" points="
  1390.8,1800.78 1390.8,47.2441 
  "/>
<polyline clip-path="url(#clip652)" style="stroke:#000000; stroke-linecap:butt; stroke-linejoin:round; stroke-width:2; stroke-opacity:0.1; fill:none" points="
  1783.87,1800.78 1783.87,47.2441 
  "/>
<polyline clip-path="url(#clip652)" style="stroke:#000000; stroke-linecap:butt; stroke-linejoin:round; stroke-width:2; stroke-opacity:0.1; fill:none" points="
  2176.94,1800.78 2176.94,47.2441 
  "/>
<polyline clip-path="url(#clip652)" style="stroke:#000000; stroke-linecap:butt; stroke-linejoin:round; stroke-width:2; stroke-opacity:0.1; fill:none" points="
  2570,1800.78 2570,47.2441 
  "/>
<polyline clip-path="url(#clip650)" style="stroke:#000000; stroke-linecap:butt; stroke-linejoin:round; stroke-width:4; stroke-opacity:1; fill:none" points="
  140.844,1800.78 2640.76,1800.78 
  "/>
<polyline clip-path="url(#clip650)" style="stroke:#000000; stroke-linecap:butt; stroke-linejoin:round; stroke-width:4; stroke-opacity:1; fill:none" points="
  211.596,1800.78 211.596,1781.88 
  "/>
<polyline clip-path="url(#clip650)" style="stroke:#000000; stroke-linecap:butt; stroke-linejoin:round; stroke-width:4; stroke-opacity:1; fill:none" points="
  604.664,1800.78 604.664,1781.88 
  "/>
<polyline clip-path="url(#clip650)" style="stroke:#000000; stroke-linecap:butt; stroke-linejoin:round; stroke-width:4; stroke-opacity:1; fill:none" points="
  997.732,1800.78 997.732,1781.88 
  "/>
<polyline clip-path="url(#clip650)" style="stroke:#000000; stroke-linecap:butt; stroke-linejoin:round; stroke-width:4; stroke-opacity:1; fill:none" points="
  1390.8,1800.78 1390.8,1781.88 
  "/>
<polyline clip-path="url(#clip650)" style="stroke:#000000; stroke-linecap:butt; stroke-linejoin:round; stroke-width:4; stroke-opacity:1; fill:none" points="
  1783.87,1800.78 1783.87,1781.88 
  "/>
<polyline clip-path="url(#clip650)" style="stroke:#000000; stroke-linecap:butt; stroke-linejoin:round; stroke-width:4; stroke-opacity:1; fill:none" points="
  2176.94,1800.78 2176.94,1781.88 
  "/>
<polyline clip-path="url(#clip650)" style="stroke:#000000; stroke-linecap:butt; stroke-linejoin:round; stroke-width:4; stroke-opacity:1; fill:none" points="
  2570,1800.78 2570,1781.88 
  "/>
<path clip-path="url(#clip650)" d="M181.064 1848.65 L210.74 1848.65 L210.74 1852.59 L181.064 1852.59 L181.064 1848.65 Z" fill="#000000" fill-rule="evenodd" fill-opacity="1" /><path clip-path="url(#clip650)" d="M234.999 1846.85 Q238.355 1847.57 240.23 1849.84 Q242.129 1852.1 242.129 1855.44 Q242.129 1860.55 238.61 1863.35 Q235.092 1866.15 228.61 1866.15 Q226.434 1866.15 224.119 1865.71 Q221.828 1865.3 219.374 1864.44 L219.374 1859.93 Q221.318 1861.06 223.633 1861.64 Q225.948 1862.22 228.471 1862.22 Q232.869 1862.22 235.161 1860.48 Q237.476 1858.75 237.476 1855.44 Q237.476 1852.38 235.323 1850.67 Q233.193 1848.93 229.374 1848.93 L225.346 1848.93 L225.346 1845.09 L229.559 1845.09 Q233.008 1845.09 234.837 1843.72 Q236.666 1842.34 236.666 1839.74 Q236.666 1837.08 234.767 1835.67 Q232.892 1834.23 229.374 1834.23 Q227.453 1834.23 225.254 1834.65 Q223.055 1835.07 220.416 1835.95 L220.416 1831.78 Q223.078 1831.04 225.393 1830.67 Q227.73 1830.3 229.791 1830.3 Q235.115 1830.3 238.217 1832.73 Q241.318 1835.14 241.318 1839.26 Q241.318 1842.13 239.675 1844.12 Q238.031 1846.09 234.999 1846.85 Z" fill="#000000" fill-rule="evenodd" fill-opacity="1" /><path clip-path="url(#clip650)" d="M574.606 1848.65 L604.282 1848.65 L604.282 1852.59 L574.606 1852.59 L574.606 1848.65 Z" fill="#000000" fill-rule="evenodd" fill-opacity="1" /><path clip-path="url(#clip650)" d="M618.403 1861.55 L634.722 1861.55 L634.722 1865.48 L612.778 1865.48 L612.778 1861.55 Q615.44 1858.79 620.023 1854.16 Q624.629 1849.51 625.81 1848.17 Q628.055 1845.65 628.935 1843.91 Q629.838 1842.15 629.838 1840.46 Q629.838 1837.71 627.893 1835.97 Q625.972 1834.23 622.87 1834.23 Q620.671 1834.23 618.217 1835 Q615.787 1835.76 613.009 1837.31 L613.009 1832.59 Q615.833 1831.46 618.287 1830.88 Q620.74 1830.3 622.778 1830.3 Q628.148 1830.3 631.342 1832.98 Q634.537 1835.67 634.537 1840.16 Q634.537 1842.29 633.727 1844.21 Q632.94 1846.11 630.833 1848.7 Q630.254 1849.37 627.152 1852.59 Q624.051 1855.78 618.403 1861.55 Z" fill="#000000" fill-rule="evenodd" fill-opacity="1" /><path clip-path="url(#clip650)" d="M967.489 1848.65 L997.165 1848.65 L997.165 1852.59 L967.489 1852.59 L967.489 1848.65 Z" fill="#000000" fill-rule="evenodd" fill-opacity="1" /><path clip-path="url(#clip650)" d="M1008.07 1861.55 L1015.71 1861.55 L1015.71 1835.18 L1007.4 1836.85 L1007.4 1832.59 L1015.66 1830.92 L1020.34 1830.92 L1020.34 1861.55 L1027.97 1861.55 L1027.97 1865.48 L1008.07 1865.48 L1008.07 1861.55 Z" fill="#000000" fill-rule="evenodd" fill-opacity="1" /><path clip-path="url(#clip650)" d="M1390.8 1834 Q1387.19 1834 1385.36 1837.57 Q1383.55 1841.11 1383.55 1848.24 Q1383.55 1855.34 1385.36 1858.91 Q1387.19 1862.45 1390.8 1862.45 Q1394.43 1862.45 1396.24 1858.91 Q1398.07 1855.34 1398.07 1848.24 Q1398.07 1841.11 1396.24 1837.57 Q1394.43 1834 1390.8 1834 M1390.8 1830.3 Q1396.61 1830.3 1399.67 1834.9 Q1402.74 1839.49 1402.74 1848.24 Q1402.74 1856.96 1399.67 1861.57 Q1396.61 1866.15 1390.8 1866.15 Q1384.99 1866.15 1381.91 1861.57 Q1378.86 1856.96 1378.86 1848.24 Q1378.86 1839.49 1381.91 1834.9 Q1384.99 1830.3 1390.8 1830.3 Z" fill="#000000" fill-rule="evenodd" fill-opacity="1" /><path clip-path="url(#clip650)" d="M1774.25 1861.55 L1781.89 1861.55 L1781.89 1835.18 L1773.58 1836.85 L1773.58 1832.59 L1781.84 1830.92 L1786.52 1830.92 L1786.52 1861.55 L1794.16 1861.55 L1794.16 1865.48 L1774.25 1865.48 L1774.25 1861.55 Z" fill="#000000" fill-rule="evenodd" fill-opacity="1" /><path clip-path="url(#clip650)" d="M2171.59 1861.55 L2187.91 1861.55 L2187.91 1865.48 L2165.96 1865.48 L2165.96 1861.55 Q2168.63 1858.79 2173.21 1854.16 Q2177.82 1849.51 2179 1848.17 Q2181.24 1845.65 2182.12 1843.91 Q2183.02 1842.15 2183.02 1840.46 Q2183.02 1837.71 2181.08 1835.97 Q2179.16 1834.23 2176.06 1834.23 Q2173.86 1834.23 2171.4 1835 Q2168.97 1835.76 2166.2 1837.31 L2166.2 1832.59 Q2169.02 1831.46 2171.47 1830.88 Q2173.93 1830.3 2175.96 1830.3 Q2181.33 1830.3 2184.53 1832.98 Q2187.72 1835.67 2187.72 1840.16 Q2187.72 1842.29 2186.91 1844.21 Q2186.13 1846.11 2184.02 1848.7 Q2183.44 1849.37 2180.34 1852.59 Q2177.24 1855.78 2171.59 1861.55 Z" fill="#000000" fill-rule="evenodd" fill-opacity="1" /><path clip-path="url(#clip650)" d="M2574.25 1846.85 Q2577.61 1847.57 2579.48 1849.84 Q2581.38 1852.1 2581.38 1855.44 Q2581.38 1860.55 2577.86 1863.35 Q2574.34 1866.15 2567.86 1866.15 Q2565.69 1866.15 2563.37 1865.71 Q2561.08 1865.3 2558.63 1864.44 L2558.63 1859.93 Q2560.57 1861.06 2562.89 1861.64 Q2565.2 1862.22 2567.72 1862.22 Q2572.12 1862.22 2574.41 1860.48 Q2576.73 1858.75 2576.73 1855.44 Q2576.73 1852.38 2574.58 1850.67 Q2572.45 1848.93 2568.63 1848.93 L2564.6 1848.93 L2564.6 1845.09 L2568.81 1845.09 Q2572.26 1845.09 2574.09 1843.72 Q2575.92 1842.34 2575.92 1839.74 Q2575.92 1837.08 2574.02 1835.67 Q2572.14 1834.23 2568.63 1834.23 Q2566.71 1834.23 2564.51 1834.65 Q2562.31 1835.07 2559.67 1835.95 L2559.67 1831.78 Q2562.33 1831.04 2564.64 1830.67 Q2566.98 1830.3 2569.04 1830.3 Q2574.37 1830.3 2577.47 1832.73 Q2580.57 1835.14 2580.57 1839.26 Q2580.57 1842.13 2578.93 1844.12 Q2577.28 1846.09 2574.25 1846.85 Z" fill="#000000" fill-rule="evenodd" fill-opacity="1" /><polyline clip-path="url(#clip652)" style="stroke:#000000; stroke-linecap:butt; stroke-linejoin:round; stroke-width:2; stroke-opacity:0.1; fill:none" points="
  140.844,1544.38 2640.76,1544.38 
  "/>
<polyline clip-path="url(#clip652)" style="stroke:#000000; stroke-linecap:butt; stroke-linejoin:round; stroke-width:2; stroke-opacity:0.1; fill:none" points="
  140.844,1234.2 2640.76,1234.2 
  "/>
<polyline clip-path="url(#clip652)" style="stroke:#000000; stroke-linecap:butt; stroke-linejoin:round; stroke-width:2; stroke-opacity:0.1; fill:none" points="
  140.844,924.02 2640.76,924.02 
  "/>
<polyline clip-path="url(#clip652)" style="stroke:#000000; stroke-linecap:butt; stroke-linejoin:round; stroke-width:2; stroke-opacity:0.1; fill:none" points="
  140.844,613.84 2640.76,613.84 
  "/>
<polyline clip-path="url(#clip652)" style="stroke:#000000; stroke-linecap:butt; stroke-linejoin:round; stroke-width:2; stroke-opacity:0.1; fill:none" points="
  140.844,303.659 2640.76,303.659 
  "/>
<polyline clip-path="url(#clip650)" style="stroke:#000000; stroke-linecap:butt; stroke-linejoin:round; stroke-width:4; stroke-opacity:1; fill:none" points="
  140.844,1800.78 140.844,47.2441 
  "/>
<polyline clip-path="url(#clip650)" style="stroke:#000000; stroke-linecap:butt; stroke-linejoin:round; stroke-width:4; stroke-opacity:1; fill:none" points="
  140.844,1544.38 159.742,1544.38 
  "/>
<polyline clip-path="url(#clip650)" style="stroke:#000000; stroke-linecap:butt; stroke-linejoin:round; stroke-width:4; stroke-opacity:1; fill:none" points="
  140.844,1234.2 159.742,1234.2 
  "/>
<polyline clip-path="url(#clip650)" style="stroke:#000000; stroke-linecap:butt; stroke-linejoin:round; stroke-width:4; stroke-opacity:1; fill:none" points="
  140.844,924.02 159.742,924.02 
  "/>
<polyline clip-path="url(#clip650)" style="stroke:#000000; stroke-linecap:butt; stroke-linejoin:round; stroke-width:4; stroke-opacity:1; fill:none" points="
  140.844,613.84 159.742,613.84 
  "/>
<polyline clip-path="url(#clip650)" style="stroke:#000000; stroke-linecap:butt; stroke-linejoin:round; stroke-width:4; stroke-opacity:1; fill:none" points="
  140.844,303.659 159.742,303.659 
  "/>
<path clip-path="url(#clip650)" d="M93.3945 1543.03 Q96.7509 1543.74 98.6259 1546.01 Q100.524 1548.28 100.524 1551.61 Q100.524 1556.73 97.0056 1559.53 Q93.4871 1562.33 87.0056 1562.33 Q84.8297 1562.33 82.5149 1561.89 Q80.2233 1561.48 77.7696 1560.62 L77.7696 1556.11 Q79.714 1557.24 82.0288 1557.82 Q84.3436 1558.4 86.8667 1558.4 Q91.2649 1558.4 93.5565 1556.66 Q95.8713 1554.93 95.8713 1551.61 Q95.8713 1548.56 93.7186 1546.85 Q91.5889 1545.11 87.7695 1545.11 L83.7418 1545.11 L83.7418 1541.27 L87.9547 1541.27 Q91.4038 1541.27 93.2324 1539.9 Q95.0611 1538.51 95.0611 1535.92 Q95.0611 1533.26 93.163 1531.85 Q91.288 1530.41 87.7695 1530.41 Q85.8482 1530.41 83.6492 1530.83 Q81.4501 1531.24 78.8112 1532.12 L78.8112 1527.96 Q81.4733 1527.22 83.7881 1526.85 Q86.126 1526.48 88.1862 1526.48 Q93.5102 1526.48 96.6121 1528.91 Q99.7139 1531.31 99.7139 1535.43 Q99.7139 1538.3 98.0704 1540.3 Q96.4269 1542.26 93.3945 1543.03 Z" fill="#000000" fill-rule="evenodd" fill-opacity="1" /><path clip-path="url(#clip650)" d="M88.9964 1232.34 Q85.8482 1232.34 83.9964 1234.49 Q82.1677 1236.64 82.1677 1240.39 Q82.1677 1244.12 83.9964 1246.3 Q85.8482 1248.45 88.9964 1248.45 Q92.1445 1248.45 93.9732 1246.3 Q95.825 1244.12 95.825 1240.39 Q95.825 1236.64 93.9732 1234.49 Q92.1445 1232.34 88.9964 1232.34 M98.2787 1217.68 L98.2787 1221.94 Q96.5195 1221.11 94.7139 1220.67 Q92.9315 1220.23 91.1723 1220.23 Q86.5427 1220.23 84.089 1223.36 Q81.6584 1226.48 81.3112 1232.8 Q82.6769 1230.79 84.7371 1229.72 Q86.7973 1228.63 89.2741 1228.63 Q94.4824 1228.63 97.4917 1231.8 Q100.524 1234.95 100.524 1240.39 Q100.524 1245.72 97.3759 1248.93 Q94.2278 1252.15 88.9964 1252.15 Q83.001 1252.15 79.8297 1247.57 Q76.6585 1242.96 76.6585 1234.24 Q76.6585 1226.04 80.5473 1221.18 Q84.4362 1216.3 90.9871 1216.3 Q92.7463 1216.3 94.5287 1216.64 Q96.3343 1216.99 98.2787 1217.68 Z" fill="#000000" fill-rule="evenodd" fill-opacity="1" /><path clip-path="url(#clip650)" d="M78.9038 940.583 L78.9038 936.323 Q80.6631 937.157 82.4686 937.597 Q84.2742 938.036 86.0103 938.036 Q90.6399 938.036 93.0704 934.935 Q95.5241 931.81 95.8713 925.467 Q94.5287 927.458 92.4686 928.523 Q90.4084 929.587 87.9084 929.587 Q82.7232 929.587 79.6909 926.462 Q76.6816 923.314 76.6816 917.874 Q76.6816 912.55 79.8297 909.333 Q82.9779 906.115 88.2093 906.115 Q94.2047 906.115 97.3528 910.722 Q100.524 915.305 100.524 924.055 Q100.524 932.226 96.6352 937.11 Q92.7695 941.972 86.2186 941.972 Q84.4593 941.972 82.6538 941.624 Q80.8483 941.277 78.9038 940.583 M88.2093 925.93 Q91.3575 925.93 93.1862 923.777 Q95.038 921.624 95.038 917.874 Q95.038 914.148 93.1862 911.995 Q91.3575 909.819 88.2093 909.819 Q85.0612 909.819 83.2094 911.995 Q81.3807 914.148 81.3807 917.874 Q81.3807 921.624 83.2094 923.777 Q85.0612 925.93 88.2093 925.93 Z" fill="#000000" fill-rule="evenodd" fill-opacity="1" /><path clip-path="url(#clip650)" d="M50.8253 627.185 L58.4641 627.185 L58.4641 600.819 L50.154 602.486 L50.154 598.226 L58.4178 596.56 L63.0937 596.56 L63.0937 627.185 L70.7326 627.185 L70.7326 631.12 L50.8253 631.12 L50.8253 627.185 Z" fill="#000000" fill-rule="evenodd" fill-opacity="1" /><path clip-path="url(#clip650)" d="M84.2047 627.185 L100.524 627.185 L100.524 631.12 L78.5797 631.12 L78.5797 627.185 Q81.2418 624.43 85.8251 619.8 Q90.4315 615.148 91.6121 613.805 Q93.8574 611.282 94.7371 609.546 Q95.6398 607.787 95.6398 606.097 Q95.6398 603.342 93.6954 601.606 Q91.7741 599.87 88.6723 599.87 Q86.4732 599.87 84.0195 600.634 Q81.589 601.398 78.8112 602.949 L78.8112 598.226 Q81.6353 597.092 84.089 596.514 Q86.5427 595.935 88.5797 595.935 Q93.95 595.935 97.1445 598.62 Q100.339 601.305 100.339 605.796 Q100.339 607.926 99.5287 609.847 Q98.7417 611.745 96.6352 614.338 Q96.0565 615.009 92.9547 618.226 Q89.8528 621.421 84.2047 627.185 Z" fill="#000000" fill-rule="evenodd" fill-opacity="1" /><path clip-path="url(#clip650)" d="M50.2234 317.004 L57.8623 317.004 L57.8623 290.639 L49.5521 292.305 L49.5521 288.046 L57.816 286.379 L62.4919 286.379 L62.4919 317.004 L70.1307 317.004 L70.1307 320.939 L50.2234 320.939 L50.2234 317.004 Z" fill="#000000" fill-rule="evenodd" fill-opacity="1" /><path clip-path="url(#clip650)" d="M79.6214 286.379 L97.9778 286.379 L97.9778 290.315 L83.9038 290.315 L83.9038 298.787 Q84.9223 298.44 85.9408 298.277 Q86.9593 298.092 87.9778 298.092 Q93.7649 298.092 97.1445 301.264 Q100.524 304.435 100.524 309.851 Q100.524 315.43 97.0519 318.532 Q93.5797 321.611 87.2603 321.611 Q85.0843 321.611 82.8158 321.24 Q80.5705 320.87 78.1631 320.129 L78.1631 315.43 Q80.2464 316.564 82.4686 317.12 Q84.6908 317.676 87.1677 317.676 Q91.1723 317.676 93.5102 315.569 Q95.8482 313.463 95.8482 309.851 Q95.8482 306.24 93.5102 304.134 Q91.1723 302.027 87.1677 302.027 Q85.2927 302.027 83.4177 302.444 Q81.5658 302.861 79.6214 303.74 L79.6214 286.379 Z" fill="#000000" fill-rule="evenodd" fill-opacity="1" /><polyline clip-path="url(#clip652)" style="stroke:#009af9; stroke-linecap:butt; stroke-linejoin:round; stroke-width:4; stroke-opacity:1; fill:none" points="
  211.596,96.8724 215.435,104.94 219.274,112.989 223.112,121.017 226.951,129.026 262.444,202.144 297.938,273.576 333.432,343.322 368.926,411.382 411.586,490.953 
  454.246,568.088 490.315,631.405 526.384,692.98 565.565,757.895 604.746,820.756 640.867,876.887 676.989,931.272 715.714,987.639 754.44,1042 799.308,1102.47 
  844.176,1160.25 884.049,1209.33 923.922,1256.29 958.887,1295.71 993.852,1333.5 1031.97,1372.84 1070.1,1410.23 1108.44,1445.88 1146.79,1479.56 1189.19,1514.51 
  1231.59,1547.05 1271.93,1575.78 1312.27,1602.33 1354.22,1627.63 1396.16,1650.58 1431.47,1668.06 1466.78,1683.88 1509.89,1700.93 1553,1715.5 1592.49,1726.66 
  1631.98,1735.73 1668.45,1742.25 1704.92,1747 1741.87,1749.99 1778.81,1751.15 1820.22,1750.28 1861.62,1747.12 1899.14,1742.28 1936.66,1735.55 1979.62,1725.53 
  2022.58,1713.04 2062.35,1699.27 2102.13,1683.39 2141.34,1665.65 2180.55,1645.86 2218.63,1624.68 2256.7,1601.56 2295.73,1575.84 2334.76,1548.08 2377.52,1515.33 
  2420.28,1480.13 2482.4,1424.63 2544.52,1363.98 2557.26,1350.89 2570,1337.59 
  "/>
<path clip-path="url(#clip650)" d="
M2227.23 209.375 L2557.43 209.375 L2557.43 105.695 L2227.23 105.695  Z
  " fill="#ffffff" fill-rule="evenodd" fill-opacity="1"/>
<polyline clip-path="url(#clip650)" style="stroke:#000000; stroke-linecap:butt; stroke-linejoin:round; stroke-width:4; stroke-opacity:1; fill:none" points="
  2227.23,209.375 2557.43,209.375 2557.43,105.695 2227.23,105.695 2227.23,209.375 
  "/>
<polyline clip-path="url(#clip650)" style="stroke:#009af9; stroke-linecap:butt; stroke-linejoin:round; stroke-width:4; stroke-opacity:1; fill:none" points="
  2255,157.535 2421.66,157.535 
  "/>
<path clip-path="url(#clip650)" d="M2463.28 177.223 Q2461.48 181.852 2459.77 183.264 Q2458.05 184.676 2455.18 184.676 L2451.78 184.676 L2451.78 181.112 L2454.28 181.112 Q2456.04 181.112 2457.01 180.278 Q2457.98 179.445 2459.16 176.343 L2459.93 174.399 L2449.44 148.889 L2453.96 148.889 L2462.06 169.167 L2470.16 148.889 L2474.67 148.889 L2463.28 177.223 Z" fill="#000000" fill-rule="evenodd" fill-opacity="1" /><path clip-path="url(#clip650)" d="M2481.96 170.88 L2489.6 170.88 L2489.6 144.515 L2481.29 146.181 L2481.29 141.922 L2489.56 140.255 L2494.23 140.255 L2494.23 170.88 L2501.87 170.88 L2501.87 174.815 L2481.96 174.815 L2481.96 170.88 Z" fill="#000000" fill-rule="evenodd" fill-opacity="1" /></svg>
