<?xml version="1.0" encoding="utf-8"?>
<svg xmlns="http://www.w3.org/2000/svg" xmlns:xlink="http://www.w3.org/1999/xlink" width="672" height="480" viewBox="0 0 2688 1920">
<defs>
  <clipPath id="clip330">
    <rect x="0" y="0" width="2688" height="1920"/>
  </clipPath>
</defs>
<path clip-path="url(#clip330)" d="
M0 1920 L2688 1920 L2688 0 L0 0  Z
  " fill="#ffffff" fill-rule="evenodd" fill-opacity="1"/>
<defs>
  <clipPath id="clip331">
    <rect x="537" y="0" width="1883" height="1883"/>
  </clipPath>
</defs>
<path clip-path="url(#clip330)" d="
M115.057 1800.78 L2640.76 1800.78 L2640.76 47.2441 L115.057 47.2441  Z
  " fill="#ffffff" fill-rule="evenodd" fill-opacity="1"/>
<defs>
  <clipPath id="clip332">
    <rect x="115" y="47" width="2527" height="1755"/>
  </clipPath>
</defs>
<polyline clip-path="url(#clip332)" style="stroke:#000000; stroke-linecap:butt; stroke-linejoin:round; stroke-width:2; stroke-opacity:0.1; fill:none" points="
  186.539,1800.78 186.539,47.2441 
  "/>
<polyline clip-path="url(#clip332)" style="stroke:#000000; stroke-linecap:butt; stroke-linejoin:round; stroke-width:2; stroke-opacity:0.1; fill:none" points="
  782.223,1800.78 782.223,47.2441 
  "/>
<polyline clip-path="url(#clip332)" style="stroke:#000000; stroke-linecap:butt; stroke-linejoin:round; stroke-width:2; stroke-opacity:0.1; fill:none" points="
  1377.91,1800.78 1377.91,47.2441 
  "/>
<polyline clip-path="url(#clip332)" style="stroke:#000000; stroke-linecap:butt; stroke-linejoin:round; stroke-width:2; stroke-opacity:0.1; fill:none" points="
  1973.59,1800.78 1973.59,47.2441 
  "/>
<polyline clip-path="url(#clip332)" style="stroke:#000000; stroke-linecap:butt; stroke-linejoin:round; stroke-width:2; stroke-opacity:0.1; fill:none" points="
  2569.27,1800.78 2569.27,47.2441 
  "/>
<polyline clip-path="url(#clip330)" style="stroke:#000000; stroke-linecap:butt; stroke-linejoin:round; stroke-width:4; stroke-opacity:1; fill:none" points="
  115.057,1800.78 2640.76,1800.78 
  "/>
<polyline clip-path="url(#clip330)" style="stroke:#000000; stroke-linecap:butt; stroke-linejoin:round; stroke-width:4; stroke-opacity:1; fill:none" points="
  186.539,1800.78 186.539,1781.88 
  "/>
<polyline clip-path="url(#clip330)" style="stroke:#000000; stroke-linecap:butt; stroke-linejoin:round; stroke-width:4; stroke-opacity:1; fill:none" points="
  782.223,1800.78 782.223,1781.88 
  "/>
<polyline clip-path="url(#clip330)" style="stroke:#000000; stroke-linecap:butt; stroke-linejoin:round; stroke-width:4; stroke-opacity:1; fill:none" points="
  1377.91,1800.78 1377.91,1781.88 
  "/>
<polyline clip-path="url(#clip330)" style="stroke:#000000; stroke-linecap:butt; stroke-linejoin:round; stroke-width:4; stroke-opacity:1; fill:none" points="
  1973.59,1800.78 1973.59,1781.88 
  "/>
<polyline clip-path="url(#clip330)" style="stroke:#000000; stroke-linecap:butt; stroke-linejoin:round; stroke-width:4; stroke-opacity:1; fill:none" points="
  2569.27,1800.78 2569.27,1781.88 
  "/>
<path clip-path="url(#clip330)" d="M156.482 1848.65 L186.157 1848.65 L186.157 1852.59 L156.482 1852.59 L156.482 1848.65 Z" fill="#000000" fill-rule="evenodd" fill-opacity="1" /><path clip-path="url(#clip330)" d="M200.278 1861.55 L216.597 1861.55 L216.597 1865.48 L194.653 1865.48 L194.653 1861.55 Q197.315 1858.79 201.898 1854.16 Q206.504 1849.51 207.685 1848.17 Q209.93 1845.65 210.81 1843.91 Q211.713 1842.15 211.713 1840.46 Q211.713 1837.71 209.768 1835.97 Q207.847 1834.23 204.745 1834.23 Q202.546 1834.23 200.092 1835 Q197.662 1835.76 194.884 1837.31 L194.884 1832.59 Q197.708 1831.46 200.162 1830.88 Q202.616 1830.3 204.653 1830.3 Q210.023 1830.3 213.217 1832.98 Q216.412 1835.67 216.412 1840.16 Q216.412 1842.29 215.602 1844.21 Q214.815 1846.11 212.708 1848.7 Q212.129 1849.37 209.028 1852.59 Q205.926 1855.78 200.278 1861.55 Z" fill="#000000" fill-rule="evenodd" fill-opacity="1" /><path clip-path="url(#clip330)" d="M751.98 1848.65 L781.656 1848.65 L781.656 1852.59 L751.98 1852.59 L751.98 1848.65 Z" fill="#000000" fill-rule="evenodd" fill-opacity="1" /><path clip-path="url(#clip330)" d="M792.558 1861.55 L800.197 1861.55 L800.197 1835.18 L791.887 1836.85 L791.887 1832.59 L800.151 1830.92 L804.827 1830.92 L804.827 1861.55 L812.466 1861.55 L812.466 1865.48 L792.558 1865.48 L792.558 1861.55 Z" fill="#000000" fill-rule="evenodd" fill-opacity="1" /><path clip-path="url(#clip330)" d="M1377.91 1834 Q1374.3 1834 1372.47 1837.57 Q1370.66 1841.11 1370.66 1848.24 Q1370.66 1855.34 1372.47 1858.91 Q1374.3 1862.45 1377.91 1862.45 Q1381.54 1862.45 1383.35 1858.91 Q1385.18 1855.34 1385.18 1848.24 Q1385.18 1841.11 1383.35 1837.57 Q1381.54 1834 1377.91 1834 M1377.91 1830.3 Q1383.72 1830.3 1386.77 1834.9 Q1389.85 1839.49 1389.85 1848.24 Q1389.85 1856.96 1386.77 1861.57 Q1383.72 1866.15 1377.91 1866.15 Q1372.1 1866.15 1369.02 1861.57 Q1365.96 1856.96 1365.96 1848.24 Q1365.96 1839.49 1369.02 1834.9 Q1372.1 1830.3 1377.91 1830.3 Z" fill="#000000" fill-rule="evenodd" fill-opacity="1" /><path clip-path="url(#clip330)" d="M1963.97 1861.55 L1971.61 1861.55 L1971.61 1835.18 L1963.3 1836.85 L1963.3 1832.59 L1971.56 1830.92 L1976.24 1830.92 L1976.24 1861.55 L1983.88 1861.55 L1983.88 1865.48 L1963.97 1865.48 L1963.97 1861.55 Z" fill="#000000" fill-rule="evenodd" fill-opacity="1" /><path clip-path="url(#clip330)" d="M2563.93 1861.55 L2580.25 1861.55 L2580.25 1865.48 L2558.3 1865.48 L2558.3 1861.55 Q2560.96 1858.79 2565.55 1854.16 Q2570.15 1849.51 2571.33 1848.17 Q2573.58 1845.65 2574.46 1843.91 Q2575.36 1842.15 2575.36 1840.46 Q2575.36 1837.71 2573.42 1835.97 Q2571.5 1834.23 2568.39 1834.23 Q2566.2 1834.23 2563.74 1835 Q2561.31 1835.76 2558.53 1837.31 L2558.53 1832.59 Q2561.36 1831.46 2563.81 1830.88 Q2566.26 1830.3 2568.3 1830.3 Q2573.67 1830.3 2576.87 1832.98 Q2580.06 1835.67 2580.06 1840.16 Q2580.06 1842.29 2579.25 1844.21 Q2578.46 1846.11 2576.36 1848.7 Q2575.78 1849.37 2572.68 1852.59 Q2569.57 1855.78 2563.93 1861.55 Z" fill="#000000" fill-rule="evenodd" fill-opacity="1" /><polyline clip-path="url(#clip332)" style="stroke:#000000; stroke-linecap:butt; stroke-linejoin:round; stroke-width:2; stroke-opacity:0.1; fill:none" points="
  115.057,1751.15 2640.76,1751.15 
  "/>
<polyline clip-path="url(#clip332)" style="stroke:#000000; stroke-linecap:butt; stroke-linejoin:round; stroke-width:2; stroke-opacity:0.1; fill:none" points="
  115.057,1337.58 2640.76,1337.58 
  "/>
<polyline clip-path="url(#clip332)" style="stroke:#000000; stroke-linecap:butt; stroke-linejoin:round; stroke-width:2; stroke-opacity:0.1; fill:none" points="
  115.057,924.012 2640.76,924.012 
  "/>
<polyline clip-path="url(#clip332)" style="stroke:#000000; stroke-linecap:butt; stroke-linejoin:round; stroke-width:2; stroke-opacity:0.1; fill:none" points="
  115.057,510.442 2640.76,510.442 
  "/>
<polyline clip-path="url(#clip332)" style="stroke:#000000; stroke-linecap:butt; stroke-linejoin:round; stroke-width:2; stroke-opacity:0.1; fill:none" points="
  115.057,96.8724 2640.76,96.8724 
  "/>
<polyline clip-path="url(#clip330)" style="stroke:#000000; stroke-linecap:butt; stroke-linejoin:round; stroke-width:4; stroke-opacity:1; fill:none" points="
  115.057,1800.78 115.057,47.2441 
  "/>
<polyline clip-path="url(#clip330)" style="stroke:#000000; stroke-linecap:butt; stroke-linejoin:round; stroke-width:4; stroke-opacity:1; fill:none" points="
  115.057,1751.15 133.955,1751.15 
  "/>
<polyline clip-path="url(#clip330)" style="stroke:#000000; stroke-linecap:butt; stroke-linejoin:round; stroke-width:4; stroke-opacity:1; fill:none" points="
  115.057,1337.58 133.955,1337.58 
  "/>
<polyline clip-path="url(#clip330)" style="stroke:#000000; stroke-linecap:butt; stroke-linejoin:round; stroke-width:4; stroke-opacity:1; fill:none" points="
  115.057,924.012 133.955,924.012 
  "/>
<polyline clip-path="url(#clip330)" style="stroke:#000000; stroke-linecap:butt; stroke-linejoin:round; stroke-width:4; stroke-opacity:1; fill:none" points="
  115.057,510.442 133.955,510.442 
  "/>
<polyline clip-path="url(#clip330)" style="stroke:#000000; stroke-linecap:butt; stroke-linejoin:round; stroke-width:4; stroke-opacity:1; fill:none" points="
  115.057,96.8724 133.955,96.8724 
  "/>
<path clip-path="url(#clip330)" d="M62.7928 1736.95 Q59.1817 1736.95 57.353 1740.51 Q55.5475 1744.06 55.5475 1751.19 Q55.5475 1758.29 57.353 1761.86 Q59.1817 1765.4 62.7928 1765.4 Q66.427 1765.4 68.2326 1761.86 Q70.0613 1758.29 70.0613 1751.19 Q70.0613 1744.06 68.2326 1740.51 Q66.427 1736.95 62.7928 1736.95 M62.7928 1733.25 Q68.6029 1733.25 71.6585 1737.85 Q74.7372 1742.44 74.7372 1751.19 Q74.7372 1759.91 71.6585 1764.52 Q68.6029 1769.1 62.7928 1769.1 Q56.9826 1769.1 53.904 1764.52 Q50.8484 1759.91 50.8484 1751.19 Q50.8484 1742.44 53.904 1737.85 Q56.9826 1733.25 62.7928 1733.25 Z" fill="#000000" fill-rule="evenodd" fill-opacity="1" /><path clip-path="url(#clip330)" d="M54.8299 1350.93 L62.4687 1350.93 L62.4687 1324.56 L54.1586 1326.23 L54.1586 1321.97 L62.4224 1320.3 L67.0983 1320.3 L67.0983 1350.93 L74.7372 1350.93 L74.7372 1354.86 L54.8299 1354.86 L54.8299 1350.93 Z" fill="#000000" fill-rule="evenodd" fill-opacity="1" /><path clip-path="url(#clip330)" d="M58.4178 937.357 L74.7372 937.357 L74.7372 941.292 L52.7928 941.292 L52.7928 937.357 Q55.4549 934.602 60.0382 929.972 Q64.6446 925.32 65.8252 923.977 Q68.0705 921.454 68.9502 919.718 Q69.8529 917.958 69.8529 916.269 Q69.8529 913.514 67.9085 911.778 Q65.9872 910.042 62.8854 910.042 Q60.6863 910.042 58.2326 910.806 Q55.8021 911.57 53.0243 913.121 L53.0243 908.398 Q55.8484 907.264 58.3021 906.685 Q60.7558 906.107 62.7928 906.107 Q68.1631 906.107 71.3576 908.792 Q74.552 911.477 74.552 915.968 Q74.552 918.097 73.7418 920.019 Q72.9548 921.917 70.8483 924.509 Q70.2696 925.181 67.1678 928.398 Q64.0659 931.593 58.4178 937.357 Z" fill="#000000" fill-rule="evenodd" fill-opacity="1" /><path clip-path="url(#clip330)" d="M67.6076 509.088 Q70.964 509.806 72.839 512.074 Q74.7372 514.343 74.7372 517.676 Q74.7372 522.792 71.2187 525.592 Q67.7002 528.393 61.2187 528.393 Q59.0428 528.393 56.728 527.954 Q54.4364 527.537 51.9827 526.68 L51.9827 522.167 Q53.9271 523.301 56.2419 523.88 Q58.5567 524.458 61.0798 524.458 Q65.478 524.458 67.7696 522.722 Q70.0844 520.986 70.0844 517.676 Q70.0844 514.62 67.9317 512.907 Q65.802 511.171 61.9826 511.171 L57.9549 511.171 L57.9549 507.329 L62.1678 507.329 Q65.6169 507.329 67.4455 505.963 Q69.2742 504.574 69.2742 501.981 Q69.2742 499.319 67.3761 497.907 Q65.5011 496.472 61.9826 496.472 Q60.0613 496.472 57.8623 496.889 Q55.6632 497.306 53.0243 498.185 L53.0243 494.019 Q55.6864 493.278 58.0012 492.907 Q60.3391 492.537 62.3993 492.537 Q67.7233 492.537 70.8252 494.968 Q73.927 497.375 73.927 501.495 Q73.927 504.366 72.2835 506.356 Q70.64 508.324 67.6076 509.088 Z" fill="#000000" fill-rule="evenodd" fill-opacity="1" /><path clip-path="url(#clip330)" d="M65.1539 83.6665 L53.3484 102.115 L65.1539 102.115 L65.1539 83.6665 M63.927 79.5924 L69.8066 79.5924 L69.8066 102.115 L74.7372 102.115 L74.7372 106.004 L69.8066 106.004 L69.8066 114.152 L65.1539 114.152 L65.1539 106.004 L49.5521 106.004 L49.5521 101.49 L63.927 79.5924 Z" fill="#000000" fill-rule="evenodd" fill-opacity="1" /><polyline clip-path="url(#clip332)" style="stroke:#009af9; stroke-linecap:butt; stroke-linejoin:round; stroke-width:4; stroke-opacity:1; fill:none" points="
  186.539,96.8724 782.223,1337.58 1377.91,1751.15 1973.59,1337.58 2569.27,96.8724 
  "/>
<circle clip-path="url(#clip332)" cx="186.539" cy="96.8724" r="18" fill="#e26f46" fill-rule="evenodd" fill-opacity="1" stroke="#000000" stroke-opacity="1" stroke-width="3.84"/>
<circle clip-path="url(#clip332)" cx="782.223" cy="1337.58" r="18" fill="#e26f46" fill-rule="evenodd" fill-opacity="1" stroke="#000000" stroke-opacity="1" stroke-width="3.84"/>
<circle clip-path="url(#clip332)" cx="1377.91" cy="1751.15" r="18" fill="#e26f46" fill-rule="evenodd" fill-opacity="1" stroke="#000000" stroke-opacity="1" stroke-width="3.84"/>
<circle clip-path="url(#clip332)" cx="1973.59" cy="1337.58" r="18" fill="#e26f46" fill-rule="evenodd" fill-opacity="1" stroke="#000000" stroke-opacity="1" stroke-width="3.84"/>
<circle clip-path="url(#clip332)" cx="2569.27" cy="96.8724" r="18" fill="#e26f46" fill-rule="evenodd" fill-opacity="1" stroke="#000000" stroke-opacity="1" stroke-width="3.84"/>
<path clip-path="url(#clip330)" d="
M2223.5 261.215 L2556.57 261.215 L2556.57 105.695 L2223.5 105.695  Z
  " fill="#ffffff" fill-rule="evenodd" fill-opacity="1"/>
<polyline clip-path="url(#clip330)" style="stroke:#000000; stroke-linecap:butt; stroke-linejoin:round; stroke-width:4; stroke-opacity:1; fill:none" points="
  2223.5,261.215 2556.57,261.215 2556.57,105.695 2223.5,105.695 2223.5,261.215 
  "/>
<polyline clip-path="url(#clip330)" style="stroke:#009af9; stroke-linecap:butt; stroke-linejoin:round; stroke-width:4; stroke-opacity:1; fill:none" points="
  2251.57,157.535 2419.95,157.535 
  "/>
<path clip-path="url(#clip330)" d="M2461.85 177.223 Q2460.05 181.852 2458.33 183.264 Q2456.62 184.676 2453.75 184.676 L2450.35 184.676 L2450.35 181.112 L2452.85 181.112 Q2454.61 181.112 2455.58 180.278 Q2456.55 179.445 2457.73 176.343 L2458.5 174.399 L2448.01 148.889 L2452.52 148.889 L2460.62 169.167 L2468.73 148.889 L2473.24 148.889 L2461.85 177.223 Z" fill="#000000" fill-rule="evenodd" fill-opacity="1" /><path clip-path="url(#clip330)" d="M2480.53 170.88 L2488.17 170.88 L2488.17 144.515 L2479.86 146.181 L2479.86 141.922 L2488.12 140.255 L2492.8 140.255 L2492.8 170.88 L2500.44 170.88 L2500.44 174.815 L2480.53 174.815 L2480.53 170.88 Z" fill="#000000" fill-rule="evenodd" fill-opacity="1" /><circle clip-path="url(#clip330)" cx="2335.76" cy="209.375" r="23.04" fill="#e26f46" fill-rule="evenodd" fill-opacity="1" stroke="#000000" stroke-opacity="1" stroke-width="4.9152"/>
<path clip-path="url(#clip330)" d="M2461.85 229.063 Q2460.05 233.692 2458.33 235.104 Q2456.62 236.516 2453.75 236.516 L2450.35 236.516 L2450.35 232.952 L2452.85 232.952 Q2454.61 232.952 2455.58 232.118 Q2456.55 231.285 2457.73 228.183 L2458.5 226.239 L2448.01 200.729 L2452.52 200.729 L2460.62 221.007 L2468.73 200.729 L2473.24 200.729 L2461.85 229.063 Z" fill="#000000" fill-rule="evenodd" fill-opacity="1" /><path clip-path="url(#clip330)" d="M2483.75 222.72 L2500.07 222.72 L2500.07 226.655 L2478.12 226.655 L2478.12 222.72 Q2480.79 219.965 2485.37 215.336 Q2489.98 210.683 2491.16 209.341 Q2493.4 206.817 2494.28 205.081 Q2495.18 203.322 2495.18 201.632 Q2495.18 198.878 2493.24 197.142 Q2491.32 195.405 2488.22 195.405 Q2486.02 195.405 2483.56 196.169 Q2481.13 196.933 2478.36 198.484 L2478.36 193.762 Q2481.18 192.628 2483.63 192.049 Q2486.09 191.47 2488.12 191.47 Q2493.49 191.47 2496.69 194.155 Q2499.88 196.841 2499.88 201.331 Q2499.88 203.461 2499.07 205.382 Q2498.29 207.28 2496.18 209.873 Q2495.6 210.544 2492.5 213.762 Q2489.4 216.956 2483.75 222.72 Z" fill="#000000" fill-rule="evenodd" fill-opacity="1" /></svg>
