<?xml version="1.0" encoding="utf-8"?>
<svg xmlns="http://www.w3.org/2000/svg" xmlns:xlink="http://www.w3.org/1999/xlink" width="672" height="480" viewBox="0 0 2688 1920">
<defs>
  <clipPath id="clip830">
    <rect x="0" y="0" width="2688" height="1920"/>
  </clipPath>
</defs>
<path clip-path="url(#clip830)" d="
M0 1920 L2688 1920 L2688 0 L0 0  Z
  " fill="#ffffff" fill-rule="evenodd" fill-opacity="1"/>
<defs>
  <clipPath id="clip831">
    <rect x="537" y="0" width="1883" height="1883"/>
  </clipPath>
</defs>
<path clip-path="url(#clip830)" d="
M150.358 1800.78 L2640.76 1800.78 L2640.76 47.2441 L150.358 47.2441  Z
  " fill="#ffffff" fill-rule="evenodd" fill-opacity="1"/>
<defs>
  <clipPath id="clip832">
    <rect x="150" y="47" width="2491" height="1755"/>
  </clipPath>
</defs>
<polyline clip-path="url(#clip832)" style="stroke:#000000; stroke-linecap:butt; stroke-linejoin:round; stroke-width:2; stroke-opacity:0.1; fill:none" points="
  220.841,1800.78 220.841,47.2441 
  "/>
<polyline clip-path="url(#clip832)" style="stroke:#000000; stroke-linecap:butt; stroke-linejoin:round; stroke-width:2; stroke-opacity:0.1; fill:none" points="
  808.199,1800.78 808.199,47.2441 
  "/>
<polyline clip-path="url(#clip832)" style="stroke:#000000; stroke-linecap:butt; stroke-linejoin:round; stroke-width:2; stroke-opacity:0.1; fill:none" points="
  1395.56,1800.78 1395.56,47.2441 
  "/>
<polyline clip-path="url(#clip832)" style="stroke:#000000; stroke-linecap:butt; stroke-linejoin:round; stroke-width:2; stroke-opacity:0.1; fill:none" points="
  1982.91,1800.78 1982.91,47.2441 
  "/>
<polyline clip-path="url(#clip832)" style="stroke:#000000; stroke-linecap:butt; stroke-linejoin:round; stroke-width:2; stroke-opacity:0.1; fill:none" points="
  2570.27,1800.78 2570.27,47.2441 
  "/>
<polyline clip-path="url(#clip830)" style="stroke:#000000; stroke-linecap:butt; stroke-linejoin:round; stroke-width:4; stroke-opacity:1; fill:none" points="
  150.358,1800.78 2640.76,1800.78 
  "/>
<polyline clip-path="url(#clip830)" style="stroke:#000000; stroke-linecap:butt; stroke-linejoin:round; stroke-width:4; stroke-opacity:1; fill:none" points="
  220.841,1800.78 220.841,1781.88 
  "/>
<polyline clip-path="url(#clip830)" style="stroke:#000000; stroke-linecap:butt; stroke-linejoin:round; stroke-width:4; stroke-opacity:1; fill:none" points="
  808.199,1800.78 808.199,1781.88 
  "/>
<polyline clip-path="url(#clip830)" style="stroke:#000000; stroke-linecap:butt; stroke-linejoin:round; stroke-width:4; stroke-opacity:1; fill:none" points="
  1395.56,1800.78 1395.56,1781.88 
  "/>
<polyline clip-path="url(#clip830)" style="stroke:#000000; stroke-linecap:butt; stroke-linejoin:round; stroke-width:4; stroke-opacity:1; fill:none" points="
  1982.91,1800.78 1982.91,1781.88 
  "/>
<polyline clip-path="url(#clip830)" style="stroke:#000000; stroke-linecap:butt; stroke-linejoin:round; stroke-width:4; stroke-opacity:1; fill:none" points="
  2570.27,1800.78 2570.27,1781.88 
  "/>
<path clip-path="url(#clip830)" d="M190.783 1848.65 L220.459 1848.65 L220.459 1852.59 L190.783 1852.59 L190.783 1848.65 Z" fill="#000000" fill-rule="evenodd" fill-opacity="1" /><path clip-path="url(#clip830)" d="M234.579 1861.55 L250.899 1861.55 L250.899 1865.48 L228.954 1865.48 L228.954 1861.55 Q231.616 1858.79 236.2 1854.16 Q240.806 1849.51 241.987 1848.17 Q244.232 1845.65 245.112 1843.91 Q246.014 1842.15 246.014 1840.46 Q246.014 1837.71 244.07 1835.97 Q242.149 1834.23 239.047 1834.23 Q236.848 1834.23 234.394 1835 Q231.964 1835.76 229.186 1837.31 L229.186 1832.59 Q232.01 1831.46 234.463 1830.88 Q236.917 1830.3 238.954 1830.3 Q244.325 1830.3 247.519 1832.98 Q250.713 1835.67 250.713 1840.16 Q250.713 1842.29 249.903 1844.21 Q249.116 1846.11 247.01 1848.7 Q246.431 1849.37 243.329 1852.59 Q240.227 1855.78 234.579 1861.55 Z" fill="#000000" fill-rule="evenodd" fill-opacity="1" /><path clip-path="url(#clip830)" d="M777.956 1848.65 L807.632 1848.65 L807.632 1852.59 L777.956 1852.59 L777.956 1848.65 Z" fill="#000000" fill-rule="evenodd" fill-opacity="1" /><path clip-path="url(#clip830)" d="M818.534 1861.55 L826.173 1861.55 L826.173 1835.18 L817.863 1836.85 L817.863 1832.59 L826.127 1830.92 L830.803 1830.92 L830.803 1861.55 L838.442 1861.55 L838.442 1865.48 L818.534 1865.48 L818.534 1861.55 Z" fill="#000000" fill-rule="evenodd" fill-opacity="1" /><path clip-path="url(#clip830)" d="M1395.56 1834 Q1391.95 1834 1390.12 1837.57 Q1388.31 1841.11 1388.31 1848.24 Q1388.31 1855.34 1390.12 1858.91 Q1391.95 1862.45 1395.56 1862.45 Q1399.19 1862.45 1401 1858.91 Q1402.83 1855.34 1402.83 1848.24 Q1402.83 1841.11 1401 1837.57 Q1399.19 1834 1395.56 1834 M1395.56 1830.3 Q1401.37 1830.3 1404.42 1834.9 Q1407.5 1839.49 1407.5 1848.24 Q1407.5 1856.96 1404.42 1861.57 Q1401.37 1866.15 1395.56 1866.15 Q1389.75 1866.15 1386.67 1861.57 Q1383.61 1856.96 1383.61 1848.24 Q1383.61 1839.49 1386.67 1834.9 Q1389.75 1830.3 1395.56 1830.3 Z" fill="#000000" fill-rule="evenodd" fill-opacity="1" /><path clip-path="url(#clip830)" d="M1973.3 1861.55 L1980.94 1861.55 L1980.94 1835.18 L1972.63 1836.85 L1972.63 1832.59 L1980.89 1830.92 L1985.57 1830.92 L1985.57 1861.55 L1993.2 1861.55 L1993.2 1865.48 L1973.3 1865.48 L1973.3 1861.55 Z" fill="#000000" fill-rule="evenodd" fill-opacity="1" /><path clip-path="url(#clip830)" d="M2564.93 1861.55 L2581.25 1861.55 L2581.25 1865.48 L2559.3 1865.48 L2559.3 1861.55 Q2561.96 1858.79 2566.55 1854.16 Q2571.15 1849.51 2572.33 1848.17 Q2574.58 1845.65 2575.46 1843.91 Q2576.36 1842.15 2576.36 1840.46 Q2576.36 1837.71 2574.42 1835.97 Q2572.5 1834.23 2569.39 1834.23 Q2567.19 1834.23 2564.74 1835 Q2562.31 1835.76 2559.53 1837.31 L2559.53 1832.59 Q2562.36 1831.46 2564.81 1830.88 Q2567.26 1830.3 2569.3 1830.3 Q2574.67 1830.3 2577.87 1832.98 Q2581.06 1835.67 2581.06 1840.16 Q2581.06 1842.29 2580.25 1844.21 Q2579.46 1846.11 2577.36 1848.7 Q2576.78 1849.37 2573.68 1852.59 Q2570.57 1855.78 2564.93 1861.55 Z" fill="#000000" fill-rule="evenodd" fill-opacity="1" /><polyline clip-path="url(#clip832)" style="stroke:#000000; stroke-linecap:butt; stroke-linejoin:round; stroke-width:2; stroke-opacity:0.1; fill:none" points="
  150.358,1751.19 2640.76,1751.19 
  "/>
<polyline clip-path="url(#clip832)" style="stroke:#000000; stroke-linecap:butt; stroke-linejoin:round; stroke-width:2; stroke-opacity:0.1; fill:none" points="
  150.358,1337.61 2640.76,1337.61 
  "/>
<polyline clip-path="url(#clip832)" style="stroke:#000000; stroke-linecap:butt; stroke-linejoin:round; stroke-width:2; stroke-opacity:0.1; fill:none" points="
  150.358,924.029 2640.76,924.029 
  "/>
<polyline clip-path="url(#clip832)" style="stroke:#000000; stroke-linecap:butt; stroke-linejoin:round; stroke-width:2; stroke-opacity:0.1; fill:none" points="
  150.358,510.451 2640.76,510.451 
  "/>
<polyline clip-path="url(#clip832)" style="stroke:#000000; stroke-linecap:butt; stroke-linejoin:round; stroke-width:2; stroke-opacity:0.1; fill:none" points="
  150.358,96.8724 2640.76,96.8724 
  "/>
<polyline clip-path="url(#clip830)" style="stroke:#000000; stroke-linecap:butt; stroke-linejoin:round; stroke-width:4; stroke-opacity:1; fill:none" points="
  150.358,1800.78 150.358,47.2441 
  "/>
<polyline clip-path="url(#clip830)" style="stroke:#000000; stroke-linecap:butt; stroke-linejoin:round; stroke-width:4; stroke-opacity:1; fill:none" points="
  150.358,1751.19 169.256,1751.19 
  "/>
<polyline clip-path="url(#clip830)" style="stroke:#000000; stroke-linecap:butt; stroke-linejoin:round; stroke-width:4; stroke-opacity:1; fill:none" points="
  150.358,1337.61 169.256,1337.61 
  "/>
<polyline clip-path="url(#clip830)" style="stroke:#000000; stroke-linecap:butt; stroke-linejoin:round; stroke-width:4; stroke-opacity:1; fill:none" points="
  150.358,924.029 169.256,924.029 
  "/>
<polyline clip-path="url(#clip830)" style="stroke:#000000; stroke-linecap:butt; stroke-linejoin:round; stroke-width:4; stroke-opacity:1; fill:none" points="
  150.358,510.451 169.256,510.451 
  "/>
<polyline clip-path="url(#clip830)" style="stroke:#000000; stroke-linecap:butt; stroke-linejoin:round; stroke-width:4; stroke-opacity:1; fill:none" points="
  150.358,96.8724 169.256,96.8724 
  "/>
<path clip-path="url(#clip830)" d="M49.9225 1751.64 L79.5983 1751.64 L79.5983 1755.57 L49.9225 1755.57 L49.9225 1751.64 Z" fill="#000000" fill-rule="evenodd" fill-opacity="1" /><path clip-path="url(#clip830)" d="M93.7186 1764.53 L110.038 1764.53 L110.038 1768.47 L88.0936 1768.47 L88.0936 1764.53 Q90.7556 1761.78 95.3389 1757.15 Q99.9454 1752.49 101.126 1751.15 Q103.371 1748.63 104.251 1746.89 Q105.154 1745.13 105.154 1743.44 Q105.154 1740.69 103.209 1738.95 Q101.288 1737.22 98.1861 1737.22 Q95.9871 1737.22 93.5334 1737.98 Q91.1028 1738.74 88.3251 1740.29 L88.3251 1735.57 Q91.1491 1734.44 93.6028 1733.86 Q96.0565 1733.28 98.0935 1733.28 Q103.464 1733.28 106.658 1735.97 Q109.853 1738.65 109.853 1743.14 Q109.853 1745.27 109.043 1747.19 Q108.256 1749.09 106.149 1751.68 Q105.57 1752.35 102.469 1755.57 Q99.3667 1758.77 93.7186 1764.53 Z" fill="#000000" fill-rule="evenodd" fill-opacity="1" /><path clip-path="url(#clip830)" d="M49.5521 1338.06 L79.2279 1338.06 L79.2279 1341.99 L49.5521 1341.99 L49.5521 1338.06 Z" fill="#000000" fill-rule="evenodd" fill-opacity="1" /><path clip-path="url(#clip830)" d="M90.1306 1350.95 L97.7695 1350.95 L97.7695 1324.59 L89.4593 1326.25 L89.4593 1321.99 L97.7232 1320.33 L102.399 1320.33 L102.399 1350.95 L110.038 1350.95 L110.038 1354.89 L90.1306 1354.89 L90.1306 1350.95 Z" fill="#000000" fill-rule="evenodd" fill-opacity="1" /><path clip-path="url(#clip830)" d="M98.0935 909.827 Q94.4824 909.827 92.6537 913.392 Q90.8482 916.934 90.8482 924.064 Q90.8482 931.17 92.6537 934.735 Q94.4824 938.276 98.0935 938.276 Q101.728 938.276 103.533 934.735 Q105.362 931.17 105.362 924.064 Q105.362 916.934 103.533 913.392 Q101.728 909.827 98.0935 909.827 M98.0935 906.124 Q103.904 906.124 106.959 910.73 Q110.038 915.314 110.038 924.064 Q110.038 932.79 106.959 937.397 Q103.904 941.98 98.0935 941.98 Q92.2834 941.98 89.2047 937.397 Q86.1492 932.79 86.1492 924.064 Q86.1492 915.314 89.2047 910.73 Q92.2834 906.124 98.0935 906.124 Z" fill="#000000" fill-rule="evenodd" fill-opacity="1" /><path clip-path="url(#clip830)" d="M90.1306 523.795 L97.7695 523.795 L97.7695 497.43 L89.4593 499.097 L89.4593 494.837 L97.7232 493.171 L102.399 493.171 L102.399 523.795 L110.038 523.795 L110.038 527.731 L90.1306 527.731 L90.1306 523.795 Z" fill="#000000" fill-rule="evenodd" fill-opacity="1" /><path clip-path="url(#clip830)" d="M93.7186 110.217 L110.038 110.217 L110.038 114.152 L88.0936 114.152 L88.0936 110.217 Q90.7556 107.463 95.3389 102.833 Q99.9454 98.1803 101.126 96.8377 Q103.371 94.3146 104.251 92.5785 Q105.154 90.8192 105.154 89.1294 Q105.154 86.3748 103.209 84.6387 Q101.288 82.9026 98.1861 82.9026 Q95.9871 82.9026 93.5334 83.6665 Q91.1028 84.4304 88.3251 85.9813 L88.3251 81.2591 Q91.1491 80.1249 93.6028 79.5462 Q96.0565 78.9675 98.0935 78.9675 Q103.464 78.9675 106.658 81.6526 Q109.853 84.3378 109.853 88.8285 Q109.853 90.9581 109.043 92.8794 Q108.256 94.7776 106.149 97.3701 Q105.57 98.0414 102.469 101.259 Q99.3667 104.453 93.7186 110.217 Z" fill="#000000" fill-rule="evenodd" fill-opacity="1" /><polyline clip-path="url(#clip832)" style="stroke:#009af9; stroke-linecap:butt; stroke-linejoin:round; stroke-width:4; stroke-opacity:1; fill:none" points="
  220.841,96.8724 224.665,107.625 228.489,118.343 232.313,129.026 236.137,139.674 271.496,236.467 306.854,330.262 342.213,421.06 377.571,508.861 420.069,610.423 
  462.568,707.655 498.499,786.484 534.431,862.219 573.463,940.98 612.494,1016.09 648.478,1082.1 684.462,1145 723.04,1208.99 761.619,1269.41 783.967,1302.78 
  806.316,1334.95 828.664,1365.93 851.013,1395.7 890.734,1445.67 930.456,1491.86 965.288,1529.25 1000.12,1563.73 1038.1,1598 1076.07,1628.82 1114.27,1656.34 
  1152.48,1680.35 1194.71,1702.83 1236.95,1721.03 1277.14,1734.37 1317.33,1743.85 1359.11,1749.59 1400.9,1751.15 1436.07,1749.22 1471.25,1744.32 1492.72,1739.87 
  1514.19,1734.31 1535.66,1727.65 1557.14,1719.89 1596.48,1702.79 1635.82,1681.98 1672.15,1659.47 1708.48,1633.79 1745.29,1604.56 1782.09,1572.07 1823.34,1531.81 
  1864.59,1487.46 1901.96,1443.75 1939.34,1396.7 1960.74,1368.25 1982.13,1338.71 2003.53,1308.06 2024.93,1276.32 2064.55,1214.65 2104.18,1149.21 2143.24,1081.01 
  2182.3,1009.15 2220.23,935.885 2258.16,859.167 2297.04,776.941 2335.92,691.09 2357.22,642.524 2378.52,592.87 2399.82,542.128 2421.12,490.299 2452.06,413.07 
  2483,333.546 2513.94,251.727 2544.88,167.612 2551.23,150.072 2557.58,132.436 2563.93,114.702 2570.27,96.8724 
  "/>
<polyline clip-path="url(#clip832)" style="stroke:#e26f46; stroke-linecap:butt; stroke-linejoin:round; stroke-width:4; stroke-opacity:1; fill:none" points="
  220.841,924.029 236.137,924.029 377.571,924.029 462.568,924.029 534.431,924.029 612.494,924.029 684.462,924.029 761.619,924.029 851.013,924.029 930.456,924.029 
  1000.12,924.029 1076.07,924.029 1152.48,924.029 1236.95,924.029 1317.33,924.029 1400.9,924.029 1471.25,924.029 1557.14,924.029 1635.82,924.029 1708.48,924.029 
  1782.09,924.029 1864.59,924.029 1939.34,924.029 2024.93,924.029 2104.18,924.029 2182.3,924.029 2258.16,924.029 2335.92,924.029 2421.12,924.029 2544.88,924.029 
  2570.27,924.029 
  "/>
<path clip-path="url(#clip830)" d="
M2228.6 261.215 L2557.74 261.215 L2557.74 105.695 L2228.6 105.695  Z
  " fill="#ffffff" fill-rule="evenodd" fill-opacity="1"/>
<polyline clip-path="url(#clip830)" style="stroke:#000000; stroke-linecap:butt; stroke-linejoin:round; stroke-width:4; stroke-opacity:1; fill:none" points="
  2228.6,261.215 2557.74,261.215 2557.74,105.695 2228.6,105.695 2228.6,261.215 
  "/>
<polyline clip-path="url(#clip830)" style="stroke:#009af9; stroke-linecap:butt; stroke-linejoin:round; stroke-width:4; stroke-opacity:1; fill:none" points="
  2256.27,157.535 2422.3,157.535 
  "/>
<path clip-path="url(#clip830)" d="M2463.81 177.223 Q2462.01 181.852 2460.29 183.264 Q2458.58 184.676 2455.71 184.676 L2452.31 184.676 L2452.31 181.112 L2454.81 181.112 Q2456.57 181.112 2457.54 180.278 Q2458.51 179.445 2459.69 176.343 L2460.46 174.399 L2449.97 148.889 L2454.48 148.889 L2462.59 169.167 L2470.69 148.889 L2475.2 148.889 L2463.81 177.223 Z" fill="#000000" fill-rule="evenodd" fill-opacity="1" /><path clip-path="url(#clip830)" d="M2482.49 170.88 L2490.13 170.88 L2490.13 144.515 L2481.82 146.181 L2481.82 141.922 L2490.09 140.255 L2494.76 140.255 L2494.76 170.88 L2502.4 170.88 L2502.4 174.815 L2482.49 174.815 L2482.49 170.88 Z" fill="#000000" fill-rule="evenodd" fill-opacity="1" /><polyline clip-path="url(#clip830)" style="stroke:#e26f46; stroke-linecap:butt; stroke-linejoin:round; stroke-width:4; stroke-opacity:1; fill:none" points="
  2256.27,209.375 2422.3,209.375 
  "/>
<path clip-path="url(#clip830)" d="M2463.81 229.063 Q2462.01 233.692 2460.29 235.104 Q2458.58 236.516 2455.71 236.516 L2452.31 236.516 L2452.31 232.952 L2454.81 232.952 Q2456.57 232.952 2457.54 232.118 Q2458.51 231.285 2459.69 228.183 L2460.46 226.239 L2449.97 200.729 L2454.48 200.729 L2462.59 221.007 L2470.69 200.729 L2475.2 200.729 L2463.81 229.063 Z" fill="#000000" fill-rule="evenodd" fill-opacity="1" /><path clip-path="url(#clip830)" d="M2485.71 222.72 L2502.03 222.72 L2502.03 226.655 L2480.09 226.655 L2480.09 222.72 Q2482.75 219.965 2487.33 215.336 Q2491.94 210.683 2493.12 209.341 Q2495.36 206.817 2496.24 205.081 Q2497.15 203.322 2497.15 201.632 Q2497.15 198.878 2495.2 197.142 Q2493.28 195.405 2490.18 195.405 Q2487.98 195.405 2485.53 196.169 Q2483.1 196.933 2480.32 198.484 L2480.32 193.762 Q2483.14 192.628 2485.59 192.049 Q2488.05 191.47 2490.09 191.47 Q2495.46 191.47 2498.65 194.155 Q2501.84 196.841 2501.84 201.331 Q2501.84 203.461 2501.03 205.382 Q2500.25 207.28 2498.14 209.873 Q2497.56 210.544 2494.46 213.762 Q2491.36 216.956 2485.71 222.72 Z" fill="#000000" fill-rule="evenodd" fill-opacity="1" /></svg>
