<?xml version="1.0" encoding="utf-8"?>
<svg xmlns="http://www.w3.org/2000/svg" xmlns:xlink="http://www.w3.org/1999/xlink" width="672" height="480" viewBox="0 0 2688 1920">
<defs>
  <clipPath id="clip310">
    <rect x="0" y="0" width="2688" height="1920"/>
  </clipPath>
</defs>
<path clip-path="url(#clip310)" d="
M0 1920 L2688 1920 L2688 0 L0 0  Z
  " fill="#ffffff" fill-rule="evenodd" fill-opacity="1"/>
<defs>
  <clipPath id="clip311">
    <rect x="537" y="0" width="1883" height="1883"/>
  </clipPath>
</defs>
<path clip-path="url(#clip310)" d="
M205.057 1800.78 L2640.76 1800.78 L2640.76 47.2441 L205.057 47.2441  Z
  " fill="#ffffff" fill-rule="evenodd" fill-opacity="1"/>
<defs>
  <clipPath id="clip312">
    <rect x="205" y="47" width="2437" height="1755"/>
  </clipPath>
</defs>
<polyline clip-path="url(#clip312)" style="stroke:#000000; stroke-linecap:butt; stroke-linejoin:round; stroke-width:2; stroke-opacity:0.1; fill:none" points="
  273.992,1800.78 273.992,47.2441 
  "/>
<polyline clip-path="url(#clip312)" style="stroke:#000000; stroke-linecap:butt; stroke-linejoin:round; stroke-width:2; stroke-opacity:0.1; fill:none" points="
  1039.93,1800.78 1039.93,47.2441 
  "/>
<polyline clip-path="url(#clip312)" style="stroke:#000000; stroke-linecap:butt; stroke-linejoin:round; stroke-width:2; stroke-opacity:0.1; fill:none" points="
  1805.88,1800.78 1805.88,47.2441 
  "/>
<polyline clip-path="url(#clip312)" style="stroke:#000000; stroke-linecap:butt; stroke-linejoin:round; stroke-width:2; stroke-opacity:0.1; fill:none" points="
  2571.82,1800.78 2571.82,47.2441 
  "/>
<polyline clip-path="url(#clip310)" style="stroke:#000000; stroke-linecap:butt; stroke-linejoin:round; stroke-width:4; stroke-opacity:1; fill:none" points="
  205.057,1800.78 2640.76,1800.78 
  "/>
<polyline clip-path="url(#clip310)" style="stroke:#000000; stroke-linecap:butt; stroke-linejoin:round; stroke-width:4; stroke-opacity:1; fill:none" points="
  273.992,1800.78 273.992,1781.88 
  "/>
<polyline clip-path="url(#clip310)" style="stroke:#000000; stroke-linecap:butt; stroke-linejoin:round; stroke-width:4; stroke-opacity:1; fill:none" points="
  1039.93,1800.78 1039.93,1781.88 
  "/>
<polyline clip-path="url(#clip310)" style="stroke:#000000; stroke-linecap:butt; stroke-linejoin:round; stroke-width:4; stroke-opacity:1; fill:none" points="
  1805.88,1800.78 1805.88,1781.88 
  "/>
<polyline clip-path="url(#clip310)" style="stroke:#000000; stroke-linecap:butt; stroke-linejoin:round; stroke-width:4; stroke-opacity:1; fill:none" points="
  2571.82,1800.78 2571.82,1781.88 
  "/>
<path clip-path="url(#clip310)" d="M273.992 1834 Q270.38 1834 268.552 1837.57 Q266.746 1841.11 266.746 1848.24 Q266.746 1855.34 268.552 1858.91 Q270.38 1862.45 273.992 1862.45 Q277.626 1862.45 279.431 1858.91 Q281.26 1855.34 281.26 1848.24 Q281.26 1841.11 279.431 1837.57 Q277.626 1834 273.992 1834 M273.992 1830.3 Q279.802 1830.3 282.857 1834.9 Q285.936 1839.49 285.936 1848.24 Q285.936 1856.96 282.857 1861.57 Q279.802 1866.15 273.992 1866.15 Q268.181 1866.15 265.103 1861.57 Q262.047 1856.96 262.047 1848.24 Q262.047 1839.49 265.103 1834.9 Q268.181 1830.3 273.992 1830.3 Z" fill="#000000" fill-rule="evenodd" fill-opacity="1" /><path clip-path="url(#clip310)" d="M1030.32 1861.55 L1037.96 1861.55 L1037.96 1835.18 L1029.65 1836.85 L1029.65 1832.59 L1037.91 1830.92 L1042.59 1830.92 L1042.59 1861.55 L1050.22 1861.55 L1050.22 1865.48 L1030.32 1865.48 L1030.32 1861.55 Z" fill="#000000" fill-rule="evenodd" fill-opacity="1" /><path clip-path="url(#clip310)" d="M1800.53 1861.55 L1816.85 1861.55 L1816.85 1865.48 L1794.91 1865.48 L1794.91 1861.55 Q1797.57 1858.79 1802.15 1854.16 Q1806.76 1849.51 1807.94 1848.17 Q1810.18 1845.65 1811.06 1843.91 Q1811.97 1842.15 1811.97 1840.46 Q1811.97 1837.71 1810.02 1835.97 Q1808.1 1834.23 1805 1834.23 Q1802.8 1834.23 1800.35 1835 Q1797.91 1835.76 1795.14 1837.31 L1795.14 1832.59 Q1797.96 1831.46 1800.41 1830.88 Q1802.87 1830.3 1804.91 1830.3 Q1810.28 1830.3 1813.47 1832.98 Q1816.66 1835.67 1816.66 1840.16 Q1816.66 1842.29 1815.85 1844.21 Q1815.07 1846.11 1812.96 1848.7 Q1812.38 1849.37 1809.28 1852.59 Q1806.18 1855.78 1800.53 1861.55 Z" fill="#000000" fill-rule="evenodd" fill-opacity="1" /><path clip-path="url(#clip310)" d="M2576.07 1846.85 Q2579.43 1847.57 2581.3 1849.84 Q2583.2 1852.1 2583.2 1855.44 Q2583.2 1860.55 2579.68 1863.35 Q2576.16 1866.15 2569.68 1866.15 Q2567.5 1866.15 2565.19 1865.71 Q2562.9 1865.3 2560.44 1864.44 L2560.44 1859.93 Q2562.39 1861.06 2564.7 1861.64 Q2567.02 1862.22 2569.54 1862.22 Q2573.94 1862.22 2576.23 1860.48 Q2578.55 1858.75 2578.55 1855.44 Q2578.55 1852.38 2576.39 1850.67 Q2574.26 1848.93 2570.44 1848.93 L2566.42 1848.93 L2566.42 1845.09 L2570.63 1845.09 Q2574.08 1845.09 2575.91 1843.72 Q2577.74 1842.34 2577.74 1839.74 Q2577.74 1837.08 2575.84 1835.67 Q2573.96 1834.23 2570.44 1834.23 Q2568.52 1834.23 2566.32 1834.65 Q2564.12 1835.07 2561.49 1835.95 L2561.49 1831.78 Q2564.15 1831.04 2566.46 1830.67 Q2568.8 1830.3 2570.86 1830.3 Q2576.18 1830.3 2579.29 1832.73 Q2582.39 1835.14 2582.39 1839.26 Q2582.39 1842.13 2580.74 1844.12 Q2579.1 1846.09 2576.07 1846.85 Z" fill="#000000" fill-rule="evenodd" fill-opacity="1" /><polyline clip-path="url(#clip312)" style="stroke:#000000; stroke-linecap:butt; stroke-linejoin:round; stroke-width:2; stroke-opacity:0.1; fill:none" points="
  205.057,1751.24 2640.76,1751.24 
  "/>
<polyline clip-path="url(#clip312)" style="stroke:#000000; stroke-linecap:butt; stroke-linejoin:round; stroke-width:2; stroke-opacity:0.1; fill:none" points="
  205.057,1498.79 2640.76,1498.79 
  "/>
<polyline clip-path="url(#clip312)" style="stroke:#000000; stroke-linecap:butt; stroke-linejoin:round; stroke-width:2; stroke-opacity:0.1; fill:none" points="
  205.057,1246.35 2640.76,1246.35 
  "/>
<polyline clip-path="url(#clip312)" style="stroke:#000000; stroke-linecap:butt; stroke-linejoin:round; stroke-width:2; stroke-opacity:0.1; fill:none" points="
  205.057,993.913 2640.76,993.913 
  "/>
<polyline clip-path="url(#clip312)" style="stroke:#000000; stroke-linecap:butt; stroke-linejoin:round; stroke-width:2; stroke-opacity:0.1; fill:none" points="
  205.057,741.472 2640.76,741.472 
  "/>
<polyline clip-path="url(#clip312)" style="stroke:#000000; stroke-linecap:butt; stroke-linejoin:round; stroke-width:2; stroke-opacity:0.1; fill:none" points="
  205.057,489.031 2640.76,489.031 
  "/>
<polyline clip-path="url(#clip312)" style="stroke:#000000; stroke-linecap:butt; stroke-linejoin:round; stroke-width:2; stroke-opacity:0.1; fill:none" points="
  205.057,236.591 2640.76,236.591 
  "/>
<polyline clip-path="url(#clip310)" style="stroke:#000000; stroke-linecap:butt; stroke-linejoin:round; stroke-width:4; stroke-opacity:1; fill:none" points="
  205.057,1800.78 205.057,47.2441 
  "/>
<polyline clip-path="url(#clip310)" style="stroke:#000000; stroke-linecap:butt; stroke-linejoin:round; stroke-width:4; stroke-opacity:1; fill:none" points="
  205.057,1751.24 223.954,1751.24 
  "/>
<polyline clip-path="url(#clip310)" style="stroke:#000000; stroke-linecap:butt; stroke-linejoin:round; stroke-width:4; stroke-opacity:1; fill:none" points="
  205.057,1498.79 223.954,1498.79 
  "/>
<polyline clip-path="url(#clip310)" style="stroke:#000000; stroke-linecap:butt; stroke-linejoin:round; stroke-width:4; stroke-opacity:1; fill:none" points="
  205.057,1246.35 223.954,1246.35 
  "/>
<polyline clip-path="url(#clip310)" style="stroke:#000000; stroke-linecap:butt; stroke-linejoin:round; stroke-width:4; stroke-opacity:1; fill:none" points="
  205.057,993.913 223.954,993.913 
  "/>
<polyline clip-path="url(#clip310)" style="stroke:#000000; stroke-linecap:butt; stroke-linejoin:round; stroke-width:4; stroke-opacity:1; fill:none" points="
  205.057,741.472 223.954,741.472 
  "/>
<polyline clip-path="url(#clip310)" style="stroke:#000000; stroke-linecap:butt; stroke-linejoin:round; stroke-width:4; stroke-opacity:1; fill:none" points="
  205.057,489.031 223.954,489.031 
  "/>
<polyline clip-path="url(#clip310)" style="stroke:#000000; stroke-linecap:butt; stroke-linejoin:round; stroke-width:4; stroke-opacity:1; fill:none" points="
  205.057,236.591 223.954,236.591 
  "/>
<path clip-path="url(#clip310)" d="M152.792 1737.03 Q149.181 1737.03 147.353 1740.6 Q145.547 1744.14 145.547 1751.27 Q145.547 1758.38 147.353 1761.94 Q149.181 1765.48 152.792 1765.48 Q156.427 1765.48 158.232 1761.94 Q160.061 1758.38 160.061 1751.27 Q160.061 1744.14 158.232 1740.6 Q156.427 1737.03 152.792 1737.03 M152.792 1733.33 Q158.602 1733.33 161.658 1737.94 Q164.737 1742.52 164.737 1751.27 Q164.737 1760 161.658 1764.6 Q158.602 1769.19 152.792 1769.19 Q146.982 1769.19 143.903 1764.6 Q140.848 1760 140.848 1751.27 Q140.848 1742.52 143.903 1737.94 Q146.982 1733.33 152.792 1733.33 Z" fill="#000000" fill-rule="evenodd" fill-opacity="1" /><path clip-path="url(#clip310)" d="M53.1169 1512.14 L60.7558 1512.14 L60.7558 1485.77 L52.4456 1487.44 L52.4456 1483.18 L60.7095 1481.51 L65.3854 1481.51 L65.3854 1512.14 L73.0242 1512.14 L73.0242 1516.07 L53.1169 1516.07 L53.1169 1512.14 Z" fill="#000000" fill-rule="evenodd" fill-opacity="1" /><path clip-path="url(#clip310)" d="M92.4686 1484.59 Q88.8575 1484.59 87.0288 1488.16 Q85.2232 1491.7 85.2232 1498.83 Q85.2232 1505.94 87.0288 1509.5 Q88.8575 1513.04 92.4686 1513.04 Q96.1028 1513.04 97.9083 1509.5 Q99.737 1505.94 99.737 1498.83 Q99.737 1491.7 97.9083 1488.16 Q96.1028 1484.59 92.4686 1484.59 M92.4686 1480.89 Q98.2787 1480.89 101.334 1485.5 Q104.413 1490.08 104.413 1498.83 Q104.413 1507.56 101.334 1512.16 Q98.2787 1516.75 92.4686 1516.75 Q86.6584 1516.75 83.5797 1512.16 Q80.5242 1507.56 80.5242 1498.83 Q80.5242 1490.08 83.5797 1485.5 Q86.6584 1480.89 92.4686 1480.89 Z" fill="#000000" fill-rule="evenodd" fill-opacity="1" /><path clip-path="url(#clip310)" d="M122.63 1484.59 Q119.019 1484.59 117.191 1488.16 Q115.385 1491.7 115.385 1498.83 Q115.385 1505.94 117.191 1509.5 Q119.019 1513.04 122.63 1513.04 Q126.265 1513.04 128.07 1509.5 Q129.899 1505.94 129.899 1498.83 Q129.899 1491.7 128.07 1488.16 Q126.265 1484.59 122.63 1484.59 M122.63 1480.89 Q128.441 1480.89 131.496 1485.5 Q134.575 1490.08 134.575 1498.83 Q134.575 1507.56 131.496 1512.16 Q128.441 1516.75 122.63 1516.75 Q116.82 1516.75 113.742 1512.16 Q110.686 1507.56 110.686 1498.83 Q110.686 1490.08 113.742 1485.5 Q116.82 1480.89 122.63 1480.89 Z" fill="#000000" fill-rule="evenodd" fill-opacity="1" /><path clip-path="url(#clip310)" d="M152.792 1484.59 Q149.181 1484.59 147.353 1488.16 Q145.547 1491.7 145.547 1498.83 Q145.547 1505.94 147.353 1509.5 Q149.181 1513.04 152.792 1513.04 Q156.427 1513.04 158.232 1509.5 Q160.061 1505.94 160.061 1498.83 Q160.061 1491.7 158.232 1488.16 Q156.427 1484.59 152.792 1484.59 M152.792 1480.89 Q158.602 1480.89 161.658 1485.5 Q164.737 1490.08 164.737 1498.83 Q164.737 1507.56 161.658 1512.16 Q158.602 1516.75 152.792 1516.75 Q146.982 1516.75 143.903 1512.16 Q140.848 1507.56 140.848 1498.83 Q140.848 1490.08 143.903 1485.5 Q146.982 1480.89 152.792 1480.89 Z" fill="#000000" fill-rule="evenodd" fill-opacity="1" /><path clip-path="url(#clip310)" d="M56.3345 1259.7 L72.6539 1259.7 L72.6539 1263.63 L50.7095 1263.63 L50.7095 1259.7 Q53.3715 1256.94 57.9549 1252.31 Q62.5613 1247.66 63.7419 1246.32 Q65.9872 1243.8 66.8668 1242.06 Q67.7696 1240.3 67.7696 1238.61 Q67.7696 1235.86 65.8252 1234.12 Q63.9039 1232.38 60.8021 1232.38 Q58.603 1232.38 56.1493 1233.15 Q53.7188 1233.91 50.941 1235.46 L50.941 1230.74 Q53.7651 1229.61 56.2188 1229.03 Q58.6724 1228.45 60.7095 1228.45 Q66.0798 1228.45 69.2742 1231.13 Q72.4687 1233.82 72.4687 1238.31 Q72.4687 1240.44 71.6585 1242.36 Q70.8715 1244.26 68.765 1246.85 Q68.1863 1247.52 65.0845 1250.74 Q61.9826 1253.93 56.3345 1259.7 Z" fill="#000000" fill-rule="evenodd" fill-opacity="1" /><path clip-path="url(#clip310)" d="M92.4686 1232.15 Q88.8575 1232.15 87.0288 1235.72 Q85.2232 1239.26 85.2232 1246.39 Q85.2232 1253.49 87.0288 1257.06 Q88.8575 1260.6 92.4686 1260.6 Q96.1028 1260.6 97.9083 1257.06 Q99.737 1253.49 99.737 1246.39 Q99.737 1239.26 97.9083 1235.72 Q96.1028 1232.15 92.4686 1232.15 M92.4686 1228.45 Q98.2787 1228.45 101.334 1233.06 Q104.413 1237.64 104.413 1246.39 Q104.413 1255.12 101.334 1259.72 Q98.2787 1264.3 92.4686 1264.3 Q86.6584 1264.3 83.5797 1259.72 Q80.5242 1255.12 80.5242 1246.39 Q80.5242 1237.64 83.5797 1233.06 Q86.6584 1228.45 92.4686 1228.45 Z" fill="#000000" fill-rule="evenodd" fill-opacity="1" /><path clip-path="url(#clip310)" d="M122.63 1232.15 Q119.019 1232.15 117.191 1235.72 Q115.385 1239.26 115.385 1246.39 Q115.385 1253.49 117.191 1257.06 Q119.019 1260.6 122.63 1260.6 Q126.265 1260.6 128.07 1257.06 Q129.899 1253.49 129.899 1246.39 Q129.899 1239.26 128.07 1235.72 Q126.265 1232.15 122.63 1232.15 M122.63 1228.45 Q128.441 1228.45 131.496 1233.06 Q134.575 1237.64 134.575 1246.39 Q134.575 1255.12 131.496 1259.72 Q128.441 1264.3 122.63 1264.3 Q116.82 1264.3 113.742 1259.72 Q110.686 1255.12 110.686 1246.39 Q110.686 1237.64 113.742 1233.06 Q116.82 1228.45 122.63 1228.45 Z" fill="#000000" fill-rule="evenodd" fill-opacity="1" /><path clip-path="url(#clip310)" d="M152.792 1232.15 Q149.181 1232.15 147.353 1235.72 Q145.547 1239.26 145.547 1246.39 Q145.547 1253.49 147.353 1257.06 Q149.181 1260.6 152.792 1260.6 Q156.427 1260.6 158.232 1257.06 Q160.061 1253.49 160.061 1246.39 Q160.061 1239.26 158.232 1235.72 Q156.427 1232.15 152.792 1232.15 M152.792 1228.45 Q158.602 1228.45 161.658 1233.06 Q164.737 1237.64 164.737 1246.39 Q164.737 1255.12 161.658 1259.72 Q158.602 1264.3 152.792 1264.3 Q146.982 1264.3 143.903 1259.72 Q140.848 1255.12 140.848 1246.39 Q140.848 1237.64 143.903 1233.06 Q146.982 1228.45 152.792 1228.45 Z" fill="#000000" fill-rule="evenodd" fill-opacity="1" /><path clip-path="url(#clip310)" d="M66.4733 992.559 Q69.8298 993.276 71.7048 995.545 Q73.6029 997.813 73.6029 1001.15 Q73.6029 1006.26 70.0844 1009.06 Q66.5659 1011.86 60.0845 1011.86 Q57.9086 1011.86 55.5938 1011.42 Q53.3021 1011.01 50.8484 1010.15 L50.8484 1005.64 Q52.7928 1006.77 55.1077 1007.35 Q57.4225 1007.93 59.9456 1007.93 Q64.3437 1007.93 66.6354 1006.19 Q68.9502 1004.46 68.9502 1001.15 Q68.9502 998.091 66.7974 996.378 Q64.6678 994.642 60.8484 994.642 L56.8206 994.642 L56.8206 990.8 L61.0335 990.8 Q64.4826 990.8 66.3113 989.434 Q68.14 988.045 68.14 985.452 Q68.14 982.79 66.2419 981.378 Q64.3669 979.943 60.8484 979.943 Q58.9271 979.943 56.728 980.36 Q54.529 980.776 51.8901 981.656 L51.8901 977.489 Q54.5521 976.749 56.8669 976.378 Q59.2049 976.008 61.265 976.008 Q66.5891 976.008 69.6909 978.438 Q72.7927 980.846 72.7927 984.966 Q72.7927 987.837 71.1492 989.827 Q69.5057 991.795 66.4733 992.559 Z" fill="#000000" fill-rule="evenodd" fill-opacity="1" /><path clip-path="url(#clip310)" d="M92.4686 979.712 Q88.8575 979.712 87.0288 983.276 Q85.2232 986.818 85.2232 993.948 Q85.2232 1001.05 87.0288 1004.62 Q88.8575 1008.16 92.4686 1008.16 Q96.1028 1008.16 97.9083 1004.62 Q99.737 1001.05 99.737 993.948 Q99.737 986.818 97.9083 983.276 Q96.1028 979.712 92.4686 979.712 M92.4686 976.008 Q98.2787 976.008 101.334 980.614 Q104.413 985.198 104.413 993.948 Q104.413 1002.67 101.334 1007.28 Q98.2787 1011.86 92.4686 1011.86 Q86.6584 1011.86 83.5797 1007.28 Q80.5242 1002.67 80.5242 993.948 Q80.5242 985.198 83.5797 980.614 Q86.6584 976.008 92.4686 976.008 Z" fill="#000000" fill-rule="evenodd" fill-opacity="1" /><path clip-path="url(#clip310)" d="M122.63 979.712 Q119.019 979.712 117.191 983.276 Q115.385 986.818 115.385 993.948 Q115.385 1001.05 117.191 1004.62 Q119.019 1008.16 122.63 1008.16 Q126.265 1008.16 128.07 1004.62 Q129.899 1001.05 129.899 993.948 Q129.899 986.818 128.07 983.276 Q126.265 979.712 122.63 979.712 M122.63 976.008 Q128.441 976.008 131.496 980.614 Q134.575 985.198 134.575 993.948 Q134.575 1002.67 131.496 1007.28 Q128.441 1011.86 122.63 1011.86 Q116.82 1011.86 113.742 1007.28 Q110.686 1002.67 110.686 993.948 Q110.686 985.198 113.742 980.614 Q116.82 976.008 122.63 976.008 Z" fill="#000000" fill-rule="evenodd" fill-opacity="1" /><path clip-path="url(#clip310)" d="M152.792 979.712 Q149.181 979.712 147.353 983.276 Q145.547 986.818 145.547 993.948 Q145.547 1001.05 147.353 1004.62 Q149.181 1008.16 152.792 1008.16 Q156.427 1008.16 158.232 1004.62 Q160.061 1001.05 160.061 993.948 Q160.061 986.818 158.232 983.276 Q156.427 979.712 152.792 979.712 M152.792 976.008 Q158.602 976.008 161.658 980.614 Q164.737 985.198 164.737 993.948 Q164.737 1002.67 161.658 1007.28 Q158.602 1011.86 152.792 1011.86 Q146.982 1011.86 143.903 1007.28 Q140.848 1002.67 140.848 993.948 Q140.848 985.198 143.903 980.614 Q146.982 976.008 152.792 976.008 Z" fill="#000000" fill-rule="evenodd" fill-opacity="1" /><path clip-path="url(#clip310)" d="M65.1539 728.266 L53.3484 746.715 L65.1539 746.715 L65.1539 728.266 M63.927 724.192 L69.8066 724.192 L69.8066 746.715 L74.7372 746.715 L74.7372 750.604 L69.8066 750.604 L69.8066 758.752 L65.1539 758.752 L65.1539 750.604 L49.5521 750.604 L49.5521 746.09 L63.927 724.192 Z" fill="#000000" fill-rule="evenodd" fill-opacity="1" /><path clip-path="url(#clip310)" d="M92.4686 727.271 Q88.8575 727.271 87.0288 730.836 Q85.2232 734.377 85.2232 741.507 Q85.2232 748.613 87.0288 752.178 Q88.8575 755.72 92.4686 755.72 Q96.1028 755.72 97.9083 752.178 Q99.737 748.613 99.737 741.507 Q99.737 734.377 97.9083 730.836 Q96.1028 727.271 92.4686 727.271 M92.4686 723.567 Q98.2787 723.567 101.334 728.174 Q104.413 732.757 104.413 741.507 Q104.413 750.234 101.334 754.84 Q98.2787 759.424 92.4686 759.424 Q86.6584 759.424 83.5797 754.84 Q80.5242 750.234 80.5242 741.507 Q80.5242 732.757 83.5797 728.174 Q86.6584 723.567 92.4686 723.567 Z" fill="#000000" fill-rule="evenodd" fill-opacity="1" /><path clip-path="url(#clip310)" d="M122.63 727.271 Q119.019 727.271 117.191 730.836 Q115.385 734.377 115.385 741.507 Q115.385 748.613 117.191 752.178 Q119.019 755.72 122.63 755.72 Q126.265 755.72 128.07 752.178 Q129.899 748.613 129.899 741.507 Q129.899 734.377 128.07 730.836 Q126.265 727.271 122.63 727.271 M122.63 723.567 Q128.441 723.567 131.496 728.174 Q134.575 732.757 134.575 741.507 Q134.575 750.234 131.496 754.84 Q128.441 759.424 122.63 759.424 Q116.82 759.424 113.742 754.84 Q110.686 750.234 110.686 741.507 Q110.686 732.757 113.742 728.174 Q116.82 723.567 122.63 723.567 Z" fill="#000000" fill-rule="evenodd" fill-opacity="1" /><path clip-path="url(#clip310)" d="M152.792 727.271 Q149.181 727.271 147.353 730.836 Q145.547 734.377 145.547 741.507 Q145.547 748.613 147.353 752.178 Q149.181 755.72 152.792 755.72 Q156.427 755.72 158.232 752.178 Q160.061 748.613 160.061 741.507 Q160.061 734.377 158.232 730.836 Q156.427 727.271 152.792 727.271 M152.792 723.567 Q158.602 723.567 161.658 728.174 Q164.737 732.757 164.737 741.507 Q164.737 750.234 161.658 754.84 Q158.602 759.424 152.792 759.424 Q146.982 759.424 143.903 754.84 Q140.848 750.234 140.848 741.507 Q140.848 732.757 143.903 728.174 Q146.982 723.567 152.792 723.567 Z" fill="#000000" fill-rule="evenodd" fill-opacity="1" /><path clip-path="url(#clip310)" d="M52.353 471.751 L70.7094 471.751 L70.7094 475.687 L56.6354 475.687 L56.6354 484.159 Q57.6539 483.812 58.6724 483.65 Q59.691 483.464 60.7095 483.464 Q66.4965 483.464 69.8761 486.636 Q73.2557 489.807 73.2557 495.224 Q73.2557 500.802 69.7835 503.904 Q66.3113 506.983 59.9919 506.983 Q57.816 506.983 55.5475 506.612 Q53.3021 506.242 50.8947 505.501 L50.8947 500.802 Q52.978 501.937 55.2002 502.492 Q57.4225 503.048 59.8993 503.048 Q63.9039 503.048 66.2419 500.941 Q68.5798 498.835 68.5798 495.224 Q68.5798 491.612 66.2419 489.506 Q63.9039 487.4 59.8993 487.4 Q58.0243 487.4 56.1493 487.816 Q54.2975 488.233 52.353 489.113 L52.353 471.751 Z" fill="#000000" fill-rule="evenodd" fill-opacity="1" /><path clip-path="url(#clip310)" d="M92.4686 474.83 Q88.8575 474.83 87.0288 478.395 Q85.2232 481.937 85.2232 489.066 Q85.2232 496.173 87.0288 499.737 Q88.8575 503.279 92.4686 503.279 Q96.1028 503.279 97.9083 499.737 Q99.737 496.173 99.737 489.066 Q99.737 481.937 97.9083 478.395 Q96.1028 474.83 92.4686 474.83 M92.4686 471.126 Q98.2787 471.126 101.334 475.733 Q104.413 480.316 104.413 489.066 Q104.413 497.793 101.334 502.399 Q98.2787 506.983 92.4686 506.983 Q86.6584 506.983 83.5797 502.399 Q80.5242 497.793 80.5242 489.066 Q80.5242 480.316 83.5797 475.733 Q86.6584 471.126 92.4686 471.126 Z" fill="#000000" fill-rule="evenodd" fill-opacity="1" /><path clip-path="url(#clip310)" d="M122.63 474.83 Q119.019 474.83 117.191 478.395 Q115.385 481.937 115.385 489.066 Q115.385 496.173 117.191 499.737 Q119.019 503.279 122.63 503.279 Q126.265 503.279 128.07 499.737 Q129.899 496.173 129.899 489.066 Q129.899 481.937 128.07 478.395 Q126.265 474.83 122.63 474.83 M122.63 471.126 Q128.441 471.126 131.496 475.733 Q134.575 480.316 134.575 489.066 Q134.575 497.793 131.496 502.399 Q128.441 506.983 122.63 506.983 Q116.82 506.983 113.742 502.399 Q110.686 497.793 110.686 489.066 Q110.686 480.316 113.742 475.733 Q116.82 471.126 122.63 471.126 Z" fill="#000000" fill-rule="evenodd" fill-opacity="1" /><path clip-path="url(#clip310)" d="M152.792 474.83 Q149.181 474.83 147.353 478.395 Q145.547 481.937 145.547 489.066 Q145.547 496.173 147.353 499.737 Q149.181 503.279 152.792 503.279 Q156.427 503.279 158.232 499.737 Q160.061 496.173 160.061 489.066 Q160.061 481.937 158.232 478.395 Q156.427 474.83 152.792 474.83 M152.792 471.126 Q158.602 471.126 161.658 475.733 Q164.737 480.316 164.737 489.066 Q164.737 497.793 161.658 502.399 Q158.602 506.983 152.792 506.983 Q146.982 506.983 143.903 502.399 Q140.848 497.793 140.848 489.066 Q140.848 480.316 143.903 475.733 Q146.982 471.126 152.792 471.126 Z" fill="#000000" fill-rule="evenodd" fill-opacity="1" /><path clip-path="url(#clip310)" d="M62.8854 234.727 Q59.7373 234.727 57.8854 236.88 Q56.0567 239.033 56.0567 242.783 Q56.0567 246.51 57.8854 248.686 Q59.7373 250.838 62.8854 250.838 Q66.0335 250.838 67.8622 248.686 Q69.7141 246.51 69.7141 242.783 Q69.7141 239.033 67.8622 236.88 Q66.0335 234.727 62.8854 234.727 M72.1677 220.075 L72.1677 224.334 Q70.4085 223.501 68.6029 223.061 Q66.8206 222.621 65.0613 222.621 Q60.4317 222.621 57.978 225.746 Q55.5475 228.871 55.2002 235.19 Q56.566 233.176 58.6262 232.112 Q60.6863 231.024 63.1632 231.024 Q68.3715 231.024 71.3807 234.195 Q74.4131 237.343 74.4131 242.783 Q74.4131 248.107 71.265 251.324 Q68.1168 254.542 62.8854 254.542 Q56.89 254.542 53.7188 249.959 Q50.5475 245.352 50.5475 236.625 Q50.5475 228.431 54.4364 223.57 Q58.3252 218.686 64.8761 218.686 Q66.6354 218.686 68.4178 219.033 Q70.2233 219.38 72.1677 220.075 Z" fill="#000000" fill-rule="evenodd" fill-opacity="1" /><path clip-path="url(#clip310)" d="M92.4686 222.389 Q88.8575 222.389 87.0288 225.954 Q85.2232 229.496 85.2232 236.625 Q85.2232 243.732 87.0288 247.297 Q88.8575 250.838 92.4686 250.838 Q96.1028 250.838 97.9083 247.297 Q99.737 243.732 99.737 236.625 Q99.737 229.496 97.9083 225.954 Q96.1028 222.389 92.4686 222.389 M92.4686 218.686 Q98.2787 218.686 101.334 223.292 Q104.413 227.876 104.413 236.625 Q104.413 245.352 101.334 249.959 Q98.2787 254.542 92.4686 254.542 Q86.6584 254.542 83.5797 249.959 Q80.5242 245.352 80.5242 236.625 Q80.5242 227.876 83.5797 223.292 Q86.6584 218.686 92.4686 218.686 Z" fill="#000000" fill-rule="evenodd" fill-opacity="1" /><path clip-path="url(#clip310)" d="M122.63 222.389 Q119.019 222.389 117.191 225.954 Q115.385 229.496 115.385 236.625 Q115.385 243.732 117.191 247.297 Q119.019 250.838 122.63 250.838 Q126.265 250.838 128.07 247.297 Q129.899 243.732 129.899 236.625 Q129.899 229.496 128.07 225.954 Q126.265 222.389 122.63 222.389 M122.63 218.686 Q128.441 218.686 131.496 223.292 Q134.575 227.876 134.575 236.625 Q134.575 245.352 131.496 249.959 Q128.441 254.542 122.63 254.542 Q116.82 254.542 113.742 249.959 Q110.686 245.352 110.686 236.625 Q110.686 227.876 113.742 223.292 Q116.82 218.686 122.63 218.686 Z" fill="#000000" fill-rule="evenodd" fill-opacity="1" /><path clip-path="url(#clip310)" d="M152.792 222.389 Q149.181 222.389 147.353 225.954 Q145.547 229.496 145.547 236.625 Q145.547 243.732 147.353 247.297 Q149.181 250.838 152.792 250.838 Q156.427 250.838 158.232 247.297 Q160.061 243.732 160.061 236.625 Q160.061 229.496 158.232 225.954 Q156.427 222.389 152.792 222.389 M152.792 218.686 Q158.602 218.686 161.658 223.292 Q164.737 227.876 164.737 236.625 Q164.737 245.352 161.658 249.959 Q158.602 254.542 152.792 254.542 Q146.982 254.542 143.903 249.959 Q140.848 245.352 140.848 236.625 Q140.848 227.876 143.903 223.292 Q146.982 218.686 152.792 218.686 Z" fill="#000000" fill-rule="evenodd" fill-opacity="1" /><polyline clip-path="url(#clip312)" style="stroke:#009af9; stroke-linecap:butt; stroke-linejoin:round; stroke-width:4; stroke-opacity:1; fill:none" points="
  274.108,96.8724 274.225,924.054 274.342,1199.78 274.459,1337.64 274.576,1420.36 274.693,1475.51 274.81,1514.9 274.927,1544.44 275.043,1567.42 275.16,1585.8 
  275.277,1600.84 275.394,1613.37 275.511,1623.98 275.628,1633.07 275.745,1640.94 275.862,1647.84 275.978,1653.92 276.095,1659.33 276.212,1664.16 276.329,1668.52 
  276.563,1676.04 276.797,1682.3 277.03,1687.61 277.264,1692.15 277.498,1696.09 277.732,1699.54 277.965,1702.58 278.199,1705.28 278.433,1707.7 278.667,1709.88 
  279.134,1713.64 279.602,1716.77 280.069,1719.42 280.537,1721.69 281.004,1723.66 281.472,1725.39 281.939,1726.91 282.407,1728.26 282.874,1729.47 283.342,1730.56 
  284.277,1732.44 285.212,1734 286.147,1735.33 287.082,1736.46 287.549,1736.97 288.017,1737.45 288.484,1737.89 288.952,1738.31 293.274,1741.21 297.597,1743.04 
  301.92,1744.31 306.243,1745.24 314.888,1746.51 323.534,1747.33 332.179,1747.91 340.825,1748.34 349.47,1748.67 358.116,1748.94 375.407,1749.33 392.698,1749.61 
  409.989,1749.81 427.28,1749.97 448.062,1750.12 468.844,1750.24 489.627,1750.34 510.409,1750.42 545.551,1750.52 580.694,1750.6 618.868,1750.67 657.043,1750.73 
  692.236,1750.77 727.43,1750.81 802.892,1750.87 890.323,1750.92 968.02,1750.96 1036.15,1750.98 1110.44,1751 1185.16,1751.02 1267.78,1751.04 1346.39,1751.05 
  1428.13,1751.07 1496.93,1751.08 1580.94,1751.09 1657.89,1751.1 1728.96,1751.1 1800.95,1751.11 1881.63,1751.11 1954.75,1751.12 2038.45,1751.13 2115.96,1751.13 
  2192.37,1751.13 2266.56,1751.14 2342.62,1751.14 2425.94,1751.15 2546.99,1751.15 2571.82,1751.15 
  "/>
<path clip-path="url(#clip310)" d="
M2236.5 209.375 L2559.57 209.375 L2559.57 105.695 L2236.5 105.695  Z
  " fill="#ffffff" fill-rule="evenodd" fill-opacity="1"/>
<polyline clip-path="url(#clip310)" style="stroke:#000000; stroke-linecap:butt; stroke-linejoin:round; stroke-width:4; stroke-opacity:1; fill:none" points="
  2236.5,209.375 2559.57,209.375 2559.57,105.695 2236.5,105.695 2236.5,209.375 
  "/>
<polyline clip-path="url(#clip310)" style="stroke:#009af9; stroke-linecap:butt; stroke-linejoin:round; stroke-width:4; stroke-opacity:1; fill:none" points="
  2263.57,157.535 2425.95,157.535 
  "/>
<path clip-path="url(#clip310)" d="M2466.85 177.223 Q2465.05 181.852 2463.33 183.264 Q2461.62 184.676 2458.75 184.676 L2455.35 184.676 L2455.35 181.112 L2457.85 181.112 Q2459.61 181.112 2460.58 180.278 Q2461.55 179.445 2462.73 176.343 L2463.5 174.399 L2453.01 148.889 L2457.52 148.889 L2465.62 169.167 L2473.73 148.889 L2478.24 148.889 L2466.85 177.223 Z" fill="#000000" fill-rule="evenodd" fill-opacity="1" /><path clip-path="url(#clip310)" d="M2485.53 170.88 L2493.17 170.88 L2493.17 144.515 L2484.86 146.181 L2484.86 141.922 L2493.12 140.255 L2497.8 140.255 L2497.8 170.88 L2505.44 170.88 L2505.44 174.815 L2485.53 174.815 L2485.53 170.88 Z" fill="#000000" fill-rule="evenodd" fill-opacity="1" /></svg>
