<?xml version="1.0" encoding="utf-8"?>
<svg xmlns="http://www.w3.org/2000/svg" xmlns:xlink="http://www.w3.org/1999/xlink" width="672" height="480" viewBox="0 0 2688 1920">
<defs>
  <clipPath id="clip560">
    <rect x="0" y="0" width="2688" height="1920"/>
  </clipPath>
</defs>
<path clip-path="url(#clip560)" d="
M0 1920 L2688 1920 L2688 0 L0 0  Z
  " fill="#ffffff" fill-rule="evenodd" fill-opacity="1"/>
<defs>
  <clipPath id="clip561">
    <rect x="537" y="0" width="1883" height="1883"/>
  </clipPath>
</defs>
<path clip-path="url(#clip560)" d="
M211.909 1800.78 L2640.76 1800.78 L2640.76 47.2441 L211.909 47.2441  Z
  " fill="#ffffff" fill-rule="evenodd" fill-opacity="1"/>
<defs>
  <clipPath id="clip562">
    <rect x="211" y="47" width="2430" height="1755"/>
  </clipPath>
</defs>
<polyline clip-path="url(#clip562)" style="stroke:#000000; stroke-linecap:butt; stroke-linejoin:round; stroke-width:2; stroke-opacity:0.1; fill:none" points="
  280.649,1800.78 280.649,47.2441 
  "/>
<polyline clip-path="url(#clip562)" style="stroke:#000000; stroke-linecap:butt; stroke-linejoin:round; stroke-width:2; stroke-opacity:0.1; fill:none" points="
  662.544,1800.78 662.544,47.2441 
  "/>
<polyline clip-path="url(#clip562)" style="stroke:#000000; stroke-linecap:butt; stroke-linejoin:round; stroke-width:2; stroke-opacity:0.1; fill:none" points="
  1044.44,1800.78 1044.44,47.2441 
  "/>
<polyline clip-path="url(#clip562)" style="stroke:#000000; stroke-linecap:butt; stroke-linejoin:round; stroke-width:2; stroke-opacity:0.1; fill:none" points="
  1426.33,1800.78 1426.33,47.2441 
  "/>
<polyline clip-path="url(#clip562)" style="stroke:#000000; stroke-linecap:butt; stroke-linejoin:round; stroke-width:2; stroke-opacity:0.1; fill:none" points="
  1808.23,1800.78 1808.23,47.2441 
  "/>
<polyline clip-path="url(#clip562)" style="stroke:#000000; stroke-linecap:butt; stroke-linejoin:round; stroke-width:2; stroke-opacity:0.1; fill:none" points="
  2190.12,1800.78 2190.12,47.2441 
  "/>
<polyline clip-path="url(#clip562)" style="stroke:#000000; stroke-linecap:butt; stroke-linejoin:round; stroke-width:2; stroke-opacity:0.1; fill:none" points="
  2572.01,1800.78 2572.01,47.2441 
  "/>
<polyline clip-path="url(#clip560)" style="stroke:#000000; stroke-linecap:butt; stroke-linejoin:round; stroke-width:4; stroke-opacity:1; fill:none" points="
  211.909,1800.78 2640.76,1800.78 
  "/>
<polyline clip-path="url(#clip560)" style="stroke:#000000; stroke-linecap:butt; stroke-linejoin:round; stroke-width:4; stroke-opacity:1; fill:none" points="
  280.649,1800.78 280.649,1781.88 
  "/>
<polyline clip-path="url(#clip560)" style="stroke:#000000; stroke-linecap:butt; stroke-linejoin:round; stroke-width:4; stroke-opacity:1; fill:none" points="
  662.544,1800.78 662.544,1781.88 
  "/>
<polyline clip-path="url(#clip560)" style="stroke:#000000; stroke-linecap:butt; stroke-linejoin:round; stroke-width:4; stroke-opacity:1; fill:none" points="
  1044.44,1800.78 1044.44,1781.88 
  "/>
<polyline clip-path="url(#clip560)" style="stroke:#000000; stroke-linecap:butt; stroke-linejoin:round; stroke-width:4; stroke-opacity:1; fill:none" points="
  1426.33,1800.78 1426.33,1781.88 
  "/>
<polyline clip-path="url(#clip560)" style="stroke:#000000; stroke-linecap:butt; stroke-linejoin:round; stroke-width:4; stroke-opacity:1; fill:none" points="
  1808.23,1800.78 1808.23,1781.88 
  "/>
<polyline clip-path="url(#clip560)" style="stroke:#000000; stroke-linecap:butt; stroke-linejoin:round; stroke-width:4; stroke-opacity:1; fill:none" points="
  2190.12,1800.78 2190.12,1781.88 
  "/>
<polyline clip-path="url(#clip560)" style="stroke:#000000; stroke-linecap:butt; stroke-linejoin:round; stroke-width:4; stroke-opacity:1; fill:none" points="
  2572.01,1800.78 2572.01,1781.88 
  "/>
<path clip-path="url(#clip560)" d="M250.117 1848.65 L279.793 1848.65 L279.793 1852.59 L250.117 1852.59 L250.117 1848.65 Z" fill="#000000" fill-rule="evenodd" fill-opacity="1" /><path clip-path="url(#clip560)" d="M304.052 1846.85 Q307.409 1847.57 309.284 1849.84 Q311.182 1852.1 311.182 1855.44 Q311.182 1860.55 307.663 1863.35 Q304.145 1866.15 297.663 1866.15 Q295.487 1866.15 293.173 1865.71 Q290.881 1865.3 288.427 1864.44 L288.427 1859.93 Q290.372 1861.06 292.686 1861.64 Q295.001 1862.22 297.524 1862.22 Q301.923 1862.22 304.214 1860.48 Q306.529 1858.75 306.529 1855.44 Q306.529 1852.38 304.376 1850.67 Q302.247 1848.93 298.427 1848.93 L294.399 1848.93 L294.399 1845.09 L298.612 1845.09 Q302.061 1845.09 303.89 1843.72 Q305.719 1842.34 305.719 1839.74 Q305.719 1837.08 303.821 1835.67 Q301.946 1834.23 298.427 1834.23 Q296.506 1834.23 294.307 1834.65 Q292.108 1835.07 289.469 1835.95 L289.469 1831.78 Q292.131 1831.04 294.446 1830.67 Q296.784 1830.3 298.844 1830.3 Q304.168 1830.3 307.27 1832.73 Q310.372 1835.14 310.372 1839.26 Q310.372 1842.13 308.728 1844.12 Q307.085 1846.09 304.052 1846.85 Z" fill="#000000" fill-rule="evenodd" fill-opacity="1" /><path clip-path="url(#clip560)" d="M632.486 1848.65 L662.162 1848.65 L662.162 1852.59 L632.486 1852.59 L632.486 1848.65 Z" fill="#000000" fill-rule="evenodd" fill-opacity="1" /><path clip-path="url(#clip560)" d="M676.282 1861.55 L692.601 1861.55 L692.601 1865.48 L670.657 1865.48 L670.657 1861.55 Q673.319 1858.79 677.902 1854.16 Q682.509 1849.51 683.689 1848.17 Q685.935 1845.65 686.814 1843.91 Q687.717 1842.15 687.717 1840.46 Q687.717 1837.71 685.773 1835.97 Q683.851 1834.23 680.75 1834.23 Q678.551 1834.23 676.097 1835 Q673.666 1835.76 670.889 1837.31 L670.889 1832.59 Q673.713 1831.46 676.166 1830.88 Q678.62 1830.3 680.657 1830.3 Q686.027 1830.3 689.222 1832.98 Q692.416 1835.67 692.416 1840.16 Q692.416 1842.29 691.606 1844.21 Q690.819 1846.11 688.713 1848.7 Q688.134 1849.37 685.032 1852.59 Q681.93 1855.78 676.282 1861.55 Z" fill="#000000" fill-rule="evenodd" fill-opacity="1" /><path clip-path="url(#clip560)" d="M1014.2 1848.65 L1043.87 1848.65 L1043.87 1852.59 L1014.2 1852.59 L1014.2 1848.65 Z" fill="#000000" fill-rule="evenodd" fill-opacity="1" /><path clip-path="url(#clip560)" d="M1054.77 1861.55 L1062.41 1861.55 L1062.41 1835.18 L1054.1 1836.85 L1054.1 1832.59 L1062.37 1830.92 L1067.04 1830.92 L1067.04 1861.55 L1074.68 1861.55 L1074.68 1865.48 L1054.77 1865.48 L1054.77 1861.55 Z" fill="#000000" fill-rule="evenodd" fill-opacity="1" /><path clip-path="url(#clip560)" d="M1426.33 1834 Q1422.72 1834 1420.89 1837.57 Q1419.09 1841.11 1419.09 1848.24 Q1419.09 1855.34 1420.89 1858.91 Q1422.72 1862.45 1426.33 1862.45 Q1429.97 1862.45 1431.77 1858.91 Q1433.6 1855.34 1433.6 1848.24 Q1433.6 1841.11 1431.77 1837.57 Q1429.97 1834 1426.33 1834 M1426.33 1830.3 Q1432.14 1830.3 1435.2 1834.9 Q1438.28 1839.49 1438.28 1848.24 Q1438.28 1856.96 1435.2 1861.57 Q1432.14 1866.15 1426.33 1866.15 Q1420.52 1866.15 1417.44 1861.57 Q1414.39 1856.96 1414.39 1848.24 Q1414.39 1839.49 1417.44 1834.9 Q1420.52 1830.3 1426.33 1830.3 Z" fill="#000000" fill-rule="evenodd" fill-opacity="1" /><path clip-path="url(#clip560)" d="M1798.61 1861.55 L1806.25 1861.55 L1806.25 1835.18 L1797.94 1836.85 L1797.94 1832.59 L1806.2 1830.92 L1810.88 1830.92 L1810.88 1861.55 L1818.52 1861.55 L1818.52 1865.48 L1798.61 1865.48 L1798.61 1861.55 Z" fill="#000000" fill-rule="evenodd" fill-opacity="1" /><path clip-path="url(#clip560)" d="M2184.77 1861.55 L2201.09 1861.55 L2201.09 1865.48 L2179.15 1865.48 L2179.15 1861.55 Q2181.81 1858.79 2186.39 1854.16 Q2191 1849.51 2192.18 1848.17 Q2194.43 1845.65 2195.31 1843.91 Q2196.21 1842.15 2196.21 1840.46 Q2196.21 1837.71 2194.26 1835.97 Q2192.34 1834.23 2189.24 1834.23 Q2187.04 1834.23 2184.59 1835 Q2182.16 1835.76 2179.38 1837.31 L2179.38 1832.59 Q2182.2 1831.46 2184.66 1830.88 Q2187.11 1830.3 2189.15 1830.3 Q2194.52 1830.3 2197.71 1832.98 Q2200.91 1835.67 2200.91 1840.16 Q2200.91 1842.29 2200.1 1844.21 Q2199.31 1846.11 2197.2 1848.7 Q2196.63 1849.37 2193.52 1852.59 Q2190.42 1855.78 2184.77 1861.55 Z" fill="#000000" fill-rule="evenodd" fill-opacity="1" /><path clip-path="url(#clip560)" d="M2576.26 1846.85 Q2579.62 1847.57 2581.49 1849.84 Q2583.39 1852.1 2583.39 1855.44 Q2583.39 1860.55 2579.87 1863.35 Q2576.36 1866.15 2569.87 1866.15 Q2567.7 1866.15 2565.38 1865.71 Q2563.09 1865.3 2560.64 1864.44 L2560.64 1859.93 Q2562.58 1861.06 2564.9 1861.64 Q2567.21 1862.22 2569.73 1862.22 Q2574.13 1862.22 2576.42 1860.48 Q2578.74 1858.75 2578.74 1855.44 Q2578.74 1852.38 2576.59 1850.67 Q2574.46 1848.93 2570.64 1848.93 L2566.61 1848.93 L2566.61 1845.09 L2570.82 1845.09 Q2574.27 1845.09 2576.1 1843.72 Q2577.93 1842.34 2577.93 1839.74 Q2577.93 1837.08 2576.03 1835.67 Q2574.16 1834.23 2570.64 1834.23 Q2568.72 1834.23 2566.52 1834.65 Q2564.32 1835.07 2561.68 1835.95 L2561.68 1831.78 Q2564.34 1831.04 2566.66 1830.67 Q2568.99 1830.3 2571.05 1830.3 Q2576.38 1830.3 2579.48 1832.73 Q2582.58 1835.14 2582.58 1839.26 Q2582.58 1842.13 2580.94 1844.12 Q2579.29 1846.09 2576.26 1846.85 Z" fill="#000000" fill-rule="evenodd" fill-opacity="1" /><polyline clip-path="url(#clip562)" style="stroke:#000000; stroke-linecap:butt; stroke-linejoin:round; stroke-width:2; stroke-opacity:0.1; fill:none" points="
  211.909,1772.58 2640.76,1772.58 
  "/>
<polyline clip-path="url(#clip562)" style="stroke:#000000; stroke-linecap:butt; stroke-linejoin:round; stroke-width:2; stroke-opacity:0.1; fill:none" points="
  211.909,1349.55 2640.76,1349.55 
  "/>
<polyline clip-path="url(#clip562)" style="stroke:#000000; stroke-linecap:butt; stroke-linejoin:round; stroke-width:2; stroke-opacity:0.1; fill:none" points="
  211.909,926.522 2640.76,926.522 
  "/>
<polyline clip-path="url(#clip562)" style="stroke:#000000; stroke-linecap:butt; stroke-linejoin:round; stroke-width:2; stroke-opacity:0.1; fill:none" points="
  211.909,503.493 2640.76,503.493 
  "/>
<polyline clip-path="url(#clip562)" style="stroke:#000000; stroke-linecap:butt; stroke-linejoin:round; stroke-width:2; stroke-opacity:0.1; fill:none" points="
  211.909,80.4646 2640.76,80.4646 
  "/>
<polyline clip-path="url(#clip560)" style="stroke:#000000; stroke-linecap:butt; stroke-linejoin:round; stroke-width:4; stroke-opacity:1; fill:none" points="
  211.909,1800.78 211.909,47.2441 
  "/>
<polyline clip-path="url(#clip560)" style="stroke:#000000; stroke-linecap:butt; stroke-linejoin:round; stroke-width:4; stroke-opacity:1; fill:none" points="
  211.909,1772.58 230.806,1772.58 
  "/>
<polyline clip-path="url(#clip560)" style="stroke:#000000; stroke-linecap:butt; stroke-linejoin:round; stroke-width:4; stroke-opacity:1; fill:none" points="
  211.909,1349.55 230.806,1349.55 
  "/>
<polyline clip-path="url(#clip560)" style="stroke:#000000; stroke-linecap:butt; stroke-linejoin:round; stroke-width:4; stroke-opacity:1; fill:none" points="
  211.909,926.522 230.806,926.522 
  "/>
<polyline clip-path="url(#clip560)" style="stroke:#000000; stroke-linecap:butt; stroke-linejoin:round; stroke-width:4; stroke-opacity:1; fill:none" points="
  211.909,503.493 230.806,503.493 
  "/>
<polyline clip-path="url(#clip560)" style="stroke:#000000; stroke-linecap:butt; stroke-linejoin:round; stroke-width:4; stroke-opacity:1; fill:none" points="
  211.909,80.4646 230.806,80.4646 
  "/>
<path clip-path="url(#clip560)" d="M49.5521 1773.03 L79.2279 1773.03 L79.2279 1776.97 L49.5521 1776.97 L49.5521 1773.03 Z" fill="#000000" fill-rule="evenodd" fill-opacity="1" /><path clip-path="url(#clip560)" d="M90.1306 1785.92 L97.7695 1785.92 L97.7695 1759.56 L89.4593 1761.22 L89.4593 1756.97 L97.7232 1755.3 L102.399 1755.3 L102.399 1785.92 L110.038 1785.92 L110.038 1789.86 L90.1306 1789.86 L90.1306 1785.92 Z" fill="#000000" fill-rule="evenodd" fill-opacity="1" /><path clip-path="url(#clip560)" d="M129.482 1758.38 Q125.871 1758.38 124.042 1761.94 Q122.237 1765.48 122.237 1772.61 Q122.237 1779.72 124.042 1783.28 Q125.871 1786.83 129.482 1786.83 Q133.116 1786.83 134.922 1783.28 Q136.751 1779.72 136.751 1772.61 Q136.751 1765.48 134.922 1761.94 Q133.116 1758.38 129.482 1758.38 M129.482 1754.67 Q135.292 1754.67 138.348 1759.28 Q141.427 1763.86 141.427 1772.61 Q141.427 1781.34 138.348 1785.95 Q135.292 1790.53 129.482 1790.53 Q123.672 1790.53 120.593 1785.95 Q117.538 1781.34 117.538 1772.61 Q117.538 1763.86 120.593 1759.28 Q123.672 1754.67 129.482 1754.67 Z" fill="#000000" fill-rule="evenodd" fill-opacity="1" /><path clip-path="url(#clip560)" d="M159.644 1758.38 Q156.033 1758.38 154.204 1761.94 Q152.399 1765.48 152.399 1772.61 Q152.399 1779.72 154.204 1783.28 Q156.033 1786.83 159.644 1786.83 Q163.278 1786.83 165.084 1783.28 Q166.913 1779.72 166.913 1772.61 Q166.913 1765.48 165.084 1761.94 Q163.278 1758.38 159.644 1758.38 M159.644 1754.67 Q165.454 1754.67 168.51 1759.28 Q171.589 1763.86 171.589 1772.61 Q171.589 1781.34 168.51 1785.95 Q165.454 1790.53 159.644 1790.53 Q153.834 1790.53 150.755 1785.95 Q147.7 1781.34 147.7 1772.61 Q147.7 1763.86 150.755 1759.28 Q153.834 1754.67 159.644 1754.67 Z" fill="#000000" fill-rule="evenodd" fill-opacity="1" /><path clip-path="url(#clip560)" d="M79.714 1350 L109.39 1350 L109.39 1353.94 L79.714 1353.94 L79.714 1350 Z" fill="#000000" fill-rule="evenodd" fill-opacity="1" /><path clip-path="url(#clip560)" d="M119.529 1332.27 L137.885 1332.27 L137.885 1336.21 L123.811 1336.21 L123.811 1344.68 Q124.83 1344.33 125.848 1344.17 Q126.867 1343.98 127.885 1343.98 Q133.672 1343.98 137.052 1347.15 Q140.431 1350.33 140.431 1355.74 Q140.431 1361.32 136.959 1364.42 Q133.487 1367.5 127.167 1367.5 Q124.992 1367.5 122.723 1367.13 Q120.478 1366.76 118.07 1366.02 L118.07 1361.32 Q120.154 1362.46 122.376 1363.01 Q124.598 1363.57 127.075 1363.57 Q131.079 1363.57 133.417 1361.46 Q135.755 1359.35 135.755 1355.74 Q135.755 1352.13 133.417 1350.02 Q131.079 1347.92 127.075 1347.92 Q125.2 1347.92 123.325 1348.33 Q121.473 1348.75 119.529 1349.63 L119.529 1332.27 Z" fill="#000000" fill-rule="evenodd" fill-opacity="1" /><path clip-path="url(#clip560)" d="M159.644 1335.35 Q156.033 1335.35 154.204 1338.91 Q152.399 1342.46 152.399 1349.58 Q152.399 1356.69 154.204 1360.26 Q156.033 1363.8 159.644 1363.8 Q163.278 1363.8 165.084 1360.26 Q166.913 1356.69 166.913 1349.58 Q166.913 1342.46 165.084 1338.91 Q163.278 1335.35 159.644 1335.35 M159.644 1331.65 Q165.454 1331.65 168.51 1336.25 Q171.589 1340.83 171.589 1349.58 Q171.589 1358.31 168.51 1362.92 Q165.454 1367.5 159.644 1367.5 Q153.834 1367.5 150.755 1362.92 Q147.7 1358.31 147.7 1349.58 Q147.7 1340.83 150.755 1336.25 Q153.834 1331.65 159.644 1331.65 Z" fill="#000000" fill-rule="evenodd" fill-opacity="1" /><path clip-path="url(#clip560)" d="M159.644 912.32 Q156.033 912.32 154.204 915.885 Q152.399 919.427 152.399 926.556 Q152.399 933.663 154.204 937.228 Q156.033 940.769 159.644 940.769 Q163.278 940.769 165.084 937.228 Q166.913 933.663 166.913 926.556 Q166.913 919.427 165.084 915.885 Q163.278 912.32 159.644 912.32 M159.644 908.617 Q165.454 908.617 168.51 913.223 Q171.589 917.806 171.589 926.556 Q171.589 935.283 168.51 939.89 Q165.454 944.473 159.644 944.473 Q153.834 944.473 150.755 939.89 Q147.7 935.283 147.7 926.556 Q147.7 917.806 150.755 913.223 Q153.834 908.617 159.644 908.617 Z" fill="#000000" fill-rule="evenodd" fill-opacity="1" /><path clip-path="url(#clip560)" d="M119.529 486.213 L137.885 486.213 L137.885 490.148 L123.811 490.148 L123.811 498.62 Q124.83 498.273 125.848 498.111 Q126.867 497.926 127.885 497.926 Q133.672 497.926 137.052 501.097 Q140.431 504.269 140.431 509.685 Q140.431 515.264 136.959 518.366 Q133.487 521.444 127.167 521.444 Q124.992 521.444 122.723 521.074 Q120.478 520.704 118.07 519.963 L118.07 515.264 Q120.154 516.398 122.376 516.954 Q124.598 517.509 127.075 517.509 Q131.079 517.509 133.417 515.403 Q135.755 513.296 135.755 509.685 Q135.755 506.074 133.417 503.968 Q131.079 501.861 127.075 501.861 Q125.2 501.861 123.325 502.278 Q121.473 502.694 119.529 503.574 L119.529 486.213 Z" fill="#000000" fill-rule="evenodd" fill-opacity="1" /><path clip-path="url(#clip560)" d="M159.644 489.292 Q156.033 489.292 154.204 492.857 Q152.399 496.398 152.399 503.528 Q152.399 510.634 154.204 514.199 Q156.033 517.741 159.644 517.741 Q163.278 517.741 165.084 514.199 Q166.913 510.634 166.913 503.528 Q166.913 496.398 165.084 492.857 Q163.278 489.292 159.644 489.292 M159.644 485.588 Q165.454 485.588 168.51 490.195 Q171.589 494.778 171.589 503.528 Q171.589 512.255 168.51 516.861 Q165.454 521.444 159.644 521.444 Q153.834 521.444 150.755 516.861 Q147.7 512.255 147.7 503.528 Q147.7 494.778 150.755 490.195 Q153.834 485.588 159.644 485.588 Z" fill="#000000" fill-rule="evenodd" fill-opacity="1" /><path clip-path="url(#clip560)" d="M90.1306 93.8094 L97.7695 93.8094 L97.7695 67.4438 L89.4593 69.1105 L89.4593 64.8512 L97.7232 63.1846 L102.399 63.1846 L102.399 93.8094 L110.038 93.8094 L110.038 97.7446 L90.1306 97.7446 L90.1306 93.8094 Z" fill="#000000" fill-rule="evenodd" fill-opacity="1" /><path clip-path="url(#clip560)" d="M129.482 66.2633 Q125.871 66.2633 124.042 69.8281 Q122.237 73.3697 122.237 80.4993 Q122.237 87.6058 124.042 91.1706 Q125.871 94.7122 129.482 94.7122 Q133.116 94.7122 134.922 91.1706 Q136.751 87.6058 136.751 80.4993 Q136.751 73.3697 134.922 69.8281 Q133.116 66.2633 129.482 66.2633 M129.482 62.5596 Q135.292 62.5596 138.348 67.166 Q141.427 71.7494 141.427 80.4993 Q141.427 89.2261 138.348 93.8326 Q135.292 98.4159 129.482 98.4159 Q123.672 98.4159 120.593 93.8326 Q117.538 89.2261 117.538 80.4993 Q117.538 71.7494 120.593 67.166 Q123.672 62.5596 129.482 62.5596 Z" fill="#000000" fill-rule="evenodd" fill-opacity="1" /><path clip-path="url(#clip560)" d="M159.644 66.2633 Q156.033 66.2633 154.204 69.8281 Q152.399 73.3697 152.399 80.4993 Q152.399 87.6058 154.204 91.1706 Q156.033 94.7122 159.644 94.7122 Q163.278 94.7122 165.084 91.1706 Q166.913 87.6058 166.913 80.4993 Q166.913 73.3697 165.084 69.8281 Q163.278 66.2633 159.644 66.2633 M159.644 62.5596 Q165.454 62.5596 168.51 67.166 Q171.589 71.7494 171.589 80.4993 Q171.589 89.2261 168.51 93.8326 Q165.454 98.4159 159.644 98.4159 Q153.834 98.4159 150.755 93.8326 Q147.7 89.2261 147.7 80.4993 Q147.7 71.7494 150.755 67.166 Q153.834 62.5596 159.644 62.5596 Z" fill="#000000" fill-rule="evenodd" fill-opacity="1" /><polyline clip-path="url(#clip562)" style="stroke:#009af9; stroke-linecap:butt; stroke-linejoin:round; stroke-width:4; stroke-opacity:1; fill:none" points="
  280.649,929.342 303.027,929.398 509.935,930.047 634.278,930.601 739.409,931.225 853.61,932.163 958.893,933.434 1071.77,935.634 1202.55,940.96 1231.6,943.114 
  1260.65,946.024 1289.71,950.171 1318.76,956.559 1331.5,960.594 1344.24,965.882 1356.98,973.112 1369.72,983.596 1376.09,990.832 1382.46,1000.17 1388.83,1012.68 
  1395.2,1030.3 1398.38,1042.13 1401.57,1057 1404.75,1076.26 1407.94,1102.18 1409.53,1118.83 1411.12,1138.97 1412.72,1163.81 1414.31,1195.24 1415.9,1236.26 
  1417.49,1292.06 1418.29,1328.25 1419.09,1372.38 1419.88,1427.42 1420.68,1497.95 1421.55,1601.59 1422.41,1751.15 
  "/>
<polyline clip-path="url(#clip562)" style="stroke:#009af9; stroke-linecap:butt; stroke-linejoin:round; stroke-width:4; stroke-opacity:1; fill:none" points="
  1430.23,96.8724 1431.09,248.093 1431.96,352.686 1432.83,429.337 1433.7,487.924 1434.57,534.158 1435.44,571.575 1436.3,602.477 1437.17,628.429 1438.04,650.532 
  1439.78,686.175 1441.51,713.664 1444.98,753.291 1448.46,780.479 1451.93,800.29 1455.4,815.369 1458.87,827.23 1462.35,836.803 1469.29,851.307 1476.23,861.774 
  1490.12,875.871 1504.01,884.928 1517.9,891.236 1531.79,895.884 1559.73,902.301 1587.68,906.496 1615.62,909.452 1643.56,911.648 1767.14,917.041 1884.73,919.473 
  2006.99,920.957 2109.9,921.795 2235.55,922.529 2353.67,923.037 2542.89,923.628 2572.01,923.701 
  "/>
<path clip-path="url(#clip560)" d="
M2237.49 209.375 L2559.79 209.375 L2559.79 105.695 L2237.49 105.695  Z
  " fill="#ffffff" fill-rule="evenodd" fill-opacity="1"/>
<polyline clip-path="url(#clip560)" style="stroke:#000000; stroke-linecap:butt; stroke-linejoin:round; stroke-width:4; stroke-opacity:1; fill:none" points="
  2237.49,209.375 2559.79,209.375 2559.79,105.695 2237.49,105.695 2237.49,209.375 
  "/>
<polyline clip-path="url(#clip560)" style="stroke:#009af9; stroke-linecap:butt; stroke-linejoin:round; stroke-width:4; stroke-opacity:1; fill:none" points="
  2264.48,157.535 2426.4,157.535 
  "/>
<path clip-path="url(#clip560)" d="M2467.23 177.223 Q2465.43 181.852 2463.71 183.264 Q2462 184.676 2459.13 184.676 L2455.73 184.676 L2455.73 181.112 L2458.23 181.112 Q2459.99 181.112 2460.96 180.278 Q2461.93 179.445 2463.11 176.343 L2463.88 174.399 L2453.39 148.889 L2457.9 148.889 L2466.01 169.167 L2474.11 148.889 L2478.62 148.889 L2467.23 177.223 Z" fill="#000000" fill-rule="evenodd" fill-opacity="1" /><path clip-path="url(#clip560)" d="M2485.91 170.88 L2493.55 170.88 L2493.55 144.515 L2485.24 146.181 L2485.24 141.922 L2493.51 140.255 L2498.18 140.255 L2498.18 170.88 L2505.82 170.88 L2505.82 174.815 L2485.91 174.815 L2485.91 170.88 Z" fill="#000000" fill-rule="evenodd" fill-opacity="1" /></svg>
