<?xml version="1.0" encoding="utf-8"?>
<svg xmlns="http://www.w3.org/2000/svg" xmlns:xlink="http://www.w3.org/1999/xlink" width="672" height="480" viewBox="0 0 2688 1920">
<defs>
  <clipPath id="clip590">
    <rect x="0" y="0" width="2688" height="1920"/>
  </clipPath>
</defs>
<path clip-path="url(#clip590)" d="
M0 1920 L2688 1920 L2688 0 L0 0  Z
  " fill="#ffffff" fill-rule="evenodd" fill-opacity="1"/>
<defs>
  <clipPath id="clip591">
    <rect x="537" y="0" width="1883" height="1883"/>
  </clipPath>
</defs>
<path clip-path="url(#clip590)" d="
M158.992 1800.78 L2640.76 1800.78 L2640.76 47.2441 L158.992 47.2441  Z
  " fill="#ffffff" fill-rule="evenodd" fill-opacity="1"/>
<defs>
  <clipPath id="clip592">
    <rect x="158" y="47" width="2483" height="1755"/>
  </clipPath>
</defs>
<polyline clip-path="url(#clip592)" style="stroke:#000000; stroke-linecap:butt; stroke-linejoin:round; stroke-width:2; stroke-opacity:0.1; fill:none" points="
  229.231,1800.78 229.231,47.2441 
  "/>
<polyline clip-path="url(#clip592)" style="stroke:#000000; stroke-linecap:butt; stroke-linejoin:round; stroke-width:2; stroke-opacity:0.1; fill:none" points="
  1009.66,1800.78 1009.66,47.2441 
  "/>
<polyline clip-path="url(#clip592)" style="stroke:#000000; stroke-linecap:butt; stroke-linejoin:round; stroke-width:2; stroke-opacity:0.1; fill:none" points="
  1790.09,1800.78 1790.09,47.2441 
  "/>
<polyline clip-path="url(#clip592)" style="stroke:#000000; stroke-linecap:butt; stroke-linejoin:round; stroke-width:2; stroke-opacity:0.1; fill:none" points="
  2570.52,1800.78 2570.52,47.2441 
  "/>
<polyline clip-path="url(#clip590)" style="stroke:#000000; stroke-linecap:butt; stroke-linejoin:round; stroke-width:4; stroke-opacity:1; fill:none" points="
  158.992,1800.78 2640.76,1800.78 
  "/>
<polyline clip-path="url(#clip590)" style="stroke:#000000; stroke-linecap:butt; stroke-linejoin:round; stroke-width:4; stroke-opacity:1; fill:none" points="
  229.231,1800.78 229.231,1781.88 
  "/>
<polyline clip-path="url(#clip590)" style="stroke:#000000; stroke-linecap:butt; stroke-linejoin:round; stroke-width:4; stroke-opacity:1; fill:none" points="
  1009.66,1800.78 1009.66,1781.88 
  "/>
<polyline clip-path="url(#clip590)" style="stroke:#000000; stroke-linecap:butt; stroke-linejoin:round; stroke-width:4; stroke-opacity:1; fill:none" points="
  1790.09,1800.78 1790.09,1781.88 
  "/>
<polyline clip-path="url(#clip590)" style="stroke:#000000; stroke-linecap:butt; stroke-linejoin:round; stroke-width:4; stroke-opacity:1; fill:none" points="
  2570.52,1800.78 2570.52,1781.88 
  "/>
<path clip-path="url(#clip590)" d="M229.231 1834 Q225.62 1834 223.791 1837.57 Q221.985 1841.11 221.985 1848.24 Q221.985 1855.34 223.791 1858.91 Q225.62 1862.45 229.231 1862.45 Q232.865 1862.45 234.671 1858.91 Q236.499 1855.34 236.499 1848.24 Q236.499 1841.11 234.671 1837.57 Q232.865 1834 229.231 1834 M229.231 1830.3 Q235.041 1830.3 238.096 1834.9 Q241.175 1839.49 241.175 1848.24 Q241.175 1856.96 238.096 1861.57 Q235.041 1866.15 229.231 1866.15 Q223.421 1866.15 220.342 1861.57 Q217.286 1856.96 217.286 1848.24 Q217.286 1839.49 220.342 1834.9 Q223.421 1830.3 229.231 1830.3 Z" fill="#000000" fill-rule="evenodd" fill-opacity="1" /><path clip-path="url(#clip590)" d="M1000.04 1861.55 L1007.68 1861.55 L1007.68 1835.18 L999.37 1836.85 L999.37 1832.59 L1007.63 1830.92 L1012.31 1830.92 L1012.31 1861.55 L1019.95 1861.55 L1019.95 1865.48 L1000.04 1865.48 L1000.04 1861.55 Z" fill="#000000" fill-rule="evenodd" fill-opacity="1" /><path clip-path="url(#clip590)" d="M1784.74 1861.55 L1801.06 1861.55 L1801.06 1865.48 L1779.12 1865.48 L1779.12 1861.55 Q1781.78 1858.79 1786.36 1854.16 Q1790.97 1849.51 1792.15 1848.17 Q1794.39 1845.65 1795.27 1843.91 Q1796.18 1842.15 1796.18 1840.46 Q1796.18 1837.71 1794.23 1835.97 Q1792.31 1834.23 1789.21 1834.23 Q1787.01 1834.23 1784.56 1835 Q1782.13 1835.76 1779.35 1837.31 L1779.35 1832.59 Q1782.17 1831.46 1784.63 1830.88 Q1787.08 1830.3 1789.12 1830.3 Q1794.49 1830.3 1797.68 1832.98 Q1800.88 1835.67 1800.88 1840.16 Q1800.88 1842.29 1800.07 1844.21 Q1799.28 1846.11 1797.17 1848.7 Q1796.59 1849.37 1793.49 1852.59 Q1790.39 1855.78 1784.74 1861.55 Z" fill="#000000" fill-rule="evenodd" fill-opacity="1" /><path clip-path="url(#clip590)" d="M2574.76 1846.85 Q2578.12 1847.57 2580 1849.84 Q2581.89 1852.1 2581.89 1855.44 Q2581.89 1860.55 2578.38 1863.35 Q2574.86 1866.15 2568.38 1866.15 Q2566.2 1866.15 2563.89 1865.71 Q2561.59 1865.3 2559.14 1864.44 L2559.14 1859.93 Q2561.08 1861.06 2563.4 1861.64 Q2565.71 1862.22 2568.24 1862.22 Q2572.64 1862.22 2574.93 1860.48 Q2577.24 1858.75 2577.24 1855.44 Q2577.24 1852.38 2575.09 1850.67 Q2572.96 1848.93 2569.14 1848.93 L2565.11 1848.93 L2565.11 1845.09 L2569.33 1845.09 Q2572.77 1845.09 2574.6 1843.72 Q2576.43 1842.34 2576.43 1839.74 Q2576.43 1837.08 2574.53 1835.67 Q2572.66 1834.23 2569.14 1834.23 Q2567.22 1834.23 2565.02 1834.65 Q2562.82 1835.07 2560.18 1835.95 L2560.18 1831.78 Q2562.84 1831.04 2565.16 1830.67 Q2567.5 1830.3 2569.56 1830.3 Q2574.88 1830.3 2577.98 1832.73 Q2581.08 1835.14 2581.08 1839.26 Q2581.08 1842.13 2579.44 1844.12 Q2577.8 1846.09 2574.76 1846.85 Z" fill="#000000" fill-rule="evenodd" fill-opacity="1" /><polyline clip-path="url(#clip592)" style="stroke:#000000; stroke-linecap:butt; stroke-linejoin:round; stroke-width:2; stroke-opacity:0.1; fill:none" points="
  158.992,1567.38 2640.76,1567.38 
  "/>
<polyline clip-path="url(#clip592)" style="stroke:#000000; stroke-linecap:butt; stroke-linejoin:round; stroke-width:2; stroke-opacity:0.1; fill:none" points="
  158.992,1199.75 2640.76,1199.75 
  "/>
<polyline clip-path="url(#clip592)" style="stroke:#000000; stroke-linecap:butt; stroke-linejoin:round; stroke-width:2; stroke-opacity:0.1; fill:none" points="
  158.992,832.125 2640.76,832.125 
  "/>
<polyline clip-path="url(#clip592)" style="stroke:#000000; stroke-linecap:butt; stroke-linejoin:round; stroke-width:2; stroke-opacity:0.1; fill:none" points="
  158.992,464.499 2640.76,464.499 
  "/>
<polyline clip-path="url(#clip592)" style="stroke:#000000; stroke-linecap:butt; stroke-linejoin:round; stroke-width:2; stroke-opacity:0.1; fill:none" points="
  158.992,96.8724 2640.76,96.8724 
  "/>
<polyline clip-path="url(#clip590)" style="stroke:#000000; stroke-linecap:butt; stroke-linejoin:round; stroke-width:4; stroke-opacity:1; fill:none" points="
  158.992,1800.78 158.992,47.2441 
  "/>
<polyline clip-path="url(#clip590)" style="stroke:#000000; stroke-linecap:butt; stroke-linejoin:round; stroke-width:4; stroke-opacity:1; fill:none" points="
  158.992,1567.38 177.89,1567.38 
  "/>
<polyline clip-path="url(#clip590)" style="stroke:#000000; stroke-linecap:butt; stroke-linejoin:round; stroke-width:4; stroke-opacity:1; fill:none" points="
  158.992,1199.75 177.89,1199.75 
  "/>
<polyline clip-path="url(#clip590)" style="stroke:#000000; stroke-linecap:butt; stroke-linejoin:round; stroke-width:4; stroke-opacity:1; fill:none" points="
  158.992,832.125 177.89,832.125 
  "/>
<polyline clip-path="url(#clip590)" style="stroke:#000000; stroke-linecap:butt; stroke-linejoin:round; stroke-width:4; stroke-opacity:1; fill:none" points="
  158.992,464.499 177.89,464.499 
  "/>
<polyline clip-path="url(#clip590)" style="stroke:#000000; stroke-linecap:butt; stroke-linejoin:round; stroke-width:4; stroke-opacity:1; fill:none" points="
  158.992,96.8724 177.89,96.8724 
  "/>
<path clip-path="url(#clip590)" d="M61.4965 1553.18 Q57.8854 1553.18 56.0567 1556.74 Q54.2512 1560.28 54.2512 1567.41 Q54.2512 1574.52 56.0567 1578.08 Q57.8854 1581.63 61.4965 1581.63 Q65.1307 1581.63 66.9363 1578.08 Q68.765 1574.52 68.765 1567.41 Q68.765 1560.28 66.9363 1556.74 Q65.1307 1553.18 61.4965 1553.18 M61.4965 1549.47 Q67.3067 1549.47 70.3622 1554.08 Q73.4409 1558.66 73.4409 1567.41 Q73.4409 1576.14 70.3622 1580.75 Q67.3067 1585.33 61.4965 1585.33 Q55.6864 1585.33 52.6077 1580.75 Q49.5521 1576.14 49.5521 1567.41 Q49.5521 1558.66 52.6077 1554.08 Q55.6864 1549.47 61.4965 1549.47 Z" fill="#000000" fill-rule="evenodd" fill-opacity="1" /><path clip-path="url(#clip590)" d="M81.6584 1578.78 L86.5427 1578.78 L86.5427 1584.66 L81.6584 1584.66 L81.6584 1578.78 Z" fill="#000000" fill-rule="evenodd" fill-opacity="1" /><path clip-path="url(#clip590)" d="M106.728 1553.18 Q103.117 1553.18 101.288 1556.74 Q99.4824 1560.28 99.4824 1567.41 Q99.4824 1574.52 101.288 1578.08 Q103.117 1581.63 106.728 1581.63 Q110.362 1581.63 112.168 1578.08 Q113.996 1574.52 113.996 1567.41 Q113.996 1560.28 112.168 1556.74 Q110.362 1553.18 106.728 1553.18 M106.728 1549.47 Q112.538 1549.47 115.593 1554.08 Q118.672 1558.66 118.672 1567.41 Q118.672 1576.14 115.593 1580.75 Q112.538 1585.33 106.728 1585.33 Q100.918 1585.33 97.8389 1580.75 Q94.7834 1576.14 94.7834 1567.41 Q94.7834 1558.66 97.8389 1554.08 Q100.918 1549.47 106.728 1549.47 Z" fill="#000000" fill-rule="evenodd" fill-opacity="1" /><path clip-path="url(#clip590)" d="M62.4919 1185.55 Q58.8808 1185.55 57.0521 1189.12 Q55.2465 1192.66 55.2465 1199.79 Q55.2465 1206.89 57.0521 1210.46 Q58.8808 1214 62.4919 1214 Q66.1261 1214 67.9317 1210.46 Q69.7604 1206.89 69.7604 1199.79 Q69.7604 1192.66 67.9317 1189.12 Q66.1261 1185.55 62.4919 1185.55 M62.4919 1181.85 Q68.302 1181.85 71.3576 1186.45 Q74.4363 1191.04 74.4363 1199.79 Q74.4363 1208.51 71.3576 1213.12 Q68.302 1217.7 62.4919 1217.7 Q56.6817 1217.7 53.603 1213.12 Q50.5475 1208.51 50.5475 1199.79 Q50.5475 1191.04 53.603 1186.45 Q56.6817 1181.85 62.4919 1181.85 Z" fill="#000000" fill-rule="evenodd" fill-opacity="1" /><path clip-path="url(#clip590)" d="M82.6538 1211.15 L87.538 1211.15 L87.538 1217.03 L82.6538 1217.03 L82.6538 1211.15 Z" fill="#000000" fill-rule="evenodd" fill-opacity="1" /><path clip-path="url(#clip590)" d="M97.7695 1182.47 L116.126 1182.47 L116.126 1186.41 L102.052 1186.41 L102.052 1194.88 Q103.07 1194.53 104.089 1194.37 Q105.107 1194.18 106.126 1194.18 Q111.913 1194.18 115.293 1197.36 Q118.672 1200.53 118.672 1205.94 Q118.672 1211.52 115.2 1214.62 Q111.728 1217.7 105.408 1217.7 Q103.232 1217.7 100.964 1217.33 Q98.7185 1216.96 96.3111 1216.22 L96.3111 1211.52 Q98.3945 1212.66 100.617 1213.21 Q102.839 1213.77 105.316 1213.77 Q109.32 1213.77 111.658 1211.66 Q113.996 1209.55 113.996 1205.94 Q113.996 1202.33 111.658 1200.23 Q109.32 1198.12 105.316 1198.12 Q103.441 1198.12 101.566 1198.54 Q99.7139 1198.95 97.7695 1199.83 L97.7695 1182.47 Z" fill="#000000" fill-rule="evenodd" fill-opacity="1" /><path clip-path="url(#clip590)" d="M52.3067 845.47 L59.9456 845.47 L59.9456 819.104 L51.6354 820.771 L51.6354 816.512 L59.8993 814.845 L64.5752 814.845 L64.5752 845.47 L72.214 845.47 L72.214 849.405 L52.3067 849.405 L52.3067 845.47 Z" fill="#000000" fill-rule="evenodd" fill-opacity="1" /><path clip-path="url(#clip590)" d="M81.6584 843.526 L86.5427 843.526 L86.5427 849.405 L81.6584 849.405 L81.6584 843.526 Z" fill="#000000" fill-rule="evenodd" fill-opacity="1" /><path clip-path="url(#clip590)" d="M106.728 817.924 Q103.117 817.924 101.288 821.489 Q99.4824 825.03 99.4824 832.16 Q99.4824 839.266 101.288 842.831 Q103.117 846.373 106.728 846.373 Q110.362 846.373 112.168 842.831 Q113.996 839.266 113.996 832.16 Q113.996 825.03 112.168 821.489 Q110.362 817.924 106.728 817.924 M106.728 814.22 Q112.538 814.22 115.593 818.827 Q118.672 823.41 118.672 832.16 Q118.672 840.887 115.593 845.493 Q112.538 850.077 106.728 850.077 Q100.918 850.077 97.8389 845.493 Q94.7834 840.887 94.7834 832.16 Q94.7834 823.41 97.8389 818.827 Q100.918 814.22 106.728 814.22 Z" fill="#000000" fill-rule="evenodd" fill-opacity="1" /><path clip-path="url(#clip590)" d="M53.3021 477.844 L60.941 477.844 L60.941 451.478 L52.6308 453.145 L52.6308 448.886 L60.8947 447.219 L65.5706 447.219 L65.5706 477.844 L73.2094 477.844 L73.2094 481.779 L53.3021 481.779 L53.3021 477.844 Z" fill="#000000" fill-rule="evenodd" fill-opacity="1" /><path clip-path="url(#clip590)" d="M82.6538 475.899 L87.538 475.899 L87.538 481.779 L82.6538 481.779 L82.6538 475.899 Z" fill="#000000" fill-rule="evenodd" fill-opacity="1" /><path clip-path="url(#clip590)" d="M97.7695 447.219 L116.126 447.219 L116.126 451.154 L102.052 451.154 L102.052 459.626 Q103.07 459.279 104.089 459.117 Q105.107 458.932 106.126 458.932 Q111.913 458.932 115.293 462.103 Q118.672 465.274 118.672 470.691 Q118.672 476.27 115.2 479.371 Q111.728 482.45 105.408 482.45 Q103.232 482.45 100.964 482.08 Q98.7185 481.709 96.3111 480.969 L96.3111 476.27 Q98.3945 477.404 100.617 477.959 Q102.839 478.515 105.316 478.515 Q109.32 478.515 111.658 476.409 Q113.996 474.302 113.996 470.691 Q113.996 467.08 111.658 464.973 Q109.32 462.867 105.316 462.867 Q103.441 462.867 101.566 463.284 Q99.7139 463.7 97.7695 464.58 L97.7695 447.219 Z" fill="#000000" fill-rule="evenodd" fill-opacity="1" /><path clip-path="url(#clip590)" d="M55.5243 110.217 L71.8437 110.217 L71.8437 114.152 L49.8993 114.152 L49.8993 110.217 Q52.5614 107.463 57.1447 102.833 Q61.7511 98.1803 62.9317 96.8377 Q65.177 94.3146 66.0567 92.5785 Q66.9594 90.8192 66.9594 89.1294 Q66.9594 86.3748 65.015 84.6387 Q63.0937 82.9026 59.9919 82.9026 Q57.7928 82.9026 55.3391 83.6665 Q52.9086 84.4304 50.1308 85.9813 L50.1308 81.2591 Q52.9549 80.1249 55.4086 79.5462 Q57.8623 78.9675 59.8993 78.9675 Q65.2696 78.9675 68.4641 81.6526 Q71.6585 84.3378 71.6585 88.8285 Q71.6585 90.9581 70.8483 92.8794 Q70.0613 94.7776 67.9548 97.3701 Q67.3761 98.0414 64.2743 101.259 Q61.1724 104.453 55.5243 110.217 Z" fill="#000000" fill-rule="evenodd" fill-opacity="1" /><path clip-path="url(#clip590)" d="M81.6584 108.273 L86.5427 108.273 L86.5427 114.152 L81.6584 114.152 L81.6584 108.273 Z" fill="#000000" fill-rule="evenodd" fill-opacity="1" /><path clip-path="url(#clip590)" d="M106.728 82.6711 Q103.117 82.6711 101.288 86.2359 Q99.4824 89.7776 99.4824 96.9072 Q99.4824 104.014 101.288 107.578 Q103.117 111.12 106.728 111.12 Q110.362 111.12 112.168 107.578 Q113.996 104.014 113.996 96.9072 Q113.996 89.7776 112.168 86.2359 Q110.362 82.6711 106.728 82.6711 M106.728 78.9675 Q112.538 78.9675 115.593 83.5739 Q118.672 88.1572 118.672 96.9072 Q118.672 105.634 115.593 110.24 Q112.538 114.824 106.728 114.824 Q100.918 114.824 97.8389 110.24 Q94.7834 105.634 94.7834 96.9072 Q94.7834 88.1572 97.8389 83.5739 Q100.918 78.9675 106.728 78.9675 Z" fill="#000000" fill-rule="evenodd" fill-opacity="1" /><polyline clip-path="url(#clip592)" style="stroke:#009af9; stroke-linecap:butt; stroke-linejoin:round; stroke-width:4; stroke-opacity:1; fill:none" points="
  229.231,96.8724 240.663,129.026 252.095,160.864 357.803,440.307 463.511,692.771 527.037,831.513 590.564,960.512 644.274,1061.98 697.985,1156.48 756.329,1251.24 
  814.674,1337.78 868.463,1410.29 922.251,1475.81 979.918,1538.29 1037.59,1592.75 1104.4,1645.8 1171.21,1688.07 1230.59,1716.6 1289.96,1736.61 1342.03,1747.15 
  1394.1,1751.15 1450.86,1748.05 1507.63,1737.17 1564.73,1718.38 1621.84,1691.72 1684.98,1653.07 1748.11,1604.8 1808.18,1549.93 1868.26,1486.36 1930.72,1411.02 
  1993.18,1326.25 2045.76,1247.6 2098.34,1162.27 2162.53,1049.04 2226.72,925.869 2287.07,801.009 2347.41,667.357 2444.09,434.913 2540.76,179.903 2555.64,138.655 
  2570.52,96.8724 
  "/>
<circle clip-path="url(#clip592)" cx="1009.66" cy="1567.38" r="14.4" fill="#e26f46" fill-rule="evenodd" fill-opacity="1" stroke="#000000" stroke-opacity="1" stroke-width="3.84"/>
<circle clip-path="url(#clip592)" cx="1790.09" cy="1567.38" r="14.4" fill="#e26f46" fill-rule="evenodd" fill-opacity="1" stroke="#000000" stroke-opacity="1" stroke-width="3.84"/>
<path clip-path="url(#clip590)" d="
M2229.85 261.215 L2558.03 261.215 L2558.03 105.695 L2229.85 105.695  Z
  " fill="#ffffff" fill-rule="evenodd" fill-opacity="1"/>
<polyline clip-path="url(#clip590)" style="stroke:#000000; stroke-linecap:butt; stroke-linejoin:round; stroke-width:4; stroke-opacity:1; fill:none" points="
  2229.85,261.215 2558.03,261.215 2558.03,105.695 2229.85,105.695 2229.85,261.215 
  "/>
<polyline clip-path="url(#clip590)" style="stroke:#009af9; stroke-linecap:butt; stroke-linejoin:round; stroke-width:4; stroke-opacity:1; fill:none" points="
  2257.42,157.535 2422.87,157.535 
  "/>
<path clip-path="url(#clip590)" d="M2464.29 177.223 Q2462.49 181.852 2460.77 183.264 Q2459.06 184.676 2456.19 184.676 L2452.79 184.676 L2452.79 181.112 L2455.29 181.112 Q2457.05 181.112 2458.02 180.278 Q2458.99 179.445 2460.17 176.343 L2460.94 174.399 L2450.45 148.889 L2454.96 148.889 L2463.07 169.167 L2471.17 148.889 L2475.68 148.889 L2464.29 177.223 Z" fill="#000000" fill-rule="evenodd" fill-opacity="1" /><path clip-path="url(#clip590)" d="M2482.97 170.88 L2490.61 170.88 L2490.61 144.515 L2482.3 146.181 L2482.3 141.922 L2490.57 140.255 L2495.24 140.255 L2495.24 170.88 L2502.88 170.88 L2502.88 174.815 L2482.97 174.815 L2482.97 170.88 Z" fill="#000000" fill-rule="evenodd" fill-opacity="1" /><circle clip-path="url(#clip590)" cx="2340.15" cy="209.375" r="23.04" fill="#e26f46" fill-rule="evenodd" fill-opacity="1" stroke="#000000" stroke-opacity="1" stroke-width="6.144"/>
<path clip-path="url(#clip590)" d="M2464.29 229.063 Q2462.49 233.692 2460.77 235.104 Q2459.06 236.516 2456.19 236.516 L2452.79 236.516 L2452.79 232.952 L2455.29 232.952 Q2457.05 232.952 2458.02 232.118 Q2458.99 231.285 2460.17 228.183 L2460.94 226.239 L2450.45 200.729 L2454.96 200.729 L2463.07 221.007 L2471.17 200.729 L2475.68 200.729 L2464.29 229.063 Z" fill="#000000" fill-rule="evenodd" fill-opacity="1" /><path clip-path="url(#clip590)" d="M2486.19 222.72 L2502.51 222.72 L2502.51 226.655 L2480.57 226.655 L2480.57 222.72 Q2483.23 219.965 2487.81 215.336 Q2492.42 210.683 2493.6 209.341 Q2495.84 206.817 2496.72 205.081 Q2497.63 203.322 2497.63 201.632 Q2497.63 198.878 2495.68 197.142 Q2493.76 195.405 2490.66 195.405 Q2488.46 195.405 2486.01 196.169 Q2483.57 196.933 2480.8 198.484 L2480.8 193.762 Q2483.62 192.628 2486.07 192.049 Q2488.53 191.47 2490.57 191.47 Q2495.94 191.47 2499.13 194.155 Q2502.32 196.841 2502.32 201.331 Q2502.32 203.461 2501.51 205.382 Q2500.73 207.28 2498.62 209.873 Q2498.04 210.544 2494.94 213.762 Q2491.84 216.956 2486.19 222.72 Z" fill="#000000" fill-rule="evenodd" fill-opacity="1" /></svg>
