<?xml version="1.0" encoding="utf-8"?>
<svg xmlns="http://www.w3.org/2000/svg" xmlns:xlink="http://www.w3.org/1999/xlink" width="672" height="480" viewBox="0 0 2688 1920">
<defs>
  <clipPath id="clip660">
    <rect x="0" y="0" width="2688" height="1920"/>
  </clipPath>
</defs>
<path clip-path="url(#clip660)" d="
M0 1920 L2688 1920 L2688 0 L0 0  Z
  " fill="#ffffff" fill-rule="evenodd" fill-opacity="1"/>
<defs>
  <clipPath id="clip661">
    <rect x="537" y="0" width="1883" height="1883"/>
  </clipPath>
</defs>
<path clip-path="url(#clip660)" d="
M181.747 1800.78 L2640.76 1800.78 L2640.76 47.2441 L181.747 47.2441  Z
  " fill="#ffffff" fill-rule="evenodd" fill-opacity="1"/>
<defs>
  <clipPath id="clip662">
    <rect x="181" y="47" width="2460" height="1755"/>
  </clipPath>
</defs>
<polyline clip-path="url(#clip662)" style="stroke:#000000; stroke-linecap:butt; stroke-linejoin:round; stroke-width:2; stroke-opacity:0.1; fill:none" points="
  251.341,1800.78 251.341,47.2441 
  "/>
<polyline clip-path="url(#clip662)" style="stroke:#000000; stroke-linecap:butt; stroke-linejoin:round; stroke-width:2; stroke-opacity:0.1; fill:none" points="
  637.978,1800.78 637.978,47.2441 
  "/>
<polyline clip-path="url(#clip662)" style="stroke:#000000; stroke-linecap:butt; stroke-linejoin:round; stroke-width:2; stroke-opacity:0.1; fill:none" points="
  1024.61,1800.78 1024.61,47.2441 
  "/>
<polyline clip-path="url(#clip662)" style="stroke:#000000; stroke-linecap:butt; stroke-linejoin:round; stroke-width:2; stroke-opacity:0.1; fill:none" points="
  1411.25,1800.78 1411.25,47.2441 
  "/>
<polyline clip-path="url(#clip662)" style="stroke:#000000; stroke-linecap:butt; stroke-linejoin:round; stroke-width:2; stroke-opacity:0.1; fill:none" points="
  1797.89,1800.78 1797.89,47.2441 
  "/>
<polyline clip-path="url(#clip662)" style="stroke:#000000; stroke-linecap:butt; stroke-linejoin:round; stroke-width:2; stroke-opacity:0.1; fill:none" points="
  2184.52,1800.78 2184.52,47.2441 
  "/>
<polyline clip-path="url(#clip662)" style="stroke:#000000; stroke-linecap:butt; stroke-linejoin:round; stroke-width:2; stroke-opacity:0.1; fill:none" points="
  2571.16,1800.78 2571.16,47.2441 
  "/>
<polyline clip-path="url(#clip660)" style="stroke:#000000; stroke-linecap:butt; stroke-linejoin:round; stroke-width:4; stroke-opacity:1; fill:none" points="
  181.747,1800.78 2640.76,1800.78 
  "/>
<polyline clip-path="url(#clip660)" style="stroke:#000000; stroke-linecap:butt; stroke-linejoin:round; stroke-width:4; stroke-opacity:1; fill:none" points="
  251.341,1800.78 251.341,1781.88 
  "/>
<polyline clip-path="url(#clip660)" style="stroke:#000000; stroke-linecap:butt; stroke-linejoin:round; stroke-width:4; stroke-opacity:1; fill:none" points="
  637.978,1800.78 637.978,1781.88 
  "/>
<polyline clip-path="url(#clip660)" style="stroke:#000000; stroke-linecap:butt; stroke-linejoin:round; stroke-width:4; stroke-opacity:1; fill:none" points="
  1024.61,1800.78 1024.61,1781.88 
  "/>
<polyline clip-path="url(#clip660)" style="stroke:#000000; stroke-linecap:butt; stroke-linejoin:round; stroke-width:4; stroke-opacity:1; fill:none" points="
  1411.25,1800.78 1411.25,1781.88 
  "/>
<polyline clip-path="url(#clip660)" style="stroke:#000000; stroke-linecap:butt; stroke-linejoin:round; stroke-width:4; stroke-opacity:1; fill:none" points="
  1797.89,1800.78 1797.89,1781.88 
  "/>
<polyline clip-path="url(#clip660)" style="stroke:#000000; stroke-linecap:butt; stroke-linejoin:round; stroke-width:4; stroke-opacity:1; fill:none" points="
  2184.52,1800.78 2184.52,1781.88 
  "/>
<polyline clip-path="url(#clip660)" style="stroke:#000000; stroke-linecap:butt; stroke-linejoin:round; stroke-width:4; stroke-opacity:1; fill:none" points="
  2571.16,1800.78 2571.16,1781.88 
  "/>
<path clip-path="url(#clip660)" d="M220.809 1848.65 L250.485 1848.65 L250.485 1852.59 L220.809 1852.59 L220.809 1848.65 Z" fill="#000000" fill-rule="evenodd" fill-opacity="1" /><path clip-path="url(#clip660)" d="M274.744 1846.85 Q278.1 1847.57 279.975 1849.84 Q281.873 1852.1 281.873 1855.44 Q281.873 1860.55 278.355 1863.35 Q274.836 1866.15 268.355 1866.15 Q266.179 1866.15 263.864 1865.71 Q261.573 1865.3 259.119 1864.44 L259.119 1859.93 Q261.063 1861.06 263.378 1861.64 Q265.693 1862.22 268.216 1862.22 Q272.614 1862.22 274.906 1860.48 Q277.221 1858.75 277.221 1855.44 Q277.221 1852.38 275.068 1850.67 Q272.938 1848.93 269.119 1848.93 L265.091 1848.93 L265.091 1845.09 L269.304 1845.09 Q272.753 1845.09 274.582 1843.72 Q276.411 1842.34 276.411 1839.74 Q276.411 1837.08 274.512 1835.67 Q272.637 1834.23 269.119 1834.23 Q267.198 1834.23 264.999 1834.65 Q262.8 1835.07 260.161 1835.95 L260.161 1831.78 Q262.823 1831.04 265.137 1830.67 Q267.475 1830.3 269.536 1830.3 Q274.86 1830.3 277.961 1832.73 Q281.063 1835.14 281.063 1839.26 Q281.063 1842.13 279.42 1844.12 Q277.776 1846.09 274.744 1846.85 Z" fill="#000000" fill-rule="evenodd" fill-opacity="1" /><path clip-path="url(#clip660)" d="M607.92 1848.65 L637.596 1848.65 L637.596 1852.59 L607.92 1852.59 L607.92 1848.65 Z" fill="#000000" fill-rule="evenodd" fill-opacity="1" /><path clip-path="url(#clip660)" d="M651.716 1861.55 L668.036 1861.55 L668.036 1865.48 L646.091 1865.48 L646.091 1861.55 Q648.753 1858.79 653.337 1854.16 Q657.943 1849.51 659.124 1848.17 Q661.369 1845.65 662.249 1843.91 Q663.151 1842.15 663.151 1840.46 Q663.151 1837.71 661.207 1835.97 Q659.286 1834.23 656.184 1834.23 Q653.985 1834.23 651.531 1835 Q649.101 1835.76 646.323 1837.31 L646.323 1832.59 Q649.147 1831.46 651.601 1830.88 Q654.054 1830.3 656.091 1830.3 Q661.462 1830.3 664.656 1832.98 Q667.85 1835.67 667.85 1840.16 Q667.85 1842.29 667.04 1844.21 Q666.253 1846.11 664.147 1848.7 Q663.568 1849.37 660.466 1852.59 Q657.364 1855.78 651.716 1861.55 Z" fill="#000000" fill-rule="evenodd" fill-opacity="1" /><path clip-path="url(#clip660)" d="M994.372 1848.65 L1024.05 1848.65 L1024.05 1852.59 L994.372 1852.59 L994.372 1848.65 Z" fill="#000000" fill-rule="evenodd" fill-opacity="1" /><path clip-path="url(#clip660)" d="M1034.95 1861.55 L1042.59 1861.55 L1042.59 1835.18 L1034.28 1836.85 L1034.28 1832.59 L1042.54 1830.92 L1047.22 1830.92 L1047.22 1861.55 L1054.86 1861.55 L1054.86 1865.48 L1034.95 1865.48 L1034.95 1861.55 Z" fill="#000000" fill-rule="evenodd" fill-opacity="1" /><path clip-path="url(#clip660)" d="M1411.25 1834 Q1407.64 1834 1405.81 1837.57 Q1404.01 1841.11 1404.01 1848.24 Q1404.01 1855.34 1405.81 1858.91 Q1407.64 1862.45 1411.25 1862.45 Q1414.89 1862.45 1416.69 1858.91 Q1418.52 1855.34 1418.52 1848.24 Q1418.52 1841.11 1416.69 1837.57 Q1414.89 1834 1411.25 1834 M1411.25 1830.3 Q1417.06 1830.3 1420.12 1834.9 Q1423.2 1839.49 1423.2 1848.24 Q1423.2 1856.96 1420.12 1861.57 Q1417.06 1866.15 1411.25 1866.15 Q1405.44 1866.15 1402.36 1861.57 Q1399.31 1856.96 1399.31 1848.24 Q1399.31 1839.49 1402.36 1834.9 Q1405.44 1830.3 1411.25 1830.3 Z" fill="#000000" fill-rule="evenodd" fill-opacity="1" /><path clip-path="url(#clip660)" d="M1788.27 1861.55 L1795.91 1861.55 L1795.91 1835.18 L1787.6 1836.85 L1787.6 1832.59 L1795.86 1830.92 L1800.54 1830.92 L1800.54 1861.55 L1808.18 1861.55 L1808.18 1865.48 L1788.27 1865.48 L1788.27 1861.55 Z" fill="#000000" fill-rule="evenodd" fill-opacity="1" /><path clip-path="url(#clip660)" d="M2179.18 1861.55 L2195.5 1861.55 L2195.5 1865.48 L2173.55 1865.48 L2173.55 1861.55 Q2176.21 1858.79 2180.8 1854.16 Q2185.4 1849.51 2186.58 1848.17 Q2188.83 1845.65 2189.71 1843.91 Q2190.61 1842.15 2190.61 1840.46 Q2190.61 1837.71 2188.67 1835.97 Q2186.75 1834.23 2183.65 1834.23 Q2181.45 1834.23 2178.99 1835 Q2176.56 1835.76 2173.78 1837.31 L2173.78 1832.59 Q2176.61 1831.46 2179.06 1830.88 Q2181.52 1830.3 2183.55 1830.3 Q2188.92 1830.3 2192.12 1832.98 Q2195.31 1835.67 2195.31 1840.16 Q2195.31 1842.29 2194.5 1844.21 Q2193.71 1846.11 2191.61 1848.7 Q2191.03 1849.37 2187.93 1852.59 Q2184.83 1855.78 2179.18 1861.55 Z" fill="#000000" fill-rule="evenodd" fill-opacity="1" /><path clip-path="url(#clip660)" d="M2575.41 1846.85 Q2578.77 1847.57 2580.64 1849.84 Q2582.54 1852.1 2582.54 1855.44 Q2582.54 1860.55 2579.02 1863.35 Q2575.5 1866.15 2569.02 1866.15 Q2566.84 1866.15 2564.53 1865.71 Q2562.24 1865.3 2559.78 1864.44 L2559.78 1859.93 Q2561.73 1861.06 2564.04 1861.64 Q2566.36 1862.22 2568.88 1862.22 Q2573.28 1862.22 2575.57 1860.48 Q2577.89 1858.75 2577.89 1855.44 Q2577.89 1852.38 2575.73 1850.67 Q2573.6 1848.93 2569.78 1848.93 L2565.76 1848.93 L2565.76 1845.09 L2569.97 1845.09 Q2573.42 1845.09 2575.25 1843.72 Q2577.08 1842.34 2577.08 1839.74 Q2577.08 1837.08 2575.18 1835.67 Q2573.3 1834.23 2569.78 1834.23 Q2567.86 1834.23 2565.66 1834.65 Q2563.46 1835.07 2560.83 1835.95 L2560.83 1831.78 Q2563.49 1831.04 2565.8 1830.67 Q2568.14 1830.3 2570.2 1830.3 Q2575.52 1830.3 2578.63 1832.73 Q2581.73 1835.14 2581.73 1839.26 Q2581.73 1842.13 2580.08 1844.12 Q2578.44 1846.09 2575.41 1846.85 Z" fill="#000000" fill-rule="evenodd" fill-opacity="1" /><polyline clip-path="url(#clip662)" style="stroke:#000000; stroke-linecap:butt; stroke-linejoin:round; stroke-width:2; stroke-opacity:0.1; fill:none" points="
  181.747,1755.3 2640.76,1755.3 
  "/>
<polyline clip-path="url(#clip662)" style="stroke:#000000; stroke-linecap:butt; stroke-linejoin:round; stroke-width:2; stroke-opacity:0.1; fill:none" points="
  181.747,1336.13 2640.76,1336.13 
  "/>
<polyline clip-path="url(#clip662)" style="stroke:#000000; stroke-linecap:butt; stroke-linejoin:round; stroke-width:2; stroke-opacity:0.1; fill:none" points="
  181.747,916.959 2640.76,916.959 
  "/>
<polyline clip-path="url(#clip662)" style="stroke:#000000; stroke-linecap:butt; stroke-linejoin:round; stroke-width:2; stroke-opacity:0.1; fill:none" points="
  181.747,497.788 2640.76,497.788 
  "/>
<polyline clip-path="url(#clip662)" style="stroke:#000000; stroke-linecap:butt; stroke-linejoin:round; stroke-width:2; stroke-opacity:0.1; fill:none" points="
  181.747,78.6174 2640.76,78.6174 
  "/>
<polyline clip-path="url(#clip660)" style="stroke:#000000; stroke-linecap:butt; stroke-linejoin:round; stroke-width:4; stroke-opacity:1; fill:none" points="
  181.747,1800.78 181.747,47.2441 
  "/>
<polyline clip-path="url(#clip660)" style="stroke:#000000; stroke-linecap:butt; stroke-linejoin:round; stroke-width:4; stroke-opacity:1; fill:none" points="
  181.747,1755.3 200.644,1755.3 
  "/>
<polyline clip-path="url(#clip660)" style="stroke:#000000; stroke-linecap:butt; stroke-linejoin:round; stroke-width:4; stroke-opacity:1; fill:none" points="
  181.747,1336.13 200.644,1336.13 
  "/>
<polyline clip-path="url(#clip660)" style="stroke:#000000; stroke-linecap:butt; stroke-linejoin:round; stroke-width:4; stroke-opacity:1; fill:none" points="
  181.747,916.959 200.644,916.959 
  "/>
<polyline clip-path="url(#clip660)" style="stroke:#000000; stroke-linecap:butt; stroke-linejoin:round; stroke-width:4; stroke-opacity:1; fill:none" points="
  181.747,497.788 200.644,497.788 
  "/>
<polyline clip-path="url(#clip660)" style="stroke:#000000; stroke-linecap:butt; stroke-linejoin:round; stroke-width:4; stroke-opacity:1; fill:none" points="
  181.747,78.6174 200.644,78.6174 
  "/>
<path clip-path="url(#clip660)" d="M49.5521 1755.75 L79.2279 1755.75 L79.2279 1759.69 L49.5521 1759.69 L49.5521 1755.75 Z" fill="#000000" fill-rule="evenodd" fill-opacity="1" /><path clip-path="url(#clip660)" d="M93.3482 1768.65 L109.668 1768.65 L109.668 1772.58 L87.7232 1772.58 L87.7232 1768.65 Q90.3852 1765.89 94.9685 1761.26 Q99.575 1756.61 100.756 1755.27 Q103.001 1752.74 103.881 1751.01 Q104.783 1749.25 104.783 1747.56 Q104.783 1744.8 102.839 1743.07 Q100.918 1741.33 97.8158 1741.33 Q95.6167 1741.33 93.163 1742.1 Q90.7325 1742.86 87.9547 1744.41 L87.9547 1739.69 Q90.7788 1738.55 93.2324 1737.98 Q95.6861 1737.4 97.7232 1737.4 Q103.094 1737.4 106.288 1740.08 Q109.482 1742.77 109.482 1747.26 Q109.482 1749.39 108.672 1751.31 Q107.885 1753.21 105.779 1755.8 Q105.2 1756.47 102.098 1759.69 Q98.9963 1762.88 93.3482 1768.65 Z" fill="#000000" fill-rule="evenodd" fill-opacity="1" /><path clip-path="url(#clip660)" d="M129.482 1741.1 Q125.871 1741.1 124.042 1744.66 Q122.237 1748.21 122.237 1755.34 Q122.237 1762.44 124.042 1766.01 Q125.871 1769.55 129.482 1769.55 Q133.116 1769.55 134.922 1766.01 Q136.751 1762.44 136.751 1755.34 Q136.751 1748.21 134.922 1744.66 Q133.116 1741.1 129.482 1741.1 M129.482 1737.4 Q135.292 1737.4 138.348 1742 Q141.427 1746.59 141.427 1755.34 Q141.427 1764.06 138.348 1768.67 Q135.292 1773.25 129.482 1773.25 Q123.672 1773.25 120.593 1768.67 Q117.538 1764.06 117.538 1755.34 Q117.538 1746.59 120.593 1742 Q123.672 1737.4 129.482 1737.4 Z" fill="#000000" fill-rule="evenodd" fill-opacity="1" /><path clip-path="url(#clip660)" d="M49.5521 1336.58 L79.2279 1336.58 L79.2279 1340.52 L49.5521 1340.52 L49.5521 1336.58 Z" fill="#000000" fill-rule="evenodd" fill-opacity="1" /><path clip-path="url(#clip660)" d="M90.1306 1349.48 L97.7695 1349.48 L97.7695 1323.11 L89.4593 1324.78 L89.4593 1320.52 L97.7232 1318.85 L102.399 1318.85 L102.399 1349.48 L110.038 1349.48 L110.038 1353.41 L90.1306 1353.41 L90.1306 1349.48 Z" fill="#000000" fill-rule="evenodd" fill-opacity="1" /><path clip-path="url(#clip660)" d="M129.482 1321.93 Q125.871 1321.93 124.042 1325.49 Q122.237 1329.04 122.237 1336.17 Q122.237 1343.27 124.042 1346.84 Q125.871 1350.38 129.482 1350.38 Q133.116 1350.38 134.922 1346.84 Q136.751 1343.27 136.751 1336.17 Q136.751 1329.04 134.922 1325.49 Q133.116 1321.93 129.482 1321.93 M129.482 1318.23 Q135.292 1318.23 138.348 1322.83 Q141.427 1327.42 141.427 1336.17 Q141.427 1344.89 138.348 1349.5 Q135.292 1354.08 129.482 1354.08 Q123.672 1354.08 120.593 1349.5 Q117.538 1344.89 117.538 1336.17 Q117.538 1327.42 120.593 1322.83 Q123.672 1318.23 129.482 1318.23 Z" fill="#000000" fill-rule="evenodd" fill-opacity="1" /><path clip-path="url(#clip660)" d="M129.482 902.758 Q125.871 902.758 124.042 906.323 Q122.237 909.865 122.237 916.994 Q122.237 924.101 124.042 927.665 Q125.871 931.207 129.482 931.207 Q133.116 931.207 134.922 927.665 Q136.751 924.101 136.751 916.994 Q136.751 909.865 134.922 906.323 Q133.116 902.758 129.482 902.758 M129.482 899.054 Q135.292 899.054 138.348 903.661 Q141.427 908.244 141.427 916.994 Q141.427 925.721 138.348 930.327 Q135.292 934.911 129.482 934.911 Q123.672 934.911 120.593 930.327 Q117.538 925.721 117.538 916.994 Q117.538 908.244 120.593 903.661 Q123.672 899.054 129.482 899.054 Z" fill="#000000" fill-rule="evenodd" fill-opacity="1" /><path clip-path="url(#clip660)" d="M90.1306 511.133 L97.7695 511.133 L97.7695 484.768 L89.4593 486.434 L89.4593 482.175 L97.7232 480.508 L102.399 480.508 L102.399 511.133 L110.038 511.133 L110.038 515.068 L90.1306 515.068 L90.1306 511.133 Z" fill="#000000" fill-rule="evenodd" fill-opacity="1" /><path clip-path="url(#clip660)" d="M129.482 483.587 Q125.871 483.587 124.042 487.152 Q122.237 490.694 122.237 497.823 Q122.237 504.93 124.042 508.494 Q125.871 512.036 129.482 512.036 Q133.116 512.036 134.922 508.494 Q136.751 504.93 136.751 497.823 Q136.751 490.694 134.922 487.152 Q133.116 483.587 129.482 483.587 M129.482 479.883 Q135.292 479.883 138.348 484.49 Q141.427 489.073 141.427 497.823 Q141.427 506.55 138.348 511.156 Q135.292 515.74 129.482 515.74 Q123.672 515.74 120.593 511.156 Q117.538 506.55 117.538 497.823 Q117.538 489.073 120.593 484.49 Q123.672 479.883 129.482 479.883 Z" fill="#000000" fill-rule="evenodd" fill-opacity="1" /><path clip-path="url(#clip660)" d="M93.3482 91.9622 L109.668 91.9622 L109.668 95.8974 L87.7232 95.8974 L87.7232 91.9622 Q90.3852 89.2076 94.9685 84.578 Q99.575 79.9253 100.756 78.5827 Q103.001 76.0595 103.881 74.3234 Q104.783 72.5642 104.783 70.8744 Q104.783 68.1198 102.839 66.3837 Q100.918 64.6476 97.8158 64.6476 Q95.6167 64.6476 93.163 65.4114 Q90.7325 66.1753 87.9547 67.7262 L87.9547 63.0041 Q90.7788 61.8698 93.2324 61.2911 Q95.6861 60.7124 97.7232 60.7124 Q103.094 60.7124 106.288 63.3976 Q109.482 66.0827 109.482 70.5735 Q109.482 72.7031 108.672 74.6244 Q107.885 76.5225 105.779 79.1151 Q105.2 79.7864 102.098 83.0039 Q98.9963 86.1984 93.3482 91.9622 Z" fill="#000000" fill-rule="evenodd" fill-opacity="1" /><path clip-path="url(#clip660)" d="M129.482 64.4161 Q125.871 64.4161 124.042 67.9809 Q122.237 71.5225 122.237 78.6521 Q122.237 85.7586 124.042 89.3234 Q125.871 92.865 129.482 92.865 Q133.116 92.865 134.922 89.3234 Q136.751 85.7586 136.751 78.6521 Q136.751 71.5225 134.922 67.9809 Q133.116 64.4161 129.482 64.4161 M129.482 60.7124 Q135.292 60.7124 138.348 65.3189 Q141.427 69.9022 141.427 78.6521 Q141.427 87.3789 138.348 91.9854 Q135.292 96.5687 129.482 96.5687 Q123.672 96.5687 120.593 91.9854 Q117.538 87.3789 117.538 78.6521 Q117.538 69.9022 120.593 65.3189 Q123.672 60.7124 129.482 60.7124 Z" fill="#000000" fill-rule="evenodd" fill-opacity="1" /><polyline clip-path="url(#clip662)" style="stroke:#009af9; stroke-linecap:butt; stroke-linejoin:round; stroke-width:4; stroke-opacity:1; fill:none" points="
  251.341,930.932 273.996,931.21 483.474,934.428 609.361,937.17 715.797,940.263 831.417,944.91 938.008,951.205 995.146,955.908 1052.28,962.108 1118.48,972.316 
  1184.69,988.491 1214.1,999.164 1243.52,1013.58 1272.93,1034.13 1302.35,1065.78 1315.24,1085.77 1328.14,1111.96 1334.59,1128.37 1341.04,1147.79 1347.49,1171.13 
  1353.94,1199.73 1360.39,1235.58 1366.83,1281.84 1370.06,1310.4 1373.28,1343.81 1376.51,1383.42 1379.73,1431.14 1381.34,1458.86 1382.96,1489.74 1384.57,1524.34 
  1386.18,1563.4 1387.79,1607.83 1389.4,1658.81 1390.21,1687.23 1391.02,1717.92 1391.82,1751.15 
  "/>
<polyline clip-path="url(#clip662)" style="stroke:#009af9; stroke-linecap:butt; stroke-linejoin:round; stroke-width:4; stroke-opacity:1; fill:none" points="
  1431.01,96.8724 1431.89,131.79 1432.77,163.856 1433.65,193.405 1437.17,291.559 1440.68,366.265 1444.2,425.027 1447.71,472.458 1451.23,511.546 1454.74,544.316 
  1458.26,572.184 1461.77,596.174 1468.8,635.362 1475.83,666.018 1482.87,690.655 1489.9,710.886 1503.96,742.143 1518.02,765.167 1546.31,796.962 1574.6,817.744 
  1602.89,832.391 1631.18,843.269 1693.74,859.588 1756.3,869.99 1815.82,876.9 1875.34,882.038 1999.12,889.391 2103.31,893.541 2230.52,897.178 2350.1,899.697 
  2541.68,902.623 2571.16,902.987 
  "/>
<path clip-path="url(#clip660)" d="
M2233.14 209.375 L2558.79 209.375 L2558.79 105.695 L2233.14 105.695  Z
  " fill="#ffffff" fill-rule="evenodd" fill-opacity="1"/>
<polyline clip-path="url(#clip660)" style="stroke:#000000; stroke-linecap:butt; stroke-linejoin:round; stroke-width:4; stroke-opacity:1; fill:none" points="
  2233.14,209.375 2558.79,209.375 2558.79,105.695 2233.14,105.695 2233.14,209.375 
  "/>
<polyline clip-path="url(#clip660)" style="stroke:#009af9; stroke-linecap:butt; stroke-linejoin:round; stroke-width:4; stroke-opacity:1; fill:none" points="
  2260.46,157.535 2424.39,157.535 
  "/>
<path clip-path="url(#clip660)" d="M2465.56 177.223 Q2463.75 181.852 2462.04 183.264 Q2460.33 184.676 2457.45 184.676 L2454.05 184.676 L2454.05 181.112 L2456.55 181.112 Q2458.31 181.112 2459.28 180.278 Q2460.26 179.445 2461.44 176.343 L2462.2 174.399 L2451.71 148.889 L2456.23 148.889 L2464.33 169.167 L2472.43 148.889 L2476.95 148.889 L2465.56 177.223 Z" fill="#000000" fill-rule="evenodd" fill-opacity="1" /><path clip-path="url(#clip660)" d="M2484.24 170.88 L2491.88 170.88 L2491.88 144.515 L2483.57 146.181 L2483.57 141.922 L2491.83 140.255 L2496.51 140.255 L2496.51 170.88 L2504.14 170.88 L2504.14 174.815 L2484.24 174.815 L2484.24 170.88 Z" fill="#000000" fill-rule="evenodd" fill-opacity="1" /></svg>
