<?xml version="1.0" encoding="utf-8"?>
<svg xmlns="http://www.w3.org/2000/svg" xmlns:xlink="http://www.w3.org/1999/xlink" width="672" height="480" viewBox="0 0 2688 1920">
<defs>
  <clipPath id="clip200">
    <rect x="0" y="0" width="2688" height="1920"/>
  </clipPath>
</defs>
<path clip-path="url(#clip200)" d="M0 1920 L2688 1920 L2688 0 L0 0  Z" fill="#ffffff" fill-rule="evenodd" fill-opacity="1"/>
<defs>
  <clipPath id="clip201">
    <rect x="537" y="0" width="1883" height="1883"/>
  </clipPath>
</defs>
<path clip-path="url(#clip200)" d="M203.899 1800.78 L2640.76 1800.78 L2640.76 47.2441 L203.899 47.2441  Z" fill="#ffffff" fill-rule="evenodd" fill-opacity="1"/>
<defs>
  <clipPath id="clip202">
    <rect x="203" y="47" width="2438" height="1755"/>
  </clipPath>
</defs>
<polyline clip-path="url(#clip202)" style="stroke:#000000; stroke-linecap:round; stroke-linejoin:round; stroke-width:2; stroke-opacity:0.1; fill:none" points="272.867,1800.78 272.867,47.2441 "/>
<polyline clip-path="url(#clip202)" style="stroke:#000000; stroke-linecap:round; stroke-linejoin:round; stroke-width:2; stroke-opacity:0.1; fill:none" points="656.02,1800.78 656.02,47.2441 "/>
<polyline clip-path="url(#clip202)" style="stroke:#000000; stroke-linecap:round; stroke-linejoin:round; stroke-width:2; stroke-opacity:0.1; fill:none" points="1039.17,1800.78 1039.17,47.2441 "/>
<polyline clip-path="url(#clip202)" style="stroke:#000000; stroke-linecap:round; stroke-linejoin:round; stroke-width:2; stroke-opacity:0.1; fill:none" points="1422.33,1800.78 1422.33,47.2441 "/>
<polyline clip-path="url(#clip202)" style="stroke:#000000; stroke-linecap:round; stroke-linejoin:round; stroke-width:2; stroke-opacity:0.1; fill:none" points="1805.48,1800.78 1805.48,47.2441 "/>
<polyline clip-path="url(#clip202)" style="stroke:#000000; stroke-linecap:round; stroke-linejoin:round; stroke-width:2; stroke-opacity:0.1; fill:none" points="2188.63,1800.78 2188.63,47.2441 "/>
<polyline clip-path="url(#clip202)" style="stroke:#000000; stroke-linecap:round; stroke-linejoin:round; stroke-width:2; stroke-opacity:0.1; fill:none" points="2571.79,1800.78 2571.79,47.2441 "/>
<polyline clip-path="url(#clip200)" style="stroke:#000000; stroke-linecap:round; stroke-linejoin:round; stroke-width:4; stroke-opacity:1; fill:none" points="203.899,1800.78 2640.76,1800.78 "/>
<polyline clip-path="url(#clip200)" style="stroke:#000000; stroke-linecap:round; stroke-linejoin:round; stroke-width:4; stroke-opacity:1; fill:none" points="272.867,1800.78 272.867,1781.88 "/>
<polyline clip-path="url(#clip200)" style="stroke:#000000; stroke-linecap:round; stroke-linejoin:round; stroke-width:4; stroke-opacity:1; fill:none" points="656.02,1800.78 656.02,1781.88 "/>
<polyline clip-path="url(#clip200)" style="stroke:#000000; stroke-linecap:round; stroke-linejoin:round; stroke-width:4; stroke-opacity:1; fill:none" points="1039.17,1800.78 1039.17,1781.88 "/>
<polyline clip-path="url(#clip200)" style="stroke:#000000; stroke-linecap:round; stroke-linejoin:round; stroke-width:4; stroke-opacity:1; fill:none" points="1422.33,1800.78 1422.33,1781.88 "/>
<polyline clip-path="url(#clip200)" style="stroke:#000000; stroke-linecap:round; stroke-linejoin:round; stroke-width:4; stroke-opacity:1; fill:none" points="1805.48,1800.78 1805.48,1781.88 "/>
<polyline clip-path="url(#clip200)" style="stroke:#000000; stroke-linecap:round; stroke-linejoin:round; stroke-width:4; stroke-opacity:1; fill:none" points="2188.63,1800.78 2188.63,1781.88 "/>
<polyline clip-path="url(#clip200)" style="stroke:#000000; stroke-linecap:round; stroke-linejoin:round; stroke-width:4; stroke-opacity:1; fill:none" points="2571.79,1800.78 2571.79,1781.88 "/>
<path clip-path="url(#clip200)" d="M242.335 1848.65 L272.01 1848.65 L272.01 1852.59 L242.335 1852.59 L242.335 1848.65 Z" fill="#000000" fill-rule="evenodd" fill-opacity="1" /><path clip-path="url(#clip200)" d="M296.27 1846.85 Q299.626 1847.57 301.501 1849.84 Q303.399 1852.1 303.399 1855.44 Q303.399 1860.55 299.881 1863.35 Q296.362 1866.15 289.881 1866.15 Q287.705 1866.15 285.39 1865.71 Q283.098 1865.3 280.645 1864.44 L280.645 1859.93 Q282.589 1861.06 284.904 1861.64 Q287.219 1862.22 289.742 1862.22 Q294.14 1862.22 296.432 1860.48 Q298.746 1858.75 298.746 1855.44 Q298.746 1852.38 296.594 1850.67 Q294.464 1848.93 290.645 1848.93 L286.617 1848.93 L286.617 1845.09 L290.83 1845.09 Q294.279 1845.09 296.108 1843.72 Q297.936 1842.34 297.936 1839.74 Q297.936 1837.08 296.038 1835.67 Q294.163 1834.23 290.645 1834.23 Q288.723 1834.23 286.524 1834.65 Q284.325 1835.07 281.686 1835.95 L281.686 1831.78 Q284.348 1831.04 286.663 1830.67 Q289.001 1830.3 291.061 1830.3 Q296.385 1830.3 299.487 1832.73 Q302.589 1835.14 302.589 1839.26 Q302.589 1842.13 300.945 1844.12 Q299.302 1846.09 296.27 1846.85 Z" fill="#000000" fill-rule="evenodd" fill-opacity="1" /><path clip-path="url(#clip200)" d="M625.963 1848.65 L655.639 1848.65 L655.639 1852.59 L625.963 1852.59 L625.963 1848.65 Z" fill="#000000" fill-rule="evenodd" fill-opacity="1" /><path clip-path="url(#clip200)" d="M669.759 1861.55 L686.078 1861.55 L686.078 1865.48 L664.134 1865.48 L664.134 1861.55 Q666.796 1858.79 671.379 1854.16 Q675.986 1849.51 677.166 1848.17 Q679.412 1845.65 680.291 1843.91 Q681.194 1842.15 681.194 1840.46 Q681.194 1837.71 679.25 1835.97 Q677.328 1834.23 674.226 1834.23 Q672.027 1834.23 669.574 1835 Q667.143 1835.76 664.365 1837.31 L664.365 1832.59 Q667.189 1831.46 669.643 1830.88 Q672.097 1830.3 674.134 1830.3 Q679.504 1830.3 682.699 1832.98 Q685.893 1835.67 685.893 1840.16 Q685.893 1842.29 685.083 1844.21 Q684.296 1846.11 682.189 1848.7 Q681.611 1849.37 678.509 1852.59 Q675.407 1855.78 669.759 1861.55 Z" fill="#000000" fill-rule="evenodd" fill-opacity="1" /><path clip-path="url(#clip200)" d="M1008.93 1848.65 L1038.61 1848.65 L1038.61 1852.59 L1008.93 1852.59 L1008.93 1848.65 Z" fill="#000000" fill-rule="evenodd" fill-opacity="1" /><path clip-path="url(#clip200)" d="M1049.51 1861.55 L1057.15 1861.55 L1057.15 1835.18 L1048.84 1836.85 L1048.84 1832.59 L1057.1 1830.92 L1061.78 1830.92 L1061.78 1861.55 L1069.42 1861.55 L1069.42 1865.48 L1049.51 1865.48 L1049.51 1861.55 Z" fill="#000000" fill-rule="evenodd" fill-opacity="1" /><path clip-path="url(#clip200)" d="M1422.33 1834 Q1418.72 1834 1416.89 1837.57 Q1415.08 1841.11 1415.08 1848.24 Q1415.08 1855.34 1416.89 1858.91 Q1418.72 1862.45 1422.33 1862.45 Q1425.96 1862.45 1427.77 1858.91 Q1429.6 1855.34 1429.6 1848.24 Q1429.6 1841.11 1427.77 1837.57 Q1425.96 1834 1422.33 1834 M1422.33 1830.3 Q1428.14 1830.3 1431.19 1834.9 Q1434.27 1839.49 1434.27 1848.24 Q1434.27 1856.96 1431.19 1861.57 Q1428.14 1866.15 1422.33 1866.15 Q1416.52 1866.15 1413.44 1861.57 Q1410.38 1856.96 1410.38 1848.24 Q1410.38 1839.49 1413.44 1834.9 Q1416.52 1830.3 1422.33 1830.3 Z" fill="#000000" fill-rule="evenodd" fill-opacity="1" /><path clip-path="url(#clip200)" d="M1795.86 1861.55 L1803.5 1861.55 L1803.5 1835.18 L1795.19 1836.85 L1795.19 1832.59 L1803.46 1830.92 L1808.13 1830.92 L1808.13 1861.55 L1815.77 1861.55 L1815.77 1865.48 L1795.86 1865.48 L1795.86 1861.55 Z" fill="#000000" fill-rule="evenodd" fill-opacity="1" /><path clip-path="url(#clip200)" d="M2183.29 1861.55 L2199.61 1861.55 L2199.61 1865.48 L2177.66 1865.48 L2177.66 1861.55 Q2180.32 1858.79 2184.91 1854.16 Q2189.51 1849.51 2190.69 1848.17 Q2192.94 1845.65 2193.82 1843.91 Q2194.72 1842.15 2194.72 1840.46 Q2194.72 1837.71 2192.78 1835.97 Q2190.86 1834.23 2187.76 1834.23 Q2185.56 1834.23 2183.1 1835 Q2180.67 1835.76 2177.89 1837.31 L2177.89 1832.59 Q2180.72 1831.46 2183.17 1830.88 Q2185.63 1830.3 2187.66 1830.3 Q2193.03 1830.3 2196.23 1832.98 Q2199.42 1835.67 2199.42 1840.16 Q2199.42 1842.29 2198.61 1844.21 Q2197.82 1846.11 2195.72 1848.7 Q2195.14 1849.37 2192.04 1852.59 Q2188.94 1855.78 2183.29 1861.55 Z" fill="#000000" fill-rule="evenodd" fill-opacity="1" /><path clip-path="url(#clip200)" d="M2576.04 1846.85 Q2579.39 1847.57 2581.27 1849.84 Q2583.17 1852.1 2583.17 1855.44 Q2583.17 1860.55 2579.65 1863.35 Q2576.13 1866.15 2569.65 1866.15 Q2567.47 1866.15 2565.16 1865.71 Q2562.86 1865.3 2560.41 1864.44 L2560.41 1859.93 Q2562.36 1861.06 2564.67 1861.64 Q2566.99 1862.22 2569.51 1862.22 Q2573.91 1862.22 2576.2 1860.48 Q2578.51 1858.75 2578.51 1855.44 Q2578.51 1852.38 2576.36 1850.67 Q2574.23 1848.93 2570.41 1848.93 L2566.38 1848.93 L2566.38 1845.09 L2570.6 1845.09 Q2574.05 1845.09 2575.87 1843.72 Q2577.7 1842.34 2577.7 1839.74 Q2577.7 1837.08 2575.8 1835.67 Q2573.93 1834.23 2570.41 1834.23 Q2568.49 1834.23 2566.29 1834.65 Q2564.09 1835.07 2561.45 1835.95 L2561.45 1831.78 Q2564.11 1831.04 2566.43 1830.67 Q2568.77 1830.3 2570.83 1830.3 Q2576.15 1830.3 2579.25 1832.73 Q2582.36 1835.14 2582.36 1839.26 Q2582.36 1842.13 2580.71 1844.12 Q2579.07 1846.09 2576.04 1846.85 Z" fill="#000000" fill-rule="evenodd" fill-opacity="1" /><polyline clip-path="url(#clip202)" style="stroke:#000000; stroke-linecap:round; stroke-linejoin:round; stroke-width:2; stroke-opacity:0.1; fill:none" points="203.899,1452.87 2640.76,1452.87 "/>
<polyline clip-path="url(#clip202)" style="stroke:#000000; stroke-linecap:round; stroke-linejoin:round; stroke-width:2; stroke-opacity:0.1; fill:none" points="203.899,1045.19 2640.76,1045.19 "/>
<polyline clip-path="url(#clip202)" style="stroke:#000000; stroke-linecap:round; stroke-linejoin:round; stroke-width:2; stroke-opacity:0.1; fill:none" points="203.899,637.512 2640.76,637.512 "/>
<polyline clip-path="url(#clip202)" style="stroke:#000000; stroke-linecap:round; stroke-linejoin:round; stroke-width:2; stroke-opacity:0.1; fill:none" points="203.899,229.834 2640.76,229.834 "/>
<polyline clip-path="url(#clip200)" style="stroke:#000000; stroke-linecap:round; stroke-linejoin:round; stroke-width:4; stroke-opacity:1; fill:none" points="203.899,1800.78 203.899,47.2441 "/>
<polyline clip-path="url(#clip200)" style="stroke:#000000; stroke-linecap:round; stroke-linejoin:round; stroke-width:4; stroke-opacity:1; fill:none" points="203.899,1452.87 222.797,1452.87 "/>
<polyline clip-path="url(#clip200)" style="stroke:#000000; stroke-linecap:round; stroke-linejoin:round; stroke-width:4; stroke-opacity:1; fill:none" points="203.899,1045.19 222.797,1045.19 "/>
<polyline clip-path="url(#clip200)" style="stroke:#000000; stroke-linecap:round; stroke-linejoin:round; stroke-width:4; stroke-opacity:1; fill:none" points="203.899,637.512 222.797,637.512 "/>
<polyline clip-path="url(#clip200)" style="stroke:#000000; stroke-linecap:round; stroke-linejoin:round; stroke-width:4; stroke-opacity:1; fill:none" points="203.899,229.834 222.797,229.834 "/>
<path clip-path="url(#clip200)" d="M151.635 1438.67 Q148.024 1438.67 146.195 1442.23 Q144.39 1445.77 144.39 1452.9 Q144.39 1460.01 146.195 1463.57 Q148.024 1467.11 151.635 1467.11 Q155.269 1467.11 157.075 1463.57 Q158.903 1460.01 158.903 1452.9 Q158.903 1445.77 157.075 1442.23 Q155.269 1438.67 151.635 1438.67 M151.635 1434.96 Q157.445 1434.96 160.501 1439.57 Q163.579 1444.15 163.579 1452.9 Q163.579 1461.63 160.501 1466.23 Q157.445 1470.82 151.635 1470.82 Q145.825 1470.82 142.746 1466.23 Q139.691 1461.63 139.691 1452.9 Q139.691 1444.15 142.746 1439.57 Q145.825 1434.96 151.635 1434.96 Z" fill="#000000" fill-rule="evenodd" fill-opacity="1" /><path clip-path="url(#clip200)" d="M51.9595 1058.53 L59.5984 1058.53 L59.5984 1032.17 L51.2882 1033.84 L51.2882 1029.58 L59.5521 1027.91 L64.228 1027.91 L64.228 1058.53 L71.8668 1058.53 L71.8668 1062.47 L51.9595 1062.47 L51.9595 1058.53 Z" fill="#000000" fill-rule="evenodd" fill-opacity="1" /><path clip-path="url(#clip200)" d="M91.3112 1030.99 Q87.7001 1030.99 85.8714 1034.55 Q84.0658 1038.09 84.0658 1045.22 Q84.0658 1052.33 85.8714 1055.9 Q87.7001 1059.44 91.3112 1059.44 Q94.9454 1059.44 96.7509 1055.9 Q98.5796 1052.33 98.5796 1045.22 Q98.5796 1038.09 96.7509 1034.55 Q94.9454 1030.99 91.3112 1030.99 M91.3112 1027.28 Q97.1213 1027.28 100.177 1031.89 Q103.256 1036.47 103.256 1045.22 Q103.256 1053.95 100.177 1058.56 Q97.1213 1063.14 91.3112 1063.14 Q85.501 1063.14 82.4223 1058.56 Q79.3668 1053.95 79.3668 1045.22 Q79.3668 1036.47 82.4223 1031.89 Q85.501 1027.28 91.3112 1027.28 Z" fill="#000000" fill-rule="evenodd" fill-opacity="1" /><path clip-path="url(#clip200)" d="M121.473 1030.99 Q117.862 1030.99 116.033 1034.55 Q114.228 1038.09 114.228 1045.22 Q114.228 1052.33 116.033 1055.9 Q117.862 1059.44 121.473 1059.44 Q125.107 1059.44 126.913 1055.9 Q128.742 1052.33 128.742 1045.22 Q128.742 1038.09 126.913 1034.55 Q125.107 1030.99 121.473 1030.99 M121.473 1027.28 Q127.283 1027.28 130.339 1031.89 Q133.417 1036.47 133.417 1045.22 Q133.417 1053.95 130.339 1058.56 Q127.283 1063.14 121.473 1063.14 Q115.663 1063.14 112.584 1058.56 Q109.529 1053.95 109.529 1045.22 Q109.529 1036.47 112.584 1031.89 Q115.663 1027.28 121.473 1027.28 Z" fill="#000000" fill-rule="evenodd" fill-opacity="1" /><path clip-path="url(#clip200)" d="M151.635 1030.99 Q148.024 1030.99 146.195 1034.55 Q144.39 1038.09 144.39 1045.22 Q144.39 1052.33 146.195 1055.9 Q148.024 1059.44 151.635 1059.44 Q155.269 1059.44 157.075 1055.9 Q158.903 1052.33 158.903 1045.22 Q158.903 1038.09 157.075 1034.55 Q155.269 1030.99 151.635 1030.99 M151.635 1027.28 Q157.445 1027.28 160.501 1031.89 Q163.579 1036.47 163.579 1045.22 Q163.579 1053.95 160.501 1058.56 Q157.445 1063.14 151.635 1063.14 Q145.825 1063.14 142.746 1058.56 Q139.691 1053.95 139.691 1045.22 Q139.691 1036.47 142.746 1031.89 Q145.825 1027.28 151.635 1027.28 Z" fill="#000000" fill-rule="evenodd" fill-opacity="1" /><path clip-path="url(#clip200)" d="M55.1771 650.857 L71.4965 650.857 L71.4965 654.792 L49.5521 654.792 L49.5521 650.857 Q52.2141 648.102 56.7975 643.473 Q61.4039 638.82 62.5845 637.477 Q64.8298 634.954 65.7094 633.218 Q66.6122 631.459 66.6122 629.769 Q66.6122 627.014 64.6678 625.278 Q62.7465 623.542 59.6447 623.542 Q57.4456 623.542 54.9919 624.306 Q52.5614 625.07 49.7836 626.621 L49.7836 621.899 Q52.6077 620.764 55.0614 620.186 Q57.515 619.607 59.5521 619.607 Q64.9224 619.607 68.1168 622.292 Q71.3113 624.977 71.3113 629.468 Q71.3113 631.598 70.5011 633.519 Q69.7141 635.417 67.6076 638.01 Q67.0289 638.681 63.927 641.898 Q60.8252 645.093 55.1771 650.857 Z" fill="#000000" fill-rule="evenodd" fill-opacity="1" /><path clip-path="url(#clip200)" d="M91.3112 623.311 Q87.7001 623.311 85.8714 626.875 Q84.0658 630.417 84.0658 637.547 Q84.0658 644.653 85.8714 648.218 Q87.7001 651.759 91.3112 651.759 Q94.9454 651.759 96.7509 648.218 Q98.5796 644.653 98.5796 637.547 Q98.5796 630.417 96.7509 626.875 Q94.9454 623.311 91.3112 623.311 M91.3112 619.607 Q97.1213 619.607 100.177 624.213 Q103.256 628.797 103.256 637.547 Q103.256 646.273 100.177 650.88 Q97.1213 655.463 91.3112 655.463 Q85.501 655.463 82.4223 650.88 Q79.3668 646.273 79.3668 637.547 Q79.3668 628.797 82.4223 624.213 Q85.501 619.607 91.3112 619.607 Z" fill="#000000" fill-rule="evenodd" fill-opacity="1" /><path clip-path="url(#clip200)" d="M121.473 623.311 Q117.862 623.311 116.033 626.875 Q114.228 630.417 114.228 637.547 Q114.228 644.653 116.033 648.218 Q117.862 651.759 121.473 651.759 Q125.107 651.759 126.913 648.218 Q128.742 644.653 128.742 637.547 Q128.742 630.417 126.913 626.875 Q125.107 623.311 121.473 623.311 M121.473 619.607 Q127.283 619.607 130.339 624.213 Q133.417 628.797 133.417 637.547 Q133.417 646.273 130.339 650.88 Q127.283 655.463 121.473 655.463 Q115.663 655.463 112.584 650.88 Q109.529 646.273 109.529 637.547 Q109.529 628.797 112.584 624.213 Q115.663 619.607 121.473 619.607 Z" fill="#000000" fill-rule="evenodd" fill-opacity="1" /><path clip-path="url(#clip200)" d="M151.635 623.311 Q148.024 623.311 146.195 626.875 Q144.39 630.417 144.39 637.547 Q144.39 644.653 146.195 648.218 Q148.024 651.759 151.635 651.759 Q155.269 651.759 157.075 648.218 Q158.903 644.653 158.903 637.547 Q158.903 630.417 157.075 626.875 Q155.269 623.311 151.635 623.311 M151.635 619.607 Q157.445 619.607 160.501 624.213 Q163.579 628.797 163.579 637.547 Q163.579 646.273 160.501 650.88 Q157.445 655.463 151.635 655.463 Q145.825 655.463 142.746 650.88 Q139.691 646.273 139.691 637.547 Q139.691 628.797 142.746 624.213 Q145.825 619.607 151.635 619.607 Z" fill="#000000" fill-rule="evenodd" fill-opacity="1" /><path clip-path="url(#clip200)" d="M65.3159 228.48 Q68.6724 229.198 70.5474 231.466 Q72.4455 233.735 72.4455 237.068 Q72.4455 242.184 68.927 244.985 Q65.4085 247.786 58.9271 247.786 Q56.7512 247.786 54.4364 247.346 Q52.1447 246.929 49.691 246.073 L49.691 241.559 Q51.6354 242.693 53.9503 243.272 Q56.2651 243.851 58.7882 243.851 Q63.1863 243.851 65.478 242.114 Q67.7928 240.378 67.7928 237.068 Q67.7928 234.013 65.64 232.3 Q63.5104 230.564 59.691 230.564 L55.6632 230.564 L55.6632 226.721 L59.8761 226.721 Q63.3252 226.721 65.1539 225.355 Q66.9826 223.966 66.9826 221.374 Q66.9826 218.712 65.0845 217.3 Q63.2095 215.865 59.691 215.865 Q57.7697 215.865 55.5706 216.281 Q53.3715 216.698 50.7327 217.578 L50.7327 213.411 Q53.3947 212.67 55.7095 212.3 Q58.0475 211.929 60.1076 211.929 Q65.4317 211.929 68.5335 214.36 Q71.6353 216.767 71.6353 220.888 Q71.6353 223.758 69.9918 225.749 Q68.3483 227.716 65.3159 228.48 Z" fill="#000000" fill-rule="evenodd" fill-opacity="1" /><path clip-path="url(#clip200)" d="M91.3112 215.633 Q87.7001 215.633 85.8714 219.198 Q84.0658 222.74 84.0658 229.869 Q84.0658 236.976 85.8714 240.54 Q87.7001 244.082 91.3112 244.082 Q94.9454 244.082 96.7509 240.54 Q98.5796 236.976 98.5796 229.869 Q98.5796 222.74 96.7509 219.198 Q94.9454 215.633 91.3112 215.633 M91.3112 211.929 Q97.1213 211.929 100.177 216.536 Q103.256 221.119 103.256 229.869 Q103.256 238.596 100.177 243.202 Q97.1213 247.786 91.3112 247.786 Q85.501 247.786 82.4223 243.202 Q79.3668 238.596 79.3668 229.869 Q79.3668 221.119 82.4223 216.536 Q85.501 211.929 91.3112 211.929 Z" fill="#000000" fill-rule="evenodd" fill-opacity="1" /><path clip-path="url(#clip200)" d="M121.473 215.633 Q117.862 215.633 116.033 219.198 Q114.228 222.74 114.228 229.869 Q114.228 236.976 116.033 240.54 Q117.862 244.082 121.473 244.082 Q125.107 244.082 126.913 240.54 Q128.742 236.976 128.742 229.869 Q128.742 222.74 126.913 219.198 Q125.107 215.633 121.473 215.633 M121.473 211.929 Q127.283 211.929 130.339 216.536 Q133.417 221.119 133.417 229.869 Q133.417 238.596 130.339 243.202 Q127.283 247.786 121.473 247.786 Q115.663 247.786 112.584 243.202 Q109.529 238.596 109.529 229.869 Q109.529 221.119 112.584 216.536 Q115.663 211.929 121.473 211.929 Z" fill="#000000" fill-rule="evenodd" fill-opacity="1" /><path clip-path="url(#clip200)" d="M151.635 215.633 Q148.024 215.633 146.195 219.198 Q144.39 222.74 144.39 229.869 Q144.39 236.976 146.195 240.54 Q148.024 244.082 151.635 244.082 Q155.269 244.082 157.075 240.54 Q158.903 236.976 158.903 229.869 Q158.903 222.74 157.075 219.198 Q155.269 215.633 151.635 215.633 M151.635 211.929 Q157.445 211.929 160.501 216.536 Q163.579 221.119 163.579 229.869 Q163.579 238.596 160.501 243.202 Q157.445 247.786 151.635 247.786 Q145.825 247.786 142.746 243.202 Q139.691 238.596 139.691 229.869 Q139.691 221.119 142.746 216.536 Q145.825 211.929 151.635 211.929 Z" fill="#000000" fill-rule="evenodd" fill-opacity="1" /><polyline clip-path="url(#clip202)" style="stroke:#009af9; stroke-linecap:round; stroke-linejoin:round; stroke-width:4; stroke-opacity:1; fill:none" points="272.867,1453 287.834,1453 426.228,1453.02 509.397,1453.04 579.715,1453.05 656.1,1453.07 726.521,1453.09 802.019,1453.12 889.491,1453.16 967.226,1453.21 1035.39,1453.27 1109.71,1453.37 1184.47,1453.52 1205.14,1453.59 1225.8,1453.66 1246.47,1453.76 1267.13,1453.87 1286.79,1454.02 1306.46,1454.21 1316.29,1454.34 1326.12,1454.49 1335.95,1454.68 1345.78,1454.91 1356,1455.22 1366.22,1455.65 1371.33,1455.93 1376.44,1456.27 1381.56,1456.7 1386.67,1457.25 1391.78,1457.98 1396.89,1459.01 1402,1460.55 1407.11,1463.13 1409.67,1465.2 1412.22,1468.32 1413.5,1470.56 1414.78,1473.55 1416.05,1477.77 1417.33,1484.13 1417.97,1488.72 1418.61,1494.88 1419.25,1503.6 1419.89,1516.88 1420.53,1539.58 1421.17,1587.23 1421.8,1751.15 1422.44,96.8724 1423.08,1245.72 1423.72,1340.73 1424.36,1375.99 1425,1394.38 1425.64,1405.67 1426.28,1413.31 1426.91,1418.82 1427.55,1422.98 1428.63,1428.08 1429.7,1431.69 1430.78,1434.39 1431.86,1436.47 1434.01,1439.49 1436.16,1441.57 1440.46,1444.25 1444.76,1445.9 1449.07,1447.02 1453.37,1447.83 1457.67,1448.45 1461.97,1448.93 1466.27,1449.31 1470.58,1449.63 1474.88,1449.89 1479.18,1450.12 1487.79,1450.48 1496.39,1450.76 1506.9,1451.02 1517.4,1451.22 1527.91,1451.39 1538.41,1451.52 1559.42,1451.73 1580.43,1451.88 1618.93,1452.07 1657.42,1452.2 1728.53,1452.36 1800.55,1452.45 1881.27,1452.53 1954.42,1452.57 2038.17,1452.61 2115.71,1452.64 2192.16,1452.66 2266.39,1452.68 2342.48,1452.7 2425.84,1452.71 2546.94,1452.73 2571.79,1452.73 "/>
<path clip-path="url(#clip200)" d="M2263.41 209.375 L2559.53 209.375 L2559.53 105.695 L2263.41 105.695  Z" fill="#ffffff" fill-rule="evenodd" fill-opacity="1"/>
<polyline clip-path="url(#clip200)" style="stroke:#000000; stroke-linecap:round; stroke-linejoin:round; stroke-width:4; stroke-opacity:1; fill:none" points="2263.41,209.375 2559.53,209.375 2559.53,105.695 2263.41,105.695 2263.41,209.375 "/>
<polyline clip-path="url(#clip200)" style="stroke:#009af9; stroke-linecap:round; stroke-linejoin:round; stroke-width:4; stroke-opacity:1; fill:none" points="2290.49,157.535 2452.94,157.535 "/>
<path clip-path="url(#clip200)" d="M2493.86 177.223 Q2492.06 181.852 2490.34 183.264 Q2488.63 184.676 2485.76 184.676 L2482.36 184.676 L2482.36 181.112 L2484.86 181.112 Q2486.62 181.112 2487.59 180.278 Q2488.56 179.445 2489.74 176.343 L2490.51 174.399 L2480.02 148.889 L2484.53 148.889 L2492.64 169.167 L2500.74 148.889 L2505.25 148.889 L2493.86 177.223 Z" fill="#000000" fill-rule="evenodd" fill-opacity="1" /><path clip-path="url(#clip200)" d="M2512.54 170.88 L2520.18 170.88 L2520.18 144.515 L2511.87 146.181 L2511.87 141.922 L2520.14 140.255 L2524.81 140.255 L2524.81 170.88 L2532.45 170.88 L2532.45 174.815 L2512.54 174.815 L2512.54 170.88 Z" fill="#000000" fill-rule="evenodd" fill-opacity="1" /></svg>
