<?xml version="1.0" encoding="utf-8"?>
<svg xmlns="http://www.w3.org/2000/svg" xmlns:xlink="http://www.w3.org/1999/xlink" width="672" height="480" viewBox="0 0 2688 1920">
<defs>
  <clipPath id="clip900">
    <rect x="0" y="0" width="2688" height="1920"/>
  </clipPath>
</defs>
<path clip-path="url(#clip900)" d="
M0 1920 L2688 1920 L2688 0 L0 0  Z
  " fill="#ffffff" fill-rule="evenodd" fill-opacity="1"/>
<defs>
  <clipPath id="clip901">
    <rect x="537" y="0" width="1883" height="1883"/>
  </clipPath>
</defs>
<path clip-path="url(#clip900)" d="
M226.978 1800.78 L2640.76 1800.78 L2640.76 47.2441 L226.978 47.2441  Z
  " fill="#ffffff" fill-rule="evenodd" fill-opacity="1"/>
<defs>
  <clipPath id="clip902">
    <rect x="226" y="47" width="2415" height="1755"/>
  </clipPath>
</defs>
<polyline clip-path="url(#clip902)" style="stroke:#000000; stroke-linecap:butt; stroke-linejoin:round; stroke-width:2; stroke-opacity:0.1; fill:none" points="
  295.292,1800.78 295.292,47.2441 
  "/>
<polyline clip-path="url(#clip902)" style="stroke:#000000; stroke-linecap:butt; stroke-linejoin:round; stroke-width:2; stroke-opacity:0.1; fill:none" points="
  879.177,1800.78 879.177,47.2441 
  "/>
<polyline clip-path="url(#clip902)" style="stroke:#000000; stroke-linecap:butt; stroke-linejoin:round; stroke-width:2; stroke-opacity:0.1; fill:none" points="
  1463.06,1800.78 1463.06,47.2441 
  "/>
<polyline clip-path="url(#clip902)" style="stroke:#000000; stroke-linecap:butt; stroke-linejoin:round; stroke-width:2; stroke-opacity:0.1; fill:none" points="
  2046.95,1800.78 2046.95,47.2441 
  "/>
<polyline clip-path="url(#clip902)" style="stroke:#000000; stroke-linecap:butt; stroke-linejoin:round; stroke-width:2; stroke-opacity:0.1; fill:none" points="
  2630.83,1800.78 2630.83,47.2441 
  "/>
<polyline clip-path="url(#clip900)" style="stroke:#000000; stroke-linecap:butt; stroke-linejoin:round; stroke-width:4; stroke-opacity:1; fill:none" points="
  226.978,1800.78 2640.76,1800.78 
  "/>
<polyline clip-path="url(#clip900)" style="stroke:#000000; stroke-linecap:butt; stroke-linejoin:round; stroke-width:4; stroke-opacity:1; fill:none" points="
  295.292,1800.78 295.292,1781.88 
  "/>
<polyline clip-path="url(#clip900)" style="stroke:#000000; stroke-linecap:butt; stroke-linejoin:round; stroke-width:4; stroke-opacity:1; fill:none" points="
  879.177,1800.78 879.177,1781.88 
  "/>
<polyline clip-path="url(#clip900)" style="stroke:#000000; stroke-linecap:butt; stroke-linejoin:round; stroke-width:4; stroke-opacity:1; fill:none" points="
  1463.06,1800.78 1463.06,1781.88 
  "/>
<polyline clip-path="url(#clip900)" style="stroke:#000000; stroke-linecap:butt; stroke-linejoin:round; stroke-width:4; stroke-opacity:1; fill:none" points="
  2046.95,1800.78 2046.95,1781.88 
  "/>
<polyline clip-path="url(#clip900)" style="stroke:#000000; stroke-linecap:butt; stroke-linejoin:round; stroke-width:4; stroke-opacity:1; fill:none" points="
  2630.83,1800.78 2630.83,1781.88 
  "/>
<path clip-path="url(#clip900)" d="M264.76 1848.65 L294.436 1848.65 L294.436 1852.59 L264.76 1852.59 L264.76 1848.65 Z" fill="#000000" fill-rule="evenodd" fill-opacity="1" /><path clip-path="url(#clip900)" d="M318.695 1846.85 Q322.051 1847.57 323.926 1849.84 Q325.825 1852.1 325.825 1855.44 Q325.825 1860.55 322.306 1863.35 Q318.788 1866.15 312.306 1866.15 Q310.13 1866.15 307.815 1865.71 Q305.524 1865.3 303.07 1864.44 L303.07 1859.93 Q305.015 1861.06 307.329 1861.64 Q309.644 1862.22 312.167 1862.22 Q316.565 1862.22 318.857 1860.48 Q321.172 1858.75 321.172 1855.44 Q321.172 1852.38 319.019 1850.67 Q316.889 1848.93 313.07 1848.93 L309.042 1848.93 L309.042 1845.09 L313.255 1845.09 Q316.704 1845.09 318.533 1843.72 Q320.362 1842.34 320.362 1839.74 Q320.362 1837.08 318.464 1835.67 Q316.589 1834.23 313.07 1834.23 Q311.149 1834.23 308.95 1834.65 Q306.751 1835.07 304.112 1835.95 L304.112 1831.78 Q306.774 1831.04 309.089 1830.67 Q311.427 1830.3 313.487 1830.3 Q318.811 1830.3 321.913 1832.73 Q325.014 1835.14 325.014 1839.26 Q325.014 1842.13 323.371 1844.12 Q321.727 1846.09 318.695 1846.85 Z" fill="#000000" fill-rule="evenodd" fill-opacity="1" /><path clip-path="url(#clip900)" d="M849.119 1848.65 L878.795 1848.65 L878.795 1852.59 L849.119 1852.59 L849.119 1848.65 Z" fill="#000000" fill-rule="evenodd" fill-opacity="1" /><path clip-path="url(#clip900)" d="M892.915 1861.55 L909.234 1861.55 L909.234 1865.48 L887.29 1865.48 L887.29 1861.55 Q889.952 1858.79 894.535 1854.16 Q899.142 1849.51 900.322 1848.17 Q902.568 1845.65 903.447 1843.91 Q904.35 1842.15 904.35 1840.46 Q904.35 1837.71 902.406 1835.97 Q900.484 1834.23 897.383 1834.23 Q895.184 1834.23 892.73 1835 Q890.299 1835.76 887.522 1837.31 L887.522 1832.59 Q890.346 1831.46 892.799 1830.88 Q895.253 1830.3 897.29 1830.3 Q902.66 1830.3 905.855 1832.98 Q909.049 1835.67 909.049 1840.16 Q909.049 1842.29 908.239 1844.21 Q907.452 1846.11 905.346 1848.7 Q904.767 1849.37 901.665 1852.59 Q898.563 1855.78 892.915 1861.55 Z" fill="#000000" fill-rule="evenodd" fill-opacity="1" /><path clip-path="url(#clip900)" d="M1432.82 1848.65 L1462.49 1848.65 L1462.49 1852.59 L1432.82 1852.59 L1432.82 1848.65 Z" fill="#000000" fill-rule="evenodd" fill-opacity="1" /><path clip-path="url(#clip900)" d="M1473.4 1861.55 L1481.04 1861.55 L1481.04 1835.18 L1472.73 1836.85 L1472.73 1832.59 L1480.99 1830.92 L1485.67 1830.92 L1485.67 1861.55 L1493.3 1861.55 L1493.3 1865.48 L1473.4 1865.48 L1473.4 1861.55 Z" fill="#000000" fill-rule="evenodd" fill-opacity="1" /><path clip-path="url(#clip900)" d="M2046.95 1834 Q2043.33 1834 2041.51 1837.57 Q2039.7 1841.11 2039.7 1848.24 Q2039.7 1855.34 2041.51 1858.91 Q2043.33 1862.45 2046.95 1862.45 Q2050.58 1862.45 2052.39 1858.91 Q2054.21 1855.34 2054.21 1848.24 Q2054.21 1841.11 2052.39 1837.57 Q2050.58 1834 2046.95 1834 M2046.95 1830.3 Q2052.76 1830.3 2055.81 1834.9 Q2058.89 1839.49 2058.89 1848.24 Q2058.89 1856.96 2055.81 1861.57 Q2052.76 1866.15 2046.95 1866.15 Q2041.14 1866.15 2038.06 1861.57 Q2035 1856.96 2035 1848.24 Q2035 1839.49 2038.06 1834.9 Q2041.14 1830.3 2046.95 1830.3 Z" fill="#000000" fill-rule="evenodd" fill-opacity="1" /><path clip-path="url(#clip900)" d="M2621.21 1861.55 L2628.85 1861.55 L2628.85 1835.18 L2620.54 1836.85 L2620.54 1832.59 L2628.8 1830.92 L2633.48 1830.92 L2633.48 1861.55 L2641.12 1861.55 L2641.12 1865.48 L2621.21 1865.48 L2621.21 1861.55 Z" fill="#000000" fill-rule="evenodd" fill-opacity="1" /><polyline clip-path="url(#clip902)" style="stroke:#000000; stroke-linecap:butt; stroke-linejoin:round; stroke-width:2; stroke-opacity:0.1; fill:none" points="
  226.978,1693.68 2640.76,1693.68 
  "/>
<polyline clip-path="url(#clip902)" style="stroke:#000000; stroke-linecap:butt; stroke-linejoin:round; stroke-width:2; stroke-opacity:0.1; fill:none" points="
  226.978,1454.2 2640.76,1454.2 
  "/>
<polyline clip-path="url(#clip902)" style="stroke:#000000; stroke-linecap:butt; stroke-linejoin:round; stroke-width:2; stroke-opacity:0.1; fill:none" points="
  226.978,1214.72 2640.76,1214.72 
  "/>
<polyline clip-path="url(#clip902)" style="stroke:#000000; stroke-linecap:butt; stroke-linejoin:round; stroke-width:2; stroke-opacity:0.1; fill:none" points="
  226.978,975.235 2640.76,975.235 
  "/>
<polyline clip-path="url(#clip902)" style="stroke:#000000; stroke-linecap:butt; stroke-linejoin:round; stroke-width:2; stroke-opacity:0.1; fill:none" points="
  226.978,735.754 2640.76,735.754 
  "/>
<polyline clip-path="url(#clip902)" style="stroke:#000000; stroke-linecap:butt; stroke-linejoin:round; stroke-width:2; stroke-opacity:0.1; fill:none" points="
  226.978,496.274 2640.76,496.274 
  "/>
<polyline clip-path="url(#clip902)" style="stroke:#000000; stroke-linecap:butt; stroke-linejoin:round; stroke-width:2; stroke-opacity:0.1; fill:none" points="
  226.978,256.794 2640.76,256.794 
  "/>
<polyline clip-path="url(#clip900)" style="stroke:#000000; stroke-linecap:butt; stroke-linejoin:round; stroke-width:4; stroke-opacity:1; fill:none" points="
  226.978,1800.78 226.978,47.2441 
  "/>
<polyline clip-path="url(#clip900)" style="stroke:#000000; stroke-linecap:butt; stroke-linejoin:round; stroke-width:4; stroke-opacity:1; fill:none" points="
  226.978,1693.68 245.876,1693.68 
  "/>
<polyline clip-path="url(#clip900)" style="stroke:#000000; stroke-linecap:butt; stroke-linejoin:round; stroke-width:4; stroke-opacity:1; fill:none" points="
  226.978,1454.2 245.876,1454.2 
  "/>
<polyline clip-path="url(#clip900)" style="stroke:#000000; stroke-linecap:butt; stroke-linejoin:round; stroke-width:4; stroke-opacity:1; fill:none" points="
  226.978,1214.72 245.876,1214.72 
  "/>
<polyline clip-path="url(#clip900)" style="stroke:#000000; stroke-linecap:butt; stroke-linejoin:round; stroke-width:4; stroke-opacity:1; fill:none" points="
  226.978,975.235 245.876,975.235 
  "/>
<polyline clip-path="url(#clip900)" style="stroke:#000000; stroke-linecap:butt; stroke-linejoin:round; stroke-width:4; stroke-opacity:1; fill:none" points="
  226.978,735.754 245.876,735.754 
  "/>
<polyline clip-path="url(#clip900)" style="stroke:#000000; stroke-linecap:butt; stroke-linejoin:round; stroke-width:4; stroke-opacity:1; fill:none" points="
  226.978,496.274 245.876,496.274 
  "/>
<polyline clip-path="url(#clip900)" style="stroke:#000000; stroke-linecap:butt; stroke-linejoin:round; stroke-width:4; stroke-opacity:1; fill:none" points="
  226.978,256.794 245.876,256.794 
  "/>
<path clip-path="url(#clip900)" d="M50.5475 1694.13 L80.2233 1694.13 L80.2233 1698.06 L50.5475 1698.06 L50.5475 1694.13 Z" fill="#000000" fill-rule="evenodd" fill-opacity="1" /><path clip-path="url(#clip900)" d="M94.3436 1707.02 L110.663 1707.02 L110.663 1710.96 L88.7186 1710.96 L88.7186 1707.02 Q91.3806 1704.27 95.9639 1699.64 Q100.57 1694.98 101.751 1693.64 Q103.996 1691.12 104.876 1689.38 Q105.779 1687.62 105.779 1685.93 Q105.779 1683.18 103.834 1681.44 Q101.913 1679.71 98.8111 1679.71 Q96.6121 1679.71 94.1584 1680.47 Q91.7278 1681.23 88.9501 1682.78 L88.9501 1678.06 Q91.7741 1676.93 94.2278 1676.35 Q96.6815 1675.77 98.7185 1675.77 Q104.089 1675.77 107.283 1678.46 Q110.478 1681.14 110.478 1685.63 Q110.478 1687.76 109.668 1689.68 Q108.881 1691.58 106.774 1694.17 Q106.195 1694.84 103.094 1698.06 Q99.9917 1701.26 94.3436 1707.02 Z" fill="#000000" fill-rule="evenodd" fill-opacity="1" /><path clip-path="url(#clip900)" d="M124.505 1707.02 L140.825 1707.02 L140.825 1710.96 L118.88 1710.96 L118.88 1707.02 Q121.542 1704.27 126.126 1699.64 Q130.732 1694.98 131.913 1693.64 Q134.158 1691.12 135.038 1689.38 Q135.941 1687.62 135.941 1685.93 Q135.941 1683.18 133.996 1681.44 Q132.075 1679.71 128.973 1679.71 Q126.774 1679.71 124.32 1680.47 Q121.89 1681.23 119.112 1682.78 L119.112 1678.06 Q121.936 1676.93 124.39 1676.35 Q126.843 1675.77 128.88 1675.77 Q134.251 1675.77 137.445 1678.46 Q140.64 1681.14 140.64 1685.63 Q140.64 1687.76 139.829 1689.68 Q139.042 1691.58 136.936 1694.17 Q136.357 1694.84 133.255 1698.06 Q130.154 1701.26 124.505 1707.02 Z" fill="#000000" fill-rule="evenodd" fill-opacity="1" /><path clip-path="url(#clip900)" d="M150.64 1705.08 L155.524 1705.08 L155.524 1710.96 L150.64 1710.96 L150.64 1705.08 Z" fill="#000000" fill-rule="evenodd" fill-opacity="1" /><path clip-path="url(#clip900)" d="M165.755 1676.4 L184.112 1676.4 L184.112 1680.33 L170.038 1680.33 L170.038 1688.8 Q171.056 1688.46 172.075 1688.29 Q173.093 1688.11 174.112 1688.11 Q179.899 1688.11 183.278 1691.28 Q186.658 1694.45 186.658 1699.87 Q186.658 1705.45 183.186 1708.55 Q179.713 1711.63 173.394 1711.63 Q171.218 1711.63 168.95 1711.26 Q166.704 1710.89 164.297 1710.15 L164.297 1705.45 Q166.38 1706.58 168.602 1707.14 Q170.825 1707.69 173.301 1707.69 Q177.306 1707.69 179.644 1705.59 Q181.982 1703.48 181.982 1699.87 Q181.982 1696.26 179.644 1694.15 Q177.306 1692.04 173.301 1692.04 Q171.426 1692.04 169.551 1692.46 Q167.7 1692.88 165.755 1693.76 L165.755 1676.4 Z" fill="#000000" fill-rule="evenodd" fill-opacity="1" /><path clip-path="url(#clip900)" d="M49.5521 1454.65 L79.2279 1454.65 L79.2279 1458.58 L49.5521 1458.58 L49.5521 1454.65 Z" fill="#000000" fill-rule="evenodd" fill-opacity="1" /><path clip-path="url(#clip900)" d="M93.3482 1467.54 L109.668 1467.54 L109.668 1471.48 L87.7232 1471.48 L87.7232 1467.54 Q90.3852 1464.79 94.9685 1460.16 Q99.575 1455.5 100.756 1454.16 Q103.001 1451.64 103.881 1449.9 Q104.783 1448.14 104.783 1446.45 Q104.783 1443.7 102.839 1441.96 Q100.918 1440.23 97.8158 1440.23 Q95.6167 1440.23 93.163 1440.99 Q90.7325 1441.75 87.9547 1443.3 L87.9547 1438.58 Q90.7788 1437.45 93.2324 1436.87 Q95.6861 1436.29 97.7232 1436.29 Q103.094 1436.29 106.288 1438.98 Q109.482 1441.66 109.482 1446.15 Q109.482 1448.28 108.672 1450.2 Q107.885 1452.1 105.779 1454.69 Q105.2 1455.36 102.098 1458.58 Q98.9963 1461.78 93.3482 1467.54 Z" fill="#000000" fill-rule="evenodd" fill-opacity="1" /><path clip-path="url(#clip900)" d="M129.482 1439.99 Q125.871 1439.99 124.042 1443.56 Q122.237 1447.1 122.237 1454.23 Q122.237 1461.34 124.042 1464.9 Q125.871 1468.44 129.482 1468.44 Q133.116 1468.44 134.922 1464.9 Q136.751 1461.34 136.751 1454.23 Q136.751 1447.1 134.922 1443.56 Q133.116 1439.99 129.482 1439.99 M129.482 1436.29 Q135.292 1436.29 138.348 1440.9 Q141.427 1445.48 141.427 1454.23 Q141.427 1462.96 138.348 1467.56 Q135.292 1472.15 129.482 1472.15 Q123.672 1472.15 120.593 1467.56 Q117.538 1462.96 117.538 1454.23 Q117.538 1445.48 120.593 1440.9 Q123.672 1436.29 129.482 1436.29 Z" fill="#000000" fill-rule="evenodd" fill-opacity="1" /><path clip-path="url(#clip900)" d="M149.644 1465.6 L154.528 1465.6 L154.528 1471.48 L149.644 1471.48 L149.644 1465.6 Z" fill="#000000" fill-rule="evenodd" fill-opacity="1" /><path clip-path="url(#clip900)" d="M174.713 1439.99 Q171.102 1439.99 169.274 1443.56 Q167.468 1447.1 167.468 1454.23 Q167.468 1461.34 169.274 1464.9 Q171.102 1468.44 174.713 1468.44 Q178.348 1468.44 180.153 1464.9 Q181.982 1461.34 181.982 1454.23 Q181.982 1447.1 180.153 1443.56 Q178.348 1439.99 174.713 1439.99 M174.713 1436.29 Q180.524 1436.29 183.579 1440.9 Q186.658 1445.48 186.658 1454.23 Q186.658 1462.96 183.579 1467.56 Q180.524 1472.15 174.713 1472.15 Q168.903 1472.15 165.825 1467.56 Q162.769 1462.96 162.769 1454.23 Q162.769 1445.48 165.825 1440.9 Q168.903 1436.29 174.713 1436.29 Z" fill="#000000" fill-rule="evenodd" fill-opacity="1" /><path clip-path="url(#clip900)" d="M50.5475 1215.17 L80.2233 1215.17 L80.2233 1219.1 L50.5475 1219.1 L50.5475 1215.17 Z" fill="#000000" fill-rule="evenodd" fill-opacity="1" /><path clip-path="url(#clip900)" d="M91.126 1228.06 L98.7648 1228.06 L98.7648 1201.69 L90.4547 1203.36 L90.4547 1199.1 L98.7185 1197.44 L103.394 1197.44 L103.394 1228.06 L111.033 1228.06 L111.033 1232 L91.126 1232 L91.126 1228.06 Z" fill="#000000" fill-rule="evenodd" fill-opacity="1" /><path clip-path="url(#clip900)" d="M119.297 1197.44 L141.519 1197.44 L141.519 1199.43 L128.973 1232 L124.089 1232 L135.894 1201.37 L119.297 1201.37 L119.297 1197.44 Z" fill="#000000" fill-rule="evenodd" fill-opacity="1" /><path clip-path="url(#clip900)" d="M150.64 1226.12 L155.524 1226.12 L155.524 1232 L150.64 1232 L150.64 1226.12 Z" fill="#000000" fill-rule="evenodd" fill-opacity="1" /><path clip-path="url(#clip900)" d="M165.755 1197.44 L184.112 1197.44 L184.112 1201.37 L170.038 1201.37 L170.038 1209.84 Q171.056 1209.5 172.075 1209.33 Q173.093 1209.15 174.112 1209.15 Q179.899 1209.15 183.278 1212.32 Q186.658 1215.49 186.658 1220.91 Q186.658 1226.49 183.186 1229.59 Q179.713 1232.67 173.394 1232.67 Q171.218 1232.67 168.95 1232.3 Q166.704 1231.93 164.297 1231.18 L164.297 1226.49 Q166.38 1227.62 168.602 1228.18 Q170.825 1228.73 173.301 1228.73 Q177.306 1228.73 179.644 1226.62 Q181.982 1224.52 181.982 1220.91 Q181.982 1217.3 179.644 1215.19 Q177.306 1213.08 173.301 1213.08 Q171.426 1213.08 169.551 1213.5 Q167.7 1213.92 165.755 1214.8 L165.755 1197.44 Z" fill="#000000" fill-rule="evenodd" fill-opacity="1" /><path clip-path="url(#clip900)" d="M49.5521 975.686 L79.2279 975.686 L79.2279 979.621 L49.5521 979.621 L49.5521 975.686 Z" fill="#000000" fill-rule="evenodd" fill-opacity="1" /><path clip-path="url(#clip900)" d="M90.1306 988.58 L97.7695 988.58 L97.7695 962.214 L89.4593 963.881 L89.4593 959.621 L97.7232 957.955 L102.399 957.955 L102.399 988.58 L110.038 988.58 L110.038 992.515 L90.1306 992.515 L90.1306 988.58 Z" fill="#000000" fill-rule="evenodd" fill-opacity="1" /><path clip-path="url(#clip900)" d="M119.529 957.955 L137.885 957.955 L137.885 961.89 L123.811 961.89 L123.811 970.362 Q124.83 970.015 125.848 969.853 Q126.867 969.668 127.885 969.668 Q133.672 969.668 137.052 972.839 Q140.431 976.01 140.431 981.427 Q140.431 987.005 136.959 990.107 Q133.487 993.186 127.167 993.186 Q124.992 993.186 122.723 992.816 Q120.478 992.445 118.07 991.705 L118.07 987.005 Q120.154 988.14 122.376 988.695 Q124.598 989.251 127.075 989.251 Q131.079 989.251 133.417 987.144 Q135.755 985.038 135.755 981.427 Q135.755 977.816 133.417 975.709 Q131.079 973.603 127.075 973.603 Q125.2 973.603 123.325 974.019 Q121.473 974.436 119.529 975.316 L119.529 957.955 Z" fill="#000000" fill-rule="evenodd" fill-opacity="1" /><path clip-path="url(#clip900)" d="M149.644 986.635 L154.528 986.635 L154.528 992.515 L149.644 992.515 L149.644 986.635 Z" fill="#000000" fill-rule="evenodd" fill-opacity="1" /><path clip-path="url(#clip900)" d="M174.713 961.033 Q171.102 961.033 169.274 964.598 Q167.468 968.14 167.468 975.269 Q167.468 982.376 169.274 985.941 Q171.102 989.482 174.713 989.482 Q178.348 989.482 180.153 985.941 Q181.982 982.376 181.982 975.269 Q181.982 968.14 180.153 964.598 Q178.348 961.033 174.713 961.033 M174.713 957.33 Q180.524 957.33 183.579 961.936 Q186.658 966.519 186.658 975.269 Q186.658 983.996 183.579 988.603 Q180.524 993.186 174.713 993.186 Q168.903 993.186 165.825 988.603 Q162.769 983.996 162.769 975.269 Q162.769 966.519 165.825 961.936 Q168.903 957.33 174.713 957.33 Z" fill="#000000" fill-rule="evenodd" fill-opacity="1" /><path clip-path="url(#clip900)" d="M50.5475 736.206 L80.2233 736.206 L80.2233 740.141 L50.5475 740.141 L50.5475 736.206 Z" fill="#000000" fill-rule="evenodd" fill-opacity="1" /><path clip-path="url(#clip900)" d="M91.126 749.099 L98.7648 749.099 L98.7648 722.734 L90.4547 724.4 L90.4547 720.141 L98.7185 718.474 L103.394 718.474 L103.394 749.099 L111.033 749.099 L111.033 753.034 L91.126 753.034 L91.126 749.099 Z" fill="#000000" fill-rule="evenodd" fill-opacity="1" /><path clip-path="url(#clip900)" d="M124.505 749.099 L140.825 749.099 L140.825 753.034 L118.88 753.034 L118.88 749.099 Q121.542 746.345 126.126 741.715 Q130.732 737.062 131.913 735.72 Q134.158 733.197 135.038 731.46 Q135.941 729.701 135.941 728.011 Q135.941 725.257 133.996 723.521 Q132.075 721.785 128.973 721.785 Q126.774 721.785 124.32 722.548 Q121.89 723.312 119.112 724.863 L119.112 720.141 Q121.936 719.007 124.39 718.428 Q126.843 717.849 128.88 717.849 Q134.251 717.849 137.445 720.535 Q140.64 723.22 140.64 727.71 Q140.64 729.84 139.829 731.761 Q139.042 733.659 136.936 736.252 Q136.357 736.923 133.255 740.141 Q130.154 743.335 124.505 749.099 Z" fill="#000000" fill-rule="evenodd" fill-opacity="1" /><path clip-path="url(#clip900)" d="M150.64 747.155 L155.524 747.155 L155.524 753.034 L150.64 753.034 L150.64 747.155 Z" fill="#000000" fill-rule="evenodd" fill-opacity="1" /><path clip-path="url(#clip900)" d="M165.755 718.474 L184.112 718.474 L184.112 722.41 L170.038 722.41 L170.038 730.882 Q171.056 730.534 172.075 730.372 Q173.093 730.187 174.112 730.187 Q179.899 730.187 183.278 733.359 Q186.658 736.53 186.658 741.946 Q186.658 747.525 183.186 750.627 Q179.713 753.706 173.394 753.706 Q171.218 753.706 168.95 753.335 Q166.704 752.965 164.297 752.224 L164.297 747.525 Q166.38 748.659 168.602 749.215 Q170.825 749.771 173.301 749.771 Q177.306 749.771 179.644 747.664 Q181.982 745.558 181.982 741.946 Q181.982 738.335 179.644 736.229 Q177.306 734.122 173.301 734.122 Q171.426 734.122 169.551 734.539 Q167.7 734.956 165.755 735.835 L165.755 718.474 Z" fill="#000000" fill-rule="evenodd" fill-opacity="1" /><path clip-path="url(#clip900)" d="M49.5521 496.725 L79.2279 496.725 L79.2279 500.661 L49.5521 500.661 L49.5521 496.725 Z" fill="#000000" fill-rule="evenodd" fill-opacity="1" /><path clip-path="url(#clip900)" d="M90.1306 509.619 L97.7695 509.619 L97.7695 483.253 L89.4593 484.92 L89.4593 480.661 L97.7232 478.994 L102.399 478.994 L102.399 509.619 L110.038 509.619 L110.038 513.554 L90.1306 513.554 L90.1306 509.619 Z" fill="#000000" fill-rule="evenodd" fill-opacity="1" /><path clip-path="url(#clip900)" d="M129.482 482.073 Q125.871 482.073 124.042 485.638 Q122.237 489.179 122.237 496.309 Q122.237 503.415 124.042 506.98 Q125.871 510.522 129.482 510.522 Q133.116 510.522 134.922 506.98 Q136.751 503.415 136.751 496.309 Q136.751 489.179 134.922 485.638 Q133.116 482.073 129.482 482.073 M129.482 478.369 Q135.292 478.369 138.348 482.976 Q141.427 487.559 141.427 496.309 Q141.427 505.036 138.348 509.642 Q135.292 514.225 129.482 514.225 Q123.672 514.225 120.593 509.642 Q117.538 505.036 117.538 496.309 Q117.538 487.559 120.593 482.976 Q123.672 478.369 129.482 478.369 Z" fill="#000000" fill-rule="evenodd" fill-opacity="1" /><path clip-path="url(#clip900)" d="M149.644 507.674 L154.528 507.674 L154.528 513.554 L149.644 513.554 L149.644 507.674 Z" fill="#000000" fill-rule="evenodd" fill-opacity="1" /><path clip-path="url(#clip900)" d="M174.713 482.073 Q171.102 482.073 169.274 485.638 Q167.468 489.179 167.468 496.309 Q167.468 503.415 169.274 506.98 Q171.102 510.522 174.713 510.522 Q178.348 510.522 180.153 506.98 Q181.982 503.415 181.982 496.309 Q181.982 489.179 180.153 485.638 Q178.348 482.073 174.713 482.073 M174.713 478.369 Q180.524 478.369 183.579 482.976 Q186.658 487.559 186.658 496.309 Q186.658 505.036 183.579 509.642 Q180.524 514.225 174.713 514.225 Q168.903 514.225 165.825 509.642 Q162.769 505.036 162.769 496.309 Q162.769 487.559 165.825 482.976 Q168.903 478.369 174.713 478.369 Z" fill="#000000" fill-rule="evenodd" fill-opacity="1" /><path clip-path="url(#clip900)" d="M80.7094 257.245 L110.385 257.245 L110.385 261.18 L80.7094 261.18 L80.7094 257.245 Z" fill="#000000" fill-rule="evenodd" fill-opacity="1" /><path clip-path="url(#clip900)" d="M119.297 239.514 L141.519 239.514 L141.519 241.504 L128.973 274.074 L124.089 274.074 L135.894 243.449 L119.297 243.449 L119.297 239.514 Z" fill="#000000" fill-rule="evenodd" fill-opacity="1" /><path clip-path="url(#clip900)" d="M150.64 268.194 L155.524 268.194 L155.524 274.074 L150.64 274.074 L150.64 268.194 Z" fill="#000000" fill-rule="evenodd" fill-opacity="1" /><path clip-path="url(#clip900)" d="M165.755 239.514 L184.112 239.514 L184.112 243.449 L170.038 243.449 L170.038 251.921 Q171.056 251.574 172.075 251.412 Q173.093 251.227 174.112 251.227 Q179.899 251.227 183.278 254.398 Q186.658 257.569 186.658 262.986 Q186.658 268.564 183.186 271.666 Q179.713 274.745 173.394 274.745 Q171.218 274.745 168.95 274.375 Q166.704 274.004 164.297 273.264 L164.297 268.564 Q166.38 269.699 168.602 270.254 Q170.825 270.81 173.301 270.81 Q177.306 270.81 179.644 268.703 Q181.982 266.597 181.982 262.986 Q181.982 259.375 179.644 257.268 Q177.306 255.162 173.301 255.162 Q171.426 255.162 169.551 255.578 Q167.7 255.995 165.755 256.875 L165.755 239.514 Z" fill="#000000" fill-rule="evenodd" fill-opacity="1" /><polyline clip-path="url(#clip902)" style="stroke:#009af9; stroke-linecap:butt; stroke-linejoin:round; stroke-width:4; stroke-opacity:1; fill:none" points="
  295.292,256.794 317.531,253.606 523.155,224.589 646.727,207.621 751.205,193.614 864.698,178.819 969.328,165.642 1081.5,152.113 1211.47,137.402 1326.97,125.435 
  1428.25,116.044 1538.67,107.333 1649.75,100.705 1772.56,96.8724 1889.42,98.2437 2010.92,107.882 2113.2,126.757 2175.63,146.155 2238.07,174.976 2267.41,193.16 
  2296.76,215.383 2326.1,242.815 2355.45,277.118 2378.95,311.172 2402.46,353.03 2425.97,405.379 2449.47,472.298 2461.23,513.115 2472.98,560.297 2484.73,615.381 
  2496.49,680.441 2508.24,758.345 2519.99,853.182 2525.87,908.727 2531.75,970.975 2537.62,1041.19 2543.5,1120.99 2547.12,1175.76 2550.74,1235.52 2554.35,1300.99 
  2557.97,1373.02 2561.59,1452.65 2565.21,1541.11 2568.82,1639.97 2572.44,1751.15 
  "/>
<path clip-path="url(#clip900)" d="
M2239.67 209.375 L2560.3 209.375 L2560.3 105.695 L2239.67 105.695  Z
  " fill="#ffffff" fill-rule="evenodd" fill-opacity="1"/>
<polyline clip-path="url(#clip900)" style="stroke:#000000; stroke-linecap:butt; stroke-linejoin:round; stroke-width:4; stroke-opacity:1; fill:none" points="
  2239.67,209.375 2560.3,209.375 2560.3,105.695 2239.67,105.695 2239.67,209.375 
  "/>
<polyline clip-path="url(#clip900)" style="stroke:#009af9; stroke-linecap:butt; stroke-linejoin:round; stroke-width:4; stroke-opacity:1; fill:none" points="
  2266.49,157.535 2427.41,157.535 
  "/>
<path clip-path="url(#clip900)" d="M2468.07 177.223 Q2466.26 181.852 2464.55 183.264 Q2462.84 184.676 2459.97 184.676 L2456.56 184.676 L2456.56 181.112 L2459.06 181.112 Q2460.82 181.112 2461.8 180.278 Q2462.77 179.445 2463.95 176.343 L2464.71 174.399 L2454.23 148.889 L2458.74 148.889 L2466.84 169.167 L2474.94 148.889 L2479.46 148.889 L2468.07 177.223 Z" fill="#000000" fill-rule="evenodd" fill-opacity="1" /><path clip-path="url(#clip900)" d="M2486.75 170.88 L2494.39 170.88 L2494.39 144.515 L2486.08 146.181 L2486.08 141.922 L2494.34 140.255 L2499.02 140.255 L2499.02 170.88 L2506.66 170.88 L2506.66 174.815 L2486.75 174.815 L2486.75 170.88 Z" fill="#000000" fill-rule="evenodd" fill-opacity="1" /></svg>
