<?xml version="1.0" encoding="utf-8"?>
<svg xmlns="http://www.w3.org/2000/svg" xmlns:xlink="http://www.w3.org/1999/xlink" width="672" height="480" viewBox="0 0 2688 1920">
<defs>
  <clipPath id="clip380">
    <rect x="0" y="0" width="2688" height="1920"/>
  </clipPath>
</defs>
<path clip-path="url(#clip380)" d="
M0 1920 L2688 1920 L2688 0 L0 0  Z
  " fill="#ffffff" fill-rule="evenodd" fill-opacity="1"/>
<defs>
  <clipPath id="clip381">
    <rect x="537" y="0" width="1883" height="1883"/>
  </clipPath>
</defs>
<path clip-path="url(#clip380)" d="
M159.154 1800.78 L2640.76 1800.78 L2640.76 47.2441 L159.154 47.2441  Z
  " fill="#ffffff" fill-rule="evenodd" fill-opacity="1"/>
<defs>
  <clipPath id="clip382">
    <rect x="159" y="47" width="2483" height="1755"/>
  </clipPath>
</defs>
<polyline clip-path="url(#clip382)" style="stroke:#000000; stroke-linecap:butt; stroke-linejoin:round; stroke-width:2; stroke-opacity:0.1; fill:none" points="
  282.146,1800.78 282.146,47.2441 
  "/>
<polyline clip-path="url(#clip382)" style="stroke:#000000; stroke-linecap:butt; stroke-linejoin:round; stroke-width:2; stroke-opacity:0.1; fill:none" points="
  654.749,1800.78 654.749,47.2441 
  "/>
<polyline clip-path="url(#clip382)" style="stroke:#000000; stroke-linecap:butt; stroke-linejoin:round; stroke-width:2; stroke-opacity:0.1; fill:none" points="
  1027.35,1800.78 1027.35,47.2441 
  "/>
<polyline clip-path="url(#clip382)" style="stroke:#000000; stroke-linecap:butt; stroke-linejoin:round; stroke-width:2; stroke-opacity:0.1; fill:none" points="
  1399.96,1800.78 1399.96,47.2441 
  "/>
<polyline clip-path="url(#clip382)" style="stroke:#000000; stroke-linecap:butt; stroke-linejoin:round; stroke-width:2; stroke-opacity:0.1; fill:none" points="
  1772.56,1800.78 1772.56,47.2441 
  "/>
<polyline clip-path="url(#clip382)" style="stroke:#000000; stroke-linecap:butt; stroke-linejoin:round; stroke-width:2; stroke-opacity:0.1; fill:none" points="
  2145.16,1800.78 2145.16,47.2441 
  "/>
<polyline clip-path="url(#clip382)" style="stroke:#000000; stroke-linecap:butt; stroke-linejoin:round; stroke-width:2; stroke-opacity:0.1; fill:none" points="
  2517.76,1800.78 2517.76,47.2441 
  "/>
<polyline clip-path="url(#clip380)" style="stroke:#000000; stroke-linecap:butt; stroke-linejoin:round; stroke-width:4; stroke-opacity:1; fill:none" points="
  159.154,1800.78 2640.76,1800.78 
  "/>
<polyline clip-path="url(#clip380)" style="stroke:#000000; stroke-linecap:butt; stroke-linejoin:round; stroke-width:4; stroke-opacity:1; fill:none" points="
  282.146,1800.78 282.146,1781.88 
  "/>
<polyline clip-path="url(#clip380)" style="stroke:#000000; stroke-linecap:butt; stroke-linejoin:round; stroke-width:4; stroke-opacity:1; fill:none" points="
  654.749,1800.78 654.749,1781.88 
  "/>
<polyline clip-path="url(#clip380)" style="stroke:#000000; stroke-linecap:butt; stroke-linejoin:round; stroke-width:4; stroke-opacity:1; fill:none" points="
  1027.35,1800.78 1027.35,1781.88 
  "/>
<polyline clip-path="url(#clip380)" style="stroke:#000000; stroke-linecap:butt; stroke-linejoin:round; stroke-width:4; stroke-opacity:1; fill:none" points="
  1399.96,1800.78 1399.96,1781.88 
  "/>
<polyline clip-path="url(#clip380)" style="stroke:#000000; stroke-linecap:butt; stroke-linejoin:round; stroke-width:4; stroke-opacity:1; fill:none" points="
  1772.56,1800.78 1772.56,1781.88 
  "/>
<polyline clip-path="url(#clip380)" style="stroke:#000000; stroke-linecap:butt; stroke-linejoin:round; stroke-width:4; stroke-opacity:1; fill:none" points="
  2145.16,1800.78 2145.16,1781.88 
  "/>
<polyline clip-path="url(#clip380)" style="stroke:#000000; stroke-linecap:butt; stroke-linejoin:round; stroke-width:4; stroke-opacity:1; fill:none" points="
  2517.76,1800.78 2517.76,1781.88 
  "/>
<path clip-path="url(#clip380)" d="M229.172 1848.65 L258.848 1848.65 L258.848 1852.59 L229.172 1852.59 L229.172 1848.65 Z" fill="#000000" fill-rule="evenodd" fill-opacity="1" /><path clip-path="url(#clip380)" d="M269.75 1861.55 L277.389 1861.55 L277.389 1835.18 L269.079 1836.85 L269.079 1832.59 L277.343 1830.92 L282.019 1830.92 L282.019 1861.55 L289.658 1861.55 L289.658 1865.48 L269.75 1865.48 L269.75 1861.55 Z" fill="#000000" fill-rule="evenodd" fill-opacity="1" /><path clip-path="url(#clip380)" d="M299.102 1859.6 L303.986 1859.6 L303.986 1865.48 L299.102 1865.48 L299.102 1859.6 Z" fill="#000000" fill-rule="evenodd" fill-opacity="1" /><path clip-path="url(#clip380)" d="M314.218 1830.92 L332.574 1830.92 L332.574 1834.86 L318.5 1834.86 L318.5 1843.33 Q319.519 1842.98 320.537 1842.82 Q321.556 1842.64 322.574 1842.64 Q328.361 1842.64 331.741 1845.81 Q335.12 1848.98 335.12 1854.4 Q335.12 1859.97 331.648 1863.08 Q328.176 1866.15 321.856 1866.15 Q319.681 1866.15 317.412 1865.78 Q315.167 1865.41 312.759 1864.67 L312.759 1859.97 Q314.843 1861.11 317.065 1861.66 Q319.287 1862.22 321.764 1862.22 Q325.768 1862.22 328.106 1860.11 Q330.444 1858.01 330.444 1854.4 Q330.444 1850.78 328.106 1848.68 Q325.768 1846.57 321.764 1846.57 Q319.889 1846.57 318.014 1846.99 Q316.162 1847.4 314.218 1848.28 L314.218 1830.92 Z" fill="#000000" fill-rule="evenodd" fill-opacity="1" /><path clip-path="url(#clip380)" d="M601.277 1848.65 L630.953 1848.65 L630.953 1852.59 L601.277 1852.59 L601.277 1848.65 Z" fill="#000000" fill-rule="evenodd" fill-opacity="1" /><path clip-path="url(#clip380)" d="M641.856 1861.55 L649.494 1861.55 L649.494 1835.18 L641.184 1836.85 L641.184 1832.59 L649.448 1830.92 L654.124 1830.92 L654.124 1861.55 L661.763 1861.55 L661.763 1865.48 L641.856 1865.48 L641.856 1861.55 Z" fill="#000000" fill-rule="evenodd" fill-opacity="1" /><path clip-path="url(#clip380)" d="M671.207 1859.6 L676.092 1859.6 L676.092 1865.48 L671.207 1865.48 L671.207 1859.6 Z" fill="#000000" fill-rule="evenodd" fill-opacity="1" /><path clip-path="url(#clip380)" d="M696.277 1834 Q692.665 1834 690.837 1837.57 Q689.031 1841.11 689.031 1848.24 Q689.031 1855.34 690.837 1858.91 Q692.665 1862.45 696.277 1862.45 Q699.911 1862.45 701.716 1858.91 Q703.545 1855.34 703.545 1848.24 Q703.545 1841.11 701.716 1837.57 Q699.911 1834 696.277 1834 M696.277 1830.3 Q702.087 1830.3 705.142 1834.9 Q708.221 1839.49 708.221 1848.24 Q708.221 1856.96 705.142 1861.57 Q702.087 1866.15 696.277 1866.15 Q690.466 1866.15 687.388 1861.57 Q684.332 1856.96 684.332 1848.24 Q684.332 1839.49 687.388 1834.9 Q690.466 1830.3 696.277 1830.3 Z" fill="#000000" fill-rule="evenodd" fill-opacity="1" /><path clip-path="url(#clip380)" d="M974.378 1848.65 L1004.05 1848.65 L1004.05 1852.59 L974.378 1852.59 L974.378 1848.65 Z" fill="#000000" fill-rule="evenodd" fill-opacity="1" /><path clip-path="url(#clip380)" d="M1024.15 1834 Q1020.53 1834 1018.71 1837.57 Q1016.9 1841.11 1016.9 1848.24 Q1016.9 1855.34 1018.71 1858.91 Q1020.53 1862.45 1024.15 1862.45 Q1027.78 1862.45 1029.59 1858.91 Q1031.41 1855.34 1031.41 1848.24 Q1031.41 1841.11 1029.59 1837.57 Q1027.78 1834 1024.15 1834 M1024.15 1830.3 Q1029.96 1830.3 1033.01 1834.9 Q1036.09 1839.49 1036.09 1848.24 Q1036.09 1856.96 1033.01 1861.57 Q1029.96 1866.15 1024.15 1866.15 Q1018.34 1866.15 1015.26 1861.57 Q1012.2 1856.96 1012.2 1848.24 Q1012.2 1839.49 1015.26 1834.9 Q1018.34 1830.3 1024.15 1830.3 Z" fill="#000000" fill-rule="evenodd" fill-opacity="1" /><path clip-path="url(#clip380)" d="M1044.31 1859.6 L1049.19 1859.6 L1049.19 1865.48 L1044.31 1865.48 L1044.31 1859.6 Z" fill="#000000" fill-rule="evenodd" fill-opacity="1" /><path clip-path="url(#clip380)" d="M1059.42 1830.92 L1077.78 1830.92 L1077.78 1834.86 L1063.71 1834.86 L1063.71 1843.33 Q1064.72 1842.98 1065.74 1842.82 Q1066.76 1842.64 1067.78 1842.64 Q1073.57 1842.64 1076.95 1845.81 Q1080.33 1848.98 1080.33 1854.4 Q1080.33 1859.97 1076.85 1863.08 Q1073.38 1866.15 1067.06 1866.15 Q1064.89 1866.15 1062.62 1865.78 Q1060.37 1865.41 1057.97 1864.67 L1057.97 1859.97 Q1060.05 1861.11 1062.27 1861.66 Q1064.49 1862.22 1066.97 1862.22 Q1070.97 1862.22 1073.31 1860.11 Q1075.65 1858.01 1075.65 1854.4 Q1075.65 1850.78 1073.31 1848.68 Q1070.97 1846.57 1066.97 1846.57 Q1065.09 1846.57 1063.22 1846.99 Q1061.37 1847.4 1059.42 1848.28 L1059.42 1830.92 Z" fill="#000000" fill-rule="evenodd" fill-opacity="1" /><path clip-path="url(#clip380)" d="M1377.34 1834 Q1373.73 1834 1371.9 1837.57 Q1370.09 1841.11 1370.09 1848.24 Q1370.09 1855.34 1371.9 1858.91 Q1373.73 1862.45 1377.34 1862.45 Q1380.97 1862.45 1382.78 1858.91 Q1384.61 1855.34 1384.61 1848.24 Q1384.61 1841.11 1382.78 1837.57 Q1380.97 1834 1377.34 1834 M1377.34 1830.3 Q1383.15 1830.3 1386.21 1834.9 Q1389.28 1839.49 1389.28 1848.24 Q1389.28 1856.96 1386.21 1861.57 Q1383.15 1866.15 1377.34 1866.15 Q1371.53 1866.15 1368.45 1861.57 Q1365.4 1856.96 1365.4 1848.24 Q1365.4 1839.49 1368.45 1834.9 Q1371.53 1830.3 1377.34 1830.3 Z" fill="#000000" fill-rule="evenodd" fill-opacity="1" /><path clip-path="url(#clip380)" d="M1397.5 1859.6 L1402.39 1859.6 L1402.39 1865.48 L1397.5 1865.48 L1397.5 1859.6 Z" fill="#000000" fill-rule="evenodd" fill-opacity="1" /><path clip-path="url(#clip380)" d="M1422.57 1834 Q1418.96 1834 1417.13 1837.57 Q1415.33 1841.11 1415.33 1848.24 Q1415.33 1855.34 1417.13 1858.91 Q1418.96 1862.45 1422.57 1862.45 Q1426.2 1862.45 1428.01 1858.91 Q1429.84 1855.34 1429.84 1848.24 Q1429.84 1841.11 1428.01 1837.57 Q1426.2 1834 1422.57 1834 M1422.57 1830.3 Q1428.38 1830.3 1431.44 1834.9 Q1434.52 1839.49 1434.52 1848.24 Q1434.52 1856.96 1431.44 1861.57 Q1428.38 1866.15 1422.57 1866.15 Q1416.76 1866.15 1413.68 1861.57 Q1410.63 1856.96 1410.63 1848.24 Q1410.63 1839.49 1413.68 1834.9 Q1416.76 1830.3 1422.57 1830.3 Z" fill="#000000" fill-rule="evenodd" fill-opacity="1" /><path clip-path="url(#clip380)" d="M1750.44 1834 Q1746.83 1834 1745 1837.57 Q1743.19 1841.11 1743.19 1848.24 Q1743.19 1855.34 1745 1858.91 Q1746.83 1862.45 1750.44 1862.45 Q1754.07 1862.45 1755.88 1858.91 Q1757.71 1855.34 1757.71 1848.24 Q1757.71 1841.11 1755.88 1837.57 Q1754.07 1834 1750.44 1834 M1750.44 1830.3 Q1756.25 1830.3 1759.31 1834.9 Q1762.38 1839.49 1762.38 1848.24 Q1762.38 1856.96 1759.31 1861.57 Q1756.25 1866.15 1750.44 1866.15 Q1744.63 1866.15 1741.55 1861.57 Q1738.5 1856.96 1738.5 1848.24 Q1738.5 1839.49 1741.55 1834.9 Q1744.63 1830.3 1750.44 1830.3 Z" fill="#000000" fill-rule="evenodd" fill-opacity="1" /><path clip-path="url(#clip380)" d="M1770.6 1859.6 L1775.49 1859.6 L1775.49 1865.48 L1770.6 1865.48 L1770.6 1859.6 Z" fill="#000000" fill-rule="evenodd" fill-opacity="1" /><path clip-path="url(#clip380)" d="M1785.72 1830.92 L1804.07 1830.92 L1804.07 1834.86 L1790 1834.86 L1790 1843.33 Q1791.02 1842.98 1792.04 1842.82 Q1793.06 1842.64 1794.07 1842.64 Q1799.86 1842.64 1803.24 1845.81 Q1806.62 1848.98 1806.62 1854.4 Q1806.62 1859.97 1803.15 1863.08 Q1799.68 1866.15 1793.36 1866.15 Q1791.18 1866.15 1788.91 1865.78 Q1786.67 1865.41 1784.26 1864.67 L1784.26 1859.97 Q1786.34 1861.11 1788.56 1861.66 Q1790.79 1862.22 1793.26 1862.22 Q1797.27 1862.22 1799.61 1860.11 Q1801.94 1858.01 1801.94 1854.4 Q1801.94 1850.78 1799.61 1848.68 Q1797.27 1846.57 1793.26 1846.57 Q1791.39 1846.57 1789.51 1846.99 Q1787.66 1847.4 1785.72 1848.28 L1785.72 1830.92 Z" fill="#000000" fill-rule="evenodd" fill-opacity="1" /><path clip-path="url(#clip380)" d="M2112.31 1861.55 L2119.95 1861.55 L2119.95 1835.18 L2111.64 1836.85 L2111.64 1832.59 L2119.91 1830.92 L2124.58 1830.92 L2124.58 1861.55 L2132.22 1861.55 L2132.22 1865.48 L2112.31 1865.48 L2112.31 1861.55 Z" fill="#000000" fill-rule="evenodd" fill-opacity="1" /><path clip-path="url(#clip380)" d="M2141.67 1859.6 L2146.55 1859.6 L2146.55 1865.48 L2141.67 1865.48 L2141.67 1859.6 Z" fill="#000000" fill-rule="evenodd" fill-opacity="1" /><path clip-path="url(#clip380)" d="M2166.74 1834 Q2163.12 1834 2161.3 1837.57 Q2159.49 1841.11 2159.49 1848.24 Q2159.49 1855.34 2161.3 1858.91 Q2163.12 1862.45 2166.74 1862.45 Q2170.37 1862.45 2172.17 1858.91 Q2174 1855.34 2174 1848.24 Q2174 1841.11 2172.17 1837.57 Q2170.37 1834 2166.74 1834 M2166.74 1830.3 Q2172.55 1830.3 2175.6 1834.9 Q2178.68 1839.49 2178.68 1848.24 Q2178.68 1856.96 2175.6 1861.57 Q2172.55 1866.15 2166.74 1866.15 Q2160.92 1866.15 2157.85 1861.57 Q2154.79 1856.96 2154.79 1848.24 Q2154.79 1839.49 2157.85 1834.9 Q2160.92 1830.3 2166.74 1830.3 Z" fill="#000000" fill-rule="evenodd" fill-opacity="1" /><path clip-path="url(#clip380)" d="M2485.41 1861.55 L2493.05 1861.55 L2493.05 1835.18 L2484.74 1836.85 L2484.74 1832.59 L2493.01 1830.92 L2497.68 1830.92 L2497.68 1861.55 L2505.32 1861.55 L2505.32 1865.48 L2485.41 1865.48 L2485.41 1861.55 Z" fill="#000000" fill-rule="evenodd" fill-opacity="1" /><path clip-path="url(#clip380)" d="M2514.77 1859.6 L2519.65 1859.6 L2519.65 1865.48 L2514.77 1865.48 L2514.77 1859.6 Z" fill="#000000" fill-rule="evenodd" fill-opacity="1" /><path clip-path="url(#clip380)" d="M2529.88 1830.92 L2548.24 1830.92 L2548.24 1834.86 L2534.16 1834.86 L2534.16 1843.33 Q2535.18 1842.98 2536.2 1842.82 Q2537.22 1842.64 2538.24 1842.64 Q2544.03 1842.64 2547.41 1845.81 Q2550.78 1848.98 2550.78 1854.4 Q2550.78 1859.97 2547.31 1863.08 Q2543.84 1866.15 2537.52 1866.15 Q2535.34 1866.15 2533.08 1865.78 Q2530.83 1865.41 2528.42 1864.67 L2528.42 1859.97 Q2530.51 1861.11 2532.73 1861.66 Q2534.95 1862.22 2537.43 1862.22 Q2541.43 1862.22 2543.77 1860.11 Q2546.11 1858.01 2546.11 1854.4 Q2546.11 1850.78 2543.77 1848.68 Q2541.43 1846.57 2537.43 1846.57 Q2535.55 1846.57 2533.68 1846.99 Q2531.83 1847.4 2529.88 1848.28 L2529.88 1830.92 Z" fill="#000000" fill-rule="evenodd" fill-opacity="1" /><polyline clip-path="url(#clip382)" style="stroke:#000000; stroke-linecap:butt; stroke-linejoin:round; stroke-width:2; stroke-opacity:0.1; fill:none" points="
  159.154,1437.77 2640.76,1437.77 
  "/>
<polyline clip-path="url(#clip382)" style="stroke:#000000; stroke-linecap:butt; stroke-linejoin:round; stroke-width:2; stroke-opacity:0.1; fill:none" points="
  159.154,1035.49 2640.76,1035.49 
  "/>
<polyline clip-path="url(#clip382)" style="stroke:#000000; stroke-linecap:butt; stroke-linejoin:round; stroke-width:2; stroke-opacity:0.1; fill:none" points="
  159.154,633.208 2640.76,633.208 
  "/>
<polyline clip-path="url(#clip382)" style="stroke:#000000; stroke-linecap:butt; stroke-linejoin:round; stroke-width:2; stroke-opacity:0.1; fill:none" points="
  159.154,230.926 2640.76,230.926 
  "/>
<polyline clip-path="url(#clip380)" style="stroke:#000000; stroke-linecap:butt; stroke-linejoin:round; stroke-width:4; stroke-opacity:1; fill:none" points="
  159.154,1800.78 159.154,47.2441 
  "/>
<polyline clip-path="url(#clip380)" style="stroke:#000000; stroke-linecap:butt; stroke-linejoin:round; stroke-width:4; stroke-opacity:1; fill:none" points="
  159.154,1437.77 178.052,1437.77 
  "/>
<polyline clip-path="url(#clip380)" style="stroke:#000000; stroke-linecap:butt; stroke-linejoin:round; stroke-width:4; stroke-opacity:1; fill:none" points="
  159.154,1035.49 178.052,1035.49 
  "/>
<polyline clip-path="url(#clip380)" style="stroke:#000000; stroke-linecap:butt; stroke-linejoin:round; stroke-width:4; stroke-opacity:1; fill:none" points="
  159.154,633.208 178.052,633.208 
  "/>
<polyline clip-path="url(#clip380)" style="stroke:#000000; stroke-linecap:butt; stroke-linejoin:round; stroke-width:4; stroke-opacity:1; fill:none" points="
  159.154,230.926 178.052,230.926 
  "/>
<path clip-path="url(#clip380)" d="M61.6585 1423.57 Q58.0475 1423.57 56.2188 1427.14 Q54.4132 1430.68 54.4132 1437.81 Q54.4132 1444.91 56.2188 1448.48 Q58.0475 1452.02 61.6585 1452.02 Q65.2928 1452.02 67.0983 1448.48 Q68.927 1444.91 68.927 1437.81 Q68.927 1430.68 67.0983 1427.14 Q65.2928 1423.57 61.6585 1423.57 M61.6585 1419.87 Q67.4687 1419.87 70.5242 1424.47 Q73.6029 1429.06 73.6029 1437.81 Q73.6029 1446.53 70.5242 1451.14 Q67.4687 1455.72 61.6585 1455.72 Q55.8484 1455.72 52.7697 1451.14 Q49.7142 1446.53 49.7142 1437.81 Q49.7142 1429.06 52.7697 1424.47 Q55.8484 1419.87 61.6585 1419.87 Z" fill="#000000" fill-rule="evenodd" fill-opacity="1" /><path clip-path="url(#clip380)" d="M81.8205 1449.17 L86.7047 1449.17 L86.7047 1455.05 L81.8205 1455.05 L81.8205 1449.17 Z" fill="#000000" fill-rule="evenodd" fill-opacity="1" /><path clip-path="url(#clip380)" d="M106.89 1423.57 Q103.279 1423.57 101.45 1427.14 Q99.6445 1430.68 99.6445 1437.81 Q99.6445 1444.91 101.45 1448.48 Q103.279 1452.02 106.89 1452.02 Q110.524 1452.02 112.33 1448.48 Q114.158 1444.91 114.158 1437.81 Q114.158 1430.68 112.33 1427.14 Q110.524 1423.57 106.89 1423.57 M106.89 1419.87 Q112.7 1419.87 115.755 1424.47 Q118.834 1429.06 118.834 1437.81 Q118.834 1446.53 115.755 1451.14 Q112.7 1455.72 106.89 1455.72 Q101.08 1455.72 98.0009 1451.14 Q94.9454 1446.53 94.9454 1437.81 Q94.9454 1429.06 98.0009 1424.47 Q101.08 1419.87 106.89 1419.87 Z" fill="#000000" fill-rule="evenodd" fill-opacity="1" /><path clip-path="url(#clip380)" d="M62.3067 1021.29 Q58.6956 1021.29 56.8669 1024.85 Q55.0614 1028.4 55.0614 1035.53 Q55.0614 1042.63 56.8669 1046.2 Q58.6956 1049.74 62.3067 1049.74 Q65.9409 1049.74 67.7465 1046.2 Q69.5752 1042.63 69.5752 1035.53 Q69.5752 1028.4 67.7465 1024.85 Q65.9409 1021.29 62.3067 1021.29 M62.3067 1017.59 Q68.1168 1017.59 71.1724 1022.19 Q74.2511 1026.78 74.2511 1035.53 Q74.2511 1044.25 71.1724 1048.86 Q68.1168 1053.44 62.3067 1053.44 Q56.4965 1053.44 53.4178 1048.86 Q50.3623 1044.25 50.3623 1035.53 Q50.3623 1026.78 53.4178 1022.19 Q56.4965 1017.59 62.3067 1017.59 Z" fill="#000000" fill-rule="evenodd" fill-opacity="1" /><path clip-path="url(#clip380)" d="M82.4686 1046.89 L87.3528 1046.89 L87.3528 1052.77 L82.4686 1052.77 L82.4686 1046.89 Z" fill="#000000" fill-rule="evenodd" fill-opacity="1" /><path clip-path="url(#clip380)" d="M111.705 1034.14 Q115.061 1034.85 116.936 1037.12 Q118.834 1039.39 118.834 1042.72 Q118.834 1047.84 115.316 1050.64 Q111.797 1053.44 105.316 1053.44 Q103.14 1053.44 100.825 1053 Q98.5333 1052.59 96.0797 1051.73 L96.0797 1047.21 Q98.0241 1048.35 100.339 1048.93 Q102.654 1049.51 105.177 1049.51 Q109.575 1049.51 111.867 1047.77 Q114.181 1046.03 114.181 1042.72 Q114.181 1039.67 112.029 1037.96 Q109.899 1036.22 106.08 1036.22 L102.052 1036.22 L102.052 1032.38 L106.265 1032.38 Q109.714 1032.38 111.543 1031.01 Q113.371 1029.62 113.371 1027.03 Q113.371 1024.37 111.473 1022.96 Q109.598 1021.52 106.08 1021.52 Q104.158 1021.52 101.959 1021.94 Q99.7602 1022.35 97.1213 1023.23 L97.1213 1019.07 Q99.7833 1018.33 102.098 1017.96 Q104.436 1017.59 106.496 1017.59 Q111.82 1017.59 114.922 1020.02 Q118.024 1022.42 118.024 1026.54 Q118.024 1029.41 116.38 1031.4 Q114.737 1033.37 111.705 1034.14 Z" fill="#000000" fill-rule="evenodd" fill-opacity="1" /><path clip-path="url(#clip380)" d="M61.4965 619.007 Q57.8854 619.007 56.0567 622.572 Q54.2512 626.113 54.2512 633.243 Q54.2512 640.349 56.0567 643.914 Q57.8854 647.456 61.4965 647.456 Q65.1307 647.456 66.9363 643.914 Q68.765 640.349 68.765 633.243 Q68.765 626.113 66.9363 622.572 Q65.1307 619.007 61.4965 619.007 M61.4965 615.303 Q67.3067 615.303 70.3622 619.91 Q73.4409 624.493 73.4409 633.243 Q73.4409 641.97 70.3622 646.576 Q67.3067 651.16 61.4965 651.16 Q55.6864 651.16 52.6077 646.576 Q49.5521 641.97 49.5521 633.243 Q49.5521 624.493 52.6077 619.91 Q55.6864 615.303 61.4965 615.303 Z" fill="#000000" fill-rule="evenodd" fill-opacity="1" /><path clip-path="url(#clip380)" d="M81.6584 644.609 L86.5427 644.609 L86.5427 650.488 L81.6584 650.488 L81.6584 644.609 Z" fill="#000000" fill-rule="evenodd" fill-opacity="1" /><path clip-path="url(#clip380)" d="M107.306 631.345 Q104.158 631.345 102.306 633.498 Q100.478 635.65 100.478 639.4 Q100.478 643.127 102.306 645.303 Q104.158 647.456 107.306 647.456 Q110.455 647.456 112.283 645.303 Q114.135 643.127 114.135 639.4 Q114.135 635.65 112.283 633.498 Q110.455 631.345 107.306 631.345 M116.589 616.692 L116.589 620.951 Q114.83 620.118 113.024 619.678 Q111.242 619.238 109.482 619.238 Q104.853 619.238 102.399 622.363 Q99.9685 625.488 99.6213 631.808 Q100.987 629.794 103.047 628.729 Q105.107 627.641 107.584 627.641 Q112.793 627.641 115.802 630.812 Q118.834 633.961 118.834 639.4 Q118.834 644.724 115.686 647.942 Q112.538 651.16 107.306 651.16 Q101.311 651.16 98.1398 646.576 Q94.9685 641.97 94.9685 633.243 Q94.9685 625.049 98.8574 620.188 Q102.746 615.303 109.297 615.303 Q111.056 615.303 112.839 615.651 Q114.644 615.998 116.589 616.692 Z" fill="#000000" fill-rule="evenodd" fill-opacity="1" /><path clip-path="url(#clip380)" d="M61.8437 216.725 Q58.2326 216.725 56.4039 220.29 Q54.5984 223.831 54.5984 230.961 Q54.5984 238.067 56.4039 241.632 Q58.2326 245.174 61.8437 245.174 Q65.478 245.174 67.2835 241.632 Q69.1122 238.067 69.1122 230.961 Q69.1122 223.831 67.2835 220.29 Q65.478 216.725 61.8437 216.725 M61.8437 213.021 Q67.6539 213.021 70.7094 217.628 Q73.7881 222.211 73.7881 230.961 Q73.7881 239.688 70.7094 244.294 Q67.6539 248.877 61.8437 248.877 Q56.0336 248.877 52.9549 244.294 Q49.8993 239.688 49.8993 230.961 Q49.8993 222.211 52.9549 217.628 Q56.0336 213.021 61.8437 213.021 Z" fill="#000000" fill-rule="evenodd" fill-opacity="1" /><path clip-path="url(#clip380)" d="M82.0057 242.327 L86.8899 242.327 L86.8899 248.206 L82.0057 248.206 L82.0057 242.327 Z" fill="#000000" fill-rule="evenodd" fill-opacity="1" /><path clip-path="url(#clip380)" d="M97.2139 247.489 L97.2139 243.229 Q98.9732 244.063 100.779 244.503 Q102.584 244.942 104.32 244.942 Q108.95 244.942 111.38 241.84 Q113.834 238.715 114.181 232.373 Q112.839 234.364 110.779 235.428 Q108.718 236.493 106.218 236.493 Q101.033 236.493 98.0009 233.368 Q94.9917 230.22 94.9917 224.78 Q94.9917 219.456 98.1398 216.239 Q101.288 213.021 106.519 213.021 Q112.515 213.021 115.663 217.628 Q118.834 222.211 118.834 230.961 Q118.834 239.132 114.945 244.016 Q111.08 248.877 104.529 248.877 Q102.769 248.877 100.964 248.53 Q99.1583 248.183 97.2139 247.489 M106.519 232.836 Q109.668 232.836 111.496 230.683 Q113.348 228.53 113.348 224.78 Q113.348 221.054 111.496 218.901 Q109.668 216.725 106.519 216.725 Q103.371 216.725 101.519 218.901 Q99.6907 221.054 99.6907 224.78 Q99.6907 228.53 101.519 230.683 Q103.371 232.836 106.519 232.836 Z" fill="#000000" fill-rule="evenodd" fill-opacity="1" /><polyline clip-path="url(#clip382)" style="stroke:#009af9; stroke-linecap:butt; stroke-linejoin:round; stroke-width:4; stroke-opacity:1; fill:none" points="
  229.388,1437.77 240.82,1417.2 252.251,1396.64 357.952,1207.58 463.654,1023.14 527.175,916.075 590.697,812.799 644.404,728.992 698.112,648.865 756.452,566.478 
  814.793,489.43 868.578,423.534 922.364,362.919 980.027,304.158 1037.69,252.182 1104.5,200.852 1171.31,159.457 1230.68,131.279 1290.05,111.389 1342.11,100.869 
  1394.18,96.8724 1450.94,99.9695 1507.7,110.825 1564.81,129.508 1621.91,155.87 1685.04,193.764 1748.17,240.581 1808.24,293.104 1868.31,353.061 1930.76,422.866 
  1993.22,499.796 2045.8,569.683 2098.37,643.889 2226.75,840.892 2347.43,1042.31 2540.77,1384.25 2570.52,1437.77 
  "/>
<polyline clip-path="url(#clip382)" style="stroke:#e26f46; stroke-linecap:butt; stroke-linejoin:round; stroke-width:4; stroke-opacity:1; fill:none" points="
  229.388,1751.15 240.82,1719 252.251,1687.16 357.952,1407.72 463.654,1155.25 527.175,1016.51 590.697,887.511 644.404,786.046 698.112,691.545 756.452,596.783 
  814.793,510.24 868.578,437.736 922.364,372.217 980.027,309.733 1037.69,255.277 1104.5,202.225 1171.31,159.951 1230.68,131.427 1290.05,111.415 1342.11,100.871 
  1394.18,96.8724 1450.94,99.9707 1507.7,110.849 1564.81,129.642 1621.91,156.308 1685.04,194.955 1748.17,243.225 1808.24,298.089 1868.31,361.665 1930.76,437.008 
  1993.22,521.771 2045.8,600.425 2098.37,685.754 2162.56,798.98 2226.75,922.155 2287.09,1047.01 2347.43,1180.67 2444.1,1413.11 2540.77,1668.12 2555.65,1709.37 
  2570.52,1751.15 
  "/>
<path clip-path="url(#clip380)" d="
M2229.87 261.215 L2558.04 261.215 L2558.04 105.695 L2229.87 105.695  Z
  " fill="#ffffff" fill-rule="evenodd" fill-opacity="1"/>
<polyline clip-path="url(#clip380)" style="stroke:#000000; stroke-linecap:butt; stroke-linejoin:round; stroke-width:4; stroke-opacity:1; fill:none" points="
  2229.87,261.215 2558.04,261.215 2558.04,105.695 2229.87,105.695 2229.87,261.215 
  "/>
<polyline clip-path="url(#clip380)" style="stroke:#009af9; stroke-linecap:butt; stroke-linejoin:round; stroke-width:4; stroke-opacity:1; fill:none" points="
  2257.45,157.535 2422.89,157.535 
  "/>
<path clip-path="url(#clip380)" d="M2464.3 177.223 Q2462.5 181.852 2460.78 183.264 Q2459.07 184.676 2456.2 184.676 L2452.8 184.676 L2452.8 181.112 L2455.3 181.112 Q2457.06 181.112 2458.03 180.278 Q2459 179.445 2460.18 176.343 L2460.94 174.399 L2450.46 148.889 L2454.97 148.889 L2463.07 169.167 L2471.18 148.889 L2475.69 148.889 L2464.3 177.223 Z" fill="#000000" fill-rule="evenodd" fill-opacity="1" /><path clip-path="url(#clip380)" d="M2482.98 170.88 L2490.62 170.88 L2490.62 144.515 L2482.31 146.181 L2482.31 141.922 L2490.57 140.255 L2495.25 140.255 L2495.25 170.88 L2502.89 170.88 L2502.89 174.815 L2482.98 174.815 L2482.98 170.88 Z" fill="#000000" fill-rule="evenodd" fill-opacity="1" /><polyline clip-path="url(#clip380)" style="stroke:#e26f46; stroke-linecap:butt; stroke-linejoin:round; stroke-width:4; stroke-opacity:1; fill:none" points="
  2257.45,209.375 2422.89,209.375 
  "/>
<path clip-path="url(#clip380)" d="M2464.3 229.063 Q2462.5 233.692 2460.78 235.104 Q2459.07 236.516 2456.2 236.516 L2452.8 236.516 L2452.8 232.952 L2455.3 232.952 Q2457.06 232.952 2458.03 232.118 Q2459 231.285 2460.18 228.183 L2460.94 226.239 L2450.46 200.729 L2454.97 200.729 L2463.07 221.007 L2471.18 200.729 L2475.69 200.729 L2464.3 229.063 Z" fill="#000000" fill-rule="evenodd" fill-opacity="1" /><path clip-path="url(#clip380)" d="M2486.2 222.72 L2502.52 222.72 L2502.52 226.655 L2480.57 226.655 L2480.57 222.72 Q2483.24 219.965 2487.82 215.336 Q2492.43 210.683 2493.61 209.341 Q2495.85 206.817 2496.73 205.081 Q2497.63 203.322 2497.63 201.632 Q2497.63 198.878 2495.69 197.142 Q2493.77 195.405 2490.67 195.405 Q2488.47 195.405 2486.01 196.169 Q2483.58 196.933 2480.81 198.484 L2480.81 193.762 Q2483.63 192.628 2486.08 192.049 Q2488.54 191.47 2490.57 191.47 Q2495.94 191.47 2499.14 194.155 Q2502.33 196.841 2502.33 201.331 Q2502.33 203.461 2501.52 205.382 Q2500.74 207.28 2498.63 209.873 Q2498.05 210.544 2494.95 213.762 Q2491.85 216.956 2486.2 222.72 Z" fill="#000000" fill-rule="evenodd" fill-opacity="1" /></svg>
