<?xml version="1.0" encoding="utf-8"?>
<svg xmlns="http://www.w3.org/2000/svg" xmlns:xlink="http://www.w3.org/1999/xlink" width="672" height="480" viewBox="0 0 2688 1920">
<defs>
  <clipPath id="clip460">
    <rect x="0" y="0" width="2688" height="1920"/>
  </clipPath>
</defs>
<path clip-path="url(#clip460)" d="
M0 1920 L2688 1920 L2688 0 L0 0  Z
  " fill="#ffffff" fill-rule="evenodd" fill-opacity="1"/>
<defs>
  <clipPath id="clip461">
    <rect x="537" y="0" width="1883" height="1883"/>
  </clipPath>
</defs>
<path clip-path="url(#clip460)" d="
M141.839 1800.78 L2640.76 1800.78 L2640.76 47.2441 L141.839 47.2441  Z
  " fill="#ffffff" fill-rule="evenodd" fill-opacity="1"/>
<defs>
  <clipPath id="clip462">
    <rect x="141" y="47" width="2500" height="1755"/>
  </clipPath>
</defs>
<polyline clip-path="url(#clip462)" style="stroke:#000000; stroke-linecap:butt; stroke-linejoin:round; stroke-width:2; stroke-opacity:0.1; fill:none" points="
  212.563,1800.78 212.563,47.2441 
  "/>
<polyline clip-path="url(#clip462)" style="stroke:#000000; stroke-linecap:butt; stroke-linejoin:round; stroke-width:2; stroke-opacity:0.1; fill:none" points="
  605.475,1800.78 605.475,47.2441 
  "/>
<polyline clip-path="url(#clip462)" style="stroke:#000000; stroke-linecap:butt; stroke-linejoin:round; stroke-width:2; stroke-opacity:0.1; fill:none" points="
  998.386,1800.78 998.386,47.2441 
  "/>
<polyline clip-path="url(#clip462)" style="stroke:#000000; stroke-linecap:butt; stroke-linejoin:round; stroke-width:2; stroke-opacity:0.1; fill:none" points="
  1391.3,1800.78 1391.3,47.2441 
  "/>
<polyline clip-path="url(#clip462)" style="stroke:#000000; stroke-linecap:butt; stroke-linejoin:round; stroke-width:2; stroke-opacity:0.1; fill:none" points="
  1784.21,1800.78 1784.21,47.2441 
  "/>
<polyline clip-path="url(#clip462)" style="stroke:#000000; stroke-linecap:butt; stroke-linejoin:round; stroke-width:2; stroke-opacity:0.1; fill:none" points="
  2177.12,1800.78 2177.12,47.2441 
  "/>
<polyline clip-path="url(#clip462)" style="stroke:#000000; stroke-linecap:butt; stroke-linejoin:round; stroke-width:2; stroke-opacity:0.1; fill:none" points="
  2570.03,1800.78 2570.03,47.2441 
  "/>
<polyline clip-path="url(#clip460)" style="stroke:#000000; stroke-linecap:butt; stroke-linejoin:round; stroke-width:4; stroke-opacity:1; fill:none" points="
  141.839,1800.78 2640.76,1800.78 
  "/>
<polyline clip-path="url(#clip460)" style="stroke:#000000; stroke-linecap:butt; stroke-linejoin:round; stroke-width:4; stroke-opacity:1; fill:none" points="
  212.563,1800.78 212.563,1781.88 
  "/>
<polyline clip-path="url(#clip460)" style="stroke:#000000; stroke-linecap:butt; stroke-linejoin:round; stroke-width:4; stroke-opacity:1; fill:none" points="
  605.475,1800.78 605.475,1781.88 
  "/>
<polyline clip-path="url(#clip460)" style="stroke:#000000; stroke-linecap:butt; stroke-linejoin:round; stroke-width:4; stroke-opacity:1; fill:none" points="
  998.386,1800.78 998.386,1781.88 
  "/>
<polyline clip-path="url(#clip460)" style="stroke:#000000; stroke-linecap:butt; stroke-linejoin:round; stroke-width:4; stroke-opacity:1; fill:none" points="
  1391.3,1800.78 1391.3,1781.88 
  "/>
<polyline clip-path="url(#clip460)" style="stroke:#000000; stroke-linecap:butt; stroke-linejoin:round; stroke-width:4; stroke-opacity:1; fill:none" points="
  1784.21,1800.78 1784.21,1781.88 
  "/>
<polyline clip-path="url(#clip460)" style="stroke:#000000; stroke-linecap:butt; stroke-linejoin:round; stroke-width:4; stroke-opacity:1; fill:none" points="
  2177.12,1800.78 2177.12,1781.88 
  "/>
<polyline clip-path="url(#clip460)" style="stroke:#000000; stroke-linecap:butt; stroke-linejoin:round; stroke-width:4; stroke-opacity:1; fill:none" points="
  2570.03,1800.78 2570.03,1781.88 
  "/>
<path clip-path="url(#clip460)" d="M182.031 1848.65 L211.707 1848.65 L211.707 1852.59 L182.031 1852.59 L182.031 1848.65 Z" fill="#000000" fill-rule="evenodd" fill-opacity="1" /><path clip-path="url(#clip460)" d="M235.966 1846.85 Q239.323 1847.57 241.198 1849.84 Q243.096 1852.1 243.096 1855.44 Q243.096 1860.55 239.577 1863.35 Q236.059 1866.15 229.577 1866.15 Q227.401 1866.15 225.087 1865.71 Q222.795 1865.3 220.341 1864.44 L220.341 1859.93 Q222.286 1861.06 224.6 1861.64 Q226.915 1862.22 229.438 1862.22 Q233.837 1862.22 236.128 1860.48 Q238.443 1858.75 238.443 1855.44 Q238.443 1852.38 236.29 1850.67 Q234.161 1848.93 230.341 1848.93 L226.313 1848.93 L226.313 1845.09 L230.526 1845.09 Q233.975 1845.09 235.804 1843.72 Q237.633 1842.34 237.633 1839.74 Q237.633 1837.08 235.735 1835.67 Q233.86 1834.23 230.341 1834.23 Q228.42 1834.23 226.221 1834.65 Q224.022 1835.07 221.383 1835.95 L221.383 1831.78 Q224.045 1831.04 226.36 1830.67 Q228.698 1830.3 230.758 1830.3 Q236.082 1830.3 239.184 1832.73 Q242.286 1835.14 242.286 1839.26 Q242.286 1842.13 240.642 1844.12 Q238.999 1846.09 235.966 1846.85 Z" fill="#000000" fill-rule="evenodd" fill-opacity="1" /><path clip-path="url(#clip460)" d="M575.417 1848.65 L605.093 1848.65 L605.093 1852.59 L575.417 1852.59 L575.417 1848.65 Z" fill="#000000" fill-rule="evenodd" fill-opacity="1" /><path clip-path="url(#clip460)" d="M619.213 1861.55 L635.533 1861.55 L635.533 1865.48 L613.588 1865.48 L613.588 1861.55 Q616.25 1858.79 620.834 1854.16 Q625.44 1849.51 626.621 1848.17 Q628.866 1845.65 629.746 1843.91 Q630.648 1842.15 630.648 1840.46 Q630.648 1837.71 628.704 1835.97 Q626.783 1834.23 623.681 1834.23 Q621.482 1834.23 619.028 1835 Q616.598 1835.76 613.82 1837.31 L613.82 1832.59 Q616.644 1831.46 619.097 1830.88 Q621.551 1830.3 623.588 1830.3 Q628.959 1830.3 632.153 1832.98 Q635.347 1835.67 635.347 1840.16 Q635.347 1842.29 634.537 1844.21 Q633.75 1846.11 631.644 1848.7 Q631.065 1849.37 627.963 1852.59 Q624.861 1855.78 619.213 1861.55 Z" fill="#000000" fill-rule="evenodd" fill-opacity="1" /><path clip-path="url(#clip460)" d="M968.143 1848.65 L997.819 1848.65 L997.819 1852.59 L968.143 1852.59 L968.143 1848.65 Z" fill="#000000" fill-rule="evenodd" fill-opacity="1" /><path clip-path="url(#clip460)" d="M1008.72 1861.55 L1016.36 1861.55 L1016.36 1835.18 L1008.05 1836.85 L1008.05 1832.59 L1016.31 1830.92 L1020.99 1830.92 L1020.99 1861.55 L1028.63 1861.55 L1028.63 1865.48 L1008.72 1865.48 L1008.72 1861.55 Z" fill="#000000" fill-rule="evenodd" fill-opacity="1" /><path clip-path="url(#clip460)" d="M1391.3 1834 Q1387.69 1834 1385.86 1837.57 Q1384.05 1841.11 1384.05 1848.24 Q1384.05 1855.34 1385.86 1858.91 Q1387.69 1862.45 1391.3 1862.45 Q1394.93 1862.45 1396.74 1858.91 Q1398.57 1855.34 1398.57 1848.24 Q1398.57 1841.11 1396.74 1837.57 Q1394.93 1834 1391.3 1834 M1391.3 1830.3 Q1397.11 1830.3 1400.16 1834.9 Q1403.24 1839.49 1403.24 1848.24 Q1403.24 1856.96 1400.16 1861.57 Q1397.11 1866.15 1391.3 1866.15 Q1385.49 1866.15 1382.41 1861.57 Q1379.35 1856.96 1379.35 1848.24 Q1379.35 1839.49 1382.41 1834.9 Q1385.49 1830.3 1391.3 1830.3 Z" fill="#000000" fill-rule="evenodd" fill-opacity="1" /><path clip-path="url(#clip460)" d="M1774.59 1861.55 L1782.23 1861.55 L1782.23 1835.18 L1773.92 1836.85 L1773.92 1832.59 L1782.18 1830.92 L1786.86 1830.92 L1786.86 1861.55 L1794.5 1861.55 L1794.5 1865.48 L1774.59 1865.48 L1774.59 1861.55 Z" fill="#000000" fill-rule="evenodd" fill-opacity="1" /><path clip-path="url(#clip460)" d="M2171.77 1861.55 L2188.09 1861.55 L2188.09 1865.48 L2166.15 1865.48 L2166.15 1861.55 Q2168.81 1858.79 2173.39 1854.16 Q2178 1849.51 2179.18 1848.17 Q2181.43 1845.65 2182.31 1843.91 Q2183.21 1842.15 2183.21 1840.46 Q2183.21 1837.71 2181.26 1835.97 Q2179.34 1834.23 2176.24 1834.23 Q2174.04 1834.23 2171.59 1835 Q2169.16 1835.76 2166.38 1837.31 L2166.38 1832.59 Q2169.2 1831.46 2171.66 1830.88 Q2174.11 1830.3 2176.15 1830.3 Q2181.52 1830.3 2184.71 1832.98 Q2187.91 1835.67 2187.91 1840.16 Q2187.91 1842.29 2187.1 1844.21 Q2186.31 1846.11 2184.2 1848.7 Q2183.63 1849.37 2180.52 1852.59 Q2177.42 1855.78 2171.77 1861.55 Z" fill="#000000" fill-rule="evenodd" fill-opacity="1" /><path clip-path="url(#clip460)" d="M2574.28 1846.85 Q2577.64 1847.57 2579.51 1849.84 Q2581.41 1852.1 2581.41 1855.44 Q2581.41 1860.55 2577.89 1863.35 Q2574.37 1866.15 2567.89 1866.15 Q2565.71 1866.15 2563.4 1865.71 Q2561.11 1865.3 2558.65 1864.44 L2558.65 1859.93 Q2560.6 1861.06 2562.91 1861.64 Q2565.23 1862.22 2567.75 1862.22 Q2572.15 1862.22 2574.44 1860.48 Q2576.76 1858.75 2576.76 1855.44 Q2576.76 1852.38 2574.6 1850.67 Q2572.47 1848.93 2568.65 1848.93 L2564.63 1848.93 L2564.63 1845.09 L2568.84 1845.09 Q2572.29 1845.09 2574.12 1843.72 Q2575.95 1842.34 2575.95 1839.74 Q2575.95 1837.08 2574.05 1835.67 Q2572.17 1834.23 2568.65 1834.23 Q2566.73 1834.23 2564.53 1834.65 Q2562.34 1835.07 2559.7 1835.95 L2559.7 1831.78 Q2562.36 1831.04 2564.67 1830.67 Q2567.01 1830.3 2569.07 1830.3 Q2574.4 1830.3 2577.5 1832.73 Q2580.6 1835.14 2580.6 1839.26 Q2580.6 1842.13 2578.96 1844.12 Q2577.31 1846.09 2574.28 1846.85 Z" fill="#000000" fill-rule="evenodd" fill-opacity="1" /><polyline clip-path="url(#clip462)" style="stroke:#000000; stroke-linecap:butt; stroke-linejoin:round; stroke-width:2; stroke-opacity:0.1; fill:none" points="
  141.839,1751.15 2640.76,1751.15 
  "/>
<polyline clip-path="url(#clip462)" style="stroke:#000000; stroke-linecap:butt; stroke-linejoin:round; stroke-width:2; stroke-opacity:0.1; fill:none" points="
  141.839,1264.6 2640.76,1264.6 
  "/>
<polyline clip-path="url(#clip462)" style="stroke:#000000; stroke-linecap:butt; stroke-linejoin:round; stroke-width:2; stroke-opacity:0.1; fill:none" points="
  141.839,778.046 2640.76,778.046 
  "/>
<polyline clip-path="url(#clip462)" style="stroke:#000000; stroke-linecap:butt; stroke-linejoin:round; stroke-width:2; stroke-opacity:0.1; fill:none" points="
  141.839,291.493 2640.76,291.493 
  "/>
<polyline clip-path="url(#clip460)" style="stroke:#000000; stroke-linecap:butt; stroke-linejoin:round; stroke-width:4; stroke-opacity:1; fill:none" points="
  141.839,1800.78 141.839,47.2441 
  "/>
<polyline clip-path="url(#clip460)" style="stroke:#000000; stroke-linecap:butt; stroke-linejoin:round; stroke-width:4; stroke-opacity:1; fill:none" points="
  141.839,1751.15 160.737,1751.15 
  "/>
<polyline clip-path="url(#clip460)" style="stroke:#000000; stroke-linecap:butt; stroke-linejoin:round; stroke-width:4; stroke-opacity:1; fill:none" points="
  141.839,1264.6 160.737,1264.6 
  "/>
<polyline clip-path="url(#clip460)" style="stroke:#000000; stroke-linecap:butt; stroke-linejoin:round; stroke-width:4; stroke-opacity:1; fill:none" points="
  141.839,778.046 160.737,778.046 
  "/>
<polyline clip-path="url(#clip460)" style="stroke:#000000; stroke-linecap:butt; stroke-linejoin:round; stroke-width:4; stroke-opacity:1; fill:none" points="
  141.839,291.493 160.737,291.493 
  "/>
<path clip-path="url(#clip460)" d="M89.5751 1736.95 Q85.964 1736.95 84.1353 1740.51 Q82.3297 1744.06 82.3297 1751.19 Q82.3297 1758.29 84.1353 1761.86 Q85.964 1765.4 89.5751 1765.4 Q93.2093 1765.4 95.0148 1761.86 Q96.8435 1758.29 96.8435 1751.19 Q96.8435 1744.06 95.0148 1740.51 Q93.2093 1736.95 89.5751 1736.95 M89.5751 1733.25 Q95.3852 1733.25 98.4408 1737.85 Q101.519 1742.44 101.519 1751.19 Q101.519 1759.91 98.4408 1764.52 Q95.3852 1769.1 89.5751 1769.1 Q83.7649 1769.1 80.6862 1764.52 Q77.6307 1759.91 77.6307 1751.19 Q77.6307 1742.44 80.6862 1737.85 Q83.7649 1733.25 89.5751 1733.25 Z" fill="#000000" fill-rule="evenodd" fill-opacity="1" /><path clip-path="url(#clip460)" d="M80.6168 1247.32 L98.9732 1247.32 L98.9732 1251.25 L84.8992 1251.25 L84.8992 1259.73 Q85.9177 1259.38 86.9362 1259.22 Q87.9547 1259.03 88.9732 1259.03 Q94.7602 1259.03 98.1398 1262.2 Q101.519 1265.37 101.519 1270.79 Q101.519 1276.37 98.0472 1279.47 Q94.575 1282.55 88.2556 1282.55 Q86.0797 1282.55 83.8112 1282.18 Q81.5658 1281.81 79.1584 1281.07 L79.1584 1276.37 Q81.2418 1277.5 83.464 1278.06 Q85.6862 1278.61 88.163 1278.61 Q92.1676 1278.61 94.5056 1276.51 Q96.8435 1274.4 96.8435 1270.79 Q96.8435 1267.18 94.5056 1265.07 Q92.1676 1262.97 88.163 1262.97 Q86.288 1262.97 84.4131 1263.38 Q82.5612 1263.8 80.6168 1264.68 L80.6168 1247.32 Z" fill="#000000" fill-rule="evenodd" fill-opacity="1" /><path clip-path="url(#clip460)" d="M50.2234 791.391 L57.8623 791.391 L57.8623 765.025 L49.5521 766.692 L49.5521 762.433 L57.816 760.766 L62.4919 760.766 L62.4919 791.391 L70.1307 791.391 L70.1307 795.326 L50.2234 795.326 L50.2234 791.391 Z" fill="#000000" fill-rule="evenodd" fill-opacity="1" /><path clip-path="url(#clip460)" d="M89.5751 763.845 Q85.964 763.845 84.1353 767.409 Q82.3297 770.951 82.3297 778.081 Q82.3297 785.187 84.1353 788.752 Q85.964 792.294 89.5751 792.294 Q93.2093 792.294 95.0148 788.752 Q96.8435 785.187 96.8435 778.081 Q96.8435 770.951 95.0148 767.409 Q93.2093 763.845 89.5751 763.845 M89.5751 760.141 Q95.3852 760.141 98.4408 764.747 Q101.519 769.331 101.519 778.081 Q101.519 786.807 98.4408 791.414 Q95.3852 795.997 89.5751 795.997 Q83.7649 795.997 80.6862 791.414 Q77.6307 786.807 77.6307 778.081 Q77.6307 769.331 80.6862 764.747 Q83.7649 760.141 89.5751 760.141 Z" fill="#000000" fill-rule="evenodd" fill-opacity="1" /><path clip-path="url(#clip460)" d="M51.2188 304.838 L58.8576 304.838 L58.8576 278.473 L50.5475 280.139 L50.5475 275.88 L58.8113 274.213 L63.4872 274.213 L63.4872 304.838 L71.1261 304.838 L71.1261 308.773 L51.2188 308.773 L51.2188 304.838 Z" fill="#000000" fill-rule="evenodd" fill-opacity="1" /><path clip-path="url(#clip460)" d="M80.6168 274.213 L98.9732 274.213 L98.9732 278.149 L84.8992 278.149 L84.8992 286.621 Q85.9177 286.274 86.9362 286.112 Q87.9547 285.926 88.9732 285.926 Q94.7602 285.926 98.1398 289.098 Q101.519 292.269 101.519 297.686 Q101.519 303.264 98.0472 306.366 Q94.575 309.445 88.2556 309.445 Q86.0797 309.445 83.8112 309.074 Q81.5658 308.704 79.1584 307.963 L79.1584 303.264 Q81.2418 304.398 83.464 304.954 Q85.6862 305.51 88.163 305.51 Q92.1676 305.51 94.5056 303.403 Q96.8435 301.297 96.8435 297.686 Q96.8435 294.074 94.5056 291.968 Q92.1676 289.862 88.163 289.862 Q86.288 289.862 84.4131 290.278 Q82.5612 290.695 80.6168 291.574 L80.6168 274.213 Z" fill="#000000" fill-rule="evenodd" fill-opacity="1" /><polyline clip-path="url(#clip462)" style="stroke:#009af9; stroke-linecap:butt; stroke-linejoin:round; stroke-width:4; stroke-opacity:1; fill:none" points="
  212.563,96.8724 224.075,119.597 235.586,142.154 342.025,342.812 448.463,529.189 512.429,634.323 576.394,734.299 630.475,814.803 684.557,891.62 802.053,1045.8 
  910.374,1172.53 1026.51,1291.96 1161.05,1409.07 1280.63,1493.99 1385.48,1553.63 1499.8,1602.85 1614.8,1635.75 1741.94,1652.71 1862.92,1649.94 1988.7,1627.48 
  2094.59,1593.12 2159.23,1565.19 2223.86,1532 2284.62,1496 2345.38,1455.34 2442.73,1380.5 2540.07,1293.71 2555.05,1279.3 2570.03,1264.6 
  "/>
<polyline clip-path="url(#clip462)" style="stroke:#e26f46; stroke-linecap:butt; stroke-linejoin:round; stroke-width:4; stroke-opacity:1; fill:none" points="
  212.563,1751.15 235.586,1751.15 448.463,1751.15 576.394,1751.15 684.557,1751.15 802.053,1751.15 910.374,1751.15 1026.51,1751.15 1161.05,1751.15 1280.63,1751.15 
  1385.48,1751.15 1499.8,1751.15 1614.8,1751.15 1741.94,1751.15 1862.92,1751.15 1988.7,1751.15 2094.59,1751.15 2223.86,1751.15 2345.38,1751.15 2540.07,1751.15 
  2570.03,1751.15 
  "/>
<path clip-path="url(#clip460)" d="
M2227.37 261.215 L2557.46 261.215 L2557.46 105.695 L2227.37 105.695  Z
  " fill="#ffffff" fill-rule="evenodd" fill-opacity="1"/>
<polyline clip-path="url(#clip460)" style="stroke:#000000; stroke-linecap:butt; stroke-linejoin:round; stroke-width:4; stroke-opacity:1; fill:none" points="
  2227.37,261.215 2557.46,261.215 2557.46,105.695 2227.37,105.695 2227.37,261.215 
  "/>
<polyline clip-path="url(#clip460)" style="stroke:#009af9; stroke-linecap:butt; stroke-linejoin:round; stroke-width:4; stroke-opacity:1; fill:none" points="
  2255.14,157.535 2421.73,157.535 
  "/>
<path clip-path="url(#clip460)" d="M2463.34 177.223 Q2461.53 181.852 2459.82 183.264 Q2458.11 184.676 2455.24 184.676 L2451.83 184.676 L2451.83 181.112 L2454.33 181.112 Q2456.09 181.112 2457.07 180.278 Q2458.04 179.445 2459.22 176.343 L2459.98 174.399 L2449.5 148.889 L2454.01 148.889 L2462.11 169.167 L2470.21 148.889 L2474.73 148.889 L2463.34 177.223 Z" fill="#000000" fill-rule="evenodd" fill-opacity="1" /><path clip-path="url(#clip460)" d="M2482.02 170.88 L2489.66 170.88 L2489.66 144.515 L2481.35 146.181 L2481.35 141.922 L2489.61 140.255 L2494.29 140.255 L2494.29 170.88 L2501.93 170.88 L2501.93 174.815 L2482.02 174.815 L2482.02 170.88 Z" fill="#000000" fill-rule="evenodd" fill-opacity="1" /><polyline clip-path="url(#clip460)" style="stroke:#e26f46; stroke-linecap:butt; stroke-linejoin:round; stroke-width:4; stroke-opacity:1; fill:none" points="
  2255.14,209.375 2421.73,209.375 
  "/>
<path clip-path="url(#clip460)" d="M2463.34 229.063 Q2461.53 233.692 2459.82 235.104 Q2458.11 236.516 2455.24 236.516 L2451.83 236.516 L2451.83 232.952 L2454.33 232.952 Q2456.09 232.952 2457.07 232.118 Q2458.04 231.285 2459.22 228.183 L2459.98 226.239 L2449.5 200.729 L2454.01 200.729 L2462.11 221.007 L2470.21 200.729 L2474.73 200.729 L2463.34 229.063 Z" fill="#000000" fill-rule="evenodd" fill-opacity="1" /><path clip-path="url(#clip460)" d="M2485.24 222.72 L2501.56 222.72 L2501.56 226.655 L2479.61 226.655 L2479.61 222.72 Q2482.27 219.965 2486.86 215.336 Q2491.46 210.683 2492.64 209.341 Q2494.89 206.817 2495.77 205.081 Q2496.67 203.322 2496.67 201.632 Q2496.67 198.878 2494.73 197.142 Q2492.81 195.405 2489.71 195.405 Q2487.51 195.405 2485.05 196.169 Q2482.62 196.933 2479.84 198.484 L2479.84 193.762 Q2482.67 192.628 2485.12 192.049 Q2487.58 191.47 2489.61 191.47 Q2494.98 191.47 2498.18 194.155 Q2501.37 196.841 2501.37 201.331 Q2501.37 203.461 2500.56 205.382 Q2499.77 207.28 2497.67 209.873 Q2497.09 210.544 2493.99 213.762 Q2490.89 216.956 2485.24 222.72 Z" fill="#000000" fill-rule="evenodd" fill-opacity="1" /></svg>
