<?xml version="1.0" encoding="utf-8"?>
<svg xmlns="http://www.w3.org/2000/svg" xmlns:xlink="http://www.w3.org/1999/xlink" width="672" height="480" viewBox="0 0 2688 1920">
<defs>
  <clipPath id="clip300">
    <rect x="0" y="0" width="2688" height="1920"/>
  </clipPath>
</defs>
<path clip-path="url(#clip300)" d="
M0 1920 L2688 1920 L2688 0 L0 0  Z
  " fill="#ffffff" fill-rule="evenodd" fill-opacity="1"/>
<defs>
  <clipPath id="clip301">
    <rect x="537" y="0" width="1883" height="1883"/>
  </clipPath>
</defs>
<path clip-path="url(#clip300)" d="
M189.154 1800.78 L2640.76 1800.78 L2640.76 47.2441 L189.154 47.2441  Z
  " fill="#ffffff" fill-rule="evenodd" fill-opacity="1"/>
<defs>
  <clipPath id="clip302">
    <rect x="189" y="47" width="2453" height="1755"/>
  </clipPath>
</defs>
<polyline clip-path="url(#clip302)" style="stroke:#000000; stroke-linecap:butt; stroke-linejoin:round; stroke-width:2; stroke-opacity:0.1; fill:none" points="
  258.539,1800.78 258.539,47.2441 
  "/>
<polyline clip-path="url(#clip302)" style="stroke:#000000; stroke-linecap:butt; stroke-linejoin:round; stroke-width:2; stroke-opacity:0.1; fill:none" points="
  644.011,1800.78 644.011,47.2441 
  "/>
<polyline clip-path="url(#clip302)" style="stroke:#000000; stroke-linecap:butt; stroke-linejoin:round; stroke-width:2; stroke-opacity:0.1; fill:none" points="
  1029.48,1800.78 1029.48,47.2441 
  "/>
<polyline clip-path="url(#clip302)" style="stroke:#000000; stroke-linecap:butt; stroke-linejoin:round; stroke-width:2; stroke-opacity:0.1; fill:none" points="
  1414.95,1800.78 1414.95,47.2441 
  "/>
<polyline clip-path="url(#clip302)" style="stroke:#000000; stroke-linecap:butt; stroke-linejoin:round; stroke-width:2; stroke-opacity:0.1; fill:none" points="
  1800.43,1800.78 1800.43,47.2441 
  "/>
<polyline clip-path="url(#clip302)" style="stroke:#000000; stroke-linecap:butt; stroke-linejoin:round; stroke-width:2; stroke-opacity:0.1; fill:none" points="
  2185.9,1800.78 2185.9,47.2441 
  "/>
<polyline clip-path="url(#clip302)" style="stroke:#000000; stroke-linecap:butt; stroke-linejoin:round; stroke-width:2; stroke-opacity:0.1; fill:none" points="
  2571.37,1800.78 2571.37,47.2441 
  "/>
<polyline clip-path="url(#clip300)" style="stroke:#000000; stroke-linecap:butt; stroke-linejoin:round; stroke-width:4; stroke-opacity:1; fill:none" points="
  189.154,1800.78 2640.76,1800.78 
  "/>
<polyline clip-path="url(#clip300)" style="stroke:#000000; stroke-linecap:butt; stroke-linejoin:round; stroke-width:4; stroke-opacity:1; fill:none" points="
  258.539,1800.78 258.539,1781.88 
  "/>
<polyline clip-path="url(#clip300)" style="stroke:#000000; stroke-linecap:butt; stroke-linejoin:round; stroke-width:4; stroke-opacity:1; fill:none" points="
  644.011,1800.78 644.011,1781.88 
  "/>
<polyline clip-path="url(#clip300)" style="stroke:#000000; stroke-linecap:butt; stroke-linejoin:round; stroke-width:4; stroke-opacity:1; fill:none" points="
  1029.48,1800.78 1029.48,1781.88 
  "/>
<polyline clip-path="url(#clip300)" style="stroke:#000000; stroke-linecap:butt; stroke-linejoin:round; stroke-width:4; stroke-opacity:1; fill:none" points="
  1414.95,1800.78 1414.95,1781.88 
  "/>
<polyline clip-path="url(#clip300)" style="stroke:#000000; stroke-linecap:butt; stroke-linejoin:round; stroke-width:4; stroke-opacity:1; fill:none" points="
  1800.43,1800.78 1800.43,1781.88 
  "/>
<polyline clip-path="url(#clip300)" style="stroke:#000000; stroke-linecap:butt; stroke-linejoin:round; stroke-width:4; stroke-opacity:1; fill:none" points="
  2185.9,1800.78 2185.9,1781.88 
  "/>
<polyline clip-path="url(#clip300)" style="stroke:#000000; stroke-linecap:butt; stroke-linejoin:round; stroke-width:4; stroke-opacity:1; fill:none" points="
  2571.37,1800.78 2571.37,1781.88 
  "/>
<path clip-path="url(#clip300)" d="M228.007 1848.65 L257.682 1848.65 L257.682 1852.59 L228.007 1852.59 L228.007 1848.65 Z" fill="#000000" fill-rule="evenodd" fill-opacity="1" /><path clip-path="url(#clip300)" d="M281.942 1846.85 Q285.298 1847.57 287.173 1849.84 Q289.071 1852.1 289.071 1855.44 Q289.071 1860.55 285.553 1863.35 Q282.034 1866.15 275.553 1866.15 Q273.377 1866.15 271.062 1865.71 Q268.77 1865.3 266.317 1864.44 L266.317 1859.93 Q268.261 1861.06 270.576 1861.64 Q272.891 1862.22 275.414 1862.22 Q279.812 1862.22 282.104 1860.48 Q284.418 1858.75 284.418 1855.44 Q284.418 1852.38 282.266 1850.67 Q280.136 1848.93 276.317 1848.93 L272.289 1848.93 L272.289 1845.09 L276.502 1845.09 Q279.951 1845.09 281.78 1843.72 Q283.608 1842.34 283.608 1839.74 Q283.608 1837.08 281.71 1835.67 Q279.835 1834.23 276.317 1834.23 Q274.395 1834.23 272.196 1834.65 Q269.997 1835.07 267.358 1835.95 L267.358 1831.78 Q270.02 1831.04 272.335 1830.67 Q274.673 1830.3 276.733 1830.3 Q282.057 1830.3 285.159 1832.73 Q288.261 1835.14 288.261 1839.26 Q288.261 1842.13 286.618 1844.12 Q284.974 1846.09 281.942 1846.85 Z" fill="#000000" fill-rule="evenodd" fill-opacity="1" /><path clip-path="url(#clip300)" d="M613.953 1848.65 L643.629 1848.65 L643.629 1852.59 L613.953 1852.59 L613.953 1848.65 Z" fill="#000000" fill-rule="evenodd" fill-opacity="1" /><path clip-path="url(#clip300)" d="M657.749 1861.55 L674.069 1861.55 L674.069 1865.48 L652.124 1865.48 L652.124 1861.55 Q654.786 1858.79 659.37 1854.16 Q663.976 1849.51 665.157 1848.17 Q667.402 1845.65 668.282 1843.91 Q669.184 1842.15 669.184 1840.46 Q669.184 1837.71 667.24 1835.97 Q665.319 1834.23 662.217 1834.23 Q660.018 1834.23 657.564 1835 Q655.134 1835.76 652.356 1837.31 L652.356 1832.59 Q655.18 1831.46 657.634 1830.88 Q660.087 1830.3 662.124 1830.3 Q667.495 1830.3 670.689 1832.98 Q673.883 1835.67 673.883 1840.16 Q673.883 1842.29 673.073 1844.21 Q672.286 1846.11 670.18 1848.7 Q669.601 1849.37 666.499 1852.59 Q663.397 1855.78 657.749 1861.55 Z" fill="#000000" fill-rule="evenodd" fill-opacity="1" /><path clip-path="url(#clip300)" d="M999.24 1848.65 L1028.92 1848.65 L1028.92 1852.59 L999.24 1852.59 L999.24 1848.65 Z" fill="#000000" fill-rule="evenodd" fill-opacity="1" /><path clip-path="url(#clip300)" d="M1039.82 1861.55 L1047.46 1861.55 L1047.46 1835.18 L1039.15 1836.85 L1039.15 1832.59 L1047.41 1830.92 L1052.09 1830.92 L1052.09 1861.55 L1059.73 1861.55 L1059.73 1865.48 L1039.82 1865.48 L1039.82 1861.55 Z" fill="#000000" fill-rule="evenodd" fill-opacity="1" /><path clip-path="url(#clip300)" d="M1414.95 1834 Q1411.34 1834 1409.52 1837.57 Q1407.71 1841.11 1407.71 1848.24 Q1407.71 1855.34 1409.52 1858.91 Q1411.34 1862.45 1414.95 1862.45 Q1418.59 1862.45 1420.39 1858.91 Q1422.22 1855.34 1422.22 1848.24 Q1422.22 1841.11 1420.39 1837.57 Q1418.59 1834 1414.95 1834 M1414.95 1830.3 Q1420.77 1830.3 1423.82 1834.9 Q1426.9 1839.49 1426.9 1848.24 Q1426.9 1856.96 1423.82 1861.57 Q1420.77 1866.15 1414.95 1866.15 Q1409.14 1866.15 1406.07 1861.57 Q1403.01 1856.96 1403.01 1848.24 Q1403.01 1839.49 1406.07 1834.9 Q1409.14 1830.3 1414.95 1830.3 Z" fill="#000000" fill-rule="evenodd" fill-opacity="1" /><path clip-path="url(#clip300)" d="M1790.81 1861.55 L1798.45 1861.55 L1798.45 1835.18 L1790.14 1836.85 L1790.14 1832.59 L1798.4 1830.92 L1803.08 1830.92 L1803.08 1861.55 L1810.72 1861.55 L1810.72 1865.48 L1790.81 1865.48 L1790.81 1861.55 Z" fill="#000000" fill-rule="evenodd" fill-opacity="1" /><path clip-path="url(#clip300)" d="M2180.55 1861.55 L2196.87 1861.55 L2196.87 1865.48 L2174.93 1865.48 L2174.93 1861.55 Q2177.59 1858.79 2182.17 1854.16 Q2186.78 1849.51 2187.96 1848.17 Q2190.2 1845.65 2191.08 1843.91 Q2191.99 1842.15 2191.99 1840.46 Q2191.99 1837.71 2190.04 1835.97 Q2188.12 1834.23 2185.02 1834.23 Q2182.82 1834.23 2180.37 1835 Q2177.94 1835.76 2175.16 1837.31 L2175.16 1832.59 Q2177.98 1831.46 2180.44 1830.88 Q2182.89 1830.3 2184.93 1830.3 Q2190.3 1830.3 2193.49 1832.98 Q2196.69 1835.67 2196.69 1840.16 Q2196.69 1842.29 2195.88 1844.21 Q2195.09 1846.11 2192.98 1848.7 Q2192.4 1849.37 2189.3 1852.59 Q2186.2 1855.78 2180.55 1861.55 Z" fill="#000000" fill-rule="evenodd" fill-opacity="1" /><path clip-path="url(#clip300)" d="M2575.62 1846.85 Q2578.98 1847.57 2580.85 1849.84 Q2582.75 1852.1 2582.75 1855.44 Q2582.75 1860.55 2579.23 1863.35 Q2575.71 1866.15 2569.23 1866.15 Q2567.05 1866.15 2564.74 1865.71 Q2562.45 1865.3 2559.99 1864.44 L2559.99 1859.93 Q2561.94 1861.06 2564.25 1861.64 Q2566.57 1862.22 2569.09 1862.22 Q2573.49 1862.22 2575.78 1860.48 Q2578.1 1858.75 2578.1 1855.44 Q2578.1 1852.38 2575.94 1850.67 Q2573.81 1848.93 2569.99 1848.93 L2565.97 1848.93 L2565.97 1845.09 L2570.18 1845.09 Q2573.63 1845.09 2575.46 1843.72 Q2577.29 1842.34 2577.29 1839.74 Q2577.29 1837.08 2575.39 1835.67 Q2573.51 1834.23 2569.99 1834.23 Q2568.07 1834.23 2565.87 1834.65 Q2563.67 1835.07 2561.04 1835.95 L2561.04 1831.78 Q2563.7 1831.04 2566.01 1830.67 Q2568.35 1830.3 2570.41 1830.3 Q2575.73 1830.3 2578.84 1832.73 Q2581.94 1835.14 2581.94 1839.26 Q2581.94 1842.13 2580.29 1844.12 Q2578.65 1846.09 2575.62 1846.85 Z" fill="#000000" fill-rule="evenodd" fill-opacity="1" /><polyline clip-path="url(#clip302)" style="stroke:#000000; stroke-linecap:butt; stroke-linejoin:round; stroke-width:2; stroke-opacity:0.1; fill:none" points="
  189.154,1769.74 2640.76,1769.74 
  "/>
<polyline clip-path="url(#clip302)" style="stroke:#000000; stroke-linecap:butt; stroke-linejoin:round; stroke-width:2; stroke-opacity:0.1; fill:none" points="
  189.154,1351.47 2640.76,1351.47 
  "/>
<polyline clip-path="url(#clip302)" style="stroke:#000000; stroke-linecap:butt; stroke-linejoin:round; stroke-width:2; stroke-opacity:0.1; fill:none" points="
  189.154,933.213 2640.76,933.213 
  "/>
<polyline clip-path="url(#clip302)" style="stroke:#000000; stroke-linecap:butt; stroke-linejoin:round; stroke-width:2; stroke-opacity:0.1; fill:none" points="
  189.154,514.951 2640.76,514.951 
  "/>
<polyline clip-path="url(#clip302)" style="stroke:#000000; stroke-linecap:butt; stroke-linejoin:round; stroke-width:2; stroke-opacity:0.1; fill:none" points="
  189.154,96.6891 2640.76,96.6891 
  "/>
<polyline clip-path="url(#clip300)" style="stroke:#000000; stroke-linecap:butt; stroke-linejoin:round; stroke-width:4; stroke-opacity:1; fill:none" points="
  189.154,1800.78 189.154,47.2441 
  "/>
<polyline clip-path="url(#clip300)" style="stroke:#000000; stroke-linecap:butt; stroke-linejoin:round; stroke-width:4; stroke-opacity:1; fill:none" points="
  189.154,1769.74 208.052,1769.74 
  "/>
<polyline clip-path="url(#clip300)" style="stroke:#000000; stroke-linecap:butt; stroke-linejoin:round; stroke-width:4; stroke-opacity:1; fill:none" points="
  189.154,1351.47 208.052,1351.47 
  "/>
<polyline clip-path="url(#clip300)" style="stroke:#000000; stroke-linecap:butt; stroke-linejoin:round; stroke-width:4; stroke-opacity:1; fill:none" points="
  189.154,933.213 208.052,933.213 
  "/>
<polyline clip-path="url(#clip300)" style="stroke:#000000; stroke-linecap:butt; stroke-linejoin:round; stroke-width:4; stroke-opacity:1; fill:none" points="
  189.154,514.951 208.052,514.951 
  "/>
<polyline clip-path="url(#clip300)" style="stroke:#000000; stroke-linecap:butt; stroke-linejoin:round; stroke-width:4; stroke-opacity:1; fill:none" points="
  189.154,96.6891 208.052,96.6891 
  "/>
<path clip-path="url(#clip300)" d="M61.4965 1755.54 Q57.8854 1755.54 56.0567 1759.1 Q54.2512 1762.64 54.2512 1769.77 Q54.2512 1776.88 56.0567 1780.44 Q57.8854 1783.98 61.4965 1783.98 Q65.1307 1783.98 66.9363 1780.44 Q68.765 1776.88 68.765 1769.77 Q68.765 1762.64 66.9363 1759.1 Q65.1307 1755.54 61.4965 1755.54 M61.4965 1751.83 Q67.3067 1751.83 70.3622 1756.44 Q73.4409 1761.02 73.4409 1769.77 Q73.4409 1778.5 70.3622 1783.1 Q67.3067 1787.69 61.4965 1787.69 Q55.6864 1787.69 52.6077 1783.1 Q49.5521 1778.5 49.5521 1769.77 Q49.5521 1761.02 52.6077 1756.44 Q55.6864 1751.83 61.4965 1751.83 Z" fill="#000000" fill-rule="evenodd" fill-opacity="1" /><path clip-path="url(#clip300)" d="M81.6584 1781.14 L86.5427 1781.14 L86.5427 1787.02 L81.6584 1787.02 L81.6584 1781.14 Z" fill="#000000" fill-rule="evenodd" fill-opacity="1" /><path clip-path="url(#clip300)" d="M106.728 1755.54 Q103.117 1755.54 101.288 1759.1 Q99.4824 1762.64 99.4824 1769.77 Q99.4824 1776.88 101.288 1780.44 Q103.117 1783.98 106.728 1783.98 Q110.362 1783.98 112.168 1780.44 Q113.996 1776.88 113.996 1769.77 Q113.996 1762.64 112.168 1759.1 Q110.362 1755.54 106.728 1755.54 M106.728 1751.83 Q112.538 1751.83 115.593 1756.44 Q118.672 1761.02 118.672 1769.77 Q118.672 1778.5 115.593 1783.1 Q112.538 1787.69 106.728 1787.69 Q100.918 1787.69 97.8389 1783.1 Q94.7834 1778.5 94.7834 1769.77 Q94.7834 1761.02 97.8389 1756.44 Q100.918 1751.83 106.728 1751.83 Z" fill="#000000" fill-rule="evenodd" fill-opacity="1" /><path clip-path="url(#clip300)" d="M136.89 1755.54 Q133.279 1755.54 131.45 1759.1 Q129.644 1762.64 129.644 1769.77 Q129.644 1776.88 131.45 1780.44 Q133.279 1783.98 136.89 1783.98 Q140.524 1783.98 142.329 1780.44 Q144.158 1776.88 144.158 1769.77 Q144.158 1762.64 142.329 1759.1 Q140.524 1755.54 136.89 1755.54 M136.89 1751.83 Q142.7 1751.83 145.755 1756.44 Q148.834 1761.02 148.834 1769.77 Q148.834 1778.5 145.755 1783.1 Q142.7 1787.69 136.89 1787.69 Q131.079 1787.69 128.001 1783.1 Q124.945 1778.5 124.945 1769.77 Q124.945 1761.02 128.001 1756.44 Q131.079 1751.83 136.89 1751.83 Z" fill="#000000" fill-rule="evenodd" fill-opacity="1" /><path clip-path="url(#clip300)" d="M62.4919 1337.27 Q58.8808 1337.27 57.0521 1340.84 Q55.2465 1344.38 55.2465 1351.51 Q55.2465 1358.62 57.0521 1362.18 Q58.8808 1365.72 62.4919 1365.72 Q66.1261 1365.72 67.9317 1362.18 Q69.7604 1358.62 69.7604 1351.51 Q69.7604 1344.38 67.9317 1340.84 Q66.1261 1337.27 62.4919 1337.27 M62.4919 1333.57 Q68.302 1333.57 71.3576 1338.18 Q74.4363 1342.76 74.4363 1351.51 Q74.4363 1360.24 71.3576 1364.84 Q68.302 1369.43 62.4919 1369.43 Q56.6817 1369.43 53.603 1364.84 Q50.5475 1360.24 50.5475 1351.51 Q50.5475 1342.76 53.603 1338.18 Q56.6817 1333.57 62.4919 1333.57 Z" fill="#000000" fill-rule="evenodd" fill-opacity="1" /><path clip-path="url(#clip300)" d="M82.6538 1362.88 L87.538 1362.88 L87.538 1368.75 L82.6538 1368.75 L82.6538 1362.88 Z" fill="#000000" fill-rule="evenodd" fill-opacity="1" /><path clip-path="url(#clip300)" d="M101.751 1364.82 L118.07 1364.82 L118.07 1368.75 L96.126 1368.75 L96.126 1364.82 Q98.788 1362.07 103.371 1357.44 Q107.978 1352.78 109.158 1351.44 Q111.404 1348.92 112.283 1347.18 Q113.186 1345.42 113.186 1343.73 Q113.186 1340.98 111.242 1339.24 Q109.32 1337.51 106.218 1337.51 Q104.019 1337.51 101.566 1338.27 Q99.1352 1339.03 96.3574 1340.58 L96.3574 1335.86 Q99.1815 1334.73 101.635 1334.15 Q104.089 1333.57 106.126 1333.57 Q111.496 1333.57 114.691 1336.26 Q117.885 1338.94 117.885 1343.43 Q117.885 1345.56 117.075 1347.48 Q116.288 1349.38 114.181 1351.97 Q113.603 1352.64 110.501 1355.86 Q107.399 1359.06 101.751 1364.82 Z" fill="#000000" fill-rule="evenodd" fill-opacity="1" /><path clip-path="url(#clip300)" d="M127.931 1334.19 L146.288 1334.19 L146.288 1338.13 L132.214 1338.13 L132.214 1346.6 Q133.232 1346.26 134.251 1346.09 Q135.269 1345.91 136.288 1345.91 Q142.075 1345.91 145.454 1349.08 Q148.834 1352.25 148.834 1357.67 Q148.834 1363.25 145.362 1366.35 Q141.89 1369.43 135.57 1369.43 Q133.394 1369.43 131.126 1369.06 Q128.88 1368.69 126.473 1367.94 L126.473 1363.25 Q128.556 1364.38 130.779 1364.94 Q133.001 1365.49 135.478 1365.49 Q139.482 1365.49 141.82 1363.38 Q144.158 1361.28 144.158 1357.67 Q144.158 1354.06 141.82 1351.95 Q139.482 1349.84 135.478 1349.84 Q133.603 1349.84 131.728 1350.26 Q129.876 1350.68 127.931 1351.56 L127.931 1334.19 Z" fill="#000000" fill-rule="evenodd" fill-opacity="1" /><path clip-path="url(#clip300)" d="M61.4965 919.012 Q57.8854 919.012 56.0567 922.576 Q54.2512 926.118 54.2512 933.248 Q54.2512 940.354 56.0567 943.919 Q57.8854 947.461 61.4965 947.461 Q65.1307 947.461 66.9363 943.919 Q68.765 940.354 68.765 933.248 Q68.765 926.118 66.9363 922.576 Q65.1307 919.012 61.4965 919.012 M61.4965 915.308 Q67.3067 915.308 70.3622 919.914 Q73.4409 924.498 73.4409 933.248 Q73.4409 941.974 70.3622 946.581 Q67.3067 951.164 61.4965 951.164 Q55.6864 951.164 52.6077 946.581 Q49.5521 941.974 49.5521 933.248 Q49.5521 924.498 52.6077 919.914 Q55.6864 915.308 61.4965 915.308 Z" fill="#000000" fill-rule="evenodd" fill-opacity="1" /><path clip-path="url(#clip300)" d="M81.6584 944.613 L86.5427 944.613 L86.5427 950.493 L81.6584 950.493 L81.6584 944.613 Z" fill="#000000" fill-rule="evenodd" fill-opacity="1" /><path clip-path="url(#clip300)" d="M96.7741 915.933 L115.13 915.933 L115.13 919.868 L101.056 919.868 L101.056 928.34 Q102.075 927.993 103.094 927.831 Q104.112 927.646 105.131 927.646 Q110.918 927.646 114.297 930.817 Q117.677 933.988 117.677 939.405 Q117.677 944.984 114.205 948.086 Q110.732 951.164 104.413 951.164 Q102.237 951.164 99.9685 950.794 Q97.7232 950.424 95.3158 949.683 L95.3158 944.984 Q97.3991 946.118 99.6213 946.674 Q101.844 947.229 104.32 947.229 Q108.325 947.229 110.663 945.123 Q113.001 943.016 113.001 939.405 Q113.001 935.794 110.663 933.687 Q108.325 931.581 104.32 931.581 Q102.445 931.581 100.57 931.998 Q98.7185 932.414 96.7741 933.294 L96.7741 915.933 Z" fill="#000000" fill-rule="evenodd" fill-opacity="1" /><path clip-path="url(#clip300)" d="M136.89 919.012 Q133.279 919.012 131.45 922.576 Q129.644 926.118 129.644 933.248 Q129.644 940.354 131.45 943.919 Q133.279 947.461 136.89 947.461 Q140.524 947.461 142.329 943.919 Q144.158 940.354 144.158 933.248 Q144.158 926.118 142.329 922.576 Q140.524 919.012 136.89 919.012 M136.89 915.308 Q142.7 915.308 145.755 919.914 Q148.834 924.498 148.834 933.248 Q148.834 941.974 145.755 946.581 Q142.7 951.164 136.89 951.164 Q131.079 951.164 128.001 946.581 Q124.945 941.974 124.945 933.248 Q124.945 924.498 128.001 919.914 Q131.079 915.308 136.89 915.308 Z" fill="#000000" fill-rule="evenodd" fill-opacity="1" /><path clip-path="url(#clip300)" d="M62.4919 500.75 Q58.8808 500.75 57.0521 504.314 Q55.2465 507.856 55.2465 514.986 Q55.2465 522.092 57.0521 525.657 Q58.8808 529.199 62.4919 529.199 Q66.1261 529.199 67.9317 525.657 Q69.7604 522.092 69.7604 514.986 Q69.7604 507.856 67.9317 504.314 Q66.1261 500.75 62.4919 500.75 M62.4919 497.046 Q68.302 497.046 71.3576 501.652 Q74.4363 506.236 74.4363 514.986 Q74.4363 523.713 71.3576 528.319 Q68.302 532.902 62.4919 532.902 Q56.6817 532.902 53.603 528.319 Q50.5475 523.713 50.5475 514.986 Q50.5475 506.236 53.603 501.652 Q56.6817 497.046 62.4919 497.046 Z" fill="#000000" fill-rule="evenodd" fill-opacity="1" /><path clip-path="url(#clip300)" d="M82.6538 526.351 L87.538 526.351 L87.538 532.231 L82.6538 532.231 L82.6538 526.351 Z" fill="#000000" fill-rule="evenodd" fill-opacity="1" /><path clip-path="url(#clip300)" d="M96.5426 497.671 L118.765 497.671 L118.765 499.662 L106.218 532.231 L101.334 532.231 L113.14 501.606 L96.5426 501.606 L96.5426 497.671 Z" fill="#000000" fill-rule="evenodd" fill-opacity="1" /><path clip-path="url(#clip300)" d="M127.931 497.671 L146.288 497.671 L146.288 501.606 L132.214 501.606 L132.214 510.078 Q133.232 509.731 134.251 509.569 Q135.269 509.384 136.288 509.384 Q142.075 509.384 145.454 512.555 Q148.834 515.726 148.834 521.143 Q148.834 526.722 145.362 529.824 Q141.89 532.902 135.57 532.902 Q133.394 532.902 131.126 532.532 Q128.88 532.162 126.473 531.421 L126.473 526.722 Q128.556 527.856 130.779 528.412 Q133.001 528.967 135.478 528.967 Q139.482 528.967 141.82 526.861 Q144.158 524.754 144.158 521.143 Q144.158 517.532 141.82 515.426 Q139.482 513.319 135.478 513.319 Q133.603 513.319 131.728 513.736 Q129.876 514.152 127.931 515.032 L127.931 497.671 Z" fill="#000000" fill-rule="evenodd" fill-opacity="1" /><path clip-path="url(#clip300)" d="M52.3067 110.034 L59.9456 110.034 L59.9456 83.6683 L51.6354 85.335 L51.6354 81.0757 L59.8993 79.4091 L64.5752 79.4091 L64.5752 110.034 L72.214 110.034 L72.214 113.969 L52.3067 113.969 L52.3067 110.034 Z" fill="#000000" fill-rule="evenodd" fill-opacity="1" /><path clip-path="url(#clip300)" d="M81.6584 108.089 L86.5427 108.089 L86.5427 113.969 L81.6584 113.969 L81.6584 108.089 Z" fill="#000000" fill-rule="evenodd" fill-opacity="1" /><path clip-path="url(#clip300)" d="M106.728 82.4878 Q103.117 82.4878 101.288 86.0526 Q99.4824 89.5942 99.4824 96.7238 Q99.4824 103.83 101.288 107.395 Q103.117 110.937 106.728 110.937 Q110.362 110.937 112.168 107.395 Q113.996 103.83 113.996 96.7238 Q113.996 89.5942 112.168 86.0526 Q110.362 82.4878 106.728 82.4878 M106.728 78.7841 Q112.538 78.7841 115.593 83.3905 Q118.672 87.9738 118.672 96.7238 Q118.672 105.451 115.593 110.057 Q112.538 114.64 106.728 114.64 Q100.918 114.64 97.8389 110.057 Q94.7834 105.451 94.7834 96.7238 Q94.7834 87.9738 97.8389 83.3905 Q100.918 78.7841 106.728 78.7841 Z" fill="#000000" fill-rule="evenodd" fill-opacity="1" /><path clip-path="url(#clip300)" d="M136.89 82.4878 Q133.279 82.4878 131.45 86.0526 Q129.644 89.5942 129.644 96.7238 Q129.644 103.83 131.45 107.395 Q133.279 110.937 136.89 110.937 Q140.524 110.937 142.329 107.395 Q144.158 103.83 144.158 96.7238 Q144.158 89.5942 142.329 86.0526 Q140.524 82.4878 136.89 82.4878 M136.89 78.7841 Q142.7 78.7841 145.755 83.3905 Q148.834 87.9738 148.834 96.7238 Q148.834 105.451 145.755 110.057 Q142.7 114.64 136.89 114.64 Q131.079 114.64 128.001 110.057 Q124.945 105.451 124.945 96.7238 Q124.945 87.9738 128.001 83.3905 Q131.079 78.7841 136.89 78.7841 Z" fill="#000000" fill-rule="evenodd" fill-opacity="1" /><polyline clip-path="url(#clip302)" style="stroke:#009af9; stroke-linecap:butt; stroke-linejoin:round; stroke-width:4; stroke-opacity:1; fill:none" points="
  258.539,1751.15 269.832,1749.45 281.126,1747.62 385.549,1722.43 489.972,1675.73 521.349,1655.83 552.726,1632.63 584.103,1605.8 615.48,1575 668.538,1513.11 
  721.596,1437.88 779.232,1340.31 836.867,1226.32 890.002,1107.85 943.137,978.725 1000.1,832.177 1057.07,682.487 1123.07,513.7 1189.07,360.633 1218.4,300.648 
  1247.73,246.949 1277.05,200.398 1306.38,161.758 1332.1,134.898 1357.81,114.971 1383.53,102.239 1409.25,96.8724 1437.29,99.4942 1465.32,110.912 1493.36,130.945 
  1521.4,159.279 1549.61,195.712 1577.81,239.536 1606.02,290.083 1634.22,346.599 1696.59,488.612 1758.96,646.252 1818.3,802.006 1877.64,955.69 1939.35,1106.54 
  2001.05,1243.1 2052.99,1344.54 2104.93,1432.61 2168.34,1521.98 2231.76,1592.52 2291.37,1643.55 2350.98,1682.01 2446.48,1723.12 2541.98,1746.44 2556.67,1748.91 
  2571.37,1751.15 
  "/>
<path clip-path="url(#clip300)" d="
M2234.21 209.375 L2559.04 209.375 L2559.04 105.695 L2234.21 105.695  Z
  " fill="#ffffff" fill-rule="evenodd" fill-opacity="1"/>
<polyline clip-path="url(#clip300)" style="stroke:#000000; stroke-linecap:butt; stroke-linejoin:round; stroke-width:4; stroke-opacity:1; fill:none" points="
  2234.21,209.375 2559.04,209.375 2559.04,105.695 2234.21,105.695 2234.21,209.375 
  "/>
<polyline clip-path="url(#clip300)" style="stroke:#009af9; stroke-linecap:butt; stroke-linejoin:round; stroke-width:4; stroke-opacity:1; fill:none" points="
  2261.45,157.535 2424.89,157.535 
  "/>
<path clip-path="url(#clip300)" d="M2465.97 177.223 Q2464.16 181.852 2462.45 183.264 Q2460.74 184.676 2457.87 184.676 L2454.46 184.676 L2454.46 181.112 L2456.96 181.112 Q2458.72 181.112 2459.69 180.278 Q2460.67 179.445 2461.85 176.343 L2462.61 174.399 L2452.13 148.889 L2456.64 148.889 L2464.74 169.167 L2472.84 148.889 L2477.36 148.889 L2465.97 177.223 Z" fill="#000000" fill-rule="evenodd" fill-opacity="1" /><path clip-path="url(#clip300)" d="M2484.65 170.88 L2492.29 170.88 L2492.29 144.515 L2483.98 146.181 L2483.98 141.922 L2492.24 140.255 L2496.92 140.255 L2496.92 170.88 L2504.56 170.88 L2504.56 174.815 L2484.65 174.815 L2484.65 170.88 Z" fill="#000000" fill-rule="evenodd" fill-opacity="1" /></svg>
