<?xml version="1.0" encoding="utf-8"?>
<svg xmlns="http://www.w3.org/2000/svg" xmlns:xlink="http://www.w3.org/1999/xlink" width="672" height="480" viewBox="0 0 2688 1920">
<defs>
  <clipPath id="clip110">
    <rect x="0" y="0" width="2688" height="1920"/>
  </clipPath>
</defs>
<path clip-path="url(#clip110)" d="
M0 1920 L2688 1920 L2688 0 L0 0  Z
  " fill="#ffffff" fill-rule="evenodd" fill-opacity="1"/>
<defs>
  <clipPath id="clip111">
    <rect x="537" y="0" width="1883" height="1883"/>
  </clipPath>
</defs>
<path clip-path="url(#clip110)" d="
M188.807 1800.78 L2640.76 1800.78 L2640.76 47.2441 L188.807 47.2441  Z
  " fill="#ffffff" fill-rule="evenodd" fill-opacity="1"/>
<defs>
  <clipPath id="clip112">
    <rect x="188" y="47" width="2453" height="1755"/>
  </clipPath>
</defs>
<polyline clip-path="url(#clip112)" style="stroke:#000000; stroke-linecap:butt; stroke-linejoin:round; stroke-width:2; stroke-opacity:0.1; fill:none" points="
  496.476,1800.78 496.476,47.2441 
  "/>
<polyline clip-path="url(#clip112)" style="stroke:#000000; stroke-linecap:butt; stroke-linejoin:round; stroke-width:2; stroke-opacity:0.1; fill:none" points="
  973.025,1800.78 973.025,47.2441 
  "/>
<polyline clip-path="url(#clip112)" style="stroke:#000000; stroke-linecap:butt; stroke-linejoin:round; stroke-width:2; stroke-opacity:0.1; fill:none" points="
  1449.57,1800.78 1449.57,47.2441 
  "/>
<polyline clip-path="url(#clip112)" style="stroke:#000000; stroke-linecap:butt; stroke-linejoin:round; stroke-width:2; stroke-opacity:0.1; fill:none" points="
  1926.12,1800.78 1926.12,47.2441 
  "/>
<polyline clip-path="url(#clip112)" style="stroke:#000000; stroke-linecap:butt; stroke-linejoin:round; stroke-width:2; stroke-opacity:0.1; fill:none" points="
  2402.67,1800.78 2402.67,47.2441 
  "/>
<polyline clip-path="url(#clip110)" style="stroke:#000000; stroke-linecap:butt; stroke-linejoin:round; stroke-width:4; stroke-opacity:1; fill:none" points="
  188.807,1800.78 2640.76,1800.78 
  "/>
<polyline clip-path="url(#clip110)" style="stroke:#000000; stroke-linecap:butt; stroke-linejoin:round; stroke-width:4; stroke-opacity:1; fill:none" points="
  496.476,1800.78 496.476,1781.88 
  "/>
<polyline clip-path="url(#clip110)" style="stroke:#000000; stroke-linecap:butt; stroke-linejoin:round; stroke-width:4; stroke-opacity:1; fill:none" points="
  973.025,1800.78 973.025,1781.88 
  "/>
<polyline clip-path="url(#clip110)" style="stroke:#000000; stroke-linecap:butt; stroke-linejoin:round; stroke-width:4; stroke-opacity:1; fill:none" points="
  1449.57,1800.78 1449.57,1781.88 
  "/>
<polyline clip-path="url(#clip110)" style="stroke:#000000; stroke-linecap:butt; stroke-linejoin:round; stroke-width:4; stroke-opacity:1; fill:none" points="
  1926.12,1800.78 1926.12,1781.88 
  "/>
<polyline clip-path="url(#clip110)" style="stroke:#000000; stroke-linecap:butt; stroke-linejoin:round; stroke-width:4; stroke-opacity:1; fill:none" points="
  2402.67,1800.78 2402.67,1781.88 
  "/>
<path clip-path="url(#clip110)" d="M473.617 1834 Q470.006 1834 468.178 1837.57 Q466.372 1841.11 466.372 1848.24 Q466.372 1855.34 468.178 1858.91 Q470.006 1862.45 473.617 1862.45 Q477.252 1862.45 479.057 1858.91 Q480.886 1855.34 480.886 1848.24 Q480.886 1841.11 479.057 1837.57 Q477.252 1834 473.617 1834 M473.617 1830.3 Q479.427 1830.3 482.483 1834.9 Q485.562 1839.49 485.562 1848.24 Q485.562 1856.96 482.483 1861.57 Q479.427 1866.15 473.617 1866.15 Q467.807 1866.15 464.728 1861.57 Q461.673 1856.96 461.673 1848.24 Q461.673 1839.49 464.728 1834.9 Q467.807 1830.3 473.617 1830.3 Z" fill="#000000" fill-rule="evenodd" fill-opacity="1" /><path clip-path="url(#clip110)" d="M493.779 1859.6 L498.663 1859.6 L498.663 1865.48 L493.779 1865.48 L493.779 1859.6 Z" fill="#000000" fill-rule="evenodd" fill-opacity="1" /><path clip-path="url(#clip110)" d="M521.696 1835 L509.89 1853.45 L521.696 1853.45 L521.696 1835 M520.469 1830.92 L526.349 1830.92 L526.349 1853.45 L531.279 1853.45 L531.279 1857.34 L526.349 1857.34 L526.349 1865.48 L521.696 1865.48 L521.696 1857.34 L506.094 1857.34 L506.094 1852.82 L520.469 1830.92 Z" fill="#000000" fill-rule="evenodd" fill-opacity="1" /><path clip-path="url(#clip110)" d="M950.328 1834 Q946.717 1834 944.888 1837.57 Q943.083 1841.11 943.083 1848.24 Q943.083 1855.34 944.888 1858.91 Q946.717 1862.45 950.328 1862.45 Q953.963 1862.45 955.768 1858.91 Q957.597 1855.34 957.597 1848.24 Q957.597 1841.11 955.768 1837.57 Q953.963 1834 950.328 1834 M950.328 1830.3 Q956.138 1830.3 959.194 1834.9 Q962.273 1839.49 962.273 1848.24 Q962.273 1856.96 959.194 1861.57 Q956.138 1866.15 950.328 1866.15 Q944.518 1866.15 941.439 1861.57 Q938.384 1856.96 938.384 1848.24 Q938.384 1839.49 941.439 1834.9 Q944.518 1830.3 950.328 1830.3 Z" fill="#000000" fill-rule="evenodd" fill-opacity="1" /><path clip-path="url(#clip110)" d="M970.49 1859.6 L975.374 1859.6 L975.374 1865.48 L970.49 1865.48 L970.49 1859.6 Z" fill="#000000" fill-rule="evenodd" fill-opacity="1" /><path clip-path="url(#clip110)" d="M996.138 1846.34 Q992.99 1846.34 991.138 1848.49 Q989.31 1850.65 989.31 1854.4 Q989.31 1858.12 991.138 1860.3 Q992.99 1862.45 996.138 1862.45 Q999.286 1862.45 1001.12 1860.3 Q1002.97 1858.12 1002.97 1854.4 Q1002.97 1850.65 1001.12 1848.49 Q999.286 1846.34 996.138 1846.34 M1005.42 1831.69 L1005.42 1835.95 Q1003.66 1835.11 1001.86 1834.67 Q1000.07 1834.23 998.314 1834.23 Q993.685 1834.23 991.231 1837.36 Q988.8 1840.48 988.453 1846.8 Q989.819 1844.79 991.879 1843.72 Q993.939 1842.64 996.416 1842.64 Q1001.62 1842.64 1004.63 1845.81 Q1007.67 1848.96 1007.67 1854.4 Q1007.67 1859.72 1004.52 1862.94 Q1001.37 1866.15 996.138 1866.15 Q990.143 1866.15 986.972 1861.57 Q983.8 1856.96 983.8 1848.24 Q983.8 1840.04 987.689 1835.18 Q991.578 1830.3 998.129 1830.3 Q999.888 1830.3 1001.67 1830.65 Q1003.48 1830.99 1005.42 1831.69 Z" fill="#000000" fill-rule="evenodd" fill-opacity="1" /><path clip-path="url(#clip110)" d="M1427 1834 Q1423.39 1834 1421.56 1837.57 Q1419.76 1841.11 1419.76 1848.24 Q1419.76 1855.34 1421.56 1858.91 Q1423.39 1862.45 1427 1862.45 Q1430.64 1862.45 1432.44 1858.91 Q1434.27 1855.34 1434.27 1848.24 Q1434.27 1841.11 1432.44 1837.57 Q1430.64 1834 1427 1834 M1427 1830.3 Q1432.81 1830.3 1435.87 1834.9 Q1438.95 1839.49 1438.95 1848.24 Q1438.95 1856.96 1435.87 1861.57 Q1432.81 1866.15 1427 1866.15 Q1421.19 1866.15 1418.12 1861.57 Q1415.06 1856.96 1415.06 1848.24 Q1415.06 1839.49 1418.12 1834.9 Q1421.19 1830.3 1427 1830.3 Z" fill="#000000" fill-rule="evenodd" fill-opacity="1" /><path clip-path="url(#clip110)" d="M1447.17 1859.6 L1452.05 1859.6 L1452.05 1865.48 L1447.17 1865.48 L1447.17 1859.6 Z" fill="#000000" fill-rule="evenodd" fill-opacity="1" /><path clip-path="url(#clip110)" d="M1472.24 1849.07 Q1468.9 1849.07 1466.98 1850.85 Q1465.08 1852.64 1465.08 1855.76 Q1465.08 1858.89 1466.98 1860.67 Q1468.9 1862.45 1472.24 1862.45 Q1475.57 1862.45 1477.49 1860.67 Q1479.41 1858.86 1479.41 1855.76 Q1479.41 1852.64 1477.49 1850.85 Q1475.59 1849.07 1472.24 1849.07 M1467.56 1847.08 Q1464.55 1846.34 1462.86 1844.28 Q1461.19 1842.22 1461.19 1839.26 Q1461.19 1835.11 1464.13 1832.71 Q1467.1 1830.3 1472.24 1830.3 Q1477.4 1830.3 1480.34 1832.71 Q1483.28 1835.11 1483.28 1839.26 Q1483.28 1842.22 1481.59 1844.28 Q1479.92 1846.34 1476.93 1847.08 Q1480.31 1847.87 1482.19 1850.16 Q1484.09 1852.45 1484.09 1855.76 Q1484.09 1860.78 1481.01 1863.47 Q1477.95 1866.15 1472.24 1866.15 Q1466.52 1866.15 1463.44 1863.47 Q1460.38 1860.78 1460.38 1855.76 Q1460.38 1852.45 1462.28 1850.16 Q1464.18 1847.87 1467.56 1847.08 M1465.85 1839.7 Q1465.85 1842.38 1467.51 1843.89 Q1469.2 1845.39 1472.24 1845.39 Q1475.24 1845.39 1476.93 1843.89 Q1478.65 1842.38 1478.65 1839.7 Q1478.65 1837.01 1476.93 1835.51 Q1475.24 1834 1472.24 1834 Q1469.2 1834 1467.51 1835.51 Q1465.85 1837.01 1465.85 1839.7 Z" fill="#000000" fill-rule="evenodd" fill-opacity="1" /><path clip-path="url(#clip110)" d="M1893.28 1861.55 L1900.91 1861.55 L1900.91 1835.18 L1892.6 1836.85 L1892.6 1832.59 L1900.87 1830.92 L1905.54 1830.92 L1905.54 1861.55 L1913.18 1861.55 L1913.18 1865.48 L1893.28 1865.48 L1893.28 1861.55 Z" fill="#000000" fill-rule="evenodd" fill-opacity="1" /><path clip-path="url(#clip110)" d="M1922.63 1859.6 L1927.51 1859.6 L1927.51 1865.48 L1922.63 1865.48 L1922.63 1859.6 Z" fill="#000000" fill-rule="evenodd" fill-opacity="1" /><path clip-path="url(#clip110)" d="M1947.7 1834 Q1944.09 1834 1942.26 1837.57 Q1940.45 1841.11 1940.45 1848.24 Q1940.45 1855.34 1942.26 1858.91 Q1944.09 1862.45 1947.7 1862.45 Q1951.33 1862.45 1953.14 1858.91 Q1954.97 1855.34 1954.97 1848.24 Q1954.97 1841.11 1953.14 1837.57 Q1951.33 1834 1947.7 1834 M1947.7 1830.3 Q1953.51 1830.3 1956.56 1834.9 Q1959.64 1839.49 1959.64 1848.24 Q1959.64 1856.96 1956.56 1861.57 Q1953.51 1866.15 1947.7 1866.15 Q1941.89 1866.15 1938.81 1861.57 Q1935.75 1856.96 1935.75 1848.24 Q1935.75 1839.49 1938.81 1834.9 Q1941.89 1830.3 1947.7 1830.3 Z" fill="#000000" fill-rule="evenodd" fill-opacity="1" /><path clip-path="url(#clip110)" d="M2370.62 1861.55 L2378.26 1861.55 L2378.26 1835.18 L2369.95 1836.85 L2369.95 1832.59 L2378.22 1830.92 L2382.89 1830.92 L2382.89 1861.55 L2390.53 1861.55 L2390.53 1865.48 L2370.62 1865.48 L2370.62 1861.55 Z" fill="#000000" fill-rule="evenodd" fill-opacity="1" /><path clip-path="url(#clip110)" d="M2399.97 1859.6 L2404.86 1859.6 L2404.86 1865.48 L2399.97 1865.48 L2399.97 1859.6 Z" fill="#000000" fill-rule="evenodd" fill-opacity="1" /><path clip-path="url(#clip110)" d="M2419.07 1861.55 L2435.39 1861.55 L2435.39 1865.48 L2413.45 1865.48 L2413.45 1861.55 Q2416.11 1858.79 2420.69 1854.16 Q2425.3 1849.51 2426.48 1848.17 Q2428.72 1845.65 2429.6 1843.91 Q2430.51 1842.15 2430.51 1840.46 Q2430.51 1837.71 2428.56 1835.97 Q2426.64 1834.23 2423.54 1834.23 Q2421.34 1834.23 2418.89 1835 Q2416.46 1835.76 2413.68 1837.31 L2413.68 1832.59 Q2416.5 1831.46 2418.96 1830.88 Q2421.41 1830.3 2423.45 1830.3 Q2428.82 1830.3 2432.01 1832.98 Q2435.21 1835.67 2435.21 1840.16 Q2435.21 1842.29 2434.4 1844.21 Q2433.61 1846.11 2431.5 1848.7 Q2430.92 1849.37 2427.82 1852.59 Q2424.72 1855.78 2419.07 1861.55 Z" fill="#000000" fill-rule="evenodd" fill-opacity="1" /><polyline clip-path="url(#clip112)" style="stroke:#000000; stroke-linecap:butt; stroke-linejoin:round; stroke-width:2; stroke-opacity:0.1; fill:none" points="
  188.807,1599.33 2640.76,1599.33 
  "/>
<polyline clip-path="url(#clip112)" style="stroke:#000000; stroke-linecap:butt; stroke-linejoin:round; stroke-width:2; stroke-opacity:0.1; fill:none" points="
  188.807,1372.68 2640.76,1372.68 
  "/>
<polyline clip-path="url(#clip112)" style="stroke:#000000; stroke-linecap:butt; stroke-linejoin:round; stroke-width:2; stroke-opacity:0.1; fill:none" points="
  188.807,1146.03 2640.76,1146.03 
  "/>
<polyline clip-path="url(#clip112)" style="stroke:#000000; stroke-linecap:butt; stroke-linejoin:round; stroke-width:2; stroke-opacity:0.1; fill:none" points="
  188.807,919.377 2640.76,919.377 
  "/>
<polyline clip-path="url(#clip112)" style="stroke:#000000; stroke-linecap:butt; stroke-linejoin:round; stroke-width:2; stroke-opacity:0.1; fill:none" points="
  188.807,692.726 2640.76,692.726 
  "/>
<polyline clip-path="url(#clip112)" style="stroke:#000000; stroke-linecap:butt; stroke-linejoin:round; stroke-width:2; stroke-opacity:0.1; fill:none" points="
  188.807,466.076 2640.76,466.076 
  "/>
<polyline clip-path="url(#clip112)" style="stroke:#000000; stroke-linecap:butt; stroke-linejoin:round; stroke-width:2; stroke-opacity:0.1; fill:none" points="
  188.807,239.426 2640.76,239.426 
  "/>
<polyline clip-path="url(#clip110)" style="stroke:#000000; stroke-linecap:butt; stroke-linejoin:round; stroke-width:4; stroke-opacity:1; fill:none" points="
  188.807,1800.78 188.807,47.2441 
  "/>
<polyline clip-path="url(#clip110)" style="stroke:#000000; stroke-linecap:butt; stroke-linejoin:round; stroke-width:4; stroke-opacity:1; fill:none" points="
  188.807,1599.33 207.704,1599.33 
  "/>
<polyline clip-path="url(#clip110)" style="stroke:#000000; stroke-linecap:butt; stroke-linejoin:round; stroke-width:4; stroke-opacity:1; fill:none" points="
  188.807,1372.68 207.704,1372.68 
  "/>
<polyline clip-path="url(#clip110)" style="stroke:#000000; stroke-linecap:butt; stroke-linejoin:round; stroke-width:4; stroke-opacity:1; fill:none" points="
  188.807,1146.03 207.704,1146.03 
  "/>
<polyline clip-path="url(#clip110)" style="stroke:#000000; stroke-linecap:butt; stroke-linejoin:round; stroke-width:4; stroke-opacity:1; fill:none" points="
  188.807,919.377 207.704,919.377 
  "/>
<polyline clip-path="url(#clip110)" style="stroke:#000000; stroke-linecap:butt; stroke-linejoin:round; stroke-width:4; stroke-opacity:1; fill:none" points="
  188.807,692.726 207.704,692.726 
  "/>
<polyline clip-path="url(#clip110)" style="stroke:#000000; stroke-linecap:butt; stroke-linejoin:round; stroke-width:4; stroke-opacity:1; fill:none" points="
  188.807,466.076 207.704,466.076 
  "/>
<polyline clip-path="url(#clip110)" style="stroke:#000000; stroke-linecap:butt; stroke-linejoin:round; stroke-width:4; stroke-opacity:1; fill:none" points="
  188.807,239.426 207.704,239.426 
  "/>
<path clip-path="url(#clip110)" d="M56.1725 1612.67 L72.4918 1612.67 L72.4918 1616.61 L50.5475 1616.61 L50.5475 1612.67 Q53.2095 1609.92 57.7928 1605.29 Q62.3993 1600.64 63.5798 1599.29 Q65.8252 1596.77 66.7048 1595.03 Q67.6076 1593.27 67.6076 1591.58 Q67.6076 1588.83 65.6632 1587.09 Q63.7419 1585.36 60.64 1585.36 Q58.441 1585.36 55.9873 1586.12 Q53.5567 1586.89 50.779 1588.44 L50.779 1583.71 Q53.603 1582.58 56.0567 1582 Q58.5104 1581.42 60.5474 1581.42 Q65.9178 1581.42 69.1122 1584.11 Q72.3066 1586.79 72.3066 1591.28 Q72.3066 1593.41 71.4965 1595.33 Q70.7094 1597.23 68.6029 1599.83 Q68.0242 1600.5 64.9224 1603.71 Q61.8206 1606.91 56.1725 1612.67 Z" fill="#000000" fill-rule="evenodd" fill-opacity="1" /><path clip-path="url(#clip110)" d="M86.3343 1612.67 L102.654 1612.67 L102.654 1616.61 L80.7094 1616.61 L80.7094 1612.67 Q83.3714 1609.92 87.9547 1605.29 Q92.5612 1600.64 93.7417 1599.29 Q95.9871 1596.77 96.8667 1595.03 Q97.7695 1593.27 97.7695 1591.58 Q97.7695 1588.83 95.825 1587.09 Q93.9037 1585.36 90.8019 1585.36 Q88.6028 1585.36 86.1492 1586.12 Q83.7186 1586.89 80.9408 1588.44 L80.9408 1583.71 Q83.7649 1582.58 86.2186 1582 Q88.6723 1581.42 90.7093 1581.42 Q96.0797 1581.42 99.2741 1584.11 Q102.469 1586.79 102.469 1591.28 Q102.469 1593.41 101.658 1595.33 Q100.871 1597.23 98.7648 1599.83 Q98.1861 1600.5 95.0843 1603.71 Q91.9825 1606.91 86.3343 1612.67 Z" fill="#000000" fill-rule="evenodd" fill-opacity="1" /><path clip-path="url(#clip110)" d="M112.468 1610.73 L117.353 1610.73 L117.353 1616.61 L112.468 1616.61 L112.468 1610.73 Z" fill="#000000" fill-rule="evenodd" fill-opacity="1" /><path clip-path="url(#clip110)" d="M127.584 1582.05 L145.94 1582.05 L145.94 1585.98 L131.866 1585.98 L131.866 1594.46 Q132.885 1594.11 133.904 1593.95 Q134.922 1593.76 135.941 1593.76 Q141.728 1593.76 145.107 1596.93 Q148.487 1600.1 148.487 1605.52 Q148.487 1611.1 145.015 1614.2 Q141.542 1617.28 135.223 1617.28 Q133.047 1617.28 130.779 1616.91 Q128.533 1616.54 126.126 1615.8 L126.126 1611.1 Q128.209 1612.23 130.431 1612.79 Q132.654 1613.34 135.13 1613.34 Q139.135 1613.34 141.473 1611.24 Q143.811 1609.13 143.811 1605.52 Q143.811 1601.91 141.473 1599.8 Q139.135 1597.7 135.13 1597.7 Q133.255 1597.7 131.38 1598.11 Q129.529 1598.53 127.584 1599.41 L127.584 1582.05 Z" fill="#000000" fill-rule="evenodd" fill-opacity="1" /><path clip-path="url(#clip110)" d="M55.1771 1386.02 L71.4965 1386.02 L71.4965 1389.96 L49.5521 1389.96 L49.5521 1386.02 Q52.2141 1383.27 56.7975 1378.64 Q61.4039 1373.99 62.5845 1372.64 Q64.8298 1370.12 65.7094 1368.38 Q66.6122 1366.62 66.6122 1364.93 Q66.6122 1362.18 64.6678 1360.44 Q62.7465 1358.71 59.6447 1358.71 Q57.4456 1358.71 54.9919 1359.47 Q52.5614 1360.24 49.7836 1361.79 L49.7836 1357.06 Q52.6077 1355.93 55.0614 1355.35 Q57.515 1354.77 59.5521 1354.77 Q64.9224 1354.77 68.1168 1357.46 Q71.3113 1360.14 71.3113 1364.63 Q71.3113 1366.76 70.5011 1368.68 Q69.7141 1370.58 67.6076 1373.18 Q67.0289 1373.85 63.927 1377.06 Q60.8252 1380.26 55.1771 1386.02 Z" fill="#000000" fill-rule="evenodd" fill-opacity="1" /><path clip-path="url(#clip110)" d="M81.3575 1355.4 L99.7139 1355.4 L99.7139 1359.33 L85.6399 1359.33 L85.6399 1367.8 Q86.6584 1367.46 87.6769 1367.3 Q88.6954 1367.11 89.7139 1367.11 Q95.501 1367.11 98.8806 1370.28 Q102.26 1373.45 102.26 1378.87 Q102.26 1384.45 98.788 1387.55 Q95.3158 1390.63 88.9964 1390.63 Q86.8204 1390.63 84.5519 1390.26 Q82.3066 1389.89 79.8992 1389.15 L79.8992 1384.45 Q81.9825 1385.58 84.2047 1386.14 Q86.4269 1386.69 88.9038 1386.69 Q92.9084 1386.69 95.2463 1384.59 Q97.5843 1382.48 97.5843 1378.87 Q97.5843 1375.26 95.2463 1373.15 Q92.9084 1371.05 88.9038 1371.05 Q87.0288 1371.05 85.1538 1371.46 Q83.3019 1371.88 81.3575 1372.76 L81.3575 1355.4 Z" fill="#000000" fill-rule="evenodd" fill-opacity="1" /><path clip-path="url(#clip110)" d="M111.473 1384.08 L116.357 1384.08 L116.357 1389.96 L111.473 1389.96 L111.473 1384.08 Z" fill="#000000" fill-rule="evenodd" fill-opacity="1" /><path clip-path="url(#clip110)" d="M136.542 1358.48 Q132.931 1358.48 131.103 1362.04 Q129.297 1365.58 129.297 1372.71 Q129.297 1379.82 131.103 1383.38 Q132.931 1386.93 136.542 1386.93 Q140.177 1386.93 141.982 1383.38 Q143.811 1379.82 143.811 1372.71 Q143.811 1365.58 141.982 1362.04 Q140.177 1358.48 136.542 1358.48 M136.542 1354.77 Q142.353 1354.77 145.408 1359.38 Q148.487 1363.96 148.487 1372.71 Q148.487 1381.44 145.408 1386.05 Q142.353 1390.63 136.542 1390.63 Q130.732 1390.63 127.654 1386.05 Q124.598 1381.44 124.598 1372.71 Q124.598 1363.96 127.654 1359.38 Q130.732 1354.77 136.542 1354.77 Z" fill="#000000" fill-rule="evenodd" fill-opacity="1" /><path clip-path="url(#clip110)" d="M56.1725 1159.37 L72.4918 1159.37 L72.4918 1163.31 L50.5475 1163.31 L50.5475 1159.37 Q53.2095 1156.62 57.7928 1151.99 Q62.3993 1147.34 63.5798 1145.99 Q65.8252 1143.47 66.7048 1141.73 Q67.6076 1139.97 67.6076 1138.28 Q67.6076 1135.53 65.6632 1133.79 Q63.7419 1132.06 60.64 1132.06 Q58.441 1132.06 55.9873 1132.82 Q53.5567 1133.59 50.779 1135.14 L50.779 1130.41 Q53.603 1129.28 56.0567 1128.7 Q58.5104 1128.12 60.5474 1128.12 Q65.9178 1128.12 69.1122 1130.81 Q72.3066 1133.49 72.3066 1137.98 Q72.3066 1140.11 71.4965 1142.03 Q70.7094 1143.93 68.6029 1146.52 Q68.0242 1147.2 64.9224 1150.41 Q61.8206 1153.61 56.1725 1159.37 Z" fill="#000000" fill-rule="evenodd" fill-opacity="1" /><path clip-path="url(#clip110)" d="M81.126 1128.75 L103.348 1128.75 L103.348 1130.74 L90.8019 1163.31 L85.9177 1163.31 L97.7232 1132.68 L81.126 1132.68 L81.126 1128.75 Z" fill="#000000" fill-rule="evenodd" fill-opacity="1" /><path clip-path="url(#clip110)" d="M112.468 1157.43 L117.353 1157.43 L117.353 1163.31 L112.468 1163.31 L112.468 1157.43 Z" fill="#000000" fill-rule="evenodd" fill-opacity="1" /><path clip-path="url(#clip110)" d="M127.584 1128.75 L145.94 1128.75 L145.94 1132.68 L131.866 1132.68 L131.866 1141.15 Q132.885 1140.81 133.904 1140.65 Q134.922 1140.46 135.941 1140.46 Q141.728 1140.46 145.107 1143.63 Q148.487 1146.8 148.487 1152.22 Q148.487 1157.8 145.015 1160.9 Q141.542 1163.98 135.223 1163.98 Q133.047 1163.98 130.779 1163.61 Q128.533 1163.24 126.126 1162.5 L126.126 1157.8 Q128.209 1158.93 130.431 1159.49 Q132.654 1160.04 135.13 1160.04 Q139.135 1160.04 141.473 1157.94 Q143.811 1155.83 143.811 1152.22 Q143.811 1148.61 141.473 1146.5 Q139.135 1144.4 135.13 1144.4 Q133.255 1144.4 131.38 1144.81 Q129.529 1145.23 127.584 1146.11 L127.584 1128.75 Z" fill="#000000" fill-rule="evenodd" fill-opacity="1" /><path clip-path="url(#clip110)" d="M65.3159 918.023 Q68.6724 918.74 70.5474 921.009 Q72.4455 923.277 72.4455 926.611 Q72.4455 931.726 68.927 934.527 Q65.4085 937.328 58.9271 937.328 Q56.7512 937.328 54.4364 936.888 Q52.1447 936.472 49.691 935.615 L49.691 931.101 Q51.6354 932.236 53.9503 932.814 Q56.2651 933.393 58.7882 933.393 Q63.1863 933.393 65.478 931.657 Q67.7928 929.921 67.7928 926.611 Q67.7928 923.555 65.64 921.842 Q63.5104 920.106 59.691 920.106 L55.6632 920.106 L55.6632 916.263 L59.8761 916.263 Q63.3252 916.263 65.1539 914.898 Q66.9826 913.509 66.9826 910.916 Q66.9826 908.254 65.0845 906.842 Q63.2095 905.407 59.691 905.407 Q57.7697 905.407 55.5706 905.824 Q53.3715 906.24 50.7327 907.12 L50.7327 902.953 Q53.3947 902.213 55.7095 901.842 Q58.0475 901.472 60.1076 901.472 Q65.4317 901.472 68.5335 903.902 Q71.6353 906.31 71.6353 910.43 Q71.6353 913.3 69.9918 915.291 Q68.3483 917.259 65.3159 918.023 Z" fill="#000000" fill-rule="evenodd" fill-opacity="1" /><path clip-path="url(#clip110)" d="M91.3112 905.175 Q87.7001 905.175 85.8714 908.74 Q84.0658 912.282 84.0658 919.412 Q84.0658 926.518 85.8714 930.083 Q87.7001 933.624 91.3112 933.624 Q94.9454 933.624 96.7509 930.083 Q98.5796 926.518 98.5796 919.412 Q98.5796 912.282 96.7509 908.74 Q94.9454 905.175 91.3112 905.175 M91.3112 901.472 Q97.1213 901.472 100.177 906.078 Q103.256 910.662 103.256 919.412 Q103.256 928.138 100.177 932.745 Q97.1213 937.328 91.3112 937.328 Q85.501 937.328 82.4223 932.745 Q79.3668 928.138 79.3668 919.412 Q79.3668 910.662 82.4223 906.078 Q85.501 901.472 91.3112 901.472 Z" fill="#000000" fill-rule="evenodd" fill-opacity="1" /><path clip-path="url(#clip110)" d="M111.473 930.777 L116.357 930.777 L116.357 936.657 L111.473 936.657 L111.473 930.777 Z" fill="#000000" fill-rule="evenodd" fill-opacity="1" /><path clip-path="url(#clip110)" d="M136.542 905.175 Q132.931 905.175 131.103 908.74 Q129.297 912.282 129.297 919.412 Q129.297 926.518 131.103 930.083 Q132.931 933.624 136.542 933.624 Q140.177 933.624 141.982 930.083 Q143.811 926.518 143.811 919.412 Q143.811 912.282 141.982 908.74 Q140.177 905.175 136.542 905.175 M136.542 901.472 Q142.353 901.472 145.408 906.078 Q148.487 910.662 148.487 919.412 Q148.487 928.138 145.408 932.745 Q142.353 937.328 136.542 937.328 Q130.732 937.328 127.654 932.745 Q124.598 928.138 124.598 919.412 Q124.598 910.662 127.654 906.078 Q130.732 901.472 136.542 901.472 Z" fill="#000000" fill-rule="evenodd" fill-opacity="1" /><path clip-path="url(#clip110)" d="M66.3113 691.372 Q69.6678 692.09 71.5427 694.358 Q73.4409 696.627 73.4409 699.96 Q73.4409 705.076 69.9224 707.877 Q66.4039 710.678 59.9224 710.678 Q57.7465 710.678 55.4317 710.238 Q53.1401 709.821 50.6864 708.965 L50.6864 704.451 Q52.6308 705.585 54.9456 706.164 Q57.2604 706.743 59.7836 706.743 Q64.1817 706.743 66.4733 705.006 Q68.7881 703.27 68.7881 699.96 Q68.7881 696.905 66.6354 695.192 Q64.5057 693.456 60.6863 693.456 L56.6586 693.456 L56.6586 689.613 L60.8715 689.613 Q64.3206 689.613 66.1493 688.247 Q67.978 686.858 67.978 684.266 Q67.978 681.604 66.0798 680.192 Q64.2048 678.757 60.6863 678.757 Q58.765 678.757 56.566 679.173 Q54.3669 679.59 51.728 680.47 L51.728 676.303 Q54.3901 675.562 56.7049 675.192 Q59.0428 674.821 61.103 674.821 Q66.427 674.821 69.5289 677.252 Q72.6307 679.659 72.6307 683.78 Q72.6307 686.65 70.9872 688.641 Q69.3437 690.608 66.3113 691.372 Z" fill="#000000" fill-rule="evenodd" fill-opacity="1" /><path clip-path="url(#clip110)" d="M86.3343 706.071 L102.654 706.071 L102.654 710.006 L80.7094 710.006 L80.7094 706.071 Q83.3714 703.317 87.9547 698.687 Q92.5612 694.034 93.7417 692.692 Q95.9871 690.169 96.8667 688.432 Q97.7695 686.673 97.7695 684.983 Q97.7695 682.229 95.825 680.493 Q93.9037 678.757 90.8019 678.757 Q88.6028 678.757 86.1492 679.52 Q83.7186 680.284 80.9408 681.835 L80.9408 677.113 Q83.7649 675.979 86.2186 675.4 Q88.6723 674.821 90.7093 674.821 Q96.0797 674.821 99.2741 677.507 Q102.469 680.192 102.469 684.682 Q102.469 686.812 101.658 688.733 Q100.871 690.632 98.7648 693.224 Q98.1861 693.895 95.0843 697.113 Q91.9825 700.307 86.3343 706.071 Z" fill="#000000" fill-rule="evenodd" fill-opacity="1" /><path clip-path="url(#clip110)" d="M112.468 704.127 L117.353 704.127 L117.353 710.006 L112.468 710.006 L112.468 704.127 Z" fill="#000000" fill-rule="evenodd" fill-opacity="1" /><path clip-path="url(#clip110)" d="M127.584 675.446 L145.94 675.446 L145.94 679.382 L131.866 679.382 L131.866 687.854 Q132.885 687.507 133.904 687.345 Q134.922 687.159 135.941 687.159 Q141.728 687.159 145.107 690.331 Q148.487 693.502 148.487 698.919 Q148.487 704.497 145.015 707.599 Q141.542 710.678 135.223 710.678 Q133.047 710.678 130.779 710.307 Q128.533 709.937 126.126 709.196 L126.126 704.497 Q128.209 705.631 130.431 706.187 Q132.654 706.743 135.13 706.743 Q139.135 706.743 141.473 704.636 Q143.811 702.53 143.811 698.919 Q143.811 695.307 141.473 693.201 Q139.135 691.094 135.13 691.094 Q133.255 691.094 131.38 691.511 Q129.529 691.928 127.584 692.807 L127.584 675.446 Z" fill="#000000" fill-rule="evenodd" fill-opacity="1" /><path clip-path="url(#clip110)" d="M65.3159 464.722 Q68.6724 465.439 70.5474 467.708 Q72.4455 469.977 72.4455 473.31 Q72.4455 478.426 68.927 481.226 Q65.4085 484.027 58.9271 484.027 Q56.7512 484.027 54.4364 483.588 Q52.1447 483.171 49.691 482.314 L49.691 477.801 Q51.6354 478.935 53.9503 479.513 Q56.2651 480.092 58.7882 480.092 Q63.1863 480.092 65.478 478.356 Q67.7928 476.62 67.7928 473.31 Q67.7928 470.254 65.64 468.541 Q63.5104 466.805 59.691 466.805 L55.6632 466.805 L55.6632 462.963 L59.8761 462.963 Q63.3252 462.963 65.1539 461.597 Q66.9826 460.208 66.9826 457.615 Q66.9826 454.953 65.0845 453.541 Q63.2095 452.106 59.691 452.106 Q57.7697 452.106 55.5706 452.523 Q53.3715 452.94 50.7327 453.819 L50.7327 449.653 Q53.3947 448.912 55.7095 448.541 Q58.0475 448.171 60.1076 448.171 Q65.4317 448.171 68.5335 450.602 Q71.6353 453.009 71.6353 457.129 Q71.6353 460 69.9918 461.99 Q68.3483 463.958 65.3159 464.722 Z" fill="#000000" fill-rule="evenodd" fill-opacity="1" /><path clip-path="url(#clip110)" d="M81.3575 448.796 L99.7139 448.796 L99.7139 452.731 L85.6399 452.731 L85.6399 461.203 Q86.6584 460.856 87.6769 460.694 Q88.6954 460.509 89.7139 460.509 Q95.501 460.509 98.8806 463.68 Q102.26 466.852 102.26 472.268 Q102.26 477.847 98.788 480.949 Q95.3158 484.027 88.9964 484.027 Q86.8204 484.027 84.5519 483.657 Q82.3066 483.287 79.8992 482.546 L79.8992 477.847 Q81.9825 478.981 84.2047 479.537 Q86.4269 480.092 88.9038 480.092 Q92.9084 480.092 95.2463 477.986 Q97.5843 475.879 97.5843 472.268 Q97.5843 468.657 95.2463 466.551 Q92.9084 464.444 88.9038 464.444 Q87.0288 464.444 85.1538 464.861 Q83.3019 465.277 81.3575 466.157 L81.3575 448.796 Z" fill="#000000" fill-rule="evenodd" fill-opacity="1" /><path clip-path="url(#clip110)" d="M111.473 477.476 L116.357 477.476 L116.357 483.356 L111.473 483.356 L111.473 477.476 Z" fill="#000000" fill-rule="evenodd" fill-opacity="1" /><path clip-path="url(#clip110)" d="M136.542 451.875 Q132.931 451.875 131.103 455.44 Q129.297 458.981 129.297 466.111 Q129.297 473.217 131.103 476.782 Q132.931 480.324 136.542 480.324 Q140.177 480.324 141.982 476.782 Q143.811 473.217 143.811 466.111 Q143.811 458.981 141.982 455.44 Q140.177 451.875 136.542 451.875 M136.542 448.171 Q142.353 448.171 145.408 452.778 Q148.487 457.361 148.487 466.111 Q148.487 474.838 145.408 479.444 Q142.353 484.027 136.542 484.027 Q130.732 484.027 127.654 479.444 Q124.598 474.838 124.598 466.111 Q124.598 457.361 127.654 452.778 Q130.732 448.171 136.542 448.171 Z" fill="#000000" fill-rule="evenodd" fill-opacity="1" /><path clip-path="url(#clip110)" d="M66.3113 238.072 Q69.6678 238.789 71.5427 241.058 Q73.4409 243.326 73.4409 246.659 Q73.4409 251.775 69.9224 254.576 Q66.4039 257.377 59.9224 257.377 Q57.7465 257.377 55.4317 256.937 Q53.1401 256.521 50.6864 255.664 L50.6864 251.15 Q52.6308 252.284 54.9456 252.863 Q57.2604 253.442 59.7836 253.442 Q64.1817 253.442 66.4733 251.706 Q68.7881 249.97 68.7881 246.659 Q68.7881 243.604 66.6354 241.891 Q64.5057 240.155 60.6863 240.155 L56.6586 240.155 L56.6586 236.312 L60.8715 236.312 Q64.3206 236.312 66.1493 234.947 Q67.978 233.558 67.978 230.965 Q67.978 228.303 66.0798 226.891 Q64.2048 225.456 60.6863 225.456 Q58.765 225.456 56.566 225.873 Q54.3669 226.289 51.728 227.169 L51.728 223.002 Q54.3901 222.261 56.7049 221.891 Q59.0428 221.521 61.103 221.521 Q66.427 221.521 69.5289 223.951 Q72.6307 226.359 72.6307 230.479 Q72.6307 233.349 70.9872 235.34 Q69.3437 237.308 66.3113 238.072 Z" fill="#000000" fill-rule="evenodd" fill-opacity="1" /><path clip-path="url(#clip110)" d="M81.126 222.146 L103.348 222.146 L103.348 224.136 L90.8019 256.706 L85.9177 256.706 L97.7232 226.081 L81.126 226.081 L81.126 222.146 Z" fill="#000000" fill-rule="evenodd" fill-opacity="1" /><path clip-path="url(#clip110)" d="M112.468 250.826 L117.353 250.826 L117.353 256.706 L112.468 256.706 L112.468 250.826 Z" fill="#000000" fill-rule="evenodd" fill-opacity="1" /><path clip-path="url(#clip110)" d="M127.584 222.146 L145.94 222.146 L145.94 226.081 L131.866 226.081 L131.866 234.553 Q132.885 234.206 133.904 234.044 Q134.922 233.859 135.941 233.859 Q141.728 233.859 145.107 237.03 Q148.487 240.201 148.487 245.618 Q148.487 251.196 145.015 254.298 Q141.542 257.377 135.223 257.377 Q133.047 257.377 130.779 257.007 Q128.533 256.636 126.126 255.896 L126.126 251.196 Q128.209 252.331 130.431 252.886 Q132.654 253.442 135.13 253.442 Q139.135 253.442 141.473 251.335 Q143.811 249.229 143.811 245.618 Q143.811 242.007 141.473 239.9 Q139.135 237.794 135.13 237.794 Q133.255 237.794 131.38 238.21 Q129.529 238.627 127.584 239.507 L127.584 222.146 Z" fill="#000000" fill-rule="evenodd" fill-opacity="1" /><polyline clip-path="url(#clip112)" style="stroke:#009af9; stroke-linecap:butt; stroke-linejoin:round; stroke-width:4; stroke-opacity:1; fill:none" points="
  258.202,96.8724 263.849,119.842 269.497,142.439 275.144,164.673 280.791,186.552 333.011,373.37 385.23,535.854 437.449,678.201 489.668,803.681 521.049,872.074 
  552.431,935.784 583.812,995.219 615.194,1050.74 668.259,1136.59 721.324,1213.47 778.968,1288.07 836.612,1354.5 889.754,1409.33 942.897,1458.63 1056.85,1548.04 
  1188.87,1627.88 1306.19,1680.65 1409.07,1714.44 1521.24,1738.96 1634.08,1751.15 1758.84,1750.02 1877.54,1733.94 2000.96,1699.99 2104.85,1655.61 2168.28,1620.19 
  2231.7,1577.42 2291.32,1529.51 2350.94,1472.88 2398.69,1420.21 2446.45,1359.96 2494.21,1290.85 2541.96,1211.3 2549.31,1198.01 2556.66,1184.42 2564.01,1170.51 
  2571.36,1156.29 
  "/>
<path clip-path="url(#clip110)" d="
M2234.16 209.375 L2559.02 209.375 L2559.02 105.695 L2234.16 105.695  Z
  " fill="#ffffff" fill-rule="evenodd" fill-opacity="1"/>
<polyline clip-path="url(#clip110)" style="stroke:#000000; stroke-linecap:butt; stroke-linejoin:round; stroke-width:4; stroke-opacity:1; fill:none" points="
  2234.16,209.375 2559.02,209.375 2559.02,105.695 2234.16,105.695 2234.16,209.375 
  "/>
<polyline clip-path="url(#clip110)" style="stroke:#009af9; stroke-linecap:butt; stroke-linejoin:round; stroke-width:4; stroke-opacity:1; fill:none" points="
  2261.4,157.535 2424.86,157.535 
  "/>
<path clip-path="url(#clip110)" d="M2465.95 177.223 Q2464.14 181.852 2462.43 183.264 Q2460.72 184.676 2457.85 184.676 L2454.44 184.676 L2454.44 181.112 L2456.94 181.112 Q2458.7 181.112 2459.68 180.278 Q2460.65 179.445 2461.83 176.343 L2462.59 174.399 L2452.11 148.889 L2456.62 148.889 L2464.72 169.167 L2472.82 148.889 L2477.34 148.889 L2465.95 177.223 Z" fill="#000000" fill-rule="evenodd" fill-opacity="1" /><path clip-path="url(#clip110)" d="M2484.63 170.88 L2492.27 170.88 L2492.27 144.515 L2483.96 146.181 L2483.96 141.922 L2492.22 140.255 L2496.9 140.255 L2496.9 170.88 L2504.54 170.88 L2504.54 174.815 L2484.63 174.815 L2484.63 170.88 Z" fill="#000000" fill-rule="evenodd" fill-opacity="1" /></svg>
