<?xml version="1.0" encoding="utf-8"?>
<svg xmlns="http://www.w3.org/2000/svg" xmlns:xlink="http://www.w3.org/1999/xlink" width="672" height="480" viewBox="0 0 2688 1920">
<defs>
  <clipPath id="clip030">
    <rect x="0" y="0" width="2688" height="1920"/>
  </clipPath>
</defs>
<path clip-path="url(#clip030)" d="
M0 1920 L2688 1920 L2688 0 L0 0  Z
  " fill="#ffffff" fill-rule="evenodd" fill-opacity="1"/>
<defs>
  <clipPath id="clip031">
    <rect x="537" y="0" width="1883" height="1883"/>
  </clipPath>
</defs>
<path clip-path="url(#clip030)" d="
M181.747 1800.78 L2640.76 1800.78 L2640.76 47.2441 L181.747 47.2441  Z
  " fill="#ffffff" fill-rule="evenodd" fill-opacity="1"/>
<defs>
  <clipPath id="clip032">
    <rect x="181" y="47" width="2460" height="1755"/>
  </clipPath>
</defs>
<polyline clip-path="url(#clip032)" style="stroke:#000000; stroke-linecap:butt; stroke-linejoin:round; stroke-width:2; stroke-opacity:0.1; fill:none" points="
  251.341,1800.78 251.341,47.2441 
  "/>
<polyline clip-path="url(#clip032)" style="stroke:#000000; stroke-linecap:butt; stroke-linejoin:round; stroke-width:2; stroke-opacity:0.1; fill:none" points="
  831.296,1800.78 831.296,47.2441 
  "/>
<polyline clip-path="url(#clip032)" style="stroke:#000000; stroke-linecap:butt; stroke-linejoin:round; stroke-width:2; stroke-opacity:0.1; fill:none" points="
  1411.25,1800.78 1411.25,47.2441 
  "/>
<polyline clip-path="url(#clip032)" style="stroke:#000000; stroke-linecap:butt; stroke-linejoin:round; stroke-width:2; stroke-opacity:0.1; fill:none" points="
  1991.21,1800.78 1991.21,47.2441 
  "/>
<polyline clip-path="url(#clip032)" style="stroke:#000000; stroke-linecap:butt; stroke-linejoin:round; stroke-width:2; stroke-opacity:0.1; fill:none" points="
  2571.16,1800.78 2571.16,47.2441 
  "/>
<polyline clip-path="url(#clip030)" style="stroke:#000000; stroke-linecap:butt; stroke-linejoin:round; stroke-width:4; stroke-opacity:1; fill:none" points="
  181.747,1800.78 2640.76,1800.78 
  "/>
<polyline clip-path="url(#clip030)" style="stroke:#000000; stroke-linecap:butt; stroke-linejoin:round; stroke-width:4; stroke-opacity:1; fill:none" points="
  251.341,1800.78 251.341,1781.88 
  "/>
<polyline clip-path="url(#clip030)" style="stroke:#000000; stroke-linecap:butt; stroke-linejoin:round; stroke-width:4; stroke-opacity:1; fill:none" points="
  831.296,1800.78 831.296,1781.88 
  "/>
<polyline clip-path="url(#clip030)" style="stroke:#000000; stroke-linecap:butt; stroke-linejoin:round; stroke-width:4; stroke-opacity:1; fill:none" points="
  1411.25,1800.78 1411.25,1781.88 
  "/>
<polyline clip-path="url(#clip030)" style="stroke:#000000; stroke-linecap:butt; stroke-linejoin:round; stroke-width:4; stroke-opacity:1; fill:none" points="
  1991.21,1800.78 1991.21,1781.88 
  "/>
<polyline clip-path="url(#clip030)" style="stroke:#000000; stroke-linecap:butt; stroke-linejoin:round; stroke-width:4; stroke-opacity:1; fill:none" points="
  2571.16,1800.78 2571.16,1781.88 
  "/>
<path clip-path="url(#clip030)" d="M205.404 1848.65 L235.08 1848.65 L235.08 1852.59 L205.404 1852.59 L205.404 1848.65 Z" fill="#000000" fill-rule="evenodd" fill-opacity="1" /><path clip-path="url(#clip030)" d="M245.982 1861.55 L253.621 1861.55 L253.621 1835.18 L245.311 1836.85 L245.311 1832.59 L253.575 1830.92 L258.251 1830.92 L258.251 1861.55 L265.89 1861.55 L265.89 1865.48 L245.982 1865.48 L245.982 1861.55 Z" fill="#000000" fill-rule="evenodd" fill-opacity="1" /><path clip-path="url(#clip030)" d="M285.334 1834 Q281.723 1834 279.894 1837.57 Q278.089 1841.11 278.089 1848.24 Q278.089 1855.34 279.894 1858.91 Q281.723 1862.45 285.334 1862.45 Q288.968 1862.45 290.774 1858.91 Q292.603 1855.34 292.603 1848.24 Q292.603 1841.11 290.774 1837.57 Q288.968 1834 285.334 1834 M285.334 1830.3 Q291.144 1830.3 294.2 1834.9 Q297.278 1839.49 297.278 1848.24 Q297.278 1856.96 294.2 1861.57 Q291.144 1866.15 285.334 1866.15 Q279.524 1866.15 276.445 1861.57 Q273.39 1856.96 273.39 1848.24 Q273.39 1839.49 276.445 1834.9 Q279.524 1830.3 285.334 1830.3 Z" fill="#000000" fill-rule="evenodd" fill-opacity="1" /><path clip-path="url(#clip030)" d="M800.938 1848.65 L830.613 1848.65 L830.613 1852.59 L800.938 1852.59 L800.938 1848.65 Z" fill="#000000" fill-rule="evenodd" fill-opacity="1" /><path clip-path="url(#clip030)" d="M840.752 1830.92 L859.109 1830.92 L859.109 1834.86 L845.035 1834.86 L845.035 1843.33 Q846.053 1842.98 847.072 1842.82 Q848.09 1842.64 849.109 1842.64 Q854.896 1842.64 858.275 1845.81 Q861.655 1848.98 861.655 1854.4 Q861.655 1859.97 858.183 1863.08 Q854.71 1866.15 848.391 1866.15 Q846.215 1866.15 843.947 1865.78 Q841.701 1865.41 839.294 1864.67 L839.294 1859.97 Q841.377 1861.11 843.599 1861.66 Q845.822 1862.22 848.298 1862.22 Q852.303 1862.22 854.641 1860.11 Q856.979 1858.01 856.979 1854.4 Q856.979 1850.78 854.641 1848.68 Q852.303 1846.57 848.298 1846.57 Q846.423 1846.57 844.548 1846.99 Q842.697 1847.4 840.752 1848.28 L840.752 1830.92 Z" fill="#000000" fill-rule="evenodd" fill-opacity="1" /><path clip-path="url(#clip030)" d="M1411.25 1834 Q1407.64 1834 1405.81 1837.57 Q1404.01 1841.11 1404.01 1848.24 Q1404.01 1855.34 1405.81 1858.91 Q1407.64 1862.45 1411.25 1862.45 Q1414.89 1862.45 1416.69 1858.91 Q1418.52 1855.34 1418.52 1848.24 Q1418.52 1841.11 1416.69 1837.57 Q1414.89 1834 1411.25 1834 M1411.25 1830.3 Q1417.06 1830.3 1420.12 1834.9 Q1423.2 1839.49 1423.2 1848.24 Q1423.2 1856.96 1420.12 1861.57 Q1417.06 1866.15 1411.25 1866.15 Q1405.44 1866.15 1402.36 1861.57 Q1399.31 1856.96 1399.31 1848.24 Q1399.31 1839.49 1402.36 1834.9 Q1405.44 1830.3 1411.25 1830.3 Z" fill="#000000" fill-rule="evenodd" fill-opacity="1" /><path clip-path="url(#clip030)" d="M1981.48 1830.92 L1999.84 1830.92 L1999.84 1834.86 L1985.77 1834.86 L1985.77 1843.33 Q1986.79 1842.98 1987.8 1842.82 Q1988.82 1842.64 1989.84 1842.64 Q1995.63 1842.64 1999.01 1845.81 Q2002.39 1848.98 2002.39 1854.4 Q2002.39 1859.97 1998.91 1863.08 Q1995.44 1866.15 1989.12 1866.15 Q1986.95 1866.15 1984.68 1865.78 Q1982.43 1865.41 1980.03 1864.67 L1980.03 1859.97 Q1982.11 1861.11 1984.33 1861.66 Q1986.55 1862.22 1989.03 1862.22 Q1993.03 1862.22 1995.37 1860.11 Q1997.71 1858.01 1997.71 1854.4 Q1997.71 1850.78 1995.37 1848.68 Q1993.03 1846.57 1989.03 1846.57 Q1987.16 1846.57 1985.28 1846.99 Q1983.43 1847.4 1981.48 1848.28 L1981.48 1830.92 Z" fill="#000000" fill-rule="evenodd" fill-opacity="1" /><path clip-path="url(#clip030)" d="M2545.85 1861.55 L2553.49 1861.55 L2553.49 1835.18 L2545.18 1836.85 L2545.18 1832.59 L2553.44 1830.92 L2558.12 1830.92 L2558.12 1861.55 L2565.76 1861.55 L2565.76 1865.48 L2545.85 1865.48 L2545.85 1861.55 Z" fill="#000000" fill-rule="evenodd" fill-opacity="1" /><path clip-path="url(#clip030)" d="M2585.2 1834 Q2581.59 1834 2579.76 1837.57 Q2577.96 1841.11 2577.96 1848.24 Q2577.96 1855.34 2579.76 1858.91 Q2581.59 1862.45 2585.2 1862.45 Q2588.83 1862.45 2590.64 1858.91 Q2592.47 1855.34 2592.47 1848.24 Q2592.47 1841.11 2590.64 1837.57 Q2588.83 1834 2585.2 1834 M2585.2 1830.3 Q2591.01 1830.3 2594.07 1834.9 Q2597.14 1839.49 2597.14 1848.24 Q2597.14 1856.96 2594.07 1861.57 Q2591.01 1866.15 2585.2 1866.15 Q2579.39 1866.15 2576.31 1861.57 Q2573.26 1856.96 2573.26 1848.24 Q2573.26 1839.49 2576.31 1834.9 Q2579.39 1830.3 2585.2 1830.3 Z" fill="#000000" fill-rule="evenodd" fill-opacity="1" /><polyline clip-path="url(#clip032)" style="stroke:#000000; stroke-linecap:butt; stroke-linejoin:round; stroke-width:2; stroke-opacity:0.1; fill:none" points="
  181.747,1788.21 2640.76,1788.21 
  "/>
<polyline clip-path="url(#clip032)" style="stroke:#000000; stroke-linecap:butt; stroke-linejoin:round; stroke-width:2; stroke-opacity:0.1; fill:none" points="
  181.747,1362.94 2640.76,1362.94 
  "/>
<polyline clip-path="url(#clip032)" style="stroke:#000000; stroke-linecap:butt; stroke-linejoin:round; stroke-width:2; stroke-opacity:0.1; fill:none" points="
  181.747,937.678 2640.76,937.678 
  "/>
<polyline clip-path="url(#clip032)" style="stroke:#000000; stroke-linecap:butt; stroke-linejoin:round; stroke-width:2; stroke-opacity:0.1; fill:none" points="
  181.747,512.411 2640.76,512.411 
  "/>
<polyline clip-path="url(#clip032)" style="stroke:#000000; stroke-linecap:butt; stroke-linejoin:round; stroke-width:2; stroke-opacity:0.1; fill:none" points="
  181.747,87.1441 2640.76,87.1441 
  "/>
<polyline clip-path="url(#clip030)" style="stroke:#000000; stroke-linecap:butt; stroke-linejoin:round; stroke-width:4; stroke-opacity:1; fill:none" points="
  181.747,1800.78 181.747,47.2441 
  "/>
<polyline clip-path="url(#clip030)" style="stroke:#000000; stroke-linecap:butt; stroke-linejoin:round; stroke-width:4; stroke-opacity:1; fill:none" points="
  181.747,1788.21 200.644,1788.21 
  "/>
<polyline clip-path="url(#clip030)" style="stroke:#000000; stroke-linecap:butt; stroke-linejoin:round; stroke-width:4; stroke-opacity:1; fill:none" points="
  181.747,1362.94 200.644,1362.94 
  "/>
<polyline clip-path="url(#clip030)" style="stroke:#000000; stroke-linecap:butt; stroke-linejoin:round; stroke-width:4; stroke-opacity:1; fill:none" points="
  181.747,937.678 200.644,937.678 
  "/>
<polyline clip-path="url(#clip030)" style="stroke:#000000; stroke-linecap:butt; stroke-linejoin:round; stroke-width:4; stroke-opacity:1; fill:none" points="
  181.747,512.411 200.644,512.411 
  "/>
<polyline clip-path="url(#clip030)" style="stroke:#000000; stroke-linecap:butt; stroke-linejoin:round; stroke-width:4; stroke-opacity:1; fill:none" points="
  181.747,87.1441 200.644,87.1441 
  "/>
<path clip-path="url(#clip030)" d="M49.5521 1788.66 L79.2279 1788.66 L79.2279 1792.6 L49.5521 1792.6 L49.5521 1788.66 Z" fill="#000000" fill-rule="evenodd" fill-opacity="1" /><path clip-path="url(#clip030)" d="M93.3482 1801.56 L109.668 1801.56 L109.668 1805.49 L87.7232 1805.49 L87.7232 1801.56 Q90.3852 1798.8 94.9685 1794.17 Q99.575 1789.52 100.756 1788.18 Q103.001 1785.65 103.881 1783.92 Q104.783 1782.16 104.783 1780.47 Q104.783 1777.71 102.839 1775.98 Q100.918 1774.24 97.8158 1774.24 Q95.6167 1774.24 93.163 1775.01 Q90.7325 1775.77 87.9547 1777.32 L87.9547 1772.6 Q90.7788 1771.46 93.2324 1770.89 Q95.6861 1770.31 97.7232 1770.31 Q103.094 1770.31 106.288 1772.99 Q109.482 1775.68 109.482 1780.17 Q109.482 1782.3 108.672 1784.22 Q107.885 1786.12 105.779 1788.71 Q105.2 1789.38 102.098 1792.6 Q98.9963 1795.79 93.3482 1801.56 Z" fill="#000000" fill-rule="evenodd" fill-opacity="1" /><path clip-path="url(#clip030)" d="M129.482 1774.01 Q125.871 1774.01 124.042 1777.58 Q122.237 1781.12 122.237 1788.25 Q122.237 1795.35 124.042 1798.92 Q125.871 1802.46 129.482 1802.46 Q133.116 1802.46 134.922 1798.92 Q136.751 1795.35 136.751 1788.25 Q136.751 1781.12 134.922 1777.58 Q133.116 1774.01 129.482 1774.01 M129.482 1770.31 Q135.292 1770.31 138.348 1774.91 Q141.427 1779.5 141.427 1788.25 Q141.427 1796.97 138.348 1801.58 Q135.292 1806.16 129.482 1806.16 Q123.672 1806.16 120.593 1801.58 Q117.538 1796.97 117.538 1788.25 Q117.538 1779.5 120.593 1774.91 Q123.672 1770.31 129.482 1770.31 Z" fill="#000000" fill-rule="evenodd" fill-opacity="1" /><path clip-path="url(#clip030)" d="M49.5521 1363.4 L79.2279 1363.4 L79.2279 1367.33 L49.5521 1367.33 L49.5521 1363.4 Z" fill="#000000" fill-rule="evenodd" fill-opacity="1" /><path clip-path="url(#clip030)" d="M90.1306 1376.29 L97.7695 1376.29 L97.7695 1349.92 L89.4593 1351.59 L89.4593 1347.33 L97.7232 1345.66 L102.399 1345.66 L102.399 1376.29 L110.038 1376.29 L110.038 1380.22 L90.1306 1380.22 L90.1306 1376.29 Z" fill="#000000" fill-rule="evenodd" fill-opacity="1" /><path clip-path="url(#clip030)" d="M129.482 1348.74 Q125.871 1348.74 124.042 1352.31 Q122.237 1355.85 122.237 1362.98 Q122.237 1370.09 124.042 1373.65 Q125.871 1377.19 129.482 1377.19 Q133.116 1377.19 134.922 1373.65 Q136.751 1370.09 136.751 1362.98 Q136.751 1355.85 134.922 1352.31 Q133.116 1348.74 129.482 1348.74 M129.482 1345.04 Q135.292 1345.04 138.348 1349.65 Q141.427 1354.23 141.427 1362.98 Q141.427 1371.71 138.348 1376.31 Q135.292 1380.9 129.482 1380.9 Q123.672 1380.9 120.593 1376.31 Q117.538 1371.71 117.538 1362.98 Q117.538 1354.23 120.593 1349.65 Q123.672 1345.04 129.482 1345.04 Z" fill="#000000" fill-rule="evenodd" fill-opacity="1" /><path clip-path="url(#clip030)" d="M129.482 923.477 Q125.871 923.477 124.042 927.041 Q122.237 930.583 122.237 937.713 Q122.237 944.819 124.042 948.384 Q125.871 951.926 129.482 951.926 Q133.116 951.926 134.922 948.384 Q136.751 944.819 136.751 937.713 Q136.751 930.583 134.922 927.041 Q133.116 923.477 129.482 923.477 M129.482 919.773 Q135.292 919.773 138.348 924.379 Q141.427 928.963 141.427 937.713 Q141.427 946.439 138.348 951.046 Q135.292 955.629 129.482 955.629 Q123.672 955.629 120.593 951.046 Q117.538 946.439 117.538 937.713 Q117.538 928.963 120.593 924.379 Q123.672 919.773 129.482 919.773 Z" fill="#000000" fill-rule="evenodd" fill-opacity="1" /><path clip-path="url(#clip030)" d="M90.1306 525.756 L97.7695 525.756 L97.7695 499.39 L89.4593 501.057 L89.4593 496.798 L97.7232 495.131 L102.399 495.131 L102.399 525.756 L110.038 525.756 L110.038 529.691 L90.1306 529.691 L90.1306 525.756 Z" fill="#000000" fill-rule="evenodd" fill-opacity="1" /><path clip-path="url(#clip030)" d="M129.482 498.21 Q125.871 498.21 124.042 501.774 Q122.237 505.316 122.237 512.446 Q122.237 519.552 124.042 523.117 Q125.871 526.659 129.482 526.659 Q133.116 526.659 134.922 523.117 Q136.751 519.552 136.751 512.446 Q136.751 505.316 134.922 501.774 Q133.116 498.21 129.482 498.21 M129.482 494.506 Q135.292 494.506 138.348 499.112 Q141.427 503.696 141.427 512.446 Q141.427 521.173 138.348 525.779 Q135.292 530.362 129.482 530.362 Q123.672 530.362 120.593 525.779 Q117.538 521.173 117.538 512.446 Q117.538 503.696 120.593 499.112 Q123.672 494.506 129.482 494.506 Z" fill="#000000" fill-rule="evenodd" fill-opacity="1" /><path clip-path="url(#clip030)" d="M93.3482 100.489 L109.668 100.489 L109.668 104.424 L87.7232 104.424 L87.7232 100.489 Q90.3852 97.7343 94.9685 93.1047 Q99.575 88.4519 100.756 87.1093 Q103.001 84.5862 103.881 82.8501 Q104.783 81.0909 104.783 79.4011 Q104.783 76.6464 102.839 74.9103 Q100.918 73.1742 97.8158 73.1742 Q95.6167 73.1742 93.163 73.9381 Q90.7325 74.702 87.9547 76.2529 L87.9547 71.5307 Q90.7788 70.3965 93.2324 69.8178 Q95.6861 69.2391 97.7232 69.2391 Q103.094 69.2391 106.288 71.9242 Q109.482 74.6094 109.482 79.1001 Q109.482 81.2297 108.672 83.151 Q107.885 85.0492 105.779 87.6417 Q105.2 88.313 102.098 91.5306 Q98.9963 94.725 93.3482 100.489 Z" fill="#000000" fill-rule="evenodd" fill-opacity="1" /><path clip-path="url(#clip030)" d="M129.482 72.9428 Q125.871 72.9428 124.042 76.5075 Q122.237 80.0492 122.237 87.1788 Q122.237 94.2852 124.042 97.85 Q125.871 101.392 129.482 101.392 Q133.116 101.392 134.922 97.85 Q136.751 94.2852 136.751 87.1788 Q136.751 80.0492 134.922 76.5075 Q133.116 72.9428 129.482 72.9428 M129.482 69.2391 Q135.292 69.2391 138.348 73.8455 Q141.427 78.4288 141.427 87.1788 Q141.427 95.9056 138.348 100.512 Q135.292 105.095 129.482 105.095 Q123.672 105.095 120.593 100.512 Q117.538 95.9056 117.538 87.1788 Q117.538 78.4288 120.593 73.8455 Q123.672 69.2391 129.482 69.2391 Z" fill="#000000" fill-rule="evenodd" fill-opacity="1" /><polyline clip-path="url(#clip032)" style="stroke:#009af9; stroke-linecap:butt; stroke-linejoin:round; stroke-width:4; stroke-opacity:1; fill:none" points="
  251.341,1540.78 273.996,1532.62 483.474,1457.39 609.361,1412.54 715.797,1374.92 831.417,1334.55 938.008,1298.04 1052.28,1260.17 1184.69,1219.65 1243.52,1204.05 
  1302.35,1191.58 1353.94,1185.72 1405.53,1190.94 1419.59,1196.37 1433.65,1204.98 1447.71,1218.46 1461.77,1239.95 1468.8,1255.5 1475.83,1276.01 1482.87,1303.84 
  1489.9,1343.11 1493.41,1369.28 1496.93,1401.8 1500.44,1443.2 1503.96,1497.49 1505.72,1531.44 1507.47,1571.55 1509.23,1619.6 1510.99,1678.19 1511.87,1712.57 
  1512.75,1751.15 
  "/>
<polyline clip-path="url(#clip032)" style="stroke:#009af9; stroke-linecap:butt; stroke-linejoin:round; stroke-width:4; stroke-opacity:1; fill:none" points="
  1537.47,96.8724 1538.35,173.301 1539.24,238.416 1540.12,294.546 1541.01,343.425 1541.89,386.364 1542.77,424.377 1544.54,488.649 1546.31,540.882 1548.08,584.139 
  1549.85,620.527 1551.61,651.542 1553.38,678.273 1556.92,721.948 1560.46,756.046 1567.53,805.601 1574.6,839.58 1581.67,864.055 1588.75,882.304 1595.82,896.254 
  1602.89,907.111 1617.04,922.469 1631.18,932.234 1662.46,942.722 1693.74,944.961 1725.02,942.864 1756.3,938.208 1815.82,925.269 1875.34,909.291 1999.12,871.344 
  2103.31,836.924 2230.52,793.382 2350.1,751.578 2541.68,683.602 2571.16,673.067 
  "/>
<path clip-path="url(#clip030)" d="
M2233.14 209.375 L2558.79 209.375 L2558.79 105.695 L2233.14 105.695  Z
  " fill="#ffffff" fill-rule="evenodd" fill-opacity="1"/>
<polyline clip-path="url(#clip030)" style="stroke:#000000; stroke-linecap:butt; stroke-linejoin:round; stroke-width:4; stroke-opacity:1; fill:none" points="
  2233.14,209.375 2558.79,209.375 2558.79,105.695 2233.14,105.695 2233.14,209.375 
  "/>
<polyline clip-path="url(#clip030)" style="stroke:#009af9; stroke-linecap:butt; stroke-linejoin:round; stroke-width:4; stroke-opacity:1; fill:none" points="
  2260.46,157.535 2424.39,157.535 
  "/>
<path clip-path="url(#clip030)" d="M2465.56 177.223 Q2463.75 181.852 2462.04 183.264 Q2460.33 184.676 2457.45 184.676 L2454.05 184.676 L2454.05 181.112 L2456.55 181.112 Q2458.31 181.112 2459.28 180.278 Q2460.26 179.445 2461.44 176.343 L2462.2 174.399 L2451.71 148.889 L2456.23 148.889 L2464.33 169.167 L2472.43 148.889 L2476.95 148.889 L2465.56 177.223 Z" fill="#000000" fill-rule="evenodd" fill-opacity="1" /><path clip-path="url(#clip030)" d="M2484.24 170.88 L2491.88 170.88 L2491.88 144.515 L2483.57 146.181 L2483.57 141.922 L2491.83 140.255 L2496.51 140.255 L2496.51 170.88 L2504.14 170.88 L2504.14 174.815 L2484.24 174.815 L2484.24 170.88 Z" fill="#000000" fill-rule="evenodd" fill-opacity="1" /></svg>
