<?xml version="1.0" encoding="utf-8"?>
<svg xmlns="http://www.w3.org/2000/svg" xmlns:xlink="http://www.w3.org/1999/xlink" width="672" height="480" viewBox="0 0 2688 1920">
<defs>
  <clipPath id="clip040">
    <rect x="0" y="0" width="2688" height="1920"/>
  </clipPath>
</defs>
<path clip-path="url(#clip040)" d="M0 1920 L2688 1920 L2688 0 L0 0  Z" fill="#ffffff" fill-rule="evenodd" fill-opacity="1"/>
<defs>
  <clipPath id="clip041">
    <rect x="537" y="0" width="1883" height="1883"/>
  </clipPath>
</defs>
<path clip-path="url(#clip040)" d="M181.747 1800.78 L2640.76 1800.78 L2640.76 47.2441 L181.747 47.2441  Z" fill="#ffffff" fill-rule="evenodd" fill-opacity="1"/>
<defs>
  <clipPath id="clip042">
    <rect x="181" y="47" width="2460" height="1755"/>
  </clipPath>
</defs>
<polyline clip-path="url(#clip042)" style="stroke:#000000; stroke-linecap:round; stroke-linejoin:round; stroke-width:2; stroke-opacity:0.1; fill:none" points="251.341,1800.78 251.341,47.2441 "/>
<polyline clip-path="url(#clip042)" style="stroke:#000000; stroke-linecap:round; stroke-linejoin:round; stroke-width:2; stroke-opacity:0.1; fill:none" points="637.978,1800.78 637.978,47.2441 "/>
<polyline clip-path="url(#clip042)" style="stroke:#000000; stroke-linecap:round; stroke-linejoin:round; stroke-width:2; stroke-opacity:0.1; fill:none" points="1024.61,1800.78 1024.61,47.2441 "/>
<polyline clip-path="url(#clip042)" style="stroke:#000000; stroke-linecap:round; stroke-linejoin:round; stroke-width:2; stroke-opacity:0.1; fill:none" points="1411.25,1800.78 1411.25,47.2441 "/>
<polyline clip-path="url(#clip042)" style="stroke:#000000; stroke-linecap:round; stroke-linejoin:round; stroke-width:2; stroke-opacity:0.1; fill:none" points="1797.89,1800.78 1797.89,47.2441 "/>
<polyline clip-path="url(#clip042)" style="stroke:#000000; stroke-linecap:round; stroke-linejoin:round; stroke-width:2; stroke-opacity:0.1; fill:none" points="2184.52,1800.78 2184.52,47.2441 "/>
<polyline clip-path="url(#clip042)" style="stroke:#000000; stroke-linecap:round; stroke-linejoin:round; stroke-width:2; stroke-opacity:0.1; fill:none" points="2571.16,1800.78 2571.16,47.2441 "/>
<polyline clip-path="url(#clip040)" style="stroke:#000000; stroke-linecap:round; stroke-linejoin:round; stroke-width:4; stroke-opacity:1; fill:none" points="181.747,1800.78 2640.76,1800.78 "/>
<polyline clip-path="url(#clip040)" style="stroke:#000000; stroke-linecap:round; stroke-linejoin:round; stroke-width:4; stroke-opacity:1; fill:none" points="251.341,1800.78 251.341,1781.88 "/>
<polyline clip-path="url(#clip040)" style="stroke:#000000; stroke-linecap:round; stroke-linejoin:round; stroke-width:4; stroke-opacity:1; fill:none" points="637.978,1800.78 637.978,1781.88 "/>
<polyline clip-path="url(#clip040)" style="stroke:#000000; stroke-linecap:round; stroke-linejoin:round; stroke-width:4; stroke-opacity:1; fill:none" points="1024.61,1800.78 1024.61,1781.88 "/>
<polyline clip-path="url(#clip040)" style="stroke:#000000; stroke-linecap:round; stroke-linejoin:round; stroke-width:4; stroke-opacity:1; fill:none" points="1411.25,1800.78 1411.25,1781.88 "/>
<polyline clip-path="url(#clip040)" style="stroke:#000000; stroke-linecap:round; stroke-linejoin:round; stroke-width:4; stroke-opacity:1; fill:none" points="1797.89,1800.78 1797.89,1781.88 "/>
<polyline clip-path="url(#clip040)" style="stroke:#000000; stroke-linecap:round; stroke-linejoin:round; stroke-width:4; stroke-opacity:1; fill:none" points="2184.52,1800.78 2184.52,1781.88 "/>
<polyline clip-path="url(#clip040)" style="stroke:#000000; stroke-linecap:round; stroke-linejoin:round; stroke-width:4; stroke-opacity:1; fill:none" points="2571.16,1800.78 2571.16,1781.88 "/>
<path clip-path="url(#clip040)" d="M220.809 1848.65 L250.485 1848.65 L250.485 1852.59 L220.809 1852.59 L220.809 1848.65 Z" fill="#000000" fill-rule="evenodd" fill-opacity="1" /><path clip-path="url(#clip040)" d="M274.744 1846.85 Q278.1 1847.57 279.975 1849.84 Q281.873 1852.1 281.873 1855.44 Q281.873 1860.55 278.355 1863.35 Q274.836 1866.15 268.355 1866.15 Q266.179 1866.15 263.864 1865.71 Q261.573 1865.3 259.119 1864.44 L259.119 1859.93 Q261.063 1861.06 263.378 1861.64 Q265.693 1862.22 268.216 1862.22 Q272.614 1862.22 274.906 1860.48 Q277.221 1858.75 277.221 1855.44 Q277.221 1852.38 275.068 1850.67 Q272.938 1848.93 269.119 1848.93 L265.091 1848.93 L265.091 1845.09 L269.304 1845.09 Q272.753 1845.09 274.582 1843.72 Q276.411 1842.34 276.411 1839.74 Q276.411 1837.08 274.512 1835.67 Q272.637 1834.23 269.119 1834.23 Q267.198 1834.23 264.999 1834.65 Q262.8 1835.07 260.161 1835.95 L260.161 1831.78 Q262.823 1831.04 265.137 1830.67 Q267.475 1830.3 269.536 1830.3 Q274.86 1830.3 277.961 1832.73 Q281.063 1835.14 281.063 1839.26 Q281.063 1842.13 279.42 1844.12 Q277.776 1846.09 274.744 1846.85 Z" fill="#000000" fill-rule="evenodd" fill-opacity="1" /><path clip-path="url(#clip040)" d="M607.92 1848.65 L637.596 1848.65 L637.596 1852.59 L607.92 1852.59 L607.92 1848.65 Z" fill="#000000" fill-rule="evenodd" fill-opacity="1" /><path clip-path="url(#clip040)" d="M651.716 1861.55 L668.036 1861.55 L668.036 1865.48 L646.091 1865.48 L646.091 1861.55 Q648.753 1858.79 653.337 1854.16 Q657.943 1849.51 659.124 1848.17 Q661.369 1845.65 662.249 1843.91 Q663.151 1842.15 663.151 1840.46 Q663.151 1837.71 661.207 1835.97 Q659.286 1834.23 656.184 1834.23 Q653.985 1834.23 651.531 1835 Q649.101 1835.76 646.323 1837.31 L646.323 1832.59 Q649.147 1831.46 651.601 1830.88 Q654.054 1830.3 656.091 1830.3 Q661.462 1830.3 664.656 1832.98 Q667.85 1835.67 667.85 1840.16 Q667.85 1842.29 667.04 1844.21 Q666.253 1846.11 664.147 1848.7 Q663.568 1849.37 660.466 1852.59 Q657.364 1855.78 651.716 1861.55 Z" fill="#000000" fill-rule="evenodd" fill-opacity="1" /><path clip-path="url(#clip040)" d="M994.372 1848.65 L1024.05 1848.65 L1024.05 1852.59 L994.372 1852.59 L994.372 1848.65 Z" fill="#000000" fill-rule="evenodd" fill-opacity="1" /><path clip-path="url(#clip040)" d="M1034.95 1861.55 L1042.59 1861.55 L1042.59 1835.18 L1034.28 1836.85 L1034.28 1832.59 L1042.54 1830.92 L1047.22 1830.92 L1047.22 1861.55 L1054.86 1861.55 L1054.86 1865.48 L1034.95 1865.48 L1034.95 1861.55 Z" fill="#000000" fill-rule="evenodd" fill-opacity="1" /><path clip-path="url(#clip040)" d="M1411.25 1834 Q1407.64 1834 1405.81 1837.57 Q1404.01 1841.11 1404.01 1848.24 Q1404.01 1855.34 1405.81 1858.91 Q1407.64 1862.45 1411.25 1862.45 Q1414.89 1862.45 1416.69 1858.91 Q1418.52 1855.34 1418.52 1848.24 Q1418.52 1841.11 1416.69 1837.57 Q1414.89 1834 1411.25 1834 M1411.25 1830.3 Q1417.06 1830.3 1420.12 1834.9 Q1423.2 1839.49 1423.2 1848.24 Q1423.2 1856.96 1420.12 1861.57 Q1417.06 1866.15 1411.25 1866.15 Q1405.44 1866.15 1402.36 1861.57 Q1399.31 1856.96 1399.31 1848.24 Q1399.31 1839.49 1402.36 1834.9 Q1405.44 1830.3 1411.25 1830.3 Z" fill="#000000" fill-rule="evenodd" fill-opacity="1" /><path clip-path="url(#clip040)" d="M1788.27 1861.55 L1795.91 1861.55 L1795.91 1835.18 L1787.6 1836.85 L1787.6 1832.59 L1795.86 1830.92 L1800.54 1830.92 L1800.54 1861.55 L1808.18 1861.55 L1808.18 1865.48 L1788.27 1865.48 L1788.27 1861.55 Z" fill="#000000" fill-rule="evenodd" fill-opacity="1" /><path clip-path="url(#clip040)" d="M2179.18 1861.55 L2195.5 1861.55 L2195.5 1865.48 L2173.55 1865.48 L2173.55 1861.55 Q2176.21 1858.79 2180.8 1854.16 Q2185.4 1849.51 2186.58 1848.17 Q2188.83 1845.65 2189.71 1843.91 Q2190.61 1842.15 2190.61 1840.46 Q2190.61 1837.71 2188.67 1835.97 Q2186.75 1834.23 2183.65 1834.23 Q2181.45 1834.23 2178.99 1835 Q2176.56 1835.76 2173.78 1837.31 L2173.78 1832.59 Q2176.61 1831.46 2179.06 1830.88 Q2181.52 1830.3 2183.55 1830.3 Q2188.92 1830.3 2192.12 1832.98 Q2195.31 1835.67 2195.31 1840.16 Q2195.31 1842.29 2194.5 1844.21 Q2193.71 1846.11 2191.61 1848.7 Q2191.03 1849.37 2187.93 1852.59 Q2184.83 1855.78 2179.18 1861.55 Z" fill="#000000" fill-rule="evenodd" fill-opacity="1" /><path clip-path="url(#clip040)" d="M2575.41 1846.85 Q2578.77 1847.57 2580.64 1849.84 Q2582.54 1852.1 2582.54 1855.44 Q2582.54 1860.55 2579.02 1863.35 Q2575.5 1866.15 2569.02 1866.15 Q2566.84 1866.15 2564.53 1865.71 Q2562.24 1865.3 2559.78 1864.44 L2559.78 1859.93 Q2561.73 1861.06 2564.04 1861.64 Q2566.36 1862.22 2568.88 1862.22 Q2573.28 1862.22 2575.57 1860.48 Q2577.89 1858.75 2577.89 1855.44 Q2577.89 1852.38 2575.73 1850.67 Q2573.6 1848.93 2569.78 1848.93 L2565.76 1848.93 L2565.76 1845.09 L2569.97 1845.09 Q2573.42 1845.09 2575.25 1843.72 Q2577.08 1842.34 2577.08 1839.74 Q2577.08 1837.08 2575.18 1835.67 Q2573.3 1834.23 2569.78 1834.23 Q2567.86 1834.23 2565.66 1834.65 Q2563.46 1835.07 2560.83 1835.95 L2560.83 1831.78 Q2563.49 1831.04 2565.8 1830.67 Q2568.14 1830.3 2570.2 1830.3 Q2575.52 1830.3 2578.63 1832.73 Q2581.73 1835.14 2581.73 1839.26 Q2581.73 1842.13 2580.08 1844.12 Q2578.44 1846.09 2575.41 1846.85 Z" fill="#000000" fill-rule="evenodd" fill-opacity="1" /><polyline clip-path="url(#clip042)" style="stroke:#000000; stroke-linecap:round; stroke-linejoin:round; stroke-width:2; stroke-opacity:0.1; fill:none" points="181.747,1773.84 2640.76,1773.84 "/>
<polyline clip-path="url(#clip042)" style="stroke:#000000; stroke-linecap:round; stroke-linejoin:round; stroke-width:2; stroke-opacity:0.1; fill:none" points="181.747,1354.04 2640.76,1354.04 "/>
<polyline clip-path="url(#clip042)" style="stroke:#000000; stroke-linecap:round; stroke-linejoin:round; stroke-width:2; stroke-opacity:0.1; fill:none" points="181.747,934.24 2640.76,934.24 "/>
<polyline clip-path="url(#clip042)" style="stroke:#000000; stroke-linecap:round; stroke-linejoin:round; stroke-width:2; stroke-opacity:0.1; fill:none" points="181.747,514.442 2640.76,514.442 "/>
<polyline clip-path="url(#clip042)" style="stroke:#000000; stroke-linecap:round; stroke-linejoin:round; stroke-width:2; stroke-opacity:0.1; fill:none" points="181.747,94.6441 2640.76,94.6441 "/>
<polyline clip-path="url(#clip040)" style="stroke:#000000; stroke-linecap:round; stroke-linejoin:round; stroke-width:4; stroke-opacity:1; fill:none" points="181.747,1800.78 181.747,47.2441 "/>
<polyline clip-path="url(#clip040)" style="stroke:#000000; stroke-linecap:round; stroke-linejoin:round; stroke-width:4; stroke-opacity:1; fill:none" points="181.747,1773.84 200.644,1773.84 "/>
<polyline clip-path="url(#clip040)" style="stroke:#000000; stroke-linecap:round; stroke-linejoin:round; stroke-width:4; stroke-opacity:1; fill:none" points="181.747,1354.04 200.644,1354.04 "/>
<polyline clip-path="url(#clip040)" style="stroke:#000000; stroke-linecap:round; stroke-linejoin:round; stroke-width:4; stroke-opacity:1; fill:none" points="181.747,934.24 200.644,934.24 "/>
<polyline clip-path="url(#clip040)" style="stroke:#000000; stroke-linecap:round; stroke-linejoin:round; stroke-width:4; stroke-opacity:1; fill:none" points="181.747,514.442 200.644,514.442 "/>
<polyline clip-path="url(#clip040)" style="stroke:#000000; stroke-linecap:round; stroke-linejoin:round; stroke-width:4; stroke-opacity:1; fill:none" points="181.747,94.6441 200.644,94.6441 "/>
<path clip-path="url(#clip040)" d="M49.5521 1774.29 L79.2279 1774.29 L79.2279 1778.22 L49.5521 1778.22 L49.5521 1774.29 Z" fill="#000000" fill-rule="evenodd" fill-opacity="1" /><path clip-path="url(#clip040)" d="M93.3482 1787.18 L109.668 1787.18 L109.668 1791.12 L87.7232 1791.12 L87.7232 1787.18 Q90.3852 1784.43 94.9685 1779.8 Q99.575 1775.14 100.756 1773.8 Q103.001 1771.28 103.881 1769.54 Q104.783 1767.78 104.783 1766.09 Q104.783 1763.34 102.839 1761.6 Q100.918 1759.87 97.8158 1759.87 Q95.6167 1759.87 93.163 1760.63 Q90.7325 1761.39 87.9547 1762.94 L87.9547 1758.22 Q90.7788 1757.09 93.2324 1756.51 Q95.6861 1755.93 97.7232 1755.93 Q103.094 1755.93 106.288 1758.62 Q109.482 1761.3 109.482 1765.79 Q109.482 1767.92 108.672 1769.84 Q107.885 1771.74 105.779 1774.33 Q105.2 1775 102.098 1778.22 Q98.9963 1781.42 93.3482 1787.18 Z" fill="#000000" fill-rule="evenodd" fill-opacity="1" /><path clip-path="url(#clip040)" d="M129.482 1759.63 Q125.871 1759.63 124.042 1763.2 Q122.237 1766.74 122.237 1773.87 Q122.237 1780.98 124.042 1784.54 Q125.871 1788.08 129.482 1788.08 Q133.116 1788.08 134.922 1784.54 Q136.751 1780.98 136.751 1773.87 Q136.751 1766.74 134.922 1763.2 Q133.116 1759.63 129.482 1759.63 M129.482 1755.93 Q135.292 1755.93 138.348 1760.54 Q141.427 1765.12 141.427 1773.87 Q141.427 1782.6 138.348 1787.2 Q135.292 1791.79 129.482 1791.79 Q123.672 1791.79 120.593 1787.2 Q117.538 1782.6 117.538 1773.87 Q117.538 1765.12 120.593 1760.54 Q123.672 1755.93 129.482 1755.93 Z" fill="#000000" fill-rule="evenodd" fill-opacity="1" /><path clip-path="url(#clip040)" d="M49.5521 1354.49 L79.2279 1354.49 L79.2279 1358.42 L49.5521 1358.42 L49.5521 1354.49 Z" fill="#000000" fill-rule="evenodd" fill-opacity="1" /><path clip-path="url(#clip040)" d="M90.1306 1367.38 L97.7695 1367.38 L97.7695 1341.02 L89.4593 1342.68 L89.4593 1338.42 L97.7232 1336.76 L102.399 1336.76 L102.399 1367.38 L110.038 1367.38 L110.038 1371.32 L90.1306 1371.32 L90.1306 1367.38 Z" fill="#000000" fill-rule="evenodd" fill-opacity="1" /><path clip-path="url(#clip040)" d="M129.482 1339.84 Q125.871 1339.84 124.042 1343.4 Q122.237 1346.94 122.237 1354.07 Q122.237 1361.18 124.042 1364.74 Q125.871 1368.29 129.482 1368.29 Q133.116 1368.29 134.922 1364.74 Q136.751 1361.18 136.751 1354.07 Q136.751 1346.94 134.922 1343.4 Q133.116 1339.84 129.482 1339.84 M129.482 1336.13 Q135.292 1336.13 138.348 1340.74 Q141.427 1345.32 141.427 1354.07 Q141.427 1362.8 138.348 1367.41 Q135.292 1371.99 129.482 1371.99 Q123.672 1371.99 120.593 1367.41 Q117.538 1362.8 117.538 1354.07 Q117.538 1345.32 120.593 1340.74 Q123.672 1336.13 129.482 1336.13 Z" fill="#000000" fill-rule="evenodd" fill-opacity="1" /><path clip-path="url(#clip040)" d="M129.482 920.039 Q125.871 920.039 124.042 923.604 Q122.237 927.145 122.237 934.275 Q122.237 941.381 124.042 944.946 Q125.871 948.488 129.482 948.488 Q133.116 948.488 134.922 944.946 Q136.751 941.381 136.751 934.275 Q136.751 927.145 134.922 923.604 Q133.116 920.039 129.482 920.039 M129.482 916.335 Q135.292 916.335 138.348 920.941 Q141.427 925.525 141.427 934.275 Q141.427 943.002 138.348 947.608 Q135.292 952.191 129.482 952.191 Q123.672 952.191 120.593 947.608 Q117.538 943.002 117.538 934.275 Q117.538 925.525 120.593 920.941 Q123.672 916.335 129.482 916.335 Z" fill="#000000" fill-rule="evenodd" fill-opacity="1" /><path clip-path="url(#clip040)" d="M90.1306 527.787 L97.7695 527.787 L97.7695 501.421 L89.4593 503.088 L89.4593 498.829 L97.7232 497.162 L102.399 497.162 L102.399 527.787 L110.038 527.787 L110.038 531.722 L90.1306 531.722 L90.1306 527.787 Z" fill="#000000" fill-rule="evenodd" fill-opacity="1" /><path clip-path="url(#clip040)" d="M129.482 500.241 Q125.871 500.241 124.042 503.806 Q122.237 507.347 122.237 514.477 Q122.237 521.583 124.042 525.148 Q125.871 528.69 129.482 528.69 Q133.116 528.69 134.922 525.148 Q136.751 521.583 136.751 514.477 Q136.751 507.347 134.922 503.806 Q133.116 500.241 129.482 500.241 M129.482 496.537 Q135.292 496.537 138.348 501.144 Q141.427 505.727 141.427 514.477 Q141.427 523.204 138.348 527.81 Q135.292 532.393 129.482 532.393 Q123.672 532.393 120.593 527.81 Q117.538 523.204 117.538 514.477 Q117.538 505.727 120.593 501.144 Q123.672 496.537 129.482 496.537 Z" fill="#000000" fill-rule="evenodd" fill-opacity="1" /><path clip-path="url(#clip040)" d="M93.3482 107.989 L109.668 107.989 L109.668 111.924 L87.7232 111.924 L87.7232 107.989 Q90.3852 105.234 94.9685 100.605 Q99.575 95.952 100.756 94.6094 Q103.001 92.0862 103.881 90.3501 Q104.783 88.5909 104.783 86.9011 Q104.783 84.1465 102.839 82.4104 Q100.918 80.6743 97.8158 80.6743 Q95.6167 80.6743 93.163 81.4381 Q90.7325 82.202 87.9547 83.7529 L87.9547 79.0307 Q90.7788 77.8965 93.2324 77.3178 Q95.6861 76.7391 97.7232 76.7391 Q103.094 76.7391 106.288 79.4243 Q109.482 82.1094 109.482 86.6002 Q109.482 88.7298 108.672 90.6511 Q107.885 92.5492 105.779 95.1418 Q105.2 95.8131 102.098 99.0306 Q98.9963 102.225 93.3482 107.989 Z" fill="#000000" fill-rule="evenodd" fill-opacity="1" /><path clip-path="url(#clip040)" d="M129.482 80.4428 Q125.871 80.4428 124.042 84.0076 Q122.237 87.5492 122.237 94.6788 Q122.237 101.785 124.042 105.35 Q125.871 108.892 129.482 108.892 Q133.116 108.892 134.922 105.35 Q136.751 101.785 136.751 94.6788 Q136.751 87.5492 134.922 84.0076 Q133.116 80.4428 129.482 80.4428 M129.482 76.7391 Q135.292 76.7391 138.348 81.3456 Q141.427 85.9289 141.427 94.6788 Q141.427 103.406 138.348 108.012 Q135.292 112.595 129.482 112.595 Q123.672 112.595 120.593 108.012 Q117.538 103.406 117.538 94.6788 Q117.538 85.9289 120.593 81.3456 Q123.672 76.7391 129.482 76.7391 Z" fill="#000000" fill-rule="evenodd" fill-opacity="1" /><polyline clip-path="url(#clip042)" style="stroke:#009af9; stroke-linecap:round; stroke-linejoin:round; stroke-width:4; stroke-opacity:1; fill:none" points="251.341,948.233 266.445,948.418 406.096,950.388 490.021,951.859 560.979,953.329 638.058,955.232 709.119,957.357 785.303,960.17 873.571,964.427 912.791,966.802 952.012,969.583 986.405,972.444 1020.8,975.81 1058.3,980.226 1095.79,985.692 1114.65,988.964 1133.51,992.68 1152.37,996.938 1171.23,1001.86 1192.09,1008.3 1212.94,1016.09 1233.79,1025.7 1254.64,1037.88 1264.56,1044.89 1274.48,1052.92 1284.41,1062.2 1294.33,1073.05 1304.25,1085.92 1314.17,1101.42 1319.13,1110.42 1324.09,1120.45 1329.05,1131.68 1334.01,1144.36 1339.16,1159.4 1344.32,1176.75 1349.48,1196.99 1354.64,1220.93 1357.21,1234.61 1359.79,1249.66 1362.37,1266.3 1364.95,1284.8 1367.53,1305.47 1370.11,1328.74 1372.69,1355.12 1375.27,1385.28 1376.56,1402.04 1377.84,1420.1 1379.13,1439.6 1380.42,1460.74 1381.71,1483.72 1383,1508.8 1384.29,1536.28 1385.58,1566.51 1386.87,1599.95 1388.16,1637.12 1388.8,1657.31 1389.45,1678.69 1390.09,1701.37 1390.74,1725.48 1391.38,1751.15 "/>
<polyline clip-path="url(#clip042)" style="stroke:#009af9; stroke-linecap:round; stroke-linejoin:round; stroke-width:4; stroke-opacity:1; fill:none" points="1430.63,96.8724 1431.18,119.678 1431.72,141.274 1432.26,161.755 1432.81,181.204 1433.35,199.698 1433.89,217.306 1434.98,250.104 1436.06,280.033 1437.15,307.452 1438.23,332.666 1439.32,355.93 1440.4,377.461 1441.49,397.447 1442.57,416.048 1443.66,433.402 1444.74,449.632 1445.83,464.843 1446.91,479.129 1449.09,505.24 1451.26,528.518 1452.34,539.235 1453.43,549.4 1454.51,559.055 1455.6,568.237 1457.77,585.317 1459.94,600.873 1462.11,615.102 1464.28,628.166 1466.45,640.202 1468.62,651.327 1472.96,671.23 1477.3,688.517 1481.65,703.671 1485.99,717.065 1491.29,731.447 1496.59,744.043 1501.89,755.165 1507.19,765.059 1517.79,781.892 1528.39,795.679 1538.99,807.178 1549.59,816.915 1560.19,825.265 1570.79,832.506 1590.22,843.547 1609.64,852.425 1629.06,859.721 1648.48,865.822 1666.42,870.631 1684.36,874.809 1702.3,878.472 1720.23,881.71 1756.57,887.238 1792.91,891.713 1833.64,895.814 1874.37,899.193 1911.28,901.78 1948.18,904.011 2032.69,908.122 2110.94,911.043 2188.08,913.346 2262.98,915.184 2339.76,916.759 2423.89,918.212 2546.09,919.938 2571.16,920.247 "/>
<path clip-path="url(#clip040)" d="M2260.46 209.375 L2558.79 209.375 L2558.79 105.695 L2260.46 105.695  Z" fill="#ffffff" fill-rule="evenodd" fill-opacity="1"/>
<polyline clip-path="url(#clip040)" style="stroke:#000000; stroke-linecap:round; stroke-linejoin:round; stroke-width:4; stroke-opacity:1; fill:none" points="2260.46,209.375 2558.79,209.375 2558.79,105.695 2260.46,105.695 2260.46,209.375 "/>
<polyline clip-path="url(#clip040)" style="stroke:#009af9; stroke-linecap:round; stroke-linejoin:round; stroke-width:4; stroke-opacity:1; fill:none" points="2287.78,157.535 2451.71,157.535 "/>
<path clip-path="url(#clip040)" d="M2492.88 177.223 Q2491.07 181.852 2489.36 183.264 Q2487.65 184.676 2484.78 184.676 L2481.37 184.676 L2481.37 181.112 L2483.87 181.112 Q2485.63 181.112 2486.61 180.278 Q2487.58 179.445 2488.76 176.343 L2489.52 174.399 L2479.04 148.889 L2483.55 148.889 L2491.65 169.167 L2499.75 148.889 L2504.27 148.889 L2492.88 177.223 Z" fill="#000000" fill-rule="evenodd" fill-opacity="1" /><path clip-path="url(#clip040)" d="M2511.56 170.88 L2519.2 170.88 L2519.2 144.515 L2510.89 146.181 L2510.89 141.922 L2519.15 140.255 L2523.83 140.255 L2523.83 170.88 L2531.47 170.88 L2531.47 174.815 L2511.56 174.815 L2511.56 170.88 Z" fill="#000000" fill-rule="evenodd" fill-opacity="1" /></svg>
