<?xml version="1.0" encoding="utf-8"?>
<svg xmlns="http://www.w3.org/2000/svg" xmlns:xlink="http://www.w3.org/1999/xlink" width="672" height="480" viewBox="0 0 2688 1920">
<defs>
  <clipPath id="clip740">
    <rect x="0" y="0" width="2688" height="1920"/>
  </clipPath>
</defs>
<path clip-path="url(#clip740)" d="
M0 1920 L2688 1920 L2688 0 L0 0  Z
  " fill="#ffffff" fill-rule="evenodd" fill-opacity="1"/>
<defs>
  <clipPath id="clip741">
    <rect x="537" y="0" width="1883" height="1883"/>
  </clipPath>
</defs>
<path clip-path="url(#clip740)" d="
M211.909 1800.78 L2640.76 1800.78 L2640.76 47.2441 L211.909 47.2441  Z
  " fill="#ffffff" fill-rule="evenodd" fill-opacity="1"/>
<defs>
  <clipPath id="clip742">
    <rect x="211" y="47" width="2430" height="1755"/>
  </clipPath>
</defs>
<polyline clip-path="url(#clip742)" style="stroke:#000000; stroke-linecap:butt; stroke-linejoin:round; stroke-width:2; stroke-opacity:0.1; fill:none" points="
  280.649,1800.78 280.649,47.2441 
  "/>
<polyline clip-path="url(#clip742)" style="stroke:#000000; stroke-linecap:butt; stroke-linejoin:round; stroke-width:2; stroke-opacity:0.1; fill:none" points="
  662.544,1800.78 662.544,47.2441 
  "/>
<polyline clip-path="url(#clip742)" style="stroke:#000000; stroke-linecap:butt; stroke-linejoin:round; stroke-width:2; stroke-opacity:0.1; fill:none" points="
  1044.44,1800.78 1044.44,47.2441 
  "/>
<polyline clip-path="url(#clip742)" style="stroke:#000000; stroke-linecap:butt; stroke-linejoin:round; stroke-width:2; stroke-opacity:0.1; fill:none" points="
  1426.33,1800.78 1426.33,47.2441 
  "/>
<polyline clip-path="url(#clip742)" style="stroke:#000000; stroke-linecap:butt; stroke-linejoin:round; stroke-width:2; stroke-opacity:0.1; fill:none" points="
  1808.23,1800.78 1808.23,47.2441 
  "/>
<polyline clip-path="url(#clip742)" style="stroke:#000000; stroke-linecap:butt; stroke-linejoin:round; stroke-width:2; stroke-opacity:0.1; fill:none" points="
  2190.12,1800.78 2190.12,47.2441 
  "/>
<polyline clip-path="url(#clip742)" style="stroke:#000000; stroke-linecap:butt; stroke-linejoin:round; stroke-width:2; stroke-opacity:0.1; fill:none" points="
  2572.01,1800.78 2572.01,47.2441 
  "/>
<polyline clip-path="url(#clip740)" style="stroke:#000000; stroke-linecap:butt; stroke-linejoin:round; stroke-width:4; stroke-opacity:1; fill:none" points="
  211.909,1800.78 2640.76,1800.78 
  "/>
<polyline clip-path="url(#clip740)" style="stroke:#000000; stroke-linecap:butt; stroke-linejoin:round; stroke-width:4; stroke-opacity:1; fill:none" points="
  280.649,1800.78 280.649,1781.88 
  "/>
<polyline clip-path="url(#clip740)" style="stroke:#000000; stroke-linecap:butt; stroke-linejoin:round; stroke-width:4; stroke-opacity:1; fill:none" points="
  662.544,1800.78 662.544,1781.88 
  "/>
<polyline clip-path="url(#clip740)" style="stroke:#000000; stroke-linecap:butt; stroke-linejoin:round; stroke-width:4; stroke-opacity:1; fill:none" points="
  1044.44,1800.78 1044.44,1781.88 
  "/>
<polyline clip-path="url(#clip740)" style="stroke:#000000; stroke-linecap:butt; stroke-linejoin:round; stroke-width:4; stroke-opacity:1; fill:none" points="
  1426.33,1800.78 1426.33,1781.88 
  "/>
<polyline clip-path="url(#clip740)" style="stroke:#000000; stroke-linecap:butt; stroke-linejoin:round; stroke-width:4; stroke-opacity:1; fill:none" points="
  1808.23,1800.78 1808.23,1781.88 
  "/>
<polyline clip-path="url(#clip740)" style="stroke:#000000; stroke-linecap:butt; stroke-linejoin:round; stroke-width:4; stroke-opacity:1; fill:none" points="
  2190.12,1800.78 2190.12,1781.88 
  "/>
<polyline clip-path="url(#clip740)" style="stroke:#000000; stroke-linecap:butt; stroke-linejoin:round; stroke-width:4; stroke-opacity:1; fill:none" points="
  2572.01,1800.78 2572.01,1781.88 
  "/>
<path clip-path="url(#clip740)" d="M250.117 1848.65 L279.793 1848.65 L279.793 1852.59 L250.117 1852.59 L250.117 1848.65 Z" fill="#000000" fill-rule="evenodd" fill-opacity="1" /><path clip-path="url(#clip740)" d="M304.052 1846.85 Q307.409 1847.57 309.284 1849.84 Q311.182 1852.1 311.182 1855.44 Q311.182 1860.55 307.663 1863.35 Q304.145 1866.15 297.663 1866.15 Q295.487 1866.15 293.173 1865.71 Q290.881 1865.3 288.427 1864.44 L288.427 1859.93 Q290.372 1861.06 292.686 1861.64 Q295.001 1862.22 297.524 1862.22 Q301.923 1862.22 304.214 1860.48 Q306.529 1858.75 306.529 1855.44 Q306.529 1852.38 304.376 1850.67 Q302.247 1848.93 298.427 1848.93 L294.399 1848.93 L294.399 1845.09 L298.612 1845.09 Q302.061 1845.09 303.89 1843.72 Q305.719 1842.34 305.719 1839.74 Q305.719 1837.08 303.821 1835.67 Q301.946 1834.23 298.427 1834.23 Q296.506 1834.23 294.307 1834.65 Q292.108 1835.07 289.469 1835.95 L289.469 1831.78 Q292.131 1831.04 294.446 1830.67 Q296.784 1830.3 298.844 1830.3 Q304.168 1830.3 307.27 1832.73 Q310.372 1835.14 310.372 1839.26 Q310.372 1842.13 308.728 1844.12 Q307.085 1846.09 304.052 1846.85 Z" fill="#000000" fill-rule="evenodd" fill-opacity="1" /><path clip-path="url(#clip740)" d="M632.486 1848.65 L662.162 1848.65 L662.162 1852.59 L632.486 1852.59 L632.486 1848.65 Z" fill="#000000" fill-rule="evenodd" fill-opacity="1" /><path clip-path="url(#clip740)" d="M676.282 1861.55 L692.601 1861.55 L692.601 1865.48 L670.657 1865.48 L670.657 1861.55 Q673.319 1858.79 677.902 1854.16 Q682.509 1849.51 683.689 1848.17 Q685.935 1845.65 686.814 1843.91 Q687.717 1842.15 687.717 1840.46 Q687.717 1837.71 685.773 1835.97 Q683.851 1834.23 680.75 1834.23 Q678.551 1834.23 676.097 1835 Q673.666 1835.76 670.889 1837.31 L670.889 1832.59 Q673.713 1831.46 676.166 1830.88 Q678.62 1830.3 680.657 1830.3 Q686.027 1830.3 689.222 1832.98 Q692.416 1835.67 692.416 1840.16 Q692.416 1842.29 691.606 1844.21 Q690.819 1846.11 688.713 1848.7 Q688.134 1849.37 685.032 1852.59 Q681.93 1855.78 676.282 1861.55 Z" fill="#000000" fill-rule="evenodd" fill-opacity="1" /><path clip-path="url(#clip740)" d="M1014.2 1848.65 L1043.87 1848.65 L1043.87 1852.59 L1014.2 1852.59 L1014.2 1848.65 Z" fill="#000000" fill-rule="evenodd" fill-opacity="1" /><path clip-path="url(#clip740)" d="M1054.77 1861.55 L1062.41 1861.55 L1062.41 1835.18 L1054.1 1836.85 L1054.1 1832.59 L1062.37 1830.92 L1067.04 1830.92 L1067.04 1861.55 L1074.68 1861.55 L1074.68 1865.48 L1054.77 1865.48 L1054.77 1861.55 Z" fill="#000000" fill-rule="evenodd" fill-opacity="1" /><path clip-path="url(#clip740)" d="M1426.33 1834 Q1422.72 1834 1420.89 1837.57 Q1419.09 1841.11 1419.09 1848.24 Q1419.09 1855.34 1420.89 1858.91 Q1422.72 1862.45 1426.33 1862.45 Q1429.97 1862.45 1431.77 1858.91 Q1433.6 1855.34 1433.6 1848.24 Q1433.6 1841.11 1431.77 1837.57 Q1429.97 1834 1426.33 1834 M1426.33 1830.3 Q1432.14 1830.3 1435.2 1834.9 Q1438.28 1839.49 1438.28 1848.24 Q1438.28 1856.96 1435.2 1861.57 Q1432.14 1866.15 1426.33 1866.15 Q1420.52 1866.15 1417.44 1861.57 Q1414.39 1856.96 1414.39 1848.24 Q1414.39 1839.49 1417.44 1834.9 Q1420.52 1830.3 1426.33 1830.3 Z" fill="#000000" fill-rule="evenodd" fill-opacity="1" /><path clip-path="url(#clip740)" d="M1798.61 1861.55 L1806.25 1861.55 L1806.25 1835.18 L1797.94 1836.85 L1797.94 1832.59 L1806.2 1830.92 L1810.88 1830.92 L1810.88 1861.55 L1818.52 1861.55 L1818.52 1865.48 L1798.61 1865.48 L1798.61 1861.55 Z" fill="#000000" fill-rule="evenodd" fill-opacity="1" /><path clip-path="url(#clip740)" d="M2184.77 1861.55 L2201.09 1861.55 L2201.09 1865.48 L2179.15 1865.48 L2179.15 1861.55 Q2181.81 1858.79 2186.39 1854.16 Q2191 1849.51 2192.18 1848.17 Q2194.43 1845.65 2195.31 1843.91 Q2196.21 1842.15 2196.21 1840.46 Q2196.21 1837.71 2194.26 1835.97 Q2192.34 1834.23 2189.24 1834.23 Q2187.04 1834.23 2184.59 1835 Q2182.16 1835.76 2179.38 1837.31 L2179.38 1832.59 Q2182.2 1831.46 2184.66 1830.88 Q2187.11 1830.3 2189.15 1830.3 Q2194.52 1830.3 2197.71 1832.98 Q2200.91 1835.67 2200.91 1840.16 Q2200.91 1842.29 2200.1 1844.21 Q2199.31 1846.11 2197.2 1848.7 Q2196.63 1849.37 2193.52 1852.59 Q2190.42 1855.78 2184.77 1861.55 Z" fill="#000000" fill-rule="evenodd" fill-opacity="1" /><path clip-path="url(#clip740)" d="M2576.26 1846.85 Q2579.62 1847.57 2581.49 1849.84 Q2583.39 1852.1 2583.39 1855.44 Q2583.39 1860.55 2579.87 1863.35 Q2576.36 1866.15 2569.87 1866.15 Q2567.7 1866.15 2565.38 1865.71 Q2563.09 1865.3 2560.64 1864.44 L2560.64 1859.93 Q2562.58 1861.06 2564.9 1861.64 Q2567.21 1862.22 2569.73 1862.22 Q2574.13 1862.22 2576.42 1860.48 Q2578.74 1858.75 2578.74 1855.44 Q2578.74 1852.38 2576.59 1850.67 Q2574.46 1848.93 2570.64 1848.93 L2566.61 1848.93 L2566.61 1845.09 L2570.82 1845.09 Q2574.27 1845.09 2576.1 1843.72 Q2577.93 1842.34 2577.93 1839.74 Q2577.93 1837.08 2576.03 1835.67 Q2574.16 1834.23 2570.64 1834.23 Q2568.72 1834.23 2566.52 1834.65 Q2564.32 1835.07 2561.68 1835.95 L2561.68 1831.78 Q2564.34 1831.04 2566.66 1830.67 Q2568.99 1830.3 2571.05 1830.3 Q2576.38 1830.3 2579.48 1832.73 Q2582.58 1835.14 2582.58 1839.26 Q2582.58 1842.13 2580.94 1844.12 Q2579.29 1846.09 2576.26 1846.85 Z" fill="#000000" fill-rule="evenodd" fill-opacity="1" /><polyline clip-path="url(#clip742)" style="stroke:#000000; stroke-linecap:butt; stroke-linejoin:round; stroke-width:2; stroke-opacity:0.1; fill:none" points="
  211.909,1651.13 2640.76,1651.13 
  "/>
<polyline clip-path="url(#clip742)" style="stroke:#000000; stroke-linecap:butt; stroke-linejoin:round; stroke-width:2; stroke-opacity:0.1; fill:none" points="
  211.909,1416.29 2640.76,1416.29 
  "/>
<polyline clip-path="url(#clip742)" style="stroke:#000000; stroke-linecap:butt; stroke-linejoin:round; stroke-width:2; stroke-opacity:0.1; fill:none" points="
  211.909,1181.44 2640.76,1181.44 
  "/>
<polyline clip-path="url(#clip742)" style="stroke:#000000; stroke-linecap:butt; stroke-linejoin:round; stroke-width:2; stroke-opacity:0.1; fill:none" points="
  211.909,946.6 2640.76,946.6 
  "/>
<polyline clip-path="url(#clip742)" style="stroke:#000000; stroke-linecap:butt; stroke-linejoin:round; stroke-width:2; stroke-opacity:0.1; fill:none" points="
  211.909,711.758 2640.76,711.758 
  "/>
<polyline clip-path="url(#clip742)" style="stroke:#000000; stroke-linecap:butt; stroke-linejoin:round; stroke-width:2; stroke-opacity:0.1; fill:none" points="
  211.909,476.915 2640.76,476.915 
  "/>
<polyline clip-path="url(#clip742)" style="stroke:#000000; stroke-linecap:butt; stroke-linejoin:round; stroke-width:2; stroke-opacity:0.1; fill:none" points="
  211.909,242.072 2640.76,242.072 
  "/>
<polyline clip-path="url(#clip740)" style="stroke:#000000; stroke-linecap:butt; stroke-linejoin:round; stroke-width:4; stroke-opacity:1; fill:none" points="
  211.909,1800.78 211.909,47.2441 
  "/>
<polyline clip-path="url(#clip740)" style="stroke:#000000; stroke-linecap:butt; stroke-linejoin:round; stroke-width:4; stroke-opacity:1; fill:none" points="
  211.909,1651.13 230.806,1651.13 
  "/>
<polyline clip-path="url(#clip740)" style="stroke:#000000; stroke-linecap:butt; stroke-linejoin:round; stroke-width:4; stroke-opacity:1; fill:none" points="
  211.909,1416.29 230.806,1416.29 
  "/>
<polyline clip-path="url(#clip740)" style="stroke:#000000; stroke-linecap:butt; stroke-linejoin:round; stroke-width:4; stroke-opacity:1; fill:none" points="
  211.909,1181.44 230.806,1181.44 
  "/>
<polyline clip-path="url(#clip740)" style="stroke:#000000; stroke-linecap:butt; stroke-linejoin:round; stroke-width:4; stroke-opacity:1; fill:none" points="
  211.909,946.6 230.806,946.6 
  "/>
<polyline clip-path="url(#clip740)" style="stroke:#000000; stroke-linecap:butt; stroke-linejoin:round; stroke-width:4; stroke-opacity:1; fill:none" points="
  211.909,711.758 230.806,711.758 
  "/>
<polyline clip-path="url(#clip740)" style="stroke:#000000; stroke-linecap:butt; stroke-linejoin:round; stroke-width:4; stroke-opacity:1; fill:none" points="
  211.909,476.915 230.806,476.915 
  "/>
<polyline clip-path="url(#clip740)" style="stroke:#000000; stroke-linecap:butt; stroke-linejoin:round; stroke-width:4; stroke-opacity:1; fill:none" points="
  211.909,242.072 230.806,242.072 
  "/>
<path clip-path="url(#clip740)" d="M49.5521 1651.58 L79.2279 1651.58 L79.2279 1655.51 L49.5521 1655.51 L49.5521 1651.58 Z" fill="#000000" fill-rule="evenodd" fill-opacity="1" /><path clip-path="url(#clip740)" d="M88.1399 1633.85 L110.362 1633.85 L110.362 1635.84 L97.8158 1668.41 L92.9315 1668.41 L104.737 1637.78 L88.1399 1637.78 L88.1399 1633.85 Z" fill="#000000" fill-rule="evenodd" fill-opacity="1" /><path clip-path="url(#clip740)" d="M119.529 1633.85 L137.885 1633.85 L137.885 1637.78 L123.811 1637.78 L123.811 1646.26 Q124.83 1645.91 125.848 1645.75 Q126.867 1645.56 127.885 1645.56 Q133.672 1645.56 137.052 1648.73 Q140.431 1651.9 140.431 1657.32 Q140.431 1662.9 136.959 1666 Q133.487 1669.08 127.167 1669.08 Q124.992 1669.08 122.723 1668.71 Q120.478 1668.34 118.07 1667.6 L118.07 1662.9 Q120.154 1664.03 122.376 1664.59 Q124.598 1665.14 127.075 1665.14 Q131.079 1665.14 133.417 1663.04 Q135.755 1660.93 135.755 1657.32 Q135.755 1653.71 133.417 1651.6 Q131.079 1649.5 127.075 1649.5 Q125.2 1649.5 123.325 1649.91 Q121.473 1650.33 119.529 1651.21 L119.529 1633.85 Z" fill="#000000" fill-rule="evenodd" fill-opacity="1" /><path clip-path="url(#clip740)" d="M159.644 1636.93 Q156.033 1636.93 154.204 1640.49 Q152.399 1644.03 152.399 1651.16 Q152.399 1658.27 154.204 1661.83 Q156.033 1665.38 159.644 1665.38 Q163.278 1665.38 165.084 1661.83 Q166.913 1658.27 166.913 1651.16 Q166.913 1644.03 165.084 1640.49 Q163.278 1636.93 159.644 1636.93 M159.644 1633.22 Q165.454 1633.22 168.51 1637.83 Q171.589 1642.41 171.589 1651.16 Q171.589 1659.89 168.51 1664.5 Q165.454 1669.08 159.644 1669.08 Q153.834 1669.08 150.755 1664.5 Q147.7 1659.89 147.7 1651.16 Q147.7 1642.41 150.755 1637.83 Q153.834 1633.22 159.644 1633.22 Z" fill="#000000" fill-rule="evenodd" fill-opacity="1" /><path clip-path="url(#clip740)" d="M49.5521 1416.74 L79.2279 1416.74 L79.2279 1420.67 L49.5521 1420.67 L49.5521 1416.74 Z" fill="#000000" fill-rule="evenodd" fill-opacity="1" /><path clip-path="url(#clip740)" d="M89.3667 1399.01 L107.723 1399.01 L107.723 1402.94 L93.6491 1402.94 L93.6491 1411.41 Q94.6676 1411.07 95.6861 1410.9 Q96.7047 1410.72 97.7232 1410.72 Q103.51 1410.72 106.89 1413.89 Q110.269 1417.06 110.269 1422.48 Q110.269 1428.06 106.797 1431.16 Q103.325 1434.24 97.0056 1434.24 Q94.8297 1434.24 92.5612 1433.87 Q90.3158 1433.5 87.9084 1432.76 L87.9084 1428.06 Q89.9917 1429.19 92.2139 1429.75 Q94.4361 1430.3 96.913 1430.3 Q100.918 1430.3 103.256 1428.2 Q105.593 1426.09 105.593 1422.48 Q105.593 1418.87 103.256 1416.76 Q100.918 1414.65 96.913 1414.65 Q95.038 1414.65 93.163 1415.07 Q91.3112 1415.49 89.3667 1416.37 L89.3667 1399.01 Z" fill="#000000" fill-rule="evenodd" fill-opacity="1" /><path clip-path="url(#clip740)" d="M129.482 1402.08 Q125.871 1402.08 124.042 1405.65 Q122.237 1409.19 122.237 1416.32 Q122.237 1423.43 124.042 1426.99 Q125.871 1430.53 129.482 1430.53 Q133.116 1430.53 134.922 1426.99 Q136.751 1423.43 136.751 1416.32 Q136.751 1409.19 134.922 1405.65 Q133.116 1402.08 129.482 1402.08 M129.482 1398.38 Q135.292 1398.38 138.348 1402.99 Q141.427 1407.57 141.427 1416.32 Q141.427 1425.05 138.348 1429.65 Q135.292 1434.24 129.482 1434.24 Q123.672 1434.24 120.593 1429.65 Q117.538 1425.05 117.538 1416.32 Q117.538 1407.57 120.593 1402.99 Q123.672 1398.38 129.482 1398.38 Z" fill="#000000" fill-rule="evenodd" fill-opacity="1" /><path clip-path="url(#clip740)" d="M159.644 1402.08 Q156.033 1402.08 154.204 1405.65 Q152.399 1409.19 152.399 1416.32 Q152.399 1423.43 154.204 1426.99 Q156.033 1430.53 159.644 1430.53 Q163.278 1430.53 165.084 1426.99 Q166.913 1423.43 166.913 1416.32 Q166.913 1409.19 165.084 1405.65 Q163.278 1402.08 159.644 1402.08 M159.644 1398.38 Q165.454 1398.38 168.51 1402.99 Q171.589 1407.57 171.589 1416.32 Q171.589 1425.05 168.51 1429.65 Q165.454 1434.24 159.644 1434.24 Q153.834 1434.24 150.755 1429.65 Q147.7 1425.05 147.7 1416.32 Q147.7 1407.57 150.755 1402.99 Q153.834 1398.38 159.644 1398.38 Z" fill="#000000" fill-rule="evenodd" fill-opacity="1" /><path clip-path="url(#clip740)" d="M49.5521 1181.89 L79.2279 1181.89 L79.2279 1185.83 L49.5521 1185.83 L49.5521 1181.89 Z" fill="#000000" fill-rule="evenodd" fill-opacity="1" /><path clip-path="url(#clip740)" d="M93.3482 1194.79 L109.668 1194.79 L109.668 1198.72 L87.7232 1198.72 L87.7232 1194.79 Q90.3852 1192.03 94.9685 1187.4 Q99.575 1182.75 100.756 1181.41 Q103.001 1178.89 103.881 1177.15 Q104.783 1175.39 104.783 1173.7 Q104.783 1170.95 102.839 1169.21 Q100.918 1167.47 97.8158 1167.47 Q95.6167 1167.47 93.163 1168.24 Q90.7325 1169 87.9547 1170.55 L87.9547 1165.83 Q90.7788 1164.7 93.2324 1164.12 Q95.6861 1163.54 97.7232 1163.54 Q103.094 1163.54 106.288 1166.22 Q109.482 1168.91 109.482 1173.4 Q109.482 1175.53 108.672 1177.45 Q107.885 1179.35 105.779 1181.94 Q105.2 1182.61 102.098 1185.83 Q98.9963 1189.02 93.3482 1194.79 Z" fill="#000000" fill-rule="evenodd" fill-opacity="1" /><path clip-path="url(#clip740)" d="M119.529 1164.16 L137.885 1164.16 L137.885 1168.1 L123.811 1168.1 L123.811 1176.57 Q124.83 1176.22 125.848 1176.06 Q126.867 1175.88 127.885 1175.88 Q133.672 1175.88 137.052 1179.05 Q140.431 1182.22 140.431 1187.64 Q140.431 1193.21 136.959 1196.32 Q133.487 1199.39 127.167 1199.39 Q124.992 1199.39 122.723 1199.02 Q120.478 1198.65 118.07 1197.91 L118.07 1193.21 Q120.154 1194.35 122.376 1194.9 Q124.598 1195.46 127.075 1195.46 Q131.079 1195.46 133.417 1193.35 Q135.755 1191.25 135.755 1187.64 Q135.755 1184.02 133.417 1181.92 Q131.079 1179.81 127.075 1179.81 Q125.2 1179.81 123.325 1180.23 Q121.473 1180.64 119.529 1181.52 L119.529 1164.16 Z" fill="#000000" fill-rule="evenodd" fill-opacity="1" /><path clip-path="url(#clip740)" d="M159.644 1167.24 Q156.033 1167.24 154.204 1170.81 Q152.399 1174.35 152.399 1181.48 Q152.399 1188.58 154.204 1192.15 Q156.033 1195.69 159.644 1195.69 Q163.278 1195.69 165.084 1192.15 Q166.913 1188.58 166.913 1181.48 Q166.913 1174.35 165.084 1170.81 Q163.278 1167.24 159.644 1167.24 M159.644 1163.54 Q165.454 1163.54 168.51 1168.14 Q171.589 1172.73 171.589 1181.48 Q171.589 1190.2 168.51 1194.81 Q165.454 1199.39 159.644 1199.39 Q153.834 1199.39 150.755 1194.81 Q147.7 1190.2 147.7 1181.48 Q147.7 1172.73 150.755 1168.14 Q153.834 1163.54 159.644 1163.54 Z" fill="#000000" fill-rule="evenodd" fill-opacity="1" /><path clip-path="url(#clip740)" d="M159.644 932.399 Q156.033 932.399 154.204 935.964 Q152.399 939.505 152.399 946.635 Q152.399 953.741 154.204 957.306 Q156.033 960.848 159.644 960.848 Q163.278 960.848 165.084 957.306 Q166.913 953.741 166.913 946.635 Q166.913 939.505 165.084 935.964 Q163.278 932.399 159.644 932.399 M159.644 928.695 Q165.454 928.695 168.51 933.302 Q171.589 937.885 171.589 946.635 Q171.589 955.362 168.51 959.968 Q165.454 964.552 159.644 964.552 Q153.834 964.552 150.755 959.968 Q147.7 955.362 147.7 946.635 Q147.7 937.885 150.755 933.302 Q153.834 928.695 159.644 928.695 Z" fill="#000000" fill-rule="evenodd" fill-opacity="1" /><path clip-path="url(#clip740)" d="M93.3482 725.102 L109.668 725.102 L109.668 729.038 L87.7232 729.038 L87.7232 725.102 Q90.3852 722.348 94.9685 717.718 Q99.575 713.065 100.756 711.723 Q103.001 709.2 103.881 707.464 Q104.783 705.704 104.783 704.015 Q104.783 701.26 102.839 699.524 Q100.918 697.788 97.8158 697.788 Q95.6167 697.788 93.163 698.552 Q90.7325 699.315 87.9547 700.866 L87.9547 696.144 Q90.7788 695.01 93.2324 694.431 Q95.6861 693.853 97.7232 693.853 Q103.094 693.853 106.288 696.538 Q109.482 699.223 109.482 703.714 Q109.482 705.843 108.672 707.765 Q107.885 709.663 105.779 712.255 Q105.2 712.927 102.098 716.144 Q98.9963 719.339 93.3482 725.102 Z" fill="#000000" fill-rule="evenodd" fill-opacity="1" /><path clip-path="url(#clip740)" d="M119.529 694.478 L137.885 694.478 L137.885 698.413 L123.811 698.413 L123.811 706.885 Q124.83 706.538 125.848 706.376 Q126.867 706.19 127.885 706.19 Q133.672 706.19 137.052 709.362 Q140.431 712.533 140.431 717.95 Q140.431 723.528 136.959 726.63 Q133.487 729.709 127.167 729.709 Q124.992 729.709 122.723 729.338 Q120.478 728.968 118.07 728.227 L118.07 723.528 Q120.154 724.663 122.376 725.218 Q124.598 725.774 127.075 725.774 Q131.079 725.774 133.417 723.667 Q135.755 721.561 135.755 717.95 Q135.755 714.339 133.417 712.232 Q131.079 710.126 127.075 710.126 Q125.2 710.126 123.325 710.542 Q121.473 710.959 119.529 711.839 L119.529 694.478 Z" fill="#000000" fill-rule="evenodd" fill-opacity="1" /><path clip-path="url(#clip740)" d="M159.644 697.556 Q156.033 697.556 154.204 701.121 Q152.399 704.663 152.399 711.792 Q152.399 718.899 154.204 722.464 Q156.033 726.005 159.644 726.005 Q163.278 726.005 165.084 722.464 Q166.913 718.899 166.913 711.792 Q166.913 704.663 165.084 701.121 Q163.278 697.556 159.644 697.556 M159.644 693.853 Q165.454 693.853 168.51 698.459 Q171.589 703.042 171.589 711.792 Q171.589 720.519 168.51 725.126 Q165.454 729.709 159.644 729.709 Q153.834 729.709 150.755 725.126 Q147.7 720.519 147.7 711.792 Q147.7 703.042 150.755 698.459 Q153.834 693.853 159.644 693.853 Z" fill="#000000" fill-rule="evenodd" fill-opacity="1" /><path clip-path="url(#clip740)" d="M89.3667 459.635 L107.723 459.635 L107.723 463.57 L93.6491 463.57 L93.6491 472.042 Q94.6676 471.695 95.6861 471.533 Q96.7047 471.348 97.7232 471.348 Q103.51 471.348 106.89 474.519 Q110.269 477.69 110.269 483.107 Q110.269 488.686 106.797 491.787 Q103.325 494.866 97.0056 494.866 Q94.8297 494.866 92.5612 494.496 Q90.3158 494.125 87.9084 493.385 L87.9084 488.686 Q89.9917 489.82 92.2139 490.375 Q94.4361 490.931 96.913 490.931 Q100.918 490.931 103.256 488.825 Q105.593 486.718 105.593 483.107 Q105.593 479.496 103.256 477.389 Q100.918 475.283 96.913 475.283 Q95.038 475.283 93.163 475.7 Q91.3112 476.116 89.3667 476.996 L89.3667 459.635 Z" fill="#000000" fill-rule="evenodd" fill-opacity="1" /><path clip-path="url(#clip740)" d="M129.482 462.714 Q125.871 462.714 124.042 466.278 Q122.237 469.82 122.237 476.95 Q122.237 484.056 124.042 487.621 Q125.871 491.162 129.482 491.162 Q133.116 491.162 134.922 487.621 Q136.751 484.056 136.751 476.95 Q136.751 469.82 134.922 466.278 Q133.116 462.714 129.482 462.714 M129.482 459.01 Q135.292 459.01 138.348 463.616 Q141.427 468.2 141.427 476.95 Q141.427 485.676 138.348 490.283 Q135.292 494.866 129.482 494.866 Q123.672 494.866 120.593 490.283 Q117.538 485.676 117.538 476.95 Q117.538 468.2 120.593 463.616 Q123.672 459.01 129.482 459.01 Z" fill="#000000" fill-rule="evenodd" fill-opacity="1" /><path clip-path="url(#clip740)" d="M159.644 462.714 Q156.033 462.714 154.204 466.278 Q152.399 469.82 152.399 476.95 Q152.399 484.056 154.204 487.621 Q156.033 491.162 159.644 491.162 Q163.278 491.162 165.084 487.621 Q166.913 484.056 166.913 476.95 Q166.913 469.82 165.084 466.278 Q163.278 462.714 159.644 462.714 M159.644 459.01 Q165.454 459.01 168.51 463.616 Q171.589 468.2 171.589 476.95 Q171.589 485.676 168.51 490.283 Q165.454 494.866 159.644 494.866 Q153.834 494.866 150.755 490.283 Q147.7 485.676 147.7 476.95 Q147.7 468.2 150.755 463.616 Q153.834 459.01 159.644 459.01 Z" fill="#000000" fill-rule="evenodd" fill-opacity="1" /><path clip-path="url(#clip740)" d="M88.1399 224.792 L110.362 224.792 L110.362 226.783 L97.8158 259.352 L92.9315 259.352 L104.737 228.727 L88.1399 228.727 L88.1399 224.792 Z" fill="#000000" fill-rule="evenodd" fill-opacity="1" /><path clip-path="url(#clip740)" d="M119.529 224.792 L137.885 224.792 L137.885 228.727 L123.811 228.727 L123.811 237.199 Q124.83 236.852 125.848 236.69 Q126.867 236.505 127.885 236.505 Q133.672 236.505 137.052 239.676 Q140.431 242.848 140.431 248.264 Q140.431 253.843 136.959 256.945 Q133.487 260.023 127.167 260.023 Q124.992 260.023 122.723 259.653 Q120.478 259.283 118.07 258.542 L118.07 253.843 Q120.154 254.977 122.376 255.533 Q124.598 256.088 127.075 256.088 Q131.079 256.088 133.417 253.982 Q135.755 251.875 135.755 248.264 Q135.755 244.653 133.417 242.547 Q131.079 240.44 127.075 240.44 Q125.2 240.44 123.325 240.857 Q121.473 241.274 119.529 242.153 L119.529 224.792 Z" fill="#000000" fill-rule="evenodd" fill-opacity="1" /><path clip-path="url(#clip740)" d="M159.644 227.871 Q156.033 227.871 154.204 231.436 Q152.399 234.977 152.399 242.107 Q152.399 249.213 154.204 252.778 Q156.033 256.32 159.644 256.32 Q163.278 256.32 165.084 252.778 Q166.913 249.213 166.913 242.107 Q166.913 234.977 165.084 231.436 Q163.278 227.871 159.644 227.871 M159.644 224.167 Q165.454 224.167 168.51 228.774 Q171.589 233.357 171.589 242.107 Q171.589 250.834 168.51 255.44 Q165.454 260.023 159.644 260.023 Q153.834 260.023 150.755 255.44 Q147.7 250.834 147.7 242.107 Q147.7 233.357 150.755 228.774 Q153.834 224.167 159.644 224.167 Z" fill="#000000" fill-rule="evenodd" fill-opacity="1" /><polyline clip-path="url(#clip742)" style="stroke:#009af9; stroke-linecap:butt; stroke-linejoin:round; stroke-width:4; stroke-opacity:1; fill:none" points="
  280.649,946.913 303.027,946.92 509.935,946.992 634.278,947.053 739.409,947.123 853.61,947.227 958.893,947.368 1071.77,947.612 1202.55,948.203 1231.6,948.442 
  1260.65,948.766 1289.71,949.226 1318.76,949.935 1331.5,950.383 1344.24,950.97 1356.98,951.773 1369.72,952.937 1376.09,953.741 1382.46,954.777 1388.83,956.166 
  1395.2,958.123 1401.57,961.087 1407.94,966.104 1411.12,970.188 1414.31,976.436 1415.9,980.99 1417.49,987.186 1419.09,996.104 1420.68,1010.05 1421.55,1021.55 
  1422.41,1038.16 1423.28,1064.22 1424.15,1111.01 1425.02,1219.62 1425.89,1751.15 1426.75,96.8724 1427.62,668.562 1428.49,780.388 1429.36,828.063 1430.23,854.485 
  1431.09,871.275 1432.83,891.398 1434.57,903.036 1436.3,910.622 1438.04,915.957 1439.78,919.915 1441.51,922.967 1444.98,927.367 1448.46,930.385 1455.4,934.259 
  1462.35,936.639 1469.29,938.249 1476.23,939.411 1490.12,940.977 1504.01,941.982 1517.9,942.683 1531.79,943.199 1559.73,943.911 1587.68,944.377 1615.62,944.705 
  1643.56,944.949 1767.14,945.548 1884.73,945.818 2006.99,945.982 2109.9,946.075 2235.55,946.157 2353.67,946.213 2542.89,946.279 2572.01,946.287 
  "/>
<path clip-path="url(#clip740)" d="
M2237.49 209.375 L2559.79 209.375 L2559.79 105.695 L2237.49 105.695  Z
  " fill="#ffffff" fill-rule="evenodd" fill-opacity="1"/>
<polyline clip-path="url(#clip740)" style="stroke:#000000; stroke-linecap:butt; stroke-linejoin:round; stroke-width:4; stroke-opacity:1; fill:none" points="
  2237.49,209.375 2559.79,209.375 2559.79,105.695 2237.49,105.695 2237.49,209.375 
  "/>
<polyline clip-path="url(#clip740)" style="stroke:#009af9; stroke-linecap:butt; stroke-linejoin:round; stroke-width:4; stroke-opacity:1; fill:none" points="
  2264.48,157.535 2426.4,157.535 
  "/>
<path clip-path="url(#clip740)" d="M2467.23 177.223 Q2465.43 181.852 2463.71 183.264 Q2462 184.676 2459.13 184.676 L2455.73 184.676 L2455.73 181.112 L2458.23 181.112 Q2459.99 181.112 2460.96 180.278 Q2461.93 179.445 2463.11 176.343 L2463.88 174.399 L2453.39 148.889 L2457.9 148.889 L2466.01 169.167 L2474.11 148.889 L2478.62 148.889 L2467.23 177.223 Z" fill="#000000" fill-rule="evenodd" fill-opacity="1" /><path clip-path="url(#clip740)" d="M2485.91 170.88 L2493.55 170.88 L2493.55 144.515 L2485.24 146.181 L2485.24 141.922 L2493.51 140.255 L2498.18 140.255 L2498.18 170.88 L2505.82 170.88 L2505.82 174.815 L2485.91 174.815 L2485.91 170.88 Z" fill="#000000" fill-rule="evenodd" fill-opacity="1" /></svg>
