<?xml version="1.0" encoding="utf-8"?>
<svg xmlns="http://www.w3.org/2000/svg" xmlns:xlink="http://www.w3.org/1999/xlink" width="672" height="480" viewBox="0 0 2688 1920">
<defs>
  <clipPath id="clip250">
    <rect x="0" y="0" width="2688" height="1920"/>
  </clipPath>
</defs>
<path clip-path="url(#clip250)" d="
M0 1920 L2688 1920 L2688 0 L0 0  Z
  " fill="#ffffff" fill-rule="evenodd" fill-opacity="1"/>
<defs>
  <clipPath id="clip251">
    <rect x="537" y="0" width="1883" height="1883"/>
  </clipPath>
</defs>
<path clip-path="url(#clip250)" d="
M188.807 1800.78 L2640.76 1800.78 L2640.76 47.2441 L188.807 47.2441  Z
  " fill="#ffffff" fill-rule="evenodd" fill-opacity="1"/>
<defs>
  <clipPath id="clip252">
    <rect x="188" y="47" width="2453" height="1755"/>
  </clipPath>
</defs>
<polyline clip-path="url(#clip252)" style="stroke:#000000; stroke-linecap:butt; stroke-linejoin:round; stroke-width:2; stroke-opacity:0.1; fill:none" points="
  496.476,1800.78 496.476,47.2441 
  "/>
<polyline clip-path="url(#clip252)" style="stroke:#000000; stroke-linecap:butt; stroke-linejoin:round; stroke-width:2; stroke-opacity:0.1; fill:none" points="
  973.025,1800.78 973.025,47.2441 
  "/>
<polyline clip-path="url(#clip252)" style="stroke:#000000; stroke-linecap:butt; stroke-linejoin:round; stroke-width:2; stroke-opacity:0.1; fill:none" points="
  1449.57,1800.78 1449.57,47.2441 
  "/>
<polyline clip-path="url(#clip252)" style="stroke:#000000; stroke-linecap:butt; stroke-linejoin:round; stroke-width:2; stroke-opacity:0.1; fill:none" points="
  1926.12,1800.78 1926.12,47.2441 
  "/>
<polyline clip-path="url(#clip252)" style="stroke:#000000; stroke-linecap:butt; stroke-linejoin:round; stroke-width:2; stroke-opacity:0.1; fill:none" points="
  2402.67,1800.78 2402.67,47.2441 
  "/>
<polyline clip-path="url(#clip250)" style="stroke:#000000; stroke-linecap:butt; stroke-linejoin:round; stroke-width:4; stroke-opacity:1; fill:none" points="
  188.807,1800.78 2640.76,1800.78 
  "/>
<polyline clip-path="url(#clip250)" style="stroke:#000000; stroke-linecap:butt; stroke-linejoin:round; stroke-width:4; stroke-opacity:1; fill:none" points="
  496.476,1800.78 496.476,1781.88 
  "/>
<polyline clip-path="url(#clip250)" style="stroke:#000000; stroke-linecap:butt; stroke-linejoin:round; stroke-width:4; stroke-opacity:1; fill:none" points="
  973.025,1800.78 973.025,1781.88 
  "/>
<polyline clip-path="url(#clip250)" style="stroke:#000000; stroke-linecap:butt; stroke-linejoin:round; stroke-width:4; stroke-opacity:1; fill:none" points="
  1449.57,1800.78 1449.57,1781.88 
  "/>
<polyline clip-path="url(#clip250)" style="stroke:#000000; stroke-linecap:butt; stroke-linejoin:round; stroke-width:4; stroke-opacity:1; fill:none" points="
  1926.12,1800.78 1926.12,1781.88 
  "/>
<polyline clip-path="url(#clip250)" style="stroke:#000000; stroke-linecap:butt; stroke-linejoin:round; stroke-width:4; stroke-opacity:1; fill:none" points="
  2402.67,1800.78 2402.67,1781.88 
  "/>
<path clip-path="url(#clip250)" d="M473.617 1834 Q470.006 1834 468.178 1837.57 Q466.372 1841.11 466.372 1848.24 Q466.372 1855.34 468.178 1858.91 Q470.006 1862.45 473.617 1862.45 Q477.252 1862.45 479.057 1858.91 Q480.886 1855.34 480.886 1848.24 Q480.886 1841.11 479.057 1837.57 Q477.252 1834 473.617 1834 M473.617 1830.3 Q479.427 1830.3 482.483 1834.9 Q485.562 1839.49 485.562 1848.24 Q485.562 1856.96 482.483 1861.57 Q479.427 1866.15 473.617 1866.15 Q467.807 1866.15 464.728 1861.57 Q461.673 1856.96 461.673 1848.24 Q461.673 1839.49 464.728 1834.9 Q467.807 1830.3 473.617 1830.3 Z" fill="#000000" fill-rule="evenodd" fill-opacity="1" /><path clip-path="url(#clip250)" d="M493.779 1859.6 L498.663 1859.6 L498.663 1865.48 L493.779 1865.48 L493.779 1859.6 Z" fill="#000000" fill-rule="evenodd" fill-opacity="1" /><path clip-path="url(#clip250)" d="M521.696 1835 L509.89 1853.45 L521.696 1853.45 L521.696 1835 M520.469 1830.92 L526.349 1830.92 L526.349 1853.45 L531.279 1853.45 L531.279 1857.34 L526.349 1857.34 L526.349 1865.48 L521.696 1865.48 L521.696 1857.34 L506.094 1857.34 L506.094 1852.82 L520.469 1830.92 Z" fill="#000000" fill-rule="evenodd" fill-opacity="1" /><path clip-path="url(#clip250)" d="M950.328 1834 Q946.717 1834 944.888 1837.57 Q943.083 1841.11 943.083 1848.24 Q943.083 1855.34 944.888 1858.91 Q946.717 1862.45 950.328 1862.45 Q953.963 1862.45 955.768 1858.91 Q957.597 1855.34 957.597 1848.24 Q957.597 1841.11 955.768 1837.57 Q953.963 1834 950.328 1834 M950.328 1830.3 Q956.138 1830.3 959.194 1834.9 Q962.273 1839.49 962.273 1848.24 Q962.273 1856.96 959.194 1861.57 Q956.138 1866.15 950.328 1866.15 Q944.518 1866.15 941.439 1861.57 Q938.384 1856.96 938.384 1848.24 Q938.384 1839.49 941.439 1834.9 Q944.518 1830.3 950.328 1830.3 Z" fill="#000000" fill-rule="evenodd" fill-opacity="1" /><path clip-path="url(#clip250)" d="M970.49 1859.6 L975.374 1859.6 L975.374 1865.48 L970.49 1865.48 L970.49 1859.6 Z" fill="#000000" fill-rule="evenodd" fill-opacity="1" /><path clip-path="url(#clip250)" d="M996.138 1846.34 Q992.99 1846.34 991.138 1848.49 Q989.31 1850.65 989.31 1854.4 Q989.31 1858.12 991.138 1860.3 Q992.99 1862.45 996.138 1862.45 Q999.286 1862.45 1001.12 1860.3 Q1002.97 1858.12 1002.97 1854.4 Q1002.97 1850.65 1001.12 1848.49 Q999.286 1846.34 996.138 1846.34 M1005.42 1831.69 L1005.42 1835.95 Q1003.66 1835.11 1001.86 1834.67 Q1000.07 1834.23 998.314 1834.23 Q993.685 1834.23 991.231 1837.36 Q988.8 1840.48 988.453 1846.8 Q989.819 1844.79 991.879 1843.72 Q993.939 1842.64 996.416 1842.64 Q1001.62 1842.64 1004.63 1845.81 Q1007.67 1848.96 1007.67 1854.4 Q1007.67 1859.72 1004.52 1862.94 Q1001.37 1866.15 996.138 1866.15 Q990.143 1866.15 986.972 1861.57 Q983.8 1856.96 983.8 1848.24 Q983.8 1840.04 987.689 1835.18 Q991.578 1830.3 998.129 1830.3 Q999.888 1830.3 1001.67 1830.65 Q1003.48 1830.99 1005.42 1831.69 Z" fill="#000000" fill-rule="evenodd" fill-opacity="1" /><path clip-path="url(#clip250)" d="M1427 1834 Q1423.39 1834 1421.56 1837.57 Q1419.76 1841.11 1419.76 1848.24 Q1419.76 1855.34 1421.56 1858.91 Q1423.39 1862.45 1427 1862.45 Q1430.64 1862.45 1432.44 1858.91 Q1434.27 1855.34 1434.27 1848.24 Q1434.27 1841.11 1432.44 1837.57 Q1430.64 1834 1427 1834 M1427 1830.3 Q1432.81 1830.3 1435.87 1834.9 Q1438.95 1839.49 1438.95 1848.24 Q1438.95 1856.96 1435.87 1861.57 Q1432.81 1866.15 1427 1866.15 Q1421.19 1866.15 1418.12 1861.57 Q1415.06 1856.96 1415.06 1848.24 Q1415.06 1839.49 1418.12 1834.9 Q1421.19 1830.3 1427 1830.3 Z" fill="#000000" fill-rule="evenodd" fill-opacity="1" /><path clip-path="url(#clip250)" d="M1447.17 1859.6 L1452.05 1859.6 L1452.05 1865.48 L1447.17 1865.48 L1447.17 1859.6 Z" fill="#000000" fill-rule="evenodd" fill-opacity="1" /><path clip-path="url(#clip250)" d="M1472.24 1849.07 Q1468.9 1849.07 1466.98 1850.85 Q1465.08 1852.64 1465.08 1855.76 Q1465.08 1858.89 1466.98 1860.67 Q1468.9 1862.45 1472.24 1862.45 Q1475.57 1862.45 1477.49 1860.67 Q1479.41 1858.86 1479.41 1855.76 Q1479.41 1852.64 1477.49 1850.85 Q1475.59 1849.07 1472.24 1849.07 M1467.56 1847.08 Q1464.55 1846.34 1462.86 1844.28 Q1461.19 1842.22 1461.19 1839.26 Q1461.19 1835.11 1464.13 1832.71 Q1467.1 1830.3 1472.24 1830.3 Q1477.4 1830.3 1480.34 1832.71 Q1483.28 1835.11 1483.28 1839.26 Q1483.28 1842.22 1481.59 1844.28 Q1479.92 1846.34 1476.93 1847.08 Q1480.31 1847.87 1482.19 1850.16 Q1484.09 1852.45 1484.09 1855.76 Q1484.09 1860.78 1481.01 1863.47 Q1477.95 1866.15 1472.24 1866.15 Q1466.52 1866.15 1463.44 1863.47 Q1460.38 1860.78 1460.38 1855.76 Q1460.38 1852.45 1462.28 1850.16 Q1464.18 1847.87 1467.56 1847.08 M1465.85 1839.7 Q1465.85 1842.38 1467.51 1843.89 Q1469.2 1845.39 1472.24 1845.39 Q1475.24 1845.39 1476.93 1843.89 Q1478.65 1842.38 1478.65 1839.7 Q1478.65 1837.01 1476.93 1835.51 Q1475.24 1834 1472.24 1834 Q1469.2 1834 1467.51 1835.51 Q1465.85 1837.01 1465.85 1839.7 Z" fill="#000000" fill-rule="evenodd" fill-opacity="1" /><path clip-path="url(#clip250)" d="M1893.28 1861.55 L1900.91 1861.55 L1900.91 1835.18 L1892.6 1836.85 L1892.6 1832.59 L1900.87 1830.92 L1905.54 1830.92 L1905.54 1861.55 L1913.18 1861.55 L1913.18 1865.48 L1893.28 1865.48 L1893.28 1861.55 Z" fill="#000000" fill-rule="evenodd" fill-opacity="1" /><path clip-path="url(#clip250)" d="M1922.63 1859.6 L1927.51 1859.6 L1927.51 1865.48 L1922.63 1865.48 L1922.63 1859.6 Z" fill="#000000" fill-rule="evenodd" fill-opacity="1" /><path clip-path="url(#clip250)" d="M1947.7 1834 Q1944.09 1834 1942.26 1837.57 Q1940.45 1841.11 1940.45 1848.24 Q1940.45 1855.34 1942.26 1858.91 Q1944.09 1862.45 1947.7 1862.45 Q1951.33 1862.45 1953.14 1858.91 Q1954.97 1855.34 1954.97 1848.24 Q1954.97 1841.11 1953.14 1837.57 Q1951.33 1834 1947.7 1834 M1947.7 1830.3 Q1953.51 1830.3 1956.56 1834.9 Q1959.64 1839.49 1959.64 1848.24 Q1959.64 1856.96 1956.56 1861.57 Q1953.51 1866.15 1947.7 1866.15 Q1941.89 1866.15 1938.81 1861.57 Q1935.75 1856.96 1935.75 1848.24 Q1935.75 1839.49 1938.81 1834.9 Q1941.89 1830.3 1947.7 1830.3 Z" fill="#000000" fill-rule="evenodd" fill-opacity="1" /><path clip-path="url(#clip250)" d="M2370.62 1861.55 L2378.26 1861.55 L2378.26 1835.18 L2369.95 1836.85 L2369.95 1832.59 L2378.22 1830.92 L2382.89 1830.92 L2382.89 1861.55 L2390.53 1861.55 L2390.53 1865.48 L2370.62 1865.48 L2370.62 1861.55 Z" fill="#000000" fill-rule="evenodd" fill-opacity="1" /><path clip-path="url(#clip250)" d="M2399.97 1859.6 L2404.86 1859.6 L2404.86 1865.48 L2399.97 1865.48 L2399.97 1859.6 Z" fill="#000000" fill-rule="evenodd" fill-opacity="1" /><path clip-path="url(#clip250)" d="M2419.07 1861.55 L2435.39 1861.55 L2435.39 1865.48 L2413.45 1865.48 L2413.45 1861.55 Q2416.11 1858.79 2420.69 1854.16 Q2425.3 1849.51 2426.48 1848.17 Q2428.72 1845.65 2429.6 1843.91 Q2430.51 1842.15 2430.51 1840.46 Q2430.51 1837.71 2428.56 1835.97 Q2426.64 1834.23 2423.54 1834.23 Q2421.34 1834.23 2418.89 1835 Q2416.46 1835.76 2413.68 1837.31 L2413.68 1832.59 Q2416.5 1831.46 2418.96 1830.88 Q2421.41 1830.3 2423.45 1830.3 Q2428.82 1830.3 2432.01 1832.98 Q2435.21 1835.67 2435.21 1840.16 Q2435.21 1842.29 2434.4 1844.21 Q2433.61 1846.11 2431.5 1848.7 Q2430.92 1849.37 2427.82 1852.59 Q2424.72 1855.78 2419.07 1861.55 Z" fill="#000000" fill-rule="evenodd" fill-opacity="1" /><polyline clip-path="url(#clip252)" style="stroke:#000000; stroke-linecap:butt; stroke-linejoin:round; stroke-width:2; stroke-opacity:0.1; fill:none" points="
  188.807,1598.04 2640.76,1598.04 
  "/>
<polyline clip-path="url(#clip252)" style="stroke:#000000; stroke-linecap:butt; stroke-linejoin:round; stroke-width:2; stroke-opacity:0.1; fill:none" points="
  188.807,1371.58 2640.76,1371.58 
  "/>
<polyline clip-path="url(#clip252)" style="stroke:#000000; stroke-linecap:butt; stroke-linejoin:round; stroke-width:2; stroke-opacity:0.1; fill:none" points="
  188.807,1145.13 2640.76,1145.13 
  "/>
<polyline clip-path="url(#clip252)" style="stroke:#000000; stroke-linecap:butt; stroke-linejoin:round; stroke-width:2; stroke-opacity:0.1; fill:none" points="
  188.807,918.671 2640.76,918.671 
  "/>
<polyline clip-path="url(#clip252)" style="stroke:#000000; stroke-linecap:butt; stroke-linejoin:round; stroke-width:2; stroke-opacity:0.1; fill:none" points="
  188.807,692.215 2640.76,692.215 
  "/>
<polyline clip-path="url(#clip252)" style="stroke:#000000; stroke-linecap:butt; stroke-linejoin:round; stroke-width:2; stroke-opacity:0.1; fill:none" points="
  188.807,465.759 2640.76,465.759 
  "/>
<polyline clip-path="url(#clip252)" style="stroke:#000000; stroke-linecap:butt; stroke-linejoin:round; stroke-width:2; stroke-opacity:0.1; fill:none" points="
  188.807,239.303 2640.76,239.303 
  "/>
<polyline clip-path="url(#clip250)" style="stroke:#000000; stroke-linecap:butt; stroke-linejoin:round; stroke-width:4; stroke-opacity:1; fill:none" points="
  188.807,1800.78 188.807,47.2441 
  "/>
<polyline clip-path="url(#clip250)" style="stroke:#000000; stroke-linecap:butt; stroke-linejoin:round; stroke-width:4; stroke-opacity:1; fill:none" points="
  188.807,1598.04 207.704,1598.04 
  "/>
<polyline clip-path="url(#clip250)" style="stroke:#000000; stroke-linecap:butt; stroke-linejoin:round; stroke-width:4; stroke-opacity:1; fill:none" points="
  188.807,1371.58 207.704,1371.58 
  "/>
<polyline clip-path="url(#clip250)" style="stroke:#000000; stroke-linecap:butt; stroke-linejoin:round; stroke-width:4; stroke-opacity:1; fill:none" points="
  188.807,1145.13 207.704,1145.13 
  "/>
<polyline clip-path="url(#clip250)" style="stroke:#000000; stroke-linecap:butt; stroke-linejoin:round; stroke-width:4; stroke-opacity:1; fill:none" points="
  188.807,918.671 207.704,918.671 
  "/>
<polyline clip-path="url(#clip250)" style="stroke:#000000; stroke-linecap:butt; stroke-linejoin:round; stroke-width:4; stroke-opacity:1; fill:none" points="
  188.807,692.215 207.704,692.215 
  "/>
<polyline clip-path="url(#clip250)" style="stroke:#000000; stroke-linecap:butt; stroke-linejoin:round; stroke-width:4; stroke-opacity:1; fill:none" points="
  188.807,465.759 207.704,465.759 
  "/>
<polyline clip-path="url(#clip250)" style="stroke:#000000; stroke-linecap:butt; stroke-linejoin:round; stroke-width:4; stroke-opacity:1; fill:none" points="
  188.807,239.303 207.704,239.303 
  "/>
<path clip-path="url(#clip250)" d="M56.1725 1611.38 L72.4918 1611.38 L72.4918 1615.32 L50.5475 1615.32 L50.5475 1611.38 Q53.2095 1608.63 57.7928 1604 Q62.3993 1599.35 63.5798 1598 Q65.8252 1595.48 66.7048 1593.74 Q67.6076 1591.99 67.6076 1590.3 Q67.6076 1587.54 65.6632 1585.81 Q63.7419 1584.07 60.64 1584.07 Q58.441 1584.07 55.9873 1584.83 Q53.5567 1585.6 50.779 1587.15 L50.779 1582.43 Q53.603 1581.29 56.0567 1580.71 Q58.5104 1580.13 60.5474 1580.13 Q65.9178 1580.13 69.1122 1582.82 Q72.3066 1585.5 72.3066 1589.99 Q72.3066 1592.12 71.4965 1594.05 Q70.7094 1595.94 68.6029 1598.54 Q68.0242 1599.21 64.9224 1602.43 Q61.8206 1605.62 56.1725 1611.38 Z" fill="#000000" fill-rule="evenodd" fill-opacity="1" /><path clip-path="url(#clip250)" d="M86.3343 1611.38 L102.654 1611.38 L102.654 1615.32 L80.7094 1615.32 L80.7094 1611.38 Q83.3714 1608.63 87.9547 1604 Q92.5612 1599.35 93.7417 1598 Q95.9871 1595.48 96.8667 1593.74 Q97.7695 1591.99 97.7695 1590.3 Q97.7695 1587.54 95.825 1585.81 Q93.9037 1584.07 90.8019 1584.07 Q88.6028 1584.07 86.1492 1584.83 Q83.7186 1585.6 80.9408 1587.15 L80.9408 1582.43 Q83.7649 1581.29 86.2186 1580.71 Q88.6723 1580.13 90.7093 1580.13 Q96.0797 1580.13 99.2741 1582.82 Q102.469 1585.5 102.469 1589.99 Q102.469 1592.12 101.658 1594.05 Q100.871 1595.94 98.7648 1598.54 Q98.1861 1599.21 95.0843 1602.43 Q91.9825 1605.62 86.3343 1611.38 Z" fill="#000000" fill-rule="evenodd" fill-opacity="1" /><path clip-path="url(#clip250)" d="M112.468 1609.44 L117.353 1609.44 L117.353 1615.32 L112.468 1615.32 L112.468 1609.44 Z" fill="#000000" fill-rule="evenodd" fill-opacity="1" /><path clip-path="url(#clip250)" d="M127.584 1580.76 L145.94 1580.76 L145.94 1584.69 L131.866 1584.69 L131.866 1593.17 Q132.885 1592.82 133.904 1592.66 Q134.922 1592.47 135.941 1592.47 Q141.728 1592.47 145.107 1595.64 Q148.487 1598.81 148.487 1604.23 Q148.487 1609.81 145.015 1612.91 Q141.542 1615.99 135.223 1615.99 Q133.047 1615.99 130.779 1615.62 Q128.533 1615.25 126.126 1614.51 L126.126 1609.81 Q128.209 1610.94 130.431 1611.5 Q132.654 1612.06 135.13 1612.06 Q139.135 1612.06 141.473 1609.95 Q143.811 1607.84 143.811 1604.23 Q143.811 1600.62 141.473 1598.51 Q139.135 1596.41 135.13 1596.41 Q133.255 1596.41 131.38 1596.82 Q129.529 1597.24 127.584 1598.12 L127.584 1580.76 Z" fill="#000000" fill-rule="evenodd" fill-opacity="1" /><path clip-path="url(#clip250)" d="M55.1771 1384.93 L71.4965 1384.93 L71.4965 1388.86 L49.5521 1388.86 L49.5521 1384.93 Q52.2141 1382.17 56.7975 1377.54 Q61.4039 1372.89 62.5845 1371.55 Q64.8298 1369.03 65.7094 1367.29 Q66.6122 1365.53 66.6122 1363.84 Q66.6122 1361.09 64.6678 1359.35 Q62.7465 1357.61 59.6447 1357.61 Q57.4456 1357.61 54.9919 1358.38 Q52.5614 1359.14 49.7836 1360.69 L49.7836 1355.97 Q52.6077 1354.84 55.0614 1354.26 Q57.515 1353.68 59.5521 1353.68 Q64.9224 1353.68 68.1168 1356.36 Q71.3113 1359.05 71.3113 1363.54 Q71.3113 1365.67 70.5011 1367.59 Q69.7141 1369.49 67.6076 1372.08 Q67.0289 1372.75 63.927 1375.97 Q60.8252 1379.16 55.1771 1384.93 Z" fill="#000000" fill-rule="evenodd" fill-opacity="1" /><path clip-path="url(#clip250)" d="M81.3575 1354.3 L99.7139 1354.3 L99.7139 1358.24 L85.6399 1358.24 L85.6399 1366.71 Q86.6584 1366.36 87.6769 1366.2 Q88.6954 1366.02 89.7139 1366.02 Q95.501 1366.02 98.8806 1369.19 Q102.26 1372.36 102.26 1377.78 Q102.26 1383.35 98.788 1386.46 Q95.3158 1389.53 88.9964 1389.53 Q86.8204 1389.53 84.5519 1389.16 Q82.3066 1388.79 79.8992 1388.05 L79.8992 1383.35 Q81.9825 1384.49 84.2047 1385.04 Q86.4269 1385.6 88.9038 1385.6 Q92.9084 1385.6 95.2463 1383.49 Q97.5843 1381.39 97.5843 1377.78 Q97.5843 1374.16 95.2463 1372.06 Q92.9084 1369.95 88.9038 1369.95 Q87.0288 1369.95 85.1538 1370.37 Q83.3019 1370.78 81.3575 1371.66 L81.3575 1354.3 Z" fill="#000000" fill-rule="evenodd" fill-opacity="1" /><path clip-path="url(#clip250)" d="M111.473 1382.98 L116.357 1382.98 L116.357 1388.86 L111.473 1388.86 L111.473 1382.98 Z" fill="#000000" fill-rule="evenodd" fill-opacity="1" /><path clip-path="url(#clip250)" d="M136.542 1357.38 Q132.931 1357.38 131.103 1360.95 Q129.297 1364.49 129.297 1371.62 Q129.297 1378.72 131.103 1382.29 Q132.931 1385.83 136.542 1385.83 Q140.177 1385.83 141.982 1382.29 Q143.811 1378.72 143.811 1371.62 Q143.811 1364.49 141.982 1360.95 Q140.177 1357.38 136.542 1357.38 M136.542 1353.68 Q142.353 1353.68 145.408 1358.28 Q148.487 1362.87 148.487 1371.62 Q148.487 1380.34 145.408 1384.95 Q142.353 1389.53 136.542 1389.53 Q130.732 1389.53 127.654 1384.95 Q124.598 1380.34 124.598 1371.62 Q124.598 1362.87 127.654 1358.28 Q130.732 1353.68 136.542 1353.68 Z" fill="#000000" fill-rule="evenodd" fill-opacity="1" /><path clip-path="url(#clip250)" d="M56.1725 1158.47 L72.4918 1158.47 L72.4918 1162.41 L50.5475 1162.41 L50.5475 1158.47 Q53.2095 1155.72 57.7928 1151.09 Q62.3993 1146.43 63.5798 1145.09 Q65.8252 1142.57 66.7048 1140.83 Q67.6076 1139.07 67.6076 1137.38 Q67.6076 1134.63 65.6632 1132.89 Q63.7419 1131.16 60.64 1131.16 Q58.441 1131.16 55.9873 1131.92 Q53.5567 1132.68 50.779 1134.24 L50.779 1129.51 Q53.603 1128.38 56.0567 1127.8 Q58.5104 1127.22 60.5474 1127.22 Q65.9178 1127.22 69.1122 1129.91 Q72.3066 1132.59 72.3066 1137.08 Q72.3066 1139.21 71.4965 1141.13 Q70.7094 1143.03 68.6029 1145.62 Q68.0242 1146.3 64.9224 1149.51 Q61.8206 1152.71 56.1725 1158.47 Z" fill="#000000" fill-rule="evenodd" fill-opacity="1" /><path clip-path="url(#clip250)" d="M81.126 1127.85 L103.348 1127.85 L103.348 1129.84 L90.8019 1162.41 L85.9177 1162.41 L97.7232 1131.78 L81.126 1131.78 L81.126 1127.85 Z" fill="#000000" fill-rule="evenodd" fill-opacity="1" /><path clip-path="url(#clip250)" d="M112.468 1156.53 L117.353 1156.53 L117.353 1162.41 L112.468 1162.41 L112.468 1156.53 Z" fill="#000000" fill-rule="evenodd" fill-opacity="1" /><path clip-path="url(#clip250)" d="M127.584 1127.85 L145.94 1127.85 L145.94 1131.78 L131.866 1131.78 L131.866 1140.25 Q132.885 1139.91 133.904 1139.75 Q134.922 1139.56 135.941 1139.56 Q141.728 1139.56 145.107 1142.73 Q148.487 1145.9 148.487 1151.32 Q148.487 1156.9 145.015 1160 Q141.542 1163.08 135.223 1163.08 Q133.047 1163.08 130.779 1162.71 Q128.533 1162.34 126.126 1161.6 L126.126 1156.9 Q128.209 1158.03 130.431 1158.59 Q132.654 1159.14 135.13 1159.14 Q139.135 1159.14 141.473 1157.04 Q143.811 1154.93 143.811 1151.32 Q143.811 1147.71 141.473 1145.6 Q139.135 1143.5 135.13 1143.5 Q133.255 1143.5 131.38 1143.91 Q129.529 1144.33 127.584 1145.21 L127.584 1127.85 Z" fill="#000000" fill-rule="evenodd" fill-opacity="1" /><path clip-path="url(#clip250)" d="M65.3159 917.317 Q68.6724 918.035 70.5474 920.303 Q72.4455 922.572 72.4455 925.905 Q72.4455 931.021 68.927 933.822 Q65.4085 936.622 58.9271 936.622 Q56.7512 936.622 54.4364 936.183 Q52.1447 935.766 49.691 934.909 L49.691 930.396 Q51.6354 931.53 53.9503 932.109 Q56.2651 932.687 58.7882 932.687 Q63.1863 932.687 65.478 930.951 Q67.7928 929.215 67.7928 925.905 Q67.7928 922.849 65.64 921.136 Q63.5104 919.4 59.691 919.4 L55.6632 919.4 L55.6632 915.558 L59.8761 915.558 Q63.3252 915.558 65.1539 914.192 Q66.9826 912.803 66.9826 910.211 Q66.9826 907.549 65.0845 906.136 Q63.2095 904.701 59.691 904.701 Q57.7697 904.701 55.5706 905.118 Q53.3715 905.535 50.7327 906.414 L50.7327 902.248 Q53.3947 901.507 55.7095 901.137 Q58.0475 900.766 60.1076 900.766 Q65.4317 900.766 68.5335 903.197 Q71.6353 905.604 71.6353 909.724 Q71.6353 912.595 69.9918 914.586 Q68.3483 916.553 65.3159 917.317 Z" fill="#000000" fill-rule="evenodd" fill-opacity="1" /><path clip-path="url(#clip250)" d="M91.3112 904.47 Q87.7001 904.47 85.8714 908.035 Q84.0658 911.576 84.0658 918.706 Q84.0658 925.812 85.8714 929.377 Q87.7001 932.919 91.3112 932.919 Q94.9454 932.919 96.7509 929.377 Q98.5796 925.812 98.5796 918.706 Q98.5796 911.576 96.7509 908.035 Q94.9454 904.47 91.3112 904.47 M91.3112 900.766 Q97.1213 900.766 100.177 905.373 Q103.256 909.956 103.256 918.706 Q103.256 927.433 100.177 932.039 Q97.1213 936.622 91.3112 936.622 Q85.501 936.622 82.4223 932.039 Q79.3668 927.433 79.3668 918.706 Q79.3668 909.956 82.4223 905.373 Q85.501 900.766 91.3112 900.766 Z" fill="#000000" fill-rule="evenodd" fill-opacity="1" /><path clip-path="url(#clip250)" d="M111.473 930.072 L116.357 930.072 L116.357 935.951 L111.473 935.951 L111.473 930.072 Z" fill="#000000" fill-rule="evenodd" fill-opacity="1" /><path clip-path="url(#clip250)" d="M136.542 904.47 Q132.931 904.47 131.103 908.035 Q129.297 911.576 129.297 918.706 Q129.297 925.812 131.103 929.377 Q132.931 932.919 136.542 932.919 Q140.177 932.919 141.982 929.377 Q143.811 925.812 143.811 918.706 Q143.811 911.576 141.982 908.035 Q140.177 904.47 136.542 904.47 M136.542 900.766 Q142.353 900.766 145.408 905.373 Q148.487 909.956 148.487 918.706 Q148.487 927.433 145.408 932.039 Q142.353 936.622 136.542 936.622 Q130.732 936.622 127.654 932.039 Q124.598 927.433 124.598 918.706 Q124.598 909.956 127.654 905.373 Q130.732 900.766 136.542 900.766 Z" fill="#000000" fill-rule="evenodd" fill-opacity="1" /><path clip-path="url(#clip250)" d="M66.3113 690.861 Q69.6678 691.579 71.5427 693.847 Q73.4409 696.116 73.4409 699.449 Q73.4409 704.565 69.9224 707.366 Q66.4039 710.167 59.9224 710.167 Q57.7465 710.167 55.4317 709.727 Q53.1401 709.31 50.6864 708.454 L50.6864 703.94 Q52.6308 705.074 54.9456 705.653 Q57.2604 706.231 59.7836 706.231 Q64.1817 706.231 66.4733 704.495 Q68.7881 702.759 68.7881 699.449 Q68.7881 696.393 66.6354 694.68 Q64.5057 692.944 60.6863 692.944 L56.6586 692.944 L56.6586 689.102 L60.8715 689.102 Q64.3206 689.102 66.1493 687.736 Q67.978 686.347 67.978 683.755 Q67.978 681.093 66.0798 679.681 Q64.2048 678.245 60.6863 678.245 Q58.765 678.245 56.566 678.662 Q54.3669 679.079 51.728 679.958 L51.728 675.792 Q54.3901 675.051 56.7049 674.681 Q59.0428 674.31 61.103 674.31 Q66.427 674.31 69.5289 676.741 Q72.6307 679.148 72.6307 683.269 Q72.6307 686.139 70.9872 688.13 Q69.3437 690.097 66.3113 690.861 Z" fill="#000000" fill-rule="evenodd" fill-opacity="1" /><path clip-path="url(#clip250)" d="M86.3343 705.56 L102.654 705.56 L102.654 709.495 L80.7094 709.495 L80.7094 705.56 Q83.3714 702.805 87.9547 698.176 Q92.5612 693.523 93.7417 692.181 Q95.9871 689.657 96.8667 687.921 Q97.7695 686.162 97.7695 684.472 Q97.7695 681.718 95.825 679.982 Q93.9037 678.245 90.8019 678.245 Q88.6028 678.245 86.1492 679.009 Q83.7186 679.773 80.9408 681.324 L80.9408 676.602 Q83.7649 675.468 86.2186 674.889 Q88.6723 674.31 90.7093 674.31 Q96.0797 674.31 99.2741 676.995 Q102.469 679.681 102.469 684.171 Q102.469 686.301 101.658 688.222 Q100.871 690.12 98.7648 692.713 Q98.1861 693.384 95.0843 696.602 Q91.9825 699.796 86.3343 705.56 Z" fill="#000000" fill-rule="evenodd" fill-opacity="1" /><path clip-path="url(#clip250)" d="M112.468 703.616 L117.353 703.616 L117.353 709.495 L112.468 709.495 L112.468 703.616 Z" fill="#000000" fill-rule="evenodd" fill-opacity="1" /><path clip-path="url(#clip250)" d="M127.584 674.935 L145.94 674.935 L145.94 678.87 L131.866 678.87 L131.866 687.343 Q132.885 686.995 133.904 686.833 Q134.922 686.648 135.941 686.648 Q141.728 686.648 145.107 689.819 Q148.487 692.991 148.487 698.407 Q148.487 703.986 145.015 707.088 Q141.542 710.167 135.223 710.167 Q133.047 710.167 130.779 709.796 Q128.533 709.426 126.126 708.685 L126.126 703.986 Q128.209 705.12 130.431 705.676 Q132.654 706.231 135.13 706.231 Q139.135 706.231 141.473 704.125 Q143.811 702.018 143.811 698.407 Q143.811 694.796 141.473 692.69 Q139.135 690.583 135.13 690.583 Q133.255 690.583 131.38 691 Q129.529 691.417 127.584 692.296 L127.584 674.935 Z" fill="#000000" fill-rule="evenodd" fill-opacity="1" /><path clip-path="url(#clip250)" d="M65.3159 464.405 Q68.6724 465.123 70.5474 467.391 Q72.4455 469.66 72.4455 472.993 Q72.4455 478.109 68.927 480.91 Q65.4085 483.711 58.9271 483.711 Q56.7512 483.711 54.4364 483.271 Q52.1447 482.854 49.691 481.998 L49.691 477.484 Q51.6354 478.618 53.9503 479.197 Q56.2651 479.775 58.7882 479.775 Q63.1863 479.775 65.478 478.039 Q67.7928 476.303 67.7928 472.993 Q67.7928 469.938 65.64 468.225 Q63.5104 466.488 59.691 466.488 L55.6632 466.488 L55.6632 462.646 L59.8761 462.646 Q63.3252 462.646 65.1539 461.28 Q66.9826 459.891 66.9826 457.299 Q66.9826 454.637 65.0845 453.225 Q63.2095 451.789 59.691 451.789 Q57.7697 451.789 55.5706 452.206 Q53.3715 452.623 50.7327 453.502 L50.7327 449.336 Q53.3947 448.595 55.7095 448.225 Q58.0475 447.854 60.1076 447.854 Q65.4317 447.854 68.5335 450.285 Q71.6353 452.692 71.6353 456.813 Q71.6353 459.683 69.9918 461.674 Q68.3483 463.641 65.3159 464.405 Z" fill="#000000" fill-rule="evenodd" fill-opacity="1" /><path clip-path="url(#clip250)" d="M81.3575 448.479 L99.7139 448.479 L99.7139 452.414 L85.6399 452.414 L85.6399 460.887 Q86.6584 460.539 87.6769 460.377 Q88.6954 460.192 89.7139 460.192 Q95.501 460.192 98.8806 463.363 Q102.26 466.535 102.26 471.951 Q102.26 477.53 98.788 480.632 Q95.3158 483.711 88.9964 483.711 Q86.8204 483.711 84.5519 483.34 Q82.3066 482.97 79.8992 482.229 L79.8992 477.53 Q81.9825 478.664 84.2047 479.22 Q86.4269 479.775 88.9038 479.775 Q92.9084 479.775 95.2463 477.669 Q97.5843 475.563 97.5843 471.951 Q97.5843 468.34 95.2463 466.234 Q92.9084 464.127 88.9038 464.127 Q87.0288 464.127 85.1538 464.544 Q83.3019 464.961 81.3575 465.84 L81.3575 448.479 Z" fill="#000000" fill-rule="evenodd" fill-opacity="1" /><path clip-path="url(#clip250)" d="M111.473 477.16 L116.357 477.16 L116.357 483.039 L111.473 483.039 L111.473 477.16 Z" fill="#000000" fill-rule="evenodd" fill-opacity="1" /><path clip-path="url(#clip250)" d="M136.542 451.558 Q132.931 451.558 131.103 455.123 Q129.297 458.664 129.297 465.794 Q129.297 472.9 131.103 476.465 Q132.931 480.007 136.542 480.007 Q140.177 480.007 141.982 476.465 Q143.811 472.9 143.811 465.794 Q143.811 458.664 141.982 455.123 Q140.177 451.558 136.542 451.558 M136.542 447.854 Q142.353 447.854 145.408 452.461 Q148.487 457.044 148.487 465.794 Q148.487 474.521 145.408 479.127 Q142.353 483.711 136.542 483.711 Q130.732 483.711 127.654 479.127 Q124.598 474.521 124.598 465.794 Q124.598 457.044 127.654 452.461 Q130.732 447.854 136.542 447.854 Z" fill="#000000" fill-rule="evenodd" fill-opacity="1" /><path clip-path="url(#clip250)" d="M66.3113 237.949 Q69.6678 238.667 71.5427 240.935 Q73.4409 243.204 73.4409 246.537 Q73.4409 251.653 69.9224 254.454 Q66.4039 257.255 59.9224 257.255 Q57.7465 257.255 55.4317 256.815 Q53.1401 256.398 50.6864 255.542 L50.6864 251.028 Q52.6308 252.162 54.9456 252.741 Q57.2604 253.32 59.7836 253.32 Q64.1817 253.32 66.4733 251.583 Q68.7881 249.847 68.7881 246.537 Q68.7881 243.482 66.6354 241.769 Q64.5057 240.033 60.6863 240.033 L56.6586 240.033 L56.6586 236.19 L60.8715 236.19 Q64.3206 236.19 66.1493 234.824 Q67.978 233.435 67.978 230.843 Q67.978 228.181 66.0798 226.769 Q64.2048 225.334 60.6863 225.334 Q58.765 225.334 56.566 225.75 Q54.3669 226.167 51.728 227.047 L51.728 222.88 Q54.3901 222.139 56.7049 221.769 Q59.0428 221.398 61.103 221.398 Q66.427 221.398 69.5289 223.829 Q72.6307 226.236 72.6307 230.357 Q72.6307 233.227 70.9872 235.218 Q69.3437 237.185 66.3113 237.949 Z" fill="#000000" fill-rule="evenodd" fill-opacity="1" /><path clip-path="url(#clip250)" d="M81.126 222.023 L103.348 222.023 L103.348 224.014 L90.8019 256.583 L85.9177 256.583 L97.7232 225.959 L81.126 225.959 L81.126 222.023 Z" fill="#000000" fill-rule="evenodd" fill-opacity="1" /><path clip-path="url(#clip250)" d="M112.468 250.704 L117.353 250.704 L117.353 256.583 L112.468 256.583 L112.468 250.704 Z" fill="#000000" fill-rule="evenodd" fill-opacity="1" /><path clip-path="url(#clip250)" d="M127.584 222.023 L145.94 222.023 L145.94 225.959 L131.866 225.959 L131.866 234.431 Q132.885 234.084 133.904 233.921 Q134.922 233.736 135.941 233.736 Q141.728 233.736 145.107 236.908 Q148.487 240.079 148.487 245.495 Q148.487 251.074 145.015 254.176 Q141.542 257.255 135.223 257.255 Q133.047 257.255 130.779 256.884 Q128.533 256.514 126.126 255.773 L126.126 251.074 Q128.209 252.208 130.431 252.764 Q132.654 253.32 135.13 253.32 Q139.135 253.32 141.473 251.213 Q143.811 249.107 143.811 245.495 Q143.811 241.884 141.473 239.778 Q139.135 237.671 135.13 237.671 Q133.255 237.671 131.38 238.088 Q129.529 238.505 127.584 239.384 L127.584 222.023 Z" fill="#000000" fill-rule="evenodd" fill-opacity="1" /><polyline clip-path="url(#clip252)" style="stroke:#009af9; stroke-linecap:butt; stroke-linejoin:round; stroke-width:4; stroke-opacity:1; fill:none" points="
  258.202,96.8724 261.967,112.214 265.732,127.389 269.497,142.4 273.261,157.249 290.668,223.875 308.074,287.332 325.481,347.83 342.887,405.56 360.293,460.695 
  377.7,513.396 395.106,563.809 412.512,612.069 433.433,667.401 454.354,719.999 475.275,770.043 496.196,817.698 513.885,856.236 531.573,893.257 549.262,928.836 
  566.95,963.048 586.165,998.738 605.379,1032.97 624.594,1065.83 643.808,1097.37 679.237,1152.29 714.665,1203.33 752.648,1254.09 790.631,1301.1 834.638,1351.27 
  878.644,1397.22 917.753,1434.81 956.861,1469.56 991.155,1497.85 1025.45,1524.23 1062.84,1550.93 1100.23,1575.61 1137.84,1598.48 1175.45,1619.5 1217.04,1640.7 
  1258.62,1659.83 1298.19,1676.19 1337.76,1690.84 1378.9,1704.3 1420.04,1716 1454.67,1724.52 1489.3,1731.84 1531.58,1739.18 1573.87,1744.78 1612.6,1748.37 
  1651.33,1750.5 1687.1,1751.15 1722.88,1750.53 1759.11,1748.58 1795.35,1745.27 1835.96,1739.9 1876.57,1732.73 1913.37,1724.6 1950.17,1714.86 1992.3,1701.62 
  2034.44,1686.03 2073.45,1669.36 2112.46,1650.39 2150.92,1629.26 2189.38,1605.53 2226.72,1579.79 2264.07,1551.16 2302.35,1518.51 2340.63,1482.17 2361.6,1460.56 
  2382.57,1437.64 2403.54,1413.33 2424.51,1387.54 2454.97,1347.24 2485.44,1303.23 2515.9,1255.12 2546.36,1202.43 2552.61,1191.01 2558.86,1179.36 2565.11,1167.49 
  2571.36,1155.38 
  "/>
<path clip-path="url(#clip250)" d="
M2234.16 209.375 L2559.02 209.375 L2559.02 105.695 L2234.16 105.695  Z
  " fill="#ffffff" fill-rule="evenodd" fill-opacity="1"/>
<polyline clip-path="url(#clip250)" style="stroke:#000000; stroke-linecap:butt; stroke-linejoin:round; stroke-width:4; stroke-opacity:1; fill:none" points="
  2234.16,209.375 2559.02,209.375 2559.02,105.695 2234.16,105.695 2234.16,209.375 
  "/>
<polyline clip-path="url(#clip250)" style="stroke:#009af9; stroke-linecap:butt; stroke-linejoin:round; stroke-width:4; stroke-opacity:1; fill:none" points="
  2261.4,157.535 2424.86,157.535 
  "/>
<path clip-path="url(#clip250)" d="M2465.95 177.223 Q2464.14 181.852 2462.43 183.264 Q2460.72 184.676 2457.85 184.676 L2454.44 184.676 L2454.44 181.112 L2456.94 181.112 Q2458.7 181.112 2459.68 180.278 Q2460.65 179.445 2461.83 176.343 L2462.59 174.399 L2452.11 148.889 L2456.62 148.889 L2464.72 169.167 L2472.82 148.889 L2477.34 148.889 L2465.95 177.223 Z" fill="#000000" fill-rule="evenodd" fill-opacity="1" /><path clip-path="url(#clip250)" d="M2484.63 170.88 L2492.27 170.88 L2492.27 144.515 L2483.96 146.181 L2483.96 141.922 L2492.22 140.255 L2496.9 140.255 L2496.9 170.88 L2504.54 170.88 L2504.54 174.815 L2484.63 174.815 L2484.63 170.88 Z" fill="#000000" fill-rule="evenodd" fill-opacity="1" /></svg>
