<?xml version="1.0" encoding="utf-8"?>
<svg xmlns="http://www.w3.org/2000/svg" xmlns:xlink="http://www.w3.org/1999/xlink" width="672" height="480" viewBox="0 0 2688 1920">
<defs>
  <clipPath id="clip640">
    <rect x="0" y="0" width="2688" height="1920"/>
  </clipPath>
</defs>
<path clip-path="url(#clip640)" d="
M0 1920 L2688 1920 L2688 0 L0 0  Z
  " fill="#ffffff" fill-rule="evenodd" fill-opacity="1"/>
<defs>
  <clipPath id="clip641">
    <rect x="537" y="0" width="1883" height="1883"/>
  </clipPath>
</defs>
<path clip-path="url(#clip640)" d="
M257.626 1800.78 L2640.76 1800.78 L2640.76 47.2441 L257.626 47.2441  Z
  " fill="#ffffff" fill-rule="evenodd" fill-opacity="1"/>
<defs>
  <clipPath id="clip642">
    <rect x="257" y="47" width="2384" height="1755"/>
  </clipPath>
</defs>
<polyline clip-path="url(#clip642)" style="stroke:#000000; stroke-linecap:butt; stroke-linejoin:round; stroke-width:2; stroke-opacity:0.1; fill:none" points="
  325.073,1800.78 325.073,47.2441 
  "/>
<polyline clip-path="url(#clip642)" style="stroke:#000000; stroke-linecap:butt; stroke-linejoin:round; stroke-width:2; stroke-opacity:0.1; fill:none" points="
  699.779,1800.78 699.779,47.2441 
  "/>
<polyline clip-path="url(#clip642)" style="stroke:#000000; stroke-linecap:butt; stroke-linejoin:round; stroke-width:2; stroke-opacity:0.1; fill:none" points="
  1074.48,1800.78 1074.48,47.2441 
  "/>
<polyline clip-path="url(#clip642)" style="stroke:#000000; stroke-linecap:butt; stroke-linejoin:round; stroke-width:2; stroke-opacity:0.1; fill:none" points="
  1449.19,1800.78 1449.19,47.2441 
  "/>
<polyline clip-path="url(#clip642)" style="stroke:#000000; stroke-linecap:butt; stroke-linejoin:round; stroke-width:2; stroke-opacity:0.1; fill:none" points="
  1823.9,1800.78 1823.9,47.2441 
  "/>
<polyline clip-path="url(#clip642)" style="stroke:#000000; stroke-linecap:butt; stroke-linejoin:round; stroke-width:2; stroke-opacity:0.1; fill:none" points="
  2198.6,1800.78 2198.6,47.2441 
  "/>
<polyline clip-path="url(#clip642)" style="stroke:#000000; stroke-linecap:butt; stroke-linejoin:round; stroke-width:2; stroke-opacity:0.1; fill:none" points="
  2573.31,1800.78 2573.31,47.2441 
  "/>
<polyline clip-path="url(#clip640)" style="stroke:#000000; stroke-linecap:butt; stroke-linejoin:round; stroke-width:4; stroke-opacity:1; fill:none" points="
  257.626,1800.78 2640.76,1800.78 
  "/>
<polyline clip-path="url(#clip640)" style="stroke:#000000; stroke-linecap:butt; stroke-linejoin:round; stroke-width:4; stroke-opacity:1; fill:none" points="
  325.073,1800.78 325.073,1781.88 
  "/>
<polyline clip-path="url(#clip640)" style="stroke:#000000; stroke-linecap:butt; stroke-linejoin:round; stroke-width:4; stroke-opacity:1; fill:none" points="
  699.779,1800.78 699.779,1781.88 
  "/>
<polyline clip-path="url(#clip640)" style="stroke:#000000; stroke-linecap:butt; stroke-linejoin:round; stroke-width:4; stroke-opacity:1; fill:none" points="
  1074.48,1800.78 1074.48,1781.88 
  "/>
<polyline clip-path="url(#clip640)" style="stroke:#000000; stroke-linecap:butt; stroke-linejoin:round; stroke-width:4; stroke-opacity:1; fill:none" points="
  1449.19,1800.78 1449.19,1781.88 
  "/>
<polyline clip-path="url(#clip640)" style="stroke:#000000; stroke-linecap:butt; stroke-linejoin:round; stroke-width:4; stroke-opacity:1; fill:none" points="
  1823.9,1800.78 1823.9,1781.88 
  "/>
<polyline clip-path="url(#clip640)" style="stroke:#000000; stroke-linecap:butt; stroke-linejoin:round; stroke-width:4; stroke-opacity:1; fill:none" points="
  2198.6,1800.78 2198.6,1781.88 
  "/>
<polyline clip-path="url(#clip640)" style="stroke:#000000; stroke-linecap:butt; stroke-linejoin:round; stroke-width:4; stroke-opacity:1; fill:none" points="
  2573.31,1800.78 2573.31,1781.88 
  "/>
<path clip-path="url(#clip640)" d="M303.256 1834 Q299.645 1834 297.816 1837.57 Q296.011 1841.11 296.011 1848.24 Q296.011 1855.34 297.816 1858.91 Q299.645 1862.45 303.256 1862.45 Q306.89 1862.45 308.696 1858.91 Q310.524 1855.34 310.524 1848.24 Q310.524 1841.11 308.696 1837.57 Q306.89 1834 303.256 1834 M303.256 1830.3 Q309.066 1830.3 312.122 1834.9 Q315.2 1839.49 315.2 1848.24 Q315.2 1856.96 312.122 1861.57 Q309.066 1866.15 303.256 1866.15 Q297.446 1866.15 294.367 1861.57 Q291.312 1856.96 291.312 1848.24 Q291.312 1839.49 294.367 1834.9 Q297.446 1830.3 303.256 1830.3 Z" fill="#000000" fill-rule="evenodd" fill-opacity="1" /><path clip-path="url(#clip640)" d="M323.418 1859.6 L328.302 1859.6 L328.302 1865.48 L323.418 1865.48 L323.418 1859.6 Z" fill="#000000" fill-rule="evenodd" fill-opacity="1" /><path clip-path="url(#clip640)" d="M342.515 1861.55 L358.834 1861.55 L358.834 1865.48 L336.89 1865.48 L336.89 1861.55 Q339.552 1858.79 344.135 1854.16 Q348.742 1849.51 349.922 1848.17 Q352.168 1845.65 353.047 1843.91 Q353.95 1842.15 353.95 1840.46 Q353.95 1837.71 352.006 1835.97 Q350.084 1834.23 346.983 1834.23 Q344.783 1834.23 342.33 1835 Q339.899 1835.76 337.121 1837.31 L337.121 1832.59 Q339.946 1831.46 342.399 1830.88 Q344.853 1830.3 346.89 1830.3 Q352.26 1830.3 355.455 1832.98 Q358.649 1835.67 358.649 1840.16 Q358.649 1842.29 357.839 1844.21 Q357.052 1846.11 354.945 1848.7 Q354.367 1849.37 351.265 1852.59 Q348.163 1855.78 342.515 1861.55 Z" fill="#000000" fill-rule="evenodd" fill-opacity="1" /><path clip-path="url(#clip640)" d="M677.487 1834 Q673.876 1834 672.048 1837.57 Q670.242 1841.11 670.242 1848.24 Q670.242 1855.34 672.048 1858.91 Q673.876 1862.45 677.487 1862.45 Q681.122 1862.45 682.927 1858.91 Q684.756 1855.34 684.756 1848.24 Q684.756 1841.11 682.927 1837.57 Q681.122 1834 677.487 1834 M677.487 1830.3 Q683.298 1830.3 686.353 1834.9 Q689.432 1839.49 689.432 1848.24 Q689.432 1856.96 686.353 1861.57 Q683.298 1866.15 677.487 1866.15 Q671.677 1866.15 668.599 1861.57 Q665.543 1856.96 665.543 1848.24 Q665.543 1839.49 668.599 1834.9 Q671.677 1830.3 677.487 1830.3 Z" fill="#000000" fill-rule="evenodd" fill-opacity="1" /><path clip-path="url(#clip640)" d="M697.649 1859.6 L702.534 1859.6 L702.534 1865.48 L697.649 1865.48 L697.649 1859.6 Z" fill="#000000" fill-rule="evenodd" fill-opacity="1" /><path clip-path="url(#clip640)" d="M726.885 1846.85 Q730.242 1847.57 732.117 1849.84 Q734.015 1852.1 734.015 1855.44 Q734.015 1860.55 730.496 1863.35 Q726.978 1866.15 720.496 1866.15 Q718.32 1866.15 716.006 1865.71 Q713.714 1865.3 711.26 1864.44 L711.26 1859.93 Q713.205 1861.06 715.52 1861.64 Q717.834 1862.22 720.358 1862.22 Q724.756 1862.22 727.047 1860.48 Q729.362 1858.75 729.362 1855.44 Q729.362 1852.38 727.209 1850.67 Q725.08 1848.93 721.26 1848.93 L717.233 1848.93 L717.233 1845.09 L721.445 1845.09 Q724.895 1845.09 726.723 1843.72 Q728.552 1842.34 728.552 1839.74 Q728.552 1837.08 726.654 1835.67 Q724.779 1834.23 721.26 1834.23 Q719.339 1834.23 717.14 1834.65 Q714.941 1835.07 712.302 1835.95 L712.302 1831.78 Q714.964 1831.04 717.279 1830.67 Q719.617 1830.3 721.677 1830.3 Q727.001 1830.3 730.103 1832.73 Q733.205 1835.14 733.205 1839.26 Q733.205 1842.13 731.561 1844.12 Q729.918 1846.09 726.885 1846.85 Z" fill="#000000" fill-rule="evenodd" fill-opacity="1" /><path clip-path="url(#clip640)" d="M1051.63 1834 Q1048.02 1834 1046.19 1837.57 Q1044.38 1841.11 1044.38 1848.24 Q1044.38 1855.34 1046.19 1858.91 Q1048.02 1862.45 1051.63 1862.45 Q1055.26 1862.45 1057.07 1858.91 Q1058.89 1855.34 1058.89 1848.24 Q1058.89 1841.11 1057.07 1837.57 Q1055.26 1834 1051.63 1834 M1051.63 1830.3 Q1057.44 1830.3 1060.49 1834.9 Q1063.57 1839.49 1063.57 1848.24 Q1063.57 1856.96 1060.49 1861.57 Q1057.44 1866.15 1051.63 1866.15 Q1045.82 1866.15 1042.74 1861.57 Q1039.68 1856.96 1039.68 1848.24 Q1039.68 1839.49 1042.74 1834.9 Q1045.82 1830.3 1051.63 1830.3 Z" fill="#000000" fill-rule="evenodd" fill-opacity="1" /><path clip-path="url(#clip640)" d="M1071.79 1859.6 L1076.67 1859.6 L1076.67 1865.48 L1071.79 1865.48 L1071.79 1859.6 Z" fill="#000000" fill-rule="evenodd" fill-opacity="1" /><path clip-path="url(#clip640)" d="M1099.7 1835 L1087.9 1853.45 L1099.7 1853.45 L1099.7 1835 M1098.48 1830.92 L1104.36 1830.92 L1104.36 1853.45 L1109.29 1853.45 L1109.29 1857.34 L1104.36 1857.34 L1104.36 1865.48 L1099.7 1865.48 L1099.7 1857.34 L1084.1 1857.34 L1084.1 1852.82 L1098.48 1830.92 Z" fill="#000000" fill-rule="evenodd" fill-opacity="1" /><path clip-path="url(#clip640)" d="M1427.07 1834 Q1423.46 1834 1421.63 1837.57 Q1419.83 1841.11 1419.83 1848.24 Q1419.83 1855.34 1421.63 1858.91 Q1423.46 1862.45 1427.07 1862.45 Q1430.71 1862.45 1432.51 1858.91 Q1434.34 1855.34 1434.34 1848.24 Q1434.34 1841.11 1432.51 1837.57 Q1430.71 1834 1427.07 1834 M1427.07 1830.3 Q1432.88 1830.3 1435.94 1834.9 Q1439.02 1839.49 1439.02 1848.24 Q1439.02 1856.96 1435.94 1861.57 Q1432.88 1866.15 1427.07 1866.15 Q1421.26 1866.15 1418.18 1861.57 Q1415.13 1856.96 1415.13 1848.24 Q1415.13 1839.49 1418.18 1834.9 Q1421.26 1830.3 1427.07 1830.3 Z" fill="#000000" fill-rule="evenodd" fill-opacity="1" /><path clip-path="url(#clip640)" d="M1447.23 1859.6 L1452.12 1859.6 L1452.12 1865.48 L1447.23 1865.48 L1447.23 1859.6 Z" fill="#000000" fill-rule="evenodd" fill-opacity="1" /><path clip-path="url(#clip640)" d="M1462.35 1830.92 L1480.71 1830.92 L1480.71 1834.86 L1466.63 1834.86 L1466.63 1843.33 Q1467.65 1842.98 1468.67 1842.82 Q1469.69 1842.64 1470.71 1842.64 Q1476.49 1842.64 1479.87 1845.81 Q1483.25 1848.98 1483.25 1854.4 Q1483.25 1859.97 1479.78 1863.08 Q1476.31 1866.15 1469.99 1866.15 Q1467.81 1866.15 1465.54 1865.78 Q1463.3 1865.41 1460.89 1864.67 L1460.89 1859.97 Q1462.98 1861.11 1465.2 1861.66 Q1467.42 1862.22 1469.9 1862.22 Q1473.9 1862.22 1476.24 1860.11 Q1478.58 1858.01 1478.58 1854.4 Q1478.58 1850.78 1476.24 1848.68 Q1473.9 1846.57 1469.9 1846.57 Q1468.02 1846.57 1466.15 1846.99 Q1464.29 1847.4 1462.35 1848.28 L1462.35 1830.92 Z" fill="#000000" fill-rule="evenodd" fill-opacity="1" /><path clip-path="url(#clip640)" d="M1801.2 1834 Q1797.59 1834 1795.76 1837.57 Q1793.95 1841.11 1793.95 1848.24 Q1793.95 1855.34 1795.76 1858.91 Q1797.59 1862.45 1801.2 1862.45 Q1804.83 1862.45 1806.64 1858.91 Q1808.47 1855.34 1808.47 1848.24 Q1808.47 1841.11 1806.64 1837.57 Q1804.83 1834 1801.2 1834 M1801.2 1830.3 Q1807.01 1830.3 1810.07 1834.9 Q1813.14 1839.49 1813.14 1848.24 Q1813.14 1856.96 1810.07 1861.57 Q1807.01 1866.15 1801.2 1866.15 Q1795.39 1866.15 1792.31 1861.57 Q1789.26 1856.96 1789.26 1848.24 Q1789.26 1839.49 1792.31 1834.9 Q1795.39 1830.3 1801.2 1830.3 Z" fill="#000000" fill-rule="evenodd" fill-opacity="1" /><path clip-path="url(#clip640)" d="M1821.36 1859.6 L1826.25 1859.6 L1826.25 1865.48 L1821.36 1865.48 L1821.36 1859.6 Z" fill="#000000" fill-rule="evenodd" fill-opacity="1" /><path clip-path="url(#clip640)" d="M1847.01 1846.34 Q1843.86 1846.34 1842.01 1848.49 Q1840.18 1850.65 1840.18 1854.4 Q1840.18 1858.12 1842.01 1860.3 Q1843.86 1862.45 1847.01 1862.45 Q1850.16 1862.45 1851.99 1860.3 Q1853.84 1858.12 1853.84 1854.4 Q1853.84 1850.65 1851.99 1848.49 Q1850.16 1846.34 1847.01 1846.34 M1856.29 1831.69 L1856.29 1835.95 Q1854.53 1835.11 1852.73 1834.67 Q1850.95 1834.23 1849.19 1834.23 Q1844.56 1834.23 1842.1 1837.36 Q1839.67 1840.48 1839.33 1846.8 Q1840.69 1844.79 1842.75 1843.72 Q1844.81 1842.64 1847.29 1842.64 Q1852.5 1842.64 1855.51 1845.81 Q1858.54 1848.96 1858.54 1854.4 Q1858.54 1859.72 1855.39 1862.94 Q1852.24 1866.15 1847.01 1866.15 Q1841.01 1866.15 1837.84 1861.57 Q1834.67 1856.96 1834.67 1848.24 Q1834.67 1840.04 1838.56 1835.18 Q1842.45 1830.3 1849 1830.3 Q1850.76 1830.3 1852.54 1830.65 Q1854.35 1830.99 1856.29 1831.69 Z" fill="#000000" fill-rule="evenodd" fill-opacity="1" /><path clip-path="url(#clip640)" d="M2176.44 1834 Q2172.83 1834 2171 1837.57 Q2169.19 1841.11 2169.19 1848.24 Q2169.19 1855.34 2171 1858.91 Q2172.83 1862.45 2176.44 1862.45 Q2180.07 1862.45 2181.88 1858.91 Q2183.71 1855.34 2183.71 1848.24 Q2183.71 1841.11 2181.88 1837.57 Q2180.07 1834 2176.44 1834 M2176.44 1830.3 Q2182.25 1830.3 2185.3 1834.9 Q2188.38 1839.49 2188.38 1848.24 Q2188.38 1856.96 2185.3 1861.57 Q2182.25 1866.15 2176.44 1866.15 Q2170.63 1866.15 2167.55 1861.57 Q2164.49 1856.96 2164.49 1848.24 Q2164.49 1839.49 2167.55 1834.9 Q2170.63 1830.3 2176.44 1830.3 Z" fill="#000000" fill-rule="evenodd" fill-opacity="1" /><path clip-path="url(#clip640)" d="M2196.6 1859.6 L2201.48 1859.6 L2201.48 1865.48 L2196.6 1865.48 L2196.6 1859.6 Z" fill="#000000" fill-rule="evenodd" fill-opacity="1" /><path clip-path="url(#clip640)" d="M2210.49 1830.92 L2232.71 1830.92 L2232.71 1832.91 L2220.17 1865.48 L2215.28 1865.48 L2227.09 1834.86 L2210.49 1834.86 L2210.49 1830.92 Z" fill="#000000" fill-rule="evenodd" fill-opacity="1" /><path clip-path="url(#clip640)" d="M2550.74 1834 Q2547.13 1834 2545.3 1837.57 Q2543.49 1841.11 2543.49 1848.24 Q2543.49 1855.34 2545.3 1858.91 Q2547.13 1862.45 2550.74 1862.45 Q2554.37 1862.45 2556.18 1858.91 Q2558.01 1855.34 2558.01 1848.24 Q2558.01 1841.11 2556.18 1837.57 Q2554.37 1834 2550.74 1834 M2550.74 1830.3 Q2556.55 1830.3 2559.61 1834.9 Q2562.68 1839.49 2562.68 1848.24 Q2562.68 1856.96 2559.61 1861.57 Q2556.55 1866.15 2550.74 1866.15 Q2544.93 1866.15 2541.85 1861.57 Q2538.8 1856.96 2538.8 1848.24 Q2538.8 1839.49 2541.85 1834.9 Q2544.93 1830.3 2550.74 1830.3 Z" fill="#000000" fill-rule="evenodd" fill-opacity="1" /><path clip-path="url(#clip640)" d="M2570.9 1859.6 L2575.79 1859.6 L2575.79 1865.48 L2570.9 1865.48 L2570.9 1859.6 Z" fill="#000000" fill-rule="evenodd" fill-opacity="1" /><path clip-path="url(#clip640)" d="M2595.97 1849.07 Q2592.64 1849.07 2590.72 1850.85 Q2588.82 1852.64 2588.82 1855.76 Q2588.82 1858.89 2590.72 1860.67 Q2592.64 1862.45 2595.97 1862.45 Q2599.3 1862.45 2601.23 1860.67 Q2603.15 1858.86 2603.15 1855.76 Q2603.15 1852.64 2601.23 1850.85 Q2599.33 1849.07 2595.97 1849.07 M2591.29 1847.08 Q2588.29 1846.34 2586.6 1844.28 Q2584.93 1842.22 2584.93 1839.26 Q2584.93 1835.11 2587.87 1832.71 Q2590.83 1830.3 2595.97 1830.3 Q2601.13 1830.3 2604.07 1832.71 Q2607.01 1835.11 2607.01 1839.26 Q2607.01 1842.22 2605.32 1844.28 Q2603.66 1846.34 2600.67 1847.08 Q2604.05 1847.87 2605.92 1850.16 Q2607.82 1852.45 2607.82 1855.76 Q2607.82 1860.78 2604.74 1863.47 Q2601.69 1866.15 2595.97 1866.15 Q2590.25 1866.15 2587.17 1863.47 Q2584.12 1860.78 2584.12 1855.76 Q2584.12 1852.45 2586.02 1850.16 Q2587.92 1847.87 2591.29 1847.08 M2589.58 1839.7 Q2589.58 1842.38 2591.25 1843.89 Q2592.94 1845.39 2595.97 1845.39 Q2598.98 1845.39 2600.67 1843.89 Q2602.38 1842.38 2602.38 1839.7 Q2602.38 1837.01 2600.67 1835.51 Q2598.98 1834 2595.97 1834 Q2592.94 1834 2591.25 1835.51 Q2589.58 1837.01 2589.58 1839.7 Z" fill="#000000" fill-rule="evenodd" fill-opacity="1" /><polyline clip-path="url(#clip642)" style="stroke:#000000; stroke-linecap:butt; stroke-linejoin:round; stroke-width:2; stroke-opacity:0.1; fill:none" points="
  257.626,1626.07 2640.76,1626.07 
  "/>
<polyline clip-path="url(#clip642)" style="stroke:#000000; stroke-linecap:butt; stroke-linejoin:round; stroke-width:2; stroke-opacity:0.1; fill:none" points="
  257.626,1357.79 2640.76,1357.79 
  "/>
<polyline clip-path="url(#clip642)" style="stroke:#000000; stroke-linecap:butt; stroke-linejoin:round; stroke-width:2; stroke-opacity:0.1; fill:none" points="
  257.626,1089.51 2640.76,1089.51 
  "/>
<polyline clip-path="url(#clip642)" style="stroke:#000000; stroke-linecap:butt; stroke-linejoin:round; stroke-width:2; stroke-opacity:0.1; fill:none" points="
  257.626,821.233 2640.76,821.233 
  "/>
<polyline clip-path="url(#clip642)" style="stroke:#000000; stroke-linecap:butt; stroke-linejoin:round; stroke-width:2; stroke-opacity:0.1; fill:none" points="
  257.626,552.953 2640.76,552.953 
  "/>
<polyline clip-path="url(#clip642)" style="stroke:#000000; stroke-linecap:butt; stroke-linejoin:round; stroke-width:2; stroke-opacity:0.1; fill:none" points="
  257.626,284.673 2640.76,284.673 
  "/>
<polyline clip-path="url(#clip640)" style="stroke:#000000; stroke-linecap:butt; stroke-linejoin:round; stroke-width:4; stroke-opacity:1; fill:none" points="
  257.626,1800.78 257.626,47.2441 
  "/>
<polyline clip-path="url(#clip640)" style="stroke:#000000; stroke-linecap:butt; stroke-linejoin:round; stroke-width:4; stroke-opacity:1; fill:none" points="
  257.626,1626.07 276.523,1626.07 
  "/>
<polyline clip-path="url(#clip640)" style="stroke:#000000; stroke-linecap:butt; stroke-linejoin:round; stroke-width:4; stroke-opacity:1; fill:none" points="
  257.626,1357.79 276.523,1357.79 
  "/>
<polyline clip-path="url(#clip640)" style="stroke:#000000; stroke-linecap:butt; stroke-linejoin:round; stroke-width:4; stroke-opacity:1; fill:none" points="
  257.626,1089.51 276.523,1089.51 
  "/>
<polyline clip-path="url(#clip640)" style="stroke:#000000; stroke-linecap:butt; stroke-linejoin:round; stroke-width:4; stroke-opacity:1; fill:none" points="
  257.626,821.233 276.523,821.233 
  "/>
<polyline clip-path="url(#clip640)" style="stroke:#000000; stroke-linecap:butt; stroke-linejoin:round; stroke-width:4; stroke-opacity:1; fill:none" points="
  257.626,552.953 276.523,552.953 
  "/>
<polyline clip-path="url(#clip640)" style="stroke:#000000; stroke-linecap:butt; stroke-linejoin:round; stroke-width:4; stroke-opacity:1; fill:none" points="
  257.626,284.673 276.523,284.673 
  "/>
<path clip-path="url(#clip640)" d="M49.5521 1626.52 L79.2279 1626.52 L79.2279 1630.46 L49.5521 1630.46 L49.5521 1626.52 Z" fill="#000000" fill-rule="evenodd" fill-opacity="1" /><path clip-path="url(#clip640)" d="M102.168 1612.87 L90.3621 1631.32 L102.168 1631.32 L102.168 1612.87 M100.941 1608.79 L106.82 1608.79 L106.82 1631.32 L111.751 1631.32 L111.751 1635.2 L106.82 1635.2 L106.82 1643.35 L102.168 1643.35 L102.168 1635.2 L86.5658 1635.2 L86.5658 1630.69 L100.941 1608.79 Z" fill="#000000" fill-rule="evenodd" fill-opacity="1" /><path clip-path="url(#clip640)" d="M119.482 1637.47 L124.367 1637.47 L124.367 1643.35 L119.482 1643.35 L119.482 1637.47 Z" fill="#000000" fill-rule="evenodd" fill-opacity="1" /><path clip-path="url(#clip640)" d="M147.399 1612.87 L135.593 1631.32 L147.399 1631.32 L147.399 1612.87 M146.172 1608.79 L152.052 1608.79 L152.052 1631.32 L156.982 1631.32 L156.982 1635.2 L152.052 1635.2 L152.052 1643.35 L147.399 1643.35 L147.399 1635.2 L131.797 1635.2 L131.797 1630.69 L146.172 1608.79 Z" fill="#000000" fill-rule="evenodd" fill-opacity="1" /><path clip-path="url(#clip640)" d="M163.533 1608.79 L185.755 1608.79 L185.755 1610.78 L173.209 1643.35 L168.325 1643.35 L180.13 1612.73 L163.533 1612.73 L163.533 1608.79 Z" fill="#000000" fill-rule="evenodd" fill-opacity="1" /><path clip-path="url(#clip640)" d="M207.723 1612.87 L195.917 1631.32 L207.723 1631.32 L207.723 1612.87 M206.496 1608.79 L212.375 1608.79 L212.375 1631.32 L217.306 1631.32 L217.306 1635.2 L212.375 1635.2 L212.375 1643.35 L207.723 1643.35 L207.723 1635.2 L192.121 1635.2 L192.121 1630.69 L206.496 1608.79 Z" fill="#000000" fill-rule="evenodd" fill-opacity="1" /><path clip-path="url(#clip640)" d="M51.6354 1358.24 L81.3112 1358.24 L81.3112 1362.18 L51.6354 1362.18 L51.6354 1358.24 Z" fill="#000000" fill-rule="evenodd" fill-opacity="1" /><path clip-path="url(#clip640)" d="M104.251 1344.59 L92.4454 1363.04 L104.251 1363.04 L104.251 1344.59 M103.024 1340.51 L108.904 1340.51 L108.904 1363.04 L113.834 1363.04 L113.834 1366.93 L108.904 1366.93 L108.904 1375.07 L104.251 1375.07 L104.251 1366.93 L88.6491 1366.93 L88.6491 1362.41 L103.024 1340.51 Z" fill="#000000" fill-rule="evenodd" fill-opacity="1" /><path clip-path="url(#clip640)" d="M121.566 1369.19 L126.45 1369.19 L126.45 1375.07 L121.566 1375.07 L121.566 1369.19 Z" fill="#000000" fill-rule="evenodd" fill-opacity="1" /><path clip-path="url(#clip640)" d="M149.482 1344.59 L137.677 1363.04 L149.482 1363.04 L149.482 1344.59 M148.255 1340.51 L154.135 1340.51 L154.135 1363.04 L159.065 1363.04 L159.065 1366.93 L154.135 1366.93 L154.135 1375.07 L149.482 1375.07 L149.482 1366.93 L133.88 1366.93 L133.88 1362.41 L148.255 1340.51 Z" fill="#000000" fill-rule="evenodd" fill-opacity="1" /><path clip-path="url(#clip640)" d="M165.616 1340.51 L187.838 1340.51 L187.838 1342.5 L175.292 1375.07 L170.408 1375.07 L182.213 1344.45 L165.616 1344.45 L165.616 1340.51 Z" fill="#000000" fill-rule="evenodd" fill-opacity="1" /><path clip-path="url(#clip640)" d="M200.986 1371.14 L217.306 1371.14 L217.306 1375.07 L195.362 1375.07 L195.362 1371.14 Q198.024 1368.38 202.607 1363.75 Q207.213 1359.1 208.394 1357.76 Q210.639 1355.24 211.519 1353.5 Q212.422 1351.74 212.422 1350.05 Q212.422 1347.3 210.477 1345.56 Q208.556 1343.82 205.454 1343.82 Q203.255 1343.82 200.801 1344.59 Q198.371 1345.35 195.593 1346.9 L195.593 1342.18 Q198.417 1341.05 200.871 1340.47 Q203.324 1339.89 205.361 1339.89 Q210.732 1339.89 213.926 1342.57 Q217.121 1345.26 217.121 1349.75 Q217.121 1351.88 216.31 1353.8 Q215.523 1355.7 213.417 1358.29 Q212.838 1358.96 209.736 1362.18 Q206.635 1365.37 200.986 1371.14 Z" fill="#000000" fill-rule="evenodd" fill-opacity="1" /><path clip-path="url(#clip640)" d="M50.0382 1089.96 L79.714 1089.96 L79.714 1093.9 L50.0382 1093.9 L50.0382 1089.96 Z" fill="#000000" fill-rule="evenodd" fill-opacity="1" /><path clip-path="url(#clip640)" d="M102.654 1076.31 L90.8482 1094.76 L102.654 1094.76 L102.654 1076.31 M101.427 1072.23 L107.306 1072.23 L107.306 1094.76 L112.237 1094.76 L112.237 1098.65 L107.306 1098.65 L107.306 1106.79 L102.654 1106.79 L102.654 1098.65 L87.0519 1098.65 L87.0519 1094.13 L101.427 1072.23 Z" fill="#000000" fill-rule="evenodd" fill-opacity="1" /><path clip-path="url(#clip640)" d="M119.968 1100.91 L124.853 1100.91 L124.853 1106.79 L119.968 1106.79 L119.968 1100.91 Z" fill="#000000" fill-rule="evenodd" fill-opacity="1" /><path clip-path="url(#clip640)" d="M147.885 1076.31 L136.079 1094.76 L147.885 1094.76 L147.885 1076.31 M146.658 1072.23 L152.538 1072.23 L152.538 1094.76 L157.468 1094.76 L157.468 1098.65 L152.538 1098.65 L152.538 1106.79 L147.885 1106.79 L147.885 1098.65 L132.283 1098.65 L132.283 1094.13 L146.658 1072.23 Z" fill="#000000" fill-rule="evenodd" fill-opacity="1" /><path clip-path="url(#clip640)" d="M164.019 1072.23 L186.241 1072.23 L186.241 1074.22 L173.695 1106.79 L168.811 1106.79 L180.616 1076.17 L164.019 1076.17 L164.019 1072.23 Z" fill="#000000" fill-rule="evenodd" fill-opacity="1" /><path clip-path="url(#clip640)" d="M205.361 1075.31 Q201.75 1075.31 199.922 1078.88 Q198.116 1082.42 198.116 1089.55 Q198.116 1096.65 199.922 1100.22 Q201.75 1103.76 205.361 1103.76 Q208.996 1103.76 210.801 1100.22 Q212.63 1096.65 212.63 1089.55 Q212.63 1082.42 210.801 1078.88 Q208.996 1075.31 205.361 1075.31 M205.361 1071.61 Q211.172 1071.61 214.227 1076.21 Q217.306 1080.8 217.306 1089.55 Q217.306 1098.27 214.227 1102.88 Q211.172 1107.46 205.361 1107.46 Q199.551 1107.46 196.473 1102.88 Q193.417 1098.27 193.417 1089.55 Q193.417 1080.8 196.473 1076.21 Q199.551 1071.61 205.361 1071.61 Z" fill="#000000" fill-rule="evenodd" fill-opacity="1" /><path clip-path="url(#clip640)" d="M50.1308 821.685 L79.8066 821.685 L79.8066 825.62 L50.1308 825.62 L50.1308 821.685 Z" fill="#000000" fill-rule="evenodd" fill-opacity="1" /><path clip-path="url(#clip640)" d="M102.746 808.027 L90.9408 826.476 L102.746 826.476 L102.746 808.027 M101.519 803.953 L107.399 803.953 L107.399 826.476 L112.33 826.476 L112.33 830.365 L107.399 830.365 L107.399 838.513 L102.746 838.513 L102.746 830.365 L87.1445 830.365 L87.1445 825.851 L101.519 803.953 Z" fill="#000000" fill-rule="evenodd" fill-opacity="1" /><path clip-path="url(#clip640)" d="M120.061 832.634 L124.945 832.634 L124.945 838.513 L120.061 838.513 L120.061 832.634 Z" fill="#000000" fill-rule="evenodd" fill-opacity="1" /><path clip-path="url(#clip640)" d="M147.978 808.027 L136.172 826.476 L147.978 826.476 L147.978 808.027 M146.751 803.953 L152.63 803.953 L152.63 826.476 L157.561 826.476 L157.561 830.365 L152.63 830.365 L152.63 838.513 L147.978 838.513 L147.978 830.365 L132.376 830.365 L132.376 825.851 L146.751 803.953 Z" fill="#000000" fill-rule="evenodd" fill-opacity="1" /><path clip-path="url(#clip640)" d="M175.871 819.37 Q172.723 819.37 170.871 821.523 Q169.042 823.675 169.042 827.425 Q169.042 831.152 170.871 833.328 Q172.723 835.481 175.871 835.481 Q179.019 835.481 180.848 833.328 Q182.7 831.152 182.7 827.425 Q182.7 823.675 180.848 821.523 Q179.019 819.37 175.871 819.37 M185.153 804.717 L185.153 808.976 Q183.394 808.143 181.588 807.703 Q179.806 807.263 178.047 807.263 Q173.417 807.263 170.964 810.388 Q168.533 813.513 168.186 819.833 Q169.551 817.819 171.612 816.754 Q173.672 815.666 176.149 815.666 Q181.357 815.666 184.366 818.837 Q187.399 821.986 187.399 827.425 Q187.399 832.749 184.25 835.967 Q181.102 839.185 175.871 839.185 Q169.876 839.185 166.704 834.601 Q163.533 829.995 163.533 821.268 Q163.533 813.074 167.422 808.213 Q171.311 803.328 177.862 803.328 Q179.621 803.328 181.403 803.676 Q183.209 804.023 185.153 804.717 Z" fill="#000000" fill-rule="evenodd" fill-opacity="1" /><path clip-path="url(#clip640)" d="M205.454 822.101 Q202.121 822.101 200.199 823.884 Q198.301 825.666 198.301 828.791 Q198.301 831.916 200.199 833.699 Q202.121 835.481 205.454 835.481 Q208.787 835.481 210.709 833.699 Q212.63 831.893 212.63 828.791 Q212.63 825.666 210.709 823.884 Q208.811 822.101 205.454 822.101 M200.778 820.111 Q197.769 819.37 196.079 817.31 Q194.412 815.25 194.412 812.287 Q194.412 808.143 197.352 805.736 Q200.315 803.328 205.454 803.328 Q210.616 803.328 213.556 805.736 Q216.496 808.143 216.496 812.287 Q216.496 815.25 214.806 817.31 Q213.139 819.37 210.153 820.111 Q213.533 820.898 215.408 823.189 Q217.306 825.481 217.306 828.791 Q217.306 833.814 214.227 836.499 Q211.172 839.185 205.454 839.185 Q199.737 839.185 196.658 836.499 Q193.602 833.814 193.602 828.791 Q193.602 825.481 195.5 823.189 Q197.399 820.898 200.778 820.111 M199.065 812.726 Q199.065 815.412 200.732 816.916 Q202.422 818.421 205.454 818.421 Q208.463 818.421 210.153 816.916 Q211.866 815.412 211.866 812.726 Q211.866 810.041 210.153 808.537 Q208.463 807.032 205.454 807.032 Q202.422 807.032 200.732 808.537 Q199.065 810.041 199.065 812.726 Z" fill="#000000" fill-rule="evenodd" fill-opacity="1" /><path clip-path="url(#clip640)" d="M49.8762 553.405 L79.552 553.405 L79.552 557.34 L49.8762 557.34 L49.8762 553.405 Z" fill="#000000" fill-rule="evenodd" fill-opacity="1" /><path clip-path="url(#clip640)" d="M102.492 539.747 L90.6862 558.196 L102.492 558.196 L102.492 539.747 M101.265 535.673 L107.144 535.673 L107.144 558.196 L112.075 558.196 L112.075 562.085 L107.144 562.085 L107.144 570.233 L102.492 570.233 L102.492 562.085 L86.8899 562.085 L86.8899 557.571 L101.265 535.673 Z" fill="#000000" fill-rule="evenodd" fill-opacity="1" /><path clip-path="url(#clip640)" d="M119.806 564.354 L124.691 564.354 L124.691 570.233 L119.806 570.233 L119.806 564.354 Z" fill="#000000" fill-rule="evenodd" fill-opacity="1" /><path clip-path="url(#clip640)" d="M147.723 539.747 L135.917 558.196 L147.723 558.196 L147.723 539.747 M146.496 535.673 L152.376 535.673 L152.376 558.196 L157.306 558.196 L157.306 562.085 L152.376 562.085 L152.376 570.233 L147.723 570.233 L147.723 562.085 L132.121 562.085 L132.121 557.571 L146.496 535.673 Z" fill="#000000" fill-rule="evenodd" fill-opacity="1" /><path clip-path="url(#clip640)" d="M175.616 551.09 Q172.468 551.09 170.616 553.243 Q168.788 555.396 168.788 559.145 Q168.788 562.872 170.616 565.048 Q172.468 567.201 175.616 567.201 Q178.764 567.201 180.593 565.048 Q182.445 562.872 182.445 559.145 Q182.445 555.396 180.593 553.243 Q178.764 551.09 175.616 551.09 M184.899 536.437 L184.899 540.697 Q183.139 539.863 181.334 539.423 Q179.551 538.984 177.792 538.984 Q173.163 538.984 170.709 542.109 Q168.278 545.234 167.931 551.553 Q169.297 549.539 171.357 548.474 Q173.417 547.386 175.894 547.386 Q181.102 547.386 184.112 550.558 Q187.144 553.706 187.144 559.145 Q187.144 564.47 183.996 567.687 Q180.848 570.905 175.616 570.905 Q169.621 570.905 166.45 566.321 Q163.278 561.715 163.278 552.988 Q163.278 544.794 167.167 539.933 Q171.056 535.048 177.607 535.048 Q179.366 535.048 181.149 535.396 Q182.954 535.743 184.899 536.437 Z" fill="#000000" fill-rule="evenodd" fill-opacity="1" /><path clip-path="url(#clip640)" d="M205.778 551.09 Q202.63 551.09 200.778 553.243 Q198.949 555.396 198.949 559.145 Q198.949 562.872 200.778 565.048 Q202.63 567.201 205.778 567.201 Q208.926 567.201 210.755 565.048 Q212.607 562.872 212.607 559.145 Q212.607 555.396 210.755 553.243 Q208.926 551.09 205.778 551.09 M215.06 536.437 L215.06 540.697 Q213.301 539.863 211.496 539.423 Q209.713 538.984 207.954 538.984 Q203.324 538.984 200.871 542.109 Q198.44 545.234 198.093 551.553 Q199.459 549.539 201.519 548.474 Q203.579 547.386 206.056 547.386 Q211.264 547.386 214.273 550.558 Q217.306 553.706 217.306 559.145 Q217.306 564.47 214.158 567.687 Q211.01 570.905 205.778 570.905 Q199.783 570.905 196.612 566.321 Q193.44 561.715 193.44 552.988 Q193.44 544.794 197.329 539.933 Q201.218 535.048 207.769 535.048 Q209.528 535.048 211.311 535.396 Q213.116 535.743 215.06 536.437 Z" fill="#000000" fill-rule="evenodd" fill-opacity="1" /><path clip-path="url(#clip640)" d="M49.5521 285.125 L79.2279 285.125 L79.2279 289.06 L49.5521 289.06 L49.5521 285.125 Z" fill="#000000" fill-rule="evenodd" fill-opacity="1" /><path clip-path="url(#clip640)" d="M102.168 271.468 L90.3621 289.916 L102.168 289.916 L102.168 271.468 M100.941 267.393 L106.82 267.393 L106.82 289.916 L111.751 289.916 L111.751 293.805 L106.82 293.805 L106.82 301.953 L102.168 301.953 L102.168 293.805 L86.5658 293.805 L86.5658 289.292 L100.941 267.393 Z" fill="#000000" fill-rule="evenodd" fill-opacity="1" /><path clip-path="url(#clip640)" d="M119.482 296.074 L124.367 296.074 L124.367 301.953 L119.482 301.953 L119.482 296.074 Z" fill="#000000" fill-rule="evenodd" fill-opacity="1" /><path clip-path="url(#clip640)" d="M147.399 271.468 L135.593 289.916 L147.399 289.916 L147.399 271.468 M146.172 267.393 L152.052 267.393 L152.052 289.916 L156.982 289.916 L156.982 293.805 L152.052 293.805 L152.052 301.953 L147.399 301.953 L147.399 293.805 L131.797 293.805 L131.797 289.292 L146.172 267.393 Z" fill="#000000" fill-rule="evenodd" fill-opacity="1" /><path clip-path="url(#clip640)" d="M175.292 282.81 Q172.144 282.81 170.292 284.963 Q168.464 287.116 168.464 290.866 Q168.464 294.592 170.292 296.768 Q172.144 298.921 175.292 298.921 Q178.44 298.921 180.269 296.768 Q182.121 294.592 182.121 290.866 Q182.121 287.116 180.269 284.963 Q178.44 282.81 175.292 282.81 M184.575 268.157 L184.575 272.417 Q182.815 271.583 181.01 271.143 Q179.227 270.704 177.468 270.704 Q172.839 270.704 170.385 273.829 Q167.954 276.954 167.607 283.273 Q168.973 281.259 171.033 280.194 Q173.093 279.106 175.57 279.106 Q180.778 279.106 183.788 282.278 Q186.82 285.426 186.82 290.866 Q186.82 296.19 183.672 299.407 Q180.524 302.625 175.292 302.625 Q169.297 302.625 166.126 298.041 Q162.954 293.435 162.954 284.708 Q162.954 276.514 166.843 271.653 Q170.732 266.768 177.283 266.768 Q179.042 266.768 180.825 267.116 Q182.63 267.463 184.575 268.157 Z" fill="#000000" fill-rule="evenodd" fill-opacity="1" /><path clip-path="url(#clip640)" d="M207.723 271.468 L195.917 289.916 L207.723 289.916 L207.723 271.468 M206.496 267.393 L212.375 267.393 L212.375 289.916 L217.306 289.916 L217.306 293.805 L212.375 293.805 L212.375 301.953 L207.723 301.953 L207.723 293.805 L192.121 293.805 L192.121 289.292 L206.496 267.393 Z" fill="#000000" fill-rule="evenodd" fill-opacity="1" /><polyline clip-path="url(#clip642)" style="stroke:#009af9; stroke-linecap:butt; stroke-linejoin:round; stroke-width:4; stroke-opacity:1; fill:none" points="
  325.073,909.842 336.051,929.496 347.029,948.918 448.536,1117.48 550.042,1266.18 611.044,1345.98 672.045,1418.62 723.621,1474.45 775.197,1525.15 887.249,1617.68 
  990.551,1681.59 1045.93,1707.4 1101.3,1727.33 1165.46,1743.04 1229.62,1750.85 1286.63,1751.15 1343.65,1745.21 1393.65,1734.86 1443.64,1719.72 1552.66,1670.05 
  1662.33,1597.05 1722.96,1546.78 1783.59,1489.45 1841.27,1428.35 1898.96,1360.85 2018.92,1200 2119.9,1043.16 2181.54,937.768 2243.18,825.065 2301.12,712.45 
  2359.07,593.367 2451.9,389.098 2544.74,168.208 2559.02,132.737 2573.31,96.8724 
  "/>
<path clip-path="url(#clip640)" d="
M2244.1 209.375 L2561.32 209.375 L2561.32 105.695 L2244.1 105.695  Z
  " fill="#ffffff" fill-rule="evenodd" fill-opacity="1"/>
<polyline clip-path="url(#clip640)" style="stroke:#000000; stroke-linecap:butt; stroke-linejoin:round; stroke-width:4; stroke-opacity:1; fill:none" points="
  2244.1,209.375 2561.32,209.375 2561.32,105.695 2244.1,105.695 2244.1,209.375 
  "/>
<polyline clip-path="url(#clip640)" style="stroke:#009af9; stroke-linecap:butt; stroke-linejoin:round; stroke-width:4; stroke-opacity:1; fill:none" points="
  2270.57,157.535 2429.45,157.535 
  "/>
<path clip-path="url(#clip640)" d="M2469.77 177.223 Q2467.97 181.852 2466.25 183.264 Q2464.54 184.676 2461.67 184.676 L2458.27 184.676 L2458.27 181.112 L2460.77 181.112 Q2462.53 181.112 2463.5 180.278 Q2464.47 179.445 2465.65 176.343 L2466.42 174.399 L2455.93 148.889 L2460.44 148.889 L2468.55 169.167 L2476.65 148.889 L2481.16 148.889 L2469.77 177.223 Z" fill="#000000" fill-rule="evenodd" fill-opacity="1" /><path clip-path="url(#clip640)" d="M2488.45 170.88 L2496.09 170.88 L2496.09 144.515 L2487.78 146.181 L2487.78 141.922 L2496.05 140.255 L2500.72 140.255 L2500.72 170.88 L2508.36 170.88 L2508.36 174.815 L2488.45 174.815 L2488.45 170.88 Z" fill="#000000" fill-rule="evenodd" fill-opacity="1" /></svg>
