<?xml version="1.0" encoding="utf-8"?>
<svg xmlns="http://www.w3.org/2000/svg" xmlns:xlink="http://www.w3.org/1999/xlink" width="672" height="480" viewBox="0 0 2688 1920">
<defs>
  <clipPath id="clip520">
    <rect x="0" y="0" width="2688" height="1920"/>
  </clipPath>
</defs>
<path clip-path="url(#clip520)" d="
M0 1920 L2688 1920 L2688 0 L0 0  Z
  " fill="#ffffff" fill-rule="evenodd" fill-opacity="1"/>
<defs>
  <clipPath id="clip521">
    <rect x="537" y="0" width="1883" height="1883"/>
  </clipPath>
</defs>
<path clip-path="url(#clip520)" d="
M159.478 1800.78 L2640.76 1800.78 L2640.76 47.2441 L159.478 47.2441  Z
  " fill="#ffffff" fill-rule="evenodd" fill-opacity="1"/>
<defs>
  <clipPath id="clip522">
    <rect x="159" y="47" width="2482" height="1755"/>
  </clipPath>
</defs>
<polyline clip-path="url(#clip522)" style="stroke:#000000; stroke-linecap:butt; stroke-linejoin:round; stroke-width:2; stroke-opacity:0.1; fill:none" points="
  229.703,1800.78 229.703,47.2441 
  "/>
<polyline clip-path="url(#clip522)" style="stroke:#000000; stroke-linecap:butt; stroke-linejoin:round; stroke-width:2; stroke-opacity:0.1; fill:none" points="
  814.91,1800.78 814.91,47.2441 
  "/>
<polyline clip-path="url(#clip522)" style="stroke:#000000; stroke-linecap:butt; stroke-linejoin:round; stroke-width:2; stroke-opacity:0.1; fill:none" points="
  1400.12,1800.78 1400.12,47.2441 
  "/>
<polyline clip-path="url(#clip522)" style="stroke:#000000; stroke-linecap:butt; stroke-linejoin:round; stroke-width:2; stroke-opacity:0.1; fill:none" points="
  1985.32,1800.78 1985.32,47.2441 
  "/>
<polyline clip-path="url(#clip522)" style="stroke:#000000; stroke-linecap:butt; stroke-linejoin:round; stroke-width:2; stroke-opacity:0.1; fill:none" points="
  2570.53,1800.78 2570.53,47.2441 
  "/>
<polyline clip-path="url(#clip520)" style="stroke:#000000; stroke-linecap:butt; stroke-linejoin:round; stroke-width:4; stroke-opacity:1; fill:none" points="
  159.478,1800.78 2640.76,1800.78 
  "/>
<polyline clip-path="url(#clip520)" style="stroke:#000000; stroke-linecap:butt; stroke-linejoin:round; stroke-width:4; stroke-opacity:1; fill:none" points="
  229.703,1800.78 229.703,1781.88 
  "/>
<polyline clip-path="url(#clip520)" style="stroke:#000000; stroke-linecap:butt; stroke-linejoin:round; stroke-width:4; stroke-opacity:1; fill:none" points="
  814.91,1800.78 814.91,1781.88 
  "/>
<polyline clip-path="url(#clip520)" style="stroke:#000000; stroke-linecap:butt; stroke-linejoin:round; stroke-width:4; stroke-opacity:1; fill:none" points="
  1400.12,1800.78 1400.12,1781.88 
  "/>
<polyline clip-path="url(#clip520)" style="stroke:#000000; stroke-linecap:butt; stroke-linejoin:round; stroke-width:4; stroke-opacity:1; fill:none" points="
  1985.32,1800.78 1985.32,1781.88 
  "/>
<polyline clip-path="url(#clip520)" style="stroke:#000000; stroke-linecap:butt; stroke-linejoin:round; stroke-width:4; stroke-opacity:1; fill:none" points="
  2570.53,1800.78 2570.53,1781.88 
  "/>
<path clip-path="url(#clip520)" d="M229.703 1834 Q226.092 1834 224.263 1837.57 Q222.458 1841.11 222.458 1848.24 Q222.458 1855.34 224.263 1858.91 Q226.092 1862.45 229.703 1862.45 Q233.337 1862.45 235.143 1858.91 Q236.972 1855.34 236.972 1848.24 Q236.972 1841.11 235.143 1837.57 Q233.337 1834 229.703 1834 M229.703 1830.3 Q235.513 1830.3 238.569 1834.9 Q241.647 1839.49 241.647 1848.24 Q241.647 1856.96 238.569 1861.57 Q235.513 1866.15 229.703 1866.15 Q223.893 1866.15 220.814 1861.57 Q217.759 1856.96 217.759 1848.24 Q217.759 1839.49 220.814 1834.9 Q223.893 1830.3 229.703 1830.3 Z" fill="#000000" fill-rule="evenodd" fill-opacity="1" /><path clip-path="url(#clip520)" d="M794.181 1861.55 L810.5 1861.55 L810.5 1865.48 L788.556 1865.48 L788.556 1861.55 Q791.218 1858.79 795.801 1854.16 Q800.408 1849.51 801.588 1848.17 Q803.834 1845.65 804.713 1843.91 Q805.616 1842.15 805.616 1840.46 Q805.616 1837.71 803.672 1835.97 Q801.75 1834.23 798.649 1834.23 Q796.45 1834.23 793.996 1835 Q791.565 1835.76 788.788 1837.31 L788.788 1832.59 Q791.612 1831.46 794.065 1830.88 Q796.519 1830.3 798.556 1830.3 Q803.926 1830.3 807.121 1832.98 Q810.315 1835.67 810.315 1840.16 Q810.315 1842.29 809.505 1844.21 Q808.718 1846.11 806.612 1848.7 Q806.033 1849.37 802.931 1852.59 Q799.829 1855.78 794.181 1861.55 Z" fill="#000000" fill-rule="evenodd" fill-opacity="1" /><path clip-path="url(#clip520)" d="M820.361 1830.92 L838.718 1830.92 L838.718 1834.86 L824.644 1834.86 L824.644 1843.33 Q825.662 1842.98 826.681 1842.82 Q827.699 1842.64 828.718 1842.64 Q834.505 1842.64 837.884 1845.81 Q841.264 1848.98 841.264 1854.4 Q841.264 1859.97 837.792 1863.08 Q834.32 1866.15 828 1866.15 Q825.824 1866.15 823.556 1865.78 Q821.311 1865.41 818.903 1864.67 L818.903 1859.97 Q820.986 1861.11 823.209 1861.66 Q825.431 1862.22 827.908 1862.22 Q831.912 1862.22 834.25 1860.11 Q836.588 1858.01 836.588 1854.4 Q836.588 1850.78 834.25 1848.68 Q831.912 1846.57 827.908 1846.57 Q826.033 1846.57 824.158 1846.99 Q822.306 1847.4 820.361 1848.28 L820.361 1830.92 Z" fill="#000000" fill-rule="evenodd" fill-opacity="1" /><path clip-path="url(#clip520)" d="M1374.82 1830.92 L1393.17 1830.92 L1393.17 1834.86 L1379.1 1834.86 L1379.1 1843.33 Q1380.12 1842.98 1381.14 1842.82 Q1382.15 1842.64 1383.17 1842.64 Q1388.96 1842.64 1392.34 1845.81 Q1395.72 1848.98 1395.72 1854.4 Q1395.72 1859.97 1392.25 1863.08 Q1388.77 1866.15 1382.46 1866.15 Q1380.28 1866.15 1378.01 1865.78 Q1375.77 1865.41 1373.36 1864.67 L1373.36 1859.97 Q1375.44 1861.11 1377.66 1861.66 Q1379.89 1862.22 1382.36 1862.22 Q1386.37 1862.22 1388.71 1860.11 Q1391.04 1858.01 1391.04 1854.4 Q1391.04 1850.78 1388.71 1848.68 Q1386.37 1846.57 1382.36 1846.57 Q1380.49 1846.57 1378.61 1846.99 Q1376.76 1847.4 1374.82 1848.28 L1374.82 1830.92 Z" fill="#000000" fill-rule="evenodd" fill-opacity="1" /><path clip-path="url(#clip520)" d="M1414.93 1834 Q1411.32 1834 1409.49 1837.57 Q1407.69 1841.11 1407.69 1848.24 Q1407.69 1855.34 1409.49 1858.91 Q1411.32 1862.45 1414.93 1862.45 Q1418.57 1862.45 1420.37 1858.91 Q1422.2 1855.34 1422.2 1848.24 Q1422.2 1841.11 1420.37 1837.57 Q1418.57 1834 1414.93 1834 M1414.93 1830.3 Q1420.74 1830.3 1423.8 1834.9 Q1426.88 1839.49 1426.88 1848.24 Q1426.88 1856.96 1423.8 1861.57 Q1420.74 1866.15 1414.93 1866.15 Q1409.12 1866.15 1406.04 1861.57 Q1402.99 1856.96 1402.99 1848.24 Q1402.99 1839.49 1406.04 1834.9 Q1409.12 1830.3 1414.93 1830.3 Z" fill="#000000" fill-rule="evenodd" fill-opacity="1" /><path clip-path="url(#clip520)" d="M1959.18 1830.92 L1981.4 1830.92 L1981.4 1832.91 L1968.85 1865.48 L1963.97 1865.48 L1975.78 1834.86 L1959.18 1834.86 L1959.18 1830.92 Z" fill="#000000" fill-rule="evenodd" fill-opacity="1" /><path clip-path="url(#clip520)" d="M1990.57 1830.92 L2008.92 1830.92 L2008.92 1834.86 L1994.85 1834.86 L1994.85 1843.33 Q1995.87 1842.98 1996.89 1842.82 Q1997.91 1842.64 1998.92 1842.64 Q2004.71 1842.64 2008.09 1845.81 Q2011.47 1848.98 2011.47 1854.4 Q2011.47 1859.97 2008 1863.08 Q2004.53 1866.15 1998.21 1866.15 Q1996.03 1866.15 1993.76 1865.78 Q1991.52 1865.41 1989.11 1864.67 L1989.11 1859.97 Q1991.19 1861.11 1993.41 1861.66 Q1995.64 1862.22 1998.11 1862.22 Q2002.12 1862.22 2004.46 1860.11 Q2006.79 1858.01 2006.79 1854.4 Q2006.79 1850.78 2004.46 1848.68 Q2002.12 1846.57 1998.11 1846.57 Q1996.24 1846.57 1994.36 1846.99 Q1992.51 1847.4 1990.57 1848.28 L1990.57 1830.92 Z" fill="#000000" fill-rule="evenodd" fill-opacity="1" /><path clip-path="url(#clip520)" d="M2530.14 1861.55 L2537.78 1861.55 L2537.78 1835.18 L2529.47 1836.85 L2529.47 1832.59 L2537.73 1830.92 L2542.41 1830.92 L2542.41 1861.55 L2550.05 1861.55 L2550.05 1865.48 L2530.14 1865.48 L2530.14 1861.55 Z" fill="#000000" fill-rule="evenodd" fill-opacity="1" /><path clip-path="url(#clip520)" d="M2569.49 1834 Q2565.88 1834 2564.05 1837.57 Q2562.24 1841.11 2562.24 1848.24 Q2562.24 1855.34 2564.05 1858.91 Q2565.88 1862.45 2569.49 1862.45 Q2573.12 1862.45 2574.93 1858.91 Q2576.76 1855.34 2576.76 1848.24 Q2576.76 1841.11 2574.93 1837.57 Q2573.12 1834 2569.49 1834 M2569.49 1830.3 Q2575.3 1830.3 2578.36 1834.9 Q2581.43 1839.49 2581.43 1848.24 Q2581.43 1856.96 2578.36 1861.57 Q2575.3 1866.15 2569.49 1866.15 Q2563.68 1866.15 2560.6 1861.57 Q2557.55 1856.96 2557.55 1848.24 Q2557.55 1839.49 2560.6 1834.9 Q2563.68 1830.3 2569.49 1830.3 Z" fill="#000000" fill-rule="evenodd" fill-opacity="1" /><path clip-path="url(#clip520)" d="M2599.65 1834 Q2596.04 1834 2594.21 1837.57 Q2592.41 1841.11 2592.41 1848.24 Q2592.41 1855.34 2594.21 1858.91 Q2596.04 1862.45 2599.65 1862.45 Q2603.29 1862.45 2605.09 1858.91 Q2606.92 1855.34 2606.92 1848.24 Q2606.92 1841.11 2605.09 1837.57 Q2603.29 1834 2599.65 1834 M2599.65 1830.3 Q2605.46 1830.3 2608.52 1834.9 Q2611.6 1839.49 2611.6 1848.24 Q2611.6 1856.96 2608.52 1861.57 Q2605.46 1866.15 2599.65 1866.15 Q2593.84 1866.15 2590.76 1861.57 Q2587.71 1856.96 2587.71 1848.24 Q2587.71 1839.49 2590.76 1834.9 Q2593.84 1830.3 2599.65 1830.3 Z" fill="#000000" fill-rule="evenodd" fill-opacity="1" /><polyline clip-path="url(#clip522)" style="stroke:#000000; stroke-linecap:butt; stroke-linejoin:round; stroke-width:2; stroke-opacity:0.1; fill:none" points="
  159.478,1751.15 2640.76,1751.15 
  "/>
<polyline clip-path="url(#clip522)" style="stroke:#000000; stroke-linecap:butt; stroke-linejoin:round; stroke-width:2; stroke-opacity:0.1; fill:none" points="
  159.478,1365.41 2640.76,1365.41 
  "/>
<polyline clip-path="url(#clip522)" style="stroke:#000000; stroke-linecap:butt; stroke-linejoin:round; stroke-width:2; stroke-opacity:0.1; fill:none" points="
  159.478,979.672 2640.76,979.672 
  "/>
<polyline clip-path="url(#clip522)" style="stroke:#000000; stroke-linecap:butt; stroke-linejoin:round; stroke-width:2; stroke-opacity:0.1; fill:none" points="
  159.478,593.932 2640.76,593.932 
  "/>
<polyline clip-path="url(#clip522)" style="stroke:#000000; stroke-linecap:butt; stroke-linejoin:round; stroke-width:2; stroke-opacity:0.1; fill:none" points="
  159.478,208.192 2640.76,208.192 
  "/>
<polyline clip-path="url(#clip520)" style="stroke:#000000; stroke-linecap:butt; stroke-linejoin:round; stroke-width:4; stroke-opacity:1; fill:none" points="
  159.478,1800.78 159.478,47.2441 
  "/>
<polyline clip-path="url(#clip520)" style="stroke:#000000; stroke-linecap:butt; stroke-linejoin:round; stroke-width:4; stroke-opacity:1; fill:none" points="
  159.478,1751.15 178.376,1751.15 
  "/>
<polyline clip-path="url(#clip520)" style="stroke:#000000; stroke-linecap:butt; stroke-linejoin:round; stroke-width:4; stroke-opacity:1; fill:none" points="
  159.478,1365.41 178.376,1365.41 
  "/>
<polyline clip-path="url(#clip520)" style="stroke:#000000; stroke-linecap:butt; stroke-linejoin:round; stroke-width:4; stroke-opacity:1; fill:none" points="
  159.478,979.672 178.376,979.672 
  "/>
<polyline clip-path="url(#clip520)" style="stroke:#000000; stroke-linecap:butt; stroke-linejoin:round; stroke-width:4; stroke-opacity:1; fill:none" points="
  159.478,593.932 178.376,593.932 
  "/>
<polyline clip-path="url(#clip520)" style="stroke:#000000; stroke-linecap:butt; stroke-linejoin:round; stroke-width:4; stroke-opacity:1; fill:none" points="
  159.478,208.192 178.376,208.192 
  "/>
<path clip-path="url(#clip520)" d="M61.9826 1736.95 Q58.3715 1736.95 56.5428 1740.51 Q54.7373 1744.06 54.7373 1751.19 Q54.7373 1758.29 56.5428 1761.86 Q58.3715 1765.4 61.9826 1765.4 Q65.6169 1765.4 67.4224 1761.86 Q69.2511 1758.29 69.2511 1751.19 Q69.2511 1744.06 67.4224 1740.51 Q65.6169 1736.95 61.9826 1736.95 M61.9826 1733.25 Q67.7928 1733.25 70.8483 1737.85 Q73.927 1742.44 73.927 1751.19 Q73.927 1759.91 70.8483 1764.52 Q67.7928 1769.1 61.9826 1769.1 Q56.1725 1769.1 53.0938 1764.52 Q50.0382 1759.91 50.0382 1751.19 Q50.0382 1742.44 53.0938 1737.85 Q56.1725 1733.25 61.9826 1733.25 Z" fill="#000000" fill-rule="evenodd" fill-opacity="1" /><path clip-path="url(#clip520)" d="M82.1445 1762.55 L87.0288 1762.55 L87.0288 1768.43 L82.1445 1768.43 L82.1445 1762.55 Z" fill="#000000" fill-rule="evenodd" fill-opacity="1" /><path clip-path="url(#clip520)" d="M107.214 1736.95 Q103.603 1736.95 101.774 1740.51 Q99.9685 1744.06 99.9685 1751.19 Q99.9685 1758.29 101.774 1761.86 Q103.603 1765.4 107.214 1765.4 Q110.848 1765.4 112.654 1761.86 Q114.482 1758.29 114.482 1751.19 Q114.482 1744.06 112.654 1740.51 Q110.848 1736.95 107.214 1736.95 M107.214 1733.25 Q113.024 1733.25 116.08 1737.85 Q119.158 1742.44 119.158 1751.19 Q119.158 1759.91 116.08 1764.52 Q113.024 1769.1 107.214 1769.1 Q101.404 1769.1 98.325 1764.52 Q95.2695 1759.91 95.2695 1751.19 Q95.2695 1742.44 98.325 1737.85 Q101.404 1733.25 107.214 1733.25 Z" fill="#000000" fill-rule="evenodd" fill-opacity="1" /><path clip-path="url(#clip520)" d="M63.2095 1351.21 Q59.5984 1351.21 57.7697 1354.77 Q55.9641 1358.32 55.9641 1365.45 Q55.9641 1372.55 57.7697 1376.12 Q59.5984 1379.66 63.2095 1379.66 Q66.8437 1379.66 68.6492 1376.12 Q70.4779 1372.55 70.4779 1365.45 Q70.4779 1358.32 68.6492 1354.77 Q66.8437 1351.21 63.2095 1351.21 M63.2095 1347.51 Q69.0196 1347.51 72.0752 1352.11 Q75.1538 1356.7 75.1538 1365.45 Q75.1538 1374.17 72.0752 1378.78 Q69.0196 1383.36 63.2095 1383.36 Q57.3993 1383.36 54.3206 1378.78 Q51.2651 1374.17 51.2651 1365.45 Q51.2651 1356.7 54.3206 1352.11 Q57.3993 1347.51 63.2095 1347.51 Z" fill="#000000" fill-rule="evenodd" fill-opacity="1" /><path clip-path="url(#clip520)" d="M83.3714 1376.81 L88.2556 1376.81 L88.2556 1382.69 L83.3714 1382.69 L83.3714 1376.81 Z" fill="#000000" fill-rule="evenodd" fill-opacity="1" /><path clip-path="url(#clip520)" d="M99.2509 1378.76 L106.89 1378.76 L106.89 1352.39 L98.5796 1354.06 L98.5796 1349.8 L106.843 1348.13 L111.519 1348.13 L111.519 1378.76 L119.158 1378.76 L119.158 1382.69 L99.2509 1382.69 L99.2509 1378.76 Z" fill="#000000" fill-rule="evenodd" fill-opacity="1" /><path clip-path="url(#clip520)" d="M63.5798 965.47 Q59.9687 965.47 58.14 969.035 Q56.3345 972.577 56.3345 979.706 Q56.3345 986.813 58.14 990.378 Q59.9687 993.919 63.5798 993.919 Q67.2141 993.919 69.0196 990.378 Q70.8483 986.813 70.8483 979.706 Q70.8483 972.577 69.0196 969.035 Q67.2141 965.47 63.5798 965.47 M63.5798 961.767 Q69.39 961.767 72.4455 966.373 Q75.5242 970.956 75.5242 979.706 Q75.5242 988.433 72.4455 993.04 Q69.39 997.623 63.5798 997.623 Q57.7697 997.623 54.691 993.04 Q51.6354 988.433 51.6354 979.706 Q51.6354 970.956 54.691 966.373 Q57.7697 961.767 63.5798 961.767 Z" fill="#000000" fill-rule="evenodd" fill-opacity="1" /><path clip-path="url(#clip520)" d="M83.7418 991.072 L88.626 991.072 L88.626 996.952 L83.7418 996.952 L83.7418 991.072 Z" fill="#000000" fill-rule="evenodd" fill-opacity="1" /><path clip-path="url(#clip520)" d="M102.839 993.016 L119.158 993.016 L119.158 996.952 L97.2139 996.952 L97.2139 993.016 Q99.8759 990.262 104.459 985.632 Q109.066 980.979 110.246 979.637 Q112.492 977.114 113.371 975.378 Q114.274 973.618 114.274 971.929 Q114.274 969.174 112.33 967.438 Q110.408 965.702 107.306 965.702 Q105.107 965.702 102.654 966.466 Q100.223 967.23 97.4454 968.78 L97.4454 964.058 Q100.269 962.924 102.723 962.345 Q105.177 961.767 107.214 961.767 Q112.584 961.767 115.779 964.452 Q118.973 967.137 118.973 971.628 Q118.973 973.757 118.163 975.679 Q117.376 977.577 115.269 980.169 Q114.691 980.841 111.589 984.058 Q108.487 987.253 102.839 993.016 Z" fill="#000000" fill-rule="evenodd" fill-opacity="1" /><path clip-path="url(#clip520)" d="M62.6308 579.731 Q59.0197 579.731 57.191 583.295 Q55.3854 586.837 55.3854 593.967 Q55.3854 601.073 57.191 604.638 Q59.0197 608.18 62.6308 608.18 Q66.265 608.18 68.0705 604.638 Q69.8992 601.073 69.8992 593.967 Q69.8992 586.837 68.0705 583.295 Q66.265 579.731 62.6308 579.731 M62.6308 576.027 Q68.4409 576.027 71.4965 580.633 Q74.5751 585.217 74.5751 593.967 Q74.5751 602.693 71.4965 607.3 Q68.4409 611.883 62.6308 611.883 Q56.8206 611.883 53.7419 607.3 Q50.6864 602.693 50.6864 593.967 Q50.6864 585.217 53.7419 580.633 Q56.8206 576.027 62.6308 576.027 Z" fill="#000000" fill-rule="evenodd" fill-opacity="1" /><path clip-path="url(#clip520)" d="M82.7927 605.332 L87.6769 605.332 L87.6769 611.212 L82.7927 611.212 L82.7927 605.332 Z" fill="#000000" fill-rule="evenodd" fill-opacity="1" /><path clip-path="url(#clip520)" d="M112.029 592.578 Q115.385 593.295 117.26 595.564 Q119.158 597.832 119.158 601.166 Q119.158 606.281 115.64 609.082 Q112.121 611.883 105.64 611.883 Q103.464 611.883 101.149 611.443 Q98.8574 611.027 96.4037 610.17 L96.4037 605.656 Q98.3482 606.791 100.663 607.369 Q102.978 607.948 105.501 607.948 Q109.899 607.948 112.191 606.212 Q114.505 604.476 114.505 601.166 Q114.505 598.11 112.353 596.397 Q110.223 594.661 106.404 594.661 L102.376 594.661 L102.376 590.819 L106.589 590.819 Q110.038 590.819 111.867 589.453 Q113.695 588.064 113.695 585.471 Q113.695 582.809 111.797 581.397 Q109.922 579.962 106.404 579.962 Q104.482 579.962 102.283 580.379 Q100.084 580.795 97.4454 581.675 L97.4454 577.508 Q100.107 576.768 102.422 576.397 Q104.76 576.027 106.82 576.027 Q112.144 576.027 115.246 578.457 Q118.348 580.865 118.348 584.985 Q118.348 587.856 116.705 589.846 Q115.061 591.814 112.029 592.578 Z" fill="#000000" fill-rule="evenodd" fill-opacity="1" /><path clip-path="url(#clip520)" d="M61.4965 193.991 Q57.8854 193.991 56.0567 197.556 Q54.2512 201.097 54.2512 208.227 Q54.2512 215.333 56.0567 218.898 Q57.8854 222.44 61.4965 222.44 Q65.1307 222.44 66.9363 218.898 Q68.765 215.333 68.765 208.227 Q68.765 201.097 66.9363 197.556 Q65.1307 193.991 61.4965 193.991 M61.4965 190.287 Q67.3067 190.287 70.3622 194.894 Q73.4409 199.477 73.4409 208.227 Q73.4409 216.954 70.3622 221.56 Q67.3067 226.144 61.4965 226.144 Q55.6864 226.144 52.6077 221.56 Q49.5521 216.954 49.5521 208.227 Q49.5521 199.477 52.6077 194.894 Q55.6864 190.287 61.4965 190.287 Z" fill="#000000" fill-rule="evenodd" fill-opacity="1" /><path clip-path="url(#clip520)" d="M81.6584 219.593 L86.5427 219.593 L86.5427 225.472 L81.6584 225.472 L81.6584 219.593 Z" fill="#000000" fill-rule="evenodd" fill-opacity="1" /><path clip-path="url(#clip520)" d="M109.575 194.986 L97.7695 213.435 L109.575 213.435 L109.575 194.986 M108.348 190.912 L114.228 190.912 L114.228 213.435 L119.158 213.435 L119.158 217.324 L114.228 217.324 L114.228 225.472 L109.575 225.472 L109.575 217.324 L93.9732 217.324 L93.9732 212.81 L108.348 190.912 Z" fill="#000000" fill-rule="evenodd" fill-opacity="1" /><polyline clip-path="url(#clip522)" style="stroke:#009af9; stroke-linecap:butt; stroke-linejoin:round; stroke-width:4; stroke-opacity:1; fill:none" points="
  229.703,1751.15 231.132,1516.58 232.561,1287.23 233.989,1068.12 235.418,863.881 236.132,768.652 236.847,678.633 237.561,594.232 238.276,515.805 238.99,443.661 
  239.704,378.051 240.419,319.176 241.133,267.181 241.848,222.156 242.562,184.138 243.276,153.111 243.991,129.007 244.705,111.714 245.419,101.07 246.134,96.8724 
  246.848,98.88 247.563,106.816 248.277,120.373 248.991,139.215 249.706,162.987 250.42,191.312 251.134,223.802 251.849,260.056 252.563,299.671 255.866,514.945 
  259.169,755.51 260.82,875.176 262.471,990.242 264.123,1098.4 265.774,1198.01 267.425,1288.03 269.077,1367.98 270.728,1437.82 272.38,1497.87 274.031,1548.75 
  275.682,1591.23 277.334,1626.21 278.985,1654.62 282.288,1695.41 285.59,1720.34 288.893,1734.84 292.196,1742.88 298.801,1749.28 305.407,1750.79 318.618,1751.14 
  331.829,1751.15 345.04,1751.15 358.251,1751.15 411.094,1751.15 463.938,1751.15 527.452,1751.15 590.965,1751.15 644.665,1751.15 698.365,1751.15 815.032,1751.15 
  922.588,1751.15 1037.9,1751.15 1171.5,1751.15 1290.23,1751.15 1394.34,1751.15 1507.85,1751.15 1622.04,1751.15 1748.29,1751.15 1868.41,1751.15 1993.31,1751.15 
  2098.44,1751.15 2226.81,1751.15 2347.47,1751.15 2540.78,1751.15 2570.53,1751.15 
  "/>
<path clip-path="url(#clip520)" d="
M2229.92 209.375 L2558.05 209.375 L2558.05 105.695 L2229.92 105.695  Z
  " fill="#ffffff" fill-rule="evenodd" fill-opacity="1"/>
<polyline clip-path="url(#clip520)" style="stroke:#000000; stroke-linecap:butt; stroke-linejoin:round; stroke-width:4; stroke-opacity:1; fill:none" points="
  2229.92,209.375 2558.05,209.375 2558.05,105.695 2229.92,105.695 2229.92,209.375 
  "/>
<polyline clip-path="url(#clip520)" style="stroke:#009af9; stroke-linecap:butt; stroke-linejoin:round; stroke-width:4; stroke-opacity:1; fill:none" points="
  2257.49,157.535 2422.91,157.535 
  "/>
<path clip-path="url(#clip520)" d="M2464.32 177.223 Q2462.51 181.852 2460.8 183.264 Q2459.09 184.676 2456.22 184.676 L2452.81 184.676 L2452.81 181.112 L2455.31 181.112 Q2457.07 181.112 2458.05 180.278 Q2459.02 179.445 2460.2 176.343 L2460.96 174.399 L2450.48 148.889 L2454.99 148.889 L2463.09 169.167 L2471.19 148.889 L2475.71 148.889 L2464.32 177.223 Z" fill="#000000" fill-rule="evenodd" fill-opacity="1" /><path clip-path="url(#clip520)" d="M2483 170.88 L2490.64 170.88 L2490.64 144.515 L2482.33 146.181 L2482.33 141.922 L2490.59 140.255 L2495.27 140.255 L2495.27 170.88 L2502.91 170.88 L2502.91 174.815 L2483 174.815 L2483 170.88 Z" fill="#000000" fill-rule="evenodd" fill-opacity="1" /></svg>
