<?xml version="1.0" encoding="utf-8"?>
<svg xmlns="http://www.w3.org/2000/svg" xmlns:xlink="http://www.w3.org/1999/xlink" width="672" height="480" viewBox="0 0 2688 1920">
<defs>
  <clipPath id="clip660">
    <rect x="0" y="0" width="2688" height="1920"/>
  </clipPath>
</defs>
<path clip-path="url(#clip660)" d="
M0 1920 L2688 1920 L2688 0 L0 0  Z
  " fill="#ffffff" fill-rule="evenodd" fill-opacity="1"/>
<defs>
  <clipPath id="clip661">
    <rect x="537" y="0" width="1883" height="1883"/>
  </clipPath>
</defs>
<path clip-path="url(#clip660)" d="
M143.576 1800.78 L2640.76 1800.78 L2640.76 47.2441 L143.576 47.2441  Z
  " fill="#ffffff" fill-rule="evenodd" fill-opacity="1"/>
<defs>
  <clipPath id="clip662">
    <rect x="143" y="47" width="2498" height="1755"/>
  </clipPath>
</defs>
<polyline clip-path="url(#clip662)" style="stroke:#000000; stroke-linecap:butt; stroke-linejoin:round; stroke-width:2; stroke-opacity:0.1; fill:none" points="
  214.25,1800.78 214.25,47.2441 
  "/>
<polyline clip-path="url(#clip662)" style="stroke:#000000; stroke-linecap:butt; stroke-linejoin:round; stroke-width:2; stroke-opacity:0.1; fill:none" points="
  819.887,1800.78 819.887,47.2441 
  "/>
<polyline clip-path="url(#clip662)" style="stroke:#000000; stroke-linecap:butt; stroke-linejoin:round; stroke-width:2; stroke-opacity:0.1; fill:none" points="
  1425.52,1800.78 1425.52,47.2441 
  "/>
<polyline clip-path="url(#clip662)" style="stroke:#000000; stroke-linecap:butt; stroke-linejoin:round; stroke-width:2; stroke-opacity:0.1; fill:none" points="
  2031.16,1800.78 2031.16,47.2441 
  "/>
<polyline clip-path="url(#clip662)" style="stroke:#000000; stroke-linecap:butt; stroke-linejoin:round; stroke-width:2; stroke-opacity:0.1; fill:none" points="
  2636.79,1800.78 2636.79,47.2441 
  "/>
<polyline clip-path="url(#clip660)" style="stroke:#000000; stroke-linecap:butt; stroke-linejoin:round; stroke-width:4; stroke-opacity:1; fill:none" points="
  143.576,1800.78 2640.76,1800.78 
  "/>
<polyline clip-path="url(#clip660)" style="stroke:#000000; stroke-linecap:butt; stroke-linejoin:round; stroke-width:4; stroke-opacity:1; fill:none" points="
  214.25,1800.78 214.25,1781.88 
  "/>
<polyline clip-path="url(#clip660)" style="stroke:#000000; stroke-linecap:butt; stroke-linejoin:round; stroke-width:4; stroke-opacity:1; fill:none" points="
  819.887,1800.78 819.887,1781.88 
  "/>
<polyline clip-path="url(#clip660)" style="stroke:#000000; stroke-linecap:butt; stroke-linejoin:round; stroke-width:4; stroke-opacity:1; fill:none" points="
  1425.52,1800.78 1425.52,1781.88 
  "/>
<polyline clip-path="url(#clip660)" style="stroke:#000000; stroke-linecap:butt; stroke-linejoin:round; stroke-width:4; stroke-opacity:1; fill:none" points="
  2031.16,1800.78 2031.16,1781.88 
  "/>
<polyline clip-path="url(#clip660)" style="stroke:#000000; stroke-linecap:butt; stroke-linejoin:round; stroke-width:4; stroke-opacity:1; fill:none" points="
  2636.79,1800.78 2636.79,1781.88 
  "/>
<path clip-path="url(#clip660)" d="M214.25 1834 Q210.639 1834 208.811 1837.57 Q207.005 1841.11 207.005 1848.24 Q207.005 1855.34 208.811 1858.91 Q210.639 1862.45 214.25 1862.45 Q217.885 1862.45 219.69 1858.91 Q221.519 1855.34 221.519 1848.24 Q221.519 1841.11 219.69 1837.57 Q217.885 1834 214.25 1834 M214.25 1830.3 Q220.061 1830.3 223.116 1834.9 Q226.195 1839.49 226.195 1848.24 Q226.195 1856.96 223.116 1861.57 Q220.061 1866.15 214.25 1866.15 Q208.44 1866.15 205.362 1861.57 Q202.306 1856.96 202.306 1848.24 Q202.306 1839.49 205.362 1834.9 Q208.44 1830.3 214.25 1830.3 Z" fill="#000000" fill-rule="evenodd" fill-opacity="1" /><path clip-path="url(#clip660)" d="M814.539 1861.55 L830.859 1861.55 L830.859 1865.48 L808.914 1865.48 L808.914 1861.55 Q811.576 1858.79 816.16 1854.16 Q820.766 1849.51 821.947 1848.17 Q824.192 1845.65 825.072 1843.91 Q825.974 1842.15 825.974 1840.46 Q825.974 1837.71 824.03 1835.97 Q822.109 1834.23 819.007 1834.23 Q816.808 1834.23 814.354 1835 Q811.924 1835.76 809.146 1837.31 L809.146 1832.59 Q811.97 1831.46 814.424 1830.88 Q816.877 1830.3 818.914 1830.3 Q824.285 1830.3 827.479 1832.98 Q830.673 1835.67 830.673 1840.16 Q830.673 1842.29 829.863 1844.21 Q829.076 1846.11 826.97 1848.7 Q826.391 1849.37 823.289 1852.59 Q820.187 1855.78 814.539 1861.55 Z" fill="#000000" fill-rule="evenodd" fill-opacity="1" /><path clip-path="url(#clip660)" d="M1428.53 1835 L1416.73 1853.45 L1428.53 1853.45 L1428.53 1835 M1427.3 1830.92 L1433.18 1830.92 L1433.18 1853.45 L1438.12 1853.45 L1438.12 1857.34 L1433.18 1857.34 L1433.18 1865.48 L1428.53 1865.48 L1428.53 1857.34 L1412.93 1857.34 L1412.93 1852.82 L1427.3 1830.92 Z" fill="#000000" fill-rule="evenodd" fill-opacity="1" /><path clip-path="url(#clip660)" d="M2031.56 1846.34 Q2028.42 1846.34 2026.56 1848.49 Q2024.74 1850.65 2024.74 1854.4 Q2024.74 1858.12 2026.56 1860.3 Q2028.42 1862.45 2031.56 1862.45 Q2034.71 1862.45 2036.54 1860.3 Q2038.39 1858.12 2038.39 1854.4 Q2038.39 1850.65 2036.54 1848.49 Q2034.71 1846.34 2031.56 1846.34 M2040.85 1831.69 L2040.85 1835.95 Q2039.09 1835.11 2037.28 1834.67 Q2035.5 1834.23 2033.74 1834.23 Q2029.11 1834.23 2026.66 1837.36 Q2024.23 1840.48 2023.88 1846.8 Q2025.24 1844.79 2027.3 1843.72 Q2029.36 1842.64 2031.84 1842.64 Q2037.05 1842.64 2040.06 1845.81 Q2043.09 1848.96 2043.09 1854.4 Q2043.09 1859.72 2039.94 1862.94 Q2036.8 1866.15 2031.56 1866.15 Q2025.57 1866.15 2022.4 1861.57 Q2019.23 1856.96 2019.23 1848.24 Q2019.23 1840.04 2023.11 1835.18 Q2027 1830.3 2033.55 1830.3 Q2035.31 1830.3 2037.1 1830.65 Q2038.9 1830.99 2040.85 1831.69 Z" fill="#000000" fill-rule="evenodd" fill-opacity="1" /><path clip-path="url(#clip660)" d="M2636.79 1849.07 Q2633.46 1849.07 2631.54 1850.85 Q2629.64 1852.64 2629.64 1855.76 Q2629.64 1858.89 2631.54 1860.67 Q2633.46 1862.45 2636.79 1862.45 Q2640.13 1862.45 2642.05 1860.67 Q2643.97 1858.86 2643.97 1855.76 Q2643.97 1852.64 2642.05 1850.85 Q2640.15 1849.07 2636.79 1849.07 M2632.12 1847.08 Q2629.11 1846.34 2627.42 1844.28 Q2625.75 1842.22 2625.75 1839.26 Q2625.75 1835.11 2628.69 1832.71 Q2631.66 1830.3 2636.79 1830.3 Q2641.96 1830.3 2644.9 1832.71 Q2647.84 1835.11 2647.84 1839.26 Q2647.84 1842.22 2646.15 1844.28 Q2644.48 1846.34 2641.49 1847.08 Q2644.87 1847.87 2646.75 1850.16 Q2648.65 1852.45 2648.65 1855.76 Q2648.65 1860.78 2645.57 1863.47 Q2642.51 1866.15 2636.79 1866.15 Q2631.08 1866.15 2628 1863.47 Q2624.94 1860.78 2624.94 1855.76 Q2624.94 1852.45 2626.84 1850.16 Q2628.74 1847.87 2632.12 1847.08 M2630.41 1839.7 Q2630.41 1842.38 2632.07 1843.89 Q2633.76 1845.39 2636.79 1845.39 Q2639.8 1845.39 2641.49 1843.89 Q2643.21 1842.38 2643.21 1839.7 Q2643.21 1837.01 2641.49 1835.51 Q2639.8 1834 2636.79 1834 Q2633.76 1834 2632.07 1835.51 Q2630.41 1837.01 2630.41 1839.7 Z" fill="#000000" fill-rule="evenodd" fill-opacity="1" /><polyline clip-path="url(#clip662)" style="stroke:#000000; stroke-linecap:butt; stroke-linejoin:round; stroke-width:2; stroke-opacity:0.1; fill:none" points="
  143.576,1751.15 2640.76,1751.15 
  "/>
<polyline clip-path="url(#clip662)" style="stroke:#000000; stroke-linecap:butt; stroke-linejoin:round; stroke-width:2; stroke-opacity:0.1; fill:none" points="
  143.576,1455.57 2640.76,1455.57 
  "/>
<polyline clip-path="url(#clip662)" style="stroke:#000000; stroke-linecap:butt; stroke-linejoin:round; stroke-width:2; stroke-opacity:0.1; fill:none" points="
  143.576,1159.99 2640.76,1159.99 
  "/>
<polyline clip-path="url(#clip662)" style="stroke:#000000; stroke-linecap:butt; stroke-linejoin:round; stroke-width:2; stroke-opacity:0.1; fill:none" points="
  143.576,864.41 2640.76,864.41 
  "/>
<polyline clip-path="url(#clip662)" style="stroke:#000000; stroke-linecap:butt; stroke-linejoin:round; stroke-width:2; stroke-opacity:0.1; fill:none" points="
  143.576,568.83 2640.76,568.83 
  "/>
<polyline clip-path="url(#clip662)" style="stroke:#000000; stroke-linecap:butt; stroke-linejoin:round; stroke-width:2; stroke-opacity:0.1; fill:none" points="
  143.576,273.249 2640.76,273.249 
  "/>
<polyline clip-path="url(#clip660)" style="stroke:#000000; stroke-linecap:butt; stroke-linejoin:round; stroke-width:4; stroke-opacity:1; fill:none" points="
  143.576,1800.78 143.576,47.2441 
  "/>
<polyline clip-path="url(#clip660)" style="stroke:#000000; stroke-linecap:butt; stroke-linejoin:round; stroke-width:4; stroke-opacity:1; fill:none" points="
  143.576,1751.15 162.473,1751.15 
  "/>
<polyline clip-path="url(#clip660)" style="stroke:#000000; stroke-linecap:butt; stroke-linejoin:round; stroke-width:4; stroke-opacity:1; fill:none" points="
  143.576,1455.57 162.473,1455.57 
  "/>
<polyline clip-path="url(#clip660)" style="stroke:#000000; stroke-linecap:butt; stroke-linejoin:round; stroke-width:4; stroke-opacity:1; fill:none" points="
  143.576,1159.99 162.473,1159.99 
  "/>
<polyline clip-path="url(#clip660)" style="stroke:#000000; stroke-linecap:butt; stroke-linejoin:round; stroke-width:4; stroke-opacity:1; fill:none" points="
  143.576,864.41 162.473,864.41 
  "/>
<polyline clip-path="url(#clip660)" style="stroke:#000000; stroke-linecap:butt; stroke-linejoin:round; stroke-width:4; stroke-opacity:1; fill:none" points="
  143.576,568.83 162.473,568.83 
  "/>
<polyline clip-path="url(#clip660)" style="stroke:#000000; stroke-linecap:butt; stroke-linejoin:round; stroke-width:4; stroke-opacity:1; fill:none" points="
  143.576,273.249 162.473,273.249 
  "/>
<path clip-path="url(#clip660)" d="M91.3112 1736.95 Q87.7001 1736.95 85.8714 1740.51 Q84.0658 1744.06 84.0658 1751.19 Q84.0658 1758.29 85.8714 1761.86 Q87.7001 1765.4 91.3112 1765.4 Q94.9454 1765.4 96.7509 1761.86 Q98.5796 1758.29 98.5796 1751.19 Q98.5796 1744.06 96.7509 1740.51 Q94.9454 1736.95 91.3112 1736.95 M91.3112 1733.25 Q97.1213 1733.25 100.177 1737.85 Q103.256 1742.44 103.256 1751.19 Q103.256 1759.91 100.177 1764.52 Q97.1213 1769.1 91.3112 1769.1 Q85.501 1769.1 82.4223 1764.52 Q79.3668 1759.91 79.3668 1751.19 Q79.3668 1742.44 82.4223 1737.85 Q85.501 1733.25 91.3112 1733.25 Z" fill="#000000" fill-rule="evenodd" fill-opacity="1" /><path clip-path="url(#clip660)" d="M82.3529 1438.29 L100.709 1438.29 L100.709 1442.23 L86.6353 1442.23 L86.6353 1450.7 Q87.6538 1450.35 88.6723 1450.19 Q89.6908 1450 90.7093 1450 Q96.4963 1450 99.8759 1453.17 Q103.256 1456.35 103.256 1461.76 Q103.256 1467.34 99.7833 1470.44 Q96.3111 1473.52 89.9917 1473.52 Q87.8158 1473.52 85.5473 1473.15 Q83.3019 1472.78 80.8946 1472.04 L80.8946 1467.34 Q82.9779 1468.48 85.2001 1469.03 Q87.4223 1469.59 89.8991 1469.59 Q93.9037 1469.59 96.2417 1467.48 Q98.5796 1465.37 98.5796 1461.76 Q98.5796 1458.15 96.2417 1456.05 Q93.9037 1453.94 89.8991 1453.94 Q88.0241 1453.94 86.1492 1454.36 Q84.2973 1454.77 82.3529 1455.65 L82.3529 1438.29 Z" fill="#000000" fill-rule="evenodd" fill-opacity="1" /><path clip-path="url(#clip660)" d="M51.9595 1173.34 L59.5984 1173.34 L59.5984 1146.97 L51.2882 1148.64 L51.2882 1144.38 L59.5521 1142.71 L64.228 1142.71 L64.228 1173.34 L71.8668 1173.34 L71.8668 1177.27 L51.9595 1177.27 L51.9595 1173.34 Z" fill="#000000" fill-rule="evenodd" fill-opacity="1" /><path clip-path="url(#clip660)" d="M91.3112 1145.79 Q87.7001 1145.79 85.8714 1149.35 Q84.0658 1152.9 84.0658 1160.02 Q84.0658 1167.13 85.8714 1170.7 Q87.7001 1174.24 91.3112 1174.24 Q94.9454 1174.24 96.7509 1170.7 Q98.5796 1167.13 98.5796 1160.02 Q98.5796 1152.9 96.7509 1149.35 Q94.9454 1145.79 91.3112 1145.79 M91.3112 1142.09 Q97.1213 1142.09 100.177 1146.69 Q103.256 1151.28 103.256 1160.02 Q103.256 1168.75 100.177 1173.36 Q97.1213 1177.94 91.3112 1177.94 Q85.501 1177.94 82.4223 1173.36 Q79.3668 1168.75 79.3668 1160.02 Q79.3668 1151.28 82.4223 1146.69 Q85.501 1142.09 91.3112 1142.09 Z" fill="#000000" fill-rule="evenodd" fill-opacity="1" /><path clip-path="url(#clip660)" d="M52.9549 877.755 L60.5937 877.755 L60.5937 851.389 L52.2836 853.056 L52.2836 848.797 L60.5474 847.13 L65.2233 847.13 L65.2233 877.755 L72.8622 877.755 L72.8622 881.69 L52.9549 881.69 L52.9549 877.755 Z" fill="#000000" fill-rule="evenodd" fill-opacity="1" /><path clip-path="url(#clip660)" d="M82.3529 847.13 L100.709 847.13 L100.709 851.065 L86.6353 851.065 L86.6353 859.537 Q87.6538 859.19 88.6723 859.028 Q89.6908 858.843 90.7093 858.843 Q96.4963 858.843 99.8759 862.014 Q103.256 865.185 103.256 870.602 Q103.256 876.181 99.7833 879.283 Q96.3111 882.361 89.9917 882.361 Q87.8158 882.361 85.5473 881.991 Q83.3019 881.62 80.8946 880.88 L80.8946 876.181 Q82.9779 877.315 85.2001 877.871 Q87.4223 878.426 89.8991 878.426 Q93.9037 878.426 96.2417 876.32 Q98.5796 874.213 98.5796 870.602 Q98.5796 866.991 96.2417 864.884 Q93.9037 862.778 89.8991 862.778 Q88.0241 862.778 86.1492 863.195 Q84.2973 863.611 82.3529 864.491 L82.3529 847.13 Z" fill="#000000" fill-rule="evenodd" fill-opacity="1" /><path clip-path="url(#clip660)" d="M55.1771 582.174 L71.4965 582.174 L71.4965 586.11 L49.5521 586.11 L49.5521 582.174 Q52.2141 579.42 56.7975 574.79 Q61.4039 570.137 62.5845 568.795 Q64.8298 566.272 65.7094 564.536 Q66.6122 562.776 66.6122 561.087 Q66.6122 558.332 64.6678 556.596 Q62.7465 554.86 59.6447 554.86 Q57.4456 554.86 54.9919 555.624 Q52.5614 556.388 49.7836 557.938 L49.7836 553.216 Q52.6077 552.082 55.0614 551.503 Q57.515 550.925 59.5521 550.925 Q64.9224 550.925 68.1168 553.61 Q71.3113 556.295 71.3113 560.786 Q71.3113 562.915 70.5011 564.837 Q69.7141 566.735 67.6076 569.327 Q67.0289 569.999 63.927 573.216 Q60.8252 576.411 55.1771 582.174 Z" fill="#000000" fill-rule="evenodd" fill-opacity="1" /><path clip-path="url(#clip660)" d="M91.3112 554.628 Q87.7001 554.628 85.8714 558.193 Q84.0658 561.735 84.0658 568.864 Q84.0658 575.971 85.8714 579.536 Q87.7001 583.077 91.3112 583.077 Q94.9454 583.077 96.7509 579.536 Q98.5796 575.971 98.5796 568.864 Q98.5796 561.735 96.7509 558.193 Q94.9454 554.628 91.3112 554.628 M91.3112 550.925 Q97.1213 550.925 100.177 555.531 Q103.256 560.114 103.256 568.864 Q103.256 577.591 100.177 582.198 Q97.1213 586.781 91.3112 586.781 Q85.501 586.781 82.4223 582.198 Q79.3668 577.591 79.3668 568.864 Q79.3668 560.114 82.4223 555.531 Q85.501 550.925 91.3112 550.925 Z" fill="#000000" fill-rule="evenodd" fill-opacity="1" /><path clip-path="url(#clip660)" d="M56.1725 286.594 L72.4918 286.594 L72.4918 290.529 L50.5475 290.529 L50.5475 286.594 Q53.2095 283.839 57.7928 279.21 Q62.3993 274.557 63.5798 273.215 Q65.8252 270.691 66.7048 268.955 Q67.6076 267.196 67.6076 265.506 Q67.6076 262.752 65.6632 261.016 Q63.7419 259.279 60.64 259.279 Q58.441 259.279 55.9873 260.043 Q53.5567 260.807 50.779 262.358 L50.779 257.636 Q53.603 256.502 56.0567 255.923 Q58.5104 255.344 60.5474 255.344 Q65.9178 255.344 69.1122 258.029 Q72.3066 260.715 72.3066 265.205 Q72.3066 267.335 71.4965 269.256 Q70.7094 271.154 68.6029 273.747 Q68.0242 274.418 64.9224 277.636 Q61.8206 280.83 56.1725 286.594 Z" fill="#000000" fill-rule="evenodd" fill-opacity="1" /><path clip-path="url(#clip660)" d="M82.3529 255.969 L100.709 255.969 L100.709 259.904 L86.6353 259.904 L86.6353 268.377 Q87.6538 268.029 88.6723 267.867 Q89.6908 267.682 90.7093 267.682 Q96.4963 267.682 99.8759 270.853 Q103.256 274.025 103.256 279.441 Q103.256 285.02 99.7833 288.122 Q96.3111 291.201 89.9917 291.201 Q87.8158 291.201 85.5473 290.83 Q83.3019 290.46 80.8946 289.719 L80.8946 285.02 Q82.9779 286.154 85.2001 286.71 Q87.4223 287.265 89.8991 287.265 Q93.9037 287.265 96.2417 285.159 Q98.5796 283.052 98.5796 279.441 Q98.5796 275.83 96.2417 273.724 Q93.9037 271.617 89.8991 271.617 Q88.0241 271.617 86.1492 272.034 Q84.2973 272.451 82.3529 273.33 L82.3529 255.969 Z" fill="#000000" fill-rule="evenodd" fill-opacity="1" /><polyline clip-path="url(#clip662)" style="stroke:#009af9; stroke-linecap:butt; stroke-linejoin:round; stroke-width:4; stroke-opacity:1; fill:none" points="
  214.25,1751.15 237.257,1706.54 449.986,1322.93 577.828,1117.45 685.916,958.397 803.331,800.858 911.576,669.679 1027.63,544.021 1162.08,417.818 1281.57,323.127 
  1386.35,253.615 1500.59,192.227 1615.51,145.631 1742.57,111.806 1863.46,96.8724 1989.16,99.1838 2094.97,115.227 2224.15,152.285 2345.59,204.636 2540.14,323.886 
  2570.08,346.106 
  "/>
<path clip-path="url(#clip660)" d="
M2227.62 209.375 L2557.52 209.375 L2557.52 105.695 L2227.62 105.695  Z
  " fill="#ffffff" fill-rule="evenodd" fill-opacity="1"/>
<polyline clip-path="url(#clip660)" style="stroke:#000000; stroke-linecap:butt; stroke-linejoin:round; stroke-width:4; stroke-opacity:1; fill:none" points="
  2227.62,209.375 2557.52,209.375 2557.52,105.695 2227.62,105.695 2227.62,209.375 
  "/>
<polyline clip-path="url(#clip660)" style="stroke:#009af9; stroke-linecap:butt; stroke-linejoin:round; stroke-width:4; stroke-opacity:1; fill:none" points="
  2255.37,157.535 2421.85,157.535 
  "/>
<path clip-path="url(#clip660)" d="M2463.44 177.223 Q2461.63 181.852 2459.92 183.264 Q2458.2 184.676 2455.33 184.676 L2451.93 184.676 L2451.93 181.112 L2454.43 181.112 Q2456.19 181.112 2457.16 180.278 Q2458.14 179.445 2459.32 176.343 L2460.08 174.399 L2449.59 148.889 L2454.11 148.889 L2462.21 169.167 L2470.31 148.889 L2474.82 148.889 L2463.44 177.223 Z" fill="#000000" fill-rule="evenodd" fill-opacity="1" /><path clip-path="url(#clip660)" d="M2482.12 170.88 L2489.76 170.88 L2489.76 144.515 L2481.45 146.181 L2481.45 141.922 L2489.71 140.255 L2494.38 140.255 L2494.38 170.88 L2502.02 170.88 L2502.02 174.815 L2482.12 174.815 L2482.12 170.88 Z" fill="#000000" fill-rule="evenodd" fill-opacity="1" /></svg>
