<?xml version="1.0" encoding="utf-8"?>
<svg xmlns="http://www.w3.org/2000/svg" xmlns:xlink="http://www.w3.org/1999/xlink" width="672" height="480" viewBox="0 0 2688 1920">
<defs>
  <clipPath id="clip760">
    <rect x="0" y="0" width="2688" height="1920"/>
  </clipPath>
</defs>
<path clip-path="url(#clip760)" d="
M0 1920 L2688 1920 L2688 0 L0 0  Z
  " fill="#ffffff" fill-rule="evenodd" fill-opacity="1"/>
<defs>
  <clipPath id="clip761">
    <rect x="537" y="0" width="1883" height="1883"/>
  </clipPath>
</defs>
<path clip-path="url(#clip760)" d="
M249.478 1800.78 L2640.76 1800.78 L2640.76 47.2441 L249.478 47.2441  Z
  " fill="#ffffff" fill-rule="evenodd" fill-opacity="1"/>
<defs>
  <clipPath id="clip762">
    <rect x="249" y="47" width="2392" height="1755"/>
  </clipPath>
</defs>
<polyline clip-path="url(#clip762)" style="stroke:#000000; stroke-linecap:butt; stroke-linejoin:round; stroke-width:2; stroke-opacity:0.1; fill:none" points="
  317.155,1800.78 317.155,47.2441 
  "/>
<polyline clip-path="url(#clip762)" style="stroke:#000000; stroke-linecap:butt; stroke-linejoin:round; stroke-width:2; stroke-opacity:0.1; fill:none" points="
  881.136,1800.78 881.136,47.2441 
  "/>
<polyline clip-path="url(#clip762)" style="stroke:#000000; stroke-linecap:butt; stroke-linejoin:round; stroke-width:2; stroke-opacity:0.1; fill:none" points="
  1445.12,1800.78 1445.12,47.2441 
  "/>
<polyline clip-path="url(#clip762)" style="stroke:#000000; stroke-linecap:butt; stroke-linejoin:round; stroke-width:2; stroke-opacity:0.1; fill:none" points="
  2009.1,1800.78 2009.1,47.2441 
  "/>
<polyline clip-path="url(#clip762)" style="stroke:#000000; stroke-linecap:butt; stroke-linejoin:round; stroke-width:2; stroke-opacity:0.1; fill:none" points="
  2573.08,1800.78 2573.08,47.2441 
  "/>
<polyline clip-path="url(#clip760)" style="stroke:#000000; stroke-linecap:butt; stroke-linejoin:round; stroke-width:4; stroke-opacity:1; fill:none" points="
  249.478,1800.78 2640.76,1800.78 
  "/>
<polyline clip-path="url(#clip760)" style="stroke:#000000; stroke-linecap:butt; stroke-linejoin:round; stroke-width:4; stroke-opacity:1; fill:none" points="
  317.155,1800.78 317.155,1781.88 
  "/>
<polyline clip-path="url(#clip760)" style="stroke:#000000; stroke-linecap:butt; stroke-linejoin:round; stroke-width:4; stroke-opacity:1; fill:none" points="
  881.136,1800.78 881.136,1781.88 
  "/>
<polyline clip-path="url(#clip760)" style="stroke:#000000; stroke-linecap:butt; stroke-linejoin:round; stroke-width:4; stroke-opacity:1; fill:none" points="
  1445.12,1800.78 1445.12,1781.88 
  "/>
<polyline clip-path="url(#clip760)" style="stroke:#000000; stroke-linecap:butt; stroke-linejoin:round; stroke-width:4; stroke-opacity:1; fill:none" points="
  2009.1,1800.78 2009.1,1781.88 
  "/>
<polyline clip-path="url(#clip760)" style="stroke:#000000; stroke-linecap:butt; stroke-linejoin:round; stroke-width:4; stroke-opacity:1; fill:none" points="
  2573.08,1800.78 2573.08,1781.88 
  "/>
<path clip-path="url(#clip760)" d="M282.977 1830.92 L305.199 1830.92 L305.199 1832.91 L292.653 1865.48 L287.769 1865.48 L299.575 1834.86 L282.977 1834.86 L282.977 1830.92 Z" fill="#000000" fill-rule="evenodd" fill-opacity="1" /><path clip-path="url(#clip760)" d="M314.32 1859.6 L319.204 1859.6 L319.204 1865.48 L314.32 1865.48 L314.32 1859.6 Z" fill="#000000" fill-rule="evenodd" fill-opacity="1" /><path clip-path="url(#clip760)" d="M339.389 1834 Q335.778 1834 333.949 1837.57 Q332.144 1841.11 332.144 1848.24 Q332.144 1855.34 333.949 1858.91 Q335.778 1862.45 339.389 1862.45 Q343.023 1862.45 344.829 1858.91 Q346.658 1855.34 346.658 1848.24 Q346.658 1841.11 344.829 1837.57 Q343.023 1834 339.389 1834 M339.389 1830.3 Q345.199 1830.3 348.255 1834.9 Q351.333 1839.49 351.333 1848.24 Q351.333 1856.96 348.255 1861.57 Q345.199 1866.15 339.389 1866.15 Q333.579 1866.15 330.5 1861.57 Q327.445 1856.96 327.445 1848.24 Q327.445 1839.49 330.5 1834.9 Q333.579 1830.3 339.389 1830.3 Z" fill="#000000" fill-rule="evenodd" fill-opacity="1" /><path clip-path="url(#clip760)" d="M847.456 1830.92 L869.678 1830.92 L869.678 1832.91 L857.132 1865.48 L852.247 1865.48 L864.053 1834.86 L847.456 1834.86 L847.456 1830.92 Z" fill="#000000" fill-rule="evenodd" fill-opacity="1" /><path clip-path="url(#clip760)" d="M878.798 1859.6 L883.682 1859.6 L883.682 1865.48 L878.798 1865.48 L878.798 1859.6 Z" fill="#000000" fill-rule="evenodd" fill-opacity="1" /><path clip-path="url(#clip760)" d="M893.914 1830.92 L912.27 1830.92 L912.27 1834.86 L898.196 1834.86 L898.196 1843.33 Q899.215 1842.98 900.233 1842.82 Q901.252 1842.64 902.27 1842.64 Q908.057 1842.64 911.437 1845.81 Q914.817 1848.98 914.817 1854.4 Q914.817 1859.97 911.344 1863.08 Q907.872 1866.15 901.553 1866.15 Q899.377 1866.15 897.108 1865.78 Q894.863 1865.41 892.456 1864.67 L892.456 1859.97 Q894.539 1861.11 896.761 1861.66 Q898.983 1862.22 901.46 1862.22 Q905.465 1862.22 907.803 1860.11 Q910.141 1858.01 910.141 1854.4 Q910.141 1850.78 907.803 1848.68 Q905.465 1846.57 901.46 1846.57 Q899.585 1846.57 897.71 1846.99 Q895.858 1847.4 893.914 1848.28 L893.914 1830.92 Z" fill="#000000" fill-rule="evenodd" fill-opacity="1" /><path clip-path="url(#clip760)" d="M1422.45 1849.07 Q1419.12 1849.07 1417.2 1850.85 Q1415.3 1852.64 1415.3 1855.76 Q1415.3 1858.89 1417.2 1860.67 Q1419.12 1862.45 1422.45 1862.45 Q1425.79 1862.45 1427.71 1860.67 Q1429.63 1858.86 1429.63 1855.76 Q1429.63 1852.64 1427.71 1850.85 Q1425.81 1849.07 1422.45 1849.07 M1417.78 1847.08 Q1414.77 1846.34 1413.08 1844.28 Q1411.41 1842.22 1411.41 1839.26 Q1411.41 1835.11 1414.35 1832.71 Q1417.32 1830.3 1422.45 1830.3 Q1427.62 1830.3 1430.56 1832.71 Q1433.5 1835.11 1433.5 1839.26 Q1433.5 1842.22 1431.81 1844.28 Q1430.14 1846.34 1427.15 1847.08 Q1430.53 1847.87 1432.41 1850.16 Q1434.31 1852.45 1434.31 1855.76 Q1434.31 1860.78 1431.23 1863.47 Q1428.17 1866.15 1422.45 1866.15 Q1416.74 1866.15 1413.66 1863.47 Q1410.6 1860.78 1410.6 1855.76 Q1410.6 1852.45 1412.5 1850.16 Q1414.4 1847.87 1417.78 1847.08 M1416.07 1839.7 Q1416.07 1842.38 1417.73 1843.89 Q1419.42 1845.39 1422.45 1845.39 Q1425.46 1845.39 1427.15 1843.89 Q1428.87 1842.38 1428.87 1839.7 Q1428.87 1837.01 1427.15 1835.51 Q1425.46 1834 1422.45 1834 Q1419.42 1834 1417.73 1835.51 Q1416.07 1837.01 1416.07 1839.7 Z" fill="#000000" fill-rule="evenodd" fill-opacity="1" /><path clip-path="url(#clip760)" d="M1442.62 1859.6 L1447.5 1859.6 L1447.5 1865.48 L1442.62 1865.48 L1442.62 1859.6 Z" fill="#000000" fill-rule="evenodd" fill-opacity="1" /><path clip-path="url(#clip760)" d="M1467.69 1834 Q1464.08 1834 1462.25 1837.57 Q1460.44 1841.11 1460.44 1848.24 Q1460.44 1855.34 1462.25 1858.91 Q1464.08 1862.45 1467.69 1862.45 Q1471.32 1862.45 1473.13 1858.91 Q1474.95 1855.34 1474.95 1848.24 Q1474.95 1841.11 1473.13 1837.57 Q1471.32 1834 1467.69 1834 M1467.69 1830.3 Q1473.5 1830.3 1476.55 1834.9 Q1479.63 1839.49 1479.63 1848.24 Q1479.63 1856.96 1476.55 1861.57 Q1473.5 1866.15 1467.69 1866.15 Q1461.88 1866.15 1458.8 1861.57 Q1455.74 1856.96 1455.74 1848.24 Q1455.74 1839.49 1458.8 1834.9 Q1461.88 1830.3 1467.69 1830.3 Z" fill="#000000" fill-rule="evenodd" fill-opacity="1" /><path clip-path="url(#clip760)" d="M1986.93 1849.07 Q1983.6 1849.07 1981.68 1850.85 Q1979.78 1852.64 1979.78 1855.76 Q1979.78 1858.89 1981.68 1860.67 Q1983.6 1862.45 1986.93 1862.45 Q1990.27 1862.45 1992.19 1860.67 Q1994.11 1858.86 1994.11 1855.76 Q1994.11 1852.64 1992.19 1850.85 Q1990.29 1849.07 1986.93 1849.07 M1982.26 1847.08 Q1979.25 1846.34 1977.56 1844.28 Q1975.89 1842.22 1975.89 1839.26 Q1975.89 1835.11 1978.83 1832.71 Q1981.79 1830.3 1986.93 1830.3 Q1992.1 1830.3 1995.04 1832.71 Q1997.97 1835.11 1997.97 1839.26 Q1997.97 1842.22 1996.29 1844.28 Q1994.62 1846.34 1991.63 1847.08 Q1995.01 1847.87 1996.89 1850.16 Q1998.79 1852.45 1998.79 1855.76 Q1998.79 1860.78 1995.71 1863.47 Q1992.65 1866.15 1986.93 1866.15 Q1981.22 1866.15 1978.14 1863.47 Q1975.08 1860.78 1975.08 1855.76 Q1975.08 1852.45 1976.98 1850.16 Q1978.88 1847.87 1982.26 1847.08 M1980.54 1839.7 Q1980.54 1842.38 1982.21 1843.89 Q1983.9 1845.39 1986.93 1845.39 Q1989.94 1845.39 1991.63 1843.89 Q1993.35 1842.38 1993.35 1839.7 Q1993.35 1837.01 1991.63 1835.51 Q1989.94 1834 1986.93 1834 Q1983.9 1834 1982.21 1835.51 Q1980.54 1837.01 1980.54 1839.7 Z" fill="#000000" fill-rule="evenodd" fill-opacity="1" /><path clip-path="url(#clip760)" d="M2007.1 1859.6 L2011.98 1859.6 L2011.98 1865.48 L2007.1 1865.48 L2007.1 1859.6 Z" fill="#000000" fill-rule="evenodd" fill-opacity="1" /><path clip-path="url(#clip760)" d="M2022.21 1830.92 L2040.57 1830.92 L2040.57 1834.86 L2026.49 1834.86 L2026.49 1843.33 Q2027.51 1842.98 2028.53 1842.82 Q2029.55 1842.64 2030.57 1842.64 Q2036.35 1842.64 2039.73 1845.81 Q2043.11 1848.98 2043.11 1854.4 Q2043.11 1859.97 2039.64 1863.08 Q2036.17 1866.15 2029.85 1866.15 Q2027.67 1866.15 2025.41 1865.78 Q2023.16 1865.41 2020.75 1864.67 L2020.75 1859.97 Q2022.84 1861.11 2025.06 1861.66 Q2027.28 1862.22 2029.76 1862.22 Q2033.76 1862.22 2036.1 1860.11 Q2038.44 1858.01 2038.44 1854.4 Q2038.44 1850.78 2036.1 1848.68 Q2033.76 1846.57 2029.76 1846.57 Q2027.88 1846.57 2026.01 1846.99 Q2024.16 1847.4 2022.21 1848.28 L2022.21 1830.92 Z" fill="#000000" fill-rule="evenodd" fill-opacity="1" /><path clip-path="url(#clip760)" d="M2540.67 1864.77 L2540.67 1860.51 Q2542.43 1861.34 2544.24 1861.78 Q2546.04 1862.22 2547.78 1862.22 Q2552.41 1862.22 2554.84 1859.12 Q2557.29 1855.99 2557.64 1849.65 Q2556.3 1851.64 2554.24 1852.71 Q2552.18 1853.77 2549.68 1853.77 Q2544.49 1853.77 2541.46 1850.65 Q2538.45 1847.5 2538.45 1842.06 Q2538.45 1836.73 2541.6 1833.52 Q2544.75 1830.3 2549.98 1830.3 Q2555.97 1830.3 2559.12 1834.9 Q2562.29 1839.49 2562.29 1848.24 Q2562.29 1856.41 2558.4 1861.29 Q2554.54 1866.15 2547.99 1866.15 Q2546.23 1866.15 2544.42 1865.81 Q2542.62 1865.46 2540.67 1864.77 M2549.98 1850.11 Q2553.12 1850.11 2554.95 1847.96 Q2556.81 1845.81 2556.81 1842.06 Q2556.81 1838.33 2554.95 1836.18 Q2553.12 1834 2549.98 1834 Q2546.83 1834 2544.98 1836.18 Q2543.15 1838.33 2543.15 1842.06 Q2543.15 1845.81 2544.98 1847.96 Q2546.83 1850.11 2549.98 1850.11 Z" fill="#000000" fill-rule="evenodd" fill-opacity="1" /><path clip-path="url(#clip760)" d="M2570.69 1859.6 L2575.58 1859.6 L2575.58 1865.48 L2570.69 1865.48 L2570.69 1859.6 Z" fill="#000000" fill-rule="evenodd" fill-opacity="1" /><path clip-path="url(#clip760)" d="M2595.76 1834 Q2592.15 1834 2590.32 1837.57 Q2588.52 1841.11 2588.52 1848.24 Q2588.52 1855.34 2590.32 1858.91 Q2592.15 1862.45 2595.76 1862.45 Q2599.4 1862.45 2601.2 1858.91 Q2603.03 1855.34 2603.03 1848.24 Q2603.03 1841.11 2601.2 1837.57 Q2599.4 1834 2595.76 1834 M2595.76 1830.3 Q2601.57 1830.3 2604.63 1834.9 Q2607.71 1839.49 2607.71 1848.24 Q2607.71 1856.96 2604.63 1861.57 Q2601.57 1866.15 2595.76 1866.15 Q2589.95 1866.15 2586.87 1861.57 Q2583.82 1856.96 2583.82 1848.24 Q2583.82 1839.49 2586.87 1834.9 Q2589.95 1830.3 2595.76 1830.3 Z" fill="#000000" fill-rule="evenodd" fill-opacity="1" /><polyline clip-path="url(#clip762)" style="stroke:#000000; stroke-linecap:butt; stroke-linejoin:round; stroke-width:2; stroke-opacity:0.1; fill:none" points="
  249.478,1714.2 2640.76,1714.2 
  "/>
<polyline clip-path="url(#clip762)" style="stroke:#000000; stroke-linecap:butt; stroke-linejoin:round; stroke-width:2; stroke-opacity:0.1; fill:none" points="
  249.478,1360.41 2640.76,1360.41 
  "/>
<polyline clip-path="url(#clip762)" style="stroke:#000000; stroke-linecap:butt; stroke-linejoin:round; stroke-width:2; stroke-opacity:0.1; fill:none" points="
  249.478,1006.62 2640.76,1006.62 
  "/>
<polyline clip-path="url(#clip762)" style="stroke:#000000; stroke-linecap:butt; stroke-linejoin:round; stroke-width:2; stroke-opacity:0.1; fill:none" points="
  249.478,652.826 2640.76,652.826 
  "/>
<polyline clip-path="url(#clip762)" style="stroke:#000000; stroke-linecap:butt; stroke-linejoin:round; stroke-width:2; stroke-opacity:0.1; fill:none" points="
  249.478,299.033 2640.76,299.033 
  "/>
<polyline clip-path="url(#clip760)" style="stroke:#000000; stroke-linecap:butt; stroke-linejoin:round; stroke-width:4; stroke-opacity:1; fill:none" points="
  249.478,1800.78 249.478,47.2441 
  "/>
<polyline clip-path="url(#clip760)" style="stroke:#000000; stroke-linecap:butt; stroke-linejoin:round; stroke-width:4; stroke-opacity:1; fill:none" points="
  249.478,1714.2 268.375,1714.2 
  "/>
<polyline clip-path="url(#clip760)" style="stroke:#000000; stroke-linecap:butt; stroke-linejoin:round; stroke-width:4; stroke-opacity:1; fill:none" points="
  249.478,1360.41 268.375,1360.41 
  "/>
<polyline clip-path="url(#clip760)" style="stroke:#000000; stroke-linecap:butt; stroke-linejoin:round; stroke-width:4; stroke-opacity:1; fill:none" points="
  249.478,1006.62 268.375,1006.62 
  "/>
<polyline clip-path="url(#clip760)" style="stroke:#000000; stroke-linecap:butt; stroke-linejoin:round; stroke-width:4; stroke-opacity:1; fill:none" points="
  249.478,652.826 268.375,652.826 
  "/>
<polyline clip-path="url(#clip760)" style="stroke:#000000; stroke-linecap:butt; stroke-linejoin:round; stroke-width:4; stroke-opacity:1; fill:none" points="
  249.478,299.033 268.375,299.033 
  "/>
<path clip-path="url(#clip760)" d="M61.4965 1700 Q57.8854 1700 56.0567 1703.57 Q54.2512 1707.11 54.2512 1714.24 Q54.2512 1721.35 56.0567 1724.91 Q57.8854 1728.45 61.4965 1728.45 Q65.1307 1728.45 66.9363 1724.91 Q68.765 1721.35 68.765 1714.24 Q68.765 1707.11 66.9363 1703.57 Q65.1307 1700 61.4965 1700 M61.4965 1696.3 Q67.3067 1696.3 70.3622 1700.91 Q73.4409 1705.49 73.4409 1714.24 Q73.4409 1722.97 70.3622 1727.57 Q67.3067 1732.16 61.4965 1732.16 Q55.6864 1732.16 52.6077 1727.57 Q49.5521 1722.97 49.5521 1714.24 Q49.5521 1705.49 52.6077 1700.91 Q55.6864 1696.3 61.4965 1696.3 Z" fill="#000000" fill-rule="evenodd" fill-opacity="1" /><path clip-path="url(#clip760)" d="M81.6584 1725.61 L86.5427 1725.61 L86.5427 1731.48 L81.6584 1731.48 L81.6584 1725.61 Z" fill="#000000" fill-rule="evenodd" fill-opacity="1" /><path clip-path="url(#clip760)" d="M106.728 1715.07 Q103.394 1715.07 101.473 1716.86 Q99.575 1718.64 99.575 1721.76 Q99.575 1724.89 101.473 1726.67 Q103.394 1728.45 106.728 1728.45 Q110.061 1728.45 111.982 1726.67 Q113.904 1724.86 113.904 1721.76 Q113.904 1718.64 111.982 1716.86 Q110.084 1715.07 106.728 1715.07 M102.052 1713.08 Q99.0426 1712.34 97.3528 1710.28 Q95.6861 1708.22 95.6861 1705.26 Q95.6861 1701.11 98.6259 1698.71 Q101.589 1696.3 106.728 1696.3 Q111.89 1696.3 114.83 1698.71 Q117.769 1701.11 117.769 1705.26 Q117.769 1708.22 116.08 1710.28 Q114.413 1712.34 111.427 1713.08 Q114.806 1713.87 116.681 1716.16 Q118.58 1718.45 118.58 1721.76 Q118.58 1726.79 115.501 1729.47 Q112.445 1732.16 106.728 1732.16 Q101.01 1732.16 97.9315 1729.47 Q94.876 1726.79 94.876 1721.76 Q94.876 1718.45 96.7741 1716.16 Q98.6722 1713.87 102.052 1713.08 M100.339 1705.7 Q100.339 1708.38 102.006 1709.89 Q103.695 1711.39 106.728 1711.39 Q109.737 1711.39 111.427 1709.89 Q113.14 1708.38 113.14 1705.7 Q113.14 1703.01 111.427 1701.51 Q109.737 1700 106.728 1700 Q103.695 1700 102.006 1701.51 Q100.339 1703.01 100.339 1705.7 Z" fill="#000000" fill-rule="evenodd" fill-opacity="1" /><path clip-path="url(#clip760)" d="M136.89 1700 Q133.279 1700 131.45 1703.57 Q129.644 1707.11 129.644 1714.24 Q129.644 1721.35 131.45 1724.91 Q133.279 1728.45 136.89 1728.45 Q140.524 1728.45 142.329 1724.91 Q144.158 1721.35 144.158 1714.24 Q144.158 1707.11 142.329 1703.57 Q140.524 1700 136.89 1700 M136.89 1696.3 Q142.7 1696.3 145.755 1700.91 Q148.834 1705.49 148.834 1714.24 Q148.834 1722.97 145.755 1727.57 Q142.7 1732.16 136.89 1732.16 Q131.079 1732.16 128.001 1727.57 Q124.945 1722.97 124.945 1714.24 Q124.945 1705.49 128.001 1700.91 Q131.079 1696.3 136.89 1696.3 Z" fill="#000000" fill-rule="evenodd" fill-opacity="1" /><path clip-path="url(#clip760)" d="M157.098 1696.92 L175.454 1696.92 L175.454 1700.86 L161.38 1700.86 L161.38 1709.33 Q162.399 1708.98 163.417 1708.82 Q164.436 1708.64 165.454 1708.64 Q171.241 1708.64 174.621 1711.81 Q178.001 1714.98 178.001 1720.4 Q178.001 1725.98 174.528 1729.08 Q171.056 1732.16 164.737 1732.16 Q162.561 1732.16 160.292 1731.79 Q158.047 1731.42 155.64 1730.67 L155.64 1725.98 Q157.723 1727.11 159.945 1727.67 Q162.167 1728.22 164.644 1728.22 Q168.649 1728.22 170.987 1726.11 Q173.325 1724.01 173.325 1720.4 Q173.325 1716.79 170.987 1714.68 Q168.649 1712.57 164.644 1712.57 Q162.769 1712.57 160.894 1712.99 Q159.042 1713.41 157.098 1714.29 L157.098 1696.92 Z" fill="#000000" fill-rule="evenodd" fill-opacity="1" /><path clip-path="url(#clip760)" d="M197.213 1700 Q193.602 1700 191.774 1703.57 Q189.968 1707.11 189.968 1714.24 Q189.968 1721.35 191.774 1724.91 Q193.602 1728.45 197.213 1728.45 Q200.848 1728.45 202.653 1724.91 Q204.482 1721.35 204.482 1714.24 Q204.482 1707.11 202.653 1703.57 Q200.848 1700 197.213 1700 M197.213 1696.3 Q203.024 1696.3 206.079 1700.91 Q209.158 1705.49 209.158 1714.24 Q209.158 1722.97 206.079 1727.57 Q203.024 1732.16 197.213 1732.16 Q191.403 1732.16 188.325 1727.57 Q185.269 1722.97 185.269 1714.24 Q185.269 1705.49 188.325 1700.91 Q191.403 1696.3 197.213 1696.3 Z" fill="#000000" fill-rule="evenodd" fill-opacity="1" /><path clip-path="url(#clip760)" d="M62.4919 1346.21 Q58.8808 1346.21 57.0521 1349.78 Q55.2465 1353.32 55.2465 1360.45 Q55.2465 1367.55 57.0521 1371.12 Q58.8808 1374.66 62.4919 1374.66 Q66.1261 1374.66 67.9317 1371.12 Q69.7604 1367.55 69.7604 1360.45 Q69.7604 1353.32 67.9317 1349.78 Q66.1261 1346.21 62.4919 1346.21 M62.4919 1342.51 Q68.302 1342.51 71.3576 1347.11 Q74.4363 1351.7 74.4363 1360.45 Q74.4363 1369.17 71.3576 1373.78 Q68.302 1378.36 62.4919 1378.36 Q56.6817 1378.36 53.603 1373.78 Q50.5475 1369.17 50.5475 1360.45 Q50.5475 1351.7 53.603 1347.11 Q56.6817 1342.51 62.4919 1342.51 Z" fill="#000000" fill-rule="evenodd" fill-opacity="1" /><path clip-path="url(#clip760)" d="M82.6538 1371.81 L87.538 1371.81 L87.538 1377.69 L82.6538 1377.69 L82.6538 1371.81 Z" fill="#000000" fill-rule="evenodd" fill-opacity="1" /><path clip-path="url(#clip760)" d="M107.723 1361.28 Q104.39 1361.28 102.469 1363.06 Q100.57 1364.84 100.57 1367.97 Q100.57 1371.09 102.469 1372.88 Q104.39 1374.66 107.723 1374.66 Q111.056 1374.66 112.978 1372.88 Q114.899 1371.07 114.899 1367.97 Q114.899 1364.84 112.978 1363.06 Q111.08 1361.28 107.723 1361.28 M103.047 1359.29 Q100.038 1358.55 98.3482 1356.49 Q96.6815 1354.43 96.6815 1351.46 Q96.6815 1347.32 99.6213 1344.91 Q102.584 1342.51 107.723 1342.51 Q112.885 1342.51 115.825 1344.91 Q118.765 1347.32 118.765 1351.46 Q118.765 1354.43 117.075 1356.49 Q115.408 1358.55 112.422 1359.29 Q115.802 1360.08 117.677 1362.37 Q119.575 1364.66 119.575 1367.97 Q119.575 1372.99 116.496 1375.68 Q113.441 1378.36 107.723 1378.36 Q102.006 1378.36 98.9269 1375.68 Q95.8713 1372.99 95.8713 1367.97 Q95.8713 1364.66 97.7695 1362.37 Q99.6676 1360.08 103.047 1359.29 M101.334 1351.9 Q101.334 1354.59 103.001 1356.09 Q104.691 1357.6 107.723 1357.6 Q110.732 1357.6 112.422 1356.09 Q114.135 1354.59 114.135 1351.9 Q114.135 1349.22 112.422 1347.71 Q110.732 1346.21 107.723 1346.21 Q104.691 1346.21 103.001 1347.71 Q101.334 1349.22 101.334 1351.9 Z" fill="#000000" fill-rule="evenodd" fill-opacity="1" /><path clip-path="url(#clip760)" d="M137.885 1346.21 Q134.274 1346.21 132.445 1349.78 Q130.64 1353.32 130.64 1360.45 Q130.64 1367.55 132.445 1371.12 Q134.274 1374.66 137.885 1374.66 Q141.519 1374.66 143.325 1371.12 Q145.153 1367.55 145.153 1360.45 Q145.153 1353.32 143.325 1349.78 Q141.519 1346.21 137.885 1346.21 M137.885 1342.51 Q143.695 1342.51 146.751 1347.11 Q149.829 1351.7 149.829 1360.45 Q149.829 1369.17 146.751 1373.78 Q143.695 1378.36 137.885 1378.36 Q132.075 1378.36 128.996 1373.78 Q125.941 1369.17 125.941 1360.45 Q125.941 1351.7 128.996 1347.11 Q132.075 1342.51 137.885 1342.51 Z" fill="#000000" fill-rule="evenodd" fill-opacity="1" /><path clip-path="url(#clip760)" d="M156.866 1343.13 L179.088 1343.13 L179.088 1345.12 L166.542 1377.69 L161.658 1377.69 L173.463 1347.07 L156.866 1347.07 L156.866 1343.13 Z" fill="#000000" fill-rule="evenodd" fill-opacity="1" /><path clip-path="url(#clip760)" d="M188.255 1343.13 L206.611 1343.13 L206.611 1347.07 L192.537 1347.07 L192.537 1355.54 Q193.556 1355.19 194.574 1355.03 Q195.593 1354.84 196.612 1354.84 Q202.399 1354.84 205.778 1358.02 Q209.158 1361.19 209.158 1366.6 Q209.158 1372.18 205.686 1375.28 Q202.213 1378.36 195.894 1378.36 Q193.718 1378.36 191.45 1377.99 Q189.204 1377.62 186.797 1376.88 L186.797 1372.18 Q188.88 1373.32 191.102 1373.87 Q193.325 1374.43 195.801 1374.43 Q199.806 1374.43 202.144 1372.32 Q204.482 1370.21 204.482 1366.6 Q204.482 1362.99 202.144 1360.89 Q199.806 1358.78 195.801 1358.78 Q193.926 1358.78 192.051 1359.2 Q190.2 1359.61 188.255 1360.49 L188.255 1343.13 Z" fill="#000000" fill-rule="evenodd" fill-opacity="1" /><path clip-path="url(#clip760)" d="M61.4965 992.417 Q57.8854 992.417 56.0567 995.982 Q54.2512 999.524 54.2512 1006.65 Q54.2512 1013.76 56.0567 1017.32 Q57.8854 1020.87 61.4965 1020.87 Q65.1307 1020.87 66.9363 1017.32 Q68.765 1013.76 68.765 1006.65 Q68.765 999.524 66.9363 995.982 Q65.1307 992.417 61.4965 992.417 M61.4965 988.714 Q67.3067 988.714 70.3622 993.32 Q73.4409 997.904 73.4409 1006.65 Q73.4409 1015.38 70.3622 1019.99 Q67.3067 1024.57 61.4965 1024.57 Q55.6864 1024.57 52.6077 1019.99 Q49.5521 1015.38 49.5521 1006.65 Q49.5521 997.904 52.6077 993.32 Q55.6864 988.714 61.4965 988.714 Z" fill="#000000" fill-rule="evenodd" fill-opacity="1" /><path clip-path="url(#clip760)" d="M81.6584 1018.02 L86.5427 1018.02 L86.5427 1023.9 L81.6584 1023.9 L81.6584 1018.02 Z" fill="#000000" fill-rule="evenodd" fill-opacity="1" /><path clip-path="url(#clip760)" d="M106.728 1007.49 Q103.394 1007.49 101.473 1009.27 Q99.575 1011.05 99.575 1014.18 Q99.575 1017.3 101.473 1019.08 Q103.394 1020.87 106.728 1020.87 Q110.061 1020.87 111.982 1019.08 Q113.904 1017.28 113.904 1014.18 Q113.904 1011.05 111.982 1009.27 Q110.084 1007.49 106.728 1007.49 M102.052 1005.5 Q99.0426 1004.76 97.3528 1002.7 Q95.6861 1000.64 95.6861 997.672 Q95.6861 993.529 98.6259 991.121 Q101.589 988.714 106.728 988.714 Q111.89 988.714 114.83 991.121 Q117.769 993.529 117.769 997.672 Q117.769 1000.64 116.08 1002.7 Q114.413 1004.76 111.427 1005.5 Q114.806 1006.28 116.681 1008.57 Q118.58 1010.87 118.58 1014.18 Q118.58 1019.2 115.501 1021.88 Q112.445 1024.57 106.728 1024.57 Q101.01 1024.57 97.9315 1021.88 Q94.876 1019.2 94.876 1014.18 Q94.876 1010.87 96.7741 1008.57 Q98.6722 1006.28 102.052 1005.5 M100.339 998.112 Q100.339 1000.8 102.006 1002.3 Q103.695 1003.81 106.728 1003.81 Q109.737 1003.81 111.427 1002.3 Q113.14 1000.8 113.14 998.112 Q113.14 995.427 111.427 993.922 Q109.737 992.417 106.728 992.417 Q103.695 992.417 102.006 993.922 Q100.339 995.427 100.339 998.112 Z" fill="#000000" fill-rule="evenodd" fill-opacity="1" /><path clip-path="url(#clip760)" d="M127.7 1019.96 L135.339 1019.96 L135.339 993.598 L127.029 995.265 L127.029 991.005 L135.292 989.339 L139.968 989.339 L139.968 1019.96 L147.607 1019.96 L147.607 1023.9 L127.7 1023.9 L127.7 1019.96 Z" fill="#000000" fill-rule="evenodd" fill-opacity="1" /><path clip-path="url(#clip760)" d="M167.051 992.417 Q163.44 992.417 161.612 995.982 Q159.806 999.524 159.806 1006.65 Q159.806 1013.76 161.612 1017.32 Q163.44 1020.87 167.051 1020.87 Q170.686 1020.87 172.491 1017.32 Q174.32 1013.76 174.32 1006.65 Q174.32 999.524 172.491 995.982 Q170.686 992.417 167.051 992.417 M167.051 988.714 Q172.862 988.714 175.917 993.32 Q178.996 997.904 178.996 1006.65 Q178.996 1015.38 175.917 1019.99 Q172.862 1024.57 167.051 1024.57 Q161.241 1024.57 158.163 1019.99 Q155.107 1015.38 155.107 1006.65 Q155.107 997.904 158.163 993.32 Q161.241 988.714 167.051 988.714 Z" fill="#000000" fill-rule="evenodd" fill-opacity="1" /><path clip-path="url(#clip760)" d="M197.213 992.417 Q193.602 992.417 191.774 995.982 Q189.968 999.524 189.968 1006.65 Q189.968 1013.76 191.774 1017.32 Q193.602 1020.87 197.213 1020.87 Q200.848 1020.87 202.653 1017.32 Q204.482 1013.76 204.482 1006.65 Q204.482 999.524 202.653 995.982 Q200.848 992.417 197.213 992.417 M197.213 988.714 Q203.024 988.714 206.079 993.32 Q209.158 997.904 209.158 1006.65 Q209.158 1015.38 206.079 1019.99 Q203.024 1024.57 197.213 1024.57 Q191.403 1024.57 188.325 1019.99 Q185.269 1015.38 185.269 1006.65 Q185.269 997.904 188.325 993.32 Q191.403 988.714 197.213 988.714 Z" fill="#000000" fill-rule="evenodd" fill-opacity="1" /><path clip-path="url(#clip760)" d="M62.4919 638.625 Q58.8808 638.625 57.0521 642.189 Q55.2465 645.731 55.2465 652.861 Q55.2465 659.967 57.0521 663.532 Q58.8808 667.073 62.4919 667.073 Q66.1261 667.073 67.9317 663.532 Q69.7604 659.967 69.7604 652.861 Q69.7604 645.731 67.9317 642.189 Q66.1261 638.625 62.4919 638.625 M62.4919 634.921 Q68.302 634.921 71.3576 639.527 Q74.4363 644.111 74.4363 652.861 Q74.4363 661.587 71.3576 666.194 Q68.302 670.777 62.4919 670.777 Q56.6817 670.777 53.603 666.194 Q50.5475 661.587 50.5475 652.861 Q50.5475 644.111 53.603 639.527 Q56.6817 634.921 62.4919 634.921 Z" fill="#000000" fill-rule="evenodd" fill-opacity="1" /><path clip-path="url(#clip760)" d="M82.6538 664.226 L87.538 664.226 L87.538 670.106 L82.6538 670.106 L82.6538 664.226 Z" fill="#000000" fill-rule="evenodd" fill-opacity="1" /><path clip-path="url(#clip760)" d="M107.723 653.694 Q104.39 653.694 102.469 655.476 Q100.57 657.259 100.57 660.384 Q100.57 663.509 102.469 665.291 Q104.39 667.073 107.723 667.073 Q111.056 667.073 112.978 665.291 Q114.899 663.486 114.899 660.384 Q114.899 657.259 112.978 655.476 Q111.08 653.694 107.723 653.694 M103.047 651.703 Q100.038 650.962 98.3482 648.902 Q96.6815 646.842 96.6815 643.879 Q96.6815 639.736 99.6213 637.328 Q102.584 634.921 107.723 634.921 Q112.885 634.921 115.825 637.328 Q118.765 639.736 118.765 643.879 Q118.765 646.842 117.075 648.902 Q115.408 650.962 112.422 651.703 Q115.802 652.49 117.677 654.782 Q119.575 657.074 119.575 660.384 Q119.575 665.407 116.496 668.092 Q113.441 670.777 107.723 670.777 Q102.006 670.777 98.9269 668.092 Q95.8713 665.407 95.8713 660.384 Q95.8713 657.074 97.7695 654.782 Q99.6676 652.49 103.047 651.703 M101.334 644.319 Q101.334 647.004 103.001 648.509 Q104.691 650.013 107.723 650.013 Q110.732 650.013 112.422 648.509 Q114.135 647.004 114.135 644.319 Q114.135 641.634 112.422 640.129 Q110.732 638.625 107.723 638.625 Q104.691 638.625 103.001 640.129 Q101.334 641.634 101.334 644.319 Z" fill="#000000" fill-rule="evenodd" fill-opacity="1" /><path clip-path="url(#clip760)" d="M128.695 666.171 L136.334 666.171 L136.334 639.805 L128.024 641.472 L128.024 637.213 L136.288 635.546 L140.964 635.546 L140.964 666.171 L148.603 666.171 L148.603 670.106 L128.695 670.106 L128.695 666.171 Z" fill="#000000" fill-rule="evenodd" fill-opacity="1" /><path clip-path="url(#clip760)" d="M162.075 666.171 L178.394 666.171 L178.394 670.106 L156.45 670.106 L156.45 666.171 Q159.112 663.416 163.695 658.786 Q168.301 654.134 169.482 652.791 Q171.727 650.268 172.607 648.532 Q173.51 646.773 173.51 645.083 Q173.51 642.328 171.565 640.592 Q169.644 638.856 166.542 638.856 Q164.343 638.856 161.889 639.62 Q159.459 640.384 156.681 641.935 L156.681 637.213 Q159.505 636.078 161.959 635.5 Q164.413 634.921 166.45 634.921 Q171.82 634.921 175.014 637.606 Q178.209 640.291 178.209 644.782 Q178.209 646.912 177.399 648.833 Q176.612 650.731 174.505 653.324 Q173.926 653.995 170.825 657.212 Q167.723 660.407 162.075 666.171 Z" fill="#000000" fill-rule="evenodd" fill-opacity="1" /><path clip-path="url(#clip760)" d="M188.255 635.546 L206.611 635.546 L206.611 639.481 L192.537 639.481 L192.537 647.953 Q193.556 647.606 194.574 647.444 Q195.593 647.259 196.612 647.259 Q202.399 647.259 205.778 650.43 Q209.158 653.601 209.158 659.018 Q209.158 664.597 205.686 667.698 Q202.213 670.777 195.894 670.777 Q193.718 670.777 191.45 670.407 Q189.204 670.036 186.797 669.296 L186.797 664.597 Q188.88 665.731 191.102 666.286 Q193.325 666.842 195.801 666.842 Q199.806 666.842 202.144 664.736 Q204.482 662.629 204.482 659.018 Q204.482 655.407 202.144 653.3 Q199.806 651.194 195.801 651.194 Q193.926 651.194 192.051 651.611 Q190.2 652.027 188.255 652.907 L188.255 635.546 Z" fill="#000000" fill-rule="evenodd" fill-opacity="1" /><path clip-path="url(#clip760)" d="M61.4965 284.832 Q57.8854 284.832 56.0567 288.396 Q54.2512 291.938 54.2512 299.068 Q54.2512 306.174 56.0567 309.739 Q57.8854 313.281 61.4965 313.281 Q65.1307 313.281 66.9363 309.739 Q68.765 306.174 68.765 299.068 Q68.765 291.938 66.9363 288.396 Q65.1307 284.832 61.4965 284.832 M61.4965 281.128 Q67.3067 281.128 70.3622 285.734 Q73.4409 290.318 73.4409 299.068 Q73.4409 307.794 70.3622 312.401 Q67.3067 316.984 61.4965 316.984 Q55.6864 316.984 52.6077 312.401 Q49.5521 307.794 49.5521 299.068 Q49.5521 290.318 52.6077 285.734 Q55.6864 281.128 61.4965 281.128 Z" fill="#000000" fill-rule="evenodd" fill-opacity="1" /><path clip-path="url(#clip760)" d="M81.6584 310.433 L86.5427 310.433 L86.5427 316.313 L81.6584 316.313 L81.6584 310.433 Z" fill="#000000" fill-rule="evenodd" fill-opacity="1" /><path clip-path="url(#clip760)" d="M106.728 299.901 Q103.394 299.901 101.473 301.683 Q99.575 303.466 99.575 306.591 Q99.575 309.716 101.473 311.498 Q103.394 313.281 106.728 313.281 Q110.061 313.281 111.982 311.498 Q113.904 309.693 113.904 306.591 Q113.904 303.466 111.982 301.683 Q110.084 299.901 106.728 299.901 M102.052 297.91 Q99.0426 297.17 97.3528 295.109 Q95.6861 293.049 95.6861 290.086 Q95.6861 285.943 98.6259 283.535 Q101.589 281.128 106.728 281.128 Q111.89 281.128 114.83 283.535 Q117.769 285.943 117.769 290.086 Q117.769 293.049 116.08 295.109 Q114.413 297.17 111.427 297.91 Q114.806 298.697 116.681 300.989 Q118.58 303.281 118.58 306.591 Q118.58 311.614 115.501 314.299 Q112.445 316.984 106.728 316.984 Q101.01 316.984 97.9315 314.299 Q94.876 311.614 94.876 306.591 Q94.876 303.281 96.7741 300.989 Q98.6722 298.697 102.052 297.91 M100.339 290.526 Q100.339 293.211 102.006 294.716 Q103.695 296.22 106.728 296.22 Q109.737 296.22 111.427 294.716 Q113.14 293.211 113.14 290.526 Q113.14 287.841 111.427 286.336 Q109.737 284.832 106.728 284.832 Q103.695 284.832 102.006 286.336 Q100.339 287.841 100.339 290.526 Z" fill="#000000" fill-rule="evenodd" fill-opacity="1" /><path clip-path="url(#clip760)" d="M127.7 312.378 L135.339 312.378 L135.339 286.012 L127.029 287.679 L127.029 283.42 L135.292 281.753 L139.968 281.753 L139.968 312.378 L147.607 312.378 L147.607 316.313 L127.7 316.313 L127.7 312.378 Z" fill="#000000" fill-rule="evenodd" fill-opacity="1" /><path clip-path="url(#clip760)" d="M157.098 281.753 L175.454 281.753 L175.454 285.688 L161.38 285.688 L161.38 294.16 Q162.399 293.813 163.417 293.651 Q164.436 293.466 165.454 293.466 Q171.241 293.466 174.621 296.637 Q178.001 299.808 178.001 305.225 Q178.001 310.804 174.528 313.906 Q171.056 316.984 164.737 316.984 Q162.561 316.984 160.292 316.614 Q158.047 316.244 155.64 315.503 L155.64 310.804 Q157.723 311.938 159.945 312.494 Q162.167 313.049 164.644 313.049 Q168.649 313.049 170.987 310.943 Q173.325 308.836 173.325 305.225 Q173.325 301.614 170.987 299.507 Q168.649 297.401 164.644 297.401 Q162.769 297.401 160.894 297.818 Q159.042 298.234 157.098 299.114 L157.098 281.753 Z" fill="#000000" fill-rule="evenodd" fill-opacity="1" /><path clip-path="url(#clip760)" d="M197.213 284.832 Q193.602 284.832 191.774 288.396 Q189.968 291.938 189.968 299.068 Q189.968 306.174 191.774 309.739 Q193.602 313.281 197.213 313.281 Q200.848 313.281 202.653 309.739 Q204.482 306.174 204.482 299.068 Q204.482 291.938 202.653 288.396 Q200.848 284.832 197.213 284.832 M197.213 281.128 Q203.024 281.128 206.079 285.734 Q209.158 290.318 209.158 299.068 Q209.158 307.794 206.079 312.401 Q203.024 316.984 197.213 316.984 Q191.403 316.984 188.325 312.401 Q185.269 307.794 185.269 299.068 Q185.269 290.318 188.325 285.734 Q191.403 281.128 197.213 281.128 Z" fill="#000000" fill-rule="evenodd" fill-opacity="1" /><polyline clip-path="url(#clip762)" style="stroke:#009af9; stroke-linecap:butt; stroke-linejoin:round; stroke-width:4; stroke-opacity:1; fill:none" points="
  317.155,96.8724 339.186,146.606 542.894,573.585 604.104,690.032 665.314,800.865 717.066,890.137 768.819,975.294 881.253,1145.9 984.908,1285.36 1040.47,1352.95 
  1096.04,1415.46 1160.41,1481.45 1224.79,1540.45 1282,1586.95 1339.21,1627.8 1389.38,1658.92 1439.55,1685.6 1548.94,1728.2 1658.99,1749.15 1719.82,1751.15 
  1780.66,1746.23 1838.54,1735.07 1896.42,1717.53 1956.61,1692.46 2016.79,1660.37 2067.45,1627.86 2118.11,1590.29 2179.97,1537.51 2241.82,1477.07 2299.96,1413.21 
  2358.11,1342.48 2451.26,1214.72 2544.41,1068.99 2558.74,1044.96 2573.08,1020.49 
  "/>
<path clip-path="url(#clip760)" d="
M2242.92 209.375 L2561.05 209.375 L2561.05 105.695 L2242.92 105.695  Z
  " fill="#ffffff" fill-rule="evenodd" fill-opacity="1"/>
<polyline clip-path="url(#clip760)" style="stroke:#000000; stroke-linecap:butt; stroke-linejoin:round; stroke-width:4; stroke-opacity:1; fill:none" points="
  2242.92,209.375 2561.05,209.375 2561.05,105.695 2242.92,105.695 2242.92,209.375 
  "/>
<polyline clip-path="url(#clip760)" style="stroke:#009af9; stroke-linecap:butt; stroke-linejoin:round; stroke-width:4; stroke-opacity:1; fill:none" points="
  2269.49,157.535 2428.91,157.535 
  "/>
<path clip-path="url(#clip760)" d="M2469.32 177.223 Q2467.51 181.852 2465.8 183.264 Q2464.09 184.676 2461.22 184.676 L2457.81 184.676 L2457.81 181.112 L2460.31 181.112 Q2462.07 181.112 2463.05 180.278 Q2464.02 179.445 2465.2 176.343 L2465.96 174.399 L2455.48 148.889 L2459.99 148.889 L2468.09 169.167 L2476.19 148.889 L2480.71 148.889 L2469.32 177.223 Z" fill="#000000" fill-rule="evenodd" fill-opacity="1" /><path clip-path="url(#clip760)" d="M2488 170.88 L2495.64 170.88 L2495.64 144.515 L2487.33 146.181 L2487.33 141.922 L2495.59 140.255 L2500.27 140.255 L2500.27 170.88 L2507.91 170.88 L2507.91 174.815 L2488 174.815 L2488 170.88 Z" fill="#000000" fill-rule="evenodd" fill-opacity="1" /></svg>
