<?xml version="1.0" encoding="utf-8"?>
<svg xmlns="http://www.w3.org/2000/svg" xmlns:xlink="http://www.w3.org/1999/xlink" width="672" height="480" viewBox="0 0 2688 1920">
<defs>
  <clipPath id="clip300">
    <rect x="0" y="0" width="2688" height="1920"/>
  </clipPath>
</defs>
<path clip-path="url(#clip300)" d="
M0 1920 L2688 1920 L2688 0 L0 0  Z
  " fill="#ffffff" fill-rule="evenodd" fill-opacity="1"/>
<defs>
  <clipPath id="clip301">
    <rect x="537" y="0" width="1883" height="1883"/>
  </clipPath>
</defs>
<path clip-path="url(#clip300)" d="
M174.895 1800.78 L2640.76 1800.78 L2640.76 47.2441 L174.895 47.2441  Z
  " fill="#ffffff" fill-rule="evenodd" fill-opacity="1"/>
<defs>
  <clipPath id="clip302">
    <rect x="174" y="47" width="2467" height="1755"/>
  </clipPath>
</defs>
<polyline clip-path="url(#clip302)" style="stroke:#000000; stroke-linecap:butt; stroke-linejoin:round; stroke-width:2; stroke-opacity:0.1; fill:none" points="
  244.683,1800.78 244.683,47.2441 
  "/>
<polyline clip-path="url(#clip302)" style="stroke:#000000; stroke-linecap:butt; stroke-linejoin:round; stroke-width:2; stroke-opacity:0.1; fill:none" points="
  826.254,1800.78 826.254,47.2441 
  "/>
<polyline clip-path="url(#clip302)" style="stroke:#000000; stroke-linecap:butt; stroke-linejoin:round; stroke-width:2; stroke-opacity:0.1; fill:none" points="
  1407.83,1800.78 1407.83,47.2441 
  "/>
<polyline clip-path="url(#clip302)" style="stroke:#000000; stroke-linecap:butt; stroke-linejoin:round; stroke-width:2; stroke-opacity:0.1; fill:none" points="
  1989.4,1800.78 1989.4,47.2441 
  "/>
<polyline clip-path="url(#clip302)" style="stroke:#000000; stroke-linecap:butt; stroke-linejoin:round; stroke-width:2; stroke-opacity:0.1; fill:none" points="
  2570.97,1800.78 2570.97,47.2441 
  "/>
<polyline clip-path="url(#clip300)" style="stroke:#000000; stroke-linecap:butt; stroke-linejoin:round; stroke-width:4; stroke-opacity:1; fill:none" points="
  174.895,1800.78 2640.76,1800.78 
  "/>
<polyline clip-path="url(#clip300)" style="stroke:#000000; stroke-linecap:butt; stroke-linejoin:round; stroke-width:4; stroke-opacity:1; fill:none" points="
  244.683,1800.78 244.683,1781.88 
  "/>
<polyline clip-path="url(#clip300)" style="stroke:#000000; stroke-linecap:butt; stroke-linejoin:round; stroke-width:4; stroke-opacity:1; fill:none" points="
  826.254,1800.78 826.254,1781.88 
  "/>
<polyline clip-path="url(#clip300)" style="stroke:#000000; stroke-linecap:butt; stroke-linejoin:round; stroke-width:4; stroke-opacity:1; fill:none" points="
  1407.83,1800.78 1407.83,1781.88 
  "/>
<polyline clip-path="url(#clip300)" style="stroke:#000000; stroke-linecap:butt; stroke-linejoin:round; stroke-width:4; stroke-opacity:1; fill:none" points="
  1989.4,1800.78 1989.4,1781.88 
  "/>
<polyline clip-path="url(#clip300)" style="stroke:#000000; stroke-linecap:butt; stroke-linejoin:round; stroke-width:4; stroke-opacity:1; fill:none" points="
  2570.97,1800.78 2570.97,1781.88 
  "/>
<path clip-path="url(#clip300)" d="M239.336 1861.55 L255.656 1861.55 L255.656 1865.48 L233.711 1865.48 L233.711 1861.55 Q236.373 1858.79 240.957 1854.16 Q245.563 1849.51 246.744 1848.17 Q248.989 1845.65 249.868 1843.91 Q250.771 1842.15 250.771 1840.46 Q250.771 1837.71 248.827 1835.97 Q246.906 1834.23 243.804 1834.23 Q241.605 1834.23 239.151 1835 Q236.72 1835.76 233.943 1837.31 L233.943 1832.59 Q236.767 1831.46 239.22 1830.88 Q241.674 1830.3 243.711 1830.3 Q249.081 1830.3 252.276 1832.98 Q255.47 1835.67 255.47 1840.16 Q255.47 1842.29 254.66 1844.21 Q253.873 1846.11 251.767 1848.7 Q251.188 1849.37 248.086 1852.59 Q244.984 1855.78 239.336 1861.55 Z" fill="#000000" fill-rule="evenodd" fill-opacity="1" /><path clip-path="url(#clip300)" d="M829.264 1835 L817.458 1853.45 L829.264 1853.45 L829.264 1835 M828.037 1830.92 L833.916 1830.92 L833.916 1853.45 L838.847 1853.45 L838.847 1857.34 L833.916 1857.34 L833.916 1865.48 L829.264 1865.48 L829.264 1857.34 L813.662 1857.34 L813.662 1852.82 L828.037 1830.92 Z" fill="#000000" fill-rule="evenodd" fill-opacity="1" /><path clip-path="url(#clip300)" d="M1408.23 1846.34 Q1405.08 1846.34 1403.23 1848.49 Q1401.4 1850.65 1401.4 1854.4 Q1401.4 1858.12 1403.23 1860.3 Q1405.08 1862.45 1408.23 1862.45 Q1411.38 1862.45 1413.21 1860.3 Q1415.06 1858.12 1415.06 1854.4 Q1415.06 1850.65 1413.21 1848.49 Q1411.38 1846.34 1408.23 1846.34 M1417.51 1831.69 L1417.51 1835.95 Q1415.75 1835.11 1413.95 1834.67 Q1412.17 1834.23 1410.41 1834.23 Q1405.78 1834.23 1403.32 1837.36 Q1400.89 1840.48 1400.55 1846.8 Q1401.91 1844.79 1403.97 1843.72 Q1406.03 1842.64 1408.51 1842.64 Q1413.72 1842.64 1416.73 1845.81 Q1419.76 1848.96 1419.76 1854.4 Q1419.76 1859.72 1416.61 1862.94 Q1413.46 1866.15 1408.23 1866.15 Q1402.24 1866.15 1399.06 1861.57 Q1395.89 1856.96 1395.89 1848.24 Q1395.89 1840.04 1399.78 1835.18 Q1403.67 1830.3 1410.22 1830.3 Q1411.98 1830.3 1413.76 1830.65 Q1415.57 1830.99 1417.51 1831.69 Z" fill="#000000" fill-rule="evenodd" fill-opacity="1" /><path clip-path="url(#clip300)" d="M1989.4 1849.07 Q1986.06 1849.07 1984.14 1850.85 Q1982.24 1852.64 1982.24 1855.76 Q1982.24 1858.89 1984.14 1860.67 Q1986.06 1862.45 1989.4 1862.45 Q1992.73 1862.45 1994.65 1860.67 Q1996.57 1858.86 1996.57 1855.76 Q1996.57 1852.64 1994.65 1850.85 Q1992.75 1849.07 1989.4 1849.07 M1984.72 1847.08 Q1981.71 1846.34 1980.02 1844.28 Q1978.35 1842.22 1978.35 1839.26 Q1978.35 1835.11 1981.29 1832.71 Q1984.26 1830.3 1989.4 1830.3 Q1994.56 1830.3 1997.5 1832.71 Q2000.44 1835.11 2000.44 1839.26 Q2000.44 1842.22 1998.75 1844.28 Q1997.08 1846.34 1994.1 1847.08 Q1997.48 1847.87 1999.35 1850.16 Q2001.25 1852.45 2001.25 1855.76 Q2001.25 1860.78 1998.17 1863.47 Q1995.11 1866.15 1989.4 1866.15 Q1983.68 1866.15 1980.6 1863.47 Q1977.54 1860.78 1977.54 1855.76 Q1977.54 1852.45 1979.44 1850.16 Q1981.34 1847.87 1984.72 1847.08 M1983.01 1839.7 Q1983.01 1842.38 1984.67 1843.89 Q1986.36 1845.39 1989.4 1845.39 Q1992.41 1845.39 1994.1 1843.89 Q1995.81 1842.38 1995.81 1839.7 Q1995.81 1837.01 1994.1 1835.51 Q1992.41 1834 1989.4 1834 Q1986.36 1834 1984.67 1835.51 Q1983.01 1837.01 1983.01 1839.7 Z" fill="#000000" fill-rule="evenodd" fill-opacity="1" /><path clip-path="url(#clip300)" d="M2545.66 1861.55 L2553.29 1861.55 L2553.29 1835.18 L2544.98 1836.85 L2544.98 1832.59 L2553.25 1830.92 L2557.92 1830.92 L2557.92 1861.55 L2565.56 1861.55 L2565.56 1865.48 L2545.66 1865.48 L2545.66 1861.55 Z" fill="#000000" fill-rule="evenodd" fill-opacity="1" /><path clip-path="url(#clip300)" d="M2585.01 1834 Q2581.4 1834 2579.57 1837.57 Q2577.76 1841.11 2577.76 1848.24 Q2577.76 1855.34 2579.57 1858.91 Q2581.4 1862.45 2585.01 1862.45 Q2588.64 1862.45 2590.45 1858.91 Q2592.28 1855.34 2592.28 1848.24 Q2592.28 1841.11 2590.45 1837.57 Q2588.64 1834 2585.01 1834 M2585.01 1830.3 Q2590.82 1830.3 2593.87 1834.9 Q2596.95 1839.49 2596.95 1848.24 Q2596.95 1856.96 2593.87 1861.57 Q2590.82 1866.15 2585.01 1866.15 Q2579.2 1866.15 2576.12 1861.57 Q2573.06 1856.96 2573.06 1848.24 Q2573.06 1839.49 2576.12 1834.9 Q2579.2 1830.3 2585.01 1830.3 Z" fill="#000000" fill-rule="evenodd" fill-opacity="1" /><polyline clip-path="url(#clip302)" style="stroke:#000000; stroke-linecap:butt; stroke-linejoin:round; stroke-width:2; stroke-opacity:0.1; fill:none" points="
  174.895,1664.89 2640.76,1664.89 
  "/>
<polyline clip-path="url(#clip302)" style="stroke:#000000; stroke-linecap:butt; stroke-linejoin:round; stroke-width:2; stroke-opacity:0.1; fill:none" points="
  174.895,1272.22 2640.76,1272.22 
  "/>
<polyline clip-path="url(#clip302)" style="stroke:#000000; stroke-linecap:butt; stroke-linejoin:round; stroke-width:2; stroke-opacity:0.1; fill:none" points="
  174.895,879.545 2640.76,879.545 
  "/>
<polyline clip-path="url(#clip302)" style="stroke:#000000; stroke-linecap:butt; stroke-linejoin:round; stroke-width:2; stroke-opacity:0.1; fill:none" points="
  174.895,486.871 2640.76,486.871 
  "/>
<polyline clip-path="url(#clip302)" style="stroke:#000000; stroke-linecap:butt; stroke-linejoin:round; stroke-width:2; stroke-opacity:0.1; fill:none" points="
  174.895,94.1965 2640.76,94.1965 
  "/>
<polyline clip-path="url(#clip300)" style="stroke:#000000; stroke-linecap:butt; stroke-linejoin:round; stroke-width:4; stroke-opacity:1; fill:none" points="
  174.895,1800.78 174.895,47.2441 
  "/>
<polyline clip-path="url(#clip300)" style="stroke:#000000; stroke-linecap:butt; stroke-linejoin:round; stroke-width:4; stroke-opacity:1; fill:none" points="
  174.895,1664.89 193.792,1664.89 
  "/>
<polyline clip-path="url(#clip300)" style="stroke:#000000; stroke-linecap:butt; stroke-linejoin:round; stroke-width:4; stroke-opacity:1; fill:none" points="
  174.895,1272.22 193.792,1272.22 
  "/>
<polyline clip-path="url(#clip300)" style="stroke:#000000; stroke-linecap:butt; stroke-linejoin:round; stroke-width:4; stroke-opacity:1; fill:none" points="
  174.895,879.545 193.792,879.545 
  "/>
<polyline clip-path="url(#clip300)" style="stroke:#000000; stroke-linecap:butt; stroke-linejoin:round; stroke-width:4; stroke-opacity:1; fill:none" points="
  174.895,486.871 193.792,486.871 
  "/>
<polyline clip-path="url(#clip300)" style="stroke:#000000; stroke-linecap:butt; stroke-linejoin:round; stroke-width:4; stroke-opacity:1; fill:none" points="
  174.895,94.1965 193.792,94.1965 
  "/>
<path clip-path="url(#clip300)" d="M66.4733 1663.54 Q69.8298 1664.26 71.7048 1666.53 Q73.6029 1668.79 73.6029 1672.13 Q73.6029 1677.24 70.0844 1680.04 Q66.5659 1682.85 60.0845 1682.85 Q57.9086 1682.85 55.5938 1682.41 Q53.3021 1681.99 50.8484 1681.13 L50.8484 1676.62 Q52.7928 1677.75 55.1077 1678.33 Q57.4225 1678.91 59.9456 1678.91 Q64.3437 1678.91 66.6354 1677.17 Q68.9502 1675.44 68.9502 1672.13 Q68.9502 1669.07 66.7974 1667.36 Q64.6678 1665.62 60.8484 1665.62 L56.8206 1665.62 L56.8206 1661.78 L61.0335 1661.78 Q64.4826 1661.78 66.3113 1660.41 Q68.14 1659.03 68.14 1656.43 Q68.14 1653.77 66.2419 1652.36 Q64.3669 1650.92 60.8484 1650.92 Q58.9271 1650.92 56.728 1651.34 Q54.529 1651.76 51.8901 1652.64 L51.8901 1648.47 Q54.5521 1647.73 56.8669 1647.36 Q59.2049 1646.99 61.265 1646.99 Q66.5891 1646.99 69.6909 1649.42 Q72.7927 1651.83 72.7927 1655.95 Q72.7927 1658.82 71.1492 1660.81 Q69.5057 1662.78 66.4733 1663.54 Z" fill="#000000" fill-rule="evenodd" fill-opacity="1" /><path clip-path="url(#clip300)" d="M92.4686 1650.69 Q88.8575 1650.69 87.0288 1654.26 Q85.2232 1657.8 85.2232 1664.93 Q85.2232 1672.03 87.0288 1675.6 Q88.8575 1679.14 92.4686 1679.14 Q96.1028 1679.14 97.9083 1675.6 Q99.737 1672.03 99.737 1664.93 Q99.737 1657.8 97.9083 1654.26 Q96.1028 1650.69 92.4686 1650.69 M92.4686 1646.99 Q98.2787 1646.99 101.334 1651.6 Q104.413 1656.18 104.413 1664.93 Q104.413 1673.66 101.334 1678.26 Q98.2787 1682.85 92.4686 1682.85 Q86.6584 1682.85 83.5797 1678.26 Q80.5242 1673.66 80.5242 1664.93 Q80.5242 1656.18 83.5797 1651.6 Q86.6584 1646.99 92.4686 1646.99 Z" fill="#000000" fill-rule="evenodd" fill-opacity="1" /><path clip-path="url(#clip300)" d="M122.63 1650.69 Q119.019 1650.69 117.191 1654.26 Q115.385 1657.8 115.385 1664.93 Q115.385 1672.03 117.191 1675.6 Q119.019 1679.14 122.63 1679.14 Q126.265 1679.14 128.07 1675.6 Q129.899 1672.03 129.899 1664.93 Q129.899 1657.8 128.07 1654.26 Q126.265 1650.69 122.63 1650.69 M122.63 1646.99 Q128.441 1646.99 131.496 1651.6 Q134.575 1656.18 134.575 1664.93 Q134.575 1673.66 131.496 1678.26 Q128.441 1682.85 122.63 1682.85 Q116.82 1682.85 113.742 1678.26 Q110.686 1673.66 110.686 1664.93 Q110.686 1656.18 113.742 1651.6 Q116.82 1646.99 122.63 1646.99 Z" fill="#000000" fill-rule="evenodd" fill-opacity="1" /><path clip-path="url(#clip300)" d="M65.1539 1259.01 L53.3484 1277.46 L65.1539 1277.46 L65.1539 1259.01 M63.927 1254.94 L69.8066 1254.94 L69.8066 1277.46 L74.7372 1277.46 L74.7372 1281.35 L69.8066 1281.35 L69.8066 1289.5 L65.1539 1289.5 L65.1539 1281.35 L49.5521 1281.35 L49.5521 1276.84 L63.927 1254.94 Z" fill="#000000" fill-rule="evenodd" fill-opacity="1" /><path clip-path="url(#clip300)" d="M92.4686 1258.02 Q88.8575 1258.02 87.0288 1261.58 Q85.2232 1265.12 85.2232 1272.25 Q85.2232 1279.36 87.0288 1282.93 Q88.8575 1286.47 92.4686 1286.47 Q96.1028 1286.47 97.9083 1282.93 Q99.737 1279.36 99.737 1272.25 Q99.737 1265.12 97.9083 1261.58 Q96.1028 1258.02 92.4686 1258.02 M92.4686 1254.31 Q98.2787 1254.31 101.334 1258.92 Q104.413 1263.5 104.413 1272.25 Q104.413 1280.98 101.334 1285.59 Q98.2787 1290.17 92.4686 1290.17 Q86.6584 1290.17 83.5797 1285.59 Q80.5242 1280.98 80.5242 1272.25 Q80.5242 1263.5 83.5797 1258.92 Q86.6584 1254.31 92.4686 1254.31 Z" fill="#000000" fill-rule="evenodd" fill-opacity="1" /><path clip-path="url(#clip300)" d="M122.63 1258.02 Q119.019 1258.02 117.191 1261.58 Q115.385 1265.12 115.385 1272.25 Q115.385 1279.36 117.191 1282.93 Q119.019 1286.47 122.63 1286.47 Q126.265 1286.47 128.07 1282.93 Q129.899 1279.36 129.899 1272.25 Q129.899 1265.12 128.07 1261.58 Q126.265 1258.02 122.63 1258.02 M122.63 1254.31 Q128.441 1254.31 131.496 1258.92 Q134.575 1263.5 134.575 1272.25 Q134.575 1280.98 131.496 1285.59 Q128.441 1290.17 122.63 1290.17 Q116.82 1290.17 113.742 1285.59 Q110.686 1280.98 110.686 1272.25 Q110.686 1263.5 113.742 1258.92 Q116.82 1254.31 122.63 1254.31 Z" fill="#000000" fill-rule="evenodd" fill-opacity="1" /><path clip-path="url(#clip300)" d="M52.353 862.265 L70.7094 862.265 L70.7094 866.2 L56.6354 866.2 L56.6354 874.672 Q57.6539 874.325 58.6724 874.163 Q59.691 873.978 60.7095 873.978 Q66.4965 873.978 69.8761 877.149 Q73.2557 880.321 73.2557 885.737 Q73.2557 891.316 69.7835 894.418 Q66.3113 897.496 59.9919 897.496 Q57.816 897.496 55.5475 897.126 Q53.3021 896.756 50.8947 896.015 L50.8947 891.316 Q52.978 892.45 55.2002 893.006 Q57.4225 893.561 59.8993 893.561 Q63.9039 893.561 66.2419 891.455 Q68.5798 889.348 68.5798 885.737 Q68.5798 882.126 66.2419 880.02 Q63.9039 877.913 59.8993 877.913 Q58.0243 877.913 56.1493 878.33 Q54.2975 878.747 52.353 879.626 L52.353 862.265 Z" fill="#000000" fill-rule="evenodd" fill-opacity="1" /><path clip-path="url(#clip300)" d="M92.4686 865.344 Q88.8575 865.344 87.0288 868.909 Q85.2232 872.45 85.2232 879.58 Q85.2232 886.686 87.0288 890.251 Q88.8575 893.793 92.4686 893.793 Q96.1028 893.793 97.9083 890.251 Q99.737 886.686 99.737 879.58 Q99.737 872.45 97.9083 868.909 Q96.1028 865.344 92.4686 865.344 M92.4686 861.64 Q98.2787 861.64 101.334 866.247 Q104.413 870.83 104.413 879.58 Q104.413 888.307 101.334 892.913 Q98.2787 897.496 92.4686 897.496 Q86.6584 897.496 83.5797 892.913 Q80.5242 888.307 80.5242 879.58 Q80.5242 870.83 83.5797 866.247 Q86.6584 861.64 92.4686 861.64 Z" fill="#000000" fill-rule="evenodd" fill-opacity="1" /><path clip-path="url(#clip300)" d="M122.63 865.344 Q119.019 865.344 117.191 868.909 Q115.385 872.45 115.385 879.58 Q115.385 886.686 117.191 890.251 Q119.019 893.793 122.63 893.793 Q126.265 893.793 128.07 890.251 Q129.899 886.686 129.899 879.58 Q129.899 872.45 128.07 868.909 Q126.265 865.344 122.63 865.344 M122.63 861.64 Q128.441 861.64 131.496 866.247 Q134.575 870.83 134.575 879.58 Q134.575 888.307 131.496 892.913 Q128.441 897.496 122.63 897.496 Q116.82 897.496 113.742 892.913 Q110.686 888.307 110.686 879.58 Q110.686 870.83 113.742 866.247 Q116.82 861.64 122.63 861.64 Z" fill="#000000" fill-rule="evenodd" fill-opacity="1" /><path clip-path="url(#clip300)" d="M62.8854 485.007 Q59.7373 485.007 57.8854 487.16 Q56.0567 489.313 56.0567 493.063 Q56.0567 496.79 57.8854 498.966 Q59.7373 501.118 62.8854 501.118 Q66.0335 501.118 67.8622 498.966 Q69.7141 496.79 69.7141 493.063 Q69.7141 489.313 67.8622 487.16 Q66.0335 485.007 62.8854 485.007 M72.1677 470.355 L72.1677 474.614 Q70.4085 473.781 68.6029 473.341 Q66.8206 472.901 65.0613 472.901 Q60.4317 472.901 57.978 476.026 Q55.5475 479.151 55.2002 485.47 Q56.566 483.456 58.6262 482.392 Q60.6863 481.304 63.1632 481.304 Q68.3715 481.304 71.3807 484.475 Q74.4131 487.623 74.4131 493.063 Q74.4131 498.387 71.265 501.605 Q68.1168 504.822 62.8854 504.822 Q56.89 504.822 53.7188 500.239 Q50.5475 495.632 50.5475 486.906 Q50.5475 478.711 54.4364 473.85 Q58.3252 468.966 64.8761 468.966 Q66.6354 468.966 68.4178 469.313 Q70.2233 469.66 72.1677 470.355 Z" fill="#000000" fill-rule="evenodd" fill-opacity="1" /><path clip-path="url(#clip300)" d="M92.4686 472.67 Q88.8575 472.67 87.0288 476.234 Q85.2232 479.776 85.2232 486.906 Q85.2232 494.012 87.0288 497.577 Q88.8575 501.118 92.4686 501.118 Q96.1028 501.118 97.9083 497.577 Q99.737 494.012 99.737 486.906 Q99.737 479.776 97.9083 476.234 Q96.1028 472.67 92.4686 472.67 M92.4686 468.966 Q98.2787 468.966 101.334 473.572 Q104.413 478.156 104.413 486.906 Q104.413 495.632 101.334 500.239 Q98.2787 504.822 92.4686 504.822 Q86.6584 504.822 83.5797 500.239 Q80.5242 495.632 80.5242 486.906 Q80.5242 478.156 83.5797 473.572 Q86.6584 468.966 92.4686 468.966 Z" fill="#000000" fill-rule="evenodd" fill-opacity="1" /><path clip-path="url(#clip300)" d="M122.63 472.67 Q119.019 472.67 117.191 476.234 Q115.385 479.776 115.385 486.906 Q115.385 494.012 117.191 497.577 Q119.019 501.118 122.63 501.118 Q126.265 501.118 128.07 497.577 Q129.899 494.012 129.899 486.906 Q129.899 479.776 128.07 476.234 Q126.265 472.67 122.63 472.67 M122.63 468.966 Q128.441 468.966 131.496 473.572 Q134.575 478.156 134.575 486.906 Q134.575 495.632 131.496 500.239 Q128.441 504.822 122.63 504.822 Q116.82 504.822 113.742 500.239 Q110.686 495.632 110.686 486.906 Q110.686 478.156 113.742 473.572 Q116.82 468.966 122.63 468.966 Z" fill="#000000" fill-rule="evenodd" fill-opacity="1" /><path clip-path="url(#clip300)" d="M51.1262 76.9165 L73.3483 76.9165 L73.3483 78.9072 L60.8021 111.476 L55.9178 111.476 L67.7233 80.8517 L51.1262 80.8517 L51.1262 76.9165 Z" fill="#000000" fill-rule="evenodd" fill-opacity="1" /><path clip-path="url(#clip300)" d="M92.4686 79.9952 Q88.8575 79.9952 87.0288 83.56 Q85.2232 87.1016 85.2232 94.2312 Q85.2232 101.338 87.0288 104.902 Q88.8575 108.444 92.4686 108.444 Q96.1028 108.444 97.9083 104.902 Q99.737 101.338 99.737 94.2312 Q99.737 87.1016 97.9083 83.56 Q96.1028 79.9952 92.4686 79.9952 M92.4686 76.2915 Q98.2787 76.2915 101.334 80.898 Q104.413 85.4813 104.413 94.2312 Q104.413 102.958 101.334 107.564 Q98.2787 112.148 92.4686 112.148 Q86.6584 112.148 83.5797 107.564 Q80.5242 102.958 80.5242 94.2312 Q80.5242 85.4813 83.5797 80.898 Q86.6584 76.2915 92.4686 76.2915 Z" fill="#000000" fill-rule="evenodd" fill-opacity="1" /><path clip-path="url(#clip300)" d="M122.63 79.9952 Q119.019 79.9952 117.191 83.56 Q115.385 87.1016 115.385 94.2312 Q115.385 101.338 117.191 104.902 Q119.019 108.444 122.63 108.444 Q126.265 108.444 128.07 104.902 Q129.899 101.338 129.899 94.2312 Q129.899 87.1016 128.07 83.56 Q126.265 79.9952 122.63 79.9952 M122.63 76.2915 Q128.441 76.2915 131.496 80.898 Q134.575 85.4813 134.575 94.2312 Q134.575 102.958 131.496 107.564 Q128.441 112.148 122.63 112.148 Q116.82 112.148 113.742 107.564 Q110.686 102.958 110.686 94.2312 Q110.686 85.4813 113.742 80.898 Q116.82 76.2915 122.63 76.2915 Z" fill="#000000" fill-rule="evenodd" fill-opacity="1" /><polyline clip-path="url(#clip302)" style="stroke:#009af9; stroke-linecap:butt; stroke-linejoin:round; stroke-width:4; stroke-opacity:1; fill:none" points="
  244.683,1350.23 250.363,1361.78 256.042,1373.05 261.722,1384.04 267.401,1394.78 319.917,1482.72 372.432,1553.17 424.947,1609.42 477.463,1653.89 540.582,1694.34 
  603.701,1722.86 657.067,1739.01 710.434,1748.78 826.375,1751.15 933.263,1733.91 1047.86,1697.95 1180.63,1636.74 1298.62,1566.73 1402.08,1494.35 1514.89,1404.55 
  1628.37,1303.45 1753.83,1179.72 1873.21,1050.86 1997.33,905.778 2101.81,775.145 2229.38,605.377 2349.29,435.7 2541.4,143.924 2570.97,96.8724 
  "/>
<path clip-path="url(#clip300)" d="
M2232.15 209.375 L2558.56 209.375 L2558.56 105.695 L2232.15 105.695  Z
  " fill="#ffffff" fill-rule="evenodd" fill-opacity="1"/>
<polyline clip-path="url(#clip300)" style="stroke:#000000; stroke-linecap:butt; stroke-linejoin:round; stroke-width:4; stroke-opacity:1; fill:none" points="
  2232.15,209.375 2558.56,209.375 2558.56,105.695 2232.15,105.695 2232.15,209.375 
  "/>
<polyline clip-path="url(#clip300)" style="stroke:#009af9; stroke-linecap:butt; stroke-linejoin:round; stroke-width:4; stroke-opacity:1; fill:none" points="
  2259.54,157.535 2423.93,157.535 
  "/>
<path clip-path="url(#clip300)" d="M2465.18 177.223 Q2463.37 181.852 2461.66 183.264 Q2459.94 184.676 2457.07 184.676 L2453.67 184.676 L2453.67 181.112 L2456.17 181.112 Q2457.93 181.112 2458.9 180.278 Q2459.87 179.445 2461.06 176.343 L2461.82 174.399 L2451.33 148.889 L2455.85 148.889 L2463.95 169.167 L2472.05 148.889 L2476.56 148.889 L2465.18 177.223 Z" fill="#000000" fill-rule="evenodd" fill-opacity="1" /><path clip-path="url(#clip300)" d="M2483.86 170.88 L2491.5 170.88 L2491.5 144.515 L2483.19 146.181 L2483.19 141.922 L2491.45 140.255 L2496.12 140.255 L2496.12 170.88 L2503.76 170.88 L2503.76 174.815 L2483.86 174.815 L2483.86 170.88 Z" fill="#000000" fill-rule="evenodd" fill-opacity="1" /></svg>
