<?xml version="1.0" encoding="utf-8"?>
<svg xmlns="http://www.w3.org/2000/svg" xmlns:xlink="http://www.w3.org/1999/xlink" width="672" height="480" viewBox="0 0 2688 1920">
<defs>
  <clipPath id="clip670">
    <rect x="0" y="0" width="2688" height="1920"/>
  </clipPath>
</defs>
<path clip-path="url(#clip670)" d="
M0 1920 L2688 1920 L2688 0 L0 0  Z
  " fill="#ffffff" fill-rule="evenodd" fill-opacity="1"/>
<defs>
  <clipPath id="clip671">
    <rect x="537" y="0" width="1883" height="1883"/>
  </clipPath>
</defs>
<path clip-path="url(#clip670)" d="
M257.626 1800.78 L2640.76 1800.78 L2640.76 47.2441 L257.626 47.2441  Z
  " fill="#ffffff" fill-rule="evenodd" fill-opacity="1"/>
<defs>
  <clipPath id="clip672">
    <rect x="257" y="47" width="2384" height="1755"/>
  </clipPath>
</defs>
<polyline clip-path="url(#clip672)" style="stroke:#000000; stroke-linecap:butt; stroke-linejoin:round; stroke-width:2; stroke-opacity:0.1; fill:none" points="
  325.073,1800.78 325.073,47.2441 
  "/>
<polyline clip-path="url(#clip672)" style="stroke:#000000; stroke-linecap:butt; stroke-linejoin:round; stroke-width:2; stroke-opacity:0.1; fill:none" points="
  699.779,1800.78 699.779,47.2441 
  "/>
<polyline clip-path="url(#clip672)" style="stroke:#000000; stroke-linecap:butt; stroke-linejoin:round; stroke-width:2; stroke-opacity:0.1; fill:none" points="
  1074.48,1800.78 1074.48,47.2441 
  "/>
<polyline clip-path="url(#clip672)" style="stroke:#000000; stroke-linecap:butt; stroke-linejoin:round; stroke-width:2; stroke-opacity:0.1; fill:none" points="
  1449.19,1800.78 1449.19,47.2441 
  "/>
<polyline clip-path="url(#clip672)" style="stroke:#000000; stroke-linecap:butt; stroke-linejoin:round; stroke-width:2; stroke-opacity:0.1; fill:none" points="
  1823.9,1800.78 1823.9,47.2441 
  "/>
<polyline clip-path="url(#clip672)" style="stroke:#000000; stroke-linecap:butt; stroke-linejoin:round; stroke-width:2; stroke-opacity:0.1; fill:none" points="
  2198.6,1800.78 2198.6,47.2441 
  "/>
<polyline clip-path="url(#clip672)" style="stroke:#000000; stroke-linecap:butt; stroke-linejoin:round; stroke-width:2; stroke-opacity:0.1; fill:none" points="
  2573.31,1800.78 2573.31,47.2441 
  "/>
<polyline clip-path="url(#clip670)" style="stroke:#000000; stroke-linecap:butt; stroke-linejoin:round; stroke-width:4; stroke-opacity:1; fill:none" points="
  257.626,1800.78 2640.76,1800.78 
  "/>
<polyline clip-path="url(#clip670)" style="stroke:#000000; stroke-linecap:butt; stroke-linejoin:round; stroke-width:4; stroke-opacity:1; fill:none" points="
  325.073,1800.78 325.073,1781.88 
  "/>
<polyline clip-path="url(#clip670)" style="stroke:#000000; stroke-linecap:butt; stroke-linejoin:round; stroke-width:4; stroke-opacity:1; fill:none" points="
  699.779,1800.78 699.779,1781.88 
  "/>
<polyline clip-path="url(#clip670)" style="stroke:#000000; stroke-linecap:butt; stroke-linejoin:round; stroke-width:4; stroke-opacity:1; fill:none" points="
  1074.48,1800.78 1074.48,1781.88 
  "/>
<polyline clip-path="url(#clip670)" style="stroke:#000000; stroke-linecap:butt; stroke-linejoin:round; stroke-width:4; stroke-opacity:1; fill:none" points="
  1449.19,1800.78 1449.19,1781.88 
  "/>
<polyline clip-path="url(#clip670)" style="stroke:#000000; stroke-linecap:butt; stroke-linejoin:round; stroke-width:4; stroke-opacity:1; fill:none" points="
  1823.9,1800.78 1823.9,1781.88 
  "/>
<polyline clip-path="url(#clip670)" style="stroke:#000000; stroke-linecap:butt; stroke-linejoin:round; stroke-width:4; stroke-opacity:1; fill:none" points="
  2198.6,1800.78 2198.6,1781.88 
  "/>
<polyline clip-path="url(#clip670)" style="stroke:#000000; stroke-linecap:butt; stroke-linejoin:round; stroke-width:4; stroke-opacity:1; fill:none" points="
  2573.31,1800.78 2573.31,1781.88 
  "/>
<path clip-path="url(#clip670)" d="M303.256 1834 Q299.645 1834 297.816 1837.57 Q296.011 1841.11 296.011 1848.24 Q296.011 1855.34 297.816 1858.91 Q299.645 1862.45 303.256 1862.45 Q306.89 1862.45 308.696 1858.91 Q310.524 1855.34 310.524 1848.24 Q310.524 1841.11 308.696 1837.57 Q306.89 1834 303.256 1834 M303.256 1830.3 Q309.066 1830.3 312.122 1834.9 Q315.2 1839.49 315.2 1848.24 Q315.2 1856.96 312.122 1861.57 Q309.066 1866.15 303.256 1866.15 Q297.446 1866.15 294.367 1861.57 Q291.312 1856.96 291.312 1848.24 Q291.312 1839.49 294.367 1834.9 Q297.446 1830.3 303.256 1830.3 Z" fill="#000000" fill-rule="evenodd" fill-opacity="1" /><path clip-path="url(#clip670)" d="M323.418 1859.6 L328.302 1859.6 L328.302 1865.48 L323.418 1865.48 L323.418 1859.6 Z" fill="#000000" fill-rule="evenodd" fill-opacity="1" /><path clip-path="url(#clip670)" d="M342.515 1861.55 L358.834 1861.55 L358.834 1865.48 L336.89 1865.48 L336.89 1861.55 Q339.552 1858.79 344.135 1854.16 Q348.742 1849.51 349.922 1848.17 Q352.168 1845.65 353.047 1843.91 Q353.95 1842.15 353.95 1840.46 Q353.95 1837.71 352.006 1835.97 Q350.084 1834.23 346.983 1834.23 Q344.783 1834.23 342.33 1835 Q339.899 1835.76 337.121 1837.31 L337.121 1832.59 Q339.946 1831.46 342.399 1830.88 Q344.853 1830.3 346.89 1830.3 Q352.26 1830.3 355.455 1832.98 Q358.649 1835.67 358.649 1840.16 Q358.649 1842.29 357.839 1844.21 Q357.052 1846.11 354.945 1848.7 Q354.367 1849.37 351.265 1852.59 Q348.163 1855.78 342.515 1861.55 Z" fill="#000000" fill-rule="evenodd" fill-opacity="1" /><path clip-path="url(#clip670)" d="M677.487 1834 Q673.876 1834 672.048 1837.57 Q670.242 1841.11 670.242 1848.24 Q670.242 1855.34 672.048 1858.91 Q673.876 1862.45 677.487 1862.45 Q681.122 1862.45 682.927 1858.91 Q684.756 1855.34 684.756 1848.24 Q684.756 1841.11 682.927 1837.57 Q681.122 1834 677.487 1834 M677.487 1830.3 Q683.298 1830.3 686.353 1834.9 Q689.432 1839.49 689.432 1848.24 Q689.432 1856.96 686.353 1861.57 Q683.298 1866.15 677.487 1866.15 Q671.677 1866.15 668.599 1861.57 Q665.543 1856.96 665.543 1848.24 Q665.543 1839.49 668.599 1834.9 Q671.677 1830.3 677.487 1830.3 Z" fill="#000000" fill-rule="evenodd" fill-opacity="1" /><path clip-path="url(#clip670)" d="M697.649 1859.6 L702.534 1859.6 L702.534 1865.48 L697.649 1865.48 L697.649 1859.6 Z" fill="#000000" fill-rule="evenodd" fill-opacity="1" /><path clip-path="url(#clip670)" d="M726.885 1846.85 Q730.242 1847.57 732.117 1849.84 Q734.015 1852.1 734.015 1855.44 Q734.015 1860.55 730.496 1863.35 Q726.978 1866.15 720.496 1866.15 Q718.32 1866.15 716.006 1865.71 Q713.714 1865.3 711.26 1864.44 L711.26 1859.93 Q713.205 1861.06 715.52 1861.64 Q717.834 1862.22 720.358 1862.22 Q724.756 1862.22 727.047 1860.48 Q729.362 1858.75 729.362 1855.44 Q729.362 1852.38 727.209 1850.67 Q725.08 1848.93 721.26 1848.93 L717.233 1848.93 L717.233 1845.09 L721.445 1845.09 Q724.895 1845.09 726.723 1843.72 Q728.552 1842.34 728.552 1839.74 Q728.552 1837.08 726.654 1835.67 Q724.779 1834.23 721.26 1834.23 Q719.339 1834.23 717.14 1834.65 Q714.941 1835.07 712.302 1835.95 L712.302 1831.78 Q714.964 1831.04 717.279 1830.67 Q719.617 1830.3 721.677 1830.3 Q727.001 1830.3 730.103 1832.73 Q733.205 1835.14 733.205 1839.26 Q733.205 1842.13 731.561 1844.12 Q729.918 1846.09 726.885 1846.85 Z" fill="#000000" fill-rule="evenodd" fill-opacity="1" /><path clip-path="url(#clip670)" d="M1051.63 1834 Q1048.02 1834 1046.19 1837.57 Q1044.38 1841.11 1044.38 1848.24 Q1044.38 1855.34 1046.19 1858.91 Q1048.02 1862.45 1051.63 1862.45 Q1055.26 1862.45 1057.07 1858.91 Q1058.89 1855.34 1058.89 1848.24 Q1058.89 1841.11 1057.07 1837.57 Q1055.26 1834 1051.63 1834 M1051.63 1830.3 Q1057.44 1830.3 1060.49 1834.9 Q1063.57 1839.49 1063.57 1848.24 Q1063.57 1856.96 1060.49 1861.57 Q1057.44 1866.15 1051.63 1866.15 Q1045.82 1866.15 1042.74 1861.57 Q1039.68 1856.96 1039.68 1848.24 Q1039.68 1839.49 1042.74 1834.9 Q1045.82 1830.3 1051.63 1830.3 Z" fill="#000000" fill-rule="evenodd" fill-opacity="1" /><path clip-path="url(#clip670)" d="M1071.79 1859.6 L1076.67 1859.6 L1076.67 1865.48 L1071.79 1865.48 L1071.79 1859.6 Z" fill="#000000" fill-rule="evenodd" fill-opacity="1" /><path clip-path="url(#clip670)" d="M1099.7 1835 L1087.9 1853.45 L1099.7 1853.45 L1099.7 1835 M1098.48 1830.92 L1104.36 1830.92 L1104.36 1853.45 L1109.29 1853.45 L1109.29 1857.34 L1104.36 1857.34 L1104.36 1865.48 L1099.7 1865.48 L1099.7 1857.34 L1084.1 1857.34 L1084.1 1852.82 L1098.48 1830.92 Z" fill="#000000" fill-rule="evenodd" fill-opacity="1" /><path clip-path="url(#clip670)" d="M1427.07 1834 Q1423.46 1834 1421.63 1837.57 Q1419.83 1841.11 1419.83 1848.24 Q1419.83 1855.34 1421.63 1858.91 Q1423.46 1862.45 1427.07 1862.45 Q1430.71 1862.45 1432.51 1858.91 Q1434.34 1855.34 1434.34 1848.24 Q1434.34 1841.11 1432.51 1837.57 Q1430.71 1834 1427.07 1834 M1427.07 1830.3 Q1432.88 1830.3 1435.94 1834.9 Q1439.02 1839.49 1439.02 1848.24 Q1439.02 1856.96 1435.94 1861.57 Q1432.88 1866.15 1427.07 1866.15 Q1421.26 1866.15 1418.18 1861.57 Q1415.13 1856.96 1415.13 1848.24 Q1415.13 1839.49 1418.18 1834.9 Q1421.26 1830.3 1427.07 1830.3 Z" fill="#000000" fill-rule="evenodd" fill-opacity="1" /><path clip-path="url(#clip670)" d="M1447.23 1859.6 L1452.12 1859.6 L1452.12 1865.48 L1447.23 1865.48 L1447.23 1859.6 Z" fill="#000000" fill-rule="evenodd" fill-opacity="1" /><path clip-path="url(#clip670)" d="M1462.35 1830.92 L1480.71 1830.92 L1480.71 1834.86 L1466.63 1834.86 L1466.63 1843.33 Q1467.65 1842.98 1468.67 1842.82 Q1469.69 1842.64 1470.71 1842.64 Q1476.49 1842.64 1479.87 1845.81 Q1483.25 1848.98 1483.25 1854.4 Q1483.25 1859.97 1479.78 1863.08 Q1476.31 1866.15 1469.99 1866.15 Q1467.81 1866.15 1465.54 1865.78 Q1463.3 1865.41 1460.89 1864.67 L1460.89 1859.97 Q1462.98 1861.11 1465.2 1861.66 Q1467.42 1862.22 1469.9 1862.22 Q1473.9 1862.22 1476.24 1860.11 Q1478.58 1858.01 1478.58 1854.4 Q1478.58 1850.78 1476.24 1848.68 Q1473.9 1846.57 1469.9 1846.57 Q1468.02 1846.57 1466.15 1846.99 Q1464.29 1847.4 1462.35 1848.28 L1462.35 1830.92 Z" fill="#000000" fill-rule="evenodd" fill-opacity="1" /><path clip-path="url(#clip670)" d="M1801.2 1834 Q1797.59 1834 1795.76 1837.57 Q1793.95 1841.11 1793.95 1848.24 Q1793.95 1855.34 1795.76 1858.91 Q1797.59 1862.45 1801.2 1862.45 Q1804.83 1862.45 1806.64 1858.91 Q1808.47 1855.34 1808.47 1848.24 Q1808.47 1841.11 1806.64 1837.57 Q1804.83 1834 1801.2 1834 M1801.2 1830.3 Q1807.01 1830.3 1810.07 1834.9 Q1813.14 1839.49 1813.14 1848.24 Q1813.14 1856.96 1810.07 1861.57 Q1807.01 1866.15 1801.2 1866.15 Q1795.39 1866.15 1792.31 1861.57 Q1789.26 1856.96 1789.26 1848.24 Q1789.26 1839.49 1792.31 1834.9 Q1795.39 1830.3 1801.2 1830.3 Z" fill="#000000" fill-rule="evenodd" fill-opacity="1" /><path clip-path="url(#clip670)" d="M1821.36 1859.6 L1826.25 1859.6 L1826.25 1865.48 L1821.36 1865.48 L1821.36 1859.6 Z" fill="#000000" fill-rule="evenodd" fill-opacity="1" /><path clip-path="url(#clip670)" d="M1847.01 1846.34 Q1843.86 1846.34 1842.01 1848.49 Q1840.18 1850.65 1840.18 1854.4 Q1840.18 1858.12 1842.01 1860.3 Q1843.86 1862.45 1847.01 1862.45 Q1850.16 1862.45 1851.99 1860.3 Q1853.84 1858.12 1853.84 1854.4 Q1853.84 1850.65 1851.99 1848.49 Q1850.16 1846.34 1847.01 1846.34 M1856.29 1831.69 L1856.29 1835.95 Q1854.53 1835.11 1852.73 1834.67 Q1850.95 1834.23 1849.19 1834.23 Q1844.56 1834.23 1842.1 1837.36 Q1839.67 1840.48 1839.33 1846.8 Q1840.69 1844.79 1842.75 1843.72 Q1844.81 1842.64 1847.29 1842.64 Q1852.5 1842.64 1855.51 1845.81 Q1858.54 1848.96 1858.54 1854.4 Q1858.54 1859.72 1855.39 1862.94 Q1852.24 1866.15 1847.01 1866.15 Q1841.01 1866.15 1837.84 1861.57 Q1834.67 1856.96 1834.67 1848.24 Q1834.67 1840.04 1838.56 1835.18 Q1842.45 1830.3 1849 1830.3 Q1850.76 1830.3 1852.54 1830.65 Q1854.35 1830.99 1856.29 1831.69 Z" fill="#000000" fill-rule="evenodd" fill-opacity="1" /><path clip-path="url(#clip670)" d="M2176.44 1834 Q2172.83 1834 2171 1837.57 Q2169.19 1841.11 2169.19 1848.24 Q2169.19 1855.34 2171 1858.91 Q2172.83 1862.45 2176.44 1862.45 Q2180.07 1862.45 2181.88 1858.91 Q2183.71 1855.34 2183.71 1848.24 Q2183.71 1841.11 2181.88 1837.57 Q2180.07 1834 2176.44 1834 M2176.44 1830.3 Q2182.25 1830.3 2185.3 1834.9 Q2188.38 1839.49 2188.38 1848.24 Q2188.38 1856.96 2185.3 1861.57 Q2182.25 1866.15 2176.44 1866.15 Q2170.63 1866.15 2167.55 1861.57 Q2164.49 1856.96 2164.49 1848.24 Q2164.49 1839.49 2167.55 1834.9 Q2170.63 1830.3 2176.44 1830.3 Z" fill="#000000" fill-rule="evenodd" fill-opacity="1" /><path clip-path="url(#clip670)" d="M2196.6 1859.6 L2201.48 1859.6 L2201.48 1865.48 L2196.6 1865.48 L2196.6 1859.6 Z" fill="#000000" fill-rule="evenodd" fill-opacity="1" /><path clip-path="url(#clip670)" d="M2210.49 1830.92 L2232.71 1830.92 L2232.71 1832.91 L2220.17 1865.48 L2215.28 1865.48 L2227.09 1834.86 L2210.49 1834.86 L2210.49 1830.92 Z" fill="#000000" fill-rule="evenodd" fill-opacity="1" /><path clip-path="url(#clip670)" d="M2550.74 1834 Q2547.13 1834 2545.3 1837.57 Q2543.49 1841.11 2543.49 1848.24 Q2543.49 1855.34 2545.3 1858.91 Q2547.13 1862.45 2550.74 1862.45 Q2554.37 1862.45 2556.18 1858.91 Q2558.01 1855.34 2558.01 1848.24 Q2558.01 1841.11 2556.18 1837.57 Q2554.37 1834 2550.74 1834 M2550.74 1830.3 Q2556.55 1830.3 2559.61 1834.9 Q2562.68 1839.49 2562.68 1848.24 Q2562.68 1856.96 2559.61 1861.57 Q2556.55 1866.15 2550.74 1866.15 Q2544.93 1866.15 2541.85 1861.57 Q2538.8 1856.96 2538.8 1848.24 Q2538.8 1839.49 2541.85 1834.9 Q2544.93 1830.3 2550.74 1830.3 Z" fill="#000000" fill-rule="evenodd" fill-opacity="1" /><path clip-path="url(#clip670)" d="M2570.9 1859.6 L2575.79 1859.6 L2575.79 1865.48 L2570.9 1865.48 L2570.9 1859.6 Z" fill="#000000" fill-rule="evenodd" fill-opacity="1" /><path clip-path="url(#clip670)" d="M2595.97 1849.07 Q2592.64 1849.07 2590.72 1850.85 Q2588.82 1852.64 2588.82 1855.76 Q2588.82 1858.89 2590.72 1860.67 Q2592.64 1862.45 2595.97 1862.45 Q2599.3 1862.45 2601.23 1860.67 Q2603.15 1858.86 2603.15 1855.76 Q2603.15 1852.64 2601.23 1850.85 Q2599.33 1849.07 2595.97 1849.07 M2591.29 1847.08 Q2588.29 1846.34 2586.6 1844.28 Q2584.93 1842.22 2584.93 1839.26 Q2584.93 1835.11 2587.87 1832.71 Q2590.83 1830.3 2595.97 1830.3 Q2601.13 1830.3 2604.07 1832.71 Q2607.01 1835.11 2607.01 1839.26 Q2607.01 1842.22 2605.32 1844.28 Q2603.66 1846.34 2600.67 1847.08 Q2604.05 1847.87 2605.92 1850.16 Q2607.82 1852.45 2607.82 1855.76 Q2607.82 1860.78 2604.74 1863.47 Q2601.69 1866.15 2595.97 1866.15 Q2590.25 1866.15 2587.17 1863.47 Q2584.12 1860.78 2584.12 1855.76 Q2584.12 1852.45 2586.02 1850.16 Q2587.92 1847.87 2591.29 1847.08 M2589.58 1839.7 Q2589.58 1842.38 2591.25 1843.89 Q2592.94 1845.39 2595.97 1845.39 Q2598.98 1845.39 2600.67 1843.89 Q2602.38 1842.38 2602.38 1839.7 Q2602.38 1837.01 2600.67 1835.51 Q2598.98 1834 2595.97 1834 Q2592.94 1834 2591.25 1835.51 Q2589.58 1837.01 2589.58 1839.7 Z" fill="#000000" fill-rule="evenodd" fill-opacity="1" /><polyline clip-path="url(#clip672)" style="stroke:#000000; stroke-linecap:butt; stroke-linejoin:round; stroke-width:2; stroke-opacity:0.1; fill:none" points="
  257.626,1625.5 2640.76,1625.5 
  "/>
<polyline clip-path="url(#clip672)" style="stroke:#000000; stroke-linecap:butt; stroke-linejoin:round; stroke-width:2; stroke-opacity:0.1; fill:none" points="
  257.626,1357.32 2640.76,1357.32 
  "/>
<polyline clip-path="url(#clip672)" style="stroke:#000000; stroke-linecap:butt; stroke-linejoin:round; stroke-width:2; stroke-opacity:0.1; fill:none" points="
  257.626,1089.14 2640.76,1089.14 
  "/>
<polyline clip-path="url(#clip672)" style="stroke:#000000; stroke-linecap:butt; stroke-linejoin:round; stroke-width:2; stroke-opacity:0.1; fill:none" points="
  257.626,820.961 2640.76,820.961 
  "/>
<polyline clip-path="url(#clip672)" style="stroke:#000000; stroke-linecap:butt; stroke-linejoin:round; stroke-width:2; stroke-opacity:0.1; fill:none" points="
  257.626,552.782 2640.76,552.782 
  "/>
<polyline clip-path="url(#clip672)" style="stroke:#000000; stroke-linecap:butt; stroke-linejoin:round; stroke-width:2; stroke-opacity:0.1; fill:none" points="
  257.626,284.603 2640.76,284.603 
  "/>
<polyline clip-path="url(#clip670)" style="stroke:#000000; stroke-linecap:butt; stroke-linejoin:round; stroke-width:4; stroke-opacity:1; fill:none" points="
  257.626,1800.78 257.626,47.2441 
  "/>
<polyline clip-path="url(#clip670)" style="stroke:#000000; stroke-linecap:butt; stroke-linejoin:round; stroke-width:4; stroke-opacity:1; fill:none" points="
  257.626,1625.5 276.523,1625.5 
  "/>
<polyline clip-path="url(#clip670)" style="stroke:#000000; stroke-linecap:butt; stroke-linejoin:round; stroke-width:4; stroke-opacity:1; fill:none" points="
  257.626,1357.32 276.523,1357.32 
  "/>
<polyline clip-path="url(#clip670)" style="stroke:#000000; stroke-linecap:butt; stroke-linejoin:round; stroke-width:4; stroke-opacity:1; fill:none" points="
  257.626,1089.14 276.523,1089.14 
  "/>
<polyline clip-path="url(#clip670)" style="stroke:#000000; stroke-linecap:butt; stroke-linejoin:round; stroke-width:4; stroke-opacity:1; fill:none" points="
  257.626,820.961 276.523,820.961 
  "/>
<polyline clip-path="url(#clip670)" style="stroke:#000000; stroke-linecap:butt; stroke-linejoin:round; stroke-width:4; stroke-opacity:1; fill:none" points="
  257.626,552.782 276.523,552.782 
  "/>
<polyline clip-path="url(#clip670)" style="stroke:#000000; stroke-linecap:butt; stroke-linejoin:round; stroke-width:4; stroke-opacity:1; fill:none" points="
  257.626,284.603 276.523,284.603 
  "/>
<path clip-path="url(#clip670)" d="M49.5521 1625.95 L79.2279 1625.95 L79.2279 1629.89 L49.5521 1629.89 L49.5521 1625.95 Z" fill="#000000" fill-rule="evenodd" fill-opacity="1" /><path clip-path="url(#clip670)" d="M102.168 1612.29 L90.3621 1630.74 L102.168 1630.74 L102.168 1612.29 M100.941 1608.22 L106.82 1608.22 L106.82 1630.74 L111.751 1630.74 L111.751 1634.63 L106.82 1634.63 L106.82 1642.78 L102.168 1642.78 L102.168 1634.63 L86.5658 1634.63 L86.5658 1630.12 L100.941 1608.22 Z" fill="#000000" fill-rule="evenodd" fill-opacity="1" /><path clip-path="url(#clip670)" d="M119.482 1636.9 L124.367 1636.9 L124.367 1642.78 L119.482 1642.78 L119.482 1636.9 Z" fill="#000000" fill-rule="evenodd" fill-opacity="1" /><path clip-path="url(#clip670)" d="M147.399 1612.29 L135.593 1630.74 L147.399 1630.74 L147.399 1612.29 M146.172 1608.22 L152.052 1608.22 L152.052 1630.74 L156.982 1630.74 L156.982 1634.63 L152.052 1634.63 L152.052 1642.78 L147.399 1642.78 L147.399 1634.63 L131.797 1634.63 L131.797 1630.12 L146.172 1608.22 Z" fill="#000000" fill-rule="evenodd" fill-opacity="1" /><path clip-path="url(#clip670)" d="M163.533 1608.22 L185.755 1608.22 L185.755 1610.21 L173.209 1642.78 L168.325 1642.78 L180.13 1612.15 L163.533 1612.15 L163.533 1608.22 Z" fill="#000000" fill-rule="evenodd" fill-opacity="1" /><path clip-path="url(#clip670)" d="M207.723 1612.29 L195.917 1630.74 L207.723 1630.74 L207.723 1612.29 M206.496 1608.22 L212.375 1608.22 L212.375 1630.74 L217.306 1630.74 L217.306 1634.63 L212.375 1634.63 L212.375 1642.78 L207.723 1642.78 L207.723 1634.63 L192.121 1634.63 L192.121 1630.12 L206.496 1608.22 Z" fill="#000000" fill-rule="evenodd" fill-opacity="1" /><path clip-path="url(#clip670)" d="M51.6354 1357.77 L81.3112 1357.77 L81.3112 1361.71 L51.6354 1361.71 L51.6354 1357.77 Z" fill="#000000" fill-rule="evenodd" fill-opacity="1" /><path clip-path="url(#clip670)" d="M104.251 1344.11 L92.4454 1362.56 L104.251 1362.56 L104.251 1344.11 M103.024 1340.04 L108.904 1340.04 L108.904 1362.56 L113.834 1362.56 L113.834 1366.45 L108.904 1366.45 L108.904 1374.6 L104.251 1374.6 L104.251 1366.45 L88.6491 1366.45 L88.6491 1361.94 L103.024 1340.04 Z" fill="#000000" fill-rule="evenodd" fill-opacity="1" /><path clip-path="url(#clip670)" d="M121.566 1368.72 L126.45 1368.72 L126.45 1374.6 L121.566 1374.6 L121.566 1368.72 Z" fill="#000000" fill-rule="evenodd" fill-opacity="1" /><path clip-path="url(#clip670)" d="M149.482 1344.11 L137.677 1362.56 L149.482 1362.56 L149.482 1344.11 M148.255 1340.04 L154.135 1340.04 L154.135 1362.56 L159.065 1362.56 L159.065 1366.45 L154.135 1366.45 L154.135 1374.6 L149.482 1374.6 L149.482 1366.45 L133.88 1366.45 L133.88 1361.94 L148.255 1340.04 Z" fill="#000000" fill-rule="evenodd" fill-opacity="1" /><path clip-path="url(#clip670)" d="M165.616 1340.04 L187.838 1340.04 L187.838 1342.03 L175.292 1374.6 L170.408 1374.6 L182.213 1343.97 L165.616 1343.97 L165.616 1340.04 Z" fill="#000000" fill-rule="evenodd" fill-opacity="1" /><path clip-path="url(#clip670)" d="M200.986 1370.66 L217.306 1370.66 L217.306 1374.6 L195.362 1374.6 L195.362 1370.66 Q198.024 1367.91 202.607 1363.28 Q207.213 1358.63 208.394 1357.28 Q210.639 1354.76 211.519 1353.03 Q212.422 1351.27 212.422 1349.58 Q212.422 1346.82 210.477 1345.09 Q208.556 1343.35 205.454 1343.35 Q203.255 1343.35 200.801 1344.11 Q198.371 1344.88 195.593 1346.43 L195.593 1341.71 Q198.417 1340.57 200.871 1339.99 Q203.324 1339.41 205.361 1339.41 Q210.732 1339.41 213.926 1342.1 Q217.121 1344.78 217.121 1349.28 Q217.121 1351.41 216.31 1353.33 Q215.523 1355.22 213.417 1357.82 Q212.838 1358.49 209.736 1361.71 Q206.635 1364.9 200.986 1370.66 Z" fill="#000000" fill-rule="evenodd" fill-opacity="1" /><path clip-path="url(#clip670)" d="M50.0382 1089.59 L79.714 1089.59 L79.714 1093.53 L50.0382 1093.53 L50.0382 1089.59 Z" fill="#000000" fill-rule="evenodd" fill-opacity="1" /><path clip-path="url(#clip670)" d="M102.654 1075.93 L90.8482 1094.38 L102.654 1094.38 L102.654 1075.93 M101.427 1071.86 L107.306 1071.86 L107.306 1094.38 L112.237 1094.38 L112.237 1098.27 L107.306 1098.27 L107.306 1106.42 L102.654 1106.42 L102.654 1098.27 L87.0519 1098.27 L87.0519 1093.76 L101.427 1071.86 Z" fill="#000000" fill-rule="evenodd" fill-opacity="1" /><path clip-path="url(#clip670)" d="M119.968 1100.54 L124.853 1100.54 L124.853 1106.42 L119.968 1106.42 L119.968 1100.54 Z" fill="#000000" fill-rule="evenodd" fill-opacity="1" /><path clip-path="url(#clip670)" d="M147.885 1075.93 L136.079 1094.38 L147.885 1094.38 L147.885 1075.93 M146.658 1071.86 L152.538 1071.86 L152.538 1094.38 L157.468 1094.38 L157.468 1098.27 L152.538 1098.27 L152.538 1106.42 L147.885 1106.42 L147.885 1098.27 L132.283 1098.27 L132.283 1093.76 L146.658 1071.86 Z" fill="#000000" fill-rule="evenodd" fill-opacity="1" /><path clip-path="url(#clip670)" d="M164.019 1071.86 L186.241 1071.86 L186.241 1073.85 L173.695 1106.42 L168.811 1106.42 L180.616 1075.8 L164.019 1075.8 L164.019 1071.86 Z" fill="#000000" fill-rule="evenodd" fill-opacity="1" /><path clip-path="url(#clip670)" d="M205.361 1074.94 Q201.75 1074.94 199.922 1078.5 Q198.116 1082.05 198.116 1089.18 Q198.116 1096.28 199.922 1099.85 Q201.75 1103.39 205.361 1103.39 Q208.996 1103.39 210.801 1099.85 Q212.63 1096.28 212.63 1089.18 Q212.63 1082.05 210.801 1078.5 Q208.996 1074.94 205.361 1074.94 M205.361 1071.24 Q211.172 1071.24 214.227 1075.84 Q217.306 1080.43 217.306 1089.18 Q217.306 1097.9 214.227 1102.51 Q211.172 1107.09 205.361 1107.09 Q199.551 1107.09 196.473 1102.51 Q193.417 1097.9 193.417 1089.18 Q193.417 1080.43 196.473 1075.84 Q199.551 1071.24 205.361 1071.24 Z" fill="#000000" fill-rule="evenodd" fill-opacity="1" /><path clip-path="url(#clip670)" d="M50.1308 821.413 L79.8066 821.413 L79.8066 825.348 L50.1308 825.348 L50.1308 821.413 Z" fill="#000000" fill-rule="evenodd" fill-opacity="1" /><path clip-path="url(#clip670)" d="M102.746 807.755 L90.9408 826.204 L102.746 826.204 L102.746 807.755 M101.519 803.681 L107.399 803.681 L107.399 826.204 L112.33 826.204 L112.33 830.093 L107.399 830.093 L107.399 838.241 L102.746 838.241 L102.746 830.093 L87.1445 830.093 L87.1445 825.579 L101.519 803.681 Z" fill="#000000" fill-rule="evenodd" fill-opacity="1" /><path clip-path="url(#clip670)" d="M120.061 832.362 L124.945 832.362 L124.945 838.241 L120.061 838.241 L120.061 832.362 Z" fill="#000000" fill-rule="evenodd" fill-opacity="1" /><path clip-path="url(#clip670)" d="M147.978 807.755 L136.172 826.204 L147.978 826.204 L147.978 807.755 M146.751 803.681 L152.63 803.681 L152.63 826.204 L157.561 826.204 L157.561 830.093 L152.63 830.093 L152.63 838.241 L147.978 838.241 L147.978 830.093 L132.376 830.093 L132.376 825.579 L146.751 803.681 Z" fill="#000000" fill-rule="evenodd" fill-opacity="1" /><path clip-path="url(#clip670)" d="M175.871 819.098 Q172.723 819.098 170.871 821.251 Q169.042 823.403 169.042 827.153 Q169.042 830.88 170.871 833.056 Q172.723 835.209 175.871 835.209 Q179.019 835.209 180.848 833.056 Q182.7 830.88 182.7 827.153 Q182.7 823.403 180.848 821.251 Q179.019 819.098 175.871 819.098 M185.153 804.445 L185.153 808.704 Q183.394 807.871 181.588 807.431 Q179.806 806.991 178.047 806.991 Q173.417 806.991 170.964 810.116 Q168.533 813.241 168.186 819.561 Q169.551 817.547 171.612 816.482 Q173.672 815.394 176.149 815.394 Q181.357 815.394 184.366 818.565 Q187.399 821.714 187.399 827.153 Q187.399 832.477 184.25 835.695 Q181.102 838.913 175.871 838.913 Q169.876 838.913 166.704 834.329 Q163.533 829.723 163.533 820.996 Q163.533 812.802 167.422 807.94 Q171.311 803.056 177.862 803.056 Q179.621 803.056 181.403 803.403 Q183.209 803.751 185.153 804.445 Z" fill="#000000" fill-rule="evenodd" fill-opacity="1" /><path clip-path="url(#clip670)" d="M205.454 821.829 Q202.121 821.829 200.199 823.612 Q198.301 825.394 198.301 828.519 Q198.301 831.644 200.199 833.426 Q202.121 835.209 205.454 835.209 Q208.787 835.209 210.709 833.426 Q212.63 831.621 212.63 828.519 Q212.63 825.394 210.709 823.612 Q208.811 821.829 205.454 821.829 M200.778 819.839 Q197.769 819.098 196.079 817.038 Q194.412 814.977 194.412 812.015 Q194.412 807.871 197.352 805.464 Q200.315 803.056 205.454 803.056 Q210.616 803.056 213.556 805.464 Q216.496 807.871 216.496 812.015 Q216.496 814.977 214.806 817.038 Q213.139 819.098 210.153 819.839 Q213.533 820.626 215.408 822.917 Q217.306 825.209 217.306 828.519 Q217.306 833.542 214.227 836.227 Q211.172 838.913 205.454 838.913 Q199.737 838.913 196.658 836.227 Q193.602 833.542 193.602 828.519 Q193.602 825.209 195.5 822.917 Q197.399 820.626 200.778 819.839 M199.065 812.454 Q199.065 815.14 200.732 816.644 Q202.422 818.149 205.454 818.149 Q208.463 818.149 210.153 816.644 Q211.866 815.14 211.866 812.454 Q211.866 809.769 210.153 808.265 Q208.463 806.76 205.454 806.76 Q202.422 806.76 200.732 808.265 Q199.065 809.769 199.065 812.454 Z" fill="#000000" fill-rule="evenodd" fill-opacity="1" /><path clip-path="url(#clip670)" d="M49.8762 553.233 L79.552 553.233 L79.552 557.169 L49.8762 557.169 L49.8762 553.233 Z" fill="#000000" fill-rule="evenodd" fill-opacity="1" /><path clip-path="url(#clip670)" d="M102.492 539.576 L90.6862 558.025 L102.492 558.025 L102.492 539.576 M101.265 535.502 L107.144 535.502 L107.144 558.025 L112.075 558.025 L112.075 561.914 L107.144 561.914 L107.144 570.062 L102.492 570.062 L102.492 561.914 L86.8899 561.914 L86.8899 557.4 L101.265 535.502 Z" fill="#000000" fill-rule="evenodd" fill-opacity="1" /><path clip-path="url(#clip670)" d="M119.806 564.182 L124.691 564.182 L124.691 570.062 L119.806 570.062 L119.806 564.182 Z" fill="#000000" fill-rule="evenodd" fill-opacity="1" /><path clip-path="url(#clip670)" d="M147.723 539.576 L135.917 558.025 L147.723 558.025 L147.723 539.576 M146.496 535.502 L152.376 535.502 L152.376 558.025 L157.306 558.025 L157.306 561.914 L152.376 561.914 L152.376 570.062 L147.723 570.062 L147.723 561.914 L132.121 561.914 L132.121 557.4 L146.496 535.502 Z" fill="#000000" fill-rule="evenodd" fill-opacity="1" /><path clip-path="url(#clip670)" d="M175.616 550.919 Q172.468 550.919 170.616 553.071 Q168.788 555.224 168.788 558.974 Q168.788 562.701 170.616 564.877 Q172.468 567.03 175.616 567.03 Q178.764 567.03 180.593 564.877 Q182.445 562.701 182.445 558.974 Q182.445 555.224 180.593 553.071 Q178.764 550.919 175.616 550.919 M184.899 536.266 L184.899 540.525 Q183.139 539.692 181.334 539.252 Q179.551 538.812 177.792 538.812 Q173.163 538.812 170.709 541.937 Q168.278 545.062 167.931 551.382 Q169.297 549.368 171.357 548.303 Q173.417 547.215 175.894 547.215 Q181.102 547.215 184.112 550.386 Q187.144 553.534 187.144 558.974 Q187.144 564.298 183.996 567.516 Q180.848 570.733 175.616 570.733 Q169.621 570.733 166.45 566.15 Q163.278 561.544 163.278 552.817 Q163.278 544.622 167.167 539.761 Q171.056 534.877 177.607 534.877 Q179.366 534.877 181.149 535.224 Q182.954 535.572 184.899 536.266 Z" fill="#000000" fill-rule="evenodd" fill-opacity="1" /><path clip-path="url(#clip670)" d="M205.778 550.919 Q202.63 550.919 200.778 553.071 Q198.949 555.224 198.949 558.974 Q198.949 562.701 200.778 564.877 Q202.63 567.03 205.778 567.03 Q208.926 567.03 210.755 564.877 Q212.607 562.701 212.607 558.974 Q212.607 555.224 210.755 553.071 Q208.926 550.919 205.778 550.919 M215.06 536.266 L215.06 540.525 Q213.301 539.692 211.496 539.252 Q209.713 538.812 207.954 538.812 Q203.324 538.812 200.871 541.937 Q198.44 545.062 198.093 551.382 Q199.459 549.368 201.519 548.303 Q203.579 547.215 206.056 547.215 Q211.264 547.215 214.273 550.386 Q217.306 553.534 217.306 558.974 Q217.306 564.298 214.158 567.516 Q211.01 570.733 205.778 570.733 Q199.783 570.733 196.612 566.15 Q193.44 561.544 193.44 552.817 Q193.44 544.622 197.329 539.761 Q201.218 534.877 207.769 534.877 Q209.528 534.877 211.311 535.224 Q213.116 535.572 215.06 536.266 Z" fill="#000000" fill-rule="evenodd" fill-opacity="1" /><path clip-path="url(#clip670)" d="M49.5521 285.054 L79.2279 285.054 L79.2279 288.989 L49.5521 288.989 L49.5521 285.054 Z" fill="#000000" fill-rule="evenodd" fill-opacity="1" /><path clip-path="url(#clip670)" d="M102.168 271.397 L90.3621 289.846 L102.168 289.846 L102.168 271.397 M100.941 267.323 L106.82 267.323 L106.82 289.846 L111.751 289.846 L111.751 293.735 L106.82 293.735 L106.82 301.883 L102.168 301.883 L102.168 293.735 L86.5658 293.735 L86.5658 289.221 L100.941 267.323 Z" fill="#000000" fill-rule="evenodd" fill-opacity="1" /><path clip-path="url(#clip670)" d="M119.482 296.003 L124.367 296.003 L124.367 301.883 L119.482 301.883 L119.482 296.003 Z" fill="#000000" fill-rule="evenodd" fill-opacity="1" /><path clip-path="url(#clip670)" d="M147.399 271.397 L135.593 289.846 L147.399 289.846 L147.399 271.397 M146.172 267.323 L152.052 267.323 L152.052 289.846 L156.982 289.846 L156.982 293.735 L152.052 293.735 L152.052 301.883 L147.399 301.883 L147.399 293.735 L131.797 293.735 L131.797 289.221 L146.172 267.323 Z" fill="#000000" fill-rule="evenodd" fill-opacity="1" /><path clip-path="url(#clip670)" d="M175.292 282.74 Q172.144 282.74 170.292 284.892 Q168.464 287.045 168.464 290.795 Q168.464 294.522 170.292 296.698 Q172.144 298.851 175.292 298.851 Q178.44 298.851 180.269 296.698 Q182.121 294.522 182.121 290.795 Q182.121 287.045 180.269 284.892 Q178.44 282.74 175.292 282.74 M184.575 268.087 L184.575 272.346 Q182.815 271.513 181.01 271.073 Q179.227 270.633 177.468 270.633 Q172.839 270.633 170.385 273.758 Q167.954 276.883 167.607 283.202 Q168.973 281.189 171.033 280.124 Q173.093 279.036 175.57 279.036 Q180.778 279.036 183.788 282.207 Q186.82 285.355 186.82 290.795 Q186.82 296.119 183.672 299.337 Q180.524 302.554 175.292 302.554 Q169.297 302.554 166.126 297.971 Q162.954 293.364 162.954 284.638 Q162.954 276.443 166.843 271.582 Q170.732 266.698 177.283 266.698 Q179.042 266.698 180.825 267.045 Q182.63 267.392 184.575 268.087 Z" fill="#000000" fill-rule="evenodd" fill-opacity="1" /><path clip-path="url(#clip670)" d="M207.723 271.397 L195.917 289.846 L207.723 289.846 L207.723 271.397 M206.496 267.323 L212.375 267.323 L212.375 289.846 L217.306 289.846 L217.306 293.735 L212.375 293.735 L212.375 301.883 L207.723 301.883 L207.723 293.735 L192.121 293.735 L192.121 289.221 L206.496 267.323 Z" fill="#000000" fill-rule="evenodd" fill-opacity="1" /><polyline clip-path="url(#clip672)" style="stroke:#009af9; stroke-linecap:butt; stroke-linejoin:round; stroke-width:4; stroke-opacity:1; fill:none" points="
  325.073,909.537 328.732,916.111 332.392,922.661 336.051,929.184 339.71,935.681 373.546,994.535 407.381,1051.18 441.217,1105.62 475.053,1157.85 515.72,1217.7 
  556.388,1274.37 590.772,1319.8 625.156,1362.95 662.506,1407.24 699.857,1448.85 734.291,1484.84 768.725,1518.54 805.641,1552.14 842.558,1583.11 885.33,1615.73 
  928.102,1644.82 966.112,1667.73 1004.12,1687.86 1037.45,1703.23 1070.79,1716.47 1107.13,1728.47 1143.47,1737.93 1180.02,1744.89 1216.58,1749.28 1257,1751.15 
  1297.42,1749.89 1335.87,1745.77 1374.33,1738.81 1414.32,1728.57 1454.3,1715.26 1487.96,1701.68 1521.62,1685.92 1562.72,1663.73 1603.81,1638.3 1641.46,1612.16 
  1679.1,1583.29 1713.87,1554.22 1748.64,1522.82 1783.86,1488.66 1819.08,1452.11 1858.55,1408.31 1898.02,1361.52 1933.79,1316.54 1969.55,1269.1 2010.5,1211.77 
  2051.45,1151.21 2089.37,1092.26 2127.29,1030.55 2164.67,967.007 2202.05,900.773 2238.34,833.892 2274.64,764.476 2311.85,690.682 2349.05,614.223 2389.82,527.392 
  2430.58,437.36 2460.19,369.958 2489.8,300.866 2519.4,230.083 2549.01,157.609 2555.09,142.532 2561.16,127.383 2567.23,112.163 2573.31,96.8724 
  "/>
<path clip-path="url(#clip670)" d="
M2244.1 209.375 L2561.32 209.375 L2561.32 105.695 L2244.1 105.695  Z
  " fill="#ffffff" fill-rule="evenodd" fill-opacity="1"/>
<polyline clip-path="url(#clip670)" style="stroke:#000000; stroke-linecap:butt; stroke-linejoin:round; stroke-width:4; stroke-opacity:1; fill:none" points="
  2244.1,209.375 2561.32,209.375 2561.32,105.695 2244.1,105.695 2244.1,209.375 
  "/>
<polyline clip-path="url(#clip670)" style="stroke:#009af9; stroke-linecap:butt; stroke-linejoin:round; stroke-width:4; stroke-opacity:1; fill:none" points="
  2270.57,157.535 2429.45,157.535 
  "/>
<path clip-path="url(#clip670)" d="M2469.77 177.223 Q2467.97 181.852 2466.25 183.264 Q2464.54 184.676 2461.67 184.676 L2458.27 184.676 L2458.27 181.112 L2460.77 181.112 Q2462.53 181.112 2463.5 180.278 Q2464.47 179.445 2465.65 176.343 L2466.42 174.399 L2455.93 148.889 L2460.44 148.889 L2468.55 169.167 L2476.65 148.889 L2481.16 148.889 L2469.77 177.223 Z" fill="#000000" fill-rule="evenodd" fill-opacity="1" /><path clip-path="url(#clip670)" d="M2488.45 170.88 L2496.09 170.88 L2496.09 144.515 L2487.78 146.181 L2487.78 141.922 L2496.05 140.255 L2500.72 140.255 L2500.72 170.88 L2508.36 170.88 L2508.36 174.815 L2488.45 174.815 L2488.45 170.88 Z" fill="#000000" fill-rule="evenodd" fill-opacity="1" /></svg>
