<?xml version="1.0" encoding="utf-8"?>
<svg xmlns="http://www.w3.org/2000/svg" xmlns:xlink="http://www.w3.org/1999/xlink" width="672" height="480" viewBox="0 0 2688 1920">
<defs>
  <clipPath id="clip900">
    <rect x="0" y="0" width="2688" height="1920"/>
  </clipPath>
</defs>
<path clip-path="url(#clip900)" d="
M0 1920 L2688 1920 L2688 0 L0 0  Z
  " fill="#ffffff" fill-rule="evenodd" fill-opacity="1"/>
<defs>
  <clipPath id="clip901">
    <rect x="537" y="0" width="1883" height="1883"/>
  </clipPath>
</defs>
<path clip-path="url(#clip900)" d="
M196.168 1800.78 L2640.76 1800.78 L2640.76 47.2441 L196.168 47.2441  Z
  " fill="#ffffff" fill-rule="evenodd" fill-opacity="1"/>
<defs>
  <clipPath id="clip902">
    <rect x="196" y="47" width="2446" height="1755"/>
  </clipPath>
</defs>
<polyline clip-path="url(#clip902)" style="stroke:#000000; stroke-linecap:butt; stroke-linejoin:round; stroke-width:2; stroke-opacity:0.1; fill:none" points="
  265.354,1800.78 265.354,47.2441 
  "/>
<polyline clip-path="url(#clip902)" style="stroke:#000000; stroke-linecap:butt; stroke-linejoin:round; stroke-width:2; stroke-opacity:0.1; fill:none" points="
  726.597,1800.78 726.597,47.2441 
  "/>
<polyline clip-path="url(#clip902)" style="stroke:#000000; stroke-linecap:butt; stroke-linejoin:round; stroke-width:2; stroke-opacity:0.1; fill:none" points="
  1187.84,1800.78 1187.84,47.2441 
  "/>
<polyline clip-path="url(#clip902)" style="stroke:#000000; stroke-linecap:butt; stroke-linejoin:round; stroke-width:2; stroke-opacity:0.1; fill:none" points="
  1649.08,1800.78 1649.08,47.2441 
  "/>
<polyline clip-path="url(#clip902)" style="stroke:#000000; stroke-linecap:butt; stroke-linejoin:round; stroke-width:2; stroke-opacity:0.1; fill:none" points="
  2110.33,1800.78 2110.33,47.2441 
  "/>
<polyline clip-path="url(#clip902)" style="stroke:#000000; stroke-linecap:butt; stroke-linejoin:round; stroke-width:2; stroke-opacity:0.1; fill:none" points="
  2571.57,1800.78 2571.57,47.2441 
  "/>
<polyline clip-path="url(#clip900)" style="stroke:#000000; stroke-linecap:butt; stroke-linejoin:round; stroke-width:4; stroke-opacity:1; fill:none" points="
  196.168,1800.78 2640.76,1800.78 
  "/>
<polyline clip-path="url(#clip900)" style="stroke:#000000; stroke-linecap:butt; stroke-linejoin:round; stroke-width:4; stroke-opacity:1; fill:none" points="
  265.354,1800.78 265.354,1781.88 
  "/>
<polyline clip-path="url(#clip900)" style="stroke:#000000; stroke-linecap:butt; stroke-linejoin:round; stroke-width:4; stroke-opacity:1; fill:none" points="
  726.597,1800.78 726.597,1781.88 
  "/>
<polyline clip-path="url(#clip900)" style="stroke:#000000; stroke-linecap:butt; stroke-linejoin:round; stroke-width:4; stroke-opacity:1; fill:none" points="
  1187.84,1800.78 1187.84,1781.88 
  "/>
<polyline clip-path="url(#clip900)" style="stroke:#000000; stroke-linecap:butt; stroke-linejoin:round; stroke-width:4; stroke-opacity:1; fill:none" points="
  1649.08,1800.78 1649.08,1781.88 
  "/>
<polyline clip-path="url(#clip900)" style="stroke:#000000; stroke-linecap:butt; stroke-linejoin:round; stroke-width:4; stroke-opacity:1; fill:none" points="
  2110.33,1800.78 2110.33,1781.88 
  "/>
<polyline clip-path="url(#clip900)" style="stroke:#000000; stroke-linecap:butt; stroke-linejoin:round; stroke-width:4; stroke-opacity:1; fill:none" points="
  2571.57,1800.78 2571.57,1781.88 
  "/>
<path clip-path="url(#clip900)" d="M265.354 1834 Q261.743 1834 259.915 1837.57 Q258.109 1841.11 258.109 1848.24 Q258.109 1855.34 259.915 1858.91 Q261.743 1862.45 265.354 1862.45 Q268.989 1862.45 270.794 1858.91 Q272.623 1855.34 272.623 1848.24 Q272.623 1841.11 270.794 1837.57 Q268.989 1834 265.354 1834 M265.354 1830.3 Q271.164 1830.3 274.22 1834.9 Q277.299 1839.49 277.299 1848.24 Q277.299 1856.96 274.22 1861.57 Q271.164 1866.15 265.354 1866.15 Q259.544 1866.15 256.465 1861.57 Q253.41 1856.96 253.41 1848.24 Q253.41 1839.49 256.465 1834.9 Q259.544 1830.3 265.354 1830.3 Z" fill="#000000" fill-rule="evenodd" fill-opacity="1" /><path clip-path="url(#clip900)" d="M716.979 1861.55 L724.618 1861.55 L724.618 1835.18 L716.308 1836.85 L716.308 1832.59 L724.572 1830.92 L729.248 1830.92 L729.248 1861.55 L736.887 1861.55 L736.887 1865.48 L716.979 1865.48 L716.979 1861.55 Z" fill="#000000" fill-rule="evenodd" fill-opacity="1" /><path clip-path="url(#clip900)" d="M1182.49 1861.55 L1198.81 1861.55 L1198.81 1865.48 L1176.87 1865.48 L1176.87 1861.55 Q1179.53 1858.79 1184.11 1854.16 Q1188.72 1849.51 1189.9 1848.17 Q1192.15 1845.65 1193.03 1843.91 Q1193.93 1842.15 1193.93 1840.46 Q1193.93 1837.71 1191.98 1835.97 Q1190.06 1834.23 1186.96 1834.23 Q1184.76 1834.23 1182.31 1835 Q1179.88 1835.76 1177.1 1837.31 L1177.1 1832.59 Q1179.92 1831.46 1182.38 1830.88 Q1184.83 1830.3 1186.87 1830.3 Q1192.24 1830.3 1195.43 1832.98 Q1198.63 1835.67 1198.63 1840.16 Q1198.63 1842.29 1197.82 1844.21 Q1197.03 1846.11 1194.92 1848.7 Q1194.34 1849.37 1191.24 1852.59 Q1188.14 1855.78 1182.49 1861.55 Z" fill="#000000" fill-rule="evenodd" fill-opacity="1" /><path clip-path="url(#clip900)" d="M1653.33 1846.85 Q1656.69 1847.57 1658.56 1849.84 Q1660.46 1852.1 1660.46 1855.44 Q1660.46 1860.55 1656.94 1863.35 Q1653.42 1866.15 1646.94 1866.15 Q1644.77 1866.15 1642.45 1865.71 Q1640.16 1865.3 1637.71 1864.44 L1637.71 1859.93 Q1639.65 1861.06 1641.97 1861.64 Q1644.28 1862.22 1646.8 1862.22 Q1651.2 1862.22 1653.49 1860.48 Q1655.81 1858.75 1655.81 1855.44 Q1655.81 1852.38 1653.66 1850.67 Q1651.53 1848.93 1647.71 1848.93 L1643.68 1848.93 L1643.68 1845.09 L1647.89 1845.09 Q1651.34 1845.09 1653.17 1843.72 Q1655 1842.34 1655 1839.74 Q1655 1837.08 1653.1 1835.67 Q1651.22 1834.23 1647.71 1834.23 Q1645.78 1834.23 1643.59 1834.65 Q1641.39 1835.07 1638.75 1835.95 L1638.75 1831.78 Q1641.41 1831.04 1643.72 1830.67 Q1646.06 1830.3 1648.12 1830.3 Q1653.45 1830.3 1656.55 1832.73 Q1659.65 1835.14 1659.65 1839.26 Q1659.65 1842.13 1658.01 1844.12 Q1656.36 1846.09 1653.33 1846.85 Z" fill="#000000" fill-rule="evenodd" fill-opacity="1" /><path clip-path="url(#clip900)" d="M2113.34 1835 L2101.53 1853.45 L2113.34 1853.45 L2113.34 1835 M2112.11 1830.92 L2117.99 1830.92 L2117.99 1853.45 L2122.92 1853.45 L2122.92 1857.34 L2117.99 1857.34 L2117.99 1865.48 L2113.34 1865.48 L2113.34 1857.34 L2097.73 1857.34 L2097.73 1852.82 L2112.11 1830.92 Z" fill="#000000" fill-rule="evenodd" fill-opacity="1" /><path clip-path="url(#clip900)" d="M2561.85 1830.92 L2580.2 1830.92 L2580.2 1834.86 L2566.13 1834.86 L2566.13 1843.33 Q2567.15 1842.98 2568.17 1842.82 Q2569.19 1842.64 2570.2 1842.64 Q2575.99 1842.64 2579.37 1845.81 Q2582.75 1848.98 2582.75 1854.4 Q2582.75 1859.97 2579.28 1863.08 Q2575.81 1866.15 2569.49 1866.15 Q2567.31 1866.15 2565.04 1865.78 Q2562.8 1865.41 2560.39 1864.67 L2560.39 1859.97 Q2562.47 1861.11 2564.69 1861.66 Q2566.92 1862.22 2569.39 1862.22 Q2573.4 1862.22 2575.74 1860.11 Q2578.07 1858.01 2578.07 1854.4 Q2578.07 1850.78 2575.74 1848.68 Q2573.4 1846.57 2569.39 1846.57 Q2567.52 1846.57 2565.64 1846.99 Q2563.79 1847.4 2561.85 1848.28 L2561.85 1830.92 Z" fill="#000000" fill-rule="evenodd" fill-opacity="1" /><polyline clip-path="url(#clip902)" style="stroke:#000000; stroke-linecap:butt; stroke-linejoin:round; stroke-width:2; stroke-opacity:0.1; fill:none" points="
  196.168,1584.73 2640.76,1584.73 
  "/>
<polyline clip-path="url(#clip902)" style="stroke:#000000; stroke-linecap:butt; stroke-linejoin:round; stroke-width:2; stroke-opacity:0.1; fill:none" points="
  196.168,1241.38 2640.76,1241.38 
  "/>
<polyline clip-path="url(#clip902)" style="stroke:#000000; stroke-linecap:butt; stroke-linejoin:round; stroke-width:2; stroke-opacity:0.1; fill:none" points="
  196.168,898.027 2640.76,898.027 
  "/>
<polyline clip-path="url(#clip902)" style="stroke:#000000; stroke-linecap:butt; stroke-linejoin:round; stroke-width:2; stroke-opacity:0.1; fill:none" points="
  196.168,554.675 2640.76,554.675 
  "/>
<polyline clip-path="url(#clip902)" style="stroke:#000000; stroke-linecap:butt; stroke-linejoin:round; stroke-width:2; stroke-opacity:0.1; fill:none" points="
  196.168,211.323 2640.76,211.323 
  "/>
<polyline clip-path="url(#clip900)" style="stroke:#000000; stroke-linecap:butt; stroke-linejoin:round; stroke-width:4; stroke-opacity:1; fill:none" points="
  196.168,1800.78 196.168,47.2441 
  "/>
<polyline clip-path="url(#clip900)" style="stroke:#000000; stroke-linecap:butt; stroke-linejoin:round; stroke-width:4; stroke-opacity:1; fill:none" points="
  196.168,1584.73 215.065,1584.73 
  "/>
<polyline clip-path="url(#clip900)" style="stroke:#000000; stroke-linecap:butt; stroke-linejoin:round; stroke-width:4; stroke-opacity:1; fill:none" points="
  196.168,1241.38 215.065,1241.38 
  "/>
<polyline clip-path="url(#clip900)" style="stroke:#000000; stroke-linecap:butt; stroke-linejoin:round; stroke-width:4; stroke-opacity:1; fill:none" points="
  196.168,898.027 215.065,898.027 
  "/>
<polyline clip-path="url(#clip900)" style="stroke:#000000; stroke-linecap:butt; stroke-linejoin:round; stroke-width:4; stroke-opacity:1; fill:none" points="
  196.168,554.675 215.065,554.675 
  "/>
<polyline clip-path="url(#clip900)" style="stroke:#000000; stroke-linecap:butt; stroke-linejoin:round; stroke-width:4; stroke-opacity:1; fill:none" points="
  196.168,211.323 215.065,211.323 
  "/>
<path clip-path="url(#clip900)" d="M49.5521 1585.18 L79.2279 1585.18 L79.2279 1589.12 L49.5521 1589.12 L49.5521 1585.18 Z" fill="#000000" fill-rule="evenodd" fill-opacity="1" /><path clip-path="url(#clip900)" d="M99.3204 1570.53 Q95.7093 1570.53 93.8806 1574.09 Q92.075 1577.64 92.075 1584.77 Q92.075 1591.87 93.8806 1595.44 Q95.7093 1598.98 99.3204 1598.98 Q102.955 1598.98 104.76 1595.44 Q106.589 1591.87 106.589 1584.77 Q106.589 1577.64 104.76 1574.09 Q102.955 1570.53 99.3204 1570.53 M99.3204 1566.83 Q105.131 1566.83 108.186 1571.43 Q111.265 1576.02 111.265 1584.77 Q111.265 1593.49 108.186 1598.1 Q105.131 1602.68 99.3204 1602.68 Q93.5102 1602.68 90.4315 1598.1 Q87.376 1593.49 87.376 1584.77 Q87.376 1576.02 90.4315 1571.43 Q93.5102 1566.83 99.3204 1566.83 Z" fill="#000000" fill-rule="evenodd" fill-opacity="1" /><path clip-path="url(#clip900)" d="M119.482 1596.13 L124.367 1596.13 L124.367 1602.01 L119.482 1602.01 L119.482 1596.13 Z" fill="#000000" fill-rule="evenodd" fill-opacity="1" /><path clip-path="url(#clip900)" d="M148.718 1583.38 Q152.075 1584.09 153.95 1586.36 Q155.848 1588.63 155.848 1591.97 Q155.848 1597.08 152.329 1599.88 Q148.811 1602.68 142.329 1602.68 Q140.153 1602.68 137.839 1602.24 Q135.547 1601.83 133.093 1600.97 L133.093 1596.46 Q135.038 1597.59 137.353 1598.17 Q139.667 1598.75 142.191 1598.75 Q146.589 1598.75 148.88 1597.01 Q151.195 1595.28 151.195 1591.97 Q151.195 1588.91 149.042 1587.2 Q146.913 1585.46 143.093 1585.46 L139.066 1585.46 L139.066 1581.62 L143.278 1581.62 Q146.728 1581.62 148.556 1580.25 Q150.385 1578.86 150.385 1576.27 Q150.385 1573.61 148.487 1572.2 Q146.612 1570.76 143.093 1570.76 Q141.172 1570.76 138.973 1571.18 Q136.774 1571.6 134.135 1572.47 L134.135 1568.31 Q136.797 1567.57 139.112 1567.2 Q141.45 1566.83 143.51 1566.83 Q148.834 1566.83 151.936 1569.26 Q155.038 1571.66 155.038 1575.78 Q155.038 1578.66 153.394 1580.65 Q151.751 1582.61 148.718 1583.38 Z" fill="#000000" fill-rule="evenodd" fill-opacity="1" /><path clip-path="url(#clip900)" d="M98.6722 1227.18 Q95.0611 1227.18 93.2324 1230.74 Q91.4269 1234.28 91.4269 1241.41 Q91.4269 1248.52 93.2324 1252.09 Q95.0611 1255.63 98.6722 1255.63 Q102.306 1255.63 104.112 1252.09 Q105.941 1248.52 105.941 1241.41 Q105.941 1234.28 104.112 1230.74 Q102.306 1227.18 98.6722 1227.18 M98.6722 1223.47 Q104.482 1223.47 107.538 1228.08 Q110.617 1232.66 110.617 1241.41 Q110.617 1250.14 107.538 1254.75 Q104.482 1259.33 98.6722 1259.33 Q92.8621 1259.33 89.7834 1254.75 Q86.7279 1250.14 86.7279 1241.41 Q86.7279 1232.66 89.7834 1228.08 Q92.8621 1223.47 98.6722 1223.47 Z" fill="#000000" fill-rule="evenodd" fill-opacity="1" /><path clip-path="url(#clip900)" d="M118.834 1252.78 L123.718 1252.78 L123.718 1258.66 L118.834 1258.66 L118.834 1252.78 Z" fill="#000000" fill-rule="evenodd" fill-opacity="1" /><path clip-path="url(#clip900)" d="M143.903 1227.18 Q140.292 1227.18 138.464 1230.74 Q136.658 1234.28 136.658 1241.41 Q136.658 1248.52 138.464 1252.09 Q140.292 1255.63 143.903 1255.63 Q147.538 1255.63 149.343 1252.09 Q151.172 1248.52 151.172 1241.41 Q151.172 1234.28 149.343 1230.74 Q147.538 1227.18 143.903 1227.18 M143.903 1223.47 Q149.714 1223.47 152.769 1228.08 Q155.848 1232.66 155.848 1241.41 Q155.848 1250.14 152.769 1254.75 Q149.714 1259.33 143.903 1259.33 Q138.093 1259.33 135.015 1254.75 Q131.959 1250.14 131.959 1241.41 Q131.959 1232.66 135.015 1228.08 Q138.093 1223.47 143.903 1223.47 Z" fill="#000000" fill-rule="evenodd" fill-opacity="1" /><path clip-path="url(#clip900)" d="M99.3204 883.826 Q95.7093 883.826 93.8806 887.391 Q92.075 890.932 92.075 898.062 Q92.075 905.168 93.8806 908.733 Q95.7093 912.275 99.3204 912.275 Q102.955 912.275 104.76 908.733 Q106.589 905.168 106.589 898.062 Q106.589 890.932 104.76 887.391 Q102.955 883.826 99.3204 883.826 M99.3204 880.122 Q105.131 880.122 108.186 884.729 Q111.265 889.312 111.265 898.062 Q111.265 906.789 108.186 911.395 Q105.131 915.979 99.3204 915.979 Q93.5102 915.979 90.4315 911.395 Q87.376 906.789 87.376 898.062 Q87.376 889.312 90.4315 884.729 Q93.5102 880.122 99.3204 880.122 Z" fill="#000000" fill-rule="evenodd" fill-opacity="1" /><path clip-path="url(#clip900)" d="M119.482 909.428 L124.367 909.428 L124.367 915.307 L119.482 915.307 L119.482 909.428 Z" fill="#000000" fill-rule="evenodd" fill-opacity="1" /><path clip-path="url(#clip900)" d="M148.718 896.673 Q152.075 897.391 153.95 899.659 Q155.848 901.928 155.848 905.261 Q155.848 910.377 152.329 913.178 Q148.811 915.979 142.329 915.979 Q140.153 915.979 137.839 915.539 Q135.547 915.122 133.093 914.266 L133.093 909.752 Q135.038 910.886 137.353 911.465 Q139.667 912.043 142.191 912.043 Q146.589 912.043 148.88 910.307 Q151.195 908.571 151.195 905.261 Q151.195 902.206 149.042 900.493 Q146.913 898.756 143.093 898.756 L139.066 898.756 L139.066 894.914 L143.278 894.914 Q146.728 894.914 148.556 893.548 Q150.385 892.159 150.385 889.567 Q150.385 886.905 148.487 885.493 Q146.612 884.057 143.093 884.057 Q141.172 884.057 138.973 884.474 Q136.774 884.891 134.135 885.77 L134.135 881.604 Q136.797 880.863 139.112 880.493 Q141.45 880.122 143.51 880.122 Q148.834 880.122 151.936 882.553 Q155.038 884.96 155.038 889.081 Q155.038 891.951 153.394 893.942 Q151.751 895.909 148.718 896.673 Z" fill="#000000" fill-rule="evenodd" fill-opacity="1" /><path clip-path="url(#clip900)" d="M98.5102 540.474 Q94.8991 540.474 93.0704 544.039 Q91.2649 547.58 91.2649 554.71 Q91.2649 561.816 93.0704 565.381 Q94.8991 568.923 98.5102 568.923 Q102.144 568.923 103.95 565.381 Q105.779 561.816 105.779 554.71 Q105.779 547.58 103.95 544.039 Q102.144 540.474 98.5102 540.474 M98.5102 536.77 Q104.32 536.77 107.376 541.377 Q110.455 545.96 110.455 554.71 Q110.455 563.437 107.376 568.043 Q104.32 572.627 98.5102 572.627 Q92.7 572.627 89.6214 568.043 Q86.5658 563.437 86.5658 554.71 Q86.5658 545.96 89.6214 541.377 Q92.7 536.77 98.5102 536.77 Z" fill="#000000" fill-rule="evenodd" fill-opacity="1" /><path clip-path="url(#clip900)" d="M118.672 566.076 L123.556 566.076 L123.556 571.955 L118.672 571.955 L118.672 566.076 Z" fill="#000000" fill-rule="evenodd" fill-opacity="1" /><path clip-path="url(#clip900)" d="M144.32 552.812 Q141.172 552.812 139.32 554.965 Q137.491 557.117 137.491 560.867 Q137.491 564.594 139.32 566.77 Q141.172 568.923 144.32 568.923 Q147.468 568.923 149.297 566.77 Q151.149 564.594 151.149 560.867 Q151.149 557.117 149.297 554.965 Q147.468 552.812 144.32 552.812 M153.602 538.159 L153.602 542.418 Q151.843 541.585 150.038 541.145 Q148.255 540.705 146.496 540.705 Q141.866 540.705 139.413 543.83 Q136.982 546.955 136.635 553.275 Q138.001 551.261 140.061 550.196 Q142.121 549.108 144.598 549.108 Q149.806 549.108 152.815 552.279 Q155.848 555.428 155.848 560.867 Q155.848 566.191 152.7 569.409 Q149.552 572.627 144.32 572.627 Q138.325 572.627 135.154 568.043 Q131.982 563.437 131.982 554.71 Q131.982 546.516 135.871 541.654 Q139.76 536.77 146.311 536.77 Q148.07 536.77 149.853 537.117 Q151.658 537.465 153.602 538.159 Z" fill="#000000" fill-rule="evenodd" fill-opacity="1" /><path clip-path="url(#clip900)" d="M98.8574 197.122 Q95.2463 197.122 93.4176 200.687 Q91.6121 204.228 91.6121 211.358 Q91.6121 218.464 93.4176 222.029 Q95.2463 225.571 98.8574 225.571 Q102.492 225.571 104.297 222.029 Q106.126 218.464 106.126 211.358 Q106.126 204.228 104.297 200.687 Q102.492 197.122 98.8574 197.122 M98.8574 193.418 Q104.668 193.418 107.723 198.025 Q110.802 202.608 110.802 211.358 Q110.802 220.085 107.723 224.691 Q104.668 229.274 98.8574 229.274 Q93.0473 229.274 89.9686 224.691 Q86.913 220.085 86.913 211.358 Q86.913 202.608 89.9686 198.025 Q93.0473 193.418 98.8574 193.418 Z" fill="#000000" fill-rule="evenodd" fill-opacity="1" /><path clip-path="url(#clip900)" d="M119.019 222.724 L123.904 222.724 L123.904 228.603 L119.019 228.603 L119.019 222.724 Z" fill="#000000" fill-rule="evenodd" fill-opacity="1" /><path clip-path="url(#clip900)" d="M134.228 227.886 L134.228 223.626 Q135.987 224.46 137.792 224.899 Q139.598 225.339 141.334 225.339 Q145.964 225.339 148.394 222.237 Q150.848 219.112 151.195 212.77 Q149.853 214.761 147.792 215.825 Q145.732 216.89 143.232 216.89 Q138.047 216.89 135.015 213.765 Q132.005 210.617 132.005 205.177 Q132.005 199.853 135.154 196.636 Q138.302 193.418 143.533 193.418 Q149.528 193.418 152.677 198.025 Q155.848 202.608 155.848 211.358 Q155.848 219.529 151.959 224.413 Q148.093 229.274 141.542 229.274 Q139.783 229.274 137.978 228.927 Q136.172 228.58 134.228 227.886 M143.533 213.233 Q146.681 213.233 148.51 211.08 Q150.362 208.927 150.362 205.177 Q150.362 201.451 148.51 199.298 Q146.681 197.122 143.533 197.122 Q140.385 197.122 138.533 199.298 Q136.704 201.451 136.704 205.177 Q136.704 208.927 138.533 211.08 Q140.385 213.233 143.533 213.233 Z" fill="#000000" fill-rule="evenodd" fill-opacity="1" /><polyline clip-path="url(#clip902)" style="stroke:#009af9; stroke-linecap:butt; stroke-linejoin:round; stroke-width:4; stroke-opacity:1; fill:none" points="
  265.354,96.8724 270.985,97.384 276.615,98.9181 282.246,101.472 287.876,105.043 313.908,134.57 339.939,184.719 365.97,253.919 392.001,340.029 418.032,440.429 
  444.063,552.133 470.094,671.914 496.126,796.431 527.413,947.672 558.7,1095.48 589.987,1234.92 621.275,1361.83 647.728,1456.96 674.181,1539.41 700.634,1608.31 
  727.087,1663.31 755.822,1707.42 784.557,1735.93 813.293,1749.99 842.028,1751.15 868.519,1742.32 895.011,1725.54 921.502,1702.34 947.994,1674.25 1004.8,1604.01 
  1061.6,1529.7 1127.41,1449.7 1193.22,1383.28 1251.71,1337.65 1310.2,1304.01 1361.48,1282.93 1412.77,1268.11 1524.6,1250.6 1637.1,1244.13 1761.48,1242 
  1879.83,1241.51 2002.88,1241.4 2106.46,1241.38 2232.93,1241.38 2351.81,1241.38 2542.26,1241.38 2571.57,1241.38 
  "/>
<path clip-path="url(#clip900)" d="
M2235.22 209.375 L2559.27 209.375 L2559.27 105.695 L2235.22 105.695  Z
  " fill="#ffffff" fill-rule="evenodd" fill-opacity="1"/>
<polyline clip-path="url(#clip900)" style="stroke:#000000; stroke-linecap:butt; stroke-linejoin:round; stroke-width:4; stroke-opacity:1; fill:none" points="
  2235.22,209.375 2559.27,209.375 2559.27,105.695 2235.22,105.695 2235.22,209.375 
  "/>
<polyline clip-path="url(#clip900)" style="stroke:#009af9; stroke-linecap:butt; stroke-linejoin:round; stroke-width:4; stroke-opacity:1; fill:none" points="
  2262.38,157.535 2425.35,157.535 
  "/>
<path clip-path="url(#clip900)" d="M2466.36 177.223 Q2464.55 181.852 2462.84 183.264 Q2461.13 184.676 2458.26 184.676 L2454.85 184.676 L2454.85 181.112 L2457.35 181.112 Q2459.11 181.112 2460.08 180.278 Q2461.06 179.445 2462.24 176.343 L2463 174.399 L2452.52 148.889 L2457.03 148.889 L2465.13 169.167 L2473.23 148.889 L2477.75 148.889 L2466.36 177.223 Z" fill="#000000" fill-rule="evenodd" fill-opacity="1" /><path clip-path="url(#clip900)" d="M2485.04 170.88 L2492.68 170.88 L2492.68 144.515 L2484.37 146.181 L2484.37 141.922 L2492.63 140.255 L2497.31 140.255 L2497.31 170.88 L2504.95 170.88 L2504.95 174.815 L2485.04 174.815 L2485.04 170.88 Z" fill="#000000" fill-rule="evenodd" fill-opacity="1" /></svg>
