<?xml version="1.0" encoding="utf-8"?>
<svg xmlns="http://www.w3.org/2000/svg" xmlns:xlink="http://www.w3.org/1999/xlink" width="672" height="480" viewBox="0 0 2688 1920">
<defs>
  <clipPath id="clip980">
    <rect x="0" y="0" width="2688" height="1920"/>
  </clipPath>
</defs>
<path clip-path="url(#clip980)" d="
M0 1920 L2688 1920 L2688 0 L0 0  Z
  " fill="#ffffff" fill-rule="evenodd" fill-opacity="1"/>
<defs>
  <clipPath id="clip981">
    <rect x="537" y="0" width="1883" height="1883"/>
  </clipPath>
</defs>
<path clip-path="url(#clip980)" d="
M143.576 1800.78 L2640.76 1800.78 L2640.76 47.2441 L143.576 47.2441  Z
  " fill="#ffffff" fill-rule="evenodd" fill-opacity="1"/>
<defs>
  <clipPath id="clip982">
    <rect x="143" y="47" width="2498" height="1755"/>
  </clipPath>
</defs>
<polyline clip-path="url(#clip982)" style="stroke:#000000; stroke-linecap:butt; stroke-linejoin:round; stroke-width:2; stroke-opacity:0.1; fill:none" points="
  214.25,1800.78 214.25,47.2441 
  "/>
<polyline clip-path="url(#clip982)" style="stroke:#000000; stroke-linecap:butt; stroke-linejoin:round; stroke-width:2; stroke-opacity:0.1; fill:none" points="
  803.208,1800.78 803.208,47.2441 
  "/>
<polyline clip-path="url(#clip982)" style="stroke:#000000; stroke-linecap:butt; stroke-linejoin:round; stroke-width:2; stroke-opacity:0.1; fill:none" points="
  1392.17,1800.78 1392.17,47.2441 
  "/>
<polyline clip-path="url(#clip982)" style="stroke:#000000; stroke-linecap:butt; stroke-linejoin:round; stroke-width:2; stroke-opacity:0.1; fill:none" points="
  1981.12,1800.78 1981.12,47.2441 
  "/>
<polyline clip-path="url(#clip982)" style="stroke:#000000; stroke-linecap:butt; stroke-linejoin:round; stroke-width:2; stroke-opacity:0.1; fill:none" points="
  2570.08,1800.78 2570.08,47.2441 
  "/>
<polyline clip-path="url(#clip980)" style="stroke:#000000; stroke-linecap:butt; stroke-linejoin:round; stroke-width:4; stroke-opacity:1; fill:none" points="
  143.576,1800.78 2640.76,1800.78 
  "/>
<polyline clip-path="url(#clip980)" style="stroke:#000000; stroke-linecap:butt; stroke-linejoin:round; stroke-width:4; stroke-opacity:1; fill:none" points="
  214.25,1800.78 214.25,1781.88 
  "/>
<polyline clip-path="url(#clip980)" style="stroke:#000000; stroke-linecap:butt; stroke-linejoin:round; stroke-width:4; stroke-opacity:1; fill:none" points="
  803.208,1800.78 803.208,1781.88 
  "/>
<polyline clip-path="url(#clip980)" style="stroke:#000000; stroke-linecap:butt; stroke-linejoin:round; stroke-width:4; stroke-opacity:1; fill:none" points="
  1392.17,1800.78 1392.17,1781.88 
  "/>
<polyline clip-path="url(#clip980)" style="stroke:#000000; stroke-linecap:butt; stroke-linejoin:round; stroke-width:4; stroke-opacity:1; fill:none" points="
  1981.12,1800.78 1981.12,1781.88 
  "/>
<polyline clip-path="url(#clip980)" style="stroke:#000000; stroke-linecap:butt; stroke-linejoin:round; stroke-width:4; stroke-opacity:1; fill:none" points="
  2570.08,1800.78 2570.08,1781.88 
  "/>
<path clip-path="url(#clip980)" d="M191.635 1834 Q188.024 1834 186.195 1837.57 Q184.39 1841.11 184.39 1848.24 Q184.39 1855.34 186.195 1858.91 Q188.024 1862.45 191.635 1862.45 Q195.269 1862.45 197.075 1858.91 Q198.903 1855.34 198.903 1848.24 Q198.903 1841.11 197.075 1837.57 Q195.269 1834 191.635 1834 M191.635 1830.3 Q197.445 1830.3 200.501 1834.9 Q203.579 1839.49 203.579 1848.24 Q203.579 1856.96 200.501 1861.57 Q197.445 1866.15 191.635 1866.15 Q185.825 1866.15 182.746 1861.57 Q179.69 1856.96 179.69 1848.24 Q179.69 1839.49 182.746 1834.9 Q185.825 1830.3 191.635 1830.3 Z" fill="#000000" fill-rule="evenodd" fill-opacity="1" /><path clip-path="url(#clip980)" d="M211.797 1859.6 L216.681 1859.6 L216.681 1865.48 L211.797 1865.48 L211.797 1859.6 Z" fill="#000000" fill-rule="evenodd" fill-opacity="1" /><path clip-path="url(#clip980)" d="M236.866 1834 Q233.255 1834 231.426 1837.57 Q229.621 1841.11 229.621 1848.24 Q229.621 1855.34 231.426 1858.91 Q233.255 1862.45 236.866 1862.45 Q240.5 1862.45 242.306 1858.91 Q244.135 1855.34 244.135 1848.24 Q244.135 1841.11 242.306 1837.57 Q240.5 1834 236.866 1834 M236.866 1830.3 Q242.676 1830.3 245.732 1834.9 Q248.81 1839.49 248.81 1848.24 Q248.81 1856.96 245.732 1861.57 Q242.676 1866.15 236.866 1866.15 Q231.056 1866.15 227.977 1861.57 Q224.922 1856.96 224.922 1848.24 Q224.922 1839.49 227.977 1834.9 Q231.056 1830.3 236.866 1830.3 Z" fill="#000000" fill-rule="evenodd" fill-opacity="1" /><path clip-path="url(#clip980)" d="M774.944 1861.55 L791.264 1861.55 L791.264 1865.48 L769.319 1865.48 L769.319 1861.55 Q771.981 1858.79 776.565 1854.16 Q781.171 1849.51 782.352 1848.17 Q784.597 1845.65 785.477 1843.91 Q786.379 1842.15 786.379 1840.46 Q786.379 1837.71 784.435 1835.97 Q782.514 1834.23 779.412 1834.23 Q777.213 1834.23 774.759 1835 Q772.329 1835.76 769.551 1837.31 L769.551 1832.59 Q772.375 1831.46 774.829 1830.88 Q777.282 1830.3 779.319 1830.3 Q784.69 1830.3 787.884 1832.98 Q791.079 1835.67 791.079 1840.16 Q791.079 1842.29 790.268 1844.21 Q789.481 1846.11 787.375 1848.7 Q786.796 1849.37 783.694 1852.59 Q780.592 1855.78 774.944 1861.55 Z" fill="#000000" fill-rule="evenodd" fill-opacity="1" /><path clip-path="url(#clip980)" d="M801.078 1859.6 L805.963 1859.6 L805.963 1865.48 L801.078 1865.48 L801.078 1859.6 Z" fill="#000000" fill-rule="evenodd" fill-opacity="1" /><path clip-path="url(#clip980)" d="M816.194 1830.92 L834.551 1830.92 L834.551 1834.86 L820.477 1834.86 L820.477 1843.33 Q821.495 1842.98 822.514 1842.82 Q823.532 1842.64 824.551 1842.64 Q830.338 1842.64 833.717 1845.81 Q837.097 1848.98 837.097 1854.4 Q837.097 1859.97 833.625 1863.08 Q830.152 1866.15 823.833 1866.15 Q821.657 1866.15 819.389 1865.78 Q817.143 1865.41 814.736 1864.67 L814.736 1859.97 Q816.819 1861.11 819.041 1861.66 Q821.264 1862.22 823.74 1862.22 Q827.745 1862.22 830.083 1860.11 Q832.421 1858.01 832.421 1854.4 Q832.421 1850.78 830.083 1848.68 Q827.745 1846.57 823.74 1846.57 Q821.865 1846.57 819.99 1846.99 Q818.139 1847.4 816.194 1848.28 L816.194 1830.92 Z" fill="#000000" fill-rule="evenodd" fill-opacity="1" /><path clip-path="url(#clip980)" d="M1359.33 1830.92 L1377.69 1830.92 L1377.69 1834.86 L1363.61 1834.86 L1363.61 1843.33 Q1364.63 1842.98 1365.65 1842.82 Q1366.67 1842.64 1367.69 1842.64 Q1373.47 1842.64 1376.85 1845.81 Q1380.23 1848.98 1380.23 1854.4 Q1380.23 1859.97 1376.76 1863.08 Q1373.29 1866.15 1366.97 1866.15 Q1364.79 1866.15 1362.52 1865.78 Q1360.28 1865.41 1357.87 1864.67 L1357.87 1859.97 Q1359.96 1861.11 1362.18 1861.66 Q1364.4 1862.22 1366.88 1862.22 Q1370.88 1862.22 1373.22 1860.11 Q1375.56 1858.01 1375.56 1854.4 Q1375.56 1850.78 1373.22 1848.68 Q1370.88 1846.57 1366.88 1846.57 Q1365 1846.57 1363.13 1846.99 Q1361.27 1847.4 1359.33 1848.28 L1359.33 1830.92 Z" fill="#000000" fill-rule="evenodd" fill-opacity="1" /><path clip-path="url(#clip980)" d="M1389.45 1859.6 L1394.33 1859.6 L1394.33 1865.48 L1389.45 1865.48 L1389.45 1859.6 Z" fill="#000000" fill-rule="evenodd" fill-opacity="1" /><path clip-path="url(#clip980)" d="M1414.52 1834 Q1410.9 1834 1409.08 1837.57 Q1407.27 1841.11 1407.27 1848.24 Q1407.27 1855.34 1409.08 1858.91 Q1410.9 1862.45 1414.52 1862.45 Q1418.15 1862.45 1419.95 1858.91 Q1421.78 1855.34 1421.78 1848.24 Q1421.78 1841.11 1419.95 1837.57 Q1418.15 1834 1414.52 1834 M1414.52 1830.3 Q1420.33 1830.3 1423.38 1834.9 Q1426.46 1839.49 1426.46 1848.24 Q1426.46 1856.96 1423.38 1861.57 Q1420.33 1866.15 1414.52 1866.15 Q1408.7 1866.15 1405.63 1861.57 Q1402.57 1856.96 1402.57 1848.24 Q1402.57 1839.49 1405.63 1834.9 Q1408.7 1830.3 1414.52 1830.3 Z" fill="#000000" fill-rule="evenodd" fill-opacity="1" /><path clip-path="url(#clip980)" d="M1947.44 1830.92 L1969.67 1830.92 L1969.67 1832.91 L1957.12 1865.48 L1952.23 1865.48 L1964.04 1834.86 L1947.44 1834.86 L1947.44 1830.92 Z" fill="#000000" fill-rule="evenodd" fill-opacity="1" /><path clip-path="url(#clip980)" d="M1978.79 1859.6 L1983.67 1859.6 L1983.67 1865.48 L1978.79 1865.48 L1978.79 1859.6 Z" fill="#000000" fill-rule="evenodd" fill-opacity="1" /><path clip-path="url(#clip980)" d="M1993.9 1830.92 L2012.26 1830.92 L2012.26 1834.86 L1998.18 1834.86 L1998.18 1843.33 Q1999.2 1842.98 2000.22 1842.82 Q2001.24 1842.64 2002.26 1842.64 Q2008.04 1842.64 2011.42 1845.81 Q2014.8 1848.98 2014.8 1854.4 Q2014.8 1859.97 2011.33 1863.08 Q2007.86 1866.15 2001.54 1866.15 Q1999.36 1866.15 1997.1 1865.78 Q1994.85 1865.41 1992.44 1864.67 L1992.44 1859.97 Q1994.53 1861.11 1996.75 1861.66 Q1998.97 1862.22 2001.45 1862.22 Q2005.45 1862.22 2007.79 1860.11 Q2010.13 1858.01 2010.13 1854.4 Q2010.13 1850.78 2007.79 1848.68 Q2005.45 1846.57 2001.45 1846.57 Q1999.57 1846.57 1997.7 1846.99 Q1995.85 1847.4 1993.9 1848.28 L1993.9 1830.92 Z" fill="#000000" fill-rule="evenodd" fill-opacity="1" /><path clip-path="url(#clip980)" d="M2522.15 1861.55 L2529.79 1861.55 L2529.79 1835.18 L2521.48 1836.85 L2521.48 1832.59 L2529.75 1830.92 L2534.42 1830.92 L2534.42 1861.55 L2542.06 1861.55 L2542.06 1865.48 L2522.15 1865.48 L2522.15 1861.55 Z" fill="#000000" fill-rule="evenodd" fill-opacity="1" /><path clip-path="url(#clip980)" d="M2561.5 1834 Q2557.89 1834 2556.06 1837.57 Q2554.26 1841.11 2554.26 1848.24 Q2554.26 1855.34 2556.06 1858.91 Q2557.89 1862.45 2561.5 1862.45 Q2565.14 1862.45 2566.94 1858.91 Q2568.77 1855.34 2568.77 1848.24 Q2568.77 1841.11 2566.94 1837.57 Q2565.14 1834 2561.5 1834 M2561.5 1830.3 Q2567.31 1830.3 2570.37 1834.9 Q2573.45 1839.49 2573.45 1848.24 Q2573.45 1856.96 2570.37 1861.57 Q2567.31 1866.15 2561.5 1866.15 Q2555.69 1866.15 2552.62 1861.57 Q2549.56 1856.96 2549.56 1848.24 Q2549.56 1839.49 2552.62 1834.9 Q2555.69 1830.3 2561.5 1830.3 Z" fill="#000000" fill-rule="evenodd" fill-opacity="1" /><path clip-path="url(#clip980)" d="M2581.67 1859.6 L2586.55 1859.6 L2586.55 1865.48 L2581.67 1865.48 L2581.67 1859.6 Z" fill="#000000" fill-rule="evenodd" fill-opacity="1" /><path clip-path="url(#clip980)" d="M2606.74 1834 Q2603.12 1834 2601.3 1837.57 Q2599.49 1841.11 2599.49 1848.24 Q2599.49 1855.34 2601.3 1858.91 Q2603.12 1862.45 2606.74 1862.45 Q2610.37 1862.45 2612.18 1858.91 Q2614 1855.34 2614 1848.24 Q2614 1841.11 2612.18 1837.57 Q2610.37 1834 2606.74 1834 M2606.74 1830.3 Q2612.55 1830.3 2615.6 1834.9 Q2618.68 1839.49 2618.68 1848.24 Q2618.68 1856.96 2615.6 1861.57 Q2612.55 1866.15 2606.74 1866.15 Q2600.93 1866.15 2597.85 1861.57 Q2594.79 1856.96 2594.79 1848.24 Q2594.79 1839.49 2597.85 1834.9 Q2600.93 1830.3 2606.74 1830.3 Z" fill="#000000" fill-rule="evenodd" fill-opacity="1" /><polyline clip-path="url(#clip982)" style="stroke:#000000; stroke-linecap:butt; stroke-linejoin:round; stroke-width:2; stroke-opacity:0.1; fill:none" points="
  143.576,1751.15 2640.76,1751.15 
  "/>
<polyline clip-path="url(#clip982)" style="stroke:#000000; stroke-linecap:butt; stroke-linejoin:round; stroke-width:2; stroke-opacity:0.1; fill:none" points="
  143.576,1420.29 2640.76,1420.29 
  "/>
<polyline clip-path="url(#clip982)" style="stroke:#000000; stroke-linecap:butt; stroke-linejoin:round; stroke-width:2; stroke-opacity:0.1; fill:none" points="
  143.576,1089.42 2640.76,1089.42 
  "/>
<polyline clip-path="url(#clip982)" style="stroke:#000000; stroke-linecap:butt; stroke-linejoin:round; stroke-width:2; stroke-opacity:0.1; fill:none" points="
  143.576,758.56 2640.76,758.56 
  "/>
<polyline clip-path="url(#clip982)" style="stroke:#000000; stroke-linecap:butt; stroke-linejoin:round; stroke-width:2; stroke-opacity:0.1; fill:none" points="
  143.576,427.696 2640.76,427.696 
  "/>
<polyline clip-path="url(#clip982)" style="stroke:#000000; stroke-linecap:butt; stroke-linejoin:round; stroke-width:2; stroke-opacity:0.1; fill:none" points="
  143.576,96.8322 2640.76,96.8322 
  "/>
<polyline clip-path="url(#clip980)" style="stroke:#000000; stroke-linecap:butt; stroke-linejoin:round; stroke-width:4; stroke-opacity:1; fill:none" points="
  143.576,1800.78 143.576,47.2441 
  "/>
<polyline clip-path="url(#clip980)" style="stroke:#000000; stroke-linecap:butt; stroke-linejoin:round; stroke-width:4; stroke-opacity:1; fill:none" points="
  143.576,1751.15 162.473,1751.15 
  "/>
<polyline clip-path="url(#clip980)" style="stroke:#000000; stroke-linecap:butt; stroke-linejoin:round; stroke-width:4; stroke-opacity:1; fill:none" points="
  143.576,1420.29 162.473,1420.29 
  "/>
<polyline clip-path="url(#clip980)" style="stroke:#000000; stroke-linecap:butt; stroke-linejoin:round; stroke-width:4; stroke-opacity:1; fill:none" points="
  143.576,1089.42 162.473,1089.42 
  "/>
<polyline clip-path="url(#clip980)" style="stroke:#000000; stroke-linecap:butt; stroke-linejoin:round; stroke-width:4; stroke-opacity:1; fill:none" points="
  143.576,758.56 162.473,758.56 
  "/>
<polyline clip-path="url(#clip980)" style="stroke:#000000; stroke-linecap:butt; stroke-linejoin:round; stroke-width:4; stroke-opacity:1; fill:none" points="
  143.576,427.696 162.473,427.696 
  "/>
<polyline clip-path="url(#clip980)" style="stroke:#000000; stroke-linecap:butt; stroke-linejoin:round; stroke-width:4; stroke-opacity:1; fill:none" points="
  143.576,96.8322 162.473,96.8322 
  "/>
<path clip-path="url(#clip980)" d="M91.3112 1736.95 Q87.7001 1736.95 85.8714 1740.51 Q84.0658 1744.06 84.0658 1751.19 Q84.0658 1758.29 85.8714 1761.86 Q87.7001 1765.4 91.3112 1765.4 Q94.9454 1765.4 96.7509 1761.86 Q98.5796 1758.29 98.5796 1751.19 Q98.5796 1744.06 96.7509 1740.51 Q94.9454 1736.95 91.3112 1736.95 M91.3112 1733.25 Q97.1213 1733.25 100.177 1737.85 Q103.256 1742.44 103.256 1751.19 Q103.256 1759.91 100.177 1764.52 Q97.1213 1769.1 91.3112 1769.1 Q85.501 1769.1 82.4223 1764.52 Q79.3668 1759.91 79.3668 1751.19 Q79.3668 1742.44 82.4223 1737.85 Q85.501 1733.25 91.3112 1733.25 Z" fill="#000000" fill-rule="evenodd" fill-opacity="1" /><path clip-path="url(#clip980)" d="M82.3529 1403.01 L100.709 1403.01 L100.709 1406.94 L86.6353 1406.94 L86.6353 1415.41 Q87.6538 1415.07 88.6723 1414.91 Q89.6908 1414.72 90.7093 1414.72 Q96.4963 1414.72 99.8759 1417.89 Q103.256 1421.06 103.256 1426.48 Q103.256 1432.06 99.7833 1435.16 Q96.3111 1438.24 89.9917 1438.24 Q87.8158 1438.24 85.5473 1437.87 Q83.3019 1437.5 80.8946 1436.76 L80.8946 1432.06 Q82.9779 1433.19 85.2001 1433.75 Q87.4223 1434.3 89.8991 1434.3 Q93.9037 1434.3 96.2417 1432.2 Q98.5796 1430.09 98.5796 1426.48 Q98.5796 1422.87 96.2417 1420.76 Q93.9037 1418.66 89.8991 1418.66 Q88.0241 1418.66 86.1492 1419.07 Q84.2973 1419.49 82.3529 1420.37 L82.3529 1403.01 Z" fill="#000000" fill-rule="evenodd" fill-opacity="1" /><path clip-path="url(#clip980)" d="M51.9595 1102.77 L59.5984 1102.77 L59.5984 1076.4 L51.2882 1078.07 L51.2882 1073.81 L59.5521 1072.14 L64.228 1072.14 L64.228 1102.77 L71.8668 1102.77 L71.8668 1106.7 L51.9595 1106.7 L51.9595 1102.77 Z" fill="#000000" fill-rule="evenodd" fill-opacity="1" /><path clip-path="url(#clip980)" d="M91.3112 1075.22 Q87.7001 1075.22 85.8714 1078.79 Q84.0658 1082.33 84.0658 1089.46 Q84.0658 1096.56 85.8714 1100.13 Q87.7001 1103.67 91.3112 1103.67 Q94.9454 1103.67 96.7509 1100.13 Q98.5796 1096.56 98.5796 1089.46 Q98.5796 1082.33 96.7509 1078.79 Q94.9454 1075.22 91.3112 1075.22 M91.3112 1071.52 Q97.1213 1071.52 100.177 1076.12 Q103.256 1080.71 103.256 1089.46 Q103.256 1098.18 100.177 1102.79 Q97.1213 1107.37 91.3112 1107.37 Q85.501 1107.37 82.4223 1102.79 Q79.3668 1098.18 79.3668 1089.46 Q79.3668 1080.71 82.4223 1076.12 Q85.501 1071.52 91.3112 1071.52 Z" fill="#000000" fill-rule="evenodd" fill-opacity="1" /><path clip-path="url(#clip980)" d="M52.9549 771.905 L60.5937 771.905 L60.5937 745.539 L52.2836 747.206 L52.2836 742.946 L60.5474 741.28 L65.2233 741.28 L65.2233 771.905 L72.8622 771.905 L72.8622 775.84 L52.9549 775.84 L52.9549 771.905 Z" fill="#000000" fill-rule="evenodd" fill-opacity="1" /><path clip-path="url(#clip980)" d="M82.3529 741.28 L100.709 741.28 L100.709 745.215 L86.6353 745.215 L86.6353 753.687 Q87.6538 753.34 88.6723 753.178 Q89.6908 752.993 90.7093 752.993 Q96.4963 752.993 99.8759 756.164 Q103.256 759.335 103.256 764.752 Q103.256 770.33 99.7833 773.432 Q96.3111 776.511 89.9917 776.511 Q87.8158 776.511 85.5473 776.141 Q83.3019 775.77 80.8946 775.029 L80.8946 770.33 Q82.9779 771.465 85.2001 772.02 Q87.4223 772.576 89.8991 772.576 Q93.9037 772.576 96.2417 770.469 Q98.5796 768.363 98.5796 764.752 Q98.5796 761.141 96.2417 759.034 Q93.9037 756.928 89.8991 756.928 Q88.0241 756.928 86.1492 757.344 Q84.2973 757.761 82.3529 758.641 L82.3529 741.28 Z" fill="#000000" fill-rule="evenodd" fill-opacity="1" /><path clip-path="url(#clip980)" d="M55.1771 441.041 L71.4965 441.041 L71.4965 444.976 L49.5521 444.976 L49.5521 441.041 Q52.2141 438.286 56.7975 433.657 Q61.4039 429.004 62.5845 427.661 Q64.8298 425.138 65.7094 423.402 Q66.6122 421.643 66.6122 419.953 Q66.6122 417.198 64.6678 415.462 Q62.7465 413.726 59.6447 413.726 Q57.4456 413.726 54.9919 414.49 Q52.5614 415.254 49.7836 416.805 L49.7836 412.083 Q52.6077 410.948 55.0614 410.37 Q57.515 409.791 59.5521 409.791 Q64.9224 409.791 68.1168 412.476 Q71.3113 415.161 71.3113 419.652 Q71.3113 421.782 70.5011 423.703 Q69.7141 425.601 67.6076 428.194 Q67.0289 428.865 63.927 432.082 Q60.8252 435.277 55.1771 441.041 Z" fill="#000000" fill-rule="evenodd" fill-opacity="1" /><path clip-path="url(#clip980)" d="M91.3112 413.495 Q87.7001 413.495 85.8714 417.059 Q84.0658 420.601 84.0658 427.731 Q84.0658 434.837 85.8714 438.402 Q87.7001 441.944 91.3112 441.944 Q94.9454 441.944 96.7509 438.402 Q98.5796 434.837 98.5796 427.731 Q98.5796 420.601 96.7509 417.059 Q94.9454 413.495 91.3112 413.495 M91.3112 409.791 Q97.1213 409.791 100.177 414.397 Q103.256 418.981 103.256 427.731 Q103.256 436.457 100.177 441.064 Q97.1213 445.647 91.3112 445.647 Q85.501 445.647 82.4223 441.064 Q79.3668 436.457 79.3668 427.731 Q79.3668 418.981 82.4223 414.397 Q85.501 409.791 91.3112 409.791 Z" fill="#000000" fill-rule="evenodd" fill-opacity="1" /><path clip-path="url(#clip980)" d="M56.1725 110.177 L72.4918 110.177 L72.4918 114.112 L50.5475 114.112 L50.5475 110.177 Q53.2095 107.422 57.7928 102.793 Q62.3993 98.14 63.5798 96.7974 Q65.8252 94.2743 66.7048 92.5382 Q67.6076 90.7789 67.6076 89.0891 Q67.6076 86.3345 65.6632 84.5984 Q63.7419 82.8623 60.64 82.8623 Q58.441 82.8623 55.9873 83.6262 Q53.5567 84.3901 50.779 85.941 L50.779 81.2188 Q53.603 80.0846 56.0567 79.5059 Q58.5104 78.9272 60.5474 78.9272 Q65.9178 78.9272 69.1122 81.6123 Q72.3066 84.2975 72.3066 88.7882 Q72.3066 90.9178 71.4965 92.8391 Q70.7094 94.7373 68.6029 97.3298 Q68.0242 98.0011 64.9224 101.219 Q61.8206 104.413 56.1725 110.177 Z" fill="#000000" fill-rule="evenodd" fill-opacity="1" /><path clip-path="url(#clip980)" d="M82.3529 79.5522 L100.709 79.5522 L100.709 83.4873 L86.6353 83.4873 L86.6353 91.9595 Q87.6538 91.6123 88.6723 91.4502 Q89.6908 91.2651 90.7093 91.2651 Q96.4963 91.2651 99.8759 94.4363 Q103.256 97.6076 103.256 103.024 Q103.256 108.603 99.7833 111.705 Q96.3111 114.783 89.9917 114.783 Q87.8158 114.783 85.5473 114.413 Q83.3019 114.043 80.8946 113.302 L80.8946 108.603 Q82.9779 109.737 85.2001 110.293 Q87.4223 110.848 89.8991 110.848 Q93.9037 110.848 96.2417 108.742 Q98.5796 106.635 98.5796 103.024 Q98.5796 99.4132 96.2417 97.3067 Q93.9037 95.2002 89.8991 95.2002 Q88.0241 95.2002 86.1492 95.6169 Q84.2973 96.0335 82.3529 96.9132 L82.3529 79.5522 Z" fill="#000000" fill-rule="evenodd" fill-opacity="1" /><polyline clip-path="url(#clip982)" style="stroke:#009af9; stroke-linecap:butt; stroke-linejoin:round; stroke-width:4; stroke-opacity:1; fill:none" points="
  214.25,1751.15 225.754,1719 237.257,1687.16 343.622,1407.72 449.986,1155.25 513.907,1016.51 577.828,887.511 631.872,786.046 685.916,691.545 744.623,596.783 
  803.331,510.24 857.453,437.736 911.576,372.217 969.601,309.733 1027.63,255.277 1094.85,202.225 1162.08,159.951 1221.83,131.427 1281.57,111.415 1333.96,100.871 
  1386.35,96.8724 1443.47,99.9707 1500.59,110.849 1558.05,129.642 1615.51,156.308 1679.04,194.955 1742.57,243.225 1803.01,298.089 1863.46,361.665 1926.31,437.008 
  1989.16,521.771 2042.06,600.425 2094.97,685.754 2159.56,798.98 2224.15,922.155 2284.87,1047.01 2345.59,1180.67 2442.86,1413.11 2540.14,1668.12 2555.11,1709.37 
  2570.08,1751.15 
  "/>
<path clip-path="url(#clip980)" d="
M2227.62 209.375 L2557.52 209.375 L2557.52 105.695 L2227.62 105.695  Z
  " fill="#ffffff" fill-rule="evenodd" fill-opacity="1"/>
<polyline clip-path="url(#clip980)" style="stroke:#000000; stroke-linecap:butt; stroke-linejoin:round; stroke-width:4; stroke-opacity:1; fill:none" points="
  2227.62,209.375 2557.52,209.375 2557.52,105.695 2227.62,105.695 2227.62,209.375 
  "/>
<polyline clip-path="url(#clip980)" style="stroke:#009af9; stroke-linecap:butt; stroke-linejoin:round; stroke-width:4; stroke-opacity:1; fill:none" points="
  2255.37,157.535 2421.85,157.535 
  "/>
<path clip-path="url(#clip980)" d="M2463.44 177.223 Q2461.63 181.852 2459.92 183.264 Q2458.2 184.676 2455.33 184.676 L2451.93 184.676 L2451.93 181.112 L2454.43 181.112 Q2456.19 181.112 2457.16 180.278 Q2458.14 179.445 2459.32 176.343 L2460.08 174.399 L2449.59 148.889 L2454.11 148.889 L2462.21 169.167 L2470.31 148.889 L2474.82 148.889 L2463.44 177.223 Z" fill="#000000" fill-rule="evenodd" fill-opacity="1" /><path clip-path="url(#clip980)" d="M2482.12 170.88 L2489.76 170.88 L2489.76 144.515 L2481.45 146.181 L2481.45 141.922 L2489.71 140.255 L2494.38 140.255 L2494.38 170.88 L2502.02 170.88 L2502.02 174.815 L2482.12 174.815 L2482.12 170.88 Z" fill="#000000" fill-rule="evenodd" fill-opacity="1" /></svg>
