<?xml version="1.0" encoding="utf-8"?>
<svg xmlns="http://www.w3.org/2000/svg" xmlns:xlink="http://www.w3.org/1999/xlink" width="672" height="480" viewBox="0 0 2688 1920">
<defs>
  <clipPath id="clip400">
    <rect x="0" y="0" width="2688" height="1920"/>
  </clipPath>
</defs>
<path clip-path="url(#clip400)" d="
M0 1920 L2688 1920 L2688 0 L0 0  Z
  " fill="#ffffff" fill-rule="evenodd" fill-opacity="1"/>
<defs>
  <clipPath id="clip401">
    <rect x="537" y="0" width="1883" height="1883"/>
  </clipPath>
</defs>
<path clip-path="url(#clip400)" d="
M144.733 1800.78 L2640.76 1800.78 L2640.76 47.2441 L144.733 47.2441  Z
  " fill="#ffffff" fill-rule="evenodd" fill-opacity="1"/>
<defs>
  <clipPath id="clip402">
    <rect x="144" y="47" width="2497" height="1755"/>
  </clipPath>
</defs>
<polyline clip-path="url(#clip402)" style="stroke:#000000; stroke-linecap:butt; stroke-linejoin:round; stroke-width:2; stroke-opacity:0.1; fill:none" points="
  315.937,1800.78 315.937,47.2441 
  "/>
<polyline clip-path="url(#clip402)" style="stroke:#000000; stroke-linecap:butt; stroke-linejoin:round; stroke-width:2; stroke-opacity:0.1; fill:none" points="
  818.744,1800.78 818.744,47.2441 
  "/>
<polyline clip-path="url(#clip402)" style="stroke:#000000; stroke-linecap:butt; stroke-linejoin:round; stroke-width:2; stroke-opacity:0.1; fill:none" points="
  1321.55,1800.78 1321.55,47.2441 
  "/>
<polyline clip-path="url(#clip402)" style="stroke:#000000; stroke-linecap:butt; stroke-linejoin:round; stroke-width:2; stroke-opacity:0.1; fill:none" points="
  1824.36,1800.78 1824.36,47.2441 
  "/>
<polyline clip-path="url(#clip402)" style="stroke:#000000; stroke-linecap:butt; stroke-linejoin:round; stroke-width:2; stroke-opacity:0.1; fill:none" points="
  2327.16,1800.78 2327.16,47.2441 
  "/>
<polyline clip-path="url(#clip400)" style="stroke:#000000; stroke-linecap:butt; stroke-linejoin:round; stroke-width:4; stroke-opacity:1; fill:none" points="
  144.733,1800.78 2640.76,1800.78 
  "/>
<polyline clip-path="url(#clip400)" style="stroke:#000000; stroke-linecap:butt; stroke-linejoin:round; stroke-width:4; stroke-opacity:1; fill:none" points="
  315.937,1800.78 315.937,1781.88 
  "/>
<polyline clip-path="url(#clip400)" style="stroke:#000000; stroke-linecap:butt; stroke-linejoin:round; stroke-width:4; stroke-opacity:1; fill:none" points="
  818.744,1800.78 818.744,1781.88 
  "/>
<polyline clip-path="url(#clip400)" style="stroke:#000000; stroke-linecap:butt; stroke-linejoin:round; stroke-width:4; stroke-opacity:1; fill:none" points="
  1321.55,1800.78 1321.55,1781.88 
  "/>
<polyline clip-path="url(#clip400)" style="stroke:#000000; stroke-linecap:butt; stroke-linejoin:round; stroke-width:4; stroke-opacity:1; fill:none" points="
  1824.36,1800.78 1824.36,1781.88 
  "/>
<polyline clip-path="url(#clip400)" style="stroke:#000000; stroke-linecap:butt; stroke-linejoin:round; stroke-width:4; stroke-opacity:1; fill:none" points="
  2327.16,1800.78 2327.16,1781.88 
  "/>
<path clip-path="url(#clip400)" d="M278.738 1834 Q275.127 1834 273.298 1837.57 Q271.492 1841.11 271.492 1848.24 Q271.492 1855.34 273.298 1858.91 Q275.127 1862.45 278.738 1862.45 Q282.372 1862.45 284.177 1858.91 Q286.006 1855.34 286.006 1848.24 Q286.006 1841.11 284.177 1837.57 Q282.372 1834 278.738 1834 M278.738 1830.3 Q284.548 1830.3 287.603 1834.9 Q290.682 1839.49 290.682 1848.24 Q290.682 1856.96 287.603 1861.57 Q284.548 1866.15 278.738 1866.15 Q272.927 1866.15 269.849 1861.57 Q266.793 1856.96 266.793 1848.24 Q266.793 1839.49 269.849 1834.9 Q272.927 1830.3 278.738 1830.3 Z" fill="#000000" fill-rule="evenodd" fill-opacity="1" /><path clip-path="url(#clip400)" d="M298.9 1859.6 L303.784 1859.6 L303.784 1865.48 L298.9 1865.48 L298.9 1859.6 Z" fill="#000000" fill-rule="evenodd" fill-opacity="1" /><path clip-path="url(#clip400)" d="M317.997 1861.55 L334.316 1861.55 L334.316 1865.48 L312.372 1865.48 L312.372 1861.55 Q315.034 1858.79 319.617 1854.16 Q324.224 1849.51 325.404 1848.17 Q327.649 1845.65 328.529 1843.91 Q329.432 1842.15 329.432 1840.46 Q329.432 1837.71 327.487 1835.97 Q325.566 1834.23 322.464 1834.23 Q320.265 1834.23 317.812 1835 Q315.381 1835.76 312.603 1837.31 L312.603 1832.59 Q315.427 1831.46 317.881 1830.88 Q320.335 1830.3 322.372 1830.3 Q327.742 1830.3 330.936 1832.98 Q334.131 1835.67 334.131 1840.16 Q334.131 1842.29 333.321 1844.21 Q332.534 1846.11 330.427 1848.7 Q329.848 1849.37 326.747 1852.59 Q323.645 1855.78 317.997 1861.55 Z" fill="#000000" fill-rule="evenodd" fill-opacity="1" /><path clip-path="url(#clip400)" d="M344.177 1830.92 L362.533 1830.92 L362.533 1834.86 L348.459 1834.86 L348.459 1843.33 Q349.478 1842.98 350.497 1842.82 Q351.515 1842.64 352.534 1842.64 Q358.321 1842.64 361.7 1845.81 Q365.08 1848.98 365.08 1854.4 Q365.08 1859.97 361.608 1863.08 Q358.135 1866.15 351.816 1866.15 Q349.64 1866.15 347.372 1865.78 Q345.126 1865.41 342.719 1864.67 L342.719 1859.97 Q344.802 1861.11 347.024 1861.66 Q349.247 1862.22 351.723 1862.22 Q355.728 1862.22 358.066 1860.11 Q360.404 1858.01 360.404 1854.4 Q360.404 1850.78 358.066 1848.68 Q355.728 1846.57 351.723 1846.57 Q349.848 1846.57 347.973 1846.99 Q346.122 1847.4 344.177 1848.28 L344.177 1830.92 Z" fill="#000000" fill-rule="evenodd" fill-opacity="1" /><path clip-path="url(#clip400)" d="M781.047 1834 Q777.436 1834 775.607 1837.57 Q773.802 1841.11 773.802 1848.24 Q773.802 1855.34 775.607 1858.91 Q777.436 1862.45 781.047 1862.45 Q784.681 1862.45 786.487 1858.91 Q788.315 1855.34 788.315 1848.24 Q788.315 1841.11 786.487 1837.57 Q784.681 1834 781.047 1834 M781.047 1830.3 Q786.857 1830.3 789.913 1834.9 Q792.991 1839.49 792.991 1848.24 Q792.991 1856.96 789.913 1861.57 Q786.857 1866.15 781.047 1866.15 Q775.237 1866.15 772.158 1861.57 Q769.103 1856.96 769.103 1848.24 Q769.103 1839.49 772.158 1834.9 Q775.237 1830.3 781.047 1830.3 Z" fill="#000000" fill-rule="evenodd" fill-opacity="1" /><path clip-path="url(#clip400)" d="M801.209 1859.6 L806.093 1859.6 L806.093 1865.48 L801.209 1865.48 L801.209 1859.6 Z" fill="#000000" fill-rule="evenodd" fill-opacity="1" /><path clip-path="url(#clip400)" d="M816.325 1830.92 L834.681 1830.92 L834.681 1834.86 L820.607 1834.86 L820.607 1843.33 Q821.626 1842.98 822.644 1842.82 Q823.663 1842.64 824.681 1842.64 Q830.468 1842.64 833.848 1845.81 Q837.227 1848.98 837.227 1854.4 Q837.227 1859.97 833.755 1863.08 Q830.283 1866.15 823.963 1866.15 Q821.788 1866.15 819.519 1865.78 Q817.274 1865.41 814.866 1864.67 L814.866 1859.97 Q816.95 1861.11 819.172 1861.66 Q821.394 1862.22 823.871 1862.22 Q827.875 1862.22 830.213 1860.11 Q832.551 1858.01 832.551 1854.4 Q832.551 1850.78 830.213 1848.68 Q827.875 1846.57 823.871 1846.57 Q821.996 1846.57 820.121 1846.99 Q818.269 1847.4 816.325 1848.28 L816.325 1830.92 Z" fill="#000000" fill-rule="evenodd" fill-opacity="1" /><path clip-path="url(#clip400)" d="M856.44 1834 Q852.829 1834 851 1837.57 Q849.195 1841.11 849.195 1848.24 Q849.195 1855.34 851 1858.91 Q852.829 1862.45 856.44 1862.45 Q860.074 1862.45 861.88 1858.91 Q863.709 1855.34 863.709 1848.24 Q863.709 1841.11 861.88 1837.57 Q860.074 1834 856.44 1834 M856.44 1830.3 Q862.25 1830.3 865.306 1834.9 Q868.385 1839.49 868.385 1848.24 Q868.385 1856.96 865.306 1861.57 Q862.25 1866.15 856.44 1866.15 Q850.63 1866.15 847.551 1861.57 Q844.496 1856.96 844.496 1848.24 Q844.496 1839.49 847.551 1834.9 Q850.63 1830.3 856.44 1830.3 Z" fill="#000000" fill-rule="evenodd" fill-opacity="1" /><path clip-path="url(#clip400)" d="M1284.35 1834 Q1280.74 1834 1278.91 1837.57 Q1277.11 1841.11 1277.11 1848.24 Q1277.11 1855.34 1278.91 1858.91 Q1280.74 1862.45 1284.35 1862.45 Q1287.99 1862.45 1289.79 1858.91 Q1291.62 1855.34 1291.62 1848.24 Q1291.62 1841.11 1289.79 1837.57 Q1287.99 1834 1284.35 1834 M1284.35 1830.3 Q1290.16 1830.3 1293.22 1834.9 Q1296.3 1839.49 1296.3 1848.24 Q1296.3 1856.96 1293.22 1861.57 Q1290.16 1866.15 1284.35 1866.15 Q1278.54 1866.15 1275.46 1861.57 Q1272.41 1856.96 1272.41 1848.24 Q1272.41 1839.49 1275.46 1834.9 Q1278.54 1830.3 1284.35 1830.3 Z" fill="#000000" fill-rule="evenodd" fill-opacity="1" /><path clip-path="url(#clip400)" d="M1304.51 1859.6 L1309.4 1859.6 L1309.4 1865.48 L1304.51 1865.48 L1304.51 1859.6 Z" fill="#000000" fill-rule="evenodd" fill-opacity="1" /><path clip-path="url(#clip400)" d="M1318.4 1830.92 L1340.62 1830.92 L1340.62 1832.91 L1328.08 1865.48 L1323.19 1865.48 L1335 1834.86 L1318.4 1834.86 L1318.4 1830.92 Z" fill="#000000" fill-rule="evenodd" fill-opacity="1" /><path clip-path="url(#clip400)" d="M1349.79 1830.92 L1368.15 1830.92 L1368.15 1834.86 L1354.07 1834.86 L1354.07 1843.33 Q1355.09 1842.98 1356.11 1842.82 Q1357.13 1842.64 1358.15 1842.64 Q1363.93 1842.64 1367.31 1845.81 Q1370.69 1848.98 1370.69 1854.4 Q1370.69 1859.97 1367.22 1863.08 Q1363.75 1866.15 1357.43 1866.15 Q1355.25 1866.15 1352.99 1865.78 Q1350.74 1865.41 1348.33 1864.67 L1348.33 1859.97 Q1350.42 1861.11 1352.64 1861.66 Q1354.86 1862.22 1357.34 1862.22 Q1361.34 1862.22 1363.68 1860.11 Q1366.02 1858.01 1366.02 1854.4 Q1366.02 1850.78 1363.68 1848.68 Q1361.34 1846.57 1357.34 1846.57 Q1355.46 1846.57 1353.59 1846.99 Q1351.74 1847.4 1349.79 1848.28 L1349.79 1830.92 Z" fill="#000000" fill-rule="evenodd" fill-opacity="1" /><path clip-path="url(#clip400)" d="M1776.43 1861.55 L1784.07 1861.55 L1784.07 1835.18 L1775.76 1836.85 L1775.76 1832.59 L1784.02 1830.92 L1788.7 1830.92 L1788.7 1861.55 L1796.34 1861.55 L1796.34 1865.48 L1776.43 1865.48 L1776.43 1861.55 Z" fill="#000000" fill-rule="evenodd" fill-opacity="1" /><path clip-path="url(#clip400)" d="M1805.78 1859.6 L1810.67 1859.6 L1810.67 1865.48 L1805.78 1865.48 L1805.78 1859.6 Z" fill="#000000" fill-rule="evenodd" fill-opacity="1" /><path clip-path="url(#clip400)" d="M1830.85 1834 Q1827.24 1834 1825.41 1837.57 Q1823.61 1841.11 1823.61 1848.24 Q1823.61 1855.34 1825.41 1858.91 Q1827.24 1862.45 1830.85 1862.45 Q1834.48 1862.45 1836.29 1858.91 Q1838.12 1855.34 1838.12 1848.24 Q1838.12 1841.11 1836.29 1837.57 Q1834.48 1834 1830.85 1834 M1830.85 1830.3 Q1836.66 1830.3 1839.72 1834.9 Q1842.8 1839.49 1842.8 1848.24 Q1842.8 1856.96 1839.72 1861.57 Q1836.66 1866.15 1830.85 1866.15 Q1825.04 1866.15 1821.96 1861.57 Q1818.91 1856.96 1818.91 1848.24 Q1818.91 1839.49 1821.96 1834.9 Q1825.04 1830.3 1830.85 1830.3 Z" fill="#000000" fill-rule="evenodd" fill-opacity="1" /><path clip-path="url(#clip400)" d="M1861.01 1834 Q1857.4 1834 1855.57 1837.57 Q1853.77 1841.11 1853.77 1848.24 Q1853.77 1855.34 1855.57 1858.91 Q1857.4 1862.45 1861.01 1862.45 Q1864.65 1862.45 1866.45 1858.91 Q1868.28 1855.34 1868.28 1848.24 Q1868.28 1841.11 1866.45 1837.57 Q1864.65 1834 1861.01 1834 M1861.01 1830.3 Q1866.82 1830.3 1869.88 1834.9 Q1872.96 1839.49 1872.96 1848.24 Q1872.96 1856.96 1869.88 1861.57 Q1866.82 1866.15 1861.01 1866.15 Q1855.2 1866.15 1852.12 1861.57 Q1849.07 1856.96 1849.07 1848.24 Q1849.07 1839.49 1852.12 1834.9 Q1855.2 1830.3 1861.01 1830.3 Z" fill="#000000" fill-rule="evenodd" fill-opacity="1" /><path clip-path="url(#clip400)" d="M2279.73 1861.55 L2287.37 1861.55 L2287.37 1835.18 L2279.06 1836.85 L2279.06 1832.59 L2287.33 1830.92 L2292 1830.92 L2292 1861.55 L2299.64 1861.55 L2299.64 1865.48 L2279.73 1865.48 L2279.73 1861.55 Z" fill="#000000" fill-rule="evenodd" fill-opacity="1" /><path clip-path="url(#clip400)" d="M2309.09 1859.6 L2313.97 1859.6 L2313.97 1865.48 L2309.09 1865.48 L2309.09 1859.6 Z" fill="#000000" fill-rule="evenodd" fill-opacity="1" /><path clip-path="url(#clip400)" d="M2328.18 1861.55 L2344.5 1861.55 L2344.5 1865.48 L2322.56 1865.48 L2322.56 1861.55 Q2325.22 1858.79 2329.8 1854.16 Q2334.41 1849.51 2335.59 1848.17 Q2337.84 1845.65 2338.72 1843.91 Q2339.62 1842.15 2339.62 1840.46 Q2339.62 1837.71 2337.67 1835.97 Q2335.75 1834.23 2332.65 1834.23 Q2330.45 1834.23 2328 1835 Q2325.57 1835.76 2322.79 1837.31 L2322.79 1832.59 Q2325.61 1831.46 2328.07 1830.88 Q2330.52 1830.3 2332.56 1830.3 Q2337.93 1830.3 2341.12 1832.98 Q2344.32 1835.67 2344.32 1840.16 Q2344.32 1842.29 2343.51 1844.21 Q2342.72 1846.11 2340.61 1848.7 Q2340.04 1849.37 2336.93 1852.59 Q2333.83 1855.78 2328.18 1861.55 Z" fill="#000000" fill-rule="evenodd" fill-opacity="1" /><path clip-path="url(#clip400)" d="M2354.36 1830.92 L2372.72 1830.92 L2372.72 1834.86 L2358.65 1834.86 L2358.65 1843.33 Q2359.66 1842.98 2360.68 1842.82 Q2361.7 1842.64 2362.72 1842.64 Q2368.51 1842.64 2371.89 1845.81 Q2375.27 1848.98 2375.27 1854.4 Q2375.27 1859.97 2371.79 1863.08 Q2368.32 1866.15 2362 1866.15 Q2359.83 1866.15 2357.56 1865.78 Q2355.31 1865.41 2352.91 1864.67 L2352.91 1859.97 Q2354.99 1861.11 2357.21 1861.66 Q2359.43 1862.22 2361.91 1862.22 Q2365.91 1862.22 2368.25 1860.11 Q2370.59 1858.01 2370.59 1854.4 Q2370.59 1850.78 2368.25 1848.68 Q2365.91 1846.57 2361.91 1846.57 Q2360.03 1846.57 2358.16 1846.99 Q2356.31 1847.4 2354.36 1848.28 L2354.36 1830.92 Z" fill="#000000" fill-rule="evenodd" fill-opacity="1" /><polyline clip-path="url(#clip402)" style="stroke:#000000; stroke-linecap:butt; stroke-linejoin:round; stroke-width:2; stroke-opacity:0.1; fill:none" points="
  144.733,1643.57 2640.76,1643.57 
  "/>
<polyline clip-path="url(#clip402)" style="stroke:#000000; stroke-linecap:butt; stroke-linejoin:round; stroke-width:2; stroke-opacity:0.1; fill:none" points="
  144.733,1338.74 2640.76,1338.74 
  "/>
<polyline clip-path="url(#clip402)" style="stroke:#000000; stroke-linecap:butt; stroke-linejoin:round; stroke-width:2; stroke-opacity:0.1; fill:none" points="
  144.733,1033.9 2640.76,1033.9 
  "/>
<polyline clip-path="url(#clip402)" style="stroke:#000000; stroke-linecap:butt; stroke-linejoin:round; stroke-width:2; stroke-opacity:0.1; fill:none" points="
  144.733,729.071 2640.76,729.071 
  "/>
<polyline clip-path="url(#clip402)" style="stroke:#000000; stroke-linecap:butt; stroke-linejoin:round; stroke-width:2; stroke-opacity:0.1; fill:none" points="
  144.733,424.239 2640.76,424.239 
  "/>
<polyline clip-path="url(#clip402)" style="stroke:#000000; stroke-linecap:butt; stroke-linejoin:round; stroke-width:2; stroke-opacity:0.1; fill:none" points="
  144.733,119.406 2640.76,119.406 
  "/>
<polyline clip-path="url(#clip400)" style="stroke:#000000; stroke-linecap:butt; stroke-linejoin:round; stroke-width:4; stroke-opacity:1; fill:none" points="
  144.733,1800.78 144.733,47.2441 
  "/>
<polyline clip-path="url(#clip400)" style="stroke:#000000; stroke-linecap:butt; stroke-linejoin:round; stroke-width:4; stroke-opacity:1; fill:none" points="
  144.733,1643.57 163.631,1643.57 
  "/>
<polyline clip-path="url(#clip400)" style="stroke:#000000; stroke-linecap:butt; stroke-linejoin:round; stroke-width:4; stroke-opacity:1; fill:none" points="
  144.733,1338.74 163.631,1338.74 
  "/>
<polyline clip-path="url(#clip400)" style="stroke:#000000; stroke-linecap:butt; stroke-linejoin:round; stroke-width:4; stroke-opacity:1; fill:none" points="
  144.733,1033.9 163.631,1033.9 
  "/>
<polyline clip-path="url(#clip400)" style="stroke:#000000; stroke-linecap:butt; stroke-linejoin:round; stroke-width:4; stroke-opacity:1; fill:none" points="
  144.733,729.071 163.631,729.071 
  "/>
<polyline clip-path="url(#clip400)" style="stroke:#000000; stroke-linecap:butt; stroke-linejoin:round; stroke-width:4; stroke-opacity:1; fill:none" points="
  144.733,424.239 163.631,424.239 
  "/>
<polyline clip-path="url(#clip400)" style="stroke:#000000; stroke-linecap:butt; stroke-linejoin:round; stroke-width:4; stroke-opacity:1; fill:none" points="
  144.733,119.406 163.631,119.406 
  "/>
<path clip-path="url(#clip400)" d="M56.3345 1656.91 L72.6539 1656.91 L72.6539 1660.85 L50.7095 1660.85 L50.7095 1656.91 Q53.3715 1654.16 57.9549 1649.53 Q62.5613 1644.88 63.7419 1643.53 Q65.9872 1641.01 66.8668 1639.27 Q67.7696 1637.52 67.7696 1635.83 Q67.7696 1633.07 65.8252 1631.33 Q63.9039 1629.6 60.8021 1629.6 Q58.603 1629.6 56.1493 1630.36 Q53.7188 1631.13 50.941 1632.68 L50.941 1627.96 Q53.7651 1626.82 56.2188 1626.24 Q58.6724 1625.66 60.7095 1625.66 Q66.0798 1625.66 69.2742 1628.35 Q72.4687 1631.03 72.4687 1635.52 Q72.4687 1637.65 71.6585 1639.58 Q70.8715 1641.47 68.765 1644.07 Q68.1863 1644.74 65.0845 1647.95 Q61.9826 1651.15 56.3345 1656.91 Z" fill="#000000" fill-rule="evenodd" fill-opacity="1" /><path clip-path="url(#clip400)" d="M92.4686 1629.37 Q88.8575 1629.37 87.0288 1632.93 Q85.2232 1636.47 85.2232 1643.6 Q85.2232 1650.71 87.0288 1654.27 Q88.8575 1657.82 92.4686 1657.82 Q96.1028 1657.82 97.9083 1654.27 Q99.737 1650.71 99.737 1643.6 Q99.737 1636.47 97.9083 1632.93 Q96.1028 1629.37 92.4686 1629.37 M92.4686 1625.66 Q98.2787 1625.66 101.334 1630.27 Q104.413 1634.85 104.413 1643.6 Q104.413 1652.33 101.334 1656.94 Q98.2787 1661.52 92.4686 1661.52 Q86.6584 1661.52 83.5797 1656.94 Q80.5242 1652.33 80.5242 1643.6 Q80.5242 1634.85 83.5797 1630.27 Q86.6584 1625.66 92.4686 1625.66 Z" fill="#000000" fill-rule="evenodd" fill-opacity="1" /><path clip-path="url(#clip400)" d="M57.3299 1352.08 L73.6492 1352.08 L73.6492 1356.02 L51.7049 1356.02 L51.7049 1352.08 Q54.3669 1349.33 58.9502 1344.7 Q63.5567 1340.04 64.7372 1338.7 Q66.9826 1336.18 67.8622 1334.44 Q68.765 1332.68 68.765 1330.99 Q68.765 1328.24 66.8206 1326.5 Q64.8993 1324.77 61.7974 1324.77 Q59.5984 1324.77 57.1447 1325.53 Q54.7141 1326.29 51.9364 1327.84 L51.9364 1323.12 Q54.7604 1321.99 57.2141 1321.41 Q59.6678 1320.83 61.7048 1320.83 Q67.0752 1320.83 70.2696 1323.52 Q73.464 1326.2 73.464 1330.69 Q73.464 1332.82 72.6539 1334.74 Q71.8668 1336.64 69.7604 1339.23 Q69.1817 1339.9 66.0798 1343.12 Q62.978 1346.32 57.3299 1352.08 Z" fill="#000000" fill-rule="evenodd" fill-opacity="1" /><path clip-path="url(#clip400)" d="M83.5103 1321.46 L101.867 1321.46 L101.867 1325.39 L87.7927 1325.39 L87.7927 1333.86 Q88.8112 1333.52 89.8297 1333.35 Q90.8482 1333.17 91.8667 1333.17 Q97.6537 1333.17 101.033 1336.34 Q104.413 1339.51 104.413 1344.93 Q104.413 1350.51 100.941 1353.61 Q97.4685 1356.69 91.1491 1356.69 Q88.9732 1356.69 86.7047 1356.32 Q84.4593 1355.95 82.052 1355.21 L82.052 1350.51 Q84.1353 1351.64 86.3575 1352.2 Q88.5797 1352.75 91.0565 1352.75 Q95.0611 1352.75 97.3991 1350.65 Q99.737 1348.54 99.737 1344.93 Q99.737 1341.32 97.3991 1339.21 Q95.0611 1337.1 91.0565 1337.1 Q89.1815 1337.1 87.3066 1337.52 Q85.4547 1337.94 83.5103 1338.82 L83.5103 1321.46 Z" fill="#000000" fill-rule="evenodd" fill-opacity="1" /><path clip-path="url(#clip400)" d="M66.4733 1032.55 Q69.8298 1033.27 71.7048 1035.54 Q73.6029 1037.8 73.6029 1041.14 Q73.6029 1046.25 70.0844 1049.05 Q66.5659 1051.85 60.0845 1051.85 Q57.9086 1051.85 55.5938 1051.42 Q53.3021 1051 50.8484 1050.14 L50.8484 1045.63 Q52.7928 1046.76 55.1077 1047.34 Q57.4225 1047.92 59.9456 1047.92 Q64.3437 1047.92 66.6354 1046.18 Q68.9502 1044.45 68.9502 1041.14 Q68.9502 1038.08 66.7974 1036.37 Q64.6678 1034.63 60.8484 1034.63 L56.8206 1034.63 L56.8206 1030.79 L61.0335 1030.79 Q64.4826 1030.79 66.3113 1029.42 Q68.14 1028.04 68.14 1025.44 Q68.14 1022.78 66.2419 1021.37 Q64.3669 1019.93 60.8484 1019.93 Q58.9271 1019.93 56.728 1020.35 Q54.529 1020.77 51.8901 1021.65 L51.8901 1017.48 Q54.5521 1016.74 56.8669 1016.37 Q59.2049 1016 61.265 1016 Q66.5891 1016 69.6909 1018.43 Q72.7927 1020.84 72.7927 1024.96 Q72.7927 1027.83 71.1492 1029.82 Q69.5057 1031.79 66.4733 1032.55 Z" fill="#000000" fill-rule="evenodd" fill-opacity="1" /><path clip-path="url(#clip400)" d="M92.4686 1019.7 Q88.8575 1019.7 87.0288 1023.27 Q85.2232 1026.81 85.2232 1033.94 Q85.2232 1041.04 87.0288 1044.61 Q88.8575 1048.15 92.4686 1048.15 Q96.1028 1048.15 97.9083 1044.61 Q99.737 1041.04 99.737 1033.94 Q99.737 1026.81 97.9083 1023.27 Q96.1028 1019.7 92.4686 1019.7 M92.4686 1016 Q98.2787 1016 101.334 1020.6 Q104.413 1025.19 104.413 1033.94 Q104.413 1042.67 101.334 1047.27 Q98.2787 1051.85 92.4686 1051.85 Q86.6584 1051.85 83.5797 1047.27 Q80.5242 1042.67 80.5242 1033.94 Q80.5242 1025.19 83.5797 1020.6 Q86.6584 1016 92.4686 1016 Z" fill="#000000" fill-rule="evenodd" fill-opacity="1" /><path clip-path="url(#clip400)" d="M67.4687 727.717 Q70.8252 728.435 72.7002 730.703 Q74.5983 732.972 74.5983 736.305 Q74.5983 741.421 71.0798 744.222 Q67.5613 747.022 61.0798 747.022 Q58.9039 747.022 56.5891 746.583 Q54.2975 746.166 51.8438 745.309 L51.8438 740.796 Q53.7882 741.93 56.103 742.509 Q58.4178 743.087 60.941 743.087 Q65.3391 743.087 67.6307 741.351 Q69.9455 739.615 69.9455 736.305 Q69.9455 733.249 67.7928 731.536 Q65.6632 729.8 61.8437 729.8 L57.816 729.8 L57.816 725.958 L62.0289 725.958 Q65.478 725.958 67.3067 724.592 Q69.1354 723.203 69.1354 720.611 Q69.1354 717.948 67.2372 716.536 Q65.3622 715.101 61.8437 715.101 Q59.9224 715.101 57.7234 715.518 Q55.5243 715.935 52.8854 716.814 L52.8854 712.648 Q55.5475 711.907 57.8623 711.536 Q60.2002 711.166 62.2604 711.166 Q67.5844 711.166 70.6863 713.597 Q73.7881 716.004 73.7881 720.124 Q73.7881 722.995 72.1446 724.985 Q70.5011 726.953 67.4687 727.717 Z" fill="#000000" fill-rule="evenodd" fill-opacity="1" /><path clip-path="url(#clip400)" d="M83.5103 711.791 L101.867 711.791 L101.867 715.726 L87.7927 715.726 L87.7927 724.198 Q88.8112 723.851 89.8297 723.689 Q90.8482 723.504 91.8667 723.504 Q97.6537 723.504 101.033 726.675 Q104.413 729.847 104.413 735.263 Q104.413 740.842 100.941 743.944 Q97.4685 747.022 91.1491 747.022 Q88.9732 747.022 86.7047 746.652 Q84.4593 746.282 82.052 745.541 L82.052 740.842 Q84.1353 741.976 86.3575 742.532 Q88.5797 743.087 91.0565 743.087 Q95.0611 743.087 97.3991 740.981 Q99.737 738.874 99.737 735.263 Q99.737 731.652 97.3991 729.546 Q95.0611 727.439 91.0565 727.439 Q89.1815 727.439 87.3066 727.856 Q85.4547 728.273 83.5103 729.152 L83.5103 711.791 Z" fill="#000000" fill-rule="evenodd" fill-opacity="1" /><path clip-path="url(#clip400)" d="M65.1539 411.033 L53.3484 429.482 L65.1539 429.482 L65.1539 411.033 M63.927 406.959 L69.8066 406.959 L69.8066 429.482 L74.7372 429.482 L74.7372 433.371 L69.8066 433.371 L69.8066 441.519 L65.1539 441.519 L65.1539 433.371 L49.5521 433.371 L49.5521 428.857 L63.927 406.959 Z" fill="#000000" fill-rule="evenodd" fill-opacity="1" /><path clip-path="url(#clip400)" d="M92.4686 410.037 Q88.8575 410.037 87.0288 413.602 Q85.2232 417.144 85.2232 424.273 Q85.2232 431.38 87.0288 434.945 Q88.8575 438.486 92.4686 438.486 Q96.1028 438.486 97.9083 434.945 Q99.737 431.38 99.737 424.273 Q99.737 417.144 97.9083 413.602 Q96.1028 410.037 92.4686 410.037 M92.4686 406.334 Q98.2787 406.334 101.334 410.94 Q104.413 415.523 104.413 424.273 Q104.413 433 101.334 437.607 Q98.2787 442.19 92.4686 442.19 Q86.6584 442.19 83.5797 437.607 Q80.5242 433 80.5242 424.273 Q80.5242 415.523 83.5797 410.94 Q86.6584 406.334 92.4686 406.334 Z" fill="#000000" fill-rule="evenodd" fill-opacity="1" /><path clip-path="url(#clip400)" d="M66.1493 106.2 L54.3438 124.649 L66.1493 124.649 L66.1493 106.2 M64.9224 102.126 L70.802 102.126 L70.802 124.649 L75.7325 124.649 L75.7325 128.538 L70.802 128.538 L70.802 136.686 L66.1493 136.686 L66.1493 128.538 L50.5475 128.538 L50.5475 124.024 L64.9224 102.126 Z" fill="#000000" fill-rule="evenodd" fill-opacity="1" /><path clip-path="url(#clip400)" d="M83.5103 102.126 L101.867 102.126 L101.867 106.061 L87.7927 106.061 L87.7927 114.534 Q88.8112 114.186 89.8297 114.024 Q90.8482 113.839 91.8667 113.839 Q97.6537 113.839 101.033 117.01 Q104.413 120.182 104.413 125.598 Q104.413 131.177 100.941 134.279 Q97.4685 137.358 91.1491 137.358 Q88.9732 137.358 86.7047 136.987 Q84.4593 136.617 82.052 135.876 L82.052 131.177 Q84.1353 132.311 86.3575 132.867 Q88.5797 133.422 91.0565 133.422 Q95.0611 133.422 97.3991 131.316 Q99.737 129.209 99.737 125.598 Q99.737 121.987 97.3991 119.881 Q95.0611 117.774 91.0565 117.774 Q89.1815 117.774 87.3066 118.191 Q85.4547 118.608 83.5103 119.487 L83.5103 102.126 Z" fill="#000000" fill-rule="evenodd" fill-opacity="1" /><polyline clip-path="url(#clip402)" style="stroke:#009af9; stroke-linecap:butt; stroke-linejoin:round; stroke-width:4; stroke-opacity:1; fill:none" points="
  215.375,96.8724 221.124,130.818 226.873,163.806 232.622,195.875 238.371,227.062 264.95,360.755 291.529,479.307 318.108,585.097 344.686,680.031 371.265,765.647 
  397.844,843.207 424.423,913.751 451.002,978.146 482.947,1048.43 514.893,1111.93 546.839,1169.51 578.784,1221.9 632.803,1300.34 686.822,1368 745.502,1431.36 
  804.182,1485.89 858.28,1529.53 912.378,1567.68 1028.37,1633.99 1162.77,1689.29 1282.2,1722.64 1386.93,1741.28 1501.12,1751.15 1615.98,1750.29 1742.98,1736.16 
  1863.82,1708.3 1989.46,1661.21 2095.22,1603.18 2159.78,1557.04 2224.35,1500.55 2285.04,1435.64 2345.73,1356.1 2394.34,1278.89 2442.96,1186.21 2467.26,1132.71 
  2491.57,1073.49 2515.88,1007.65 2540.19,934.091 2547.67,909.693 2555.15,884.391 2562.63,858.136 2570.11,830.875 
  "/>
<path clip-path="url(#clip400)" d="
M2227.79 209.375 L2557.56 209.375 L2557.56 105.695 L2227.79 105.695  Z
  " fill="#ffffff" fill-rule="evenodd" fill-opacity="1"/>
<polyline clip-path="url(#clip400)" style="stroke:#000000; stroke-linecap:butt; stroke-linejoin:round; stroke-width:4; stroke-opacity:1; fill:none" points="
  2227.79,209.375 2557.56,209.375 2557.56,105.695 2227.79,105.695 2227.79,209.375 
  "/>
<polyline clip-path="url(#clip400)" style="stroke:#009af9; stroke-linecap:butt; stroke-linejoin:round; stroke-width:4; stroke-opacity:1; fill:none" points="
  2255.52,157.535 2421.92,157.535 
  "/>
<path clip-path="url(#clip400)" d="M2463.5 177.223 Q2461.69 181.852 2459.98 183.264 Q2458.27 184.676 2455.4 184.676 L2452 184.676 L2452 181.112 L2454.5 181.112 Q2456.25 181.112 2457.23 180.278 Q2458.2 179.445 2459.38 176.343 L2460.14 174.399 L2449.66 148.889 L2454.17 148.889 L2462.27 169.167 L2470.38 148.889 L2474.89 148.889 L2463.5 177.223 Z" fill="#000000" fill-rule="evenodd" fill-opacity="1" /><path clip-path="url(#clip400)" d="M2482.18 170.88 L2489.82 170.88 L2489.82 144.515 L2481.51 146.181 L2481.51 141.922 L2489.77 140.255 L2494.45 140.255 L2494.45 170.88 L2502.09 170.88 L2502.09 174.815 L2482.18 174.815 L2482.18 170.88 Z" fill="#000000" fill-rule="evenodd" fill-opacity="1" /></svg>
