<?xml version="1.0" encoding="utf-8"?>
<svg xmlns="http://www.w3.org/2000/svg" xmlns:xlink="http://www.w3.org/1999/xlink" width="672" height="480" viewBox="0 0 2688 1920">
<defs>
  <clipPath id="clip440">
    <rect x="0" y="0" width="2688" height="1920"/>
  </clipPath>
</defs>
<path clip-path="url(#clip440)" d="
M0 1920 L2688 1920 L2688 0 L0 0  Z
  " fill="#ffffff" fill-rule="evenodd" fill-opacity="1"/>
<defs>
  <clipPath id="clip441">
    <rect x="537" y="0" width="1883" height="1883"/>
  </clipPath>
</defs>
<path clip-path="url(#clip440)" d="
M158.9 1800.78 L2640.76 1800.78 L2640.76 47.2441 L158.9 47.2441  Z
  " fill="#ffffff" fill-rule="evenodd" fill-opacity="1"/>
<defs>
  <clipPath id="clip442">
    <rect x="158" y="47" width="2483" height="1755"/>
  </clipPath>
</defs>
<polyline clip-path="url(#clip442)" style="stroke:#000000; stroke-linecap:butt; stroke-linejoin:round; stroke-width:2; stroke-opacity:0.1; fill:none" points="
  229.141,1800.78 229.141,47.2441 
  "/>
<polyline clip-path="url(#clip442)" style="stroke:#000000; stroke-linecap:butt; stroke-linejoin:round; stroke-width:2; stroke-opacity:0.1; fill:none" points="
  814.484,1800.78 814.484,47.2441 
  "/>
<polyline clip-path="url(#clip442)" style="stroke:#000000; stroke-linecap:butt; stroke-linejoin:round; stroke-width:2; stroke-opacity:0.1; fill:none" points="
  1399.83,1800.78 1399.83,47.2441 
  "/>
<polyline clip-path="url(#clip442)" style="stroke:#000000; stroke-linecap:butt; stroke-linejoin:round; stroke-width:2; stroke-opacity:0.1; fill:none" points="
  1985.17,1800.78 1985.17,47.2441 
  "/>
<polyline clip-path="url(#clip442)" style="stroke:#000000; stroke-linecap:butt; stroke-linejoin:round; stroke-width:2; stroke-opacity:0.1; fill:none" points="
  2570.51,1800.78 2570.51,47.2441 
  "/>
<polyline clip-path="url(#clip440)" style="stroke:#000000; stroke-linecap:butt; stroke-linejoin:round; stroke-width:4; stroke-opacity:1; fill:none" points="
  158.9,1800.78 2640.76,1800.78 
  "/>
<polyline clip-path="url(#clip440)" style="stroke:#000000; stroke-linecap:butt; stroke-linejoin:round; stroke-width:4; stroke-opacity:1; fill:none" points="
  229.141,1800.78 229.141,1781.88 
  "/>
<polyline clip-path="url(#clip440)" style="stroke:#000000; stroke-linecap:butt; stroke-linejoin:round; stroke-width:4; stroke-opacity:1; fill:none" points="
  814.484,1800.78 814.484,1781.88 
  "/>
<polyline clip-path="url(#clip440)" style="stroke:#000000; stroke-linecap:butt; stroke-linejoin:round; stroke-width:4; stroke-opacity:1; fill:none" points="
  1399.83,1800.78 1399.83,1781.88 
  "/>
<polyline clip-path="url(#clip440)" style="stroke:#000000; stroke-linecap:butt; stroke-linejoin:round; stroke-width:4; stroke-opacity:1; fill:none" points="
  1985.17,1800.78 1985.17,1781.88 
  "/>
<polyline clip-path="url(#clip440)" style="stroke:#000000; stroke-linecap:butt; stroke-linejoin:round; stroke-width:4; stroke-opacity:1; fill:none" points="
  2570.51,1800.78 2570.51,1781.88 
  "/>
<path clip-path="url(#clip440)" d="M206.525 1834 Q202.914 1834 201.085 1837.57 Q199.28 1841.11 199.28 1848.24 Q199.28 1855.34 201.085 1858.91 Q202.914 1862.45 206.525 1862.45 Q210.159 1862.45 211.965 1858.91 Q213.794 1855.34 213.794 1848.24 Q213.794 1841.11 211.965 1837.57 Q210.159 1834 206.525 1834 M206.525 1830.3 Q212.335 1830.3 215.391 1834.9 Q218.47 1839.49 218.47 1848.24 Q218.47 1856.96 215.391 1861.57 Q212.335 1866.15 206.525 1866.15 Q200.715 1866.15 197.636 1861.57 Q194.581 1856.96 194.581 1848.24 Q194.581 1839.49 197.636 1834.9 Q200.715 1830.3 206.525 1830.3 Z" fill="#000000" fill-rule="evenodd" fill-opacity="1" /><path clip-path="url(#clip440)" d="M226.687 1859.6 L231.571 1859.6 L231.571 1865.48 L226.687 1865.48 L226.687 1859.6 Z" fill="#000000" fill-rule="evenodd" fill-opacity="1" /><path clip-path="url(#clip440)" d="M251.756 1834 Q248.145 1834 246.317 1837.57 Q244.511 1841.11 244.511 1848.24 Q244.511 1855.34 246.317 1858.91 Q248.145 1862.45 251.756 1862.45 Q255.391 1862.45 257.196 1858.91 Q259.025 1855.34 259.025 1848.24 Q259.025 1841.11 257.196 1837.57 Q255.391 1834 251.756 1834 M251.756 1830.3 Q257.567 1830.3 260.622 1834.9 Q263.701 1839.49 263.701 1848.24 Q263.701 1856.96 260.622 1861.57 Q257.567 1866.15 251.756 1866.15 Q245.946 1866.15 242.868 1861.57 Q239.812 1856.96 239.812 1848.24 Q239.812 1839.49 242.868 1834.9 Q245.946 1830.3 251.756 1830.3 Z" fill="#000000" fill-rule="evenodd" fill-opacity="1" /><path clip-path="url(#clip440)" d="M786.22 1861.55 L802.54 1861.55 L802.54 1865.48 L780.596 1865.48 L780.596 1861.55 Q783.258 1858.79 787.841 1854.16 Q792.447 1849.51 793.628 1848.17 Q795.873 1845.65 796.753 1843.91 Q797.656 1842.15 797.656 1840.46 Q797.656 1837.71 795.711 1835.97 Q793.79 1834.23 790.688 1834.23 Q788.489 1834.23 786.035 1835 Q783.605 1835.76 780.827 1837.31 L780.827 1832.59 Q783.651 1831.46 786.105 1830.88 Q788.558 1830.3 790.595 1830.3 Q795.966 1830.3 799.16 1832.98 Q802.355 1835.67 802.355 1840.16 Q802.355 1842.29 801.544 1844.21 Q800.757 1846.11 798.651 1848.7 Q798.072 1849.37 794.97 1852.59 Q791.869 1855.78 786.22 1861.55 Z" fill="#000000" fill-rule="evenodd" fill-opacity="1" /><path clip-path="url(#clip440)" d="M812.355 1859.6 L817.239 1859.6 L817.239 1865.48 L812.355 1865.48 L812.355 1859.6 Z" fill="#000000" fill-rule="evenodd" fill-opacity="1" /><path clip-path="url(#clip440)" d="M827.47 1830.92 L845.827 1830.92 L845.827 1834.86 L831.753 1834.86 L831.753 1843.33 Q832.771 1842.98 833.79 1842.82 Q834.808 1842.64 835.827 1842.64 Q841.614 1842.64 844.993 1845.81 Q848.373 1848.98 848.373 1854.4 Q848.373 1859.97 844.901 1863.08 Q841.429 1866.15 835.109 1866.15 Q832.933 1866.15 830.665 1865.78 Q828.419 1865.41 826.012 1864.67 L826.012 1859.97 Q828.095 1861.11 830.317 1861.66 Q832.54 1862.22 835.017 1862.22 Q839.021 1862.22 841.359 1860.11 Q843.697 1858.01 843.697 1854.4 Q843.697 1850.78 841.359 1848.68 Q839.021 1846.57 835.017 1846.57 Q833.142 1846.57 831.267 1846.99 Q829.415 1847.4 827.47 1848.28 L827.47 1830.92 Z" fill="#000000" fill-rule="evenodd" fill-opacity="1" /><path clip-path="url(#clip440)" d="M1366.99 1830.92 L1385.35 1830.92 L1385.35 1834.86 L1371.27 1834.86 L1371.27 1843.33 Q1372.29 1842.98 1373.31 1842.82 Q1374.33 1842.64 1375.35 1842.64 Q1381.14 1842.64 1384.52 1845.81 Q1387.89 1848.98 1387.89 1854.4 Q1387.89 1859.97 1384.42 1863.08 Q1380.95 1866.15 1374.63 1866.15 Q1372.46 1866.15 1370.19 1865.78 Q1367.94 1865.41 1365.53 1864.67 L1365.53 1859.97 Q1367.62 1861.11 1369.84 1861.66 Q1372.06 1862.22 1374.54 1862.22 Q1378.54 1862.22 1380.88 1860.11 Q1383.22 1858.01 1383.22 1854.4 Q1383.22 1850.78 1380.88 1848.68 Q1378.54 1846.57 1374.54 1846.57 Q1372.66 1846.57 1370.79 1846.99 Q1368.94 1847.4 1366.99 1848.28 L1366.99 1830.92 Z" fill="#000000" fill-rule="evenodd" fill-opacity="1" /><path clip-path="url(#clip440)" d="M1397.11 1859.6 L1401.99 1859.6 L1401.99 1865.48 L1397.11 1865.48 L1397.11 1859.6 Z" fill="#000000" fill-rule="evenodd" fill-opacity="1" /><path clip-path="url(#clip440)" d="M1422.18 1834 Q1418.57 1834 1416.74 1837.57 Q1414.93 1841.11 1414.93 1848.24 Q1414.93 1855.34 1416.74 1858.91 Q1418.57 1862.45 1422.18 1862.45 Q1425.81 1862.45 1427.62 1858.91 Q1429.45 1855.34 1429.45 1848.24 Q1429.45 1841.11 1427.62 1837.57 Q1425.81 1834 1422.18 1834 M1422.18 1830.3 Q1427.99 1830.3 1431.04 1834.9 Q1434.12 1839.49 1434.12 1848.24 Q1434.12 1856.96 1431.04 1861.57 Q1427.99 1866.15 1422.18 1866.15 Q1416.37 1866.15 1413.29 1861.57 Q1410.23 1856.96 1410.23 1848.24 Q1410.23 1839.49 1413.29 1834.9 Q1416.37 1830.3 1422.18 1830.3 Z" fill="#000000" fill-rule="evenodd" fill-opacity="1" /><path clip-path="url(#clip440)" d="M1951.49 1830.92 L1973.71 1830.92 L1973.71 1832.91 L1961.17 1865.48 L1956.28 1865.48 L1968.09 1834.86 L1951.49 1834.86 L1951.49 1830.92 Z" fill="#000000" fill-rule="evenodd" fill-opacity="1" /><path clip-path="url(#clip440)" d="M1982.83 1859.6 L1987.72 1859.6 L1987.72 1865.48 L1982.83 1865.48 L1982.83 1859.6 Z" fill="#000000" fill-rule="evenodd" fill-opacity="1" /><path clip-path="url(#clip440)" d="M1997.95 1830.92 L2016.31 1830.92 L2016.31 1834.86 L2002.23 1834.86 L2002.23 1843.33 Q2003.25 1842.98 2004.27 1842.82 Q2005.29 1842.64 2006.31 1842.64 Q2012.09 1842.64 2015.47 1845.81 Q2018.85 1848.98 2018.85 1854.4 Q2018.85 1859.97 2015.38 1863.08 Q2011.91 1866.15 2005.59 1866.15 Q2003.41 1866.15 2001.14 1865.78 Q1998.9 1865.41 1996.49 1864.67 L1996.49 1859.97 Q1998.57 1861.11 2000.8 1861.66 Q2003.02 1862.22 2005.5 1862.22 Q2009.5 1862.22 2011.84 1860.11 Q2014.18 1858.01 2014.18 1854.4 Q2014.18 1850.78 2011.84 1848.68 Q2009.5 1846.57 2005.5 1846.57 Q2003.62 1846.57 2001.75 1846.99 Q1999.89 1847.4 1997.95 1848.28 L1997.95 1830.92 Z" fill="#000000" fill-rule="evenodd" fill-opacity="1" /><path clip-path="url(#clip440)" d="M2522.59 1861.55 L2530.23 1861.55 L2530.23 1835.18 L2521.92 1836.85 L2521.92 1832.59 L2530.18 1830.92 L2534.86 1830.92 L2534.86 1861.55 L2542.49 1861.55 L2542.49 1865.48 L2522.59 1865.48 L2522.59 1861.55 Z" fill="#000000" fill-rule="evenodd" fill-opacity="1" /><path clip-path="url(#clip440)" d="M2561.94 1834 Q2558.33 1834 2556.5 1837.57 Q2554.69 1841.11 2554.69 1848.24 Q2554.69 1855.34 2556.5 1858.91 Q2558.33 1862.45 2561.94 1862.45 Q2565.57 1862.45 2567.38 1858.91 Q2569.21 1855.34 2569.21 1848.24 Q2569.21 1841.11 2567.38 1837.57 Q2565.57 1834 2561.94 1834 M2561.94 1830.3 Q2567.75 1830.3 2570.8 1834.9 Q2573.88 1839.49 2573.88 1848.24 Q2573.88 1856.96 2570.8 1861.57 Q2567.75 1866.15 2561.94 1866.15 Q2556.13 1866.15 2553.05 1861.57 Q2549.99 1856.96 2549.99 1848.24 Q2549.99 1839.49 2553.05 1834.9 Q2556.13 1830.3 2561.94 1830.3 Z" fill="#000000" fill-rule="evenodd" fill-opacity="1" /><path clip-path="url(#clip440)" d="M2582.1 1859.6 L2586.98 1859.6 L2586.98 1865.48 L2582.1 1865.48 L2582.1 1859.6 Z" fill="#000000" fill-rule="evenodd" fill-opacity="1" /><path clip-path="url(#clip440)" d="M2607.17 1834 Q2603.56 1834 2601.73 1837.57 Q2599.92 1841.11 2599.92 1848.24 Q2599.92 1855.34 2601.73 1858.91 Q2603.56 1862.45 2607.17 1862.45 Q2610.8 1862.45 2612.61 1858.91 Q2614.44 1855.34 2614.44 1848.24 Q2614.44 1841.11 2612.61 1837.57 Q2610.8 1834 2607.17 1834 M2607.17 1830.3 Q2612.98 1830.3 2616.04 1834.9 Q2619.11 1839.49 2619.11 1848.24 Q2619.11 1856.96 2616.04 1861.57 Q2612.98 1866.15 2607.17 1866.15 Q2601.36 1866.15 2598.28 1861.57 Q2595.23 1856.96 2595.23 1848.24 Q2595.23 1839.49 2598.28 1834.9 Q2601.36 1830.3 2607.17 1830.3 Z" fill="#000000" fill-rule="evenodd" fill-opacity="1" /><polyline clip-path="url(#clip442)" style="stroke:#000000; stroke-linecap:butt; stroke-linejoin:round; stroke-width:2; stroke-opacity:0.1; fill:none" points="
  158.9,1776.2 2640.76,1776.2 
  "/>
<polyline clip-path="url(#clip442)" style="stroke:#000000; stroke-linecap:butt; stroke-linejoin:round; stroke-width:2; stroke-opacity:0.1; fill:none" points="
  158.9,1248.16 2640.76,1248.16 
  "/>
<polyline clip-path="url(#clip442)" style="stroke:#000000; stroke-linecap:butt; stroke-linejoin:round; stroke-width:2; stroke-opacity:0.1; fill:none" points="
  158.9,720.131 2640.76,720.131 
  "/>
<polyline clip-path="url(#clip442)" style="stroke:#000000; stroke-linecap:butt; stroke-linejoin:round; stroke-width:2; stroke-opacity:0.1; fill:none" points="
  158.9,192.098 2640.76,192.098 
  "/>
<polyline clip-path="url(#clip440)" style="stroke:#000000; stroke-linecap:butt; stroke-linejoin:round; stroke-width:4; stroke-opacity:1; fill:none" points="
  158.9,1800.78 158.9,47.2441 
  "/>
<polyline clip-path="url(#clip440)" style="stroke:#000000; stroke-linecap:butt; stroke-linejoin:round; stroke-width:4; stroke-opacity:1; fill:none" points="
  158.9,1776.2 177.797,1776.2 
  "/>
<polyline clip-path="url(#clip440)" style="stroke:#000000; stroke-linecap:butt; stroke-linejoin:round; stroke-width:4; stroke-opacity:1; fill:none" points="
  158.9,1248.16 177.797,1248.16 
  "/>
<polyline clip-path="url(#clip440)" style="stroke:#000000; stroke-linecap:butt; stroke-linejoin:round; stroke-width:4; stroke-opacity:1; fill:none" points="
  158.9,720.131 177.797,720.131 
  "/>
<polyline clip-path="url(#clip440)" style="stroke:#000000; stroke-linecap:butt; stroke-linejoin:round; stroke-width:4; stroke-opacity:1; fill:none" points="
  158.9,192.098 177.797,192.098 
  "/>
<path clip-path="url(#clip440)" d="M61.4965 1762 Q57.8854 1762 56.0567 1765.56 Q54.2512 1769.1 54.2512 1776.23 Q54.2512 1783.34 56.0567 1786.9 Q57.8854 1790.44 61.4965 1790.44 Q65.1307 1790.44 66.9363 1786.9 Q68.765 1783.34 68.765 1776.23 Q68.765 1769.1 66.9363 1765.56 Q65.1307 1762 61.4965 1762 M61.4965 1758.29 Q67.3067 1758.29 70.3622 1762.9 Q73.4409 1767.48 73.4409 1776.23 Q73.4409 1784.96 70.3622 1789.56 Q67.3067 1794.15 61.4965 1794.15 Q55.6864 1794.15 52.6077 1789.56 Q49.5521 1784.96 49.5521 1776.23 Q49.5521 1767.48 52.6077 1762.9 Q55.6864 1758.29 61.4965 1758.29 Z" fill="#000000" fill-rule="evenodd" fill-opacity="1" /><path clip-path="url(#clip440)" d="M81.6584 1787.6 L86.5427 1787.6 L86.5427 1793.48 L81.6584 1793.48 L81.6584 1787.6 Z" fill="#000000" fill-rule="evenodd" fill-opacity="1" /><path clip-path="url(#clip440)" d="M106.728 1777.06 Q103.394 1777.06 101.473 1778.85 Q99.575 1780.63 99.575 1783.75 Q99.575 1786.88 101.473 1788.66 Q103.394 1790.44 106.728 1790.44 Q110.061 1790.44 111.982 1788.66 Q113.904 1786.86 113.904 1783.75 Q113.904 1780.63 111.982 1778.85 Q110.084 1777.06 106.728 1777.06 M102.052 1775.07 Q99.0426 1774.33 97.3528 1772.27 Q95.6861 1770.21 95.6861 1767.25 Q95.6861 1763.11 98.6259 1760.7 Q101.589 1758.29 106.728 1758.29 Q111.89 1758.29 114.83 1760.7 Q117.769 1763.11 117.769 1767.25 Q117.769 1770.21 116.08 1772.27 Q114.413 1774.33 111.427 1775.07 Q114.806 1775.86 116.681 1778.15 Q118.58 1780.44 118.58 1783.75 Q118.58 1788.78 115.501 1791.46 Q112.445 1794.15 106.728 1794.15 Q101.01 1794.15 97.9315 1791.46 Q94.876 1788.78 94.876 1783.75 Q94.876 1780.44 96.7741 1778.15 Q98.6722 1775.86 102.052 1775.07 M100.339 1767.69 Q100.339 1770.37 102.006 1771.88 Q103.695 1773.38 106.728 1773.38 Q109.737 1773.38 111.427 1771.88 Q113.14 1770.37 113.14 1767.69 Q113.14 1765 111.427 1763.5 Q109.737 1762 106.728 1762 Q103.695 1762 102.006 1763.5 Q100.339 1765 100.339 1767.69 Z" fill="#000000" fill-rule="evenodd" fill-opacity="1" /><path clip-path="url(#clip440)" d="M61.5891 1233.96 Q57.978 1233.96 56.1493 1237.53 Q54.3438 1241.07 54.3438 1248.2 Q54.3438 1255.3 56.1493 1258.87 Q57.978 1262.41 61.5891 1262.41 Q65.2233 1262.41 67.0289 1258.87 Q68.8576 1255.3 68.8576 1248.2 Q68.8576 1241.07 67.0289 1237.53 Q65.2233 1233.96 61.5891 1233.96 M61.5891 1230.26 Q67.3993 1230.26 70.4548 1234.87 Q73.5335 1239.45 73.5335 1248.2 Q73.5335 1256.93 70.4548 1261.53 Q67.3993 1266.11 61.5891 1266.11 Q55.7789 1266.11 52.7003 1261.53 Q49.6447 1256.93 49.6447 1248.2 Q49.6447 1239.45 52.7003 1234.87 Q55.7789 1230.26 61.5891 1230.26 Z" fill="#000000" fill-rule="evenodd" fill-opacity="1" /><path clip-path="url(#clip440)" d="M81.751 1259.56 L86.6353 1259.56 L86.6353 1265.44 L81.751 1265.44 L81.751 1259.56 Z" fill="#000000" fill-rule="evenodd" fill-opacity="1" /><path clip-path="url(#clip440)" d="M96.9593 1264.73 L96.9593 1260.47 Q98.7185 1261.3 100.524 1261.74 Q102.33 1262.18 104.066 1262.18 Q108.695 1262.18 111.126 1259.08 Q113.58 1255.95 113.927 1249.61 Q112.584 1251.6 110.524 1252.67 Q108.464 1253.73 105.964 1253.73 Q100.779 1253.73 97.7463 1250.61 Q94.7371 1247.46 94.7371 1242.02 Q94.7371 1236.69 97.8852 1233.48 Q101.033 1230.26 106.265 1230.26 Q112.26 1230.26 115.408 1234.87 Q118.58 1239.45 118.58 1248.2 Q118.58 1256.37 114.691 1261.25 Q110.825 1266.11 104.274 1266.11 Q102.515 1266.11 100.709 1265.77 Q98.9037 1265.42 96.9593 1264.73 M106.265 1250.07 Q109.413 1250.07 111.242 1247.92 Q113.093 1245.77 113.093 1242.02 Q113.093 1238.29 111.242 1236.14 Q109.413 1233.96 106.265 1233.96 Q103.117 1233.96 101.265 1236.14 Q99.4361 1238.29 99.4361 1242.02 Q99.4361 1245.77 101.265 1247.92 Q103.117 1250.07 106.265 1250.07 Z" fill="#000000" fill-rule="evenodd" fill-opacity="1" /><path clip-path="url(#clip440)" d="M52.2141 733.476 L59.853 733.476 L59.853 707.11 L51.5429 708.777 L51.5429 704.517 L59.8067 702.851 L64.4826 702.851 L64.4826 733.476 L72.1214 733.476 L72.1214 737.411 L52.2141 737.411 L52.2141 733.476 Z" fill="#000000" fill-rule="evenodd" fill-opacity="1" /><path clip-path="url(#clip440)" d="M81.5658 731.531 L86.4501 731.531 L86.4501 737.411 L81.5658 737.411 L81.5658 731.531 Z" fill="#000000" fill-rule="evenodd" fill-opacity="1" /><path clip-path="url(#clip440)" d="M106.635 705.929 Q103.024 705.929 101.195 709.494 Q99.3898 713.036 99.3898 720.165 Q99.3898 727.272 101.195 730.837 Q103.024 734.378 106.635 734.378 Q110.269 734.378 112.075 730.837 Q113.904 727.272 113.904 720.165 Q113.904 713.036 112.075 709.494 Q110.269 705.929 106.635 705.929 M106.635 702.226 Q112.445 702.226 115.501 706.832 Q118.58 711.415 118.58 720.165 Q118.58 728.892 115.501 733.499 Q112.445 738.082 106.635 738.082 Q100.825 738.082 97.7463 733.499 Q94.6908 728.892 94.6908 720.165 Q94.6908 711.415 97.7463 706.832 Q100.825 702.226 106.635 702.226 Z" fill="#000000" fill-rule="evenodd" fill-opacity="1" /><path clip-path="url(#clip440)" d="M53.441 205.443 L61.0798 205.443 L61.0798 179.077 L52.7697 180.744 L52.7697 176.484 L61.0335 174.818 L65.7094 174.818 L65.7094 205.443 L73.3483 205.443 L73.3483 209.378 L53.441 209.378 L53.441 205.443 Z" fill="#000000" fill-rule="evenodd" fill-opacity="1" /><path clip-path="url(#clip440)" d="M82.7927 203.498 L87.6769 203.498 L87.6769 209.378 L82.7927 209.378 L82.7927 203.498 Z" fill="#000000" fill-rule="evenodd" fill-opacity="1" /><path clip-path="url(#clip440)" d="M98.6722 205.443 L106.311 205.443 L106.311 179.077 L98.0009 180.744 L98.0009 176.484 L106.265 174.818 L110.941 174.818 L110.941 205.443 L118.58 205.443 L118.58 209.378 L98.6722 209.378 L98.6722 205.443 Z" fill="#000000" fill-rule="evenodd" fill-opacity="1" /><polyline clip-path="url(#clip442)" style="stroke:#009af9; stroke-linecap:butt; stroke-linejoin:round; stroke-width:4; stroke-opacity:1; fill:none" points="
  229.141,96.8724 252.006,125.761 463.43,388.203 590.487,541.3 697.912,667.562 814.606,800.945 922.187,919.953 1037.53,1042.71 1171.16,1177.7 1289.91,1290.07 
  1394.05,1381.77 1507.59,1473.34 1621.8,1555.27 1748.08,1632.05 1868.23,1689.5 1993.16,1730.59 2098.32,1748.48 2162.51,1751.15 2226.71,1747.14 2287.05,1736.98 
  2347.4,1720.39 2444.08,1679.88 2540.76,1621.7 2555.64,1611.16 2570.51,1600.19 
  "/>
<path clip-path="url(#clip440)" d="
M2229.84 209.375 L2558.03 209.375 L2558.03 105.695 L2229.84 105.695  Z
  " fill="#ffffff" fill-rule="evenodd" fill-opacity="1"/>
<polyline clip-path="url(#clip440)" style="stroke:#000000; stroke-linecap:butt; stroke-linejoin:round; stroke-width:4; stroke-opacity:1; fill:none" points="
  2229.84,209.375 2558.03,209.375 2558.03,105.695 2229.84,105.695 2229.84,209.375 
  "/>
<polyline clip-path="url(#clip440)" style="stroke:#009af9; stroke-linecap:butt; stroke-linejoin:round; stroke-width:4; stroke-opacity:1; fill:none" points="
  2257.41,157.535 2422.87,157.535 
  "/>
<path clip-path="url(#clip440)" d="M2464.29 177.223 Q2462.48 181.852 2460.77 183.264 Q2459.06 184.676 2456.19 184.676 L2452.78 184.676 L2452.78 181.112 L2455.28 181.112 Q2457.04 181.112 2458.01 180.278 Q2458.99 179.445 2460.17 176.343 L2460.93 174.399 L2450.44 148.889 L2454.96 148.889 L2463.06 169.167 L2471.16 148.889 L2475.68 148.889 L2464.29 177.223 Z" fill="#000000" fill-rule="evenodd" fill-opacity="1" /><path clip-path="url(#clip440)" d="M2482.97 170.88 L2490.61 170.88 L2490.61 144.515 L2482.3 146.181 L2482.3 141.922 L2490.56 140.255 L2495.24 140.255 L2495.24 170.88 L2502.87 170.88 L2502.87 174.815 L2482.97 174.815 L2482.97 170.88 Z" fill="#000000" fill-rule="evenodd" fill-opacity="1" /></svg>
