<?xml version="1.0" encoding="utf-8"?>
<svg xmlns="http://www.w3.org/2000/svg" xmlns:xlink="http://www.w3.org/1999/xlink" width="672" height="480" viewBox="0 0 2688 1920">
<defs>
  <clipPath id="clip200">
    <rect x="0" y="0" width="2688" height="1920"/>
  </clipPath>
</defs>
<path clip-path="url(#clip200)" d="
M0 1920 L2688 1920 L2688 0 L0 0  Z
  " fill="#ffffff" fill-rule="evenodd" fill-opacity="1"/>
<defs>
  <clipPath id="clip201">
    <rect x="537" y="0" width="1883" height="1883"/>
  </clipPath>
</defs>
<path clip-path="url(#clip200)" d="
M152.071 1800.78 L2640.76 1800.78 L2640.76 47.2441 L152.071 47.2441  Z
  " fill="#ffffff" fill-rule="evenodd" fill-opacity="1"/>
<defs>
  <clipPath id="clip202">
    <rect x="152" y="47" width="2490" height="1755"/>
  </clipPath>
</defs>
<polyline clip-path="url(#clip202)" style="stroke:#000000; stroke-linecap:butt; stroke-linejoin:round; stroke-width:2; stroke-opacity:0.1; fill:none" points="
  483.374,1800.78 483.374,47.2441 
  "/>
<polyline clip-path="url(#clip202)" style="stroke:#000000; stroke-linecap:butt; stroke-linejoin:round; stroke-width:2; stroke-opacity:0.1; fill:none" points="
  1005.11,1800.78 1005.11,47.2441 
  "/>
<polyline clip-path="url(#clip202)" style="stroke:#000000; stroke-linecap:butt; stroke-linejoin:round; stroke-width:2; stroke-opacity:0.1; fill:none" points="
  1526.85,1800.78 1526.85,47.2441 
  "/>
<polyline clip-path="url(#clip202)" style="stroke:#000000; stroke-linecap:butt; stroke-linejoin:round; stroke-width:2; stroke-opacity:0.1; fill:none" points="
  2048.58,1800.78 2048.58,47.2441 
  "/>
<polyline clip-path="url(#clip202)" style="stroke:#000000; stroke-linecap:butt; stroke-linejoin:round; stroke-width:2; stroke-opacity:0.1; fill:none" points="
  2570.32,1800.78 2570.32,47.2441 
  "/>
<polyline clip-path="url(#clip200)" style="stroke:#000000; stroke-linecap:butt; stroke-linejoin:round; stroke-width:4; stroke-opacity:1; fill:none" points="
  152.071,1800.78 2640.76,1800.78 
  "/>
<polyline clip-path="url(#clip200)" style="stroke:#000000; stroke-linecap:butt; stroke-linejoin:round; stroke-width:4; stroke-opacity:1; fill:none" points="
  483.374,1800.78 483.374,1781.88 
  "/>
<polyline clip-path="url(#clip200)" style="stroke:#000000; stroke-linecap:butt; stroke-linejoin:round; stroke-width:4; stroke-opacity:1; fill:none" points="
  1005.11,1800.78 1005.11,1781.88 
  "/>
<polyline clip-path="url(#clip200)" style="stroke:#000000; stroke-linecap:butt; stroke-linejoin:round; stroke-width:4; stroke-opacity:1; fill:none" points="
  1526.85,1800.78 1526.85,1781.88 
  "/>
<polyline clip-path="url(#clip200)" style="stroke:#000000; stroke-linecap:butt; stroke-linejoin:round; stroke-width:4; stroke-opacity:1; fill:none" points="
  2048.58,1800.78 2048.58,1781.88 
  "/>
<polyline clip-path="url(#clip200)" style="stroke:#000000; stroke-linecap:butt; stroke-linejoin:round; stroke-width:4; stroke-opacity:1; fill:none" points="
  2570.32,1800.78 2570.32,1781.88 
  "/>
<path clip-path="url(#clip200)" d="M478.027 1861.55 L494.346 1861.55 L494.346 1865.48 L472.402 1865.48 L472.402 1861.55 Q475.064 1858.79 479.647 1854.16 Q484.253 1849.51 485.434 1848.17 Q487.679 1845.65 488.559 1843.91 Q489.462 1842.15 489.462 1840.46 Q489.462 1837.71 487.517 1835.97 Q485.596 1834.23 482.494 1834.23 Q480.295 1834.23 477.841 1835 Q475.411 1835.76 472.633 1837.31 L472.633 1832.59 Q475.457 1831.46 477.911 1830.88 Q480.365 1830.3 482.402 1830.3 Q487.772 1830.3 490.966 1832.98 Q494.161 1835.67 494.161 1840.16 Q494.161 1842.29 493.351 1844.21 Q492.564 1846.11 490.457 1848.7 Q489.878 1849.37 486.777 1852.59 Q483.675 1855.78 478.027 1861.55 Z" fill="#000000" fill-rule="evenodd" fill-opacity="1" /><path clip-path="url(#clip200)" d="M1008.12 1835 L996.314 1853.45 L1008.12 1853.45 L1008.12 1835 M1006.89 1830.92 L1012.77 1830.92 L1012.77 1853.45 L1017.7 1853.45 L1017.7 1857.34 L1012.77 1857.34 L1012.77 1865.48 L1008.12 1865.48 L1008.12 1857.34 L992.518 1857.34 L992.518 1852.82 L1006.89 1830.92 Z" fill="#000000" fill-rule="evenodd" fill-opacity="1" /><path clip-path="url(#clip200)" d="M1527.25 1846.34 Q1524.1 1846.34 1522.25 1848.49 Q1520.42 1850.65 1520.42 1854.4 Q1520.42 1858.12 1522.25 1860.3 Q1524.1 1862.45 1527.25 1862.45 Q1530.4 1862.45 1532.23 1860.3 Q1534.08 1858.12 1534.08 1854.4 Q1534.08 1850.65 1532.23 1848.49 Q1530.4 1846.34 1527.25 1846.34 M1536.54 1831.69 L1536.54 1835.95 Q1534.78 1835.11 1532.97 1834.67 Q1531.19 1834.23 1529.43 1834.23 Q1524.8 1834.23 1522.35 1837.36 Q1519.91 1840.48 1519.57 1846.8 Q1520.93 1844.79 1522.99 1843.72 Q1525.05 1842.64 1527.53 1842.64 Q1532.74 1842.64 1535.75 1845.81 Q1538.78 1848.96 1538.78 1854.4 Q1538.78 1859.72 1535.63 1862.94 Q1532.48 1866.15 1527.25 1866.15 Q1521.26 1866.15 1518.09 1861.57 Q1514.91 1856.96 1514.91 1848.24 Q1514.91 1840.04 1518.8 1835.18 Q1522.69 1830.3 1529.24 1830.3 Q1531 1830.3 1532.79 1830.65 Q1534.59 1830.99 1536.54 1831.69 Z" fill="#000000" fill-rule="evenodd" fill-opacity="1" /><path clip-path="url(#clip200)" d="M2048.58 1849.07 Q2045.25 1849.07 2043.33 1850.85 Q2041.43 1852.64 2041.43 1855.76 Q2041.43 1858.89 2043.33 1860.67 Q2045.25 1862.45 2048.58 1862.45 Q2051.92 1862.45 2053.84 1860.67 Q2055.76 1858.86 2055.76 1855.76 Q2055.76 1852.64 2053.84 1850.85 Q2051.94 1849.07 2048.58 1849.07 M2043.91 1847.08 Q2040.9 1846.34 2039.21 1844.28 Q2037.54 1842.22 2037.54 1839.26 Q2037.54 1835.11 2040.48 1832.71 Q2043.45 1830.3 2048.58 1830.3 Q2053.75 1830.3 2056.69 1832.71 Q2059.63 1835.11 2059.63 1839.26 Q2059.63 1842.22 2057.94 1844.28 Q2056.27 1846.34 2053.28 1847.08 Q2056.66 1847.87 2058.54 1850.16 Q2060.44 1852.45 2060.44 1855.76 Q2060.44 1860.78 2057.36 1863.47 Q2054.3 1866.15 2048.58 1866.15 Q2042.87 1866.15 2039.79 1863.47 Q2036.73 1860.78 2036.73 1855.76 Q2036.73 1852.45 2038.63 1850.16 Q2040.53 1847.87 2043.91 1847.08 M2042.2 1839.7 Q2042.2 1842.38 2043.86 1843.89 Q2045.55 1845.39 2048.58 1845.39 Q2051.59 1845.39 2053.28 1843.89 Q2055 1842.38 2055 1839.7 Q2055 1837.01 2053.28 1835.51 Q2051.59 1834 2048.58 1834 Q2045.55 1834 2043.86 1835.51 Q2042.2 1837.01 2042.2 1839.7 Z" fill="#000000" fill-rule="evenodd" fill-opacity="1" /><path clip-path="url(#clip200)" d="M2545.01 1861.55 L2552.65 1861.55 L2552.65 1835.18 L2544.34 1836.85 L2544.34 1832.59 L2552.6 1830.92 L2557.28 1830.92 L2557.28 1861.55 L2564.92 1861.55 L2564.92 1865.48 L2545.01 1865.48 L2545.01 1861.55 Z" fill="#000000" fill-rule="evenodd" fill-opacity="1" /><path clip-path="url(#clip200)" d="M2584.36 1834 Q2580.75 1834 2578.92 1837.57 Q2577.12 1841.11 2577.12 1848.24 Q2577.12 1855.34 2578.92 1858.91 Q2580.75 1862.45 2584.36 1862.45 Q2587.99 1862.45 2589.8 1858.91 Q2591.63 1855.34 2591.63 1848.24 Q2591.63 1841.11 2589.8 1837.57 Q2587.99 1834 2584.36 1834 M2584.36 1830.3 Q2590.17 1830.3 2593.23 1834.9 Q2596.31 1839.49 2596.31 1848.24 Q2596.31 1856.96 2593.23 1861.57 Q2590.17 1866.15 2584.36 1866.15 Q2578.55 1866.15 2575.47 1861.57 Q2572.42 1856.96 2572.42 1848.24 Q2572.42 1839.49 2575.47 1834.9 Q2578.55 1830.3 2584.36 1830.3 Z" fill="#000000" fill-rule="evenodd" fill-opacity="1" /><polyline clip-path="url(#clip202)" style="stroke:#000000; stroke-linecap:butt; stroke-linejoin:round; stroke-width:2; stroke-opacity:0.1; fill:none" points="
  152.071,1611.49 2640.76,1611.49 
  "/>
<polyline clip-path="url(#clip202)" style="stroke:#000000; stroke-linecap:butt; stroke-linejoin:round; stroke-width:2; stroke-opacity:0.1; fill:none" points="
  152.071,1345.72 2640.76,1345.72 
  "/>
<polyline clip-path="url(#clip202)" style="stroke:#000000; stroke-linecap:butt; stroke-linejoin:round; stroke-width:2; stroke-opacity:0.1; fill:none" points="
  152.071,1079.95 2640.76,1079.95 
  "/>
<polyline clip-path="url(#clip202)" style="stroke:#000000; stroke-linecap:butt; stroke-linejoin:round; stroke-width:2; stroke-opacity:0.1; fill:none" points="
  152.071,814.179 2640.76,814.179 
  "/>
<polyline clip-path="url(#clip202)" style="stroke:#000000; stroke-linecap:butt; stroke-linejoin:round; stroke-width:2; stroke-opacity:0.1; fill:none" points="
  152.071,548.408 2640.76,548.408 
  "/>
<polyline clip-path="url(#clip202)" style="stroke:#000000; stroke-linecap:butt; stroke-linejoin:round; stroke-width:2; stroke-opacity:0.1; fill:none" points="
  152.071,282.638 2640.76,282.638 
  "/>
<polyline clip-path="url(#clip200)" style="stroke:#000000; stroke-linecap:butt; stroke-linejoin:round; stroke-width:4; stroke-opacity:1; fill:none" points="
  152.071,1800.78 152.071,47.2441 
  "/>
<polyline clip-path="url(#clip200)" style="stroke:#000000; stroke-linecap:butt; stroke-linejoin:round; stroke-width:4; stroke-opacity:1; fill:none" points="
  152.071,1611.49 170.969,1611.49 
  "/>
<polyline clip-path="url(#clip200)" style="stroke:#000000; stroke-linecap:butt; stroke-linejoin:round; stroke-width:4; stroke-opacity:1; fill:none" points="
  152.071,1345.72 170.969,1345.72 
  "/>
<polyline clip-path="url(#clip200)" style="stroke:#000000; stroke-linecap:butt; stroke-linejoin:round; stroke-width:4; stroke-opacity:1; fill:none" points="
  152.071,1079.95 170.969,1079.95 
  "/>
<polyline clip-path="url(#clip200)" style="stroke:#000000; stroke-linecap:butt; stroke-linejoin:round; stroke-width:4; stroke-opacity:1; fill:none" points="
  152.071,814.179 170.969,814.179 
  "/>
<polyline clip-path="url(#clip200)" style="stroke:#000000; stroke-linecap:butt; stroke-linejoin:round; stroke-width:4; stroke-opacity:1; fill:none" points="
  152.071,548.408 170.969,548.408 
  "/>
<polyline clip-path="url(#clip200)" style="stroke:#000000; stroke-linecap:butt; stroke-linejoin:round; stroke-width:4; stroke-opacity:1; fill:none" points="
  152.071,282.638 170.969,282.638 
  "/>
<path clip-path="url(#clip200)" d="M50.941 1611.94 L80.6168 1611.94 L80.6168 1615.88 L50.941 1615.88 L50.941 1611.94 Z" fill="#000000" fill-rule="evenodd" fill-opacity="1" /><path clip-path="url(#clip200)" d="M89.5288 1594.21 L111.751 1594.21 L111.751 1596.2 L99.2046 1628.77 L94.3204 1628.77 L106.126 1598.14 L89.5288 1598.14 L89.5288 1594.21 Z" fill="#000000" fill-rule="evenodd" fill-opacity="1" /><path clip-path="url(#clip200)" d="M49.8762 1346.17 L79.552 1346.17 L79.552 1350.11 L49.8762 1350.11 L49.8762 1346.17 Z" fill="#000000" fill-rule="evenodd" fill-opacity="1" /><path clip-path="url(#clip200)" d="M100.223 1343.86 Q97.075 1343.86 95.2232 1346.01 Q93.3945 1348.16 93.3945 1351.91 Q93.3945 1355.64 95.2232 1357.81 Q97.075 1359.97 100.223 1359.97 Q103.371 1359.97 105.2 1357.81 Q107.052 1355.64 107.052 1351.91 Q107.052 1348.16 105.2 1346.01 Q103.371 1343.86 100.223 1343.86 M109.506 1329.2 L109.506 1333.46 Q107.746 1332.63 105.941 1332.19 Q104.158 1331.75 102.399 1331.75 Q97.7695 1331.75 95.3158 1334.87 Q92.8852 1338 92.538 1344.32 Q93.9037 1342.3 95.9639 1341.24 Q98.0241 1340.15 100.501 1340.15 Q105.709 1340.15 108.718 1343.32 Q111.751 1346.47 111.751 1351.91 Q111.751 1357.24 108.603 1360.45 Q105.455 1363.67 100.223 1363.67 Q94.2278 1363.67 91.0565 1359.09 Q87.8853 1354.48 87.8853 1345.75 Q87.8853 1337.56 91.7741 1332.7 Q95.663 1327.81 102.214 1327.81 Q103.973 1327.81 105.756 1328.16 Q107.561 1328.51 109.506 1329.2 Z" fill="#000000" fill-rule="evenodd" fill-opacity="1" /><path clip-path="url(#clip200)" d="M51.0336 1080.4 L80.7094 1080.4 L80.7094 1084.34 L51.0336 1084.34 L51.0336 1080.4 Z" fill="#000000" fill-rule="evenodd" fill-opacity="1" /><path clip-path="url(#clip200)" d="M90.8482 1062.67 L109.205 1062.67 L109.205 1066.6 L95.1306 1066.6 L95.1306 1075.08 Q96.1491 1074.73 97.1676 1074.57 Q98.1861 1074.38 99.2046 1074.38 Q104.992 1074.38 108.371 1077.55 Q111.751 1080.72 111.751 1086.14 Q111.751 1091.72 108.279 1094.82 Q104.806 1097.9 98.487 1097.9 Q96.3111 1097.9 94.0426 1097.53 Q91.7973 1097.16 89.3899 1096.42 L89.3899 1091.72 Q91.4732 1092.85 93.6954 1093.41 Q95.9176 1093.97 98.3945 1093.97 Q102.399 1093.97 104.737 1091.86 Q107.075 1089.75 107.075 1086.14 Q107.075 1082.53 104.737 1080.42 Q102.399 1078.32 98.3945 1078.32 Q96.5195 1078.32 94.6445 1078.73 Q92.7926 1079.15 90.8482 1080.03 L90.8482 1062.67 Z" fill="#000000" fill-rule="evenodd" fill-opacity="1" /><path clip-path="url(#clip200)" d="M49.5521 814.63 L79.2279 814.63 L79.2279 818.565 L49.5521 818.565 L49.5521 814.63 Z" fill="#000000" fill-rule="evenodd" fill-opacity="1" /><path clip-path="url(#clip200)" d="M102.168 800.973 L90.3621 819.422 L102.168 819.422 L102.168 800.973 M100.941 796.899 L106.82 796.899 L106.82 819.422 L111.751 819.422 L111.751 823.31 L106.82 823.31 L106.82 831.459 L102.168 831.459 L102.168 823.31 L86.5658 823.31 L86.5658 818.797 L100.941 796.899 Z" fill="#000000" fill-rule="evenodd" fill-opacity="1" /><path clip-path="url(#clip200)" d="M50.6864 548.86 L80.3621 548.86 L80.3621 552.795 L50.6864 552.795 L50.6864 548.86 Z" fill="#000000" fill-rule="evenodd" fill-opacity="1" /><path clip-path="url(#clip200)" d="M104.621 547.054 Q107.978 547.772 109.853 550.04 Q111.751 552.309 111.751 555.642 Q111.751 560.758 108.232 563.559 Q104.714 566.36 98.2324 566.36 Q96.0565 566.36 93.7417 565.92 Q91.45 565.503 88.9964 564.647 L88.9964 560.133 Q90.9408 561.267 93.2556 561.846 Q95.5704 562.424 98.0935 562.424 Q102.492 562.424 104.783 560.688 Q107.098 558.952 107.098 555.642 Q107.098 552.586 104.945 550.874 Q102.816 549.137 98.9963 549.137 L94.9685 549.137 L94.9685 545.295 L99.1815 545.295 Q102.631 545.295 104.459 543.929 Q106.288 542.54 106.288 539.948 Q106.288 537.286 104.39 535.874 Q102.515 534.438 98.9963 534.438 Q97.075 534.438 94.876 534.855 Q92.6769 535.272 90.038 536.151 L90.038 531.985 Q92.7 531.244 95.0148 530.874 Q97.3528 530.503 99.413 530.503 Q104.737 530.503 107.839 532.934 Q110.941 535.341 110.941 539.462 Q110.941 542.332 109.297 544.323 Q107.654 546.29 104.621 547.054 Z" fill="#000000" fill-rule="evenodd" fill-opacity="1" /><path clip-path="url(#clip200)" d="M51.6354 283.089 L81.3112 283.089 L81.3112 287.024 L51.6354 287.024 L51.6354 283.089 Z" fill="#000000" fill-rule="evenodd" fill-opacity="1" /><path clip-path="url(#clip200)" d="M95.4315 295.983 L111.751 295.983 L111.751 299.918 L89.8065 299.918 L89.8065 295.983 Q92.4686 293.228 97.0519 288.599 Q101.658 283.946 102.839 282.603 Q105.084 280.08 105.964 278.344 Q106.867 276.585 106.867 274.895 Q106.867 272.14 104.922 270.404 Q103.001 268.668 99.8991 268.668 Q97.7 268.668 95.2463 269.432 Q92.8158 270.196 90.038 271.747 L90.038 267.025 Q92.8621 265.89 95.3158 265.312 Q97.7695 264.733 99.8065 264.733 Q105.177 264.733 108.371 267.418 Q111.566 270.103 111.566 274.594 Q111.566 276.724 110.756 278.645 Q109.968 280.543 107.862 283.136 Q107.283 283.807 104.181 287.024 Q101.08 290.219 95.4315 295.983 Z" fill="#000000" fill-rule="evenodd" fill-opacity="1" /><polyline clip-path="url(#clip202)" style="stroke:#009af9; stroke-linecap:butt; stroke-linejoin:round; stroke-width:4; stroke-opacity:1; fill:none" points="
  222.505,96.8724 245.434,120.232 457.439,336.221 584.846,466.022 692.567,575.766 809.581,694.98 917.459,804.884 1033.11,922.713 1167.11,1059.23 1286.2,1180.55 
  1390.62,1286.93 1504.47,1402.86 1619,1519.09 1682.31,1582.52 1745.62,1643.83 1805.86,1696.66 1866.1,1736.34 1897.42,1747.86 1928.74,1751.15 1960.06,1745.74 
  1991.37,1732.38 2044.1,1696.48 2096.83,1650.62 2225.57,1524.3 2346.59,1401.51 2540.48,1204.04 2570.32,1173.64 
  "/>
<path clip-path="url(#clip200)" d="
M2228.85 209.375 L2557.8 209.375 L2557.8 105.695 L2228.85 105.695  Z
  " fill="#ffffff" fill-rule="evenodd" fill-opacity="1"/>
<polyline clip-path="url(#clip200)" style="stroke:#000000; stroke-linecap:butt; stroke-linejoin:round; stroke-width:4; stroke-opacity:1; fill:none" points="
  2228.85,209.375 2557.8,209.375 2557.8,105.695 2228.85,105.695 2228.85,209.375 
  "/>
<polyline clip-path="url(#clip200)" style="stroke:#009af9; stroke-linecap:butt; stroke-linejoin:round; stroke-width:4; stroke-opacity:1; fill:none" points="
  2256.5,157.535 2422.41,157.535 
  "/>
<path clip-path="url(#clip200)" d="M2463.91 177.223 Q2462.1 181.852 2460.39 183.264 Q2458.68 184.676 2455.81 184.676 L2452.4 184.676 L2452.4 181.112 L2454.9 181.112 Q2456.66 181.112 2457.63 180.278 Q2458.61 179.445 2459.79 176.343 L2460.55 174.399 L2450.07 148.889 L2454.58 148.889 L2462.68 169.167 L2470.78 148.889 L2475.3 148.889 L2463.91 177.223 Z" fill="#000000" fill-rule="evenodd" fill-opacity="1" /><path clip-path="url(#clip200)" d="M2482.59 170.88 L2490.23 170.88 L2490.23 144.515 L2481.92 146.181 L2481.92 141.922 L2490.18 140.255 L2494.86 140.255 L2494.86 170.88 L2502.5 170.88 L2502.5 174.815 L2482.59 174.815 L2482.59 170.88 Z" fill="#000000" fill-rule="evenodd" fill-opacity="1" /></svg>
