<?xml version="1.0" encoding="utf-8"?>
<svg xmlns="http://www.w3.org/2000/svg" xmlns:xlink="http://www.w3.org/1999/xlink" width="672" height="480" viewBox="0 0 2688 1920">
<defs>
  <clipPath id="clip190">
    <rect x="0" y="0" width="2688" height="1920"/>
  </clipPath>
</defs>
<path clip-path="url(#clip190)" d="
M0 1920 L2688 1920 L2688 0 L0 0  Z
  " fill="#ffffff" fill-rule="evenodd" fill-opacity="1"/>
<defs>
  <clipPath id="clip191">
    <rect x="537" y="0" width="1883" height="1883"/>
  </clipPath>
</defs>
<path clip-path="url(#clip190)" d="
M144.733 1800.78 L2640.76 1800.78 L2640.76 47.2441 L144.733 47.2441  Z
  " fill="#ffffff" fill-rule="evenodd" fill-opacity="1"/>
<defs>
  <clipPath id="clip192">
    <rect x="144" y="47" width="2497" height="1755"/>
  </clipPath>
</defs>
<polyline clip-path="url(#clip192)" style="stroke:#000000; stroke-linecap:butt; stroke-linejoin:round; stroke-width:2; stroke-opacity:0.1; fill:none" points="
  450.849,1800.78 450.849,47.2441 
  "/>
<polyline clip-path="url(#clip192)" style="stroke:#000000; stroke-linecap:butt; stroke-linejoin:round; stroke-width:2; stroke-opacity:0.1; fill:none" points="
  921.797,1800.78 921.797,47.2441 
  "/>
<polyline clip-path="url(#clip192)" style="stroke:#000000; stroke-linecap:butt; stroke-linejoin:round; stroke-width:2; stroke-opacity:0.1; fill:none" points="
  1392.74,1800.78 1392.74,47.2441 
  "/>
<polyline clip-path="url(#clip192)" style="stroke:#000000; stroke-linecap:butt; stroke-linejoin:round; stroke-width:2; stroke-opacity:0.1; fill:none" points="
  1863.69,1800.78 1863.69,47.2441 
  "/>
<polyline clip-path="url(#clip192)" style="stroke:#000000; stroke-linecap:butt; stroke-linejoin:round; stroke-width:2; stroke-opacity:0.1; fill:none" points="
  2334.64,1800.78 2334.64,47.2441 
  "/>
<polyline clip-path="url(#clip190)" style="stroke:#000000; stroke-linecap:butt; stroke-linejoin:round; stroke-width:4; stroke-opacity:1; fill:none" points="
  144.733,1800.78 2640.76,1800.78 
  "/>
<polyline clip-path="url(#clip190)" style="stroke:#000000; stroke-linecap:butt; stroke-linejoin:round; stroke-width:4; stroke-opacity:1; fill:none" points="
  450.849,1800.78 450.849,1781.88 
  "/>
<polyline clip-path="url(#clip190)" style="stroke:#000000; stroke-linecap:butt; stroke-linejoin:round; stroke-width:4; stroke-opacity:1; fill:none" points="
  921.797,1800.78 921.797,1781.88 
  "/>
<polyline clip-path="url(#clip190)" style="stroke:#000000; stroke-linecap:butt; stroke-linejoin:round; stroke-width:4; stroke-opacity:1; fill:none" points="
  1392.74,1800.78 1392.74,1781.88 
  "/>
<polyline clip-path="url(#clip190)" style="stroke:#000000; stroke-linecap:butt; stroke-linejoin:round; stroke-width:4; stroke-opacity:1; fill:none" points="
  1863.69,1800.78 1863.69,1781.88 
  "/>
<polyline clip-path="url(#clip190)" style="stroke:#000000; stroke-linecap:butt; stroke-linejoin:round; stroke-width:4; stroke-opacity:1; fill:none" points="
  2334.64,1800.78 2334.64,1781.88 
  "/>
<path clip-path="url(#clip190)" d="M419.75 1848.65 L449.425 1848.65 L449.425 1852.59 L419.75 1852.59 L419.75 1848.65 Z" fill="#000000" fill-rule="evenodd" fill-opacity="1" /><path clip-path="url(#clip190)" d="M472.365 1835 L460.56 1853.45 L472.365 1853.45 L472.365 1835 M471.138 1830.92 L477.018 1830.92 L477.018 1853.45 L481.948 1853.45 L481.948 1857.34 L477.018 1857.34 L477.018 1865.48 L472.365 1865.48 L472.365 1857.34 L456.763 1857.34 L456.763 1852.82 L471.138 1830.92 Z" fill="#000000" fill-rule="evenodd" fill-opacity="1" /><path clip-path="url(#clip190)" d="M891.739 1848.65 L921.415 1848.65 L921.415 1852.59 L891.739 1852.59 L891.739 1848.65 Z" fill="#000000" fill-rule="evenodd" fill-opacity="1" /><path clip-path="url(#clip190)" d="M935.535 1861.55 L951.854 1861.55 L951.854 1865.48 L929.91 1865.48 L929.91 1861.55 Q932.572 1858.79 937.155 1854.16 Q941.762 1849.51 942.942 1848.17 Q945.188 1845.65 946.067 1843.91 Q946.97 1842.15 946.97 1840.46 Q946.97 1837.71 945.026 1835.97 Q943.104 1834.23 940.003 1834.23 Q937.804 1834.23 935.35 1835 Q932.919 1835.76 930.142 1837.31 L930.142 1832.59 Q932.966 1831.46 935.419 1830.88 Q937.873 1830.3 939.91 1830.3 Q945.28 1830.3 948.475 1832.98 Q951.669 1835.67 951.669 1840.16 Q951.669 1842.29 950.859 1844.21 Q950.072 1846.11 947.966 1848.7 Q947.387 1849.37 944.285 1852.59 Q941.183 1855.78 935.535 1861.55 Z" fill="#000000" fill-rule="evenodd" fill-opacity="1" /><path clip-path="url(#clip190)" d="M1392.74 1834 Q1389.13 1834 1387.3 1837.57 Q1385.5 1841.11 1385.5 1848.24 Q1385.5 1855.34 1387.3 1858.91 Q1389.13 1862.45 1392.74 1862.45 Q1396.38 1862.45 1398.18 1858.91 Q1400.01 1855.34 1400.01 1848.24 Q1400.01 1841.11 1398.18 1837.57 Q1396.38 1834 1392.74 1834 M1392.74 1830.3 Q1398.55 1830.3 1401.61 1834.9 Q1404.69 1839.49 1404.69 1848.24 Q1404.69 1856.96 1401.61 1861.57 Q1398.55 1866.15 1392.74 1866.15 Q1386.93 1866.15 1383.86 1861.57 Q1380.8 1856.96 1380.8 1848.24 Q1380.8 1839.49 1383.86 1834.9 Q1386.93 1830.3 1392.74 1830.3 Z" fill="#000000" fill-rule="evenodd" fill-opacity="1" /><path clip-path="url(#clip190)" d="M1858.34 1861.55 L1874.66 1861.55 L1874.66 1865.48 L1852.72 1865.48 L1852.72 1861.55 Q1855.38 1858.79 1859.97 1854.16 Q1864.57 1849.51 1865.75 1848.17 Q1868 1845.65 1868.88 1843.91 Q1869.78 1842.15 1869.78 1840.46 Q1869.78 1837.71 1867.84 1835.97 Q1865.91 1834.23 1862.81 1834.23 Q1860.61 1834.23 1858.16 1835 Q1855.73 1835.76 1852.95 1837.31 L1852.95 1832.59 Q1855.78 1831.46 1858.23 1830.88 Q1860.68 1830.3 1862.72 1830.3 Q1868.09 1830.3 1871.28 1832.98 Q1874.48 1835.67 1874.48 1840.16 Q1874.48 1842.29 1873.67 1844.21 Q1872.88 1846.11 1870.78 1848.7 Q1870.2 1849.37 1867.09 1852.59 Q1863.99 1855.78 1858.34 1861.55 Z" fill="#000000" fill-rule="evenodd" fill-opacity="1" /><path clip-path="url(#clip190)" d="M2337.65 1835 L2325.84 1853.45 L2337.65 1853.45 L2337.65 1835 M2336.42 1830.92 L2342.3 1830.92 L2342.3 1853.45 L2347.23 1853.45 L2347.23 1857.34 L2342.3 1857.34 L2342.3 1865.48 L2337.65 1865.48 L2337.65 1857.34 L2322.05 1857.34 L2322.05 1852.82 L2336.42 1830.92 Z" fill="#000000" fill-rule="evenodd" fill-opacity="1" /><polyline clip-path="url(#clip192)" style="stroke:#000000; stroke-linecap:butt; stroke-linejoin:round; stroke-width:2; stroke-opacity:0.1; fill:none" points="
  144.733,1640.9 2640.76,1640.9 
  "/>
<polyline clip-path="url(#clip192)" style="stroke:#000000; stroke-linecap:butt; stroke-linejoin:round; stroke-width:2; stroke-opacity:0.1; fill:none" points="
  144.733,1199.75 2640.76,1199.75 
  "/>
<polyline clip-path="url(#clip192)" style="stroke:#000000; stroke-linecap:butt; stroke-linejoin:round; stroke-width:2; stroke-opacity:0.1; fill:none" points="
  144.733,758.6 2640.76,758.6 
  "/>
<polyline clip-path="url(#clip192)" style="stroke:#000000; stroke-linecap:butt; stroke-linejoin:round; stroke-width:2; stroke-opacity:0.1; fill:none" points="
  144.733,317.448 2640.76,317.448 
  "/>
<polyline clip-path="url(#clip190)" style="stroke:#000000; stroke-linecap:butt; stroke-linejoin:round; stroke-width:4; stroke-opacity:1; fill:none" points="
  144.733,1800.78 144.733,47.2441 
  "/>
<polyline clip-path="url(#clip190)" style="stroke:#000000; stroke-linecap:butt; stroke-linejoin:round; stroke-width:4; stroke-opacity:1; fill:none" points="
  144.733,1640.9 163.631,1640.9 
  "/>
<polyline clip-path="url(#clip190)" style="stroke:#000000; stroke-linecap:butt; stroke-linejoin:round; stroke-width:4; stroke-opacity:1; fill:none" points="
  144.733,1199.75 163.631,1199.75 
  "/>
<polyline clip-path="url(#clip190)" style="stroke:#000000; stroke-linecap:butt; stroke-linejoin:round; stroke-width:4; stroke-opacity:1; fill:none" points="
  144.733,758.6 163.631,758.6 
  "/>
<polyline clip-path="url(#clip190)" style="stroke:#000000; stroke-linecap:butt; stroke-linejoin:round; stroke-width:4; stroke-opacity:1; fill:none" points="
  144.733,317.448 163.631,317.448 
  "/>
<path clip-path="url(#clip190)" d="M92.4686 1626.7 Q88.8575 1626.7 87.0288 1630.27 Q85.2232 1633.81 85.2232 1640.94 Q85.2232 1648.04 87.0288 1651.61 Q88.8575 1655.15 92.4686 1655.15 Q96.1028 1655.15 97.9083 1651.61 Q99.737 1648.04 99.737 1640.94 Q99.737 1633.81 97.9083 1630.27 Q96.1028 1626.7 92.4686 1626.7 M92.4686 1623 Q98.2787 1623 101.334 1627.6 Q104.413 1632.19 104.413 1640.94 Q104.413 1649.66 101.334 1654.27 Q98.2787 1658.85 92.4686 1658.85 Q86.6584 1658.85 83.5797 1654.27 Q80.5242 1649.66 80.5242 1640.94 Q80.5242 1632.19 83.5797 1627.6 Q86.6584 1623 92.4686 1623 Z" fill="#000000" fill-rule="evenodd" fill-opacity="1" /><path clip-path="url(#clip190)" d="M56.3345 1213.1 L72.6539 1213.1 L72.6539 1217.03 L50.7095 1217.03 L50.7095 1213.1 Q53.3715 1210.34 57.9549 1205.71 Q62.5613 1201.06 63.7419 1199.72 Q65.9872 1197.19 66.8668 1195.46 Q67.7696 1193.7 67.7696 1192.01 Q67.7696 1189.25 65.8252 1187.52 Q63.9039 1185.78 60.8021 1185.78 Q58.603 1185.78 56.1493 1186.55 Q53.7188 1187.31 50.941 1188.86 L50.941 1184.14 Q53.7651 1183 56.2188 1182.43 Q58.6724 1181.85 60.7095 1181.85 Q66.0798 1181.85 69.2742 1184.53 Q72.4687 1187.22 72.4687 1191.71 Q72.4687 1193.84 71.6585 1195.76 Q70.8715 1197.66 68.765 1200.25 Q68.1863 1200.92 65.0845 1204.14 Q61.9826 1207.33 56.3345 1213.1 Z" fill="#000000" fill-rule="evenodd" fill-opacity="1" /><path clip-path="url(#clip190)" d="M92.4686 1185.55 Q88.8575 1185.55 87.0288 1189.12 Q85.2232 1192.66 85.2232 1199.79 Q85.2232 1206.89 87.0288 1210.46 Q88.8575 1214 92.4686 1214 Q96.1028 1214 97.9083 1210.46 Q99.737 1206.89 99.737 1199.79 Q99.737 1192.66 97.9083 1189.12 Q96.1028 1185.55 92.4686 1185.55 M92.4686 1181.85 Q98.2787 1181.85 101.334 1186.45 Q104.413 1191.04 104.413 1199.79 Q104.413 1208.51 101.334 1213.12 Q98.2787 1217.7 92.4686 1217.7 Q86.6584 1217.7 83.5797 1213.12 Q80.5242 1208.51 80.5242 1199.79 Q80.5242 1191.04 83.5797 1186.45 Q86.6584 1181.85 92.4686 1181.85 Z" fill="#000000" fill-rule="evenodd" fill-opacity="1" /><path clip-path="url(#clip190)" d="M65.1539 745.394 L53.3484 763.843 L65.1539 763.843 L65.1539 745.394 M63.927 741.32 L69.8066 741.32 L69.8066 763.843 L74.7372 763.843 L74.7372 767.732 L69.8066 767.732 L69.8066 775.88 L65.1539 775.88 L65.1539 767.732 L49.5521 767.732 L49.5521 763.218 L63.927 741.32 Z" fill="#000000" fill-rule="evenodd" fill-opacity="1" /><path clip-path="url(#clip190)" d="M92.4686 744.399 Q88.8575 744.399 87.0288 747.963 Q85.2232 751.505 85.2232 758.635 Q85.2232 765.741 87.0288 769.306 Q88.8575 772.848 92.4686 772.848 Q96.1028 772.848 97.9083 769.306 Q99.737 765.741 99.737 758.635 Q99.737 751.505 97.9083 747.963 Q96.1028 744.399 92.4686 744.399 M92.4686 740.695 Q98.2787 740.695 101.334 745.301 Q104.413 749.885 104.413 758.635 Q104.413 767.362 101.334 771.968 Q98.2787 776.551 92.4686 776.551 Q86.6584 776.551 83.5797 771.968 Q80.5242 767.362 80.5242 758.635 Q80.5242 749.885 83.5797 745.301 Q86.6584 740.695 92.4686 740.695 Z" fill="#000000" fill-rule="evenodd" fill-opacity="1" /><path clip-path="url(#clip190)" d="M62.8854 315.585 Q59.7373 315.585 57.8854 317.738 Q56.0567 319.89 56.0567 323.64 Q56.0567 327.367 57.8854 329.543 Q59.7373 331.696 62.8854 331.696 Q66.0335 331.696 67.8622 329.543 Q69.7141 327.367 69.7141 323.64 Q69.7141 319.89 67.8622 317.738 Q66.0335 315.585 62.8854 315.585 M72.1677 300.932 L72.1677 305.191 Q70.4085 304.358 68.6029 303.918 Q66.8206 303.478 65.0613 303.478 Q60.4317 303.478 57.978 306.603 Q55.5475 309.728 55.2002 316.048 Q56.566 314.034 58.6262 312.969 Q60.6863 311.881 63.1632 311.881 Q68.3715 311.881 71.3807 315.052 Q74.4131 318.201 74.4131 323.64 Q74.4131 328.964 71.265 332.182 Q68.1168 335.4 62.8854 335.4 Q56.89 335.4 53.7188 330.816 Q50.5475 326.21 50.5475 317.483 Q50.5475 309.289 54.4364 304.428 Q58.3252 299.543 64.8761 299.543 Q66.6354 299.543 68.4178 299.891 Q70.2233 300.238 72.1677 300.932 Z" fill="#000000" fill-rule="evenodd" fill-opacity="1" /><path clip-path="url(#clip190)" d="M92.4686 303.247 Q88.8575 303.247 87.0288 306.812 Q85.2232 310.353 85.2232 317.483 Q85.2232 324.589 87.0288 328.154 Q88.8575 331.696 92.4686 331.696 Q96.1028 331.696 97.9083 328.154 Q99.737 324.589 99.737 317.483 Q99.737 310.353 97.9083 306.812 Q96.1028 303.247 92.4686 303.247 M92.4686 299.543 Q98.2787 299.543 101.334 304.15 Q104.413 308.733 104.413 317.483 Q104.413 326.21 101.334 330.816 Q98.2787 335.4 92.4686 335.4 Q86.6584 335.4 83.5797 330.816 Q80.5242 326.21 80.5242 317.483 Q80.5242 308.733 83.5797 304.15 Q86.6584 299.543 92.4686 299.543 Z" fill="#000000" fill-rule="evenodd" fill-opacity="1" /><polyline clip-path="url(#clip192)" style="stroke:#009af9; stroke-linecap:butt; stroke-linejoin:round; stroke-width:4; stroke-opacity:1; fill:none" points="
  215.375,96.8725 226.873,129.026 238.371,160.864 344.686,440.307 451.002,692.771 514.893,831.513 578.784,960.512 632.803,1061.98 686.822,1156.48 745.502,1251.24 
  804.182,1337.78 858.28,1410.29 912.378,1475.81 970.376,1538.29 1028.37,1592.75 1095.57,1645.8 1162.77,1688.07 1222.48,1716.6 1282.2,1736.61 1334.57,1747.15 
  1386.93,1751.15 1444.03,1748.05 1501.12,1737.17 1558.55,1718.38 1615.98,1691.72 1679.48,1653.07 1742.98,1604.8 1803.4,1549.93 1863.82,1486.36 1926.64,1411.02 
  1989.46,1326.25 2042.34,1247.6 2095.22,1162.27 2159.78,1049.04 2224.35,925.869 2285.04,801.009 2345.73,667.357 2442.96,434.913 2540.19,179.904 2555.15,138.655 
  2570.11,96.8724 
  "/>
<path clip-path="url(#clip190)" d="
M2227.79 209.375 L2557.56 209.375 L2557.56 105.695 L2227.79 105.695  Z
  " fill="#ffffff" fill-rule="evenodd" fill-opacity="1"/>
<polyline clip-path="url(#clip190)" style="stroke:#000000; stroke-linecap:butt; stroke-linejoin:round; stroke-width:4; stroke-opacity:1; fill:none" points="
  2227.79,209.375 2557.56,209.375 2557.56,105.695 2227.79,105.695 2227.79,209.375 
  "/>
<polyline clip-path="url(#clip190)" style="stroke:#009af9; stroke-linecap:butt; stroke-linejoin:round; stroke-width:4; stroke-opacity:1; fill:none" points="
  2255.52,157.535 2421.92,157.535 
  "/>
<path clip-path="url(#clip190)" d="M2463.5 177.223 Q2461.69 181.852 2459.98 183.264 Q2458.27 184.676 2455.4 184.676 L2452 184.676 L2452 181.112 L2454.5 181.112 Q2456.25 181.112 2457.23 180.278 Q2458.2 179.445 2459.38 176.343 L2460.14 174.399 L2449.66 148.889 L2454.17 148.889 L2462.27 169.167 L2470.38 148.889 L2474.89 148.889 L2463.5 177.223 Z" fill="#000000" fill-rule="evenodd" fill-opacity="1" /><path clip-path="url(#clip190)" d="M2482.18 170.88 L2489.82 170.88 L2489.82 144.515 L2481.51 146.181 L2481.51 141.922 L2489.77 140.255 L2494.45 140.255 L2494.45 170.88 L2502.09 170.88 L2502.09 174.815 L2482.18 174.815 L2482.18 170.88 Z" fill="#000000" fill-rule="evenodd" fill-opacity="1" /></svg>
