<?xml version="1.0" encoding="utf-8"?>
<svg xmlns="http://www.w3.org/2000/svg" xmlns:xlink="http://www.w3.org/1999/xlink" width="672" height="480" viewBox="0 0 2688 1920">
<defs>
  <clipPath id="clip190">
    <rect x="0" y="0" width="2688" height="1920"/>
  </clipPath>
</defs>
<path clip-path="url(#clip190)" d="
M0 1920 L2688 1920 L2688 0 L0 0  Z
  " fill="#ffffff" fill-rule="evenodd" fill-opacity="1"/>
<defs>
  <clipPath id="clip191">
    <rect x="537" y="0" width="1883" height="1883"/>
  </clipPath>
</defs>
<path clip-path="url(#clip190)" d="
M115.057 1800.78 L2640.76 1800.78 L2640.76 47.2441 L115.057 47.2441  Z
  " fill="#ffffff" fill-rule="evenodd" fill-opacity="1"/>
<defs>
  <clipPath id="clip192">
    <rect x="115" y="47" width="2527" height="1755"/>
  </clipPath>
</defs>
<polyline clip-path="url(#clip192)" style="stroke:#000000; stroke-linecap:butt; stroke-linejoin:round; stroke-width:2; stroke-opacity:0.1; fill:none" points="
  186.539,1800.78 186.539,47.2441 
  "/>
<polyline clip-path="url(#clip192)" style="stroke:#000000; stroke-linecap:butt; stroke-linejoin:round; stroke-width:2; stroke-opacity:0.1; fill:none" points="
  782.223,1800.78 782.223,47.2441 
  "/>
<polyline clip-path="url(#clip192)" style="stroke:#000000; stroke-linecap:butt; stroke-linejoin:round; stroke-width:2; stroke-opacity:0.1; fill:none" points="
  1377.91,1800.78 1377.91,47.2441 
  "/>
<polyline clip-path="url(#clip192)" style="stroke:#000000; stroke-linecap:butt; stroke-linejoin:round; stroke-width:2; stroke-opacity:0.1; fill:none" points="
  1973.59,1800.78 1973.59,47.2441 
  "/>
<polyline clip-path="url(#clip192)" style="stroke:#000000; stroke-linecap:butt; stroke-linejoin:round; stroke-width:2; stroke-opacity:0.1; fill:none" points="
  2569.27,1800.78 2569.27,47.2441 
  "/>
<polyline clip-path="url(#clip190)" style="stroke:#000000; stroke-linecap:butt; stroke-linejoin:round; stroke-width:4; stroke-opacity:1; fill:none" points="
  115.057,1800.78 2640.76,1800.78 
  "/>
<polyline clip-path="url(#clip190)" style="stroke:#000000; stroke-linecap:butt; stroke-linejoin:round; stroke-width:4; stroke-opacity:1; fill:none" points="
  186.539,1800.78 186.539,1781.88 
  "/>
<polyline clip-path="url(#clip190)" style="stroke:#000000; stroke-linecap:butt; stroke-linejoin:round; stroke-width:4; stroke-opacity:1; fill:none" points="
  782.223,1800.78 782.223,1781.88 
  "/>
<polyline clip-path="url(#clip190)" style="stroke:#000000; stroke-linecap:butt; stroke-linejoin:round; stroke-width:4; stroke-opacity:1; fill:none" points="
  1377.91,1800.78 1377.91,1781.88 
  "/>
<polyline clip-path="url(#clip190)" style="stroke:#000000; stroke-linecap:butt; stroke-linejoin:round; stroke-width:4; stroke-opacity:1; fill:none" points="
  1973.59,1800.78 1973.59,1781.88 
  "/>
<polyline clip-path="url(#clip190)" style="stroke:#000000; stroke-linecap:butt; stroke-linejoin:round; stroke-width:4; stroke-opacity:1; fill:none" points="
  2569.27,1800.78 2569.27,1781.88 
  "/>
<path clip-path="url(#clip190)" d="M186.539 1834 Q182.928 1834 181.099 1837.57 Q179.294 1841.11 179.294 1848.24 Q179.294 1855.34 181.099 1858.91 Q182.928 1862.45 186.539 1862.45 Q190.173 1862.45 191.979 1858.91 Q193.808 1855.34 193.808 1848.24 Q193.808 1841.11 191.979 1837.57 Q190.173 1834 186.539 1834 M186.539 1830.3 Q192.349 1830.3 195.405 1834.9 Q198.484 1839.49 198.484 1848.24 Q198.484 1856.96 195.405 1861.57 Q192.349 1866.15 186.539 1866.15 Q180.729 1866.15 177.65 1861.57 Q174.595 1856.96 174.595 1848.24 Q174.595 1839.49 177.65 1834.9 Q180.729 1830.3 186.539 1830.3 Z" fill="#000000" fill-rule="evenodd" fill-opacity="1" /><path clip-path="url(#clip190)" d="M756.911 1861.55 L764.549 1861.55 L764.549 1835.18 L756.239 1836.85 L756.239 1832.59 L764.503 1830.92 L769.179 1830.92 L769.179 1861.55 L776.818 1861.55 L776.818 1865.48 L756.911 1865.48 L756.911 1861.55 Z" fill="#000000" fill-rule="evenodd" fill-opacity="1" /><path clip-path="url(#clip190)" d="M796.262 1834 Q792.651 1834 790.822 1837.57 Q789.017 1841.11 789.017 1848.24 Q789.017 1855.34 790.822 1858.91 Q792.651 1862.45 796.262 1862.45 Q799.896 1862.45 801.702 1858.91 Q803.531 1855.34 803.531 1848.24 Q803.531 1841.11 801.702 1837.57 Q799.896 1834 796.262 1834 M796.262 1830.3 Q802.072 1830.3 805.128 1834.9 Q808.207 1839.49 808.207 1848.24 Q808.207 1856.96 805.128 1861.57 Q802.072 1866.15 796.262 1866.15 Q790.452 1866.15 787.373 1861.57 Q784.318 1856.96 784.318 1848.24 Q784.318 1839.49 787.373 1834.9 Q790.452 1830.3 796.262 1830.3 Z" fill="#000000" fill-rule="evenodd" fill-opacity="1" /><path clip-path="url(#clip190)" d="M1356.68 1861.55 L1373 1861.55 L1373 1865.48 L1351.05 1865.48 L1351.05 1861.55 Q1353.72 1858.79 1358.3 1854.16 Q1362.91 1849.51 1364.09 1848.17 Q1366.33 1845.65 1367.21 1843.91 Q1368.11 1842.15 1368.11 1840.46 Q1368.11 1837.71 1366.17 1835.97 Q1364.25 1834.23 1361.15 1834.23 Q1358.95 1834.23 1356.49 1835 Q1354.06 1835.76 1351.29 1837.31 L1351.29 1832.59 Q1354.11 1831.46 1356.56 1830.88 Q1359.02 1830.3 1361.05 1830.3 Q1366.43 1830.3 1369.62 1832.98 Q1372.81 1835.67 1372.81 1840.16 Q1372.81 1842.29 1372 1844.21 Q1371.22 1846.11 1369.11 1848.7 Q1368.53 1849.37 1365.43 1852.59 Q1362.33 1855.78 1356.68 1861.55 Z" fill="#000000" fill-rule="evenodd" fill-opacity="1" /><path clip-path="url(#clip190)" d="M1392.81 1834 Q1389.2 1834 1387.37 1837.57 Q1385.57 1841.11 1385.57 1848.24 Q1385.57 1855.34 1387.37 1858.91 Q1389.2 1862.45 1392.81 1862.45 Q1396.45 1862.45 1398.25 1858.91 Q1400.08 1855.34 1400.08 1848.24 Q1400.08 1841.11 1398.25 1837.57 Q1396.45 1834 1392.81 1834 M1392.81 1830.3 Q1398.62 1830.3 1401.68 1834.9 Q1404.76 1839.49 1404.76 1848.24 Q1404.76 1856.96 1401.68 1861.57 Q1398.62 1866.15 1392.81 1866.15 Q1387 1866.15 1383.93 1861.57 Q1380.87 1856.96 1380.87 1848.24 Q1380.87 1839.49 1383.93 1834.9 Q1387 1830.3 1392.81 1830.3 Z" fill="#000000" fill-rule="evenodd" fill-opacity="1" /><path clip-path="url(#clip190)" d="M1962.43 1846.85 Q1965.79 1847.57 1967.66 1849.84 Q1969.56 1852.1 1969.56 1855.44 Q1969.56 1860.55 1966.04 1863.35 Q1962.53 1866.15 1956.04 1866.15 Q1953.87 1866.15 1951.55 1865.71 Q1949.26 1865.3 1946.81 1864.44 L1946.81 1859.93 Q1948.75 1861.06 1951.07 1861.64 Q1953.38 1862.22 1955.91 1862.22 Q1960.3 1862.22 1962.59 1860.48 Q1964.91 1858.75 1964.91 1855.44 Q1964.91 1852.38 1962.76 1850.67 Q1960.63 1848.93 1956.81 1848.93 L1952.78 1848.93 L1952.78 1845.09 L1956.99 1845.09 Q1960.44 1845.09 1962.27 1843.72 Q1964.1 1842.34 1964.1 1839.74 Q1964.1 1837.08 1962.2 1835.67 Q1960.33 1834.23 1956.81 1834.23 Q1954.89 1834.23 1952.69 1834.65 Q1950.49 1835.07 1947.85 1835.95 L1947.85 1831.78 Q1950.51 1831.04 1952.83 1830.67 Q1955.16 1830.3 1957.22 1830.3 Q1962.55 1830.3 1965.65 1832.73 Q1968.75 1835.14 1968.75 1839.26 Q1968.75 1842.13 1967.11 1844.12 Q1965.47 1846.09 1962.43 1846.85 Z" fill="#000000" fill-rule="evenodd" fill-opacity="1" /><path clip-path="url(#clip190)" d="M1988.43 1834 Q1984.82 1834 1982.99 1837.57 Q1981.18 1841.11 1981.18 1848.24 Q1981.18 1855.34 1982.99 1858.91 Q1984.82 1862.45 1988.43 1862.45 Q1992.06 1862.45 1993.87 1858.91 Q1995.7 1855.34 1995.7 1848.24 Q1995.7 1841.11 1993.87 1837.57 Q1992.06 1834 1988.43 1834 M1988.43 1830.3 Q1994.24 1830.3 1997.29 1834.9 Q2000.37 1839.49 2000.37 1848.24 Q2000.37 1856.96 1997.29 1861.57 Q1994.24 1866.15 1988.43 1866.15 Q1982.62 1866.15 1979.54 1861.57 Q1976.48 1856.96 1976.48 1848.24 Q1976.48 1839.49 1979.54 1834.9 Q1982.62 1830.3 1988.43 1830.3 Z" fill="#000000" fill-rule="evenodd" fill-opacity="1" /><path clip-path="url(#clip190)" d="M2557.45 1835 L2545.64 1853.45 L2557.45 1853.45 L2557.45 1835 M2556.22 1830.92 L2562.1 1830.92 L2562.1 1853.45 L2567.03 1853.45 L2567.03 1857.34 L2562.1 1857.34 L2562.1 1865.48 L2557.45 1865.48 L2557.45 1857.34 L2541.84 1857.34 L2541.84 1852.82 L2556.22 1830.92 Z" fill="#000000" fill-rule="evenodd" fill-opacity="1" /><path clip-path="url(#clip190)" d="M2584.76 1834 Q2581.15 1834 2579.32 1837.57 Q2577.51 1841.11 2577.51 1848.24 Q2577.51 1855.34 2579.32 1858.91 Q2581.15 1862.45 2584.76 1862.45 Q2588.39 1862.45 2590.2 1858.91 Q2592.03 1855.34 2592.03 1848.24 Q2592.03 1841.11 2590.2 1837.57 Q2588.39 1834 2584.76 1834 M2584.76 1830.3 Q2590.57 1830.3 2593.63 1834.9 Q2596.7 1839.49 2596.7 1848.24 Q2596.7 1856.96 2593.63 1861.57 Q2590.57 1866.15 2584.76 1866.15 Q2578.95 1866.15 2575.87 1861.57 Q2572.82 1856.96 2572.82 1848.24 Q2572.82 1839.49 2575.87 1834.9 Q2578.95 1830.3 2584.76 1830.3 Z" fill="#000000" fill-rule="evenodd" fill-opacity="1" /><polyline clip-path="url(#clip192)" style="stroke:#000000; stroke-linecap:butt; stroke-linejoin:round; stroke-width:2; stroke-opacity:0.1; fill:none" points="
  115.057,1552.34 2640.76,1552.34 
  "/>
<polyline clip-path="url(#clip192)" style="stroke:#000000; stroke-linecap:butt; stroke-linejoin:round; stroke-width:2; stroke-opacity:0.1; fill:none" points="
  115.057,1296.41 2640.76,1296.41 
  "/>
<polyline clip-path="url(#clip192)" style="stroke:#000000; stroke-linecap:butt; stroke-linejoin:round; stroke-width:2; stroke-opacity:0.1; fill:none" points="
  115.057,1040.48 2640.76,1040.48 
  "/>
<polyline clip-path="url(#clip192)" style="stroke:#000000; stroke-linecap:butt; stroke-linejoin:round; stroke-width:2; stroke-opacity:0.1; fill:none" points="
  115.057,784.552 2640.76,784.552 
  "/>
<polyline clip-path="url(#clip192)" style="stroke:#000000; stroke-linecap:butt; stroke-linejoin:round; stroke-width:2; stroke-opacity:0.1; fill:none" points="
  115.057,528.624 2640.76,528.624 
  "/>
<polyline clip-path="url(#clip192)" style="stroke:#000000; stroke-linecap:butt; stroke-linejoin:round; stroke-width:2; stroke-opacity:0.1; fill:none" points="
  115.057,272.695 2640.76,272.695 
  "/>
<polyline clip-path="url(#clip190)" style="stroke:#000000; stroke-linecap:butt; stroke-linejoin:round; stroke-width:4; stroke-opacity:1; fill:none" points="
  115.057,1800.78 115.057,47.2441 
  "/>
<polyline clip-path="url(#clip190)" style="stroke:#000000; stroke-linecap:butt; stroke-linejoin:round; stroke-width:4; stroke-opacity:1; fill:none" points="
  115.057,1552.34 133.955,1552.34 
  "/>
<polyline clip-path="url(#clip190)" style="stroke:#000000; stroke-linecap:butt; stroke-linejoin:round; stroke-width:4; stroke-opacity:1; fill:none" points="
  115.057,1296.41 133.955,1296.41 
  "/>
<polyline clip-path="url(#clip190)" style="stroke:#000000; stroke-linecap:butt; stroke-linejoin:round; stroke-width:4; stroke-opacity:1; fill:none" points="
  115.057,1040.48 133.955,1040.48 
  "/>
<polyline clip-path="url(#clip190)" style="stroke:#000000; stroke-linecap:butt; stroke-linejoin:round; stroke-width:4; stroke-opacity:1; fill:none" points="
  115.057,784.552 133.955,784.552 
  "/>
<polyline clip-path="url(#clip190)" style="stroke:#000000; stroke-linecap:butt; stroke-linejoin:round; stroke-width:4; stroke-opacity:1; fill:none" points="
  115.057,528.624 133.955,528.624 
  "/>
<polyline clip-path="url(#clip190)" style="stroke:#000000; stroke-linecap:butt; stroke-linejoin:round; stroke-width:4; stroke-opacity:1; fill:none" points="
  115.057,272.695 133.955,272.695 
  "/>
<path clip-path="url(#clip190)" d="M54.8299 1565.68 L62.4687 1565.68 L62.4687 1539.32 L54.1586 1540.98 L54.1586 1536.72 L62.4224 1535.06 L67.0983 1535.06 L67.0983 1565.68 L74.7372 1565.68 L74.7372 1569.62 L54.8299 1569.62 L54.8299 1565.68 Z" fill="#000000" fill-rule="evenodd" fill-opacity="1" /><path clip-path="url(#clip190)" d="M58.4178 1309.75 L74.7372 1309.75 L74.7372 1313.69 L52.7928 1313.69 L52.7928 1309.75 Q55.4549 1307 60.0382 1302.37 Q64.6446 1297.72 65.8252 1296.37 Q68.0705 1293.85 68.9502 1292.11 Q69.8529 1290.36 69.8529 1288.67 Q69.8529 1285.91 67.9085 1284.17 Q65.9872 1282.44 62.8854 1282.44 Q60.6863 1282.44 58.2326 1283.2 Q55.8021 1283.97 53.0243 1285.52 L53.0243 1280.8 Q55.8484 1279.66 58.3021 1279.08 Q60.7558 1278.5 62.7928 1278.5 Q68.1631 1278.5 71.3576 1281.19 Q74.552 1283.87 74.552 1288.36 Q74.552 1290.49 73.7418 1292.42 Q72.9548 1294.31 70.8483 1296.91 Q70.2696 1297.58 67.1678 1300.8 Q64.0659 1303.99 58.4178 1309.75 Z" fill="#000000" fill-rule="evenodd" fill-opacity="1" /><path clip-path="url(#clip190)" d="M67.6076 1039.13 Q70.964 1039.84 72.839 1042.11 Q74.7372 1044.38 74.7372 1047.71 Q74.7372 1052.83 71.2187 1055.63 Q67.7002 1058.43 61.2187 1058.43 Q59.0428 1058.43 56.728 1057.99 Q54.4364 1057.58 51.9827 1056.72 L51.9827 1052.2 Q53.9271 1053.34 56.2419 1053.92 Q58.5567 1054.5 61.0798 1054.5 Q65.478 1054.5 67.7696 1052.76 Q70.0844 1051.02 70.0844 1047.71 Q70.0844 1044.66 67.9317 1042.95 Q65.802 1041.21 61.9826 1041.21 L57.9549 1041.21 L57.9549 1037.37 L62.1678 1037.37 Q65.6169 1037.37 67.4455 1036 Q69.2742 1034.61 69.2742 1032.02 Q69.2742 1029.36 67.3761 1027.95 Q65.5011 1026.51 61.9826 1026.51 Q60.0613 1026.51 57.8623 1026.93 Q55.6632 1027.34 53.0243 1028.22 L53.0243 1024.06 Q55.6864 1023.32 58.0012 1022.95 Q60.3391 1022.58 62.3993 1022.58 Q67.7233 1022.58 70.8252 1025.01 Q73.927 1027.41 73.927 1031.53 Q73.927 1034.4 72.2835 1036.39 Q70.64 1038.36 67.6076 1039.13 Z" fill="#000000" fill-rule="evenodd" fill-opacity="1" /><path clip-path="url(#clip190)" d="M65.1539 771.346 L53.3484 789.795 L65.1539 789.795 L65.1539 771.346 M63.927 767.272 L69.8066 767.272 L69.8066 789.795 L74.7372 789.795 L74.7372 793.684 L69.8066 793.684 L69.8066 801.832 L65.1539 801.832 L65.1539 793.684 L49.5521 793.684 L49.5521 789.17 L63.927 767.272 Z" fill="#000000" fill-rule="evenodd" fill-opacity="1" /><path clip-path="url(#clip190)" d="M53.8345 511.344 L72.1909 511.344 L72.1909 515.279 L58.1169 515.279 L58.1169 523.751 Q59.1354 523.404 60.1539 523.242 Q61.1724 523.056 62.1909 523.056 Q67.978 523.056 71.3576 526.228 Q74.7372 529.399 74.7372 534.816 Q74.7372 540.394 71.265 543.496 Q67.7928 546.575 61.4734 546.575 Q59.2974 546.575 57.0289 546.205 Q54.7836 545.834 52.3762 545.093 L52.3762 540.394 Q54.4595 541.529 56.6817 542.084 Q58.9039 542.64 61.3808 542.64 Q65.3854 542.64 67.7233 540.533 Q70.0613 538.427 70.0613 534.816 Q70.0613 531.205 67.7233 529.098 Q65.3854 526.992 61.3808 526.992 Q59.5058 526.992 57.6308 527.408 Q55.7789 527.825 53.8345 528.705 L53.8345 511.344 Z" fill="#000000" fill-rule="evenodd" fill-opacity="1" /><path clip-path="url(#clip190)" d="M63.2095 270.832 Q60.0613 270.832 58.2095 272.985 Q56.3808 275.137 56.3808 278.887 Q56.3808 282.614 58.2095 284.79 Q60.0613 286.943 63.2095 286.943 Q66.3576 286.943 68.1863 284.79 Q70.0381 282.614 70.0381 278.887 Q70.0381 275.137 68.1863 272.985 Q66.3576 270.832 63.2095 270.832 M72.4918 256.179 L72.4918 260.438 Q70.7326 259.605 68.927 259.165 Q67.1446 258.725 65.3854 258.725 Q60.7558 258.725 58.3021 261.85 Q55.8715 264.975 55.5243 271.295 Q56.89 269.281 58.9502 268.216 Q61.0104 267.128 63.4872 267.128 Q68.6955 267.128 71.7048 270.299 Q74.7372 273.448 74.7372 278.887 Q74.7372 284.211 71.589 287.429 Q68.4409 290.647 63.2095 290.647 Q57.2141 290.647 54.0428 286.063 Q50.8716 281.457 50.8716 272.73 Q50.8716 264.536 54.7604 259.674 Q58.6493 254.79 65.2002 254.79 Q66.9594 254.79 68.7418 255.137 Q70.5474 255.485 72.4918 256.179 Z" fill="#000000" fill-rule="evenodd" fill-opacity="1" /><polyline clip-path="url(#clip192)" style="stroke:#009af9; stroke-linecap:butt; stroke-linejoin:round; stroke-width:4; stroke-opacity:1; fill:none" points="
  186.539,96.8724 190.417,104.82 194.296,112.731 198.174,120.605 202.052,128.442 237.912,199.208 273.772,266.993 309.632,331.922 345.491,394.117 367.042,430.225 
  388.592,465.411 410.142,499.699 431.692,533.112 468.133,587.682 504.574,639.917 544.159,694.129 583.744,745.825 620.238,791.357 656.732,834.937 695.857,879.588 
  734.983,922.19 780.313,969.111 825.644,1013.55 865.928,1051.06 906.213,1086.8 941.538,1116.75 976.864,1145.46 1015.38,1175.4 1053.89,1203.99 1092.64,1231.44 
  1131.38,1257.65 1174.22,1285.25 1217.05,1311.46 1257.81,1335.17 1298.57,1357.76 1383.32,1401.34 1454.67,1434.73 1541.78,1471.81 1621.57,1502.54 1695.27,1528.42 
  1769.92,1552.4 1853.58,1576.85 1929.4,1596.98 2016.2,1618.14 2096.57,1637.47 2175.81,1656.52 2252.74,1675.03 2331.6,1693.99 2418.01,1714.77 2543.52,1744.96 
  2569.27,1751.15 
  "/>
<path clip-path="url(#clip190)" d="
M2223.5 209.375 L2556.57 209.375 L2556.57 105.695 L2223.5 105.695  Z
  " fill="#ffffff" fill-rule="evenodd" fill-opacity="1"/>
<polyline clip-path="url(#clip190)" style="stroke:#000000; stroke-linecap:butt; stroke-linejoin:round; stroke-width:4; stroke-opacity:1; fill:none" points="
  2223.5,209.375 2556.57,209.375 2556.57,105.695 2223.5,105.695 2223.5,209.375 
  "/>
<polyline clip-path="url(#clip190)" style="stroke:#009af9; stroke-linecap:butt; stroke-linejoin:round; stroke-width:4; stroke-opacity:1; fill:none" points="
  2251.57,157.535 2419.95,157.535 
  "/>
<path clip-path="url(#clip190)" d="M2461.85 177.223 Q2460.05 181.852 2458.33 183.264 Q2456.62 184.676 2453.75 184.676 L2450.35 184.676 L2450.35 181.112 L2452.85 181.112 Q2454.61 181.112 2455.58 180.278 Q2456.55 179.445 2457.73 176.343 L2458.5 174.399 L2448.01 148.889 L2452.52 148.889 L2460.62 169.167 L2468.73 148.889 L2473.24 148.889 L2461.85 177.223 Z" fill="#000000" fill-rule="evenodd" fill-opacity="1" /><path clip-path="url(#clip190)" d="M2480.53 170.88 L2488.17 170.88 L2488.17 144.515 L2479.86 146.181 L2479.86 141.922 L2488.12 140.255 L2492.8 140.255 L2492.8 170.88 L2500.44 170.88 L2500.44 174.815 L2480.53 174.815 L2480.53 170.88 Z" fill="#000000" fill-rule="evenodd" fill-opacity="1" /></svg>
