<?xml version="1.0" encoding="utf-8"?>
<svg xmlns="http://www.w3.org/2000/svg" xmlns:xlink="http://www.w3.org/1999/xlink" width="672" height="480" viewBox="0 0 2688 1920">
<defs>
  <clipPath id="clip110">
    <rect x="0" y="0" width="2688" height="1920"/>
  </clipPath>
</defs>
<path clip-path="url(#clip110)" d="
M0 1920 L2688 1920 L2688 0 L0 0  Z
  " fill="#ffffff" fill-rule="evenodd" fill-opacity="1"/>
<defs>
  <clipPath id="clip111">
    <rect x="537" y="0" width="1883" height="1883"/>
  </clipPath>
</defs>
<path clip-path="url(#clip110)" d="
M159.802 1800.78 L2640.76 1800.78 L2640.76 47.2441 L159.802 47.2441  Z
  " fill="#ffffff" fill-rule="evenodd" fill-opacity="1"/>
<defs>
  <clipPath id="clip112">
    <rect x="159" y="47" width="2482" height="1755"/>
  </clipPath>
</defs>
<polyline clip-path="url(#clip112)" style="stroke:#000000; stroke-linecap:butt; stroke-linejoin:round; stroke-width:2; stroke-opacity:0.1; fill:none" points="
  230.018,1800.78 230.018,47.2441 
  "/>
<polyline clip-path="url(#clip112)" style="stroke:#000000; stroke-linecap:butt; stroke-linejoin:round; stroke-width:2; stroke-opacity:0.1; fill:none" points="
  620.105,1800.78 620.105,47.2441 
  "/>
<polyline clip-path="url(#clip112)" style="stroke:#000000; stroke-linecap:butt; stroke-linejoin:round; stroke-width:2; stroke-opacity:0.1; fill:none" points="
  1010.19,1800.78 1010.19,47.2441 
  "/>
<polyline clip-path="url(#clip112)" style="stroke:#000000; stroke-linecap:butt; stroke-linejoin:round; stroke-width:2; stroke-opacity:0.1; fill:none" points="
  1400.28,1800.78 1400.28,47.2441 
  "/>
<polyline clip-path="url(#clip112)" style="stroke:#000000; stroke-linecap:butt; stroke-linejoin:round; stroke-width:2; stroke-opacity:0.1; fill:none" points="
  1790.37,1800.78 1790.37,47.2441 
  "/>
<polyline clip-path="url(#clip112)" style="stroke:#000000; stroke-linecap:butt; stroke-linejoin:round; stroke-width:2; stroke-opacity:0.1; fill:none" points="
  2180.45,1800.78 2180.45,47.2441 
  "/>
<polyline clip-path="url(#clip112)" style="stroke:#000000; stroke-linecap:butt; stroke-linejoin:round; stroke-width:2; stroke-opacity:0.1; fill:none" points="
  2570.54,1800.78 2570.54,47.2441 
  "/>
<polyline clip-path="url(#clip110)" style="stroke:#000000; stroke-linecap:butt; stroke-linejoin:round; stroke-width:4; stroke-opacity:1; fill:none" points="
  159.802,1800.78 2640.76,1800.78 
  "/>
<polyline clip-path="url(#clip110)" style="stroke:#000000; stroke-linecap:butt; stroke-linejoin:round; stroke-width:4; stroke-opacity:1; fill:none" points="
  230.018,1800.78 230.018,1781.88 
  "/>
<polyline clip-path="url(#clip110)" style="stroke:#000000; stroke-linecap:butt; stroke-linejoin:round; stroke-width:4; stroke-opacity:1; fill:none" points="
  620.105,1800.78 620.105,1781.88 
  "/>
<polyline clip-path="url(#clip110)" style="stroke:#000000; stroke-linecap:butt; stroke-linejoin:round; stroke-width:4; stroke-opacity:1; fill:none" points="
  1010.19,1800.78 1010.19,1781.88 
  "/>
<polyline clip-path="url(#clip110)" style="stroke:#000000; stroke-linecap:butt; stroke-linejoin:round; stroke-width:4; stroke-opacity:1; fill:none" points="
  1400.28,1800.78 1400.28,1781.88 
  "/>
<polyline clip-path="url(#clip110)" style="stroke:#000000; stroke-linecap:butt; stroke-linejoin:round; stroke-width:4; stroke-opacity:1; fill:none" points="
  1790.37,1800.78 1790.37,1781.88 
  "/>
<polyline clip-path="url(#clip110)" style="stroke:#000000; stroke-linecap:butt; stroke-linejoin:round; stroke-width:4; stroke-opacity:1; fill:none" points="
  2180.45,1800.78 2180.45,1781.88 
  "/>
<polyline clip-path="url(#clip110)" style="stroke:#000000; stroke-linecap:butt; stroke-linejoin:round; stroke-width:4; stroke-opacity:1; fill:none" points="
  2570.54,1800.78 2570.54,1781.88 
  "/>
<path clip-path="url(#clip110)" d="M182.588 1861.55 L190.227 1861.55 L190.227 1835.18 L181.916 1836.85 L181.916 1832.59 L190.18 1830.92 L194.856 1830.92 L194.856 1861.55 L202.495 1861.55 L202.495 1865.48 L182.588 1865.48 L182.588 1861.55 Z" fill="#000000" fill-rule="evenodd" fill-opacity="1" /><path clip-path="url(#clip110)" d="M211.939 1859.6 L216.824 1859.6 L216.824 1865.48 L211.939 1865.48 L211.939 1859.6 Z" fill="#000000" fill-rule="evenodd" fill-opacity="1" /><path clip-path="url(#clip110)" d="M237.009 1849.07 Q233.675 1849.07 231.754 1850.85 Q229.856 1852.64 229.856 1855.76 Q229.856 1858.89 231.754 1860.67 Q233.675 1862.45 237.009 1862.45 Q240.342 1862.45 242.263 1860.67 Q244.185 1858.86 244.185 1855.76 Q244.185 1852.64 242.263 1850.85 Q240.365 1849.07 237.009 1849.07 M232.333 1847.08 Q229.324 1846.34 227.634 1844.28 Q225.967 1842.22 225.967 1839.26 Q225.967 1835.11 228.907 1832.71 Q231.87 1830.3 237.009 1830.3 Q242.171 1830.3 245.11 1832.71 Q248.05 1835.11 248.05 1839.26 Q248.05 1842.22 246.36 1844.28 Q244.694 1846.34 241.708 1847.08 Q245.087 1847.87 246.962 1850.16 Q248.86 1852.45 248.86 1855.76 Q248.86 1860.78 245.782 1863.47 Q242.726 1866.15 237.009 1866.15 Q231.291 1866.15 228.212 1863.47 Q225.157 1860.78 225.157 1855.76 Q225.157 1852.45 227.055 1850.16 Q228.953 1847.87 232.333 1847.08 M230.62 1839.7 Q230.62 1842.38 232.286 1843.89 Q233.976 1845.39 237.009 1845.39 Q240.018 1845.39 241.708 1843.89 Q243.421 1842.38 243.421 1839.7 Q243.421 1837.01 241.708 1835.51 Q240.018 1834 237.009 1834 Q233.976 1834 232.286 1835.51 Q230.62 1837.01 230.62 1839.7 Z" fill="#000000" fill-rule="evenodd" fill-opacity="1" /><path clip-path="url(#clip110)" d="M257.217 1830.92 L275.573 1830.92 L275.573 1834.86 L261.499 1834.86 L261.499 1843.33 Q262.518 1842.98 263.536 1842.82 Q264.555 1842.64 265.573 1842.64 Q271.36 1842.64 274.74 1845.81 Q278.12 1848.98 278.12 1854.4 Q278.12 1859.97 274.647 1863.08 Q271.175 1866.15 264.856 1866.15 Q262.68 1866.15 260.411 1865.78 Q258.166 1865.41 255.759 1864.67 L255.759 1859.97 Q257.842 1861.11 260.064 1861.66 Q262.286 1862.22 264.763 1862.22 Q268.768 1862.22 271.106 1860.11 Q273.444 1858.01 273.444 1854.4 Q273.444 1850.78 271.106 1848.68 Q268.768 1846.57 264.763 1846.57 Q262.888 1846.57 261.013 1846.99 Q259.161 1847.4 257.217 1848.28 L257.217 1830.92 Z" fill="#000000" fill-rule="evenodd" fill-opacity="1" /><path clip-path="url(#clip110)" d="M572.177 1861.55 L579.816 1861.55 L579.816 1835.18 L571.506 1836.85 L571.506 1832.59 L579.77 1830.92 L584.445 1830.92 L584.445 1861.55 L592.084 1861.55 L592.084 1865.48 L572.177 1865.48 L572.177 1861.55 Z" fill="#000000" fill-rule="evenodd" fill-opacity="1" /><path clip-path="url(#clip110)" d="M601.529 1859.6 L606.413 1859.6 L606.413 1865.48 L601.529 1865.48 L601.529 1859.6 Z" fill="#000000" fill-rule="evenodd" fill-opacity="1" /><path clip-path="url(#clip110)" d="M616.737 1864.77 L616.737 1860.51 Q618.496 1861.34 620.302 1861.78 Q622.107 1862.22 623.843 1862.22 Q628.473 1862.22 630.904 1859.12 Q633.357 1855.99 633.704 1849.65 Q632.362 1851.64 630.302 1852.71 Q628.242 1853.77 625.742 1853.77 Q620.556 1853.77 617.524 1850.65 Q614.515 1847.5 614.515 1842.06 Q614.515 1836.73 617.663 1833.52 Q620.811 1830.3 626.042 1830.3 Q632.038 1830.3 635.186 1834.9 Q638.357 1839.49 638.357 1848.24 Q638.357 1856.41 634.468 1861.29 Q630.603 1866.15 624.052 1866.15 Q622.293 1866.15 620.487 1865.81 Q618.681 1865.46 616.737 1864.77 M626.042 1850.11 Q629.191 1850.11 631.019 1847.96 Q632.871 1845.81 632.871 1842.06 Q632.871 1838.33 631.019 1836.18 Q629.191 1834 626.042 1834 Q622.894 1834 621.043 1836.18 Q619.214 1838.33 619.214 1842.06 Q619.214 1845.81 621.043 1847.96 Q622.894 1850.11 626.042 1850.11 Z" fill="#000000" fill-rule="evenodd" fill-opacity="1" /><path clip-path="url(#clip110)" d="M656.76 1834 Q653.149 1834 651.32 1837.57 Q649.515 1841.11 649.515 1848.24 Q649.515 1855.34 651.32 1858.91 Q653.149 1862.45 656.76 1862.45 Q660.394 1862.45 662.2 1858.91 Q664.028 1855.34 664.028 1848.24 Q664.028 1841.11 662.2 1837.57 Q660.394 1834 656.76 1834 M656.76 1830.3 Q662.57 1830.3 665.626 1834.9 Q668.704 1839.49 668.704 1848.24 Q668.704 1856.96 665.626 1861.57 Q662.57 1866.15 656.76 1866.15 Q650.95 1866.15 647.871 1861.57 Q644.816 1856.96 644.816 1848.24 Q644.816 1839.49 647.871 1834.9 Q650.95 1830.3 656.76 1830.3 Z" fill="#000000" fill-rule="evenodd" fill-opacity="1" /><path clip-path="url(#clip110)" d="M962.762 1861.55 L970.401 1861.55 L970.401 1835.18 L962.09 1836.85 L962.09 1832.59 L970.354 1830.92 L975.03 1830.92 L975.03 1861.55 L982.669 1861.55 L982.669 1865.48 L962.762 1865.48 L962.762 1861.55 Z" fill="#000000" fill-rule="evenodd" fill-opacity="1" /><path clip-path="url(#clip110)" d="M992.113 1859.6 L996.998 1859.6 L996.998 1865.48 L992.113 1865.48 L992.113 1859.6 Z" fill="#000000" fill-rule="evenodd" fill-opacity="1" /><path clip-path="url(#clip110)" d="M1007.32 1864.77 L1007.32 1860.51 Q1009.08 1861.34 1010.89 1861.78 Q1012.69 1862.22 1014.43 1862.22 Q1019.06 1862.22 1021.49 1859.12 Q1023.94 1855.99 1024.29 1849.65 Q1022.95 1851.64 1020.89 1852.71 Q1018.83 1853.77 1016.33 1853.77 Q1011.14 1853.77 1008.11 1850.65 Q1005.1 1847.5 1005.1 1842.06 Q1005.1 1836.73 1008.25 1833.52 Q1011.4 1830.3 1016.63 1830.3 Q1022.62 1830.3 1025.77 1834.9 Q1028.94 1839.49 1028.94 1848.24 Q1028.94 1856.41 1025.05 1861.29 Q1021.19 1866.15 1014.64 1866.15 Q1012.88 1866.15 1011.07 1865.81 Q1009.27 1865.46 1007.32 1864.77 M1016.63 1850.11 Q1019.78 1850.11 1021.6 1847.96 Q1023.46 1845.81 1023.46 1842.06 Q1023.46 1838.33 1021.6 1836.18 Q1019.78 1834 1016.63 1834 Q1013.48 1834 1011.63 1836.18 Q1009.8 1838.33 1009.8 1842.06 Q1009.8 1845.81 1011.63 1847.96 Q1013.48 1850.11 1016.63 1850.11 Z" fill="#000000" fill-rule="evenodd" fill-opacity="1" /><path clip-path="url(#clip110)" d="M1037.39 1830.92 L1055.75 1830.92 L1055.75 1834.86 L1041.67 1834.86 L1041.67 1843.33 Q1042.69 1842.98 1043.71 1842.82 Q1044.73 1842.64 1045.75 1842.64 Q1051.53 1842.64 1054.91 1845.81 Q1058.29 1848.98 1058.29 1854.4 Q1058.29 1859.97 1054.82 1863.08 Q1051.35 1866.15 1045.03 1866.15 Q1042.85 1866.15 1040.59 1865.78 Q1038.34 1865.41 1035.93 1864.67 L1035.93 1859.97 Q1038.02 1861.11 1040.24 1861.66 Q1042.46 1862.22 1044.94 1862.22 Q1048.94 1862.22 1051.28 1860.11 Q1053.62 1858.01 1053.62 1854.4 Q1053.62 1850.78 1051.28 1848.68 Q1048.94 1846.57 1044.94 1846.57 Q1043.06 1846.57 1041.19 1846.99 Q1039.34 1847.4 1037.39 1848.28 L1037.39 1830.92 Z" fill="#000000" fill-rule="evenodd" fill-opacity="1" /><path clip-path="url(#clip110)" d="M1356.44 1861.55 L1372.76 1861.55 L1372.76 1865.48 L1350.81 1865.48 L1350.81 1861.55 Q1353.47 1858.79 1358.06 1854.16 Q1362.66 1849.51 1363.84 1848.17 Q1366.09 1845.65 1366.97 1843.91 Q1367.87 1842.15 1367.87 1840.46 Q1367.87 1837.71 1365.93 1835.97 Q1364.01 1834.23 1360.9 1834.23 Q1358.71 1834.23 1356.25 1835 Q1353.82 1835.76 1351.04 1837.31 L1351.04 1832.59 Q1353.87 1831.46 1356.32 1830.88 Q1358.77 1830.3 1360.81 1830.3 Q1366.18 1830.3 1369.38 1832.98 Q1372.57 1835.67 1372.57 1840.16 Q1372.57 1842.29 1371.76 1844.21 Q1370.97 1846.11 1368.87 1848.7 Q1368.29 1849.37 1365.19 1852.59 Q1362.08 1855.78 1356.44 1861.55 Z" fill="#000000" fill-rule="evenodd" fill-opacity="1" /><path clip-path="url(#clip110)" d="M1382.57 1859.6 L1387.46 1859.6 L1387.46 1865.48 L1382.57 1865.48 L1382.57 1859.6 Z" fill="#000000" fill-rule="evenodd" fill-opacity="1" /><path clip-path="url(#clip110)" d="M1407.64 1834 Q1404.03 1834 1402.2 1837.57 Q1400.39 1841.11 1400.39 1848.24 Q1400.39 1855.34 1402.2 1858.91 Q1404.03 1862.45 1407.64 1862.45 Q1411.27 1862.45 1413.08 1858.91 Q1414.91 1855.34 1414.91 1848.24 Q1414.91 1841.11 1413.08 1837.57 Q1411.27 1834 1407.64 1834 M1407.64 1830.3 Q1413.45 1830.3 1416.51 1834.9 Q1419.58 1839.49 1419.58 1848.24 Q1419.58 1856.96 1416.51 1861.57 Q1413.45 1866.15 1407.64 1866.15 Q1401.83 1866.15 1398.75 1861.57 Q1395.7 1856.96 1395.7 1848.24 Q1395.7 1839.49 1398.75 1834.9 Q1401.83 1830.3 1407.64 1830.3 Z" fill="#000000" fill-rule="evenodd" fill-opacity="1" /><path clip-path="url(#clip110)" d="M1437.8 1834 Q1434.19 1834 1432.36 1837.57 Q1430.56 1841.11 1430.56 1848.24 Q1430.56 1855.34 1432.36 1858.91 Q1434.19 1862.45 1437.8 1862.45 Q1441.44 1862.45 1443.24 1858.91 Q1445.07 1855.34 1445.07 1848.24 Q1445.07 1841.11 1443.24 1837.57 Q1441.44 1834 1437.8 1834 M1437.8 1830.3 Q1443.61 1830.3 1446.67 1834.9 Q1449.75 1839.49 1449.75 1848.24 Q1449.75 1856.96 1446.67 1861.57 Q1443.61 1866.15 1437.8 1866.15 Q1431.99 1866.15 1428.91 1861.57 Q1425.86 1856.96 1425.86 1848.24 Q1425.86 1839.49 1428.91 1834.9 Q1431.99 1830.3 1437.8 1830.3 Z" fill="#000000" fill-rule="evenodd" fill-opacity="1" /><path clip-path="url(#clip110)" d="M1747.02 1861.55 L1763.34 1861.55 L1763.34 1865.48 L1741.4 1865.48 L1741.4 1861.55 Q1744.06 1858.79 1748.64 1854.16 Q1753.25 1849.51 1754.43 1848.17 Q1756.67 1845.65 1757.55 1843.91 Q1758.46 1842.15 1758.46 1840.46 Q1758.46 1837.71 1756.51 1835.97 Q1754.59 1834.23 1751.49 1834.23 Q1749.29 1834.23 1746.84 1835 Q1744.41 1835.76 1741.63 1837.31 L1741.63 1832.59 Q1744.45 1831.46 1746.91 1830.88 Q1749.36 1830.3 1751.4 1830.3 Q1756.77 1830.3 1759.96 1832.98 Q1763.16 1835.67 1763.16 1840.16 Q1763.16 1842.29 1762.35 1844.21 Q1761.56 1846.11 1759.45 1848.7 Q1758.87 1849.37 1755.77 1852.59 Q1752.67 1855.78 1747.02 1861.55 Z" fill="#000000" fill-rule="evenodd" fill-opacity="1" /><path clip-path="url(#clip110)" d="M1773.16 1859.6 L1778.04 1859.6 L1778.04 1865.48 L1773.16 1865.48 L1773.16 1859.6 Z" fill="#000000" fill-rule="evenodd" fill-opacity="1" /><path clip-path="url(#clip110)" d="M1798.22 1834 Q1794.61 1834 1792.79 1837.57 Q1790.98 1841.11 1790.98 1848.24 Q1790.98 1855.34 1792.79 1858.91 Q1794.61 1862.45 1798.22 1862.45 Q1801.86 1862.45 1803.66 1858.91 Q1805.49 1855.34 1805.49 1848.24 Q1805.49 1841.11 1803.66 1837.57 Q1801.86 1834 1798.22 1834 M1798.22 1830.3 Q1804.04 1830.3 1807.09 1834.9 Q1810.17 1839.49 1810.17 1848.24 Q1810.17 1856.96 1807.09 1861.57 Q1804.04 1866.15 1798.22 1866.15 Q1792.41 1866.15 1789.34 1861.57 Q1786.28 1856.96 1786.28 1848.24 Q1786.28 1839.49 1789.34 1834.9 Q1792.41 1830.3 1798.22 1830.3 Z" fill="#000000" fill-rule="evenodd" fill-opacity="1" /><path clip-path="url(#clip110)" d="M1818.43 1830.92 L1836.79 1830.92 L1836.79 1834.86 L1822.72 1834.86 L1822.72 1843.33 Q1823.73 1842.98 1824.75 1842.82 Q1825.77 1842.64 1826.79 1842.64 Q1832.58 1842.64 1835.96 1845.81 Q1839.34 1848.98 1839.34 1854.4 Q1839.34 1859.97 1835.86 1863.08 Q1832.39 1866.15 1826.07 1866.15 Q1823.9 1866.15 1821.63 1865.78 Q1819.38 1865.41 1816.97 1864.67 L1816.97 1859.97 Q1819.06 1861.11 1821.28 1861.66 Q1823.5 1862.22 1825.98 1862.22 Q1829.98 1862.22 1832.32 1860.11 Q1834.66 1858.01 1834.66 1854.4 Q1834.66 1850.78 1832.32 1848.68 Q1829.98 1846.57 1825.98 1846.57 Q1824.1 1846.57 1822.23 1846.99 Q1820.38 1847.4 1818.43 1848.28 L1818.43 1830.92 Z" fill="#000000" fill-rule="evenodd" fill-opacity="1" /><path clip-path="url(#clip110)" d="M2136.61 1861.55 L2152.93 1861.55 L2152.93 1865.48 L2130.99 1865.48 L2130.99 1861.55 Q2133.65 1858.79 2138.23 1854.16 Q2142.84 1849.51 2144.02 1848.17 Q2146.26 1845.65 2147.14 1843.91 Q2148.05 1842.15 2148.05 1840.46 Q2148.05 1837.71 2146.1 1835.97 Q2144.18 1834.23 2141.08 1834.23 Q2138.88 1834.23 2136.43 1835 Q2134 1835.76 2131.22 1837.31 L2131.22 1832.59 Q2134.04 1831.46 2136.5 1830.88 Q2138.95 1830.3 2140.99 1830.3 Q2146.36 1830.3 2149.55 1832.98 Q2152.75 1835.67 2152.75 1840.16 Q2152.75 1842.29 2151.93 1844.21 Q2151.15 1846.11 2149.04 1848.7 Q2148.46 1849.37 2145.36 1852.59 Q2142.26 1855.78 2136.61 1861.55 Z" fill="#000000" fill-rule="evenodd" fill-opacity="1" /><path clip-path="url(#clip110)" d="M2162.74 1859.6 L2167.63 1859.6 L2167.63 1865.48 L2162.74 1865.48 L2162.74 1859.6 Z" fill="#000000" fill-rule="evenodd" fill-opacity="1" /><path clip-path="url(#clip110)" d="M2178.62 1861.55 L2186.26 1861.55 L2186.26 1835.18 L2177.95 1836.85 L2177.95 1832.59 L2186.22 1830.92 L2190.89 1830.92 L2190.89 1861.55 L2198.53 1861.55 L2198.53 1865.48 L2178.62 1865.48 L2178.62 1861.55 Z" fill="#000000" fill-rule="evenodd" fill-opacity="1" /><path clip-path="url(#clip110)" d="M2217.98 1834 Q2214.37 1834 2212.54 1837.57 Q2210.73 1841.11 2210.73 1848.24 Q2210.73 1855.34 2212.54 1858.91 Q2214.37 1862.45 2217.98 1862.45 Q2221.61 1862.45 2223.42 1858.91 Q2225.24 1855.34 2225.24 1848.24 Q2225.24 1841.11 2223.42 1837.57 Q2221.61 1834 2217.98 1834 M2217.98 1830.3 Q2223.79 1830.3 2226.84 1834.9 Q2229.92 1839.49 2229.92 1848.24 Q2229.92 1856.96 2226.84 1861.57 Q2223.79 1866.15 2217.98 1866.15 Q2212.17 1866.15 2209.09 1861.57 Q2206.03 1856.96 2206.03 1848.24 Q2206.03 1839.49 2209.09 1834.9 Q2212.17 1830.3 2217.98 1830.3 Z" fill="#000000" fill-rule="evenodd" fill-opacity="1" /><path clip-path="url(#clip110)" d="M2527.2 1861.55 L2543.51 1861.55 L2543.51 1865.48 L2521.57 1865.48 L2521.57 1861.55 Q2524.23 1858.79 2528.82 1854.16 Q2533.42 1849.51 2534.6 1848.17 Q2536.85 1845.65 2537.73 1843.91 Q2538.63 1842.15 2538.63 1840.46 Q2538.63 1837.71 2536.69 1835.97 Q2534.76 1834.23 2531.66 1834.23 Q2529.46 1834.23 2527.01 1835 Q2524.58 1835.76 2521.8 1837.31 L2521.8 1832.59 Q2524.63 1831.46 2527.08 1830.88 Q2529.53 1830.3 2531.57 1830.3 Q2536.94 1830.3 2540.14 1832.98 Q2543.33 1835.67 2543.33 1840.16 Q2543.33 1842.29 2542.52 1844.21 Q2541.73 1846.11 2539.63 1848.7 Q2539.05 1849.37 2535.95 1852.59 Q2532.84 1855.78 2527.2 1861.55 Z" fill="#000000" fill-rule="evenodd" fill-opacity="1" /><path clip-path="url(#clip110)" d="M2553.33 1859.6 L2558.21 1859.6 L2558.21 1865.48 L2553.33 1865.48 L2553.33 1859.6 Z" fill="#000000" fill-rule="evenodd" fill-opacity="1" /><path clip-path="url(#clip110)" d="M2569.21 1861.55 L2576.85 1861.55 L2576.85 1835.18 L2568.54 1836.85 L2568.54 1832.59 L2576.8 1830.92 L2581.48 1830.92 L2581.48 1861.55 L2589.12 1861.55 L2589.12 1865.48 L2569.21 1865.48 L2569.21 1861.55 Z" fill="#000000" fill-rule="evenodd" fill-opacity="1" /><path clip-path="url(#clip110)" d="M2598.61 1830.92 L2616.96 1830.92 L2616.96 1834.86 L2602.89 1834.86 L2602.89 1843.33 Q2603.91 1842.98 2604.93 1842.82 Q2605.95 1842.64 2606.96 1842.64 Q2612.75 1842.64 2616.13 1845.81 Q2619.51 1848.98 2619.51 1854.4 Q2619.51 1859.97 2616.04 1863.08 Q2612.57 1866.15 2606.25 1866.15 Q2604.07 1866.15 2601.8 1865.78 Q2599.56 1865.41 2597.15 1864.67 L2597.15 1859.97 Q2599.23 1861.11 2601.45 1861.66 Q2603.68 1862.22 2606.15 1862.22 Q2610.16 1862.22 2612.5 1860.11 Q2614.83 1858.01 2614.83 1854.4 Q2614.83 1850.78 2612.5 1848.68 Q2610.16 1846.57 2606.15 1846.57 Q2604.28 1846.57 2602.4 1846.99 Q2600.55 1847.4 2598.61 1848.28 L2598.61 1830.92 Z" fill="#000000" fill-rule="evenodd" fill-opacity="1" /><polyline clip-path="url(#clip112)" style="stroke:#000000; stroke-linecap:butt; stroke-linejoin:round; stroke-width:2; stroke-opacity:0.1; fill:none" points="
  159.802,1739.13 2640.76,1739.13 
  "/>
<polyline clip-path="url(#clip112)" style="stroke:#000000; stroke-linecap:butt; stroke-linejoin:round; stroke-width:2; stroke-opacity:0.1; fill:none" points="
  159.802,1363.32 2640.76,1363.32 
  "/>
<polyline clip-path="url(#clip112)" style="stroke:#000000; stroke-linecap:butt; stroke-linejoin:round; stroke-width:2; stroke-opacity:0.1; fill:none" points="
  159.802,987.501 2640.76,987.501 
  "/>
<polyline clip-path="url(#clip112)" style="stroke:#000000; stroke-linecap:butt; stroke-linejoin:round; stroke-width:2; stroke-opacity:0.1; fill:none" points="
  159.802,611.686 2640.76,611.686 
  "/>
<polyline clip-path="url(#clip112)" style="stroke:#000000; stroke-linecap:butt; stroke-linejoin:round; stroke-width:2; stroke-opacity:0.1; fill:none" points="
  159.802,235.87 2640.76,235.87 
  "/>
<polyline clip-path="url(#clip110)" style="stroke:#000000; stroke-linecap:butt; stroke-linejoin:round; stroke-width:4; stroke-opacity:1; fill:none" points="
  159.802,1800.78 159.802,47.2441 
  "/>
<polyline clip-path="url(#clip110)" style="stroke:#000000; stroke-linecap:butt; stroke-linejoin:round; stroke-width:4; stroke-opacity:1; fill:none" points="
  159.802,1739.13 178.7,1739.13 
  "/>
<polyline clip-path="url(#clip110)" style="stroke:#000000; stroke-linecap:butt; stroke-linejoin:round; stroke-width:4; stroke-opacity:1; fill:none" points="
  159.802,1363.32 178.7,1363.32 
  "/>
<polyline clip-path="url(#clip110)" style="stroke:#000000; stroke-linecap:butt; stroke-linejoin:round; stroke-width:4; stroke-opacity:1; fill:none" points="
  159.802,987.501 178.7,987.501 
  "/>
<polyline clip-path="url(#clip110)" style="stroke:#000000; stroke-linecap:butt; stroke-linejoin:round; stroke-width:4; stroke-opacity:1; fill:none" points="
  159.802,611.686 178.7,611.686 
  "/>
<polyline clip-path="url(#clip110)" style="stroke:#000000; stroke-linecap:butt; stroke-linejoin:round; stroke-width:4; stroke-opacity:1; fill:none" points="
  159.802,235.87 178.7,235.87 
  "/>
<path clip-path="url(#clip110)" d="M66.4733 1737.78 Q69.8298 1738.5 71.7048 1740.76 Q73.6029 1743.03 73.6029 1746.37 Q73.6029 1751.48 70.0844 1754.28 Q66.5659 1757.08 60.0845 1757.08 Q57.9086 1757.08 55.5938 1756.64 Q53.3021 1756.23 50.8484 1755.37 L50.8484 1750.86 Q52.7928 1751.99 55.1077 1752.57 Q57.4225 1753.15 59.9456 1753.15 Q64.3437 1753.15 66.6354 1751.41 Q68.9502 1749.68 68.9502 1746.37 Q68.9502 1743.31 66.7974 1741.6 Q64.6678 1739.86 60.8484 1739.86 L56.8206 1739.86 L56.8206 1736.02 L61.0335 1736.02 Q64.4826 1736.02 66.3113 1734.65 Q68.14 1733.26 68.14 1730.67 Q68.14 1728.01 66.2419 1726.6 Q64.3669 1725.16 60.8484 1725.16 Q58.9271 1725.16 56.728 1725.58 Q54.529 1726 51.8901 1726.88 L51.8901 1722.71 Q54.5521 1721.97 56.8669 1721.6 Q59.2049 1721.23 61.265 1721.23 Q66.5891 1721.23 69.6909 1723.66 Q72.7927 1726.07 72.7927 1730.19 Q72.7927 1733.06 71.1492 1735.05 Q69.5057 1737.01 66.4733 1737.78 Z" fill="#000000" fill-rule="evenodd" fill-opacity="1" /><path clip-path="url(#clip110)" d="M82.4686 1750.53 L87.3528 1750.53 L87.3528 1756.41 L82.4686 1756.41 L82.4686 1750.53 Z" fill="#000000" fill-rule="evenodd" fill-opacity="1" /><path clip-path="url(#clip110)" d="M107.538 1724.93 Q103.927 1724.93 102.098 1728.5 Q100.293 1732.04 100.293 1739.17 Q100.293 1746.27 102.098 1749.84 Q103.927 1753.38 107.538 1753.38 Q111.172 1753.38 112.978 1749.84 Q114.806 1746.27 114.806 1739.17 Q114.806 1732.04 112.978 1728.5 Q111.172 1724.93 107.538 1724.93 M107.538 1721.23 Q113.348 1721.23 116.404 1725.83 Q119.482 1730.42 119.482 1739.17 Q119.482 1747.89 116.404 1752.5 Q113.348 1757.08 107.538 1757.08 Q101.728 1757.08 98.6491 1752.5 Q95.5935 1747.89 95.5935 1739.17 Q95.5935 1730.42 98.6491 1725.83 Q101.728 1721.23 107.538 1721.23 Z" fill="#000000" fill-rule="evenodd" fill-opacity="1" /><path clip-path="url(#clip110)" d="M67.4687 1361.96 Q70.8252 1362.68 72.7002 1364.95 Q74.5983 1367.22 74.5983 1370.55 Q74.5983 1375.67 71.0798 1378.47 Q67.5613 1381.27 61.0798 1381.27 Q58.9039 1381.27 56.5891 1380.83 Q54.2975 1380.41 51.8438 1379.56 L51.8438 1375.04 Q53.7882 1376.18 56.103 1376.75 Q58.4178 1377.33 60.941 1377.33 Q65.3391 1377.33 67.6307 1375.6 Q69.9455 1373.86 69.9455 1370.55 Q69.9455 1367.5 67.7928 1365.78 Q65.6632 1364.05 61.8437 1364.05 L57.816 1364.05 L57.816 1360.2 L62.0289 1360.2 Q65.478 1360.2 67.3067 1358.84 Q69.1354 1357.45 69.1354 1354.86 Q69.1354 1352.19 67.2372 1350.78 Q65.3622 1349.35 61.8437 1349.35 Q59.9224 1349.35 57.7234 1349.76 Q55.5243 1350.18 52.8854 1351.06 L52.8854 1346.89 Q55.5475 1346.15 57.8623 1345.78 Q60.2002 1345.41 62.2604 1345.41 Q67.5844 1345.41 70.6863 1347.84 Q73.7881 1350.25 73.7881 1354.37 Q73.7881 1357.24 72.1446 1359.23 Q70.5011 1361.2 67.4687 1361.96 Z" fill="#000000" fill-rule="evenodd" fill-opacity="1" /><path clip-path="url(#clip110)" d="M83.464 1374.72 L88.3482 1374.72 L88.3482 1380.6 L83.464 1380.6 L83.464 1374.72 Z" fill="#000000" fill-rule="evenodd" fill-opacity="1" /><path clip-path="url(#clip110)" d="M98.5796 1346.04 L116.936 1346.04 L116.936 1349.97 L102.862 1349.97 L102.862 1358.44 Q103.881 1358.1 104.899 1357.94 Q105.918 1357.75 106.936 1357.75 Q112.723 1357.75 116.103 1360.92 Q119.482 1364.09 119.482 1369.51 Q119.482 1375.09 116.01 1378.19 Q112.538 1381.27 106.218 1381.27 Q104.043 1381.27 101.774 1380.9 Q99.5287 1380.53 97.1213 1379.79 L97.1213 1375.09 Q99.2046 1376.22 101.427 1376.78 Q103.649 1377.33 106.126 1377.33 Q110.131 1377.33 112.468 1375.23 Q114.806 1373.12 114.806 1369.51 Q114.806 1365.9 112.468 1363.79 Q110.131 1361.69 106.126 1361.69 Q104.251 1361.69 102.376 1362.1 Q100.524 1362.52 98.5796 1363.4 L98.5796 1346.04 Z" fill="#000000" fill-rule="evenodd" fill-opacity="1" /><path clip-path="url(#clip110)" d="M65.1539 974.295 L53.3484 992.744 L65.1539 992.744 L65.1539 974.295 M63.927 970.221 L69.8066 970.221 L69.8066 992.744 L74.7372 992.744 L74.7372 996.633 L69.8066 996.633 L69.8066 1004.78 L65.1539 1004.78 L65.1539 996.633 L49.5521 996.633 L49.5521 992.119 L63.927 970.221 Z" fill="#000000" fill-rule="evenodd" fill-opacity="1" /><path clip-path="url(#clip110)" d="M82.4686 998.902 L87.3528 998.902 L87.3528 1004.78 L82.4686 1004.78 L82.4686 998.902 Z" fill="#000000" fill-rule="evenodd" fill-opacity="1" /><path clip-path="url(#clip110)" d="M107.538 973.3 Q103.927 973.3 102.098 976.865 Q100.293 980.406 100.293 987.536 Q100.293 994.642 102.098 998.207 Q103.927 1001.75 107.538 1001.75 Q111.172 1001.75 112.978 998.207 Q114.806 994.642 114.806 987.536 Q114.806 980.406 112.978 976.865 Q111.172 973.3 107.538 973.3 M107.538 969.596 Q113.348 969.596 116.404 974.203 Q119.482 978.786 119.482 987.536 Q119.482 996.263 116.404 1000.87 Q113.348 1005.45 107.538 1005.45 Q101.728 1005.45 98.6491 1000.87 Q95.5935 996.263 95.5935 987.536 Q95.5935 978.786 98.6491 974.203 Q101.728 969.596 107.538 969.596 Z" fill="#000000" fill-rule="evenodd" fill-opacity="1" /><path clip-path="url(#clip110)" d="M66.1493 598.48 L54.3438 616.929 L66.1493 616.929 L66.1493 598.48 M64.9224 594.406 L70.802 594.406 L70.802 616.929 L75.7325 616.929 L75.7325 620.817 L70.802 620.817 L70.802 628.966 L66.1493 628.966 L66.1493 620.817 L50.5475 620.817 L50.5475 616.304 L64.9224 594.406 Z" fill="#000000" fill-rule="evenodd" fill-opacity="1" /><path clip-path="url(#clip110)" d="M83.464 623.086 L88.3482 623.086 L88.3482 628.966 L83.464 628.966 L83.464 623.086 Z" fill="#000000" fill-rule="evenodd" fill-opacity="1" /><path clip-path="url(#clip110)" d="M98.5796 594.406 L116.936 594.406 L116.936 598.341 L102.862 598.341 L102.862 606.813 Q103.881 606.466 104.899 606.304 Q105.918 606.118 106.936 606.118 Q112.723 606.118 116.103 609.29 Q119.482 612.461 119.482 617.878 Q119.482 623.456 116.01 626.558 Q112.538 629.637 106.218 629.637 Q104.043 629.637 101.774 629.266 Q99.5287 628.896 97.1213 628.155 L97.1213 623.456 Q99.2046 624.591 101.427 625.146 Q103.649 625.702 106.126 625.702 Q110.131 625.702 112.468 623.595 Q114.806 621.489 114.806 617.878 Q114.806 614.267 112.468 612.16 Q110.131 610.054 106.126 610.054 Q104.251 610.054 102.376 610.47 Q100.524 610.887 98.5796 611.767 L98.5796 594.406 Z" fill="#000000" fill-rule="evenodd" fill-opacity="1" /><path clip-path="url(#clip110)" d="M52.353 218.59 L70.7094 218.59 L70.7094 222.525 L56.6354 222.525 L56.6354 230.997 Q57.6539 230.65 58.6724 230.488 Q59.691 230.303 60.7095 230.303 Q66.4965 230.303 69.8761 233.474 Q73.2557 236.645 73.2557 242.062 Q73.2557 247.641 69.7835 250.742 Q66.3113 253.821 59.9919 253.821 Q57.816 253.821 55.5475 253.451 Q53.3021 253.08 50.8947 252.34 L50.8947 247.641 Q52.978 248.775 55.2002 249.33 Q57.4225 249.886 59.8993 249.886 Q63.9039 249.886 66.2419 247.779 Q68.5798 245.673 68.5798 242.062 Q68.5798 238.451 66.2419 236.344 Q63.9039 234.238 59.8993 234.238 Q58.0243 234.238 56.1493 234.655 Q54.2975 235.071 52.353 235.951 L52.353 218.59 Z" fill="#000000" fill-rule="evenodd" fill-opacity="1" /><path clip-path="url(#clip110)" d="M82.4686 247.27 L87.3528 247.27 L87.3528 253.15 L82.4686 253.15 L82.4686 247.27 Z" fill="#000000" fill-rule="evenodd" fill-opacity="1" /><path clip-path="url(#clip110)" d="M107.538 221.668 Q103.927 221.668 102.098 225.233 Q100.293 228.775 100.293 235.905 Q100.293 243.011 102.098 246.576 Q103.927 250.117 107.538 250.117 Q111.172 250.117 112.978 246.576 Q114.806 243.011 114.806 235.905 Q114.806 228.775 112.978 225.233 Q111.172 221.668 107.538 221.668 M107.538 217.965 Q113.348 217.965 116.404 222.571 Q119.482 227.155 119.482 235.905 Q119.482 244.631 116.404 249.238 Q113.348 253.821 107.538 253.821 Q101.728 253.821 98.6491 249.238 Q95.5935 244.631 95.5935 235.905 Q95.5935 227.155 98.6491 222.571 Q101.728 217.965 107.538 217.965 Z" fill="#000000" fill-rule="evenodd" fill-opacity="1" /><polyline clip-path="url(#clip112)" style="stroke:#009af9; stroke-linecap:butt; stroke-linejoin:round; stroke-width:4; stroke-opacity:1; fill:none" points="
  230.018,1648.33 252.875,1637.19 464.222,1531.19 591.233,1464.73 698.619,1406.86 815.27,1342.2 922.812,1280.88 1038.11,1213.25 1171.69,1132.39 1290.4,1058.2 
  1394.5,991.267 1508,916.241 1622.17,838.543 1748.4,749.954 1868.51,662.96 1993.39,569.614 2098.51,488.676 2226.86,386.837 2347.51,287.975 2540.79,123.004 
  2570.54,96.8724 
  "/>
<polyline clip-path="url(#clip112)" style="stroke:#e26f46; stroke-linecap:butt; stroke-linejoin:round; stroke-width:4; stroke-opacity:1; fill:none" points="
  230.018,1751.15 252.875,1736.24 464.222,1598.32 591.233,1515.44 698.619,1445.37 815.27,1369.25 922.812,1299.07 1038.11,1223.83 1171.69,1136.67 1290.4,1059.2 
  1394.5,991.27 1508,917.208 1622.17,842.706 1748.4,760.334 1868.51,681.96 1993.39,600.469 2098.51,531.87 2226.86,448.119 2347.51,369.391 2540.79,243.262 
  2570.54,223.852 
  "/>
<path clip-path="url(#clip110)" d="
M2229.97 261.215 L2558.06 261.215 L2558.06 105.695 L2229.97 105.695  Z
  " fill="#ffffff" fill-rule="evenodd" fill-opacity="1"/>
<polyline clip-path="url(#clip110)" style="stroke:#000000; stroke-linecap:butt; stroke-linejoin:round; stroke-width:4; stroke-opacity:1; fill:none" points="
  2229.97,261.215 2558.06,261.215 2558.06,105.695 2229.97,105.695 2229.97,261.215 
  "/>
<polyline clip-path="url(#clip110)" style="stroke:#009af9; stroke-linecap:butt; stroke-linejoin:round; stroke-width:4; stroke-opacity:1; fill:none" points="
  2257.53,157.535 2422.93,157.535 
  "/>
<path clip-path="url(#clip110)" d="M2464.34 177.223 Q2462.53 181.852 2460.82 183.264 Q2459.11 184.676 2456.24 184.676 L2452.83 184.676 L2452.83 181.112 L2455.33 181.112 Q2457.09 181.112 2458.06 180.278 Q2459.04 179.445 2460.22 176.343 L2460.98 174.399 L2450.49 148.889 L2455.01 148.889 L2463.11 169.167 L2471.21 148.889 L2475.73 148.889 L2464.34 177.223 Z" fill="#000000" fill-rule="evenodd" fill-opacity="1" /><path clip-path="url(#clip110)" d="M2483.02 170.88 L2490.66 170.88 L2490.66 144.515 L2482.35 146.181 L2482.35 141.922 L2490.61 140.255 L2495.29 140.255 L2495.29 170.88 L2502.93 170.88 L2502.93 174.815 L2483.02 174.815 L2483.02 170.88 Z" fill="#000000" fill-rule="evenodd" fill-opacity="1" /><polyline clip-path="url(#clip110)" style="stroke:#e26f46; stroke-linecap:butt; stroke-linejoin:round; stroke-width:4; stroke-opacity:1; fill:none" points="
  2257.53,209.375 2422.93,209.375 
  "/>
<path clip-path="url(#clip110)" d="M2464.34 229.063 Q2462.53 233.692 2460.82 235.104 Q2459.11 236.516 2456.24 236.516 L2452.83 236.516 L2452.83 232.952 L2455.33 232.952 Q2457.09 232.952 2458.06 232.118 Q2459.04 231.285 2460.22 228.183 L2460.98 226.239 L2450.49 200.729 L2455.01 200.729 L2463.11 221.007 L2471.21 200.729 L2475.73 200.729 L2464.34 229.063 Z" fill="#000000" fill-rule="evenodd" fill-opacity="1" /><path clip-path="url(#clip110)" d="M2486.24 222.72 L2502.55 222.72 L2502.55 226.655 L2480.61 226.655 L2480.61 222.72 Q2483.27 219.965 2487.86 215.336 Q2492.46 210.683 2493.64 209.341 Q2495.89 206.817 2496.77 205.081 Q2497.67 203.322 2497.67 201.632 Q2497.67 198.878 2495.73 197.142 Q2493.8 195.405 2490.7 195.405 Q2488.5 195.405 2486.05 196.169 Q2483.62 196.933 2480.84 198.484 L2480.84 193.762 Q2483.67 192.628 2486.12 192.049 Q2488.57 191.47 2490.61 191.47 Q2495.98 191.47 2499.18 194.155 Q2502.37 196.841 2502.37 201.331 Q2502.37 203.461 2501.56 205.382 Q2500.77 207.28 2498.67 209.873 Q2498.09 210.544 2494.99 213.762 Q2491.88 216.956 2486.24 222.72 Z" fill="#000000" fill-rule="evenodd" fill-opacity="1" /></svg>
