<?xml version="1.0" encoding="utf-8"?>
<svg xmlns="http://www.w3.org/2000/svg" xmlns:xlink="http://www.w3.org/1999/xlink" width="672" height="480" viewBox="0 0 2688 1920">
<defs>
  <clipPath id="clip870">
    <rect x="0" y="0" width="2688" height="1920"/>
  </clipPath>
</defs>
<path clip-path="url(#clip870)" d="
M0 1920 L2688 1920 L2688 0 L0 0  Z
  " fill="#ffffff" fill-rule="evenodd" fill-opacity="1"/>
<defs>
  <clipPath id="clip871">
    <rect x="537" y="0" width="1883" height="1883"/>
  </clipPath>
</defs>
<path clip-path="url(#clip870)" d="
M189.154 1800.78 L2640.76 1800.78 L2640.76 47.2441 L189.154 47.2441  Z
  " fill="#ffffff" fill-rule="evenodd" fill-opacity="1"/>
<defs>
  <clipPath id="clip872">
    <rect x="189" y="47" width="2453" height="1755"/>
  </clipPath>
</defs>
<polyline clip-path="url(#clip872)" style="stroke:#000000; stroke-linecap:butt; stroke-linejoin:round; stroke-width:2; stroke-opacity:0.1; fill:none" points="
  258.539,1800.78 258.539,47.2441 
  "/>
<polyline clip-path="url(#clip872)" style="stroke:#000000; stroke-linecap:butt; stroke-linejoin:round; stroke-width:2; stroke-opacity:0.1; fill:none" points="
  721.105,1800.78 721.105,47.2441 
  "/>
<polyline clip-path="url(#clip872)" style="stroke:#000000; stroke-linecap:butt; stroke-linejoin:round; stroke-width:2; stroke-opacity:0.1; fill:none" points="
  1183.67,1800.78 1183.67,47.2441 
  "/>
<polyline clip-path="url(#clip872)" style="stroke:#000000; stroke-linecap:butt; stroke-linejoin:round; stroke-width:2; stroke-opacity:0.1; fill:none" points="
  1646.24,1800.78 1646.24,47.2441 
  "/>
<polyline clip-path="url(#clip872)" style="stroke:#000000; stroke-linecap:butt; stroke-linejoin:round; stroke-width:2; stroke-opacity:0.1; fill:none" points="
  2108.8,1800.78 2108.8,47.2441 
  "/>
<polyline clip-path="url(#clip872)" style="stroke:#000000; stroke-linecap:butt; stroke-linejoin:round; stroke-width:2; stroke-opacity:0.1; fill:none" points="
  2571.37,1800.78 2571.37,47.2441 
  "/>
<polyline clip-path="url(#clip870)" style="stroke:#000000; stroke-linecap:butt; stroke-linejoin:round; stroke-width:4; stroke-opacity:1; fill:none" points="
  189.154,1800.78 2640.76,1800.78 
  "/>
<polyline clip-path="url(#clip870)" style="stroke:#000000; stroke-linecap:butt; stroke-linejoin:round; stroke-width:4; stroke-opacity:1; fill:none" points="
  258.539,1800.78 258.539,1781.88 
  "/>
<polyline clip-path="url(#clip870)" style="stroke:#000000; stroke-linecap:butt; stroke-linejoin:round; stroke-width:4; stroke-opacity:1; fill:none" points="
  721.105,1800.78 721.105,1781.88 
  "/>
<polyline clip-path="url(#clip870)" style="stroke:#000000; stroke-linecap:butt; stroke-linejoin:round; stroke-width:4; stroke-opacity:1; fill:none" points="
  1183.67,1800.78 1183.67,1781.88 
  "/>
<polyline clip-path="url(#clip870)" style="stroke:#000000; stroke-linecap:butt; stroke-linejoin:round; stroke-width:4; stroke-opacity:1; fill:none" points="
  1646.24,1800.78 1646.24,1781.88 
  "/>
<polyline clip-path="url(#clip870)" style="stroke:#000000; stroke-linecap:butt; stroke-linejoin:round; stroke-width:4; stroke-opacity:1; fill:none" points="
  2108.8,1800.78 2108.8,1781.88 
  "/>
<polyline clip-path="url(#clip870)" style="stroke:#000000; stroke-linecap:butt; stroke-linejoin:round; stroke-width:4; stroke-opacity:1; fill:none" points="
  2571.37,1800.78 2571.37,1781.88 
  "/>
<path clip-path="url(#clip870)" d="M258.539 1834 Q254.928 1834 253.099 1837.57 Q251.294 1841.11 251.294 1848.24 Q251.294 1855.34 253.099 1858.91 Q254.928 1862.45 258.539 1862.45 Q262.173 1862.45 263.979 1858.91 Q265.807 1855.34 265.807 1848.24 Q265.807 1841.11 263.979 1837.57 Q262.173 1834 258.539 1834 M258.539 1830.3 Q264.349 1830.3 267.405 1834.9 Q270.483 1839.49 270.483 1848.24 Q270.483 1856.96 267.405 1861.57 Q264.349 1866.15 258.539 1866.15 Q252.729 1866.15 249.65 1861.57 Q246.595 1856.96 246.595 1848.24 Q246.595 1839.49 249.65 1834.9 Q252.729 1830.3 258.539 1830.3 Z" fill="#000000" fill-rule="evenodd" fill-opacity="1" /><path clip-path="url(#clip870)" d="M711.487 1861.55 L719.126 1861.55 L719.126 1835.18 L710.816 1836.85 L710.816 1832.59 L719.08 1830.92 L723.756 1830.92 L723.756 1861.55 L731.395 1861.55 L731.395 1865.48 L711.487 1865.48 L711.487 1861.55 Z" fill="#000000" fill-rule="evenodd" fill-opacity="1" /><path clip-path="url(#clip870)" d="M1178.32 1861.55 L1194.64 1861.55 L1194.64 1865.48 L1172.7 1865.48 L1172.7 1861.55 Q1175.36 1858.79 1179.94 1854.16 Q1184.55 1849.51 1185.73 1848.17 Q1187.98 1845.65 1188.86 1843.91 Q1189.76 1842.15 1189.76 1840.46 Q1189.76 1837.71 1187.82 1835.97 Q1185.89 1834.23 1182.79 1834.23 Q1180.59 1834.23 1178.14 1835 Q1175.71 1835.76 1172.93 1837.31 L1172.93 1832.59 Q1175.76 1831.46 1178.21 1830.88 Q1180.66 1830.3 1182.7 1830.3 Q1188.07 1830.3 1191.26 1832.98 Q1194.46 1835.67 1194.46 1840.16 Q1194.46 1842.29 1193.65 1844.21 Q1192.86 1846.11 1190.76 1848.7 Q1190.18 1849.37 1187.07 1852.59 Q1183.97 1855.78 1178.32 1861.55 Z" fill="#000000" fill-rule="evenodd" fill-opacity="1" /><path clip-path="url(#clip870)" d="M1650.49 1846.85 Q1653.84 1847.57 1655.72 1849.84 Q1657.62 1852.1 1657.62 1855.44 Q1657.62 1860.55 1654.1 1863.35 Q1650.58 1866.15 1644.1 1866.15 Q1641.92 1866.15 1639.61 1865.71 Q1637.31 1865.3 1634.86 1864.44 L1634.86 1859.93 Q1636.81 1861.06 1639.12 1861.64 Q1641.43 1862.22 1643.96 1862.22 Q1648.36 1862.22 1650.65 1860.48 Q1652.96 1858.75 1652.96 1855.44 Q1652.96 1852.38 1650.81 1850.67 Q1648.68 1848.93 1644.86 1848.93 L1640.83 1848.93 L1640.83 1845.09 L1645.05 1845.09 Q1648.5 1845.09 1650.32 1843.72 Q1652.15 1842.34 1652.15 1839.74 Q1652.15 1837.08 1650.25 1835.67 Q1648.38 1834.23 1644.86 1834.23 Q1642.94 1834.23 1640.74 1834.65 Q1638.54 1835.07 1635.9 1835.95 L1635.9 1831.78 Q1638.56 1831.04 1640.88 1830.67 Q1643.22 1830.3 1645.28 1830.3 Q1650.6 1830.3 1653.7 1832.73 Q1656.81 1835.14 1656.81 1839.26 Q1656.81 1842.13 1655.16 1844.12 Q1653.52 1846.09 1650.49 1846.85 Z" fill="#000000" fill-rule="evenodd" fill-opacity="1" /><path clip-path="url(#clip870)" d="M2111.81 1835 L2100.01 1853.45 L2111.81 1853.45 L2111.81 1835 M2110.59 1830.92 L2116.47 1830.92 L2116.47 1853.45 L2121.4 1853.45 L2121.4 1857.34 L2116.47 1857.34 L2116.47 1865.48 L2111.81 1865.48 L2111.81 1857.34 L2096.21 1857.34 L2096.21 1852.82 L2110.59 1830.92 Z" fill="#000000" fill-rule="evenodd" fill-opacity="1" /><path clip-path="url(#clip870)" d="M2561.65 1830.92 L2580.01 1830.92 L2580.01 1834.86 L2565.93 1834.86 L2565.93 1843.33 Q2566.95 1842.98 2567.97 1842.82 Q2568.99 1842.64 2570.01 1842.64 Q2575.79 1842.64 2579.17 1845.81 Q2582.55 1848.98 2582.55 1854.4 Q2582.55 1859.97 2579.08 1863.08 Q2575.61 1866.15 2569.29 1866.15 Q2567.11 1866.15 2564.84 1865.78 Q2562.6 1865.41 2560.19 1864.67 L2560.19 1859.97 Q2562.27 1861.11 2564.5 1861.66 Q2566.72 1862.22 2569.2 1862.22 Q2573.2 1862.22 2575.54 1860.11 Q2577.88 1858.01 2577.88 1854.4 Q2577.88 1850.78 2575.54 1848.68 Q2573.2 1846.57 2569.2 1846.57 Q2567.32 1846.57 2565.45 1846.99 Q2563.59 1847.4 2561.65 1848.28 L2561.65 1830.92 Z" fill="#000000" fill-rule="evenodd" fill-opacity="1" /><polyline clip-path="url(#clip872)" style="stroke:#000000; stroke-linecap:butt; stroke-linejoin:round; stroke-width:2; stroke-opacity:0.1; fill:none" points="
  189.154,1762.3 2640.76,1762.3 
  "/>
<polyline clip-path="url(#clip872)" style="stroke:#000000; stroke-linecap:butt; stroke-linejoin:round; stroke-width:2; stroke-opacity:0.1; fill:none" points="
  189.154,1343.14 2640.76,1343.14 
  "/>
<polyline clip-path="url(#clip872)" style="stroke:#000000; stroke-linecap:butt; stroke-linejoin:round; stroke-width:2; stroke-opacity:0.1; fill:none" points="
  189.154,923.974 2640.76,923.974 
  "/>
<polyline clip-path="url(#clip872)" style="stroke:#000000; stroke-linecap:butt; stroke-linejoin:round; stroke-width:2; stroke-opacity:0.1; fill:none" points="
  189.154,504.813 2640.76,504.813 
  "/>
<polyline clip-path="url(#clip872)" style="stroke:#000000; stroke-linecap:butt; stroke-linejoin:round; stroke-width:2; stroke-opacity:0.1; fill:none" points="
  189.154,85.6509 2640.76,85.6509 
  "/>
<polyline clip-path="url(#clip870)" style="stroke:#000000; stroke-linecap:butt; stroke-linejoin:round; stroke-width:4; stroke-opacity:1; fill:none" points="
  189.154,1800.78 189.154,47.2441 
  "/>
<polyline clip-path="url(#clip870)" style="stroke:#000000; stroke-linecap:butt; stroke-linejoin:round; stroke-width:4; stroke-opacity:1; fill:none" points="
  189.154,1762.3 208.052,1762.3 
  "/>
<polyline clip-path="url(#clip870)" style="stroke:#000000; stroke-linecap:butt; stroke-linejoin:round; stroke-width:4; stroke-opacity:1; fill:none" points="
  189.154,1343.14 208.052,1343.14 
  "/>
<polyline clip-path="url(#clip870)" style="stroke:#000000; stroke-linecap:butt; stroke-linejoin:round; stroke-width:4; stroke-opacity:1; fill:none" points="
  189.154,923.974 208.052,923.974 
  "/>
<polyline clip-path="url(#clip870)" style="stroke:#000000; stroke-linecap:butt; stroke-linejoin:round; stroke-width:4; stroke-opacity:1; fill:none" points="
  189.154,504.813 208.052,504.813 
  "/>
<polyline clip-path="url(#clip870)" style="stroke:#000000; stroke-linecap:butt; stroke-linejoin:round; stroke-width:4; stroke-opacity:1; fill:none" points="
  189.154,85.6509 208.052,85.6509 
  "/>
<path clip-path="url(#clip870)" d="M61.4965 1748.1 Q57.8854 1748.1 56.0567 1751.66 Q54.2512 1755.2 54.2512 1762.33 Q54.2512 1769.44 56.0567 1773 Q57.8854 1776.55 61.4965 1776.55 Q65.1307 1776.55 66.9363 1773 Q68.765 1769.44 68.765 1762.33 Q68.765 1755.2 66.9363 1751.66 Q65.1307 1748.1 61.4965 1748.1 M61.4965 1744.39 Q67.3067 1744.39 70.3622 1749 Q73.4409 1753.58 73.4409 1762.33 Q73.4409 1771.06 70.3622 1775.67 Q67.3067 1780.25 61.4965 1780.25 Q55.6864 1780.25 52.6077 1775.67 Q49.5521 1771.06 49.5521 1762.33 Q49.5521 1753.58 52.6077 1749 Q55.6864 1744.39 61.4965 1744.39 Z" fill="#000000" fill-rule="evenodd" fill-opacity="1" /><path clip-path="url(#clip870)" d="M81.6584 1773.7 L86.5427 1773.7 L86.5427 1779.58 L81.6584 1779.58 L81.6584 1773.7 Z" fill="#000000" fill-rule="evenodd" fill-opacity="1" /><path clip-path="url(#clip870)" d="M106.728 1748.1 Q103.117 1748.1 101.288 1751.66 Q99.4824 1755.2 99.4824 1762.33 Q99.4824 1769.44 101.288 1773 Q103.117 1776.55 106.728 1776.55 Q110.362 1776.55 112.168 1773 Q113.996 1769.44 113.996 1762.33 Q113.996 1755.2 112.168 1751.66 Q110.362 1748.1 106.728 1748.1 M106.728 1744.39 Q112.538 1744.39 115.593 1749 Q118.672 1753.58 118.672 1762.33 Q118.672 1771.06 115.593 1775.67 Q112.538 1780.25 106.728 1780.25 Q100.918 1780.25 97.8389 1775.67 Q94.7834 1771.06 94.7834 1762.33 Q94.7834 1753.58 97.8389 1749 Q100.918 1744.39 106.728 1744.39 Z" fill="#000000" fill-rule="evenodd" fill-opacity="1" /><path clip-path="url(#clip870)" d="M136.89 1748.1 Q133.279 1748.1 131.45 1751.66 Q129.644 1755.2 129.644 1762.33 Q129.644 1769.44 131.45 1773 Q133.279 1776.55 136.89 1776.55 Q140.524 1776.55 142.329 1773 Q144.158 1769.44 144.158 1762.33 Q144.158 1755.2 142.329 1751.66 Q140.524 1748.1 136.89 1748.1 M136.89 1744.39 Q142.7 1744.39 145.755 1749 Q148.834 1753.58 148.834 1762.33 Q148.834 1771.06 145.755 1775.67 Q142.7 1780.25 136.89 1780.25 Q131.079 1780.25 128.001 1775.67 Q124.945 1771.06 124.945 1762.33 Q124.945 1753.58 128.001 1749 Q131.079 1744.39 136.89 1744.39 Z" fill="#000000" fill-rule="evenodd" fill-opacity="1" /><path clip-path="url(#clip870)" d="M62.4919 1328.93 Q58.8808 1328.93 57.0521 1332.5 Q55.2465 1336.04 55.2465 1343.17 Q55.2465 1350.28 57.0521 1353.84 Q58.8808 1357.38 62.4919 1357.38 Q66.1261 1357.38 67.9317 1353.84 Q69.7604 1350.28 69.7604 1343.17 Q69.7604 1336.04 67.9317 1332.5 Q66.1261 1328.93 62.4919 1328.93 M62.4919 1325.23 Q68.302 1325.23 71.3576 1329.84 Q74.4363 1334.42 74.4363 1343.17 Q74.4363 1351.9 71.3576 1356.5 Q68.302 1361.09 62.4919 1361.09 Q56.6817 1361.09 53.603 1356.5 Q50.5475 1351.9 50.5475 1343.17 Q50.5475 1334.42 53.603 1329.84 Q56.6817 1325.23 62.4919 1325.23 Z" fill="#000000" fill-rule="evenodd" fill-opacity="1" /><path clip-path="url(#clip870)" d="M82.6538 1354.54 L87.538 1354.54 L87.538 1360.42 L82.6538 1360.42 L82.6538 1354.54 Z" fill="#000000" fill-rule="evenodd" fill-opacity="1" /><path clip-path="url(#clip870)" d="M101.751 1356.48 L118.07 1356.48 L118.07 1360.42 L96.126 1360.42 L96.126 1356.48 Q98.788 1353.73 103.371 1349.1 Q107.978 1344.44 109.158 1343.1 Q111.404 1340.58 112.283 1338.84 Q113.186 1337.08 113.186 1335.39 Q113.186 1332.64 111.242 1330.9 Q109.32 1329.17 106.218 1329.17 Q104.019 1329.17 101.566 1329.93 Q99.1352 1330.69 96.3574 1332.24 L96.3574 1327.52 Q99.1815 1326.39 101.635 1325.81 Q104.089 1325.23 106.126 1325.23 Q111.496 1325.23 114.691 1327.92 Q117.885 1330.6 117.885 1335.09 Q117.885 1337.22 117.075 1339.14 Q116.288 1341.04 114.181 1343.63 Q113.603 1344.3 110.501 1347.52 Q107.399 1350.72 101.751 1356.48 Z" fill="#000000" fill-rule="evenodd" fill-opacity="1" /><path clip-path="url(#clip870)" d="M127.931 1325.86 L146.288 1325.86 L146.288 1329.79 L132.214 1329.79 L132.214 1338.26 Q133.232 1337.92 134.251 1337.75 Q135.269 1337.57 136.288 1337.57 Q142.075 1337.57 145.454 1340.74 Q148.834 1343.91 148.834 1349.33 Q148.834 1354.91 145.362 1358.01 Q141.89 1361.09 135.57 1361.09 Q133.394 1361.09 131.126 1360.72 Q128.88 1360.35 126.473 1359.61 L126.473 1354.91 Q128.556 1356.04 130.779 1356.6 Q133.001 1357.15 135.478 1357.15 Q139.482 1357.15 141.82 1355.05 Q144.158 1352.94 144.158 1349.33 Q144.158 1345.72 141.82 1343.61 Q139.482 1341.5 135.478 1341.5 Q133.603 1341.5 131.728 1341.92 Q129.876 1342.34 127.931 1343.22 L127.931 1325.86 Z" fill="#000000" fill-rule="evenodd" fill-opacity="1" /><path clip-path="url(#clip870)" d="M61.4965 909.773 Q57.8854 909.773 56.0567 913.338 Q54.2512 916.879 54.2512 924.009 Q54.2512 931.115 56.0567 934.68 Q57.8854 938.222 61.4965 938.222 Q65.1307 938.222 66.9363 934.68 Q68.765 931.115 68.765 924.009 Q68.765 916.879 66.9363 913.338 Q65.1307 909.773 61.4965 909.773 M61.4965 906.069 Q67.3067 906.069 70.3622 910.676 Q73.4409 915.259 73.4409 924.009 Q73.4409 932.736 70.3622 937.342 Q67.3067 941.925 61.4965 941.925 Q55.6864 941.925 52.6077 937.342 Q49.5521 932.736 49.5521 924.009 Q49.5521 915.259 52.6077 910.676 Q55.6864 906.069 61.4965 906.069 Z" fill="#000000" fill-rule="evenodd" fill-opacity="1" /><path clip-path="url(#clip870)" d="M81.6584 935.375 L86.5427 935.375 L86.5427 941.254 L81.6584 941.254 L81.6584 935.375 Z" fill="#000000" fill-rule="evenodd" fill-opacity="1" /><path clip-path="url(#clip870)" d="M96.7741 906.694 L115.13 906.694 L115.13 910.629 L101.056 910.629 L101.056 919.101 Q102.075 918.754 103.094 918.592 Q104.112 918.407 105.131 918.407 Q110.918 918.407 114.297 921.578 Q117.677 924.75 117.677 930.166 Q117.677 935.745 114.205 938.847 Q110.732 941.925 104.413 941.925 Q102.237 941.925 99.9685 941.555 Q97.7232 941.185 95.3158 940.444 L95.3158 935.745 Q97.3991 936.879 99.6213 937.435 Q101.844 937.99 104.32 937.99 Q108.325 937.99 110.663 935.884 Q113.001 933.777 113.001 930.166 Q113.001 926.555 110.663 924.449 Q108.325 922.342 104.32 922.342 Q102.445 922.342 100.57 922.759 Q98.7185 923.176 96.7741 924.055 L96.7741 906.694 Z" fill="#000000" fill-rule="evenodd" fill-opacity="1" /><path clip-path="url(#clip870)" d="M136.89 909.773 Q133.279 909.773 131.45 913.338 Q129.644 916.879 129.644 924.009 Q129.644 931.115 131.45 934.68 Q133.279 938.222 136.89 938.222 Q140.524 938.222 142.329 934.68 Q144.158 931.115 144.158 924.009 Q144.158 916.879 142.329 913.338 Q140.524 909.773 136.89 909.773 M136.89 906.069 Q142.7 906.069 145.755 910.676 Q148.834 915.259 148.834 924.009 Q148.834 932.736 145.755 937.342 Q142.7 941.925 136.89 941.925 Q131.079 941.925 128.001 937.342 Q124.945 932.736 124.945 924.009 Q124.945 915.259 128.001 910.676 Q131.079 906.069 136.89 906.069 Z" fill="#000000" fill-rule="evenodd" fill-opacity="1" /><path clip-path="url(#clip870)" d="M62.4919 490.611 Q58.8808 490.611 57.0521 494.176 Q55.2465 497.718 55.2465 504.847 Q55.2465 511.954 57.0521 515.518 Q58.8808 519.06 62.4919 519.06 Q66.1261 519.06 67.9317 515.518 Q69.7604 511.954 69.7604 504.847 Q69.7604 497.718 67.9317 494.176 Q66.1261 490.611 62.4919 490.611 M62.4919 486.908 Q68.302 486.908 71.3576 491.514 Q74.4363 496.097 74.4363 504.847 Q74.4363 513.574 71.3576 518.181 Q68.302 522.764 62.4919 522.764 Q56.6817 522.764 53.603 518.181 Q50.5475 513.574 50.5475 504.847 Q50.5475 496.097 53.603 491.514 Q56.6817 486.908 62.4919 486.908 Z" fill="#000000" fill-rule="evenodd" fill-opacity="1" /><path clip-path="url(#clip870)" d="M82.6538 516.213 L87.538 516.213 L87.538 522.093 L82.6538 522.093 L82.6538 516.213 Z" fill="#000000" fill-rule="evenodd" fill-opacity="1" /><path clip-path="url(#clip870)" d="M96.5426 487.533 L118.765 487.533 L118.765 489.523 L106.218 522.093 L101.334 522.093 L113.14 491.468 L96.5426 491.468 L96.5426 487.533 Z" fill="#000000" fill-rule="evenodd" fill-opacity="1" /><path clip-path="url(#clip870)" d="M127.931 487.533 L146.288 487.533 L146.288 491.468 L132.214 491.468 L132.214 499.94 Q133.232 499.593 134.251 499.431 Q135.269 499.245 136.288 499.245 Q142.075 499.245 145.454 502.417 Q148.834 505.588 148.834 511.005 Q148.834 516.583 145.362 519.685 Q141.89 522.764 135.57 522.764 Q133.394 522.764 131.126 522.393 Q128.88 522.023 126.473 521.282 L126.473 516.583 Q128.556 517.718 130.779 518.273 Q133.001 518.829 135.478 518.829 Q139.482 518.829 141.82 516.722 Q144.158 514.616 144.158 511.005 Q144.158 507.394 141.82 505.287 Q139.482 503.181 135.478 503.181 Q133.603 503.181 131.728 503.597 Q129.876 504.014 127.931 504.894 L127.931 487.533 Z" fill="#000000" fill-rule="evenodd" fill-opacity="1" /><path clip-path="url(#clip870)" d="M52.3067 98.9957 L59.9456 98.9957 L59.9456 72.6301 L51.6354 74.2968 L51.6354 70.0376 L59.8993 68.3709 L64.5752 68.3709 L64.5752 98.9957 L72.214 98.9957 L72.214 102.931 L52.3067 102.931 L52.3067 98.9957 Z" fill="#000000" fill-rule="evenodd" fill-opacity="1" /><path clip-path="url(#clip870)" d="M81.6584 97.0513 L86.5427 97.0513 L86.5427 102.931 L81.6584 102.931 L81.6584 97.0513 Z" fill="#000000" fill-rule="evenodd" fill-opacity="1" /><path clip-path="url(#clip870)" d="M106.728 71.4496 Q103.117 71.4496 101.288 75.0144 Q99.4824 78.556 99.4824 85.6856 Q99.4824 92.7921 101.288 96.3569 Q103.117 99.8985 106.728 99.8985 Q110.362 99.8985 112.168 96.3569 Q113.996 92.7921 113.996 85.6856 Q113.996 78.556 112.168 75.0144 Q110.362 71.4496 106.728 71.4496 M106.728 67.7459 Q112.538 67.7459 115.593 72.3524 Q118.672 76.9357 118.672 85.6856 Q118.672 94.4124 115.593 99.0189 Q112.538 103.602 106.728 103.602 Q100.918 103.602 97.8389 99.0189 Q94.7834 94.4124 94.7834 85.6856 Q94.7834 76.9357 97.8389 72.3524 Q100.918 67.7459 106.728 67.7459 Z" fill="#000000" fill-rule="evenodd" fill-opacity="1" /><path clip-path="url(#clip870)" d="M136.89 71.4496 Q133.279 71.4496 131.45 75.0144 Q129.644 78.556 129.644 85.6856 Q129.644 92.7921 131.45 96.3569 Q133.279 99.8985 136.89 99.8985 Q140.524 99.8985 142.329 96.3569 Q144.158 92.7921 144.158 85.6856 Q144.158 78.556 142.329 75.0144 Q140.524 71.4496 136.89 71.4496 M136.89 67.7459 Q142.7 67.7459 145.755 72.3524 Q148.834 76.9357 148.834 85.6856 Q148.834 94.4124 145.755 99.0189 Q142.7 103.602 136.89 103.602 Q131.079 103.602 128.001 99.0189 Q124.945 94.4124 124.945 85.6856 Q124.945 76.9357 128.001 72.3524 Q131.079 67.7459 136.89 67.7459 Z" fill="#000000" fill-rule="evenodd" fill-opacity="1" /><polyline clip-path="url(#clip872)" style="stroke:#009af9; stroke-linecap:butt; stroke-linejoin:round; stroke-width:4; stroke-opacity:1; fill:none" points="
  258.539,923.974 281.126,903.511 489.972,718.525 615.48,615.675 721.596,536.221 836.867,458.965 943.137,396.547 1057.07,338.927 1189.07,283.466 1306.38,243.323 
  1409.25,214.296 1521.4,188.294 1634.22,167.158 1758.96,148.616 1877.64,134.784 2001.05,123.539 2104.93,116.056 2231.76,108.866 2350.98,103.648 2541.98,97.6034 
  2571.37,96.8724 
  "/>
<polyline clip-path="url(#clip872)" style="stroke:#e26f46; stroke-linecap:butt; stroke-linejoin:round; stroke-width:4; stroke-opacity:1; fill:none" points="
  258.539,1343.14 264.186,1343.15 269.832,1343.2 275.479,1343.28 281.126,1343.39 333.337,1345.86 385.549,1350.94 437.761,1358.48 489.972,1368.31 552.726,1382.82 
  615.48,1399.83 668.538,1415.77 721.596,1432.81 836.867,1472.1 943.137,1509.05 1057.07,1547.28 1189.07,1587.82 1306.38,1619.45 1409.25,1643.52 1521.4,1665.94 
  1634.22,1684.75 1758.96,1701.7 1877.64,1714.6 2001.05,1725.27 2104.93,1732.44 2231.76,1739.4 2350.98,1744.49 2541.98,1750.43 2571.37,1751.15 
  "/>
<path clip-path="url(#clip870)" d="
M2234.21 261.215 L2559.04 261.215 L2559.04 105.695 L2234.21 105.695  Z
  " fill="#ffffff" fill-rule="evenodd" fill-opacity="1"/>
<polyline clip-path="url(#clip870)" style="stroke:#000000; stroke-linecap:butt; stroke-linejoin:round; stroke-width:4; stroke-opacity:1; fill:none" points="
  2234.21,261.215 2559.04,261.215 2559.04,105.695 2234.21,105.695 2234.21,261.215 
  "/>
<polyline clip-path="url(#clip870)" style="stroke:#009af9; stroke-linecap:butt; stroke-linejoin:round; stroke-width:4; stroke-opacity:1; fill:none" points="
  2261.45,157.535 2424.89,157.535 
  "/>
<path clip-path="url(#clip870)" d="M2465.97 177.223 Q2464.16 181.852 2462.45 183.264 Q2460.74 184.676 2457.87 184.676 L2454.46 184.676 L2454.46 181.112 L2456.96 181.112 Q2458.72 181.112 2459.69 180.278 Q2460.67 179.445 2461.85 176.343 L2462.61 174.399 L2452.13 148.889 L2456.64 148.889 L2464.74 169.167 L2472.84 148.889 L2477.36 148.889 L2465.97 177.223 Z" fill="#000000" fill-rule="evenodd" fill-opacity="1" /><path clip-path="url(#clip870)" d="M2484.65 170.88 L2492.29 170.88 L2492.29 144.515 L2483.98 146.181 L2483.98 141.922 L2492.24 140.255 L2496.92 140.255 L2496.92 170.88 L2504.56 170.88 L2504.56 174.815 L2484.65 174.815 L2484.65 170.88 Z" fill="#000000" fill-rule="evenodd" fill-opacity="1" /><polyline clip-path="url(#clip870)" style="stroke:#e26f46; stroke-linecap:butt; stroke-linejoin:round; stroke-width:4; stroke-opacity:1; fill:none" points="
  2261.45,209.375 2424.89,209.375 
  "/>
<path clip-path="url(#clip870)" d="M2465.97 229.063 Q2464.16 233.692 2462.45 235.104 Q2460.74 236.516 2457.87 236.516 L2454.46 236.516 L2454.46 232.952 L2456.96 232.952 Q2458.72 232.952 2459.69 232.118 Q2460.67 231.285 2461.85 228.183 L2462.61 226.239 L2452.13 200.729 L2456.64 200.729 L2464.74 221.007 L2472.84 200.729 L2477.36 200.729 L2465.97 229.063 Z" fill="#000000" fill-rule="evenodd" fill-opacity="1" /><path clip-path="url(#clip870)" d="M2487.87 222.72 L2504.19 222.72 L2504.19 226.655 L2482.24 226.655 L2482.24 222.72 Q2484.9 219.965 2489.49 215.336 Q2494.09 210.683 2495.27 209.341 Q2497.52 206.817 2498.4 205.081 Q2499.3 203.322 2499.3 201.632 Q2499.3 198.878 2497.36 197.142 Q2495.44 195.405 2492.33 195.405 Q2490.13 195.405 2487.68 196.169 Q2485.25 196.933 2482.47 198.484 L2482.47 193.762 Q2485.3 192.628 2487.75 192.049 Q2490.2 191.47 2492.24 191.47 Q2497.61 191.47 2500.81 194.155 Q2504 196.841 2504 201.331 Q2504 203.461 2503.19 205.382 Q2502.4 207.28 2500.3 209.873 Q2499.72 210.544 2496.62 213.762 Q2493.51 216.956 2487.87 222.72 Z" fill="#000000" fill-rule="evenodd" fill-opacity="1" /></svg>
