<?xml version="1.0" encoding="utf-8"?>
<svg xmlns="http://www.w3.org/2000/svg" xmlns:xlink="http://www.w3.org/1999/xlink" width="672" height="480" viewBox="0 0 2688 1920">
<defs>
  <clipPath id="clip230">
    <rect x="0" y="0" width="2688" height="1920"/>
  </clipPath>
</defs>
<path clip-path="url(#clip230)" d="
M0 1920 L2688 1920 L2688 0 L0 0  Z
  " fill="#ffffff" fill-rule="evenodd" fill-opacity="1"/>
<defs>
  <clipPath id="clip231">
    <rect x="537" y="0" width="1883" height="1883"/>
  </clipPath>
</defs>
<path clip-path="url(#clip230)" d="
M196.816 1800.78 L2640.76 1800.78 L2640.76 47.2441 L196.816 47.2441  Z
  " fill="#ffffff" fill-rule="evenodd" fill-opacity="1"/>
<defs>
  <clipPath id="clip232">
    <rect x="196" y="47" width="2445" height="1755"/>
  </clipPath>
</defs>
<polyline clip-path="url(#clip232)" style="stroke:#000000; stroke-linecap:butt; stroke-linejoin:round; stroke-width:2; stroke-opacity:0.1; fill:none" points="
  265.984,1800.78 265.984,47.2441 
  "/>
<polyline clip-path="url(#clip232)" style="stroke:#000000; stroke-linecap:butt; stroke-linejoin:round; stroke-width:2; stroke-opacity:0.1; fill:none" points="
  842.385,1800.78 842.385,47.2441 
  "/>
<polyline clip-path="url(#clip232)" style="stroke:#000000; stroke-linecap:butt; stroke-linejoin:round; stroke-width:2; stroke-opacity:0.1; fill:none" points="
  1418.79,1800.78 1418.79,47.2441 
  "/>
<polyline clip-path="url(#clip232)" style="stroke:#000000; stroke-linecap:butt; stroke-linejoin:round; stroke-width:2; stroke-opacity:0.1; fill:none" points="
  1995.19,1800.78 1995.19,47.2441 
  "/>
<polyline clip-path="url(#clip232)" style="stroke:#000000; stroke-linecap:butt; stroke-linejoin:round; stroke-width:2; stroke-opacity:0.1; fill:none" points="
  2571.59,1800.78 2571.59,47.2441 
  "/>
<polyline clip-path="url(#clip230)" style="stroke:#000000; stroke-linecap:butt; stroke-linejoin:round; stroke-width:4; stroke-opacity:1; fill:none" points="
  196.816,1800.78 2640.76,1800.78 
  "/>
<polyline clip-path="url(#clip230)" style="stroke:#000000; stroke-linecap:butt; stroke-linejoin:round; stroke-width:4; stroke-opacity:1; fill:none" points="
  265.984,1800.78 265.984,1781.88 
  "/>
<polyline clip-path="url(#clip230)" style="stroke:#000000; stroke-linecap:butt; stroke-linejoin:round; stroke-width:4; stroke-opacity:1; fill:none" points="
  842.385,1800.78 842.385,1781.88 
  "/>
<polyline clip-path="url(#clip230)" style="stroke:#000000; stroke-linecap:butt; stroke-linejoin:round; stroke-width:4; stroke-opacity:1; fill:none" points="
  1418.79,1800.78 1418.79,1781.88 
  "/>
<polyline clip-path="url(#clip230)" style="stroke:#000000; stroke-linecap:butt; stroke-linejoin:round; stroke-width:4; stroke-opacity:1; fill:none" points="
  1995.19,1800.78 1995.19,1781.88 
  "/>
<polyline clip-path="url(#clip230)" style="stroke:#000000; stroke-linecap:butt; stroke-linejoin:round; stroke-width:4; stroke-opacity:1; fill:none" points="
  2571.59,1800.78 2571.59,1781.88 
  "/>
<path clip-path="url(#clip230)" d="M235.926 1848.65 L265.602 1848.65 L265.602 1852.59 L235.926 1852.59 L235.926 1848.65 Z" fill="#000000" fill-rule="evenodd" fill-opacity="1" /><path clip-path="url(#clip230)" d="M279.722 1861.55 L296.042 1861.55 L296.042 1865.48 L274.097 1865.48 L274.097 1861.55 Q276.76 1858.79 281.343 1854.16 Q285.949 1849.51 287.13 1848.17 Q289.375 1845.65 290.255 1843.91 Q291.158 1842.15 291.158 1840.46 Q291.158 1837.71 289.213 1835.97 Q287.292 1834.23 284.19 1834.23 Q281.991 1834.23 279.537 1835 Q277.107 1835.76 274.329 1837.31 L274.329 1832.59 Q277.153 1831.46 279.607 1830.88 Q282.06 1830.3 284.097 1830.3 Q289.468 1830.3 292.662 1832.98 Q295.857 1835.67 295.857 1840.16 Q295.857 1842.29 295.046 1844.21 Q294.259 1846.11 292.153 1848.7 Q291.574 1849.37 288.472 1852.59 Q285.371 1855.78 279.722 1861.55 Z" fill="#000000" fill-rule="evenodd" fill-opacity="1" /><path clip-path="url(#clip230)" d="M812.142 1848.65 L841.818 1848.65 L841.818 1852.59 L812.142 1852.59 L812.142 1848.65 Z" fill="#000000" fill-rule="evenodd" fill-opacity="1" /><path clip-path="url(#clip230)" d="M852.721 1861.55 L860.359 1861.55 L860.359 1835.18 L852.049 1836.85 L852.049 1832.59 L860.313 1830.92 L864.989 1830.92 L864.989 1861.55 L872.628 1861.55 L872.628 1865.48 L852.721 1865.48 L852.721 1861.55 Z" fill="#000000" fill-rule="evenodd" fill-opacity="1" /><path clip-path="url(#clip230)" d="M1418.79 1834 Q1415.17 1834 1413.35 1837.57 Q1411.54 1841.11 1411.54 1848.24 Q1411.54 1855.34 1413.35 1858.91 Q1415.17 1862.45 1418.79 1862.45 Q1422.42 1862.45 1424.23 1858.91 Q1426.05 1855.34 1426.05 1848.24 Q1426.05 1841.11 1424.23 1837.57 Q1422.42 1834 1418.79 1834 M1418.79 1830.3 Q1424.6 1830.3 1427.65 1834.9 Q1430.73 1839.49 1430.73 1848.24 Q1430.73 1856.96 1427.65 1861.57 Q1424.6 1866.15 1418.79 1866.15 Q1412.98 1866.15 1409.9 1861.57 Q1406.84 1856.96 1406.84 1848.24 Q1406.84 1839.49 1409.9 1834.9 Q1412.98 1830.3 1418.79 1830.3 Z" fill="#000000" fill-rule="evenodd" fill-opacity="1" /><path clip-path="url(#clip230)" d="M1985.57 1861.55 L1993.21 1861.55 L1993.21 1835.18 L1984.9 1836.85 L1984.9 1832.59 L1993.16 1830.92 L1997.84 1830.92 L1997.84 1861.55 L2005.48 1861.55 L2005.48 1865.48 L1985.57 1865.48 L1985.57 1861.55 Z" fill="#000000" fill-rule="evenodd" fill-opacity="1" /><path clip-path="url(#clip230)" d="M2566.24 1861.55 L2582.56 1861.55 L2582.56 1865.48 L2560.62 1865.48 L2560.62 1861.55 Q2563.28 1858.79 2567.86 1854.16 Q2572.47 1849.51 2573.65 1848.17 Q2575.89 1845.65 2576.77 1843.91 Q2577.68 1842.15 2577.68 1840.46 Q2577.68 1837.71 2575.73 1835.97 Q2573.81 1834.23 2570.71 1834.23 Q2568.51 1834.23 2566.06 1835 Q2563.62 1835.76 2560.85 1837.31 L2560.85 1832.59 Q2563.67 1831.46 2566.12 1830.88 Q2568.58 1830.3 2570.62 1830.3 Q2575.99 1830.3 2579.18 1832.98 Q2582.37 1835.67 2582.37 1840.16 Q2582.37 1842.29 2581.56 1844.21 Q2580.78 1846.11 2578.67 1848.7 Q2578.09 1849.37 2574.99 1852.59 Q2571.89 1855.78 2566.24 1861.55 Z" fill="#000000" fill-rule="evenodd" fill-opacity="1" /><polyline clip-path="url(#clip232)" style="stroke:#000000; stroke-linecap:butt; stroke-linejoin:round; stroke-width:2; stroke-opacity:0.1; fill:none" points="
  196.816,1751.19 2640.76,1751.19 
  "/>
<polyline clip-path="url(#clip232)" style="stroke:#000000; stroke-linecap:butt; stroke-linejoin:round; stroke-width:2; stroke-opacity:0.1; fill:none" points="
  196.816,1406.54 2640.76,1406.54 
  "/>
<polyline clip-path="url(#clip232)" style="stroke:#000000; stroke-linecap:butt; stroke-linejoin:round; stroke-width:2; stroke-opacity:0.1; fill:none" points="
  196.816,1061.89 2640.76,1061.89 
  "/>
<polyline clip-path="url(#clip232)" style="stroke:#000000; stroke-linecap:butt; stroke-linejoin:round; stroke-width:2; stroke-opacity:0.1; fill:none" points="
  196.816,717.242 2640.76,717.242 
  "/>
<polyline clip-path="url(#clip232)" style="stroke:#000000; stroke-linecap:butt; stroke-linejoin:round; stroke-width:2; stroke-opacity:0.1; fill:none" points="
  196.816,372.592 2640.76,372.592 
  "/>
<polyline clip-path="url(#clip230)" style="stroke:#000000; stroke-linecap:butt; stroke-linejoin:round; stroke-width:4; stroke-opacity:1; fill:none" points="
  196.816,1800.78 196.816,47.2441 
  "/>
<polyline clip-path="url(#clip230)" style="stroke:#000000; stroke-linecap:butt; stroke-linejoin:round; stroke-width:4; stroke-opacity:1; fill:none" points="
  196.816,1751.19 215.714,1751.19 
  "/>
<polyline clip-path="url(#clip230)" style="stroke:#000000; stroke-linecap:butt; stroke-linejoin:round; stroke-width:4; stroke-opacity:1; fill:none" points="
  196.816,1406.54 215.714,1406.54 
  "/>
<polyline clip-path="url(#clip230)" style="stroke:#000000; stroke-linecap:butt; stroke-linejoin:round; stroke-width:4; stroke-opacity:1; fill:none" points="
  196.816,1061.89 215.714,1061.89 
  "/>
<polyline clip-path="url(#clip230)" style="stroke:#000000; stroke-linecap:butt; stroke-linejoin:round; stroke-width:4; stroke-opacity:1; fill:none" points="
  196.816,717.242 215.714,717.242 
  "/>
<polyline clip-path="url(#clip230)" style="stroke:#000000; stroke-linecap:butt; stroke-linejoin:round; stroke-width:4; stroke-opacity:1; fill:none" points="
  196.816,372.592 215.714,372.592 
  "/>
<path clip-path="url(#clip230)" d="M49.5521 1751.64 L79.2279 1751.64 L79.2279 1755.58 L49.5521 1755.58 L49.5521 1751.64 Z" fill="#000000" fill-rule="evenodd" fill-opacity="1" /><path clip-path="url(#clip230)" d="M89.3667 1733.91 L107.723 1733.91 L107.723 1737.85 L93.6491 1737.85 L93.6491 1746.32 Q94.6676 1745.97 95.6861 1745.81 Q96.7047 1745.62 97.7232 1745.62 Q103.51 1745.62 106.89 1748.8 Q110.269 1751.97 110.269 1757.38 Q110.269 1762.96 106.797 1766.06 Q103.325 1769.14 97.0056 1769.14 Q94.8297 1769.14 92.5612 1768.77 Q90.3158 1768.4 87.9084 1767.66 L87.9084 1762.96 Q89.9917 1764.1 92.2139 1764.65 Q94.4361 1765.21 96.913 1765.21 Q100.918 1765.21 103.256 1763.1 Q105.593 1760.99 105.593 1757.38 Q105.593 1753.77 103.256 1751.67 Q100.918 1749.56 96.913 1749.56 Q95.038 1749.56 93.163 1749.98 Q91.3112 1750.39 89.3667 1751.27 L89.3667 1733.91 Z" fill="#000000" fill-rule="evenodd" fill-opacity="1" /><path clip-path="url(#clip230)" d="M119.482 1762.59 L124.367 1762.59 L124.367 1768.47 L119.482 1768.47 L119.482 1762.59 Z" fill="#000000" fill-rule="evenodd" fill-opacity="1" /><path clip-path="url(#clip230)" d="M144.552 1736.99 Q140.941 1736.99 139.112 1740.55 Q137.306 1744.1 137.306 1751.23 Q137.306 1758.33 139.112 1761.9 Q140.941 1765.44 144.552 1765.44 Q148.186 1765.44 149.991 1761.9 Q151.82 1758.33 151.82 1751.23 Q151.82 1744.1 149.991 1740.55 Q148.186 1736.99 144.552 1736.99 M144.552 1733.29 Q150.362 1733.29 153.417 1737.89 Q156.496 1742.48 156.496 1751.23 Q156.496 1759.95 153.417 1764.56 Q150.362 1769.14 144.552 1769.14 Q138.741 1769.14 135.663 1764.56 Q132.607 1759.95 132.607 1751.23 Q132.607 1742.48 135.663 1737.89 Q138.741 1733.29 144.552 1733.29 Z" fill="#000000" fill-rule="evenodd" fill-opacity="1" /><path clip-path="url(#clip230)" d="M50.5475 1406.99 L80.2233 1406.99 L80.2233 1410.93 L50.5475 1410.93 L50.5475 1406.99 Z" fill="#000000" fill-rule="evenodd" fill-opacity="1" /><path clip-path="url(#clip230)" d="M94.3436 1419.89 L110.663 1419.89 L110.663 1423.82 L88.7186 1423.82 L88.7186 1419.89 Q91.3806 1417.13 95.9639 1412.5 Q100.57 1407.85 101.751 1406.51 Q103.996 1403.98 104.876 1402.25 Q105.779 1400.49 105.779 1398.8 Q105.779 1396.04 103.834 1394.31 Q101.913 1392.57 98.8111 1392.57 Q96.6121 1392.57 94.1584 1393.34 Q91.7278 1394.1 88.9501 1395.65 L88.9501 1390.93 Q91.7741 1389.79 94.2278 1389.22 Q96.6815 1388.64 98.7185 1388.64 Q104.089 1388.64 107.283 1391.32 Q110.478 1394.01 110.478 1398.5 Q110.478 1400.63 109.668 1402.55 Q108.881 1404.45 106.774 1407.04 Q106.195 1407.71 103.094 1410.93 Q99.9917 1414.12 94.3436 1419.89 Z" fill="#000000" fill-rule="evenodd" fill-opacity="1" /><path clip-path="url(#clip230)" d="M120.478 1417.94 L125.362 1417.94 L125.362 1423.82 L120.478 1423.82 L120.478 1417.94 Z" fill="#000000" fill-rule="evenodd" fill-opacity="1" /><path clip-path="url(#clip230)" d="M135.593 1389.26 L153.95 1389.26 L153.95 1393.2 L139.876 1393.2 L139.876 1401.67 Q140.894 1401.32 141.913 1401.16 Q142.931 1400.97 143.95 1400.97 Q149.737 1400.97 153.116 1404.15 Q156.496 1407.32 156.496 1412.73 Q156.496 1418.31 153.024 1421.41 Q149.552 1424.49 143.232 1424.49 Q141.056 1424.49 138.788 1424.12 Q136.542 1423.75 134.135 1423.01 L134.135 1418.31 Q136.218 1419.45 138.441 1420 Q140.663 1420.56 143.14 1420.56 Q147.144 1420.56 149.482 1418.45 Q151.82 1416.34 151.82 1412.73 Q151.82 1409.12 149.482 1407.02 Q147.144 1404.91 143.14 1404.91 Q141.265 1404.91 139.39 1405.33 Q137.538 1405.74 135.593 1406.62 L135.593 1389.26 Z" fill="#000000" fill-rule="evenodd" fill-opacity="1" /><path clip-path="url(#clip230)" d="M99.3204 1047.69 Q95.7093 1047.69 93.8806 1051.26 Q92.075 1054.8 92.075 1061.93 Q92.075 1069.03 93.8806 1072.6 Q95.7093 1076.14 99.3204 1076.14 Q102.955 1076.14 104.76 1072.6 Q106.589 1069.03 106.589 1061.93 Q106.589 1054.8 104.76 1051.26 Q102.955 1047.69 99.3204 1047.69 M99.3204 1043.99 Q105.131 1043.99 108.186 1048.59 Q111.265 1053.18 111.265 1061.93 Q111.265 1070.65 108.186 1075.26 Q105.131 1079.84 99.3204 1079.84 Q93.5102 1079.84 90.4315 1075.26 Q87.376 1070.65 87.376 1061.93 Q87.376 1053.18 90.4315 1048.59 Q93.5102 1043.99 99.3204 1043.99 Z" fill="#000000" fill-rule="evenodd" fill-opacity="1" /><path clip-path="url(#clip230)" d="M119.482 1073.29 L124.367 1073.29 L124.367 1079.17 L119.482 1079.17 L119.482 1073.29 Z" fill="#000000" fill-rule="evenodd" fill-opacity="1" /><path clip-path="url(#clip230)" d="M144.552 1047.69 Q140.941 1047.69 139.112 1051.26 Q137.306 1054.8 137.306 1061.93 Q137.306 1069.03 139.112 1072.6 Q140.941 1076.14 144.552 1076.14 Q148.186 1076.14 149.991 1072.6 Q151.82 1069.03 151.82 1061.93 Q151.82 1054.8 149.991 1051.26 Q148.186 1047.69 144.552 1047.69 M144.552 1043.99 Q150.362 1043.99 153.417 1048.59 Q156.496 1053.18 156.496 1061.93 Q156.496 1070.65 153.417 1075.26 Q150.362 1079.84 144.552 1079.84 Q138.741 1079.84 135.663 1075.26 Q132.607 1070.65 132.607 1061.93 Q132.607 1053.18 135.663 1048.59 Q138.741 1043.99 144.552 1043.99 Z" fill="#000000" fill-rule="evenodd" fill-opacity="1" /><path clip-path="url(#clip230)" d="M94.3436 730.587 L110.663 730.587 L110.663 734.522 L88.7186 734.522 L88.7186 730.587 Q91.3806 727.832 95.9639 723.203 Q100.57 718.55 101.751 717.207 Q103.996 714.684 104.876 712.948 Q105.779 711.189 105.779 709.499 Q105.779 706.744 103.834 705.008 Q101.913 703.272 98.8111 703.272 Q96.6121 703.272 94.1584 704.036 Q91.7278 704.8 88.9501 706.351 L88.9501 701.629 Q91.7741 700.494 94.2278 699.916 Q96.6815 699.337 98.7185 699.337 Q104.089 699.337 107.283 702.022 Q110.478 704.707 110.478 709.198 Q110.478 711.328 109.668 713.249 Q108.881 715.147 106.774 717.74 Q106.195 718.411 103.094 721.629 Q99.9917 724.823 94.3436 730.587 Z" fill="#000000" fill-rule="evenodd" fill-opacity="1" /><path clip-path="url(#clip230)" d="M120.478 728.642 L125.362 728.642 L125.362 734.522 L120.478 734.522 L120.478 728.642 Z" fill="#000000" fill-rule="evenodd" fill-opacity="1" /><path clip-path="url(#clip230)" d="M135.593 699.962 L153.95 699.962 L153.95 703.897 L139.876 703.897 L139.876 712.369 Q140.894 712.022 141.913 711.86 Q142.931 711.675 143.95 711.675 Q149.737 711.675 153.116 714.846 Q156.496 718.017 156.496 723.434 Q156.496 729.013 153.024 732.115 Q149.552 735.193 143.232 735.193 Q141.056 735.193 138.788 734.823 Q136.542 734.453 134.135 733.712 L134.135 729.013 Q136.218 730.147 138.441 730.703 Q140.663 731.258 143.14 731.258 Q147.144 731.258 149.482 729.152 Q151.82 727.045 151.82 723.434 Q151.82 719.823 149.482 717.717 Q147.144 715.61 143.14 715.61 Q141.265 715.61 139.39 716.027 Q137.538 716.443 135.593 717.323 L135.593 699.962 Z" fill="#000000" fill-rule="evenodd" fill-opacity="1" /><path clip-path="url(#clip230)" d="M89.3667 355.312 L107.723 355.312 L107.723 359.247 L93.6491 359.247 L93.6491 367.72 Q94.6676 367.372 95.6861 367.21 Q96.7047 367.025 97.7232 367.025 Q103.51 367.025 106.89 370.196 Q110.269 373.368 110.269 378.784 Q110.269 384.363 106.797 387.465 Q103.325 390.544 97.0056 390.544 Q94.8297 390.544 92.5612 390.173 Q90.3158 389.803 87.9084 389.062 L87.9084 384.363 Q89.9917 385.497 92.2139 386.053 Q94.4361 386.608 96.913 386.608 Q100.918 386.608 103.256 384.502 Q105.593 382.395 105.593 378.784 Q105.593 375.173 103.256 373.067 Q100.918 370.96 96.913 370.96 Q95.038 370.96 93.163 371.377 Q91.3112 371.794 89.3667 372.673 L89.3667 355.312 Z" fill="#000000" fill-rule="evenodd" fill-opacity="1" /><path clip-path="url(#clip230)" d="M119.482 383.993 L124.367 383.993 L124.367 389.872 L119.482 389.872 L119.482 383.993 Z" fill="#000000" fill-rule="evenodd" fill-opacity="1" /><path clip-path="url(#clip230)" d="M144.552 358.391 Q140.941 358.391 139.112 361.956 Q137.306 365.497 137.306 372.627 Q137.306 379.733 139.112 383.298 Q140.941 386.84 144.552 386.84 Q148.186 386.84 149.991 383.298 Q151.82 379.733 151.82 372.627 Q151.82 365.497 149.991 361.956 Q148.186 358.391 144.552 358.391 M144.552 354.687 Q150.362 354.687 153.417 359.294 Q156.496 363.877 156.496 372.627 Q156.496 381.354 153.417 385.96 Q150.362 390.544 144.552 390.544 Q138.741 390.544 135.663 385.96 Q132.607 381.354 132.607 372.627 Q132.607 363.877 135.663 359.294 Q138.741 354.687 144.552 354.687 Z" fill="#000000" fill-rule="evenodd" fill-opacity="1" /><polyline clip-path="url(#clip232)" style="stroke:#009af9; stroke-linecap:butt; stroke-linejoin:round; stroke-width:4; stroke-opacity:1; fill:none" points="
  265.984,96.8724 277.242,129.026 288.5,160.864 392.597,440.307 496.694,692.771 559.252,831.513 621.81,960.512 674.702,1061.98 727.594,1156.48 785.049,1251.24 
  842.505,1337.78 895.474,1410.29 948.443,1475.81 1005.23,1538.29 1062.02,1592.75 1127.81,1645.8 1193.61,1688.07 1252.08,1716.6 1310.55,1736.61 1361.82,1747.15 
  1413.1,1751.15 1469,1748.05 1524.9,1737.17 1581.13,1718.38 1637.37,1691.72 1699.54,1653.07 1761.72,1604.8 1820.87,1549.93 1880.03,1486.36 1941.54,1411.02 
  2003.05,1326.25 2054.83,1247.6 2106.6,1162.27 2169.82,1049.04 2233.03,925.868 2292.46,801.009 2351.88,667.357 2447.08,434.913 2542.29,179.903 2556.94,138.655 
  2571.59,96.8724 
  "/>
<polyline clip-path="url(#clip232)" style="stroke:#e26f46; stroke-linecap:butt; stroke-linejoin:round; stroke-width:4; stroke-opacity:1; fill:none" points="
  265.984,1061.89 288.5,1061.89 496.694,1061.89 621.81,1061.89 727.594,1061.89 842.505,1061.89 948.443,1061.89 1062.02,1061.89 1193.61,1061.89 1310.55,1061.89 
  1413.1,1061.89 1524.9,1061.89 1637.37,1061.89 1761.72,1061.89 1880.03,1061.89 2003.05,1061.89 2106.6,1061.89 2233.03,1061.89 2351.88,1061.89 2542.29,1061.89 
  2571.59,1061.89 
  "/>
<path clip-path="url(#clip230)" d="
M2235.31 261.215 L2559.29 261.215 L2559.29 105.695 L2235.31 105.695  Z
  " fill="#ffffff" fill-rule="evenodd" fill-opacity="1"/>
<polyline clip-path="url(#clip230)" style="stroke:#000000; stroke-linecap:butt; stroke-linejoin:round; stroke-width:4; stroke-opacity:1; fill:none" points="
  2235.31,261.215 2559.29,261.215 2559.29,105.695 2235.31,105.695 2235.31,261.215 
  "/>
<polyline clip-path="url(#clip230)" style="stroke:#009af9; stroke-linecap:butt; stroke-linejoin:round; stroke-width:4; stroke-opacity:1; fill:none" points="
  2262.47,157.535 2425.4,157.535 
  "/>
<path clip-path="url(#clip230)" d="M2466.39 177.223 Q2464.59 181.852 2462.88 183.264 Q2461.16 184.676 2458.29 184.676 L2454.89 184.676 L2454.89 181.112 L2457.39 181.112 Q2459.15 181.112 2460.12 180.278 Q2461.09 179.445 2462.27 176.343 L2463.04 174.399 L2452.55 148.889 L2457.07 148.889 L2465.17 169.167 L2473.27 148.889 L2477.78 148.889 L2466.39 177.223 Z" fill="#000000" fill-rule="evenodd" fill-opacity="1" /><path clip-path="url(#clip230)" d="M2485.07 170.88 L2492.71 170.88 L2492.71 144.515 L2484.4 146.181 L2484.4 141.922 L2492.67 140.255 L2497.34 140.255 L2497.34 170.88 L2504.98 170.88 L2504.98 174.815 L2485.07 174.815 L2485.07 170.88 Z" fill="#000000" fill-rule="evenodd" fill-opacity="1" /><polyline clip-path="url(#clip230)" style="stroke:#e26f46; stroke-linecap:butt; stroke-linejoin:round; stroke-width:4; stroke-opacity:1; fill:none" points="
  2262.47,209.375 2425.4,209.375 
  "/>
<path clip-path="url(#clip230)" d="M2466.39 229.063 Q2464.59 233.692 2462.88 235.104 Q2461.16 236.516 2458.29 236.516 L2454.89 236.516 L2454.89 232.952 L2457.39 232.952 Q2459.15 232.952 2460.12 232.118 Q2461.09 231.285 2462.27 228.183 L2463.04 226.239 L2452.55 200.729 L2457.07 200.729 L2465.17 221.007 L2473.27 200.729 L2477.78 200.729 L2466.39 229.063 Z" fill="#000000" fill-rule="evenodd" fill-opacity="1" /><path clip-path="url(#clip230)" d="M2488.29 222.72 L2504.61 222.72 L2504.61 226.655 L2482.67 226.655 L2482.67 222.72 Q2485.33 219.965 2489.91 215.336 Q2494.52 210.683 2495.7 209.341 Q2497.94 206.817 2498.82 205.081 Q2499.73 203.322 2499.73 201.632 Q2499.73 198.878 2497.78 197.142 Q2495.86 195.405 2492.76 195.405 Q2490.56 195.405 2488.11 196.169 Q2485.68 196.933 2482.9 198.484 L2482.9 193.762 Q2485.72 192.628 2488.18 192.049 Q2490.63 191.47 2492.67 191.47 Q2498.04 191.47 2501.23 194.155 Q2504.43 196.841 2504.43 201.331 Q2504.43 203.461 2503.62 205.382 Q2502.83 207.28 2500.72 209.873 Q2500.14 210.544 2497.04 213.762 Q2493.94 216.956 2488.29 222.72 Z" fill="#000000" fill-rule="evenodd" fill-opacity="1" /></svg>
