<?xml version="1.0" encoding="utf-8"?>
<svg xmlns="http://www.w3.org/2000/svg" xmlns:xlink="http://www.w3.org/1999/xlink" width="672" height="480" viewBox="0 0 2688 1920">
<defs>
  <clipPath id="clip750">
    <rect x="0" y="0" width="2688" height="1920"/>
  </clipPath>
</defs>
<path clip-path="url(#clip750)" d="
M0 1920 L2688 1920 L2688 0 L0 0  Z
  " fill="#ffffff" fill-rule="evenodd" fill-opacity="1"/>
<defs>
  <clipPath id="clip751">
    <rect x="537" y="0" width="1883" height="1883"/>
  </clipPath>
</defs>
<path clip-path="url(#clip750)" d="
M158.645 1800.78 L2640.76 1800.78 L2640.76 47.2441 L158.645 47.2441  Z
  " fill="#ffffff" fill-rule="evenodd" fill-opacity="1"/>
<defs>
  <clipPath id="clip752">
    <rect x="158" y="47" width="2483" height="1755"/>
  </clipPath>
</defs>
<polyline clip-path="url(#clip752)" style="stroke:#000000; stroke-linecap:butt; stroke-linejoin:round; stroke-width:2; stroke-opacity:0.1; fill:none" points="
  228.893,1800.78 228.893,47.2441 
  "/>
<polyline clip-path="url(#clip752)" style="stroke:#000000; stroke-linecap:butt; stroke-linejoin:round; stroke-width:2; stroke-opacity:0.1; fill:none" points="
  814.297,1800.78 814.297,47.2441 
  "/>
<polyline clip-path="url(#clip752)" style="stroke:#000000; stroke-linecap:butt; stroke-linejoin:round; stroke-width:2; stroke-opacity:0.1; fill:none" points="
  1399.7,1800.78 1399.7,47.2441 
  "/>
<polyline clip-path="url(#clip752)" style="stroke:#000000; stroke-linecap:butt; stroke-linejoin:round; stroke-width:2; stroke-opacity:0.1; fill:none" points="
  1985.1,1800.78 1985.1,47.2441 
  "/>
<polyline clip-path="url(#clip752)" style="stroke:#000000; stroke-linecap:butt; stroke-linejoin:round; stroke-width:2; stroke-opacity:0.1; fill:none" points="
  2570.51,1800.78 2570.51,47.2441 
  "/>
<polyline clip-path="url(#clip750)" style="stroke:#000000; stroke-linecap:butt; stroke-linejoin:round; stroke-width:4; stroke-opacity:1; fill:none" points="
  158.645,1800.78 2640.76,1800.78 
  "/>
<polyline clip-path="url(#clip750)" style="stroke:#000000; stroke-linecap:butt; stroke-linejoin:round; stroke-width:4; stroke-opacity:1; fill:none" points="
  228.893,1800.78 228.893,1781.88 
  "/>
<polyline clip-path="url(#clip750)" style="stroke:#000000; stroke-linecap:butt; stroke-linejoin:round; stroke-width:4; stroke-opacity:1; fill:none" points="
  814.297,1800.78 814.297,1781.88 
  "/>
<polyline clip-path="url(#clip750)" style="stroke:#000000; stroke-linecap:butt; stroke-linejoin:round; stroke-width:4; stroke-opacity:1; fill:none" points="
  1399.7,1800.78 1399.7,1781.88 
  "/>
<polyline clip-path="url(#clip750)" style="stroke:#000000; stroke-linecap:butt; stroke-linejoin:round; stroke-width:4; stroke-opacity:1; fill:none" points="
  1985.1,1800.78 1985.1,1781.88 
  "/>
<polyline clip-path="url(#clip750)" style="stroke:#000000; stroke-linecap:butt; stroke-linejoin:round; stroke-width:4; stroke-opacity:1; fill:none" points="
  2570.51,1800.78 2570.51,1781.88 
  "/>
<path clip-path="url(#clip750)" d="M175.421 1848.65 L205.097 1848.65 L205.097 1852.59 L175.421 1852.59 L175.421 1848.65 Z" fill="#000000" fill-rule="evenodd" fill-opacity="1" /><path clip-path="url(#clip750)" d="M216 1861.55 L223.639 1861.55 L223.639 1835.18 L215.329 1836.85 L215.329 1832.59 L223.592 1830.92 L228.268 1830.92 L228.268 1861.55 L235.907 1861.55 L235.907 1865.48 L216 1865.48 L216 1861.55 Z" fill="#000000" fill-rule="evenodd" fill-opacity="1" /><path clip-path="url(#clip750)" d="M245.352 1859.6 L250.236 1859.6 L250.236 1865.48 L245.352 1865.48 L245.352 1859.6 Z" fill="#000000" fill-rule="evenodd" fill-opacity="1" /><path clip-path="url(#clip750)" d="M270.421 1834 Q266.81 1834 264.981 1837.57 Q263.176 1841.11 263.176 1848.24 Q263.176 1855.34 264.981 1858.91 Q266.81 1862.45 270.421 1862.45 Q274.055 1862.45 275.861 1858.91 Q277.689 1855.34 277.689 1848.24 Q277.689 1841.11 275.861 1837.57 Q274.055 1834 270.421 1834 M270.421 1830.3 Q276.231 1830.3 279.287 1834.9 Q282.365 1839.49 282.365 1848.24 Q282.365 1856.96 279.287 1861.57 Q276.231 1866.15 270.421 1866.15 Q264.611 1866.15 261.532 1861.57 Q258.477 1856.96 258.477 1848.24 Q258.477 1839.49 261.532 1834.9 Q264.611 1830.3 270.421 1830.3 Z" fill="#000000" fill-rule="evenodd" fill-opacity="1" /><path clip-path="url(#clip750)" d="M761.323 1848.65 L790.998 1848.65 L790.998 1852.59 L761.323 1852.59 L761.323 1848.65 Z" fill="#000000" fill-rule="evenodd" fill-opacity="1" /><path clip-path="url(#clip750)" d="M811.091 1834 Q807.48 1834 805.651 1837.57 Q803.846 1841.11 803.846 1848.24 Q803.846 1855.34 805.651 1858.91 Q807.48 1862.45 811.091 1862.45 Q814.725 1862.45 816.531 1858.91 Q818.359 1855.34 818.359 1848.24 Q818.359 1841.11 816.531 1837.57 Q814.725 1834 811.091 1834 M811.091 1830.3 Q816.901 1830.3 819.957 1834.9 Q823.035 1839.49 823.035 1848.24 Q823.035 1856.96 819.957 1861.57 Q816.901 1866.15 811.091 1866.15 Q805.281 1866.15 802.202 1861.57 Q799.146 1856.96 799.146 1848.24 Q799.146 1839.49 802.202 1834.9 Q805.281 1830.3 811.091 1830.3 Z" fill="#000000" fill-rule="evenodd" fill-opacity="1" /><path clip-path="url(#clip750)" d="M831.253 1859.6 L836.137 1859.6 L836.137 1865.48 L831.253 1865.48 L831.253 1859.6 Z" fill="#000000" fill-rule="evenodd" fill-opacity="1" /><path clip-path="url(#clip750)" d="M846.368 1830.92 L864.725 1830.92 L864.725 1834.86 L850.651 1834.86 L850.651 1843.33 Q851.669 1842.98 852.688 1842.82 Q853.706 1842.64 854.725 1842.64 Q860.512 1842.64 863.892 1845.81 Q867.271 1848.98 867.271 1854.4 Q867.271 1859.97 863.799 1863.08 Q860.327 1866.15 854.007 1866.15 Q851.831 1866.15 849.563 1865.78 Q847.318 1865.41 844.91 1864.67 L844.91 1859.97 Q846.993 1861.11 849.216 1861.66 Q851.438 1862.22 853.915 1862.22 Q857.919 1862.22 860.257 1860.11 Q862.595 1858.01 862.595 1854.4 Q862.595 1850.78 860.257 1848.68 Q857.919 1846.57 853.915 1846.57 Q852.04 1846.57 850.165 1846.99 Q848.313 1847.4 846.368 1848.28 L846.368 1830.92 Z" fill="#000000" fill-rule="evenodd" fill-opacity="1" /><path clip-path="url(#clip750)" d="M1377.08 1834 Q1373.47 1834 1371.65 1837.57 Q1369.84 1841.11 1369.84 1848.24 Q1369.84 1855.34 1371.65 1858.91 Q1373.47 1862.45 1377.08 1862.45 Q1380.72 1862.45 1382.52 1858.91 Q1384.35 1855.34 1384.35 1848.24 Q1384.35 1841.11 1382.52 1837.57 Q1380.72 1834 1377.08 1834 M1377.08 1830.3 Q1382.89 1830.3 1385.95 1834.9 Q1389.03 1839.49 1389.03 1848.24 Q1389.03 1856.96 1385.95 1861.57 Q1382.89 1866.15 1377.08 1866.15 Q1371.27 1866.15 1368.2 1861.57 Q1365.14 1856.96 1365.14 1848.24 Q1365.14 1839.49 1368.2 1834.9 Q1371.27 1830.3 1377.08 1830.3 Z" fill="#000000" fill-rule="evenodd" fill-opacity="1" /><path clip-path="url(#clip750)" d="M1397.25 1859.6 L1402.13 1859.6 L1402.13 1865.48 L1397.25 1865.48 L1397.25 1859.6 Z" fill="#000000" fill-rule="evenodd" fill-opacity="1" /><path clip-path="url(#clip750)" d="M1422.32 1834 Q1418.7 1834 1416.88 1837.57 Q1415.07 1841.11 1415.07 1848.24 Q1415.07 1855.34 1416.88 1858.91 Q1418.7 1862.45 1422.32 1862.45 Q1425.95 1862.45 1427.76 1858.91 Q1429.58 1855.34 1429.58 1848.24 Q1429.58 1841.11 1427.76 1837.57 Q1425.95 1834 1422.32 1834 M1422.32 1830.3 Q1428.13 1830.3 1431.18 1834.9 Q1434.26 1839.49 1434.26 1848.24 Q1434.26 1856.96 1431.18 1861.57 Q1428.13 1866.15 1422.32 1866.15 Q1416.51 1866.15 1413.43 1861.57 Q1410.37 1856.96 1410.37 1848.24 Q1410.37 1839.49 1413.43 1834.9 Q1416.51 1830.3 1422.32 1830.3 Z" fill="#000000" fill-rule="evenodd" fill-opacity="1" /><path clip-path="url(#clip750)" d="M1962.99 1834 Q1959.37 1834 1957.55 1837.57 Q1955.74 1841.11 1955.74 1848.24 Q1955.74 1855.34 1957.55 1858.91 Q1959.37 1862.45 1962.99 1862.45 Q1966.62 1862.45 1968.43 1858.91 Q1970.25 1855.34 1970.25 1848.24 Q1970.25 1841.11 1968.43 1837.57 Q1966.62 1834 1962.99 1834 M1962.99 1830.3 Q1968.8 1830.3 1971.85 1834.9 Q1974.93 1839.49 1974.93 1848.24 Q1974.93 1856.96 1971.85 1861.57 Q1968.8 1866.15 1962.99 1866.15 Q1957.18 1866.15 1954.1 1861.57 Q1951.04 1856.96 1951.04 1848.24 Q1951.04 1839.49 1954.1 1834.9 Q1957.18 1830.3 1962.99 1830.3 Z" fill="#000000" fill-rule="evenodd" fill-opacity="1" /><path clip-path="url(#clip750)" d="M1983.15 1859.6 L1988.03 1859.6 L1988.03 1865.48 L1983.15 1865.48 L1983.15 1859.6 Z" fill="#000000" fill-rule="evenodd" fill-opacity="1" /><path clip-path="url(#clip750)" d="M1998.26 1830.92 L2016.62 1830.92 L2016.62 1834.86 L2002.55 1834.86 L2002.55 1843.33 Q2003.56 1842.98 2004.58 1842.82 Q2005.6 1842.64 2006.62 1842.64 Q2012.41 1842.64 2015.79 1845.81 Q2019.17 1848.98 2019.17 1854.4 Q2019.17 1859.97 2015.69 1863.08 Q2012.22 1866.15 2005.9 1866.15 Q2003.73 1866.15 2001.46 1865.78 Q1999.21 1865.41 1996.81 1864.67 L1996.81 1859.97 Q1998.89 1861.11 2001.11 1861.66 Q2003.33 1862.22 2005.81 1862.22 Q2009.81 1862.22 2012.15 1860.11 Q2014.49 1858.01 2014.49 1854.4 Q2014.49 1850.78 2012.15 1848.68 Q2009.81 1846.57 2005.81 1846.57 Q2003.93 1846.57 2002.06 1846.99 Q2000.21 1847.4 1998.26 1848.28 L1998.26 1830.92 Z" fill="#000000" fill-rule="evenodd" fill-opacity="1" /><path clip-path="url(#clip750)" d="M2537.66 1861.55 L2545.3 1861.55 L2545.3 1835.18 L2536.99 1836.85 L2536.99 1832.59 L2545.25 1830.92 L2549.93 1830.92 L2549.93 1861.55 L2557.57 1861.55 L2557.57 1865.48 L2537.66 1865.48 L2537.66 1861.55 Z" fill="#000000" fill-rule="evenodd" fill-opacity="1" /><path clip-path="url(#clip750)" d="M2567.01 1859.6 L2571.9 1859.6 L2571.9 1865.48 L2567.01 1865.48 L2567.01 1859.6 Z" fill="#000000" fill-rule="evenodd" fill-opacity="1" /><path clip-path="url(#clip750)" d="M2592.08 1834 Q2588.47 1834 2586.64 1837.57 Q2584.84 1841.11 2584.84 1848.24 Q2584.84 1855.34 2586.64 1858.91 Q2588.47 1862.45 2592.08 1862.45 Q2595.72 1862.45 2597.52 1858.91 Q2599.35 1855.34 2599.35 1848.24 Q2599.35 1841.11 2597.52 1837.57 Q2595.72 1834 2592.08 1834 M2592.08 1830.3 Q2597.89 1830.3 2600.95 1834.9 Q2604.03 1839.49 2604.03 1848.24 Q2604.03 1856.96 2600.95 1861.57 Q2597.89 1866.15 2592.08 1866.15 Q2586.27 1866.15 2583.19 1861.57 Q2580.14 1856.96 2580.14 1848.24 Q2580.14 1839.49 2583.19 1834.9 Q2586.27 1830.3 2592.08 1830.3 Z" fill="#000000" fill-rule="evenodd" fill-opacity="1" /><polyline clip-path="url(#clip752)" style="stroke:#000000; stroke-linecap:butt; stroke-linejoin:round; stroke-width:2; stroke-opacity:0.1; fill:none" points="
  158.645,1751.15 2640.76,1751.15 
  "/>
<polyline clip-path="url(#clip752)" style="stroke:#000000; stroke-linecap:butt; stroke-linejoin:round; stroke-width:2; stroke-opacity:0.1; fill:none" points="
  158.645,1436.05 2640.76,1436.05 
  "/>
<polyline clip-path="url(#clip752)" style="stroke:#000000; stroke-linecap:butt; stroke-linejoin:round; stroke-width:2; stroke-opacity:0.1; fill:none" points="
  158.645,1120.95 2640.76,1120.95 
  "/>
<polyline clip-path="url(#clip752)" style="stroke:#000000; stroke-linecap:butt; stroke-linejoin:round; stroke-width:2; stroke-opacity:0.1; fill:none" points="
  158.645,805.849 2640.76,805.849 
  "/>
<polyline clip-path="url(#clip752)" style="stroke:#000000; stroke-linecap:butt; stroke-linejoin:round; stroke-width:2; stroke-opacity:0.1; fill:none" points="
  158.645,490.748 2640.76,490.748 
  "/>
<polyline clip-path="url(#clip752)" style="stroke:#000000; stroke-linecap:butt; stroke-linejoin:round; stroke-width:2; stroke-opacity:0.1; fill:none" points="
  158.645,175.648 2640.76,175.648 
  "/>
<polyline clip-path="url(#clip750)" style="stroke:#000000; stroke-linecap:butt; stroke-linejoin:round; stroke-width:4; stroke-opacity:1; fill:none" points="
  158.645,1800.78 158.645,47.2441 
  "/>
<polyline clip-path="url(#clip750)" style="stroke:#000000; stroke-linecap:butt; stroke-linejoin:round; stroke-width:4; stroke-opacity:1; fill:none" points="
  158.645,1751.15 177.543,1751.15 
  "/>
<polyline clip-path="url(#clip750)" style="stroke:#000000; stroke-linecap:butt; stroke-linejoin:round; stroke-width:4; stroke-opacity:1; fill:none" points="
  158.645,1436.05 177.543,1436.05 
  "/>
<polyline clip-path="url(#clip750)" style="stroke:#000000; stroke-linecap:butt; stroke-linejoin:round; stroke-width:4; stroke-opacity:1; fill:none" points="
  158.645,1120.95 177.543,1120.95 
  "/>
<polyline clip-path="url(#clip750)" style="stroke:#000000; stroke-linecap:butt; stroke-linejoin:round; stroke-width:4; stroke-opacity:1; fill:none" points="
  158.645,805.849 177.543,805.849 
  "/>
<polyline clip-path="url(#clip750)" style="stroke:#000000; stroke-linecap:butt; stroke-linejoin:round; stroke-width:4; stroke-opacity:1; fill:none" points="
  158.645,490.748 177.543,490.748 
  "/>
<polyline clip-path="url(#clip750)" style="stroke:#000000; stroke-linecap:butt; stroke-linejoin:round; stroke-width:4; stroke-opacity:1; fill:none" points="
  158.645,175.648 177.543,175.648 
  "/>
<path clip-path="url(#clip750)" d="M51.9595 1764.5 L59.5984 1764.5 L59.5984 1738.13 L51.2882 1739.8 L51.2882 1735.54 L59.5521 1733.87 L64.228 1733.87 L64.228 1764.5 L71.8668 1764.5 L71.8668 1768.43 L51.9595 1768.43 L51.9595 1764.5 Z" fill="#000000" fill-rule="evenodd" fill-opacity="1" /><path clip-path="url(#clip750)" d="M81.3112 1762.55 L86.1954 1762.55 L86.1954 1768.43 L81.3112 1768.43 L81.3112 1762.55 Z" fill="#000000" fill-rule="evenodd" fill-opacity="1" /><path clip-path="url(#clip750)" d="M106.381 1736.95 Q102.769 1736.95 100.941 1740.51 Q99.1352 1744.06 99.1352 1751.19 Q99.1352 1758.29 100.941 1761.86 Q102.769 1765.4 106.381 1765.4 Q110.015 1765.4 111.82 1761.86 Q113.649 1758.29 113.649 1751.19 Q113.649 1744.06 111.82 1740.51 Q110.015 1736.95 106.381 1736.95 M106.381 1733.25 Q112.191 1733.25 115.246 1737.85 Q118.325 1742.44 118.325 1751.19 Q118.325 1759.91 115.246 1764.52 Q112.191 1769.1 106.381 1769.1 Q100.57 1769.1 97.4917 1764.52 Q94.4361 1759.91 94.4361 1751.19 Q94.4361 1742.44 97.4917 1737.85 Q100.57 1733.25 106.381 1733.25 Z" fill="#000000" fill-rule="evenodd" fill-opacity="1" /><path clip-path="url(#clip750)" d="M52.9549 1449.4 L60.5937 1449.4 L60.5937 1423.03 L52.2836 1424.7 L52.2836 1420.44 L60.5474 1418.77 L65.2233 1418.77 L65.2233 1449.4 L72.8622 1449.4 L72.8622 1453.33 L52.9549 1453.33 L52.9549 1449.4 Z" fill="#000000" fill-rule="evenodd" fill-opacity="1" /><path clip-path="url(#clip750)" d="M82.3066 1447.45 L87.1908 1447.45 L87.1908 1453.33 L82.3066 1453.33 L82.3066 1447.45 Z" fill="#000000" fill-rule="evenodd" fill-opacity="1" /><path clip-path="url(#clip750)" d="M97.4222 1418.77 L115.779 1418.77 L115.779 1422.71 L101.705 1422.71 L101.705 1431.18 Q102.723 1430.83 103.742 1430.67 Q104.76 1430.48 105.779 1430.48 Q111.566 1430.48 114.945 1433.65 Q118.325 1436.83 118.325 1442.24 Q118.325 1447.82 114.853 1450.92 Q111.38 1454 105.061 1454 Q102.885 1454 100.617 1453.63 Q98.3713 1453.26 95.9639 1452.52 L95.9639 1447.82 Q98.0472 1448.96 100.269 1449.51 Q102.492 1450.07 104.968 1450.07 Q108.973 1450.07 111.311 1447.96 Q113.649 1445.85 113.649 1442.24 Q113.649 1438.63 111.311 1436.52 Q108.973 1434.42 104.968 1434.42 Q103.094 1434.42 101.219 1434.84 Q99.3667 1435.25 97.4222 1436.13 L97.4222 1418.77 Z" fill="#000000" fill-rule="evenodd" fill-opacity="1" /><path clip-path="url(#clip750)" d="M55.1771 1134.29 L71.4965 1134.29 L71.4965 1138.23 L49.5521 1138.23 L49.5521 1134.29 Q52.2141 1131.54 56.7975 1126.91 Q61.4039 1122.26 62.5845 1120.91 Q64.8298 1118.39 65.7094 1116.66 Q66.6122 1114.9 66.6122 1113.21 Q66.6122 1110.45 64.6678 1108.72 Q62.7465 1106.98 59.6447 1106.98 Q57.4456 1106.98 54.9919 1107.74 Q52.5614 1108.51 49.7836 1110.06 L49.7836 1105.34 Q52.6077 1104.2 55.0614 1103.62 Q57.515 1103.04 59.5521 1103.04 Q64.9224 1103.04 68.1168 1105.73 Q71.3113 1108.41 71.3113 1112.91 Q71.3113 1115.04 70.5011 1116.96 Q69.7141 1118.85 67.6076 1121.45 Q67.0289 1122.12 63.927 1125.34 Q60.8252 1128.53 55.1771 1134.29 Z" fill="#000000" fill-rule="evenodd" fill-opacity="1" /><path clip-path="url(#clip750)" d="M81.3112 1132.35 L86.1954 1132.35 L86.1954 1138.23 L81.3112 1138.23 L81.3112 1132.35 Z" fill="#000000" fill-rule="evenodd" fill-opacity="1" /><path clip-path="url(#clip750)" d="M106.381 1106.75 Q102.769 1106.75 100.941 1110.31 Q99.1352 1113.85 99.1352 1120.98 Q99.1352 1128.09 100.941 1131.66 Q102.769 1135.2 106.381 1135.2 Q110.015 1135.2 111.82 1131.66 Q113.649 1128.09 113.649 1120.98 Q113.649 1113.85 111.82 1110.31 Q110.015 1106.75 106.381 1106.75 M106.381 1103.04 Q112.191 1103.04 115.246 1107.65 Q118.325 1112.23 118.325 1120.98 Q118.325 1129.71 115.246 1134.32 Q112.191 1138.9 106.381 1138.9 Q100.57 1138.9 97.4917 1134.32 Q94.4361 1129.71 94.4361 1120.98 Q94.4361 1112.23 97.4917 1107.65 Q100.57 1103.04 106.381 1103.04 Z" fill="#000000" fill-rule="evenodd" fill-opacity="1" /><path clip-path="url(#clip750)" d="M56.1725 819.194 L72.4918 819.194 L72.4918 823.129 L50.5475 823.129 L50.5475 819.194 Q53.2095 816.439 57.7928 811.81 Q62.3993 807.157 63.5798 805.814 Q65.8252 803.291 66.7048 801.555 Q67.6076 799.796 67.6076 798.106 Q67.6076 795.351 65.6632 793.615 Q63.7419 791.879 60.64 791.879 Q58.441 791.879 55.9873 792.643 Q53.5567 793.407 50.779 794.958 L50.779 790.236 Q53.603 789.101 56.0567 788.523 Q58.5104 787.944 60.5474 787.944 Q65.9178 787.944 69.1122 790.629 Q72.3066 793.314 72.3066 797.805 Q72.3066 799.935 71.4965 801.856 Q70.7094 803.754 68.6029 806.347 Q68.0242 807.018 64.9224 810.235 Q61.8206 813.43 56.1725 819.194 Z" fill="#000000" fill-rule="evenodd" fill-opacity="1" /><path clip-path="url(#clip750)" d="M82.3066 817.249 L87.1908 817.249 L87.1908 823.129 L82.3066 823.129 L82.3066 817.249 Z" fill="#000000" fill-rule="evenodd" fill-opacity="1" /><path clip-path="url(#clip750)" d="M97.4222 788.569 L115.779 788.569 L115.779 792.504 L101.705 792.504 L101.705 800.976 Q102.723 800.629 103.742 800.467 Q104.76 800.282 105.779 800.282 Q111.566 800.282 114.945 803.453 Q118.325 806.624 118.325 812.041 Q118.325 817.62 114.853 820.722 Q111.38 823.8 105.061 823.8 Q102.885 823.8 100.617 823.43 Q98.3713 823.06 95.9639 822.319 L95.9639 817.62 Q98.0472 818.754 100.269 819.31 Q102.492 819.865 104.968 819.865 Q108.973 819.865 111.311 817.759 Q113.649 815.652 113.649 812.041 Q113.649 808.43 111.311 806.323 Q108.973 804.217 104.968 804.217 Q103.094 804.217 101.219 804.634 Q99.3667 805.05 97.4222 805.93 L97.4222 788.569 Z" fill="#000000" fill-rule="evenodd" fill-opacity="1" /><path clip-path="url(#clip750)" d="M65.3159 489.394 Q68.6724 490.112 70.5474 492.38 Q72.4455 494.649 72.4455 497.982 Q72.4455 503.098 68.927 505.899 Q65.4085 508.7 58.9271 508.7 Q56.7512 508.7 54.4364 508.26 Q52.1447 507.843 49.691 506.987 L49.691 502.473 Q51.6354 503.607 53.9503 504.186 Q56.2651 504.764 58.7882 504.764 Q63.1863 504.764 65.478 503.028 Q67.7928 501.292 67.7928 497.982 Q67.7928 494.927 65.64 493.214 Q63.5104 491.477 59.691 491.477 L55.6632 491.477 L55.6632 487.635 L59.8761 487.635 Q63.3252 487.635 65.1539 486.269 Q66.9826 484.88 66.9826 482.288 Q66.9826 479.626 65.0845 478.214 Q63.2095 476.778 59.691 476.778 Q57.7697 476.778 55.5706 477.195 Q53.3715 477.612 50.7327 478.491 L50.7327 474.325 Q53.3947 473.584 55.7095 473.214 Q58.0475 472.843 60.1076 472.843 Q65.4317 472.843 68.5335 475.274 Q71.6353 477.681 71.6353 481.802 Q71.6353 484.672 69.9918 486.663 Q68.3483 488.63 65.3159 489.394 Z" fill="#000000" fill-rule="evenodd" fill-opacity="1" /><path clip-path="url(#clip750)" d="M81.3112 502.149 L86.1954 502.149 L86.1954 508.028 L81.3112 508.028 L81.3112 502.149 Z" fill="#000000" fill-rule="evenodd" fill-opacity="1" /><path clip-path="url(#clip750)" d="M106.381 476.547 Q102.769 476.547 100.941 480.112 Q99.1352 483.653 99.1352 490.783 Q99.1352 497.889 100.941 501.454 Q102.769 504.996 106.381 504.996 Q110.015 504.996 111.82 501.454 Q113.649 497.889 113.649 490.783 Q113.649 483.653 111.82 480.112 Q110.015 476.547 106.381 476.547 M106.381 472.843 Q112.191 472.843 115.246 477.45 Q118.325 482.033 118.325 490.783 Q118.325 499.51 115.246 504.116 Q112.191 508.7 106.381 508.7 Q100.57 508.7 97.4917 504.116 Q94.4361 499.51 94.4361 490.783 Q94.4361 482.033 97.4917 477.45 Q100.57 472.843 106.381 472.843 Z" fill="#000000" fill-rule="evenodd" fill-opacity="1" /><path clip-path="url(#clip750)" d="M66.3113 174.293 Q69.6678 175.011 71.5427 177.28 Q73.4409 179.548 73.4409 182.881 Q73.4409 187.997 69.9224 190.798 Q66.4039 193.599 59.9224 193.599 Q57.7465 193.599 55.4317 193.159 Q53.1401 192.742 50.6864 191.886 L50.6864 187.372 Q52.6308 188.506 54.9456 189.085 Q57.2604 189.664 59.7836 189.664 Q64.1817 189.664 66.4733 187.928 Q68.7881 186.192 68.7881 182.881 Q68.7881 179.826 66.6354 178.113 Q64.5057 176.377 60.6863 176.377 L56.6586 176.377 L56.6586 172.534 L60.8715 172.534 Q64.3206 172.534 66.1493 171.168 Q67.978 169.78 67.978 167.187 Q67.978 164.525 66.0798 163.113 Q64.2048 161.678 60.6863 161.678 Q58.765 161.678 56.566 162.094 Q54.3669 162.511 51.728 163.391 L51.728 159.224 Q54.3901 158.483 56.7049 158.113 Q59.0428 157.743 61.103 157.743 Q66.427 157.743 69.5289 160.173 Q72.6307 162.581 72.6307 166.701 Q72.6307 169.571 70.9872 171.562 Q69.3437 173.53 66.3113 174.293 Z" fill="#000000" fill-rule="evenodd" fill-opacity="1" /><path clip-path="url(#clip750)" d="M82.3066 187.048 L87.1908 187.048 L87.1908 192.928 L82.3066 192.928 L82.3066 187.048 Z" fill="#000000" fill-rule="evenodd" fill-opacity="1" /><path clip-path="url(#clip750)" d="M97.4222 158.368 L115.779 158.368 L115.779 162.303 L101.705 162.303 L101.705 170.775 Q102.723 170.428 103.742 170.266 Q104.76 170.081 105.779 170.081 Q111.566 170.081 114.945 173.252 Q118.325 176.423 118.325 181.84 Q118.325 187.418 114.853 190.52 Q111.38 193.599 105.061 193.599 Q102.885 193.599 100.617 193.229 Q98.3713 192.858 95.9639 192.117 L95.9639 187.418 Q98.0472 188.553 100.269 189.108 Q102.492 189.664 104.968 189.664 Q108.973 189.664 111.311 187.557 Q113.649 185.451 113.649 181.84 Q113.649 178.229 111.311 176.122 Q108.973 174.016 104.968 174.016 Q103.094 174.016 101.219 174.432 Q99.3667 174.849 97.4222 175.729 L97.4222 158.368 Z" fill="#000000" fill-rule="evenodd" fill-opacity="1" /><polyline clip-path="url(#clip752)" style="stroke:#009af9; stroke-linecap:butt; stroke-linejoin:round; stroke-width:4; stroke-opacity:1; fill:none" points="
  228.893,1751.15 232.705,1747.05 236.516,1742.97 240.327,1738.9 244.139,1734.85 279.379,1697.97 314.62,1662.24 349.861,1627.65 385.102,1594.21 427.459,1555.52 
  469.816,1518.48 505.628,1488.45 541.44,1459.6 580.342,1429.59 619.243,1400.98 655.108,1375.84 690.972,1351.87 729.422,1327.5 767.872,1304.48 790.146,1291.77 
  812.42,1279.51 834.694,1267.71 856.968,1256.37 896.558,1237.33 936.147,1219.74 970.863,1205.5 1005.58,1192.36 1043.43,1179.3 1081.28,1167.56 1119.35,1157.08 
  1157.43,1147.93 1199.53,1139.37 1241.62,1132.44 1281.68,1127.35 1321.73,1123.74 1363.38,1121.56 1405.02,1120.96 1440.08,1121.7 1475.14,1123.57 1496.54,1125.26 
  1517.94,1127.38 1539.34,1129.91 1560.74,1132.87 1599.95,1139.39 1639.16,1147.31 1675.37,1155.89 1711.58,1165.67 1748.27,1176.81 1784.95,1189.18 1826.06,1204.52 
  1867.17,1221.41 1904.42,1238.06 1941.67,1255.99 1963,1266.83 1984.33,1278.08 2005.65,1289.75 2026.98,1301.85 2066.47,1325.34 2105.96,1350.27 2144.9,1376.25 
  2183.83,1403.62 2221.63,1431.53 2259.43,1460.76 2298.18,1492.08 2336.94,1524.79 2358.16,1543.29 2379.39,1562.2 2400.62,1581.53 2421.85,1601.28 2452.69,1630.7 
  2483.53,1660.99 2514.36,1692.16 2545.2,1724.2 2551.53,1730.88 2557.85,1737.6 2564.18,1744.36 2570.51,1751.15 
  "/>
<polyline clip-path="url(#clip752)" style="stroke:#e26f46; stroke-linecap:butt; stroke-linejoin:round; stroke-width:4; stroke-opacity:1; fill:none" points="
  228.893,1554.21 244.139,1550.11 385.102,1512.17 469.816,1489.37 541.44,1470.1 619.243,1449.16 690.972,1429.85 767.872,1409.16 856.968,1385.18 936.147,1363.87 
  1005.58,1345.18 1081.28,1324.81 1157.43,1304.32 1241.62,1281.66 1321.73,1260.1 1405.02,1237.68 1475.14,1218.81 1560.74,1195.77 1639.16,1174.67 1711.58,1155.17 
  1784.95,1135.43 1867.17,1113.3 1941.67,1093.25 2026.98,1070.29 2105.96,1049.04 2183.83,1028.08 2259.43,1007.73 2336.94,986.873 2421.85,964.02 2545.2,930.822 
  2570.51,924.012 
  "/>
<polyline clip-path="url(#clip752)" style="stroke:#3da44d; stroke-linecap:butt; stroke-linejoin:round; stroke-width:4; stroke-opacity:1; fill:none" points="
  228.893,1593.6 244.139,1587.45 385.102,1530.54 469.816,1496.34 541.44,1467.43 619.243,1436.02 690.972,1407.06 767.872,1376.02 856.968,1340.05 936.147,1308.08 
  1005.58,1280.06 1081.28,1249.5 1157.43,1218.75 1241.62,1184.77 1321.73,1152.43 1405.02,1118.8 1475.14,1090.5 1560.74,1055.94 1639.16,1024.28 1711.58,995.043 
  1784.95,965.426 1867.17,932.234 1941.67,902.156 2026.98,867.72 2105.96,835.834 2183.83,804.399 2259.43,773.878 2336.94,742.591 2421.85,708.311 2545.2,658.515 
  2570.51,648.299 
  "/>
<polyline clip-path="url(#clip752)" style="stroke:#c271d2; stroke-linecap:butt; stroke-linejoin:round; stroke-width:4; stroke-opacity:1; fill:none" points="
  228.893,1632.99 244.139,1624.78 385.102,1548.91 469.816,1503.31 541.44,1464.76 619.243,1422.88 690.972,1384.27 767.872,1342.88 856.968,1294.92 936.147,1252.3 
  1005.58,1214.93 1081.28,1174.18 1157.43,1133.19 1241.62,1087.87 1321.73,1044.76 1405.02,999.922 1475.14,962.181 1560.74,916.104 1639.16,873.895 1711.58,834.911 
  1784.95,795.422 1867.17,751.166 1941.67,711.063 2026.98,665.147 2105.96,622.633 2183.83,580.72 2259.43,540.025 2336.94,498.308 2421.85,452.602 2545.2,386.207 
  2570.51,372.586 
  "/>
<polyline clip-path="url(#clip752)" style="stroke:#ac8d18; stroke-linecap:butt; stroke-linejoin:round; stroke-width:4; stroke-opacity:1; fill:none" points="
  228.893,1672.38 244.139,1662.12 385.102,1567.27 469.816,1510.28 541.44,1462.09 619.243,1409.74 690.972,1361.48 767.872,1309.74 856.968,1249.79 936.147,1196.52 
  1005.58,1149.8 1081.28,1098.87 1157.43,1047.63 1241.62,990.984 1321.73,937.085 1405.02,881.043 1475.14,833.867 1560.74,776.271 1639.16,723.509 1711.58,674.78 
  1784.95,625.418 1867.17,570.098 1941.67,519.969 2026.98,462.574 2105.96,409.432 2183.83,357.04 2259.43,306.172 2336.94,254.026 2421.85,196.893 2545.2,113.899 
  2570.51,96.8724 
  "/>
</svg>
