<?xml version="1.0" encoding="utf-8"?>
<svg xmlns="http://www.w3.org/2000/svg" xmlns:xlink="http://www.w3.org/1999/xlink" width="672" height="480" viewBox="0 0 2688 1920">
<defs>
  <clipPath id="clip070">
    <rect x="0" y="0" width="2688" height="1920"/>
  </clipPath>
</defs>
<path clip-path="url(#clip070)" d="
M0 1920 L2688 1920 L2688 0 L0 0  Z
  " fill="#ffffff" fill-rule="evenodd" fill-opacity="1"/>
<defs>
  <clipPath id="clip071">
    <rect x="537" y="0" width="1883" height="1883"/>
  </clipPath>
</defs>
<path clip-path="url(#clip070)" d="
M189.154 1800.78 L2640.76 1800.78 L2640.76 47.2441 L189.154 47.2441  Z
  " fill="#ffffff" fill-rule="evenodd" fill-opacity="1"/>
<defs>
  <clipPath id="clip072">
    <rect x="189" y="47" width="2453" height="1755"/>
  </clipPath>
</defs>
<polyline clip-path="url(#clip072)" style="stroke:#000000; stroke-linecap:butt; stroke-linejoin:round; stroke-width:2; stroke-opacity:0.1; fill:none" points="
  258.539,1800.78 258.539,47.2441 
  "/>
<polyline clip-path="url(#clip072)" style="stroke:#000000; stroke-linecap:butt; stroke-linejoin:round; stroke-width:2; stroke-opacity:0.1; fill:none" points="
  626.638,1800.78 626.638,47.2441 
  "/>
<polyline clip-path="url(#clip072)" style="stroke:#000000; stroke-linecap:butt; stroke-linejoin:round; stroke-width:2; stroke-opacity:0.1; fill:none" points="
  994.736,1800.78 994.736,47.2441 
  "/>
<polyline clip-path="url(#clip072)" style="stroke:#000000; stroke-linecap:butt; stroke-linejoin:round; stroke-width:2; stroke-opacity:0.1; fill:none" points="
  1362.83,1800.78 1362.83,47.2441 
  "/>
<polyline clip-path="url(#clip072)" style="stroke:#000000; stroke-linecap:butt; stroke-linejoin:round; stroke-width:2; stroke-opacity:0.1; fill:none" points="
  1730.93,1800.78 1730.93,47.2441 
  "/>
<polyline clip-path="url(#clip072)" style="stroke:#000000; stroke-linecap:butt; stroke-linejoin:round; stroke-width:2; stroke-opacity:0.1; fill:none" points="
  2099.03,1800.78 2099.03,47.2441 
  "/>
<polyline clip-path="url(#clip072)" style="stroke:#000000; stroke-linecap:butt; stroke-linejoin:round; stroke-width:2; stroke-opacity:0.1; fill:none" points="
  2467.13,1800.78 2467.13,47.2441 
  "/>
<polyline clip-path="url(#clip070)" style="stroke:#000000; stroke-linecap:butt; stroke-linejoin:round; stroke-width:4; stroke-opacity:1; fill:none" points="
  189.154,1800.78 2640.76,1800.78 
  "/>
<polyline clip-path="url(#clip070)" style="stroke:#000000; stroke-linecap:butt; stroke-linejoin:round; stroke-width:4; stroke-opacity:1; fill:none" points="
  258.539,1800.78 258.539,1781.88 
  "/>
<polyline clip-path="url(#clip070)" style="stroke:#000000; stroke-linecap:butt; stroke-linejoin:round; stroke-width:4; stroke-opacity:1; fill:none" points="
  626.638,1800.78 626.638,1781.88 
  "/>
<polyline clip-path="url(#clip070)" style="stroke:#000000; stroke-linecap:butt; stroke-linejoin:round; stroke-width:4; stroke-opacity:1; fill:none" points="
  994.736,1800.78 994.736,1781.88 
  "/>
<polyline clip-path="url(#clip070)" style="stroke:#000000; stroke-linecap:butt; stroke-linejoin:round; stroke-width:4; stroke-opacity:1; fill:none" points="
  1362.83,1800.78 1362.83,1781.88 
  "/>
<polyline clip-path="url(#clip070)" style="stroke:#000000; stroke-linecap:butt; stroke-linejoin:round; stroke-width:4; stroke-opacity:1; fill:none" points="
  1730.93,1800.78 1730.93,1781.88 
  "/>
<polyline clip-path="url(#clip070)" style="stroke:#000000; stroke-linecap:butt; stroke-linejoin:round; stroke-width:4; stroke-opacity:1; fill:none" points="
  2099.03,1800.78 2099.03,1781.88 
  "/>
<polyline clip-path="url(#clip070)" style="stroke:#000000; stroke-linecap:butt; stroke-linejoin:round; stroke-width:4; stroke-opacity:1; fill:none" points="
  2467.13,1800.78 2467.13,1781.88 
  "/>
<path clip-path="url(#clip070)" d="M258.539 1834 Q254.928 1834 253.099 1837.57 Q251.294 1841.11 251.294 1848.24 Q251.294 1855.34 253.099 1858.91 Q254.928 1862.45 258.539 1862.45 Q262.173 1862.45 263.979 1858.91 Q265.807 1855.34 265.807 1848.24 Q265.807 1841.11 263.979 1837.57 Q262.173 1834 258.539 1834 M258.539 1830.3 Q264.349 1830.3 267.405 1834.9 Q270.483 1839.49 270.483 1848.24 Q270.483 1856.96 267.405 1861.57 Q264.349 1866.15 258.539 1866.15 Q252.729 1866.15 249.65 1861.57 Q246.595 1856.96 246.595 1848.24 Q246.595 1839.49 249.65 1834.9 Q252.729 1830.3 258.539 1830.3 Z" fill="#000000" fill-rule="evenodd" fill-opacity="1" /><path clip-path="url(#clip070)" d="M617.02 1861.55 L624.658 1861.55 L624.658 1835.18 L616.348 1836.85 L616.348 1832.59 L624.612 1830.92 L629.288 1830.92 L629.288 1861.55 L636.927 1861.55 L636.927 1865.48 L617.02 1865.48 L617.02 1861.55 Z" fill="#000000" fill-rule="evenodd" fill-opacity="1" /><path clip-path="url(#clip070)" d="M989.389 1861.55 L1005.71 1861.55 L1005.71 1865.48 L983.764 1865.48 L983.764 1861.55 Q986.426 1858.79 991.009 1854.16 Q995.616 1849.51 996.796 1848.17 Q999.042 1845.65 999.921 1843.91 Q1000.82 1842.15 1000.82 1840.46 Q1000.82 1837.71 998.88 1835.97 Q996.958 1834.23 993.857 1834.23 Q991.658 1834.23 989.204 1835 Q986.773 1835.76 983.996 1837.31 L983.996 1832.59 Q986.82 1831.46 989.273 1830.88 Q991.727 1830.3 993.764 1830.3 Q999.134 1830.3 1002.33 1832.98 Q1005.52 1835.67 1005.52 1840.16 Q1005.52 1842.29 1004.71 1844.21 Q1003.93 1846.11 1001.82 1848.7 Q1001.24 1849.37 998.139 1852.59 Q995.037 1855.78 989.389 1861.55 Z" fill="#000000" fill-rule="evenodd" fill-opacity="1" /><path clip-path="url(#clip070)" d="M1367.08 1846.85 Q1370.44 1847.57 1372.31 1849.84 Q1374.21 1852.1 1374.21 1855.44 Q1374.21 1860.55 1370.69 1863.35 Q1367.18 1866.15 1360.69 1866.15 Q1358.52 1866.15 1356.2 1865.71 Q1353.91 1865.3 1351.46 1864.44 L1351.46 1859.93 Q1353.4 1861.06 1355.72 1861.64 Q1358.03 1862.22 1360.55 1862.22 Q1364.95 1862.22 1367.24 1860.48 Q1369.56 1858.75 1369.56 1855.44 Q1369.56 1852.38 1367.41 1850.67 Q1365.28 1848.93 1361.46 1848.93 L1357.43 1848.93 L1357.43 1845.09 L1361.64 1845.09 Q1365.09 1845.09 1366.92 1843.72 Q1368.75 1842.34 1368.75 1839.74 Q1368.75 1837.08 1366.85 1835.67 Q1364.98 1834.23 1361.46 1834.23 Q1359.54 1834.23 1357.34 1834.65 Q1355.14 1835.07 1352.5 1835.95 L1352.5 1831.78 Q1355.16 1831.04 1357.48 1830.67 Q1359.81 1830.3 1361.87 1830.3 Q1367.2 1830.3 1370.3 1832.73 Q1373.4 1835.14 1373.4 1839.26 Q1373.4 1842.13 1371.76 1844.12 Q1370.11 1846.09 1367.08 1846.85 Z" fill="#000000" fill-rule="evenodd" fill-opacity="1" /><path clip-path="url(#clip070)" d="M1733.94 1835 L1722.14 1853.45 L1733.94 1853.45 L1733.94 1835 M1732.72 1830.92 L1738.6 1830.92 L1738.6 1853.45 L1743.53 1853.45 L1743.53 1857.34 L1738.6 1857.34 L1738.6 1865.48 L1733.94 1865.48 L1733.94 1857.34 L1718.34 1857.34 L1718.34 1852.82 L1732.72 1830.92 Z" fill="#000000" fill-rule="evenodd" fill-opacity="1" /><path clip-path="url(#clip070)" d="M2089.31 1830.92 L2107.67 1830.92 L2107.67 1834.86 L2093.59 1834.86 L2093.59 1843.33 Q2094.61 1842.98 2095.63 1842.82 Q2096.65 1842.64 2097.67 1842.64 Q2103.45 1842.64 2106.83 1845.81 Q2110.21 1848.98 2110.21 1854.4 Q2110.21 1859.97 2106.74 1863.08 Q2103.27 1866.15 2096.95 1866.15 Q2094.77 1866.15 2092.5 1865.78 Q2090.26 1865.41 2087.85 1864.67 L2087.85 1859.97 Q2089.94 1861.11 2092.16 1861.66 Q2094.38 1862.22 2096.86 1862.22 Q2100.86 1862.22 2103.2 1860.11 Q2105.54 1858.01 2105.54 1854.4 Q2105.54 1850.78 2103.2 1848.68 Q2100.86 1846.57 2096.86 1846.57 Q2094.98 1846.57 2093.11 1846.99 Q2091.25 1847.4 2089.31 1848.28 L2089.31 1830.92 Z" fill="#000000" fill-rule="evenodd" fill-opacity="1" /><path clip-path="url(#clip070)" d="M2467.54 1846.34 Q2464.39 1846.34 2462.54 1848.49 Q2460.71 1850.65 2460.71 1854.4 Q2460.71 1858.12 2462.54 1860.3 Q2464.39 1862.45 2467.54 1862.45 Q2470.68 1862.45 2472.51 1860.3 Q2474.36 1858.12 2474.36 1854.4 Q2474.36 1850.65 2472.51 1848.49 Q2470.68 1846.34 2467.54 1846.34 M2476.82 1831.69 L2476.82 1835.95 Q2475.06 1835.11 2473.25 1834.67 Q2471.47 1834.23 2469.71 1834.23 Q2465.08 1834.23 2462.63 1837.36 Q2460.2 1840.48 2459.85 1846.8 Q2461.22 1844.79 2463.28 1843.72 Q2465.34 1842.64 2467.81 1842.64 Q2473.02 1842.64 2476.03 1845.81 Q2479.06 1848.96 2479.06 1854.4 Q2479.06 1859.72 2475.92 1862.94 Q2472.77 1866.15 2467.54 1866.15 Q2461.54 1866.15 2458.37 1861.57 Q2455.2 1856.96 2455.2 1848.24 Q2455.2 1840.04 2459.09 1835.18 Q2462.98 1830.3 2469.53 1830.3 Q2471.29 1830.3 2473.07 1830.65 Q2474.87 1830.99 2476.82 1831.69 Z" fill="#000000" fill-rule="evenodd" fill-opacity="1" /><polyline clip-path="url(#clip072)" style="stroke:#000000; stroke-linecap:butt; stroke-linejoin:round; stroke-width:2; stroke-opacity:0.1; fill:none" points="
  189.154,1466.45 2640.76,1466.45 
  "/>
<polyline clip-path="url(#clip072)" style="stroke:#000000; stroke-linecap:butt; stroke-linejoin:round; stroke-width:2; stroke-opacity:0.1; fill:none" points="
  189.154,1124.06 2640.76,1124.06 
  "/>
<polyline clip-path="url(#clip072)" style="stroke:#000000; stroke-linecap:butt; stroke-linejoin:round; stroke-width:2; stroke-opacity:0.1; fill:none" points="
  189.154,781.662 2640.76,781.662 
  "/>
<polyline clip-path="url(#clip072)" style="stroke:#000000; stroke-linecap:butt; stroke-linejoin:round; stroke-width:2; stroke-opacity:0.1; fill:none" points="
  189.154,439.267 2640.76,439.267 
  "/>
<polyline clip-path="url(#clip072)" style="stroke:#000000; stroke-linecap:butt; stroke-linejoin:round; stroke-width:2; stroke-opacity:0.1; fill:none" points="
  189.154,96.8724 2640.76,96.8724 
  "/>
<polyline clip-path="url(#clip070)" style="stroke:#000000; stroke-linecap:butt; stroke-linejoin:round; stroke-width:4; stroke-opacity:1; fill:none" points="
  189.154,1800.78 189.154,47.2441 
  "/>
<polyline clip-path="url(#clip070)" style="stroke:#000000; stroke-linecap:butt; stroke-linejoin:round; stroke-width:4; stroke-opacity:1; fill:none" points="
  189.154,1466.45 208.052,1466.45 
  "/>
<polyline clip-path="url(#clip070)" style="stroke:#000000; stroke-linecap:butt; stroke-linejoin:round; stroke-width:4; stroke-opacity:1; fill:none" points="
  189.154,1124.06 208.052,1124.06 
  "/>
<polyline clip-path="url(#clip070)" style="stroke:#000000; stroke-linecap:butt; stroke-linejoin:round; stroke-width:4; stroke-opacity:1; fill:none" points="
  189.154,781.662 208.052,781.662 
  "/>
<polyline clip-path="url(#clip070)" style="stroke:#000000; stroke-linecap:butt; stroke-linejoin:round; stroke-width:4; stroke-opacity:1; fill:none" points="
  189.154,439.267 208.052,439.267 
  "/>
<polyline clip-path="url(#clip070)" style="stroke:#000000; stroke-linecap:butt; stroke-linejoin:round; stroke-width:4; stroke-opacity:1; fill:none" points="
  189.154,96.8724 208.052,96.8724 
  "/>
<path clip-path="url(#clip070)" d="M61.4965 1452.25 Q57.8854 1452.25 56.0567 1455.81 Q54.2512 1459.36 54.2512 1466.49 Q54.2512 1473.59 56.0567 1477.16 Q57.8854 1480.7 61.4965 1480.7 Q65.1307 1480.7 66.9363 1477.16 Q68.765 1473.59 68.765 1466.49 Q68.765 1459.36 66.9363 1455.81 Q65.1307 1452.25 61.4965 1452.25 M61.4965 1448.55 Q67.3067 1448.55 70.3622 1453.15 Q73.4409 1457.74 73.4409 1466.49 Q73.4409 1475.21 70.3622 1479.82 Q67.3067 1484.4 61.4965 1484.4 Q55.6864 1484.4 52.6077 1479.82 Q49.5521 1475.21 49.5521 1466.49 Q49.5521 1457.74 52.6077 1453.15 Q55.6864 1448.55 61.4965 1448.55 Z" fill="#000000" fill-rule="evenodd" fill-opacity="1" /><path clip-path="url(#clip070)" d="M81.6584 1477.85 L86.5427 1477.85 L86.5427 1483.73 L81.6584 1483.73 L81.6584 1477.85 Z" fill="#000000" fill-rule="evenodd" fill-opacity="1" /><path clip-path="url(#clip070)" d="M106.728 1452.25 Q103.117 1452.25 101.288 1455.81 Q99.4824 1459.36 99.4824 1466.49 Q99.4824 1473.59 101.288 1477.16 Q103.117 1480.7 106.728 1480.7 Q110.362 1480.7 112.168 1477.16 Q113.996 1473.59 113.996 1466.49 Q113.996 1459.36 112.168 1455.81 Q110.362 1452.25 106.728 1452.25 M106.728 1448.55 Q112.538 1448.55 115.593 1453.15 Q118.672 1457.74 118.672 1466.49 Q118.672 1475.21 115.593 1479.82 Q112.538 1484.4 106.728 1484.4 Q100.918 1484.4 97.8389 1479.82 Q94.7834 1475.21 94.7834 1466.49 Q94.7834 1457.74 97.8389 1453.15 Q100.918 1448.55 106.728 1448.55 Z" fill="#000000" fill-rule="evenodd" fill-opacity="1" /><path clip-path="url(#clip070)" d="M136.89 1452.25 Q133.279 1452.25 131.45 1455.81 Q129.644 1459.36 129.644 1466.49 Q129.644 1473.59 131.45 1477.16 Q133.279 1480.7 136.89 1480.7 Q140.524 1480.7 142.329 1477.16 Q144.158 1473.59 144.158 1466.49 Q144.158 1459.36 142.329 1455.81 Q140.524 1452.25 136.89 1452.25 M136.89 1448.55 Q142.7 1448.55 145.755 1453.15 Q148.834 1457.74 148.834 1466.49 Q148.834 1475.21 145.755 1479.82 Q142.7 1484.4 136.89 1484.4 Q131.079 1484.4 128.001 1479.82 Q124.945 1475.21 124.945 1466.49 Q124.945 1457.74 128.001 1453.15 Q131.079 1448.55 136.89 1448.55 Z" fill="#000000" fill-rule="evenodd" fill-opacity="1" /><path clip-path="url(#clip070)" d="M62.4919 1109.85 Q58.8808 1109.85 57.0521 1113.42 Q55.2465 1116.96 55.2465 1124.09 Q55.2465 1131.2 57.0521 1134.76 Q58.8808 1138.3 62.4919 1138.3 Q66.1261 1138.3 67.9317 1134.76 Q69.7604 1131.2 69.7604 1124.09 Q69.7604 1116.96 67.9317 1113.42 Q66.1261 1109.85 62.4919 1109.85 M62.4919 1106.15 Q68.302 1106.15 71.3576 1110.76 Q74.4363 1115.34 74.4363 1124.09 Q74.4363 1132.82 71.3576 1137.42 Q68.302 1142.01 62.4919 1142.01 Q56.6817 1142.01 53.603 1137.42 Q50.5475 1132.82 50.5475 1124.09 Q50.5475 1115.34 53.603 1110.76 Q56.6817 1106.15 62.4919 1106.15 Z" fill="#000000" fill-rule="evenodd" fill-opacity="1" /><path clip-path="url(#clip070)" d="M82.6538 1135.46 L87.538 1135.46 L87.538 1141.34 L82.6538 1141.34 L82.6538 1135.46 Z" fill="#000000" fill-rule="evenodd" fill-opacity="1" /><path clip-path="url(#clip070)" d="M101.751 1137.4 L118.07 1137.4 L118.07 1141.34 L96.126 1141.34 L96.126 1137.4 Q98.788 1134.65 103.371 1130.02 Q107.978 1125.36 109.158 1124.02 Q111.404 1121.5 112.283 1119.76 Q113.186 1118 113.186 1116.31 Q113.186 1113.56 111.242 1111.82 Q109.32 1110.09 106.218 1110.09 Q104.019 1110.09 101.566 1110.85 Q99.1352 1111.61 96.3574 1113.17 L96.3574 1108.44 Q99.1815 1107.31 101.635 1106.73 Q104.089 1106.15 106.126 1106.15 Q111.496 1106.15 114.691 1108.84 Q117.885 1111.52 117.885 1116.01 Q117.885 1118.14 117.075 1120.06 Q116.288 1121.96 114.181 1124.55 Q113.603 1125.23 110.501 1128.44 Q107.399 1131.64 101.751 1137.4 Z" fill="#000000" fill-rule="evenodd" fill-opacity="1" /><path clip-path="url(#clip070)" d="M127.931 1106.78 L146.288 1106.78 L146.288 1110.71 L132.214 1110.71 L132.214 1119.18 Q133.232 1118.84 134.251 1118.67 Q135.269 1118.49 136.288 1118.49 Q142.075 1118.49 145.454 1121.66 Q148.834 1124.83 148.834 1130.25 Q148.834 1135.83 145.362 1138.93 Q141.89 1142.01 135.57 1142.01 Q133.394 1142.01 131.126 1141.64 Q128.88 1141.27 126.473 1140.53 L126.473 1135.83 Q128.556 1136.96 130.779 1137.52 Q133.001 1138.07 135.478 1138.07 Q139.482 1138.07 141.82 1135.97 Q144.158 1133.86 144.158 1130.25 Q144.158 1126.64 141.82 1124.53 Q139.482 1122.42 135.478 1122.42 Q133.603 1122.42 131.728 1122.84 Q129.876 1123.26 127.931 1124.14 L127.931 1106.78 Z" fill="#000000" fill-rule="evenodd" fill-opacity="1" /><path clip-path="url(#clip070)" d="M61.4965 767.46 Q57.8854 767.46 56.0567 771.025 Q54.2512 774.567 54.2512 781.696 Q54.2512 788.803 56.0567 792.368 Q57.8854 795.909 61.4965 795.909 Q65.1307 795.909 66.9363 792.368 Q68.765 788.803 68.765 781.696 Q68.765 774.567 66.9363 771.025 Q65.1307 767.46 61.4965 767.46 M61.4965 763.757 Q67.3067 763.757 70.3622 768.363 Q73.4409 772.946 73.4409 781.696 Q73.4409 790.423 70.3622 795.03 Q67.3067 799.613 61.4965 799.613 Q55.6864 799.613 52.6077 795.03 Q49.5521 790.423 49.5521 781.696 Q49.5521 772.946 52.6077 768.363 Q55.6864 763.757 61.4965 763.757 Z" fill="#000000" fill-rule="evenodd" fill-opacity="1" /><path clip-path="url(#clip070)" d="M81.6584 793.062 L86.5427 793.062 L86.5427 798.942 L81.6584 798.942 L81.6584 793.062 Z" fill="#000000" fill-rule="evenodd" fill-opacity="1" /><path clip-path="url(#clip070)" d="M96.7741 764.382 L115.13 764.382 L115.13 768.317 L101.056 768.317 L101.056 776.789 Q102.075 776.442 103.094 776.28 Q104.112 776.095 105.131 776.095 Q110.918 776.095 114.297 779.266 Q117.677 782.437 117.677 787.854 Q117.677 793.432 114.205 796.534 Q110.732 799.613 104.413 799.613 Q102.237 799.613 99.9685 799.243 Q97.7232 798.872 95.3158 798.131 L95.3158 793.432 Q97.3991 794.567 99.6213 795.122 Q101.844 795.678 104.32 795.678 Q108.325 795.678 110.663 793.571 Q113.001 791.465 113.001 787.854 Q113.001 784.243 110.663 782.136 Q108.325 780.03 104.32 780.03 Q102.445 780.03 100.57 780.446 Q98.7185 780.863 96.7741 781.743 L96.7741 764.382 Z" fill="#000000" fill-rule="evenodd" fill-opacity="1" /><path clip-path="url(#clip070)" d="M136.89 767.46 Q133.279 767.46 131.45 771.025 Q129.644 774.567 129.644 781.696 Q129.644 788.803 131.45 792.368 Q133.279 795.909 136.89 795.909 Q140.524 795.909 142.329 792.368 Q144.158 788.803 144.158 781.696 Q144.158 774.567 142.329 771.025 Q140.524 767.46 136.89 767.46 M136.89 763.757 Q142.7 763.757 145.755 768.363 Q148.834 772.946 148.834 781.696 Q148.834 790.423 145.755 795.03 Q142.7 799.613 136.89 799.613 Q131.079 799.613 128.001 795.03 Q124.945 790.423 124.945 781.696 Q124.945 772.946 128.001 768.363 Q131.079 763.757 136.89 763.757 Z" fill="#000000" fill-rule="evenodd" fill-opacity="1" /><path clip-path="url(#clip070)" d="M62.4919 425.066 Q58.8808 425.066 57.0521 428.631 Q55.2465 432.172 55.2465 439.302 Q55.2465 446.408 57.0521 449.973 Q58.8808 453.515 62.4919 453.515 Q66.1261 453.515 67.9317 449.973 Q69.7604 446.408 69.7604 439.302 Q69.7604 432.172 67.9317 428.631 Q66.1261 425.066 62.4919 425.066 M62.4919 421.362 Q68.302 421.362 71.3576 425.969 Q74.4363 430.552 74.4363 439.302 Q74.4363 448.029 71.3576 452.635 Q68.302 457.218 62.4919 457.218 Q56.6817 457.218 53.603 452.635 Q50.5475 448.029 50.5475 439.302 Q50.5475 430.552 53.603 425.969 Q56.6817 421.362 62.4919 421.362 Z" fill="#000000" fill-rule="evenodd" fill-opacity="1" /><path clip-path="url(#clip070)" d="M82.6538 450.667 L87.538 450.667 L87.538 456.547 L82.6538 456.547 L82.6538 450.667 Z" fill="#000000" fill-rule="evenodd" fill-opacity="1" /><path clip-path="url(#clip070)" d="M96.5426 421.987 L118.765 421.987 L118.765 423.978 L106.218 456.547 L101.334 456.547 L113.14 425.922 L96.5426 425.922 L96.5426 421.987 Z" fill="#000000" fill-rule="evenodd" fill-opacity="1" /><path clip-path="url(#clip070)" d="M127.931 421.987 L146.288 421.987 L146.288 425.922 L132.214 425.922 L132.214 434.394 Q133.232 434.047 134.251 433.885 Q135.269 433.7 136.288 433.7 Q142.075 433.7 145.454 436.871 Q148.834 440.043 148.834 445.459 Q148.834 451.038 145.362 454.14 Q141.89 457.218 135.57 457.218 Q133.394 457.218 131.126 456.848 Q128.88 456.478 126.473 455.737 L126.473 451.038 Q128.556 452.172 130.779 452.728 Q133.001 453.283 135.478 453.283 Q139.482 453.283 141.82 451.177 Q144.158 449.07 144.158 445.459 Q144.158 441.848 141.82 439.742 Q139.482 437.635 135.478 437.635 Q133.603 437.635 131.728 438.052 Q129.876 438.468 127.931 439.348 L127.931 421.987 Z" fill="#000000" fill-rule="evenodd" fill-opacity="1" /><path clip-path="url(#clip070)" d="M52.3067 110.217 L59.9456 110.217 L59.9456 83.8517 L51.6354 85.5183 L51.6354 81.2591 L59.8993 79.5924 L64.5752 79.5924 L64.5752 110.217 L72.214 110.217 L72.214 114.152 L52.3067 114.152 L52.3067 110.217 Z" fill="#000000" fill-rule="evenodd" fill-opacity="1" /><path clip-path="url(#clip070)" d="M81.6584 108.273 L86.5427 108.273 L86.5427 114.152 L81.6584 114.152 L81.6584 108.273 Z" fill="#000000" fill-rule="evenodd" fill-opacity="1" /><path clip-path="url(#clip070)" d="M106.728 82.6711 Q103.117 82.6711 101.288 86.2359 Q99.4824 89.7776 99.4824 96.9072 Q99.4824 104.014 101.288 107.578 Q103.117 111.12 106.728 111.12 Q110.362 111.12 112.168 107.578 Q113.996 104.014 113.996 96.9072 Q113.996 89.7776 112.168 86.2359 Q110.362 82.6711 106.728 82.6711 M106.728 78.9675 Q112.538 78.9675 115.593 83.5739 Q118.672 88.1572 118.672 96.9072 Q118.672 105.634 115.593 110.24 Q112.538 114.824 106.728 114.824 Q100.918 114.824 97.8389 110.24 Q94.7834 105.634 94.7834 96.9072 Q94.7834 88.1572 97.8389 83.5739 Q100.918 78.9675 106.728 78.9675 Z" fill="#000000" fill-rule="evenodd" fill-opacity="1" /><path clip-path="url(#clip070)" d="M136.89 82.6711 Q133.279 82.6711 131.45 86.2359 Q129.644 89.7776 129.644 96.9072 Q129.644 104.014 131.45 107.578 Q133.279 111.12 136.89 111.12 Q140.524 111.12 142.329 107.578 Q144.158 104.014 144.158 96.9072 Q144.158 89.7776 142.329 86.2359 Q140.524 82.6711 136.89 82.6711 M136.89 78.9675 Q142.7 78.9675 145.755 83.5739 Q148.834 88.1572 148.834 96.9072 Q148.834 105.634 145.755 110.24 Q142.7 114.824 136.89 114.824 Q131.079 114.824 128.001 110.24 Q124.945 105.634 124.945 96.9072 Q124.945 88.1572 128.001 83.5739 Q131.079 78.9675 136.89 78.9675 Z" fill="#000000" fill-rule="evenodd" fill-opacity="1" /><polyline clip-path="url(#clip072)" style="stroke:#009af9; stroke-linecap:butt; stroke-linejoin:round; stroke-width:4; stroke-opacity:1; fill:none" points="
  258.539,1466.45 260.421,1459.48 262.303,1452.59 264.186,1445.76 266.068,1439.01 267.95,1432.32 269.832,1425.71 271.715,1419.16 273.597,1412.69 277.948,1397.98 
  282.299,1383.63 286.65,1369.64 291.001,1356.01 295.352,1342.72 299.703,1329.78 304.054,1317.18 308.405,1304.92 312.756,1292.98 317.106,1281.38 321.457,1270.09 
  325.808,1259.12 330.159,1248.47 334.51,1238.13 338.861,1228.09 343.212,1218.35 351.914,1199.75 360.616,1182.31 369.318,1165.98 378.02,1150.73 386.722,1136.53 
  395.424,1123.35 404.126,1111.15 412.828,1099.9 418.057,1093.59 423.287,1087.6 428.516,1081.93 433.746,1076.57 438.975,1071.51 444.205,1066.76 449.434,1062.29 
  454.664,1058.12 465.123,1050.6 475.582,1044.14 486.041,1038.71 496.5,1034.24 505.343,1031.19 514.186,1028.78 523.029,1026.97 531.872,1025.74 540.715,1025.06 
  549.558,1024.91 558.401,1025.27 567.244,1026.11 576.85,1027.54 586.455,1029.48 596.061,1031.89 605.667,1034.77 615.273,1038.07 624.879,1041.77 634.485,1045.84 
  644.091,1050.27 661.803,1059.27 679.514,1069.24 697.226,1080.05 714.938,1091.57 733.926,1104.59 752.915,1118.16 771.904,1132.16 790.893,1146.47 834.893,1180.31 
  878.894,1214.21 917.997,1243.67 957.099,1272.02 974.244,1284 991.389,1295.67 1008.53,1307.01 1025.68,1318 1044.37,1329.57 1063.06,1340.69 1081.76,1351.36 
  1100.45,1361.56 1119.25,1371.34 1138.05,1380.65 1156.86,1389.48 1175.66,1397.83 1196.45,1406.51 1217.24,1414.63 1238.03,1422.2 1258.82,1429.22 1278.6,1435.42 
  1298.38,1441.15 1318.16,1446.44 1337.94,1451.3 1358.51,1455.91 1379.08,1460.1 1399.65,1463.89 1420.21,1467.28 1454.84,1472.19 1489.47,1476.17 1531.74,1479.9 
  1574.02,1482.54 1612.74,1484.15 1651.47,1485.1 1687.24,1485.49 1723.01,1485.48 1759.24,1485.14 1795.47,1484.54 1876.68,1482.5 1950.27,1480.18 2034.52,1477.38 
  2112.53,1474.88 2189.45,1472.67 2264.12,1470.82 2340.67,1469.26 2424.54,1467.93 2546.38,1466.64 2571.37,1466.45 
  "/>
<polyline clip-path="url(#clip072)" style="stroke:#e26f46; stroke-linecap:butt; stroke-linejoin:round; stroke-width:4; stroke-opacity:1; fill:none" points="
  258.539,96.8724 262.303,124.742 266.068,152.325 269.832,179.621 273.597,206.632 282.299,267.975 291.001,327.794 299.703,386.093 308.405,442.879 317.106,498.161 
  325.808,551.946 334.51,604.246 343.212,655.071 351.914,704.436 360.616,752.352 369.318,798.835 378.02,843.901 386.722,887.565 395.424,929.844 404.126,970.757 
  412.828,1010.32 423.287,1056.12 433.746,1100.03 444.205,1142.09 454.664,1182.33 465.123,1220.8 475.582,1257.53 486.041,1292.55 496.5,1325.92 505.343,1352.86 
  514.186,1378.67 523.029,1403.36 531.872,1426.97 540.715,1449.51 549.558,1471.02 558.401,1491.51 567.244,1511.01 576.85,1531.11 586.455,1550.09 596.061,1568 
  605.667,1584.86 624.879,1615.57 644.091,1642.47 661.803,1664.09 679.514,1682.86 697.226,1698.95 714.938,1712.54 733.926,1724.52 752.915,1734.02 771.904,1741.24 
  790.893,1746.36 812.893,1749.91 834.893,1751.15 856.894,1750.34 878.894,1747.7 917.997,1739.22 957.099,1726.82 991.389,1713.52 1025.68,1698.58 1100.45,1662.68 
  1175.66,1625.33 1258.82,1586.12 1337.94,1552.97 1379.08,1537.73 1420.21,1523.96 1454.84,1513.5 1489.47,1504.08 1531.74,1493.95 1574.02,1485.25 1612.74,1478.46 
  1651.47,1472.72 1723.01,1464.59 1795.47,1459.13 1876.68,1455.66 1950.27,1454.33 2034.52,1454.29 2112.53,1455.18 2189.45,1456.57 2264.12,1458.13 2340.67,1459.77 
  2424.54,1461.46 2546.38,1463.53 2571.37,1463.89 
  "/>
<path clip-path="url(#clip070)" d="
M2234.21 261.215 L2559.04 261.215 L2559.04 105.695 L2234.21 105.695  Z
  " fill="#ffffff" fill-rule="evenodd" fill-opacity="1"/>
<polyline clip-path="url(#clip070)" style="stroke:#000000; stroke-linecap:butt; stroke-linejoin:round; stroke-width:4; stroke-opacity:1; fill:none" points="
  2234.21,261.215 2559.04,261.215 2559.04,105.695 2234.21,105.695 2234.21,261.215 
  "/>
<polyline clip-path="url(#clip070)" style="stroke:#009af9; stroke-linecap:butt; stroke-linejoin:round; stroke-width:4; stroke-opacity:1; fill:none" points="
  2261.45,157.535 2424.89,157.535 
  "/>
<path clip-path="url(#clip070)" d="M2465.97 177.223 Q2464.16 181.852 2462.45 183.264 Q2460.74 184.676 2457.87 184.676 L2454.46 184.676 L2454.46 181.112 L2456.96 181.112 Q2458.72 181.112 2459.69 180.278 Q2460.67 179.445 2461.85 176.343 L2462.61 174.399 L2452.13 148.889 L2456.64 148.889 L2464.74 169.167 L2472.84 148.889 L2477.36 148.889 L2465.97 177.223 Z" fill="#000000" fill-rule="evenodd" fill-opacity="1" /><path clip-path="url(#clip070)" d="M2484.65 170.88 L2492.29 170.88 L2492.29 144.515 L2483.98 146.181 L2483.98 141.922 L2492.24 140.255 L2496.92 140.255 L2496.92 170.88 L2504.56 170.88 L2504.56 174.815 L2484.65 174.815 L2484.65 170.88 Z" fill="#000000" fill-rule="evenodd" fill-opacity="1" /><polyline clip-path="url(#clip070)" style="stroke:#e26f46; stroke-linecap:butt; stroke-linejoin:round; stroke-width:4; stroke-opacity:1; fill:none" points="
  2261.45,209.375 2424.89,209.375 
  "/>
<path clip-path="url(#clip070)" d="M2465.97 229.063 Q2464.16 233.692 2462.45 235.104 Q2460.74 236.516 2457.87 236.516 L2454.46 236.516 L2454.46 232.952 L2456.96 232.952 Q2458.72 232.952 2459.69 232.118 Q2460.67 231.285 2461.85 228.183 L2462.61 226.239 L2452.13 200.729 L2456.64 200.729 L2464.74 221.007 L2472.84 200.729 L2477.36 200.729 L2465.97 229.063 Z" fill="#000000" fill-rule="evenodd" fill-opacity="1" /><path clip-path="url(#clip070)" d="M2487.87 222.72 L2504.19 222.72 L2504.19 226.655 L2482.24 226.655 L2482.24 222.72 Q2484.9 219.965 2489.49 215.336 Q2494.09 210.683 2495.27 209.341 Q2497.52 206.817 2498.4 205.081 Q2499.3 203.322 2499.3 201.632 Q2499.3 198.878 2497.36 197.142 Q2495.44 195.405 2492.33 195.405 Q2490.13 195.405 2487.68 196.169 Q2485.25 196.933 2482.47 198.484 L2482.47 193.762 Q2485.3 192.628 2487.75 192.049 Q2490.2 191.47 2492.24 191.47 Q2497.61 191.47 2500.81 194.155 Q2504 196.841 2504 201.331 Q2504 203.461 2503.19 205.382 Q2502.4 207.28 2500.3 209.873 Q2499.72 210.544 2496.62 213.762 Q2493.51 216.956 2487.87 222.72 Z" fill="#000000" fill-rule="evenodd" fill-opacity="1" /></svg>
