<?xml version="1.0" encoding="utf-8"?>
<svg xmlns="http://www.w3.org/2000/svg" xmlns:xlink="http://www.w3.org/1999/xlink" width="672" height="480" viewBox="0 0 2688 1920">
<defs>
  <clipPath id="clip050">
    <rect x="0" y="0" width="2688" height="1920"/>
  </clipPath>
</defs>
<path clip-path="url(#clip050)" d="M0 1920 L2688 1920 L2688 0 L0 0  Z" fill="#ffffff" fill-rule="evenodd" fill-opacity="1"/>
<defs>
  <clipPath id="clip051">
    <rect x="537" y="0" width="1883" height="1883"/>
  </clipPath>
</defs>
<path clip-path="url(#clip050)" d="M196.816 1800.78 L2640.76 1800.78 L2640.76 47.2441 L196.816 47.2441  Z" fill="#ffffff" fill-rule="evenodd" fill-opacity="1"/>
<defs>
  <clipPath id="clip052">
    <rect x="196" y="47" width="2445" height="1755"/>
  </clipPath>
</defs>
<polyline clip-path="url(#clip052)" style="stroke:#000000; stroke-linecap:round; stroke-linejoin:round; stroke-width:2; stroke-opacity:0.1; fill:none" points="265.984,1800.78 265.984,47.2441 "/>
<polyline clip-path="url(#clip052)" style="stroke:#000000; stroke-linecap:round; stroke-linejoin:round; stroke-width:2; stroke-opacity:0.1; fill:none" points="842.385,1800.78 842.385,47.2441 "/>
<polyline clip-path="url(#clip052)" style="stroke:#000000; stroke-linecap:round; stroke-linejoin:round; stroke-width:2; stroke-opacity:0.1; fill:none" points="1418.79,1800.78 1418.79,47.2441 "/>
<polyline clip-path="url(#clip052)" style="stroke:#000000; stroke-linecap:round; stroke-linejoin:round; stroke-width:2; stroke-opacity:0.1; fill:none" points="1995.19,1800.78 1995.19,47.2441 "/>
<polyline clip-path="url(#clip052)" style="stroke:#000000; stroke-linecap:round; stroke-linejoin:round; stroke-width:2; stroke-opacity:0.1; fill:none" points="2571.59,1800.78 2571.59,47.2441 "/>
<polyline clip-path="url(#clip050)" style="stroke:#000000; stroke-linecap:round; stroke-linejoin:round; stroke-width:4; stroke-opacity:1; fill:none" points="196.816,1800.78 2640.76,1800.78 "/>
<polyline clip-path="url(#clip050)" style="stroke:#000000; stroke-linecap:round; stroke-linejoin:round; stroke-width:4; stroke-opacity:1; fill:none" points="265.984,1800.78 265.984,1781.88 "/>
<polyline clip-path="url(#clip050)" style="stroke:#000000; stroke-linecap:round; stroke-linejoin:round; stroke-width:4; stroke-opacity:1; fill:none" points="842.385,1800.78 842.385,1781.88 "/>
<polyline clip-path="url(#clip050)" style="stroke:#000000; stroke-linecap:round; stroke-linejoin:round; stroke-width:4; stroke-opacity:1; fill:none" points="1418.79,1800.78 1418.79,1781.88 "/>
<polyline clip-path="url(#clip050)" style="stroke:#000000; stroke-linecap:round; stroke-linejoin:round; stroke-width:4; stroke-opacity:1; fill:none" points="1995.19,1800.78 1995.19,1781.88 "/>
<polyline clip-path="url(#clip050)" style="stroke:#000000; stroke-linecap:round; stroke-linejoin:round; stroke-width:4; stroke-opacity:1; fill:none" points="2571.59,1800.78 2571.59,1781.88 "/>
<path clip-path="url(#clip050)" d="M235.926 1848.65 L265.602 1848.65 L265.602 1852.59 L235.926 1852.59 L235.926 1848.65 Z" fill="#000000" fill-rule="evenodd" fill-opacity="1" /><path clip-path="url(#clip050)" d="M279.722 1861.55 L296.042 1861.55 L296.042 1865.48 L274.097 1865.48 L274.097 1861.55 Q276.76 1858.79 281.343 1854.16 Q285.949 1849.51 287.13 1848.17 Q289.375 1845.65 290.255 1843.91 Q291.158 1842.15 291.158 1840.46 Q291.158 1837.71 289.213 1835.97 Q287.292 1834.23 284.19 1834.23 Q281.991 1834.23 279.537 1835 Q277.107 1835.76 274.329 1837.31 L274.329 1832.59 Q277.153 1831.46 279.607 1830.88 Q282.06 1830.3 284.097 1830.3 Q289.468 1830.3 292.662 1832.98 Q295.857 1835.67 295.857 1840.16 Q295.857 1842.29 295.046 1844.21 Q294.259 1846.11 292.153 1848.7 Q291.574 1849.37 288.472 1852.59 Q285.371 1855.78 279.722 1861.55 Z" fill="#000000" fill-rule="evenodd" fill-opacity="1" /><path clip-path="url(#clip050)" d="M812.142 1848.65 L841.818 1848.65 L841.818 1852.59 L812.142 1852.59 L812.142 1848.65 Z" fill="#000000" fill-rule="evenodd" fill-opacity="1" /><path clip-path="url(#clip050)" d="M852.721 1861.55 L860.359 1861.55 L860.359 1835.18 L852.049 1836.85 L852.049 1832.59 L860.313 1830.92 L864.989 1830.92 L864.989 1861.55 L872.628 1861.55 L872.628 1865.48 L852.721 1865.48 L852.721 1861.55 Z" fill="#000000" fill-rule="evenodd" fill-opacity="1" /><path clip-path="url(#clip050)" d="M1418.79 1834 Q1415.17 1834 1413.35 1837.57 Q1411.54 1841.11 1411.54 1848.24 Q1411.54 1855.34 1413.35 1858.91 Q1415.17 1862.45 1418.79 1862.45 Q1422.42 1862.45 1424.23 1858.91 Q1426.05 1855.34 1426.05 1848.24 Q1426.05 1841.11 1424.23 1837.57 Q1422.42 1834 1418.79 1834 M1418.79 1830.3 Q1424.6 1830.3 1427.65 1834.9 Q1430.73 1839.49 1430.73 1848.24 Q1430.73 1856.96 1427.65 1861.57 Q1424.6 1866.15 1418.79 1866.15 Q1412.98 1866.15 1409.9 1861.57 Q1406.84 1856.96 1406.84 1848.24 Q1406.84 1839.49 1409.9 1834.9 Q1412.98 1830.3 1418.79 1830.3 Z" fill="#000000" fill-rule="evenodd" fill-opacity="1" /><path clip-path="url(#clip050)" d="M1985.57 1861.55 L1993.21 1861.55 L1993.21 1835.18 L1984.9 1836.85 L1984.9 1832.59 L1993.16 1830.92 L1997.84 1830.92 L1997.84 1861.55 L2005.48 1861.55 L2005.48 1865.48 L1985.57 1865.48 L1985.57 1861.55 Z" fill="#000000" fill-rule="evenodd" fill-opacity="1" /><path clip-path="url(#clip050)" d="M2566.24 1861.55 L2582.56 1861.55 L2582.56 1865.48 L2560.62 1865.48 L2560.62 1861.55 Q2563.28 1858.79 2567.86 1854.16 Q2572.47 1849.51 2573.65 1848.17 Q2575.89 1845.65 2576.77 1843.91 Q2577.68 1842.15 2577.68 1840.46 Q2577.68 1837.71 2575.73 1835.97 Q2573.81 1834.23 2570.71 1834.23 Q2568.51 1834.23 2566.06 1835 Q2563.62 1835.76 2560.85 1837.31 L2560.85 1832.59 Q2563.67 1831.46 2566.12 1830.88 Q2568.58 1830.3 2570.62 1830.3 Q2575.99 1830.3 2579.18 1832.98 Q2582.37 1835.67 2582.37 1840.16 Q2582.37 1842.29 2581.56 1844.21 Q2580.78 1846.11 2578.67 1848.7 Q2578.09 1849.37 2574.99 1852.59 Q2571.89 1855.78 2566.24 1861.55 Z" fill="#000000" fill-rule="evenodd" fill-opacity="1" /><polyline clip-path="url(#clip052)" style="stroke:#000000; stroke-linecap:round; stroke-linejoin:round; stroke-width:2; stroke-opacity:0.1; fill:none" points="196.816,1632.99 2640.76,1632.99 "/>
<polyline clip-path="url(#clip052)" style="stroke:#000000; stroke-linecap:round; stroke-linejoin:round; stroke-width:2; stroke-opacity:0.1; fill:none" points="196.816,1337.58 2640.76,1337.58 "/>
<polyline clip-path="url(#clip052)" style="stroke:#000000; stroke-linecap:round; stroke-linejoin:round; stroke-width:2; stroke-opacity:0.1; fill:none" points="196.816,1042.17 2640.76,1042.17 "/>
<polyline clip-path="url(#clip052)" style="stroke:#000000; stroke-linecap:round; stroke-linejoin:round; stroke-width:2; stroke-opacity:0.1; fill:none" points="196.816,746.768 2640.76,746.768 "/>
<polyline clip-path="url(#clip052)" style="stroke:#000000; stroke-linecap:round; stroke-linejoin:round; stroke-width:2; stroke-opacity:0.1; fill:none" points="196.816,451.361 2640.76,451.361 "/>
<polyline clip-path="url(#clip052)" style="stroke:#000000; stroke-linecap:round; stroke-linejoin:round; stroke-width:2; stroke-opacity:0.1; fill:none" points="196.816,155.954 2640.76,155.954 "/>
<polyline clip-path="url(#clip050)" style="stroke:#000000; stroke-linecap:round; stroke-linejoin:round; stroke-width:4; stroke-opacity:1; fill:none" points="196.816,1800.78 196.816,47.2441 "/>
<polyline clip-path="url(#clip050)" style="stroke:#000000; stroke-linecap:round; stroke-linejoin:round; stroke-width:4; stroke-opacity:1; fill:none" points="196.816,1632.99 215.714,1632.99 "/>
<polyline clip-path="url(#clip050)" style="stroke:#000000; stroke-linecap:round; stroke-linejoin:round; stroke-width:4; stroke-opacity:1; fill:none" points="196.816,1337.58 215.714,1337.58 "/>
<polyline clip-path="url(#clip050)" style="stroke:#000000; stroke-linecap:round; stroke-linejoin:round; stroke-width:4; stroke-opacity:1; fill:none" points="196.816,1042.17 215.714,1042.17 "/>
<polyline clip-path="url(#clip050)" style="stroke:#000000; stroke-linecap:round; stroke-linejoin:round; stroke-width:4; stroke-opacity:1; fill:none" points="196.816,746.768 215.714,746.768 "/>
<polyline clip-path="url(#clip050)" style="stroke:#000000; stroke-linecap:round; stroke-linejoin:round; stroke-width:4; stroke-opacity:1; fill:none" points="196.816,451.361 215.714,451.361 "/>
<polyline clip-path="url(#clip050)" style="stroke:#000000; stroke-linecap:round; stroke-linejoin:round; stroke-width:4; stroke-opacity:1; fill:none" points="196.816,155.954 215.714,155.954 "/>
<path clip-path="url(#clip050)" d="M49.5521 1633.44 L79.2279 1633.44 L79.2279 1637.37 L49.5521 1637.37 L49.5521 1633.44 Z" fill="#000000" fill-rule="evenodd" fill-opacity="1" /><path clip-path="url(#clip050)" d="M89.3667 1615.71 L107.723 1615.71 L107.723 1619.64 L93.6491 1619.64 L93.6491 1628.12 Q94.6676 1627.77 95.6861 1627.61 Q96.7047 1627.42 97.7232 1627.42 Q103.51 1627.42 106.89 1630.59 Q110.269 1633.76 110.269 1639.18 Q110.269 1644.76 106.797 1647.86 Q103.325 1650.94 97.0056 1650.94 Q94.8297 1650.94 92.5612 1650.57 Q90.3158 1650.2 87.9084 1649.46 L87.9084 1644.76 Q89.9917 1645.89 92.2139 1646.45 Q94.4361 1647 96.913 1647 Q100.918 1647 103.256 1644.9 Q105.593 1642.79 105.593 1639.18 Q105.593 1635.57 103.256 1633.46 Q100.918 1631.36 96.913 1631.36 Q95.038 1631.36 93.163 1631.77 Q91.3112 1632.19 89.3667 1633.07 L89.3667 1615.71 Z" fill="#000000" fill-rule="evenodd" fill-opacity="1" /><path clip-path="url(#clip050)" d="M119.482 1644.39 L124.367 1644.39 L124.367 1650.27 L119.482 1650.27 L119.482 1644.39 Z" fill="#000000" fill-rule="evenodd" fill-opacity="1" /><path clip-path="url(#clip050)" d="M144.552 1618.79 Q140.941 1618.79 139.112 1622.35 Q137.306 1625.89 137.306 1633.02 Q137.306 1640.13 139.112 1643.69 Q140.941 1647.24 144.552 1647.24 Q148.186 1647.24 149.991 1643.69 Q151.82 1640.13 151.82 1633.02 Q151.82 1625.89 149.991 1622.35 Q148.186 1618.79 144.552 1618.79 M144.552 1615.08 Q150.362 1615.08 153.417 1619.69 Q156.496 1624.27 156.496 1633.02 Q156.496 1641.75 153.417 1646.36 Q150.362 1650.94 144.552 1650.94 Q138.741 1650.94 135.663 1646.36 Q132.607 1641.75 132.607 1633.02 Q132.607 1624.27 135.663 1619.69 Q138.741 1615.08 144.552 1615.08 Z" fill="#000000" fill-rule="evenodd" fill-opacity="1" /><path clip-path="url(#clip050)" d="M50.5475 1338.03 L80.2233 1338.03 L80.2233 1341.97 L50.5475 1341.97 L50.5475 1338.03 Z" fill="#000000" fill-rule="evenodd" fill-opacity="1" /><path clip-path="url(#clip050)" d="M94.3436 1350.93 L110.663 1350.93 L110.663 1354.86 L88.7186 1354.86 L88.7186 1350.93 Q91.3806 1348.17 95.9639 1343.54 Q100.57 1338.89 101.751 1337.55 Q103.996 1335.02 104.876 1333.29 Q105.779 1331.53 105.779 1329.84 Q105.779 1327.08 103.834 1325.35 Q101.913 1323.61 98.8111 1323.61 Q96.6121 1323.61 94.1584 1324.38 Q91.7278 1325.14 88.9501 1326.69 L88.9501 1321.97 Q91.7741 1320.83 94.2278 1320.26 Q96.6815 1319.68 98.7185 1319.68 Q104.089 1319.68 107.283 1322.36 Q110.478 1325.05 110.478 1329.54 Q110.478 1331.67 109.668 1333.59 Q108.881 1335.49 106.774 1338.08 Q106.195 1338.75 103.094 1341.97 Q99.9917 1345.16 94.3436 1350.93 Z" fill="#000000" fill-rule="evenodd" fill-opacity="1" /><path clip-path="url(#clip050)" d="M120.478 1348.98 L125.362 1348.98 L125.362 1354.86 L120.478 1354.86 L120.478 1348.98 Z" fill="#000000" fill-rule="evenodd" fill-opacity="1" /><path clip-path="url(#clip050)" d="M135.593 1320.3 L153.95 1320.3 L153.95 1324.24 L139.876 1324.24 L139.876 1332.71 Q140.894 1332.36 141.913 1332.2 Q142.931 1332.01 143.95 1332.01 Q149.737 1332.01 153.116 1335.19 Q156.496 1338.36 156.496 1343.77 Q156.496 1349.35 153.024 1352.45 Q149.552 1355.53 143.232 1355.53 Q141.056 1355.53 138.788 1355.16 Q136.542 1354.79 134.135 1354.05 L134.135 1349.35 Q136.218 1350.49 138.441 1351.04 Q140.663 1351.6 143.14 1351.6 Q147.144 1351.6 149.482 1349.49 Q151.82 1347.38 151.82 1343.77 Q151.82 1340.16 149.482 1338.06 Q147.144 1335.95 143.14 1335.95 Q141.265 1335.95 139.39 1336.37 Q137.538 1336.78 135.593 1337.66 L135.593 1320.3 Z" fill="#000000" fill-rule="evenodd" fill-opacity="1" /><path clip-path="url(#clip050)" d="M99.3204 1027.97 Q95.7093 1027.97 93.8806 1031.54 Q92.075 1035.08 92.075 1042.21 Q92.075 1049.32 93.8806 1052.88 Q95.7093 1056.42 99.3204 1056.42 Q102.955 1056.42 104.76 1052.88 Q106.589 1049.32 106.589 1042.21 Q106.589 1035.08 104.76 1031.54 Q102.955 1027.97 99.3204 1027.97 M99.3204 1024.27 Q105.131 1024.27 108.186 1028.88 Q111.265 1033.46 111.265 1042.21 Q111.265 1050.94 108.186 1055.54 Q105.131 1060.13 99.3204 1060.13 Q93.5102 1060.13 90.4315 1055.54 Q87.376 1050.94 87.376 1042.21 Q87.376 1033.46 90.4315 1028.88 Q93.5102 1024.27 99.3204 1024.27 Z" fill="#000000" fill-rule="evenodd" fill-opacity="1" /><path clip-path="url(#clip050)" d="M119.482 1053.57 L124.367 1053.57 L124.367 1059.45 L119.482 1059.45 L119.482 1053.57 Z" fill="#000000" fill-rule="evenodd" fill-opacity="1" /><path clip-path="url(#clip050)" d="M144.552 1027.97 Q140.941 1027.97 139.112 1031.54 Q137.306 1035.08 137.306 1042.21 Q137.306 1049.32 139.112 1052.88 Q140.941 1056.42 144.552 1056.42 Q148.186 1056.42 149.991 1052.88 Q151.82 1049.32 151.82 1042.21 Q151.82 1035.08 149.991 1031.54 Q148.186 1027.97 144.552 1027.97 M144.552 1024.27 Q150.362 1024.27 153.417 1028.88 Q156.496 1033.46 156.496 1042.21 Q156.496 1050.94 153.417 1055.54 Q150.362 1060.13 144.552 1060.13 Q138.741 1060.13 135.663 1055.54 Q132.607 1050.94 132.607 1042.21 Q132.607 1033.46 135.663 1028.88 Q138.741 1024.27 144.552 1024.27 Z" fill="#000000" fill-rule="evenodd" fill-opacity="1" /><path clip-path="url(#clip050)" d="M94.3436 760.112 L110.663 760.112 L110.663 764.048 L88.7186 764.048 L88.7186 760.112 Q91.3806 757.358 95.9639 752.728 Q100.57 748.075 101.751 746.733 Q103.996 744.21 104.876 742.474 Q105.779 740.714 105.779 739.025 Q105.779 736.27 103.834 734.534 Q101.913 732.798 98.8111 732.798 Q96.6121 732.798 94.1584 733.562 Q91.7278 734.326 88.9501 735.876 L88.9501 731.154 Q91.7741 730.02 94.2278 729.441 Q96.6815 728.863 98.7185 728.863 Q104.089 728.863 107.283 731.548 Q110.478 734.233 110.478 738.724 Q110.478 740.853 109.668 742.775 Q108.881 744.673 106.774 747.265 Q106.195 747.937 103.094 751.154 Q99.9917 754.349 94.3436 760.112 Z" fill="#000000" fill-rule="evenodd" fill-opacity="1" /><path clip-path="url(#clip050)" d="M120.478 758.168 L125.362 758.168 L125.362 764.048 L120.478 764.048 L120.478 758.168 Z" fill="#000000" fill-rule="evenodd" fill-opacity="1" /><path clip-path="url(#clip050)" d="M135.593 729.488 L153.95 729.488 L153.95 733.423 L139.876 733.423 L139.876 741.895 Q140.894 741.548 141.913 741.386 Q142.931 741.2 143.95 741.2 Q149.737 741.2 153.116 744.372 Q156.496 747.543 156.496 752.96 Q156.496 758.538 153.024 761.64 Q149.552 764.719 143.232 764.719 Q141.056 764.719 138.788 764.348 Q136.542 763.978 134.135 763.237 L134.135 758.538 Q136.218 759.673 138.441 760.228 Q140.663 760.784 143.14 760.784 Q147.144 760.784 149.482 758.677 Q151.82 756.571 151.82 752.96 Q151.82 749.349 149.482 747.242 Q147.144 745.136 143.14 745.136 Q141.265 745.136 139.39 745.552 Q137.538 745.969 135.593 746.849 L135.593 729.488 Z" fill="#000000" fill-rule="evenodd" fill-opacity="1" /><path clip-path="url(#clip050)" d="M89.3667 434.081 L107.723 434.081 L107.723 438.016 L93.6491 438.016 L93.6491 446.488 Q94.6676 446.141 95.6861 445.979 Q96.7047 445.794 97.7232 445.794 Q103.51 445.794 106.89 448.965 Q110.269 452.136 110.269 457.553 Q110.269 463.131 106.797 466.233 Q103.325 469.312 97.0056 469.312 Q94.8297 469.312 92.5612 468.942 Q90.3158 468.571 87.9084 467.831 L87.9084 463.131 Q89.9917 464.266 92.2139 464.821 Q94.4361 465.377 96.913 465.377 Q100.918 465.377 103.256 463.27 Q105.593 461.164 105.593 457.553 Q105.593 453.942 103.256 451.835 Q100.918 449.729 96.913 449.729 Q95.038 449.729 93.163 450.145 Q91.3112 450.562 89.3667 451.442 L89.3667 434.081 Z" fill="#000000" fill-rule="evenodd" fill-opacity="1" /><path clip-path="url(#clip050)" d="M119.482 462.761 L124.367 462.761 L124.367 468.641 L119.482 468.641 L119.482 462.761 Z" fill="#000000" fill-rule="evenodd" fill-opacity="1" /><path clip-path="url(#clip050)" d="M144.552 437.159 Q140.941 437.159 139.112 440.724 Q137.306 444.266 137.306 451.395 Q137.306 458.502 139.112 462.067 Q140.941 465.608 144.552 465.608 Q148.186 465.608 149.991 462.067 Q151.82 458.502 151.82 451.395 Q151.82 444.266 149.991 440.724 Q148.186 437.159 144.552 437.159 M144.552 433.456 Q150.362 433.456 153.417 438.062 Q156.496 442.645 156.496 451.395 Q156.496 460.122 153.417 464.729 Q150.362 469.312 144.552 469.312 Q138.741 469.312 135.663 464.729 Q132.607 460.122 132.607 451.395 Q132.607 442.645 135.663 438.062 Q138.741 433.456 144.552 433.456 Z" fill="#000000" fill-rule="evenodd" fill-opacity="1" /><path clip-path="url(#clip050)" d="M89.1352 138.674 L111.357 138.674 L111.357 140.665 L98.8111 173.234 L93.9269 173.234 L105.732 142.609 L89.1352 142.609 L89.1352 138.674 Z" fill="#000000" fill-rule="evenodd" fill-opacity="1" /><path clip-path="url(#clip050)" d="M120.478 167.354 L125.362 167.354 L125.362 173.234 L120.478 173.234 L120.478 167.354 Z" fill="#000000" fill-rule="evenodd" fill-opacity="1" /><path clip-path="url(#clip050)" d="M135.593 138.674 L153.95 138.674 L153.95 142.609 L139.876 142.609 L139.876 151.081 Q140.894 150.734 141.913 150.572 Q142.931 150.387 143.95 150.387 Q149.737 150.387 153.116 153.558 Q156.496 156.729 156.496 162.146 Q156.496 167.725 153.024 170.826 Q149.552 173.905 143.232 173.905 Q141.056 173.905 138.788 173.535 Q136.542 173.164 134.135 172.424 L134.135 167.725 Q136.218 168.859 138.441 169.414 Q140.663 169.97 143.14 169.97 Q147.144 169.97 149.482 167.863 Q151.82 165.757 151.82 162.146 Q151.82 158.535 149.482 156.428 Q147.144 154.322 143.14 154.322 Q141.265 154.322 139.39 154.739 Q137.538 155.155 135.593 156.035 L135.593 138.674 Z" fill="#000000" fill-rule="evenodd" fill-opacity="1" /><polyline clip-path="url(#clip052)" style="stroke:#009af9; stroke-linecap:round; stroke-linejoin:round; stroke-width:4; stroke-opacity:1; fill:none" points="265.984,96.8724 273.489,106.084 280.995,115.256 350.393,198.162 419.791,277.642 461.496,323.758 503.201,368.638 538.463,405.617 573.724,441.712 612.028,479.919 650.331,517.083 685.644,550.42 720.956,582.87 758.815,616.675 796.674,649.46 840.537,686.17 884.4,721.511 923.381,751.77 962.361,780.948 996.543,805.645 1030.73,829.51 1067.99,854.583 1105.26,878.669 1142.75,901.9 1180.24,924.132 1221.69,947.548 1263.14,969.743 1302.58,989.725 1342.01,1008.6 1383.02,1027.06 1424.03,1044.31 1458.55,1057.91 1493.06,1070.67 1535.21,1085.09 1577.35,1098.24 1615.96,1109.19 1654.56,1119.07 1690.22,1127.26 1725.87,1134.54 1761.99,1141 1798.11,1146.52 1838.59,1151.62 1879.07,1155.54 1915.75,1158.09 1952.43,1159.69 1994.42,1160.34 2036.42,1159.73 2075.3,1158.05 2114.19,1155.3 2152.52,1151.53 2190.86,1146.72 2228.08,1141.05 2265.3,1134.39 2303.45,1126.54 2341.61,1117.66 2383.41,1106.73 2425.22,1094.57 2485.94,1074.68 2546.67,1052.17 2559.13,1047.23 2571.59,1042.17 "/>
<polyline clip-path="url(#clip052)" style="stroke:#e26f46; stroke-linecap:round; stroke-linejoin:round; stroke-width:4; stroke-opacity:1; fill:none" points="265.984,1751.15 280.995,1745 419.791,1688.09 503.201,1653.89 573.724,1624.98 650.331,1593.57 720.956,1564.61 796.674,1533.57 884.4,1497.6 962.361,1465.64 1030.73,1437.61 1105.26,1407.05 1180.24,1376.3 1263.14,1342.32 1342.01,1309.98 1424.03,1276.35 1493.06,1248.05 1577.35,1213.49 1654.56,1181.83 1725.87,1152.59 1798.11,1122.98 1879.07,1089.78 1952.43,1059.71 2036.42,1025.27 2114.19,993.385 2190.86,961.95 2265.3,931.429 2341.61,900.141 2425.22,865.861 2546.67,816.065 2571.59,805.849 "/>
<polyline clip-path="url(#clip052)" style="stroke:#3da44d; stroke-linecap:round; stroke-linejoin:round; stroke-width:4; stroke-opacity:1; fill:none" points="265.984,805.849 280.995,805.849 419.791,805.849 503.201,805.849 573.724,805.849 650.331,805.849 720.956,805.849 796.674,805.849 884.4,805.849 962.361,805.849 1030.73,805.849 1105.26,805.849 1180.24,805.849 1263.14,805.849 1342.01,805.849 1424.03,805.849 1493.06,805.849 1577.35,805.849 1654.56,805.849 1725.87,805.849 1798.11,805.849 1879.07,805.849 1952.43,805.849 2036.42,805.849 2114.19,805.849 2190.86,805.849 2265.3,805.849 2341.61,805.849 2425.22,805.849 2546.67,805.849 2571.59,805.849 "/>
<path clip-path="url(#clip050)" d="M2261.89 313.055 L2559.29 313.055 L2559.29 105.695 L2261.89 105.695  Z" fill="#ffffff" fill-rule="evenodd" fill-opacity="1"/>
<polyline clip-path="url(#clip050)" style="stroke:#000000; stroke-linecap:round; stroke-linejoin:round; stroke-width:4; stroke-opacity:1; fill:none" points="2261.89,313.055 2559.29,313.055 2559.29,105.695 2261.89,105.695 2261.89,313.055 "/>
<polyline clip-path="url(#clip050)" style="stroke:#009af9; stroke-linecap:round; stroke-linejoin:round; stroke-width:4; stroke-opacity:1; fill:none" points="2289.04,157.535 2451.97,157.535 "/>
<path clip-path="url(#clip050)" d="M2492.97 177.223 Q2491.16 181.852 2489.45 183.264 Q2487.74 184.676 2484.87 184.676 L2481.47 184.676 L2481.47 181.112 L2483.97 181.112 Q2485.72 181.112 2486.7 180.278 Q2487.67 179.445 2488.85 176.343 L2489.61 174.399 L2479.13 148.889 L2483.64 148.889 L2491.74 169.167 L2499.84 148.889 L2504.36 148.889 L2492.97 177.223 Z" fill="#000000" fill-rule="evenodd" fill-opacity="1" /><path clip-path="url(#clip050)" d="M2511.65 170.88 L2519.29 170.88 L2519.29 144.515 L2510.98 146.181 L2510.98 141.922 L2519.24 140.255 L2523.92 140.255 L2523.92 170.88 L2531.56 170.88 L2531.56 174.815 L2511.65 174.815 L2511.65 170.88 Z" fill="#000000" fill-rule="evenodd" fill-opacity="1" /><polyline clip-path="url(#clip050)" style="stroke:#e26f46; stroke-linecap:round; stroke-linejoin:round; stroke-width:4; stroke-opacity:1; fill:none" points="2289.04,209.375 2451.97,209.375 "/>
<path clip-path="url(#clip050)" d="M2492.97 229.063 Q2491.16 233.692 2489.45 235.104 Q2487.74 236.516 2484.87 236.516 L2481.47 236.516 L2481.47 232.952 L2483.97 232.952 Q2485.72 232.952 2486.7 232.118 Q2487.67 231.285 2488.85 228.183 L2489.61 226.239 L2479.13 200.729 L2483.64 200.729 L2491.74 221.007 L2499.84 200.729 L2504.36 200.729 L2492.97 229.063 Z" fill="#000000" fill-rule="evenodd" fill-opacity="1" /><path clip-path="url(#clip050)" d="M2514.87 222.72 L2531.19 222.72 L2531.19 226.655 L2509.24 226.655 L2509.24 222.72 Q2511.9 219.965 2516.49 215.336 Q2521.09 210.683 2522.28 209.341 Q2524.52 206.817 2525.4 205.081 Q2526.3 203.322 2526.3 201.632 Q2526.3 198.878 2524.36 197.142 Q2522.44 195.405 2519.34 195.405 Q2517.14 195.405 2514.68 196.169 Q2512.25 196.933 2509.47 198.484 L2509.47 193.762 Q2512.3 192.628 2514.75 192.049 Q2517.21 191.47 2519.24 191.47 Q2524.61 191.47 2527.81 194.155 Q2531 196.841 2531 201.331 Q2531 203.461 2530.19 205.382 Q2529.4 207.28 2527.3 209.873 Q2526.72 210.544 2523.62 213.762 Q2520.52 216.956 2514.87 222.72 Z" fill="#000000" fill-rule="evenodd" fill-opacity="1" /><polyline clip-path="url(#clip050)" style="stroke:#3da44d; stroke-linecap:round; stroke-linejoin:round; stroke-width:4; stroke-opacity:1; fill:none" points="2289.04,261.215 2451.97,261.215 "/>
<path clip-path="url(#clip050)" d="M2492.97 280.903 Q2491.16 285.532 2489.45 286.944 Q2487.74 288.356 2484.87 288.356 L2481.47 288.356 L2481.47 284.792 L2483.97 284.792 Q2485.72 284.792 2486.7 283.958 Q2487.67 283.125 2488.85 280.023 L2489.61 278.079 L2479.13 252.569 L2483.64 252.569 L2491.74 272.847 L2499.84 252.569 L2504.36 252.569 L2492.97 280.903 Z" fill="#000000" fill-rule="evenodd" fill-opacity="1" /><path clip-path="url(#clip050)" d="M2525.01 259.861 Q2528.36 260.579 2530.24 262.847 Q2532.14 265.116 2532.14 268.449 Q2532.14 273.565 2528.62 276.366 Q2525.1 279.167 2518.62 279.167 Q2516.44 279.167 2514.13 278.727 Q2511.84 278.31 2509.38 277.454 L2509.38 272.94 Q2511.33 274.074 2513.64 274.653 Q2515.96 275.231 2518.48 275.231 Q2522.88 275.231 2525.17 273.495 Q2527.48 271.759 2527.48 268.449 Q2527.48 265.393 2525.33 263.681 Q2523.2 261.944 2519.38 261.944 L2515.35 261.944 L2515.35 258.102 L2519.57 258.102 Q2523.02 258.102 2524.84 256.736 Q2526.67 255.347 2526.67 252.755 Q2526.67 250.093 2524.78 248.681 Q2522.9 247.245 2519.38 247.245 Q2517.46 247.245 2515.26 247.662 Q2513.06 248.079 2510.42 248.958 L2510.42 244.792 Q2513.09 244.051 2515.4 243.681 Q2517.74 243.31 2519.8 243.31 Q2525.12 243.31 2528.22 245.741 Q2531.33 248.148 2531.33 252.269 Q2531.33 255.139 2529.68 257.13 Q2528.04 259.097 2525.01 259.861 Z" fill="#000000" fill-rule="evenodd" fill-opacity="1" /></svg>
