<?xml version="1.0" encoding="utf-8"?>
<svg xmlns="http://www.w3.org/2000/svg" xmlns:xlink="http://www.w3.org/1999/xlink" width="672" height="480" viewBox="0 0 2688 1920">
<defs>
  <clipPath id="clip300">
    <rect x="0" y="0" width="2688" height="1920"/>
  </clipPath>
</defs>
<path clip-path="url(#clip300)" d="
M0 1920 L2688 1920 L2688 0 L0 0  Z
  " fill="#ffffff" fill-rule="evenodd" fill-opacity="1"/>
<defs>
  <clipPath id="clip301">
    <rect x="537" y="0" width="1883" height="1883"/>
  </clipPath>
</defs>
<path clip-path="url(#clip300)" d="
M115.057 1800.78 L2640.76 1800.78 L2640.76 47.2441 L115.057 47.2441  Z
  " fill="#ffffff" fill-rule="evenodd" fill-opacity="1"/>
<defs>
  <clipPath id="clip302">
    <rect x="115" y="47" width="2527" height="1755"/>
  </clipPath>
</defs>
<polyline clip-path="url(#clip302)" style="stroke:#000000; stroke-linecap:butt; stroke-linejoin:round; stroke-width:2; stroke-opacity:0.1; fill:none" points="
  345.388,1800.78 345.388,47.2441 
  "/>
<polyline clip-path="url(#clip302)" style="stroke:#000000; stroke-linecap:butt; stroke-linejoin:round; stroke-width:2; stroke-opacity:0.1; fill:none" points="
  821.935,1800.78 821.935,47.2441 
  "/>
<polyline clip-path="url(#clip302)" style="stroke:#000000; stroke-linecap:butt; stroke-linejoin:round; stroke-width:2; stroke-opacity:0.1; fill:none" points="
  1298.48,1800.78 1298.48,47.2441 
  "/>
<polyline clip-path="url(#clip302)" style="stroke:#000000; stroke-linecap:butt; stroke-linejoin:round; stroke-width:2; stroke-opacity:0.1; fill:none" points="
  1775.03,1800.78 1775.03,47.2441 
  "/>
<polyline clip-path="url(#clip302)" style="stroke:#000000; stroke-linecap:butt; stroke-linejoin:round; stroke-width:2; stroke-opacity:0.1; fill:none" points="
  2251.58,1800.78 2251.58,47.2441 
  "/>
<polyline clip-path="url(#clip300)" style="stroke:#000000; stroke-linecap:butt; stroke-linejoin:round; stroke-width:4; stroke-opacity:1; fill:none" points="
  115.057,1800.78 2640.76,1800.78 
  "/>
<polyline clip-path="url(#clip300)" style="stroke:#000000; stroke-linecap:butt; stroke-linejoin:round; stroke-width:4; stroke-opacity:1; fill:none" points="
  345.388,1800.78 345.388,1781.88 
  "/>
<polyline clip-path="url(#clip300)" style="stroke:#000000; stroke-linecap:butt; stroke-linejoin:round; stroke-width:4; stroke-opacity:1; fill:none" points="
  821.935,1800.78 821.935,1781.88 
  "/>
<polyline clip-path="url(#clip300)" style="stroke:#000000; stroke-linecap:butt; stroke-linejoin:round; stroke-width:4; stroke-opacity:1; fill:none" points="
  1298.48,1800.78 1298.48,1781.88 
  "/>
<polyline clip-path="url(#clip300)" style="stroke:#000000; stroke-linecap:butt; stroke-linejoin:round; stroke-width:4; stroke-opacity:1; fill:none" points="
  1775.03,1800.78 1775.03,1781.88 
  "/>
<polyline clip-path="url(#clip300)" style="stroke:#000000; stroke-linecap:butt; stroke-linejoin:round; stroke-width:4; stroke-opacity:1; fill:none" points="
  2251.58,1800.78 2251.58,1781.88 
  "/>
<path clip-path="url(#clip300)" d="M322.692 1834 Q319.08 1834 317.252 1837.57 Q315.446 1841.11 315.446 1848.24 Q315.446 1855.34 317.252 1858.91 Q319.08 1862.45 322.692 1862.45 Q326.326 1862.45 328.131 1858.91 Q329.96 1855.34 329.96 1848.24 Q329.96 1841.11 328.131 1837.57 Q326.326 1834 322.692 1834 M322.692 1830.3 Q328.502 1830.3 331.557 1834.9 Q334.636 1839.49 334.636 1848.24 Q334.636 1856.96 331.557 1861.57 Q328.502 1866.15 322.692 1866.15 Q316.881 1866.15 313.803 1861.57 Q310.747 1856.96 310.747 1848.24 Q310.747 1839.49 313.803 1834.9 Q316.881 1830.3 322.692 1830.3 Z" fill="#000000" fill-rule="evenodd" fill-opacity="1" /><path clip-path="url(#clip300)" d="M342.853 1859.6 L347.738 1859.6 L347.738 1865.48 L342.853 1865.48 L342.853 1859.6 Z" fill="#000000" fill-rule="evenodd" fill-opacity="1" /><path clip-path="url(#clip300)" d="M368.501 1846.34 Q365.353 1846.34 363.502 1848.49 Q361.673 1850.65 361.673 1854.4 Q361.673 1858.12 363.502 1860.3 Q365.353 1862.45 368.501 1862.45 Q371.65 1862.45 373.478 1860.3 Q375.33 1858.12 375.33 1854.4 Q375.33 1850.65 373.478 1848.49 Q371.65 1846.34 368.501 1846.34 M377.784 1831.69 L377.784 1835.95 Q376.025 1835.11 374.219 1834.67 Q372.437 1834.23 370.677 1834.23 Q366.048 1834.23 363.594 1837.36 Q361.164 1840.48 360.816 1846.8 Q362.182 1844.79 364.242 1843.72 Q366.302 1842.64 368.779 1842.64 Q373.988 1842.64 376.997 1845.81 Q380.029 1848.96 380.029 1854.4 Q380.029 1859.72 376.881 1862.94 Q373.733 1866.15 368.501 1866.15 Q362.506 1866.15 359.335 1861.57 Q356.164 1856.96 356.164 1848.24 Q356.164 1840.04 360.052 1835.18 Q363.941 1830.3 370.492 1830.3 Q372.251 1830.3 374.034 1830.65 Q375.839 1830.99 377.784 1831.69 Z" fill="#000000" fill-rule="evenodd" fill-opacity="1" /><path clip-path="url(#clip300)" d="M799.412 1834 Q795.801 1834 793.972 1837.57 Q792.167 1841.11 792.167 1848.24 Q792.167 1855.34 793.972 1858.91 Q795.801 1862.45 799.412 1862.45 Q803.046 1862.45 804.852 1858.91 Q806.681 1855.34 806.681 1848.24 Q806.681 1841.11 804.852 1837.57 Q803.046 1834 799.412 1834 M799.412 1830.3 Q805.222 1830.3 808.278 1834.9 Q811.356 1839.49 811.356 1848.24 Q811.356 1856.96 808.278 1861.57 Q805.222 1866.15 799.412 1866.15 Q793.602 1866.15 790.523 1861.57 Q787.468 1856.96 787.468 1848.24 Q787.468 1839.49 790.523 1834.9 Q793.602 1830.3 799.412 1830.3 Z" fill="#000000" fill-rule="evenodd" fill-opacity="1" /><path clip-path="url(#clip300)" d="M819.574 1859.6 L824.458 1859.6 L824.458 1865.48 L819.574 1865.48 L819.574 1859.6 Z" fill="#000000" fill-rule="evenodd" fill-opacity="1" /><path clip-path="url(#clip300)" d="M834.782 1864.77 L834.782 1860.51 Q836.542 1861.34 838.347 1861.78 Q840.153 1862.22 841.889 1862.22 Q846.518 1862.22 848.949 1859.12 Q851.403 1855.99 851.75 1849.65 Q850.407 1851.64 848.347 1852.71 Q846.287 1853.77 843.787 1853.77 Q838.602 1853.77 835.569 1850.65 Q832.56 1847.5 832.56 1842.06 Q832.56 1836.73 835.708 1833.52 Q838.856 1830.3 844.088 1830.3 Q850.083 1830.3 853.231 1834.9 Q856.403 1839.49 856.403 1848.24 Q856.403 1856.41 852.514 1861.29 Q848.648 1866.15 842.097 1866.15 Q840.338 1866.15 838.532 1865.81 Q836.727 1865.46 834.782 1864.77 M844.088 1850.11 Q847.236 1850.11 849.065 1847.96 Q850.916 1845.81 850.916 1842.06 Q850.916 1838.33 849.065 1836.18 Q847.236 1834 844.088 1834 Q840.94 1834 839.088 1836.18 Q837.259 1838.33 837.259 1842.06 Q837.259 1845.81 839.088 1847.96 Q840.94 1850.11 844.088 1850.11 Z" fill="#000000" fill-rule="evenodd" fill-opacity="1" /><path clip-path="url(#clip300)" d="M1266.43 1861.55 L1274.07 1861.55 L1274.07 1835.18 L1265.76 1836.85 L1265.76 1832.59 L1274.03 1830.92 L1278.7 1830.92 L1278.7 1861.55 L1286.34 1861.55 L1286.34 1865.48 L1266.43 1865.48 L1266.43 1861.55 Z" fill="#000000" fill-rule="evenodd" fill-opacity="1" /><path clip-path="url(#clip300)" d="M1295.79 1859.6 L1300.67 1859.6 L1300.67 1865.48 L1295.79 1865.48 L1295.79 1859.6 Z" fill="#000000" fill-rule="evenodd" fill-opacity="1" /><path clip-path="url(#clip300)" d="M1314.88 1861.55 L1331.2 1861.55 L1331.2 1865.48 L1309.26 1865.48 L1309.26 1861.55 Q1311.92 1858.79 1316.5 1854.16 Q1321.11 1849.51 1322.29 1848.17 Q1324.54 1845.65 1325.41 1843.91 Q1326.32 1842.15 1326.32 1840.46 Q1326.32 1837.71 1324.37 1835.97 Q1322.45 1834.23 1319.35 1834.23 Q1317.15 1834.23 1314.7 1835 Q1312.27 1835.76 1309.49 1837.31 L1309.49 1832.59 Q1312.31 1831.46 1314.77 1830.88 Q1317.22 1830.3 1319.26 1830.3 Q1324.63 1830.3 1327.82 1832.98 Q1331.02 1835.67 1331.02 1840.16 Q1331.02 1842.29 1330.21 1844.21 Q1329.42 1846.11 1327.31 1848.7 Q1326.73 1849.37 1323.63 1852.59 Q1320.53 1855.78 1314.88 1861.55 Z" fill="#000000" fill-rule="evenodd" fill-opacity="1" /><path clip-path="url(#clip300)" d="M1742.68 1861.55 L1750.32 1861.55 L1750.32 1835.18 L1742.01 1836.85 L1742.01 1832.59 L1750.27 1830.92 L1754.95 1830.92 L1754.95 1861.55 L1762.59 1861.55 L1762.59 1865.48 L1742.68 1865.48 L1742.68 1861.55 Z" fill="#000000" fill-rule="evenodd" fill-opacity="1" /><path clip-path="url(#clip300)" d="M1772.03 1859.6 L1776.92 1859.6 L1776.92 1865.48 L1772.03 1865.48 L1772.03 1859.6 Z" fill="#000000" fill-rule="evenodd" fill-opacity="1" /><path clip-path="url(#clip300)" d="M1787.15 1830.92 L1805.5 1830.92 L1805.5 1834.86 L1791.43 1834.86 L1791.43 1843.33 Q1792.45 1842.98 1793.47 1842.82 Q1794.48 1842.64 1795.5 1842.64 Q1801.29 1842.64 1804.67 1845.81 Q1808.05 1848.98 1808.05 1854.4 Q1808.05 1859.97 1804.58 1863.08 Q1801.11 1866.15 1794.79 1866.15 Q1792.61 1866.15 1790.34 1865.78 Q1788.1 1865.41 1785.69 1864.67 L1785.69 1859.97 Q1787.77 1861.11 1789.99 1861.66 Q1792.22 1862.22 1794.69 1862.22 Q1798.7 1862.22 1801.04 1860.11 Q1803.37 1858.01 1803.37 1854.4 Q1803.37 1850.78 1801.04 1848.68 Q1798.7 1846.57 1794.69 1846.57 Q1792.82 1846.57 1790.94 1846.99 Q1789.09 1847.4 1787.15 1848.28 L1787.15 1830.92 Z" fill="#000000" fill-rule="evenodd" fill-opacity="1" /><path clip-path="url(#clip300)" d="M2218.78 1861.55 L2226.41 1861.55 L2226.41 1835.18 L2218.1 1836.85 L2218.1 1832.59 L2226.37 1830.92 L2231.04 1830.92 L2231.04 1861.55 L2238.68 1861.55 L2238.68 1865.48 L2218.78 1865.48 L2218.78 1861.55 Z" fill="#000000" fill-rule="evenodd" fill-opacity="1" /><path clip-path="url(#clip300)" d="M2248.13 1859.6 L2253.01 1859.6 L2253.01 1865.48 L2248.13 1865.48 L2248.13 1859.6 Z" fill="#000000" fill-rule="evenodd" fill-opacity="1" /><path clip-path="url(#clip300)" d="M2273.2 1849.07 Q2269.86 1849.07 2267.94 1850.85 Q2266.04 1852.64 2266.04 1855.76 Q2266.04 1858.89 2267.94 1860.67 Q2269.86 1862.45 2273.2 1862.45 Q2276.53 1862.45 2278.45 1860.67 Q2280.37 1858.86 2280.37 1855.76 Q2280.37 1852.64 2278.45 1850.85 Q2276.55 1849.07 2273.2 1849.07 M2268.52 1847.08 Q2265.51 1846.34 2263.82 1844.28 Q2262.15 1842.22 2262.15 1839.26 Q2262.15 1835.11 2265.09 1832.71 Q2268.06 1830.3 2273.2 1830.3 Q2278.36 1830.3 2281.3 1832.71 Q2284.24 1835.11 2284.24 1839.26 Q2284.24 1842.22 2282.55 1844.28 Q2280.88 1846.34 2277.9 1847.08 Q2281.27 1847.87 2283.15 1850.16 Q2285.05 1852.45 2285.05 1855.76 Q2285.05 1860.78 2281.97 1863.47 Q2278.91 1866.15 2273.2 1866.15 Q2267.48 1866.15 2264.4 1863.47 Q2261.34 1860.78 2261.34 1855.76 Q2261.34 1852.45 2263.24 1850.16 Q2265.14 1847.87 2268.52 1847.08 M2266.81 1839.7 Q2266.81 1842.38 2268.47 1843.89 Q2270.16 1845.39 2273.2 1845.39 Q2276.21 1845.39 2277.9 1843.89 Q2279.61 1842.38 2279.61 1839.7 Q2279.61 1837.01 2277.9 1835.51 Q2276.21 1834 2273.2 1834 Q2270.16 1834 2268.47 1835.51 Q2266.81 1837.01 2266.81 1839.7 Z" fill="#000000" fill-rule="evenodd" fill-opacity="1" /><polyline clip-path="url(#clip302)" style="stroke:#000000; stroke-linecap:butt; stroke-linejoin:round; stroke-width:2; stroke-opacity:0.1; fill:none" points="
  115.057,1514.83 2640.76,1514.83 
  "/>
<polyline clip-path="url(#clip302)" style="stroke:#000000; stroke-linecap:butt; stroke-linejoin:round; stroke-width:2; stroke-opacity:0.1; fill:none" points="
  115.057,1042.17 2640.76,1042.17 
  "/>
<polyline clip-path="url(#clip302)" style="stroke:#000000; stroke-linecap:butt; stroke-linejoin:round; stroke-width:2; stroke-opacity:0.1; fill:none" points="
  115.057,569.523 2640.76,569.523 
  "/>
<polyline clip-path="url(#clip302)" style="stroke:#000000; stroke-linecap:butt; stroke-linejoin:round; stroke-width:2; stroke-opacity:0.1; fill:none" points="
  115.057,96.8724 2640.76,96.8724 
  "/>
<polyline clip-path="url(#clip300)" style="stroke:#000000; stroke-linecap:butt; stroke-linejoin:round; stroke-width:4; stroke-opacity:1; fill:none" points="
  115.057,1800.78 115.057,47.2441 
  "/>
<polyline clip-path="url(#clip300)" style="stroke:#000000; stroke-linecap:butt; stroke-linejoin:round; stroke-width:4; stroke-opacity:1; fill:none" points="
  115.057,1514.83 133.955,1514.83 
  "/>
<polyline clip-path="url(#clip300)" style="stroke:#000000; stroke-linecap:butt; stroke-linejoin:round; stroke-width:4; stroke-opacity:1; fill:none" points="
  115.057,1042.17 133.955,1042.17 
  "/>
<polyline clip-path="url(#clip300)" style="stroke:#000000; stroke-linecap:butt; stroke-linejoin:round; stroke-width:4; stroke-opacity:1; fill:none" points="
  115.057,569.523 133.955,569.523 
  "/>
<polyline clip-path="url(#clip300)" style="stroke:#000000; stroke-linecap:butt; stroke-linejoin:round; stroke-width:4; stroke-opacity:1; fill:none" points="
  115.057,96.8724 133.955,96.8724 
  "/>
<path clip-path="url(#clip300)" d="M54.8299 1528.17 L62.4687 1528.17 L62.4687 1501.8 L54.1586 1503.47 L54.1586 1499.21 L62.4224 1497.55 L67.0983 1497.55 L67.0983 1528.17 L74.7372 1528.17 L74.7372 1532.11 L54.8299 1532.11 L54.8299 1528.17 Z" fill="#000000" fill-rule="evenodd" fill-opacity="1" /><path clip-path="url(#clip300)" d="M58.4178 1055.52 L74.7372 1055.52 L74.7372 1059.45 L52.7928 1059.45 L52.7928 1055.52 Q55.4549 1052.76 60.0382 1048.14 Q64.6446 1043.48 65.8252 1042.14 Q68.0705 1039.62 68.9502 1037.88 Q69.8529 1036.12 69.8529 1034.43 Q69.8529 1031.68 67.9085 1029.94 Q65.9872 1028.2 62.8854 1028.2 Q60.6863 1028.2 58.2326 1028.97 Q55.8021 1029.73 53.0243 1031.28 L53.0243 1026.56 Q55.8484 1025.43 58.3021 1024.85 Q60.7558 1024.27 62.7928 1024.27 Q68.1631 1024.27 71.3576 1026.95 Q74.552 1029.64 74.552 1034.13 Q74.552 1036.26 73.7418 1038.18 Q72.9548 1040.08 70.8483 1042.67 Q70.2696 1043.34 67.1678 1046.56 Q64.0659 1049.76 58.4178 1055.52 Z" fill="#000000" fill-rule="evenodd" fill-opacity="1" /><path clip-path="url(#clip300)" d="M67.6076 568.169 Q70.964 568.887 72.839 571.155 Q74.7372 573.424 74.7372 576.757 Q74.7372 581.873 71.2187 584.674 Q67.7002 587.475 61.2187 587.475 Q59.0428 587.475 56.728 587.035 Q54.4364 586.618 51.9827 585.762 L51.9827 581.248 Q53.9271 582.382 56.2419 582.961 Q58.5567 583.54 61.0798 583.54 Q65.478 583.54 67.7696 581.803 Q70.0844 580.067 70.0844 576.757 Q70.0844 573.702 67.9317 571.989 Q65.802 570.253 61.9826 570.253 L57.9549 570.253 L57.9549 566.41 L62.1678 566.41 Q65.6169 566.41 67.4455 565.044 Q69.2742 563.655 69.2742 561.063 Q69.2742 558.401 67.3761 556.989 Q65.5011 555.554 61.9826 555.554 Q60.0613 555.554 57.8623 555.97 Q55.6632 556.387 53.0243 557.267 L53.0243 553.1 Q55.6864 552.359 58.0012 551.989 Q60.3391 551.618 62.3993 551.618 Q67.7233 551.618 70.8252 554.049 Q73.927 556.456 73.927 560.577 Q73.927 563.447 72.2835 565.438 Q70.64 567.405 67.6076 568.169 Z" fill="#000000" fill-rule="evenodd" fill-opacity="1" /><path clip-path="url(#clip300)" d="M65.1539 83.6665 L53.3484 102.115 L65.1539 102.115 L65.1539 83.6665 M63.927 79.5924 L69.8066 79.5924 L69.8066 102.115 L74.7372 102.115 L74.7372 106.004 L69.8066 106.004 L69.8066 114.152 L65.1539 114.152 L65.1539 106.004 L49.5521 106.004 L49.5521 101.49 L63.927 79.5924 Z" fill="#000000" fill-rule="evenodd" fill-opacity="1" /><polyline clip-path="url(#clip302)" style="stroke:#009af9; stroke-linecap:butt; stroke-linejoin:round; stroke-width:4; stroke-opacity:1; fill:none" points="
  186.539,1653.26 209.809,1651.68 424.967,1630.24 554.269,1611.46 663.592,1592 782.347,1566.92 891.828,1539.85 1009.2,1506.22 1145.2,1460.56 1266.05,1413.16 
  1372.03,1365.59 1487.57,1306.45 1603.8,1238.26 1732.31,1151.17 1854.58,1055.07 1981.72,939.188 2088.74,827.006 2154.06,751.07 2219.39,668.883 2280.81,585.435 
  2342.22,495.48 2440.6,336.424 2538.99,156.756 2554.13,127.097 2569.27,96.8724 
  "/>
<polyline clip-path="url(#clip302)" style="stroke:#e26f46; stroke-linecap:butt; stroke-linejoin:round; stroke-width:4; stroke-opacity:1; fill:none" points="
  186.539,1751.15 209.809,1744.23 424.967,1680.21 554.269,1641.73 663.592,1609.21 782.347,1573.87 891.828,1541.29 1009.2,1506.37 1145.2,1465.91 1266.05,1429.95 
  1372.03,1398.41 1487.57,1364.03 1603.8,1329.45 1732.31,1291.21 1854.58,1254.83 1981.72,1217 2088.74,1185.16 2219.39,1146.28 2342.22,1109.73 2538.99,1051.18 
  2569.27,1042.17 
  "/>
<path clip-path="url(#clip300)" d="
M2223.5 261.215 L2556.57 261.215 L2556.57 105.695 L2223.5 105.695  Z
  " fill="#ffffff" fill-rule="evenodd" fill-opacity="1"/>
<polyline clip-path="url(#clip300)" style="stroke:#000000; stroke-linecap:butt; stroke-linejoin:round; stroke-width:4; stroke-opacity:1; fill:none" points="
  2223.5,261.215 2556.57,261.215 2556.57,105.695 2223.5,105.695 2223.5,261.215 
  "/>
<polyline clip-path="url(#clip300)" style="stroke:#009af9; stroke-linecap:butt; stroke-linejoin:round; stroke-width:4; stroke-opacity:1; fill:none" points="
  2251.57,157.535 2419.95,157.535 
  "/>
<path clip-path="url(#clip300)" d="M2461.85 177.223 Q2460.05 181.852 2458.33 183.264 Q2456.62 184.676 2453.75 184.676 L2450.35 184.676 L2450.35 181.112 L2452.85 181.112 Q2454.61 181.112 2455.58 180.278 Q2456.55 179.445 2457.73 176.343 L2458.5 174.399 L2448.01 148.889 L2452.52 148.889 L2460.62 169.167 L2468.73 148.889 L2473.24 148.889 L2461.85 177.223 Z" fill="#000000" fill-rule="evenodd" fill-opacity="1" /><path clip-path="url(#clip300)" d="M2480.53 170.88 L2488.17 170.88 L2488.17 144.515 L2479.86 146.181 L2479.86 141.922 L2488.12 140.255 L2492.8 140.255 L2492.8 170.88 L2500.44 170.88 L2500.44 174.815 L2480.53 174.815 L2480.53 170.88 Z" fill="#000000" fill-rule="evenodd" fill-opacity="1" /><polyline clip-path="url(#clip300)" style="stroke:#e26f46; stroke-linecap:butt; stroke-linejoin:round; stroke-width:4; stroke-opacity:1; fill:none" points="
  2251.57,209.375 2419.95,209.375 
  "/>
<path clip-path="url(#clip300)" d="M2461.85 229.063 Q2460.05 233.692 2458.33 235.104 Q2456.62 236.516 2453.75 236.516 L2450.35 236.516 L2450.35 232.952 L2452.85 232.952 Q2454.61 232.952 2455.58 232.118 Q2456.55 231.285 2457.73 228.183 L2458.5 226.239 L2448.01 200.729 L2452.52 200.729 L2460.62 221.007 L2468.73 200.729 L2473.24 200.729 L2461.85 229.063 Z" fill="#000000" fill-rule="evenodd" fill-opacity="1" /><path clip-path="url(#clip300)" d="M2483.75 222.72 L2500.07 222.72 L2500.07 226.655 L2478.12 226.655 L2478.12 222.72 Q2480.79 219.965 2485.37 215.336 Q2489.98 210.683 2491.16 209.341 Q2493.4 206.817 2494.28 205.081 Q2495.18 203.322 2495.18 201.632 Q2495.18 198.878 2493.24 197.142 Q2491.32 195.405 2488.22 195.405 Q2486.02 195.405 2483.56 196.169 Q2481.13 196.933 2478.36 198.484 L2478.36 193.762 Q2481.18 192.628 2483.63 192.049 Q2486.09 191.47 2488.12 191.47 Q2493.49 191.47 2496.69 194.155 Q2499.88 196.841 2499.88 201.331 Q2499.88 203.461 2499.07 205.382 Q2498.29 207.28 2496.18 209.873 Q2495.6 210.544 2492.5 213.762 Q2489.4 216.956 2483.75 222.72 Z" fill="#000000" fill-rule="evenodd" fill-opacity="1" /></svg>
