<?xml version="1.0" encoding="utf-8"?>
<svg xmlns="http://www.w3.org/2000/svg" xmlns:xlink="http://www.w3.org/1999/xlink" width="672" height="480" viewBox="0 0 2688 1920">
<defs>
  <clipPath id="clip130">
    <rect x="0" y="0" width="2688" height="1920"/>
  </clipPath>
</defs>
<path clip-path="url(#clip130)" d="
M0 1920 L2688 1920 L2688 0 L0 0  Z
  " fill="#ffffff" fill-rule="evenodd" fill-opacity="1"/>
<defs>
  <clipPath id="clip131">
    <rect x="537" y="0" width="1883" height="1883"/>
  </clipPath>
</defs>
<path clip-path="url(#clip130)" d="
M196.816 1800.78 L2640.76 1800.78 L2640.76 47.2441 L196.816 47.2441  Z
  " fill="#ffffff" fill-rule="evenodd" fill-opacity="1"/>
<defs>
  <clipPath id="clip132">
    <rect x="196" y="47" width="2445" height="1755"/>
  </clipPath>
</defs>
<polyline clip-path="url(#clip132)" style="stroke:#000000; stroke-linecap:butt; stroke-linejoin:round; stroke-width:2; stroke-opacity:0.1; fill:none" points="
  265.984,1800.78 265.984,47.2441 
  "/>
<polyline clip-path="url(#clip132)" style="stroke:#000000; stroke-linecap:butt; stroke-linejoin:round; stroke-width:2; stroke-opacity:0.1; fill:none" points="
  842.385,1800.78 842.385,47.2441 
  "/>
<polyline clip-path="url(#clip132)" style="stroke:#000000; stroke-linecap:butt; stroke-linejoin:round; stroke-width:2; stroke-opacity:0.1; fill:none" points="
  1418.79,1800.78 1418.79,47.2441 
  "/>
<polyline clip-path="url(#clip132)" style="stroke:#000000; stroke-linecap:butt; stroke-linejoin:round; stroke-width:2; stroke-opacity:0.1; fill:none" points="
  1995.19,1800.78 1995.19,47.2441 
  "/>
<polyline clip-path="url(#clip132)" style="stroke:#000000; stroke-linecap:butt; stroke-linejoin:round; stroke-width:2; stroke-opacity:0.1; fill:none" points="
  2571.59,1800.78 2571.59,47.2441 
  "/>
<polyline clip-path="url(#clip130)" style="stroke:#000000; stroke-linecap:butt; stroke-linejoin:round; stroke-width:4; stroke-opacity:1; fill:none" points="
  196.816,1800.78 2640.76,1800.78 
  "/>
<polyline clip-path="url(#clip130)" style="stroke:#000000; stroke-linecap:butt; stroke-linejoin:round; stroke-width:4; stroke-opacity:1; fill:none" points="
  265.984,1800.78 265.984,1781.88 
  "/>
<polyline clip-path="url(#clip130)" style="stroke:#000000; stroke-linecap:butt; stroke-linejoin:round; stroke-width:4; stroke-opacity:1; fill:none" points="
  842.385,1800.78 842.385,1781.88 
  "/>
<polyline clip-path="url(#clip130)" style="stroke:#000000; stroke-linecap:butt; stroke-linejoin:round; stroke-width:4; stroke-opacity:1; fill:none" points="
  1418.79,1800.78 1418.79,1781.88 
  "/>
<polyline clip-path="url(#clip130)" style="stroke:#000000; stroke-linecap:butt; stroke-linejoin:round; stroke-width:4; stroke-opacity:1; fill:none" points="
  1995.19,1800.78 1995.19,1781.88 
  "/>
<polyline clip-path="url(#clip130)" style="stroke:#000000; stroke-linecap:butt; stroke-linejoin:round; stroke-width:4; stroke-opacity:1; fill:none" points="
  2571.59,1800.78 2571.59,1781.88 
  "/>
<path clip-path="url(#clip130)" d="M235.926 1848.65 L265.602 1848.65 L265.602 1852.59 L235.926 1852.59 L235.926 1848.65 Z" fill="#000000" fill-rule="evenodd" fill-opacity="1" /><path clip-path="url(#clip130)" d="M279.722 1861.55 L296.042 1861.55 L296.042 1865.48 L274.097 1865.48 L274.097 1861.55 Q276.76 1858.79 281.343 1854.16 Q285.949 1849.51 287.13 1848.17 Q289.375 1845.65 290.255 1843.91 Q291.158 1842.15 291.158 1840.46 Q291.158 1837.71 289.213 1835.97 Q287.292 1834.23 284.19 1834.23 Q281.991 1834.23 279.537 1835 Q277.107 1835.76 274.329 1837.31 L274.329 1832.59 Q277.153 1831.46 279.607 1830.88 Q282.06 1830.3 284.097 1830.3 Q289.468 1830.3 292.662 1832.98 Q295.857 1835.67 295.857 1840.16 Q295.857 1842.29 295.046 1844.21 Q294.259 1846.11 292.153 1848.7 Q291.574 1849.37 288.472 1852.59 Q285.371 1855.78 279.722 1861.55 Z" fill="#000000" fill-rule="evenodd" fill-opacity="1" /><path clip-path="url(#clip130)" d="M812.142 1848.65 L841.818 1848.65 L841.818 1852.59 L812.142 1852.59 L812.142 1848.65 Z" fill="#000000" fill-rule="evenodd" fill-opacity="1" /><path clip-path="url(#clip130)" d="M852.721 1861.55 L860.359 1861.55 L860.359 1835.18 L852.049 1836.85 L852.049 1832.59 L860.313 1830.92 L864.989 1830.92 L864.989 1861.55 L872.628 1861.55 L872.628 1865.48 L852.721 1865.48 L852.721 1861.55 Z" fill="#000000" fill-rule="evenodd" fill-opacity="1" /><path clip-path="url(#clip130)" d="M1418.79 1834 Q1415.17 1834 1413.35 1837.57 Q1411.54 1841.11 1411.54 1848.24 Q1411.54 1855.34 1413.35 1858.91 Q1415.17 1862.45 1418.79 1862.45 Q1422.42 1862.45 1424.23 1858.91 Q1426.05 1855.34 1426.05 1848.24 Q1426.05 1841.11 1424.23 1837.57 Q1422.42 1834 1418.79 1834 M1418.79 1830.3 Q1424.6 1830.3 1427.65 1834.9 Q1430.73 1839.49 1430.73 1848.24 Q1430.73 1856.96 1427.65 1861.57 Q1424.6 1866.15 1418.79 1866.15 Q1412.98 1866.15 1409.9 1861.57 Q1406.84 1856.96 1406.84 1848.24 Q1406.84 1839.49 1409.9 1834.9 Q1412.98 1830.3 1418.79 1830.3 Z" fill="#000000" fill-rule="evenodd" fill-opacity="1" /><path clip-path="url(#clip130)" d="M1985.57 1861.55 L1993.21 1861.55 L1993.21 1835.18 L1984.9 1836.85 L1984.9 1832.59 L1993.16 1830.92 L1997.84 1830.92 L1997.84 1861.55 L2005.48 1861.55 L2005.48 1865.48 L1985.57 1865.48 L1985.57 1861.55 Z" fill="#000000" fill-rule="evenodd" fill-opacity="1" /><path clip-path="url(#clip130)" d="M2566.24 1861.55 L2582.56 1861.55 L2582.56 1865.48 L2560.62 1865.48 L2560.62 1861.55 Q2563.28 1858.79 2567.86 1854.16 Q2572.47 1849.51 2573.65 1848.17 Q2575.89 1845.65 2576.77 1843.91 Q2577.68 1842.15 2577.68 1840.46 Q2577.68 1837.71 2575.73 1835.97 Q2573.81 1834.23 2570.71 1834.23 Q2568.51 1834.23 2566.06 1835 Q2563.62 1835.76 2560.85 1837.31 L2560.85 1832.59 Q2563.67 1831.46 2566.12 1830.88 Q2568.58 1830.3 2570.62 1830.3 Q2575.99 1830.3 2579.18 1832.98 Q2582.37 1835.67 2582.37 1840.16 Q2582.37 1842.29 2581.56 1844.21 Q2580.78 1846.11 2578.67 1848.7 Q2578.09 1849.37 2574.99 1852.59 Q2571.89 1855.78 2566.24 1861.55 Z" fill="#000000" fill-rule="evenodd" fill-opacity="1" /><polyline clip-path="url(#clip132)" style="stroke:#000000; stroke-linecap:butt; stroke-linejoin:round; stroke-width:2; stroke-opacity:0.1; fill:none" points="
  196.816,1751.19 2640.76,1751.19 
  "/>
<polyline clip-path="url(#clip132)" style="stroke:#000000; stroke-linecap:butt; stroke-linejoin:round; stroke-width:2; stroke-opacity:0.1; fill:none" points="
  196.816,1406.54 2640.76,1406.54 
  "/>
<polyline clip-path="url(#clip132)" style="stroke:#000000; stroke-linecap:butt; stroke-linejoin:round; stroke-width:2; stroke-opacity:0.1; fill:none" points="
  196.816,1061.89 2640.76,1061.89 
  "/>
<polyline clip-path="url(#clip132)" style="stroke:#000000; stroke-linecap:butt; stroke-linejoin:round; stroke-width:2; stroke-opacity:0.1; fill:none" points="
  196.816,717.24 2640.76,717.24 
  "/>
<polyline clip-path="url(#clip132)" style="stroke:#000000; stroke-linecap:butt; stroke-linejoin:round; stroke-width:2; stroke-opacity:0.1; fill:none" points="
  196.816,372.591 2640.76,372.591 
  "/>
<polyline clip-path="url(#clip130)" style="stroke:#000000; stroke-linecap:butt; stroke-linejoin:round; stroke-width:4; stroke-opacity:1; fill:none" points="
  196.816,1800.78 196.816,47.2441 
  "/>
<polyline clip-path="url(#clip130)" style="stroke:#000000; stroke-linecap:butt; stroke-linejoin:round; stroke-width:4; stroke-opacity:1; fill:none" points="
  196.816,1751.19 215.714,1751.19 
  "/>
<polyline clip-path="url(#clip130)" style="stroke:#000000; stroke-linecap:butt; stroke-linejoin:round; stroke-width:4; stroke-opacity:1; fill:none" points="
  196.816,1406.54 215.714,1406.54 
  "/>
<polyline clip-path="url(#clip130)" style="stroke:#000000; stroke-linecap:butt; stroke-linejoin:round; stroke-width:4; stroke-opacity:1; fill:none" points="
  196.816,1061.89 215.714,1061.89 
  "/>
<polyline clip-path="url(#clip130)" style="stroke:#000000; stroke-linecap:butt; stroke-linejoin:round; stroke-width:4; stroke-opacity:1; fill:none" points="
  196.816,717.24 215.714,717.24 
  "/>
<polyline clip-path="url(#clip130)" style="stroke:#000000; stroke-linecap:butt; stroke-linejoin:round; stroke-width:4; stroke-opacity:1; fill:none" points="
  196.816,372.591 215.714,372.591 
  "/>
<path clip-path="url(#clip130)" d="M49.5521 1751.64 L79.2279 1751.64 L79.2279 1755.57 L49.5521 1755.57 L49.5521 1751.64 Z" fill="#000000" fill-rule="evenodd" fill-opacity="1" /><path clip-path="url(#clip130)" d="M89.3667 1733.91 L107.723 1733.91 L107.723 1737.84 L93.6491 1737.84 L93.6491 1746.31 Q94.6676 1745.97 95.6861 1745.8 Q96.7047 1745.62 97.7232 1745.62 Q103.51 1745.62 106.89 1748.79 Q110.269 1751.96 110.269 1757.38 Q110.269 1762.96 106.797 1766.06 Q103.325 1769.14 97.0056 1769.14 Q94.8297 1769.14 92.5612 1768.77 Q90.3158 1768.4 87.9084 1767.65 L87.9084 1762.96 Q89.9917 1764.09 92.2139 1764.65 Q94.4361 1765.2 96.913 1765.2 Q100.918 1765.2 103.256 1763.09 Q105.593 1760.99 105.593 1757.38 Q105.593 1753.77 103.256 1751.66 Q100.918 1749.55 96.913 1749.55 Q95.038 1749.55 93.163 1749.97 Q91.3112 1750.39 89.3667 1751.27 L89.3667 1733.91 Z" fill="#000000" fill-rule="evenodd" fill-opacity="1" /><path clip-path="url(#clip130)" d="M119.482 1762.59 L124.367 1762.59 L124.367 1768.47 L119.482 1768.47 L119.482 1762.59 Z" fill="#000000" fill-rule="evenodd" fill-opacity="1" /><path clip-path="url(#clip130)" d="M144.552 1736.98 Q140.941 1736.98 139.112 1740.55 Q137.306 1744.09 137.306 1751.22 Q137.306 1758.33 139.112 1761.89 Q140.941 1765.43 144.552 1765.43 Q148.186 1765.43 149.991 1761.89 Q151.82 1758.33 151.82 1751.22 Q151.82 1744.09 149.991 1740.55 Q148.186 1736.98 144.552 1736.98 M144.552 1733.28 Q150.362 1733.28 153.417 1737.89 Q156.496 1742.47 156.496 1751.22 Q156.496 1759.95 153.417 1764.55 Q150.362 1769.14 144.552 1769.14 Q138.741 1769.14 135.663 1764.55 Q132.607 1759.95 132.607 1751.22 Q132.607 1742.47 135.663 1737.89 Q138.741 1733.28 144.552 1733.28 Z" fill="#000000" fill-rule="evenodd" fill-opacity="1" /><path clip-path="url(#clip130)" d="M50.5475 1406.99 L80.2233 1406.99 L80.2233 1410.92 L50.5475 1410.92 L50.5475 1406.99 Z" fill="#000000" fill-rule="evenodd" fill-opacity="1" /><path clip-path="url(#clip130)" d="M94.3436 1419.88 L110.663 1419.88 L110.663 1423.82 L88.7186 1423.82 L88.7186 1419.88 Q91.3806 1417.13 95.9639 1412.5 Q100.57 1407.84 101.751 1406.5 Q103.996 1403.98 104.876 1402.24 Q105.779 1400.48 105.779 1398.79 Q105.779 1396.04 103.834 1394.3 Q101.913 1392.57 98.8111 1392.57 Q96.6121 1392.57 94.1584 1393.33 Q91.7278 1394.09 88.9501 1395.65 L88.9501 1390.92 Q91.7741 1389.79 94.2278 1389.21 Q96.6815 1388.63 98.7185 1388.63 Q104.089 1388.63 107.283 1391.32 Q110.478 1394 110.478 1398.49 Q110.478 1400.62 109.668 1402.54 Q108.881 1404.44 106.774 1407.03 Q106.195 1407.71 103.094 1410.92 Q99.9917 1414.12 94.3436 1419.88 Z" fill="#000000" fill-rule="evenodd" fill-opacity="1" /><path clip-path="url(#clip130)" d="M120.478 1417.94 L125.362 1417.94 L125.362 1423.82 L120.478 1423.82 L120.478 1417.94 Z" fill="#000000" fill-rule="evenodd" fill-opacity="1" /><path clip-path="url(#clip130)" d="M135.593 1389.26 L153.95 1389.26 L153.95 1393.19 L139.876 1393.19 L139.876 1401.66 Q140.894 1401.32 141.913 1401.15 Q142.931 1400.97 143.95 1400.97 Q149.737 1400.97 153.116 1404.14 Q156.496 1407.31 156.496 1412.73 Q156.496 1418.31 153.024 1421.41 Q149.552 1424.49 143.232 1424.49 Q141.056 1424.49 138.788 1424.12 Q136.542 1423.75 134.135 1423.01 L134.135 1418.31 Q136.218 1419.44 138.441 1420 Q140.663 1420.55 143.14 1420.55 Q147.144 1420.55 149.482 1418.45 Q151.82 1416.34 151.82 1412.73 Q151.82 1409.12 149.482 1407.01 Q147.144 1404.9 143.14 1404.9 Q141.265 1404.9 139.39 1405.32 Q137.538 1405.74 135.593 1406.62 L135.593 1389.26 Z" fill="#000000" fill-rule="evenodd" fill-opacity="1" /><path clip-path="url(#clip130)" d="M99.3204 1047.69 Q95.7093 1047.69 93.8806 1051.25 Q92.075 1054.79 92.075 1061.92 Q92.075 1069.03 93.8806 1072.59 Q95.7093 1076.14 99.3204 1076.14 Q102.955 1076.14 104.76 1072.59 Q106.589 1069.03 106.589 1061.92 Q106.589 1054.79 104.76 1051.25 Q102.955 1047.69 99.3204 1047.69 M99.3204 1043.98 Q105.131 1043.98 108.186 1048.59 Q111.265 1053.17 111.265 1061.92 Q111.265 1070.65 108.186 1075.26 Q105.131 1079.84 99.3204 1079.84 Q93.5102 1079.84 90.4315 1075.26 Q87.376 1070.65 87.376 1061.92 Q87.376 1053.17 90.4315 1048.59 Q93.5102 1043.98 99.3204 1043.98 Z" fill="#000000" fill-rule="evenodd" fill-opacity="1" /><path clip-path="url(#clip130)" d="M119.482 1073.29 L124.367 1073.29 L124.367 1079.17 L119.482 1079.17 L119.482 1073.29 Z" fill="#000000" fill-rule="evenodd" fill-opacity="1" /><path clip-path="url(#clip130)" d="M144.552 1047.69 Q140.941 1047.69 139.112 1051.25 Q137.306 1054.79 137.306 1061.92 Q137.306 1069.03 139.112 1072.59 Q140.941 1076.14 144.552 1076.14 Q148.186 1076.14 149.991 1072.59 Q151.82 1069.03 151.82 1061.92 Q151.82 1054.79 149.991 1051.25 Q148.186 1047.69 144.552 1047.69 M144.552 1043.98 Q150.362 1043.98 153.417 1048.59 Q156.496 1053.17 156.496 1061.92 Q156.496 1070.65 153.417 1075.26 Q150.362 1079.84 144.552 1079.84 Q138.741 1079.84 135.663 1075.26 Q132.607 1070.65 132.607 1061.92 Q132.607 1053.17 135.663 1048.59 Q138.741 1043.98 144.552 1043.98 Z" fill="#000000" fill-rule="evenodd" fill-opacity="1" /><path clip-path="url(#clip130)" d="M94.3436 730.585 L110.663 730.585 L110.663 734.52 L88.7186 734.52 L88.7186 730.585 Q91.3806 727.83 95.9639 723.2 Q100.57 718.548 101.751 717.205 Q103.996 714.682 104.876 712.946 Q105.779 711.186 105.779 709.497 Q105.779 706.742 103.834 705.006 Q101.913 703.27 98.8111 703.27 Q96.6121 703.27 94.1584 704.034 Q91.7278 704.798 88.9501 706.349 L88.9501 701.626 Q91.7741 700.492 94.2278 699.913 Q96.6815 699.335 98.7185 699.335 Q104.089 699.335 107.283 702.02 Q110.478 704.705 110.478 709.196 Q110.478 711.325 109.668 713.247 Q108.881 715.145 106.774 717.737 Q106.195 718.409 103.094 721.626 Q99.9917 724.821 94.3436 730.585 Z" fill="#000000" fill-rule="evenodd" fill-opacity="1" /><path clip-path="url(#clip130)" d="M120.478 728.64 L125.362 728.64 L125.362 734.52 L120.478 734.52 L120.478 728.64 Z" fill="#000000" fill-rule="evenodd" fill-opacity="1" /><path clip-path="url(#clip130)" d="M135.593 699.96 L153.95 699.96 L153.95 703.895 L139.876 703.895 L139.876 712.367 Q140.894 712.02 141.913 711.858 Q142.931 711.673 143.95 711.673 Q149.737 711.673 153.116 714.844 Q156.496 718.015 156.496 723.432 Q156.496 729.01 153.024 732.112 Q149.552 735.191 143.232 735.191 Q141.056 735.191 138.788 734.821 Q136.542 734.45 134.135 733.71 L134.135 729.01 Q136.218 730.145 138.441 730.7 Q140.663 731.256 143.14 731.256 Q147.144 731.256 149.482 729.149 Q151.82 727.043 151.82 723.432 Q151.82 719.821 149.482 717.714 Q147.144 715.608 143.14 715.608 Q141.265 715.608 139.39 716.024 Q137.538 716.441 135.593 717.321 L135.593 699.96 Z" fill="#000000" fill-rule="evenodd" fill-opacity="1" /><path clip-path="url(#clip130)" d="M89.3667 355.311 L107.723 355.311 L107.723 359.246 L93.6491 359.246 L93.6491 367.719 Q94.6676 367.371 95.6861 367.209 Q96.7047 367.024 97.7232 367.024 Q103.51 367.024 106.89 370.195 Q110.269 373.367 110.269 378.783 Q110.269 384.362 106.797 387.464 Q103.325 390.543 97.0056 390.543 Q94.8297 390.543 92.5612 390.172 Q90.3158 389.802 87.9084 389.061 L87.9084 384.362 Q89.9917 385.496 92.2139 386.052 Q94.4361 386.607 96.913 386.607 Q100.918 386.607 103.256 384.501 Q105.593 382.394 105.593 378.783 Q105.593 375.172 103.256 373.066 Q100.918 370.959 96.913 370.959 Q95.038 370.959 93.163 371.376 Q91.3112 371.793 89.3667 372.672 L89.3667 355.311 Z" fill="#000000" fill-rule="evenodd" fill-opacity="1" /><path clip-path="url(#clip130)" d="M119.482 383.992 L124.367 383.992 L124.367 389.871 L119.482 389.871 L119.482 383.992 Z" fill="#000000" fill-rule="evenodd" fill-opacity="1" /><path clip-path="url(#clip130)" d="M144.552 358.39 Q140.941 358.39 139.112 361.955 Q137.306 365.496 137.306 372.626 Q137.306 379.732 139.112 383.297 Q140.941 386.839 144.552 386.839 Q148.186 386.839 149.991 383.297 Q151.82 379.732 151.82 372.626 Q151.82 365.496 149.991 361.955 Q148.186 358.39 144.552 358.39 M144.552 354.686 Q150.362 354.686 153.417 359.293 Q156.496 363.876 156.496 372.626 Q156.496 381.353 153.417 385.959 Q150.362 390.543 144.552 390.543 Q138.741 390.543 135.663 385.959 Q132.607 381.353 132.607 372.626 Q132.607 363.876 135.663 359.293 Q138.741 354.686 144.552 354.686 Z" fill="#000000" fill-rule="evenodd" fill-opacity="1" /><polyline clip-path="url(#clip132)" style="stroke:#009af9; stroke-linecap:butt; stroke-linejoin:round; stroke-width:4; stroke-opacity:1; fill:none" points="
  265.984,96.8724 269.737,107.625 273.489,118.343 277.242,129.026 280.995,139.674 315.694,236.467 350.393,330.262 385.092,421.06 419.791,508.861 461.496,610.423 
  503.201,707.655 538.463,786.484 573.724,862.219 612.028,940.98 650.331,1016.09 685.644,1082.1 720.956,1145 758.815,1208.99 796.674,1269.41 818.606,1302.78 
  840.537,1334.95 862.469,1365.93 884.4,1395.7 923.381,1445.67 962.361,1491.86 996.543,1529.25 1030.73,1563.73 1067.99,1598 1105.26,1628.82 1142.75,1656.34 
  1180.24,1680.35 1221.69,1702.83 1263.14,1721.03 1302.58,1734.37 1342.01,1743.85 1383.02,1749.59 1424.03,1751.15 1458.55,1749.22 1493.06,1744.32 1514.14,1739.87 
  1535.21,1734.31 1556.28,1727.65 1577.35,1719.89 1615.96,1702.79 1654.56,1681.98 1690.22,1659.47 1725.87,1633.79 1761.99,1604.56 1798.11,1572.07 1838.59,1531.81 
  1879.07,1487.46 1915.75,1443.75 1952.43,1396.7 1973.42,1368.25 1994.42,1338.71 2015.42,1308.06 2036.42,1276.32 2075.3,1214.65 2114.19,1149.21 2152.52,1081.01 
  2190.86,1009.15 2228.08,935.885 2265.3,859.167 2303.45,776.941 2341.61,691.09 2362.51,642.524 2383.41,592.87 2404.31,542.128 2425.22,490.299 2455.58,413.07 
  2485.94,333.546 2516.31,251.727 2546.67,167.612 2552.9,150.072 2559.13,132.436 2565.36,114.702 2571.59,96.8724 
  "/>
<polyline clip-path="url(#clip132)" style="stroke:#e26f46; stroke-linecap:butt; stroke-linejoin:round; stroke-width:4; stroke-opacity:1; fill:none" points="
  265.984,1061.89 280.995,1061.89 419.791,1061.89 503.201,1061.89 573.724,1061.89 650.331,1061.89 720.956,1061.89 796.674,1061.89 884.4,1061.89 962.361,1061.89 
  1030.73,1061.89 1105.26,1061.89 1180.24,1061.89 1263.14,1061.89 1342.01,1061.89 1424.03,1061.89 1493.06,1061.89 1577.35,1061.89 1654.56,1061.89 1725.87,1061.89 
  1798.11,1061.89 1879.07,1061.89 1952.43,1061.89 2036.42,1061.89 2114.19,1061.89 2190.86,1061.89 2265.3,1061.89 2341.61,1061.89 2425.22,1061.89 2546.67,1061.89 
  2571.59,1061.89 
  "/>
<path clip-path="url(#clip130)" d="
M2235.31 261.215 L2559.29 261.215 L2559.29 105.695 L2235.31 105.695  Z
  " fill="#ffffff" fill-rule="evenodd" fill-opacity="1"/>
<polyline clip-path="url(#clip130)" style="stroke:#000000; stroke-linecap:butt; stroke-linejoin:round; stroke-width:4; stroke-opacity:1; fill:none" points="
  2235.31,261.215 2559.29,261.215 2559.29,105.695 2235.31,105.695 2235.31,261.215 
  "/>
<polyline clip-path="url(#clip130)" style="stroke:#009af9; stroke-linecap:butt; stroke-linejoin:round; stroke-width:4; stroke-opacity:1; fill:none" points="
  2262.47,157.535 2425.4,157.535 
  "/>
<path clip-path="url(#clip130)" d="M2466.39 177.223 Q2464.59 181.852 2462.88 183.264 Q2461.16 184.676 2458.29 184.676 L2454.89 184.676 L2454.89 181.112 L2457.39 181.112 Q2459.15 181.112 2460.12 180.278 Q2461.09 179.445 2462.27 176.343 L2463.04 174.399 L2452.55 148.889 L2457.07 148.889 L2465.17 169.167 L2473.27 148.889 L2477.78 148.889 L2466.39 177.223 Z" fill="#000000" fill-rule="evenodd" fill-opacity="1" /><path clip-path="url(#clip130)" d="M2485.07 170.88 L2492.71 170.88 L2492.71 144.515 L2484.4 146.181 L2484.4 141.922 L2492.67 140.255 L2497.34 140.255 L2497.34 170.88 L2504.98 170.88 L2504.98 174.815 L2485.07 174.815 L2485.07 170.88 Z" fill="#000000" fill-rule="evenodd" fill-opacity="1" /><polyline clip-path="url(#clip130)" style="stroke:#e26f46; stroke-linecap:butt; stroke-linejoin:round; stroke-width:4; stroke-opacity:1; fill:none" points="
  2262.47,209.375 2425.4,209.375 
  "/>
<path clip-path="url(#clip130)" d="M2466.39 229.063 Q2464.59 233.692 2462.88 235.104 Q2461.16 236.516 2458.29 236.516 L2454.89 236.516 L2454.89 232.952 L2457.39 232.952 Q2459.15 232.952 2460.12 232.118 Q2461.09 231.285 2462.27 228.183 L2463.04 226.239 L2452.55 200.729 L2457.07 200.729 L2465.17 221.007 L2473.27 200.729 L2477.78 200.729 L2466.39 229.063 Z" fill="#000000" fill-rule="evenodd" fill-opacity="1" /><path clip-path="url(#clip130)" d="M2488.29 222.72 L2504.61 222.72 L2504.61 226.655 L2482.67 226.655 L2482.67 222.72 Q2485.33 219.965 2489.91 215.336 Q2494.52 210.683 2495.7 209.341 Q2497.94 206.817 2498.82 205.081 Q2499.73 203.322 2499.73 201.632 Q2499.73 198.878 2497.78 197.142 Q2495.86 195.405 2492.76 195.405 Q2490.56 195.405 2488.11 196.169 Q2485.68 196.933 2482.9 198.484 L2482.9 193.762 Q2485.72 192.628 2488.18 192.049 Q2490.63 191.47 2492.67 191.47 Q2498.04 191.47 2501.23 194.155 Q2504.43 196.841 2504.43 201.331 Q2504.43 203.461 2503.62 205.382 Q2502.83 207.28 2500.72 209.873 Q2500.14 210.544 2497.04 213.762 Q2493.94 216.956 2488.29 222.72 Z" fill="#000000" fill-rule="evenodd" fill-opacity="1" /></svg>
