<?xml version="1.0" encoding="utf-8"?>
<svg xmlns="http://www.w3.org/2000/svg" xmlns:xlink="http://www.w3.org/1999/xlink" width="672" height="480" viewBox="0 0 2688 1920">
<defs>
  <clipPath id="clip210">
    <rect x="0" y="0" width="2688" height="1920"/>
  </clipPath>
</defs>
<path clip-path="url(#clip210)" d="
M0 1920 L2688 1920 L2688 0 L0 0  Z
  " fill="#ffffff" fill-rule="evenodd" fill-opacity="1"/>
<defs>
  <clipPath id="clip211">
    <rect x="537" y="0" width="1883" height="1883"/>
  </clipPath>
</defs>
<path clip-path="url(#clip210)" d="
M196.816 1800.78 L2640.76 1800.78 L2640.76 47.2441 L196.816 47.2441  Z
  " fill="#ffffff" fill-rule="evenodd" fill-opacity="1"/>
<defs>
  <clipPath id="clip212">
    <rect x="196" y="47" width="2445" height="1755"/>
  </clipPath>
</defs>
<polyline clip-path="url(#clip212)" style="stroke:#000000; stroke-linecap:butt; stroke-linejoin:round; stroke-width:2; stroke-opacity:0.1; fill:none" points="
  265.984,1800.78 265.984,47.2441 
  "/>
<polyline clip-path="url(#clip212)" style="stroke:#000000; stroke-linecap:butt; stroke-linejoin:round; stroke-width:2; stroke-opacity:0.1; fill:none" points="
  986.485,1800.78 986.485,47.2441 
  "/>
<polyline clip-path="url(#clip212)" style="stroke:#000000; stroke-linecap:butt; stroke-linejoin:round; stroke-width:2; stroke-opacity:0.1; fill:none" points="
  1706.99,1800.78 1706.99,47.2441 
  "/>
<polyline clip-path="url(#clip212)" style="stroke:#000000; stroke-linecap:butt; stroke-linejoin:round; stroke-width:2; stroke-opacity:0.1; fill:none" points="
  2427.49,1800.78 2427.49,47.2441 
  "/>
<polyline clip-path="url(#clip210)" style="stroke:#000000; stroke-linecap:butt; stroke-linejoin:round; stroke-width:4; stroke-opacity:1; fill:none" points="
  196.816,1800.78 2640.76,1800.78 
  "/>
<polyline clip-path="url(#clip210)" style="stroke:#000000; stroke-linecap:butt; stroke-linejoin:round; stroke-width:4; stroke-opacity:1; fill:none" points="
  265.984,1800.78 265.984,1781.88 
  "/>
<polyline clip-path="url(#clip210)" style="stroke:#000000; stroke-linecap:butt; stroke-linejoin:round; stroke-width:4; stroke-opacity:1; fill:none" points="
  986.485,1800.78 986.485,1781.88 
  "/>
<polyline clip-path="url(#clip210)" style="stroke:#000000; stroke-linecap:butt; stroke-linejoin:round; stroke-width:4; stroke-opacity:1; fill:none" points="
  1706.99,1800.78 1706.99,1781.88 
  "/>
<polyline clip-path="url(#clip210)" style="stroke:#000000; stroke-linecap:butt; stroke-linejoin:round; stroke-width:4; stroke-opacity:1; fill:none" points="
  2427.49,1800.78 2427.49,1781.88 
  "/>
<path clip-path="url(#clip210)" d="M243.866 1834 Q240.255 1834 238.426 1837.57 Q236.621 1841.11 236.621 1848.24 Q236.621 1855.34 238.426 1858.91 Q240.255 1862.45 243.866 1862.45 Q247.5 1862.45 249.306 1858.91 Q251.135 1855.34 251.135 1848.24 Q251.135 1841.11 249.306 1837.57 Q247.5 1834 243.866 1834 M243.866 1830.3 Q249.676 1830.3 252.732 1834.9 Q255.811 1839.49 255.811 1848.24 Q255.811 1856.96 252.732 1861.57 Q249.676 1866.15 243.866 1866.15 Q238.056 1866.15 234.977 1861.57 Q231.922 1856.96 231.922 1848.24 Q231.922 1839.49 234.977 1834.9 Q238.056 1830.3 243.866 1830.3 Z" fill="#000000" fill-rule="evenodd" fill-opacity="1" /><path clip-path="url(#clip210)" d="M264.028 1859.6 L268.912 1859.6 L268.912 1865.48 L264.028 1865.48 L264.028 1859.6 Z" fill="#000000" fill-rule="evenodd" fill-opacity="1" /><path clip-path="url(#clip210)" d="M279.144 1830.92 L297.5 1830.92 L297.5 1834.86 L283.426 1834.86 L283.426 1843.33 Q284.445 1842.98 285.463 1842.82 Q286.482 1842.64 287.5 1842.64 Q293.287 1842.64 296.667 1845.81 Q300.046 1848.98 300.046 1854.4 Q300.046 1859.97 296.574 1863.08 Q293.102 1866.15 286.783 1866.15 Q284.607 1866.15 282.338 1865.78 Q280.093 1865.41 277.685 1864.67 L277.685 1859.97 Q279.769 1861.11 281.991 1861.66 Q284.213 1862.22 286.69 1862.22 Q290.695 1862.22 293.033 1860.11 Q295.371 1858.01 295.371 1854.4 Q295.371 1850.78 293.033 1848.68 Q290.695 1846.57 286.69 1846.57 Q284.815 1846.57 282.94 1846.99 Q281.088 1847.4 279.144 1848.28 L279.144 1830.92 Z" fill="#000000" fill-rule="evenodd" fill-opacity="1" /><path clip-path="url(#clip210)" d="M953.638 1861.55 L961.277 1861.55 L961.277 1835.18 L952.967 1836.85 L952.967 1832.59 L961.231 1830.92 L965.907 1830.92 L965.907 1861.55 L973.546 1861.55 L973.546 1865.48 L953.638 1865.48 L953.638 1861.55 Z" fill="#000000" fill-rule="evenodd" fill-opacity="1" /><path clip-path="url(#clip210)" d="M982.99 1859.6 L987.874 1859.6 L987.874 1865.48 L982.99 1865.48 L982.99 1859.6 Z" fill="#000000" fill-rule="evenodd" fill-opacity="1" /><path clip-path="url(#clip210)" d="M1008.06 1834 Q1004.45 1834 1002.62 1837.57 Q1000.81 1841.11 1000.81 1848.24 Q1000.81 1855.34 1002.62 1858.91 Q1004.45 1862.45 1008.06 1862.45 Q1011.69 1862.45 1013.5 1858.91 Q1015.33 1855.34 1015.33 1848.24 Q1015.33 1841.11 1013.5 1837.57 Q1011.69 1834 1008.06 1834 M1008.06 1830.3 Q1013.87 1830.3 1016.92 1834.9 Q1020 1839.49 1020 1848.24 Q1020 1856.96 1016.92 1861.57 Q1013.87 1866.15 1008.06 1866.15 Q1002.25 1866.15 999.17 1861.57 Q996.115 1856.96 996.115 1848.24 Q996.115 1839.49 999.17 1834.9 Q1002.25 1830.3 1008.06 1830.3 Z" fill="#000000" fill-rule="evenodd" fill-opacity="1" /><path clip-path="url(#clip210)" d="M1674.64 1861.55 L1682.28 1861.55 L1682.28 1835.18 L1673.97 1836.85 L1673.97 1832.59 L1682.23 1830.92 L1686.91 1830.92 L1686.91 1861.55 L1694.54 1861.55 L1694.54 1865.48 L1674.64 1865.48 L1674.64 1861.55 Z" fill="#000000" fill-rule="evenodd" fill-opacity="1" /><path clip-path="url(#clip210)" d="M1703.99 1859.6 L1708.87 1859.6 L1708.87 1865.48 L1703.99 1865.48 L1703.99 1859.6 Z" fill="#000000" fill-rule="evenodd" fill-opacity="1" /><path clip-path="url(#clip210)" d="M1719.1 1830.92 L1737.46 1830.92 L1737.46 1834.86 L1723.39 1834.86 L1723.39 1843.33 Q1724.41 1842.98 1725.42 1842.82 Q1726.44 1842.64 1727.46 1842.64 Q1733.25 1842.64 1736.63 1845.81 Q1740.01 1848.98 1740.01 1854.4 Q1740.01 1859.97 1736.53 1863.08 Q1733.06 1866.15 1726.74 1866.15 Q1724.57 1866.15 1722.3 1865.78 Q1720.05 1865.41 1717.65 1864.67 L1717.65 1859.97 Q1719.73 1861.11 1721.95 1861.66 Q1724.17 1862.22 1726.65 1862.22 Q1730.66 1862.22 1732.99 1860.11 Q1735.33 1858.01 1735.33 1854.4 Q1735.33 1850.78 1732.99 1848.68 Q1730.66 1846.57 1726.65 1846.57 Q1724.78 1846.57 1722.9 1846.99 Q1721.05 1847.4 1719.1 1848.28 L1719.1 1830.92 Z" fill="#000000" fill-rule="evenodd" fill-opacity="1" /><path clip-path="url(#clip210)" d="M2398.73 1861.55 L2415.05 1861.55 L2415.05 1865.48 L2393.1 1865.48 L2393.1 1861.55 Q2395.76 1858.79 2400.35 1854.16 Q2404.95 1849.51 2406.13 1848.17 Q2408.38 1845.65 2409.26 1843.91 Q2410.16 1842.15 2410.16 1840.46 Q2410.16 1837.71 2408.22 1835.97 Q2406.3 1834.23 2403.19 1834.23 Q2400.99 1834.23 2398.54 1835 Q2396.11 1835.76 2393.33 1837.31 L2393.33 1832.59 Q2396.16 1831.46 2398.61 1830.88 Q2401.06 1830.3 2403.1 1830.3 Q2408.47 1830.3 2411.67 1832.98 Q2414.86 1835.67 2414.86 1840.16 Q2414.86 1842.29 2414.05 1844.21 Q2413.26 1846.11 2411.16 1848.7 Q2410.58 1849.37 2407.48 1852.59 Q2404.37 1855.78 2398.73 1861.55 Z" fill="#000000" fill-rule="evenodd" fill-opacity="1" /><path clip-path="url(#clip210)" d="M2424.86 1859.6 L2429.74 1859.6 L2429.74 1865.48 L2424.86 1865.48 L2424.86 1859.6 Z" fill="#000000" fill-rule="evenodd" fill-opacity="1" /><path clip-path="url(#clip210)" d="M2449.93 1834 Q2446.32 1834 2444.49 1837.57 Q2442.68 1841.11 2442.68 1848.24 Q2442.68 1855.34 2444.49 1858.91 Q2446.32 1862.45 2449.93 1862.45 Q2453.56 1862.45 2455.37 1858.91 Q2457.2 1855.34 2457.2 1848.24 Q2457.2 1841.11 2455.37 1837.57 Q2453.56 1834 2449.93 1834 M2449.93 1830.3 Q2455.74 1830.3 2458.8 1834.9 Q2461.87 1839.49 2461.87 1848.24 Q2461.87 1856.96 2458.8 1861.57 Q2455.74 1866.15 2449.93 1866.15 Q2444.12 1866.15 2441.04 1861.57 Q2437.99 1856.96 2437.99 1848.24 Q2437.99 1839.49 2441.04 1834.9 Q2444.12 1830.3 2449.93 1830.3 Z" fill="#000000" fill-rule="evenodd" fill-opacity="1" /><polyline clip-path="url(#clip212)" style="stroke:#000000; stroke-linecap:butt; stroke-linejoin:round; stroke-width:2; stroke-opacity:0.1; fill:none" points="
  196.816,1682.01 2640.76,1682.01 
  "/>
<polyline clip-path="url(#clip212)" style="stroke:#000000; stroke-linecap:butt; stroke-linejoin:round; stroke-width:2; stroke-opacity:0.1; fill:none" points="
  196.816,1329.12 2640.76,1329.12 
  "/>
<polyline clip-path="url(#clip212)" style="stroke:#000000; stroke-linecap:butt; stroke-linejoin:round; stroke-width:2; stroke-opacity:0.1; fill:none" points="
  196.816,976.227 2640.76,976.227 
  "/>
<polyline clip-path="url(#clip212)" style="stroke:#000000; stroke-linecap:butt; stroke-linejoin:round; stroke-width:2; stroke-opacity:0.1; fill:none" points="
  196.816,623.334 2640.76,623.334 
  "/>
<polyline clip-path="url(#clip212)" style="stroke:#000000; stroke-linecap:butt; stroke-linejoin:round; stroke-width:2; stroke-opacity:0.1; fill:none" points="
  196.816,270.442 2640.76,270.442 
  "/>
<polyline clip-path="url(#clip210)" style="stroke:#000000; stroke-linecap:butt; stroke-linejoin:round; stroke-width:4; stroke-opacity:1; fill:none" points="
  196.816,1800.78 196.816,47.2441 
  "/>
<polyline clip-path="url(#clip210)" style="stroke:#000000; stroke-linecap:butt; stroke-linejoin:round; stroke-width:4; stroke-opacity:1; fill:none" points="
  196.816,1682.01 215.714,1682.01 
  "/>
<polyline clip-path="url(#clip210)" style="stroke:#000000; stroke-linecap:butt; stroke-linejoin:round; stroke-width:4; stroke-opacity:1; fill:none" points="
  196.816,1329.12 215.714,1329.12 
  "/>
<polyline clip-path="url(#clip210)" style="stroke:#000000; stroke-linecap:butt; stroke-linejoin:round; stroke-width:4; stroke-opacity:1; fill:none" points="
  196.816,976.227 215.714,976.227 
  "/>
<polyline clip-path="url(#clip210)" style="stroke:#000000; stroke-linecap:butt; stroke-linejoin:round; stroke-width:4; stroke-opacity:1; fill:none" points="
  196.816,623.334 215.714,623.334 
  "/>
<polyline clip-path="url(#clip210)" style="stroke:#000000; stroke-linecap:butt; stroke-linejoin:round; stroke-width:4; stroke-opacity:1; fill:none" points="
  196.816,270.442 215.714,270.442 
  "/>
<path clip-path="url(#clip210)" d="M50.5475 1682.46 L80.2233 1682.46 L80.2233 1686.4 L50.5475 1686.4 L50.5475 1682.46 Z" fill="#000000" fill-rule="evenodd" fill-opacity="1" /><path clip-path="url(#clip210)" d="M91.126 1695.36 L98.7648 1695.36 L98.7648 1668.99 L90.4547 1670.66 L90.4547 1666.4 L98.7185 1664.73 L103.394 1664.73 L103.394 1695.36 L111.033 1695.36 L111.033 1699.29 L91.126 1699.29 L91.126 1695.36 Z" fill="#000000" fill-rule="evenodd" fill-opacity="1" /><path clip-path="url(#clip210)" d="M120.478 1693.41 L125.362 1693.41 L125.362 1699.29 L120.478 1699.29 L120.478 1693.41 Z" fill="#000000" fill-rule="evenodd" fill-opacity="1" /><path clip-path="url(#clip210)" d="M135.593 1664.73 L153.95 1664.73 L153.95 1668.67 L139.876 1668.67 L139.876 1677.14 Q140.894 1676.79 141.913 1676.63 Q142.931 1676.45 143.95 1676.45 Q149.737 1676.45 153.116 1679.62 Q156.496 1682.79 156.496 1688.2 Q156.496 1693.78 153.024 1696.88 Q149.552 1699.96 143.232 1699.96 Q141.056 1699.96 138.788 1699.59 Q136.542 1699.22 134.135 1698.48 L134.135 1693.78 Q136.218 1694.92 138.441 1695.47 Q140.663 1696.03 143.14 1696.03 Q147.144 1696.03 149.482 1693.92 Q151.82 1691.82 151.82 1688.2 Q151.82 1684.59 149.482 1682.49 Q147.144 1680.38 143.14 1680.38 Q141.265 1680.38 139.39 1680.8 Q137.538 1681.21 135.593 1682.09 L135.593 1664.73 Z" fill="#000000" fill-rule="evenodd" fill-opacity="1" /><path clip-path="url(#clip210)" d="M49.5521 1329.57 L79.2279 1329.57 L79.2279 1333.51 L49.5521 1333.51 L49.5521 1329.57 Z" fill="#000000" fill-rule="evenodd" fill-opacity="1" /><path clip-path="url(#clip210)" d="M90.1306 1342.46 L97.7695 1342.46 L97.7695 1316.1 L89.4593 1317.77 L89.4593 1313.51 L97.7232 1311.84 L102.399 1311.84 L102.399 1342.46 L110.038 1342.46 L110.038 1346.4 L90.1306 1346.4 L90.1306 1342.46 Z" fill="#000000" fill-rule="evenodd" fill-opacity="1" /><path clip-path="url(#clip210)" d="M119.482 1340.52 L124.367 1340.52 L124.367 1346.4 L119.482 1346.4 L119.482 1340.52 Z" fill="#000000" fill-rule="evenodd" fill-opacity="1" /><path clip-path="url(#clip210)" d="M144.552 1314.92 Q140.941 1314.92 139.112 1318.48 Q137.306 1322.02 137.306 1329.15 Q137.306 1336.26 139.112 1339.83 Q140.941 1343.37 144.552 1343.37 Q148.186 1343.37 149.991 1339.83 Q151.82 1336.26 151.82 1329.15 Q151.82 1322.02 149.991 1318.48 Q148.186 1314.92 144.552 1314.92 M144.552 1311.21 Q150.362 1311.21 153.417 1315.82 Q156.496 1320.4 156.496 1329.15 Q156.496 1337.88 153.417 1342.49 Q150.362 1347.07 144.552 1347.07 Q138.741 1347.07 135.663 1342.49 Q132.607 1337.88 132.607 1329.15 Q132.607 1320.4 135.663 1315.82 Q138.741 1311.21 144.552 1311.21 Z" fill="#000000" fill-rule="evenodd" fill-opacity="1" /><path clip-path="url(#clip210)" d="M50.5475 976.678 L80.2233 976.678 L80.2233 980.614 L50.5475 980.614 L50.5475 976.678 Z" fill="#000000" fill-rule="evenodd" fill-opacity="1" /><path clip-path="url(#clip210)" d="M100.316 962.026 Q96.7047 962.026 94.876 965.59 Q93.0704 969.132 93.0704 976.262 Q93.0704 983.368 94.876 986.933 Q96.7047 990.475 100.316 990.475 Q103.95 990.475 105.756 986.933 Q107.584 983.368 107.584 976.262 Q107.584 969.132 105.756 965.59 Q103.95 962.026 100.316 962.026 M100.316 958.322 Q106.126 958.322 109.181 962.928 Q112.26 967.512 112.26 976.262 Q112.26 984.989 109.181 989.595 Q106.126 994.178 100.316 994.178 Q94.5056 994.178 91.4269 989.595 Q88.3714 984.989 88.3714 976.262 Q88.3714 967.512 91.4269 962.928 Q94.5056 958.322 100.316 958.322 Z" fill="#000000" fill-rule="evenodd" fill-opacity="1" /><path clip-path="url(#clip210)" d="M120.478 987.627 L125.362 987.627 L125.362 993.507 L120.478 993.507 L120.478 987.627 Z" fill="#000000" fill-rule="evenodd" fill-opacity="1" /><path clip-path="url(#clip210)" d="M135.593 958.947 L153.95 958.947 L153.95 962.882 L139.876 962.882 L139.876 971.354 Q140.894 971.007 141.913 970.845 Q142.931 970.66 143.95 970.66 Q149.737 970.66 153.116 973.831 Q156.496 977.002 156.496 982.419 Q156.496 987.998 153.024 991.1 Q149.552 994.178 143.232 994.178 Q141.056 994.178 138.788 993.808 Q136.542 993.438 134.135 992.697 L134.135 987.998 Q136.218 989.132 138.441 989.688 Q140.663 990.243 143.14 990.243 Q147.144 990.243 149.482 988.137 Q151.82 986.03 151.82 982.419 Q151.82 978.808 149.482 976.702 Q147.144 974.595 143.14 974.595 Q141.265 974.595 139.39 975.012 Q137.538 975.428 135.593 976.308 L135.593 958.947 Z" fill="#000000" fill-rule="evenodd" fill-opacity="1" /><path clip-path="url(#clip210)" d="M99.3204 609.133 Q95.7093 609.133 93.8806 612.698 Q92.075 616.239 92.075 623.369 Q92.075 630.476 93.8806 634.04 Q95.7093 637.582 99.3204 637.582 Q102.955 637.582 104.76 634.04 Q106.589 630.476 106.589 623.369 Q106.589 616.239 104.76 612.698 Q102.955 609.133 99.3204 609.133 M99.3204 605.429 Q105.131 605.429 108.186 610.036 Q111.265 614.619 111.265 623.369 Q111.265 632.096 108.186 636.702 Q105.131 641.286 99.3204 641.286 Q93.5102 641.286 90.4315 636.702 Q87.376 632.096 87.376 623.369 Q87.376 614.619 90.4315 610.036 Q93.5102 605.429 99.3204 605.429 Z" fill="#000000" fill-rule="evenodd" fill-opacity="1" /><path clip-path="url(#clip210)" d="M119.482 634.735 L124.367 634.735 L124.367 640.614 L119.482 640.614 L119.482 634.735 Z" fill="#000000" fill-rule="evenodd" fill-opacity="1" /><path clip-path="url(#clip210)" d="M144.552 609.133 Q140.941 609.133 139.112 612.698 Q137.306 616.239 137.306 623.369 Q137.306 630.476 139.112 634.04 Q140.941 637.582 144.552 637.582 Q148.186 637.582 149.991 634.04 Q151.82 630.476 151.82 623.369 Q151.82 616.239 149.991 612.698 Q148.186 609.133 144.552 609.133 M144.552 605.429 Q150.362 605.429 153.417 610.036 Q156.496 614.619 156.496 623.369 Q156.496 632.096 153.417 636.702 Q150.362 641.286 144.552 641.286 Q138.741 641.286 135.663 636.702 Q132.607 632.096 132.607 623.369 Q132.607 614.619 135.663 610.036 Q138.741 605.429 144.552 605.429 Z" fill="#000000" fill-rule="evenodd" fill-opacity="1" /><path clip-path="url(#clip210)" d="M100.316 256.24 Q96.7047 256.24 94.876 259.805 Q93.0704 263.347 93.0704 270.476 Q93.0704 277.583 94.876 281.148 Q96.7047 284.689 100.316 284.689 Q103.95 284.689 105.756 281.148 Q107.584 277.583 107.584 270.476 Q107.584 263.347 105.756 259.805 Q103.95 256.24 100.316 256.24 M100.316 252.537 Q106.126 252.537 109.181 257.143 Q112.26 261.726 112.26 270.476 Q112.26 279.203 109.181 283.81 Q106.126 288.393 100.316 288.393 Q94.5056 288.393 91.4269 283.81 Q88.3714 279.203 88.3714 270.476 Q88.3714 261.726 91.4269 257.143 Q94.5056 252.537 100.316 252.537 Z" fill="#000000" fill-rule="evenodd" fill-opacity="1" /><path clip-path="url(#clip210)" d="M120.478 281.842 L125.362 281.842 L125.362 287.722 L120.478 287.722 L120.478 281.842 Z" fill="#000000" fill-rule="evenodd" fill-opacity="1" /><path clip-path="url(#clip210)" d="M135.593 253.162 L153.95 253.162 L153.95 257.097 L139.876 257.097 L139.876 265.569 Q140.894 265.222 141.913 265.06 Q142.931 264.875 143.95 264.875 Q149.737 264.875 153.116 268.046 Q156.496 271.217 156.496 276.634 Q156.496 282.212 153.024 285.314 Q149.552 288.393 143.232 288.393 Q141.056 288.393 138.788 288.023 Q136.542 287.652 134.135 286.912 L134.135 282.212 Q136.218 283.347 138.441 283.902 Q140.663 284.458 143.14 284.458 Q147.144 284.458 149.482 282.351 Q151.82 280.245 151.82 276.634 Q151.82 273.023 149.482 270.916 Q147.144 268.81 143.14 268.81 Q141.265 268.81 139.39 269.226 Q137.538 269.643 135.593 270.523 L135.593 253.162 Z" fill="#000000" fill-rule="evenodd" fill-opacity="1" /><polyline clip-path="url(#clip212)" style="stroke:#009af9; stroke-linecap:butt; stroke-linejoin:round; stroke-width:4; stroke-opacity:1; fill:none" points="
  265.984,1205.59 269.737,1209.23 273.489,1212.85 277.242,1216.46 280.995,1220.04 315.694,1252.16 350.393,1282.29 385.092,1310.25 419.791,1335.87 440.643,1350.08 
  461.496,1363.37 482.349,1375.71 503.201,1387.09 538.463,1404.08 573.724,1418.2 612.028,1430.26 650.331,1438.87 685.644,1443.77 720.956,1445.78 758.815,1444.78 
  796.674,1440.58 818.606,1436.72 840.537,1431.85 862.469,1425.98 884.4,1419.13 923.381,1404.64 962.361,1387.3 996.543,1369.88 1030.73,1350.51 1067.99,1327.3 
  1105.26,1302.07 1142.75,1274.8 1180.24,1245.81 1221.69,1211.94 1263.14,1176.38 1302.58,1141.16 1342.01,1104.79 1424.03,1026.23 1493.06,957.949 1577.35,873.226 
  1654.56,795.434 1725.87,724.307 1798.11,653.674 1879.07,576.964 1952.43,510.278 1994.42,473.498 2036.42,437.824 2075.3,405.835 2114.19,374.89 2152.52,345.441 
  2190.86,317.072 2228.08,290.585 2265.3,265.156 2303.45,240.201 2341.61,216.38 2383.41,191.592 2425.22,168.173 2485.94,136.586 2546.67,107.849 2559.13,102.302 
  2571.59,96.8724 
  "/>
<polyline clip-path="url(#clip212)" style="stroke:#e26f46; stroke-linecap:butt; stroke-linejoin:round; stroke-width:4; stroke-opacity:1; fill:none" points="
  265.984,623.334 280.995,623.334 419.791,623.334 503.201,623.334 573.724,623.334 650.331,623.334 720.956,623.334 796.674,623.334 884.4,623.334 962.361,623.334 
  1030.73,623.334 1105.26,623.334 1180.24,623.334 1263.14,623.334 1342.01,623.334 1424.03,623.334 1493.06,623.334 1577.35,623.334 1654.56,623.334 1725.87,623.334 
  1798.11,623.334 1879.07,623.334 1952.43,623.334 2036.42,623.334 2114.19,623.334 2190.86,623.334 2265.3,623.334 2341.61,623.334 2425.22,623.334 2546.67,623.334 
  2571.59,623.334 
  "/>
<polyline clip-path="url(#clip212)" style="stroke:#3da44d; stroke-linecap:butt; stroke-linejoin:round; stroke-width:4; stroke-opacity:1; fill:none" points="
  265.984,1751.15 280.995,1743.32 419.791,1670.9 503.201,1627.38 573.724,1590.58 650.331,1550.61 720.956,1513.76 796.674,1474.25 884.4,1428.48 962.361,1387.8 
  1030.73,1352.13 1105.26,1313.24 1180.24,1274.12 1263.14,1230.86 1342.01,1189.71 1424.03,1146.91 1493.06,1110.89 1577.35,1066.91 1654.56,1026.63 1725.87,989.418 
  1798.11,951.727 1879.07,909.487 1952.43,871.21 2036.42,827.385 2114.19,786.807 2190.86,746.803 2265.3,707.961 2341.61,668.144 2425.22,624.519 2546.67,561.147 
  2571.59,548.147 
  "/>
</svg>
