<?xml version="1.0" encoding="utf-8"?>
<svg xmlns="http://www.w3.org/2000/svg" xmlns:xlink="http://www.w3.org/1999/xlink" width="672" height="480" viewBox="0 0 2688 1920">
<defs>
  <clipPath id="clip840">
    <rect x="0" y="0" width="2688" height="1920"/>
  </clipPath>
</defs>
<path clip-path="url(#clip840)" d="
M0 1920 L2688 1920 L2688 0 L0 0  Z
  " fill="#ffffff" fill-rule="evenodd" fill-opacity="1"/>
<defs>
  <clipPath id="clip841">
    <rect x="537" y="0" width="1883" height="1883"/>
  </clipPath>
</defs>
<path clip-path="url(#clip840)" d="
M242.07 1800.78 L2640.76 1800.78 L2640.76 47.2441 L242.07 47.2441  Z
  " fill="#ffffff" fill-rule="evenodd" fill-opacity="1"/>
<defs>
  <clipPath id="clip842">
    <rect x="242" y="47" width="2400" height="1755"/>
  </clipPath>
</defs>
<polyline clip-path="url(#clip842)" style="stroke:#000000; stroke-linecap:butt; stroke-linejoin:round; stroke-width:2; stroke-opacity:0.1; fill:none" points="
  309.958,1800.78 309.958,47.2441 
  "/>
<polyline clip-path="url(#clip842)" style="stroke:#000000; stroke-linecap:butt; stroke-linejoin:round; stroke-width:2; stroke-opacity:0.1; fill:none" points="
  875.685,1800.78 875.685,47.2441 
  "/>
<polyline clip-path="url(#clip842)" style="stroke:#000000; stroke-linecap:butt; stroke-linejoin:round; stroke-width:2; stroke-opacity:0.1; fill:none" points="
  1441.41,1800.78 1441.41,47.2441 
  "/>
<polyline clip-path="url(#clip842)" style="stroke:#000000; stroke-linecap:butt; stroke-linejoin:round; stroke-width:2; stroke-opacity:0.1; fill:none" points="
  2007.14,1800.78 2007.14,47.2441 
  "/>
<polyline clip-path="url(#clip842)" style="stroke:#000000; stroke-linecap:butt; stroke-linejoin:round; stroke-width:2; stroke-opacity:0.1; fill:none" points="
  2572.87,1800.78 2572.87,47.2441 
  "/>
<polyline clip-path="url(#clip840)" style="stroke:#000000; stroke-linecap:butt; stroke-linejoin:round; stroke-width:4; stroke-opacity:1; fill:none" points="
  242.07,1800.78 2640.76,1800.78 
  "/>
<polyline clip-path="url(#clip840)" style="stroke:#000000; stroke-linecap:butt; stroke-linejoin:round; stroke-width:4; stroke-opacity:1; fill:none" points="
  309.958,1800.78 309.958,1781.88 
  "/>
<polyline clip-path="url(#clip840)" style="stroke:#000000; stroke-linecap:butt; stroke-linejoin:round; stroke-width:4; stroke-opacity:1; fill:none" points="
  875.685,1800.78 875.685,1781.88 
  "/>
<polyline clip-path="url(#clip840)" style="stroke:#000000; stroke-linecap:butt; stroke-linejoin:round; stroke-width:4; stroke-opacity:1; fill:none" points="
  1441.41,1800.78 1441.41,1781.88 
  "/>
<polyline clip-path="url(#clip840)" style="stroke:#000000; stroke-linecap:butt; stroke-linejoin:round; stroke-width:4; stroke-opacity:1; fill:none" points="
  2007.14,1800.78 2007.14,1781.88 
  "/>
<polyline clip-path="url(#clip840)" style="stroke:#000000; stroke-linecap:butt; stroke-linejoin:round; stroke-width:4; stroke-opacity:1; fill:none" points="
  2572.87,1800.78 2572.87,1781.88 
  "/>
<path clip-path="url(#clip840)" d="M272.215 1849.07 Q268.882 1849.07 266.96 1850.85 Q265.062 1852.64 265.062 1855.76 Q265.062 1858.89 266.96 1860.67 Q268.882 1862.45 272.215 1862.45 Q275.548 1862.45 277.469 1860.67 Q279.391 1858.86 279.391 1855.76 Q279.391 1852.64 277.469 1850.85 Q275.571 1849.07 272.215 1849.07 M267.539 1847.08 Q264.53 1846.34 262.84 1844.28 Q261.173 1842.22 261.173 1839.26 Q261.173 1835.11 264.113 1832.71 Q267.076 1830.3 272.215 1830.3 Q277.377 1830.3 280.317 1832.71 Q283.256 1835.11 283.256 1839.26 Q283.256 1842.22 281.567 1844.28 Q279.9 1846.34 276.914 1847.08 Q280.294 1847.87 282.169 1850.16 Q284.067 1852.45 284.067 1855.76 Q284.067 1860.78 280.988 1863.47 Q277.932 1866.15 272.215 1866.15 Q266.497 1866.15 263.419 1863.47 Q260.363 1860.78 260.363 1855.76 Q260.363 1852.45 262.261 1850.16 Q264.159 1847.87 267.539 1847.08 M265.826 1839.7 Q265.826 1842.38 267.493 1843.89 Q269.182 1845.39 272.215 1845.39 Q275.224 1845.39 276.914 1843.89 Q278.627 1842.38 278.627 1839.7 Q278.627 1837.01 276.914 1835.51 Q275.224 1834 272.215 1834 Q269.182 1834 267.493 1835.51 Q265.826 1837.01 265.826 1839.7 Z" fill="#000000" fill-rule="evenodd" fill-opacity="1" /><path clip-path="url(#clip840)" d="M292.377 1859.6 L297.261 1859.6 L297.261 1865.48 L292.377 1865.48 L292.377 1859.6 Z" fill="#000000" fill-rule="evenodd" fill-opacity="1" /><path clip-path="url(#clip840)" d="M317.446 1834 Q313.835 1834 312.006 1837.57 Q310.201 1841.11 310.201 1848.24 Q310.201 1855.34 312.006 1858.91 Q313.835 1862.45 317.446 1862.45 Q321.08 1862.45 322.886 1858.91 Q324.715 1855.34 324.715 1848.24 Q324.715 1841.11 322.886 1837.57 Q321.08 1834 317.446 1834 M317.446 1830.3 Q323.256 1830.3 326.312 1834.9 Q329.39 1839.49 329.39 1848.24 Q329.39 1856.96 326.312 1861.57 Q323.256 1866.15 317.446 1866.15 Q311.636 1866.15 308.557 1861.57 Q305.502 1856.96 305.502 1848.24 Q305.502 1839.49 308.557 1834.9 Q311.636 1830.3 317.446 1830.3 Z" fill="#000000" fill-rule="evenodd" fill-opacity="1" /><path clip-path="url(#clip840)" d="M347.608 1834 Q343.997 1834 342.168 1837.57 Q340.363 1841.11 340.363 1848.24 Q340.363 1855.34 342.168 1858.91 Q343.997 1862.45 347.608 1862.45 Q351.242 1862.45 353.048 1858.91 Q354.876 1855.34 354.876 1848.24 Q354.876 1841.11 353.048 1837.57 Q351.242 1834 347.608 1834 M347.608 1830.3 Q353.418 1830.3 356.474 1834.9 Q359.552 1839.49 359.552 1848.24 Q359.552 1856.96 356.474 1861.57 Q353.418 1866.15 347.608 1866.15 Q341.798 1866.15 338.719 1861.57 Q335.664 1856.96 335.664 1848.24 Q335.664 1839.49 338.719 1834.9 Q341.798 1830.3 347.608 1830.3 Z" fill="#000000" fill-rule="evenodd" fill-opacity="1" /><path clip-path="url(#clip840)" d="M838.44 1849.07 Q835.107 1849.07 833.186 1850.85 Q831.288 1852.64 831.288 1855.76 Q831.288 1858.89 833.186 1860.67 Q835.107 1862.45 838.44 1862.45 Q841.774 1862.45 843.695 1860.67 Q845.616 1858.86 845.616 1855.76 Q845.616 1852.64 843.695 1850.85 Q841.797 1849.07 838.44 1849.07 M833.764 1847.08 Q830.755 1846.34 829.065 1844.28 Q827.399 1842.22 827.399 1839.26 Q827.399 1835.11 830.338 1832.71 Q833.301 1830.3 838.44 1830.3 Q843.602 1830.3 846.542 1832.71 Q849.482 1835.11 849.482 1839.26 Q849.482 1842.22 847.792 1844.28 Q846.125 1846.34 843.139 1847.08 Q846.519 1847.87 848.394 1850.16 Q850.292 1852.45 850.292 1855.76 Q850.292 1860.78 847.213 1863.47 Q844.158 1866.15 838.44 1866.15 Q832.723 1866.15 829.644 1863.47 Q826.588 1860.78 826.588 1855.76 Q826.588 1852.45 828.487 1850.16 Q830.385 1847.87 833.764 1847.08 M832.051 1839.7 Q832.051 1842.38 833.718 1843.89 Q835.408 1845.39 838.44 1845.39 Q841.45 1845.39 843.139 1843.89 Q844.852 1842.38 844.852 1839.7 Q844.852 1837.01 843.139 1835.51 Q841.45 1834 838.44 1834 Q835.408 1834 833.718 1835.51 Q832.051 1837.01 832.051 1839.7 Z" fill="#000000" fill-rule="evenodd" fill-opacity="1" /><path clip-path="url(#clip840)" d="M858.602 1859.6 L863.486 1859.6 L863.486 1865.48 L858.602 1865.48 L858.602 1859.6 Z" fill="#000000" fill-rule="evenodd" fill-opacity="1" /><path clip-path="url(#clip840)" d="M877.699 1861.55 L894.019 1861.55 L894.019 1865.48 L872.074 1865.48 L872.074 1861.55 Q874.736 1858.79 879.32 1854.16 Q883.926 1849.51 885.107 1848.17 Q887.352 1845.65 888.232 1843.91 Q889.134 1842.15 889.134 1840.46 Q889.134 1837.71 887.19 1835.97 Q885.269 1834.23 882.167 1834.23 Q879.968 1834.23 877.514 1835 Q875.084 1835.76 872.306 1837.31 L872.306 1832.59 Q875.13 1831.46 877.584 1830.88 Q880.037 1830.3 882.074 1830.3 Q887.445 1830.3 890.639 1832.98 Q893.833 1835.67 893.833 1840.16 Q893.833 1842.29 893.023 1844.21 Q892.236 1846.11 890.13 1848.7 Q889.551 1849.37 886.449 1852.59 Q883.347 1855.78 877.699 1861.55 Z" fill="#000000" fill-rule="evenodd" fill-opacity="1" /><path clip-path="url(#clip840)" d="M903.88 1830.92 L922.236 1830.92 L922.236 1834.86 L908.162 1834.86 L908.162 1843.33 Q909.181 1842.98 910.199 1842.82 Q911.218 1842.64 912.236 1842.64 Q918.023 1842.64 921.403 1845.81 Q924.782 1848.98 924.782 1854.4 Q924.782 1859.97 921.31 1863.08 Q917.838 1866.15 911.519 1866.15 Q909.343 1866.15 907.074 1865.78 Q904.829 1865.41 902.421 1864.67 L902.421 1859.97 Q904.505 1861.11 906.727 1861.66 Q908.949 1862.22 911.426 1862.22 Q915.431 1862.22 917.769 1860.11 Q920.106 1858.01 920.106 1854.4 Q920.106 1850.78 917.769 1848.68 Q915.431 1846.57 911.426 1846.57 Q909.551 1846.57 907.676 1846.99 Q905.824 1847.4 903.88 1848.28 L903.88 1830.92 Z" fill="#000000" fill-rule="evenodd" fill-opacity="1" /><path clip-path="url(#clip840)" d="M1403.67 1849.07 Q1400.34 1849.07 1398.42 1850.85 Q1396.52 1852.64 1396.52 1855.76 Q1396.52 1858.89 1398.42 1860.67 Q1400.34 1862.45 1403.67 1862.45 Q1407 1862.45 1408.92 1860.67 Q1410.85 1858.86 1410.85 1855.76 Q1410.85 1852.64 1408.92 1850.85 Q1407.03 1849.07 1403.67 1849.07 M1398.99 1847.08 Q1395.99 1846.34 1394.3 1844.28 Q1392.63 1842.22 1392.63 1839.26 Q1392.63 1835.11 1395.57 1832.71 Q1398.53 1830.3 1403.67 1830.3 Q1408.83 1830.3 1411.77 1832.71 Q1414.71 1835.11 1414.71 1839.26 Q1414.71 1842.22 1413.02 1844.28 Q1411.36 1846.34 1408.37 1847.08 Q1411.75 1847.87 1413.62 1850.16 Q1415.52 1852.45 1415.52 1855.76 Q1415.52 1860.78 1412.44 1863.47 Q1409.39 1866.15 1403.67 1866.15 Q1397.95 1866.15 1394.87 1863.47 Q1391.82 1860.78 1391.82 1855.76 Q1391.82 1852.45 1393.72 1850.16 Q1395.61 1847.87 1398.99 1847.08 M1397.28 1839.7 Q1397.28 1842.38 1398.95 1843.89 Q1400.64 1845.39 1403.67 1845.39 Q1406.68 1845.39 1408.37 1843.89 Q1410.08 1842.38 1410.08 1839.7 Q1410.08 1837.01 1408.37 1835.51 Q1406.68 1834 1403.67 1834 Q1400.64 1834 1398.95 1835.51 Q1397.28 1837.01 1397.28 1839.7 Z" fill="#000000" fill-rule="evenodd" fill-opacity="1" /><path clip-path="url(#clip840)" d="M1423.83 1859.6 L1428.72 1859.6 L1428.72 1865.48 L1423.83 1865.48 L1423.83 1859.6 Z" fill="#000000" fill-rule="evenodd" fill-opacity="1" /><path clip-path="url(#clip840)" d="M1438.95 1830.92 L1457.3 1830.92 L1457.3 1834.86 L1443.23 1834.86 L1443.23 1843.33 Q1444.25 1842.98 1445.27 1842.82 Q1446.29 1842.64 1447.3 1842.64 Q1453.09 1842.64 1456.47 1845.81 Q1459.85 1848.98 1459.85 1854.4 Q1459.85 1859.97 1456.38 1863.08 Q1452.91 1866.15 1446.59 1866.15 Q1444.41 1866.15 1442.14 1865.78 Q1439.9 1865.41 1437.49 1864.67 L1437.49 1859.97 Q1439.57 1861.11 1441.8 1861.66 Q1444.02 1862.22 1446.49 1862.22 Q1450.5 1862.22 1452.84 1860.11 Q1455.17 1858.01 1455.17 1854.4 Q1455.17 1850.78 1452.84 1848.68 Q1450.5 1846.57 1446.49 1846.57 Q1444.62 1846.57 1442.74 1846.99 Q1440.89 1847.4 1438.95 1848.28 L1438.95 1830.92 Z" fill="#000000" fill-rule="evenodd" fill-opacity="1" /><path clip-path="url(#clip840)" d="M1479.06 1834 Q1475.45 1834 1473.62 1837.57 Q1471.82 1841.11 1471.82 1848.24 Q1471.82 1855.34 1473.62 1858.91 Q1475.45 1862.45 1479.06 1862.45 Q1482.7 1862.45 1484.5 1858.91 Q1486.33 1855.34 1486.33 1848.24 Q1486.33 1841.11 1484.5 1837.57 Q1482.7 1834 1479.06 1834 M1479.06 1830.3 Q1484.87 1830.3 1487.93 1834.9 Q1491.01 1839.49 1491.01 1848.24 Q1491.01 1856.96 1487.93 1861.57 Q1484.87 1866.15 1479.06 1866.15 Q1473.25 1866.15 1470.17 1861.57 Q1467.12 1856.96 1467.12 1848.24 Q1467.12 1839.49 1470.17 1834.9 Q1473.25 1830.3 1479.06 1830.3 Z" fill="#000000" fill-rule="evenodd" fill-opacity="1" /><path clip-path="url(#clip840)" d="M1969.9 1849.07 Q1966.56 1849.07 1964.64 1850.85 Q1962.74 1852.64 1962.74 1855.76 Q1962.74 1858.89 1964.64 1860.67 Q1966.56 1862.45 1969.9 1862.45 Q1973.23 1862.45 1975.15 1860.67 Q1977.07 1858.86 1977.07 1855.76 Q1977.07 1852.64 1975.15 1850.85 Q1973.25 1849.07 1969.9 1849.07 M1965.22 1847.08 Q1962.21 1846.34 1960.52 1844.28 Q1958.85 1842.22 1958.85 1839.26 Q1958.85 1835.11 1961.79 1832.71 Q1964.76 1830.3 1969.9 1830.3 Q1975.06 1830.3 1978 1832.71 Q1980.94 1835.11 1980.94 1839.26 Q1980.94 1842.22 1979.25 1844.28 Q1977.58 1846.34 1974.59 1847.08 Q1977.97 1847.87 1979.85 1850.16 Q1981.75 1852.45 1981.75 1855.76 Q1981.75 1860.78 1978.67 1863.47 Q1975.61 1866.15 1969.9 1866.15 Q1964.18 1866.15 1961.1 1863.47 Q1958.04 1860.78 1958.04 1855.76 Q1958.04 1852.45 1959.94 1850.16 Q1961.84 1847.87 1965.22 1847.08 M1963.51 1839.7 Q1963.51 1842.38 1965.17 1843.89 Q1966.86 1845.39 1969.9 1845.39 Q1972.9 1845.39 1974.59 1843.89 Q1976.31 1842.38 1976.31 1839.7 Q1976.31 1837.01 1974.59 1835.51 Q1972.9 1834 1969.9 1834 Q1966.86 1834 1965.17 1835.51 Q1963.51 1837.01 1963.51 1839.7 Z" fill="#000000" fill-rule="evenodd" fill-opacity="1" /><path clip-path="url(#clip840)" d="M1990.06 1859.6 L1994.94 1859.6 L1994.94 1865.48 L1990.06 1865.48 L1990.06 1859.6 Z" fill="#000000" fill-rule="evenodd" fill-opacity="1" /><path clip-path="url(#clip840)" d="M2003.95 1830.92 L2026.17 1830.92 L2026.17 1832.91 L2013.62 1865.48 L2008.74 1865.48 L2020.54 1834.86 L2003.95 1834.86 L2003.95 1830.92 Z" fill="#000000" fill-rule="evenodd" fill-opacity="1" /><path clip-path="url(#clip840)" d="M2035.34 1830.92 L2053.69 1830.92 L2053.69 1834.86 L2039.62 1834.86 L2039.62 1843.33 Q2040.64 1842.98 2041.65 1842.82 Q2042.67 1842.64 2043.69 1842.64 Q2049.48 1842.64 2052.86 1845.81 Q2056.24 1848.98 2056.24 1854.4 Q2056.24 1859.97 2052.77 1863.08 Q2049.29 1866.15 2042.97 1866.15 Q2040.8 1866.15 2038.53 1865.78 Q2036.28 1865.41 2033.88 1864.67 L2033.88 1859.97 Q2035.96 1861.11 2038.18 1861.66 Q2040.4 1862.22 2042.88 1862.22 Q2046.89 1862.22 2049.22 1860.11 Q2051.56 1858.01 2051.56 1854.4 Q2051.56 1850.78 2049.22 1848.68 Q2046.89 1846.57 2042.88 1846.57 Q2041.01 1846.57 2039.13 1846.99 Q2037.28 1847.4 2035.34 1848.28 L2035.34 1830.92 Z" fill="#000000" fill-rule="evenodd" fill-opacity="1" /><path clip-path="url(#clip840)" d="M2525.38 1864.77 L2525.38 1860.51 Q2527.14 1861.34 2528.95 1861.78 Q2530.75 1862.22 2532.49 1862.22 Q2537.12 1862.22 2539.55 1859.12 Q2542 1855.99 2542.35 1849.65 Q2541.01 1851.64 2538.95 1852.71 Q2536.88 1853.77 2534.38 1853.77 Q2529.2 1853.77 2526.17 1850.65 Q2523.16 1847.5 2523.16 1842.06 Q2523.16 1836.73 2526.31 1833.52 Q2529.45 1830.3 2534.69 1830.3 Q2540.68 1830.3 2543.83 1834.9 Q2547 1839.49 2547 1848.24 Q2547 1856.41 2543.11 1861.29 Q2539.25 1866.15 2532.7 1866.15 Q2530.94 1866.15 2529.13 1865.81 Q2527.32 1865.46 2525.38 1864.77 M2534.69 1850.11 Q2537.83 1850.11 2539.66 1847.96 Q2541.51 1845.81 2541.51 1842.06 Q2541.51 1838.33 2539.66 1836.18 Q2537.83 1834 2534.69 1834 Q2531.54 1834 2529.69 1836.18 Q2527.86 1838.33 2527.86 1842.06 Q2527.86 1845.81 2529.69 1847.96 Q2531.54 1850.11 2534.69 1850.11 Z" fill="#000000" fill-rule="evenodd" fill-opacity="1" /><path clip-path="url(#clip840)" d="M2555.4 1859.6 L2560.29 1859.6 L2560.29 1865.48 L2555.4 1865.48 L2555.4 1859.6 Z" fill="#000000" fill-rule="evenodd" fill-opacity="1" /><path clip-path="url(#clip840)" d="M2580.47 1834 Q2576.86 1834 2575.03 1837.57 Q2573.23 1841.11 2573.23 1848.24 Q2573.23 1855.34 2575.03 1858.91 Q2576.86 1862.45 2580.47 1862.45 Q2584.11 1862.45 2585.91 1858.91 Q2587.74 1855.34 2587.74 1848.24 Q2587.74 1841.11 2585.91 1837.57 Q2584.11 1834 2580.47 1834 M2580.47 1830.3 Q2586.28 1830.3 2589.34 1834.9 Q2592.42 1839.49 2592.42 1848.24 Q2592.42 1856.96 2589.34 1861.57 Q2586.28 1866.15 2580.47 1866.15 Q2574.66 1866.15 2571.58 1861.57 Q2568.53 1856.96 2568.53 1848.24 Q2568.53 1839.49 2571.58 1834.9 Q2574.66 1830.3 2580.47 1830.3 Z" fill="#000000" fill-rule="evenodd" fill-opacity="1" /><path clip-path="url(#clip840)" d="M2610.63 1834 Q2607.02 1834 2605.19 1837.57 Q2603.39 1841.11 2603.39 1848.24 Q2603.39 1855.34 2605.19 1858.91 Q2607.02 1862.45 2610.63 1862.45 Q2614.27 1862.45 2616.07 1858.91 Q2617.9 1855.34 2617.9 1848.24 Q2617.9 1841.11 2616.07 1837.57 Q2614.27 1834 2610.63 1834 M2610.63 1830.3 Q2616.44 1830.3 2619.5 1834.9 Q2622.58 1839.49 2622.58 1848.24 Q2622.58 1856.96 2619.5 1861.57 Q2616.44 1866.15 2610.63 1866.15 Q2604.82 1866.15 2601.75 1861.57 Q2598.69 1856.96 2598.69 1848.24 Q2598.69 1839.49 2601.75 1834.9 Q2604.82 1830.3 2610.63 1830.3 Z" fill="#000000" fill-rule="evenodd" fill-opacity="1" /><polyline clip-path="url(#clip842)" style="stroke:#000000; stroke-linecap:butt; stroke-linejoin:round; stroke-width:2; stroke-opacity:0.1; fill:none" points="
  242.07,1679.53 2640.76,1679.53 
  "/>
<polyline clip-path="url(#clip842)" style="stroke:#000000; stroke-linecap:butt; stroke-linejoin:round; stroke-width:2; stroke-opacity:0.1; fill:none" points="
  242.07,1368.24 2640.76,1368.24 
  "/>
<polyline clip-path="url(#clip842)" style="stroke:#000000; stroke-linecap:butt; stroke-linejoin:round; stroke-width:2; stroke-opacity:0.1; fill:none" points="
  242.07,1056.95 2640.76,1056.95 
  "/>
<polyline clip-path="url(#clip842)" style="stroke:#000000; stroke-linecap:butt; stroke-linejoin:round; stroke-width:2; stroke-opacity:0.1; fill:none" points="
  242.07,745.655 2640.76,745.655 
  "/>
<polyline clip-path="url(#clip842)" style="stroke:#000000; stroke-linecap:butt; stroke-linejoin:round; stroke-width:2; stroke-opacity:0.1; fill:none" points="
  242.07,434.364 2640.76,434.364 
  "/>
<polyline clip-path="url(#clip842)" style="stroke:#000000; stroke-linecap:butt; stroke-linejoin:round; stroke-width:2; stroke-opacity:0.1; fill:none" points="
  242.07,123.073 2640.76,123.073 
  "/>
<polyline clip-path="url(#clip840)" style="stroke:#000000; stroke-linecap:butt; stroke-linejoin:round; stroke-width:4; stroke-opacity:1; fill:none" points="
  242.07,1800.78 242.07,47.2441 
  "/>
<polyline clip-path="url(#clip840)" style="stroke:#000000; stroke-linecap:butt; stroke-linejoin:round; stroke-width:4; stroke-opacity:1; fill:none" points="
  242.07,1679.53 260.968,1679.53 
  "/>
<polyline clip-path="url(#clip840)" style="stroke:#000000; stroke-linecap:butt; stroke-linejoin:round; stroke-width:4; stroke-opacity:1; fill:none" points="
  242.07,1368.24 260.968,1368.24 
  "/>
<polyline clip-path="url(#clip840)" style="stroke:#000000; stroke-linecap:butt; stroke-linejoin:round; stroke-width:4; stroke-opacity:1; fill:none" points="
  242.07,1056.95 260.968,1056.95 
  "/>
<polyline clip-path="url(#clip840)" style="stroke:#000000; stroke-linecap:butt; stroke-linejoin:round; stroke-width:4; stroke-opacity:1; fill:none" points="
  242.07,745.655 260.968,745.655 
  "/>
<polyline clip-path="url(#clip840)" style="stroke:#000000; stroke-linecap:butt; stroke-linejoin:round; stroke-width:4; stroke-opacity:1; fill:none" points="
  242.07,434.364 260.968,434.364 
  "/>
<polyline clip-path="url(#clip840)" style="stroke:#000000; stroke-linecap:butt; stroke-linejoin:round; stroke-width:4; stroke-opacity:1; fill:none" points="
  242.07,123.073 260.968,123.073 
  "/>
<path clip-path="url(#clip840)" d="M49.5521 1679.98 L79.2279 1679.98 L79.2279 1683.91 L49.5521 1683.91 L49.5521 1679.98 Z" fill="#000000" fill-rule="evenodd" fill-opacity="1" /><path clip-path="url(#clip840)" d="M90.1306 1692.87 L97.7695 1692.87 L97.7695 1666.51 L89.4593 1668.17 L89.4593 1663.91 L97.7232 1662.25 L102.399 1662.25 L102.399 1692.87 L110.038 1692.87 L110.038 1696.81 L90.1306 1696.81 L90.1306 1692.87 Z" fill="#000000" fill-rule="evenodd" fill-opacity="1" /><path clip-path="url(#clip840)" d="M129.482 1665.33 Q125.871 1665.33 124.042 1668.89 Q122.237 1672.43 122.237 1679.56 Q122.237 1686.67 124.042 1690.23 Q125.871 1693.78 129.482 1693.78 Q133.116 1693.78 134.922 1690.23 Q136.751 1686.67 136.751 1679.56 Q136.751 1672.43 134.922 1668.89 Q133.116 1665.33 129.482 1665.33 M129.482 1661.62 Q135.292 1661.62 138.348 1666.23 Q141.427 1670.81 141.427 1679.56 Q141.427 1688.29 138.348 1692.9 Q135.292 1697.48 129.482 1697.48 Q123.672 1697.48 120.593 1692.9 Q117.538 1688.29 117.538 1679.56 Q117.538 1670.81 120.593 1666.23 Q123.672 1661.62 129.482 1661.62 Z" fill="#000000" fill-rule="evenodd" fill-opacity="1" /><path clip-path="url(#clip840)" d="M159.644 1665.33 Q156.033 1665.33 154.204 1668.89 Q152.399 1672.43 152.399 1679.56 Q152.399 1686.67 154.204 1690.23 Q156.033 1693.78 159.644 1693.78 Q163.278 1693.78 165.084 1690.23 Q166.913 1686.67 166.913 1679.56 Q166.913 1672.43 165.084 1668.89 Q163.278 1665.33 159.644 1665.33 M159.644 1661.62 Q165.454 1661.62 168.51 1666.23 Q171.589 1670.81 171.589 1679.56 Q171.589 1688.29 168.51 1692.9 Q165.454 1697.48 159.644 1697.48 Q153.834 1697.48 150.755 1692.9 Q147.7 1688.29 147.7 1679.56 Q147.7 1670.81 150.755 1666.23 Q153.834 1661.62 159.644 1661.62 Z" fill="#000000" fill-rule="evenodd" fill-opacity="1" /><path clip-path="url(#clip840)" d="M189.806 1665.33 Q186.195 1665.33 184.366 1668.89 Q182.561 1672.43 182.561 1679.56 Q182.561 1686.67 184.366 1690.23 Q186.195 1693.78 189.806 1693.78 Q193.44 1693.78 195.246 1690.23 Q197.074 1686.67 197.074 1679.56 Q197.074 1672.43 195.246 1668.89 Q193.44 1665.33 189.806 1665.33 M189.806 1661.62 Q195.616 1661.62 198.672 1666.23 Q201.75 1670.81 201.75 1679.56 Q201.75 1688.29 198.672 1692.9 Q195.616 1697.48 189.806 1697.48 Q183.996 1697.48 180.917 1692.9 Q177.862 1688.29 177.862 1679.56 Q177.862 1670.81 180.917 1666.23 Q183.996 1661.62 189.806 1661.62 Z" fill="#000000" fill-rule="evenodd" fill-opacity="1" /><path clip-path="url(#clip840)" d="M79.714 1368.69 L109.39 1368.69 L109.39 1372.62 L79.714 1372.62 L79.714 1368.69 Z" fill="#000000" fill-rule="evenodd" fill-opacity="1" /><path clip-path="url(#clip840)" d="M119.529 1350.96 L137.885 1350.96 L137.885 1354.89 L123.811 1354.89 L123.811 1363.36 Q124.83 1363.02 125.848 1362.86 Q126.867 1362.67 127.885 1362.67 Q133.672 1362.67 137.052 1365.84 Q140.431 1369.01 140.431 1374.43 Q140.431 1380.01 136.959 1383.11 Q133.487 1386.19 127.167 1386.19 Q124.992 1386.19 122.723 1385.82 Q120.478 1385.45 118.07 1384.71 L118.07 1380.01 Q120.154 1381.14 122.376 1381.7 Q124.598 1382.25 127.075 1382.25 Q131.079 1382.25 133.417 1380.15 Q135.755 1378.04 135.755 1374.43 Q135.755 1370.82 133.417 1368.71 Q131.079 1366.6 127.075 1366.6 Q125.2 1366.6 123.325 1367.02 Q121.473 1367.44 119.529 1368.32 L119.529 1350.96 Z" fill="#000000" fill-rule="evenodd" fill-opacity="1" /><path clip-path="url(#clip840)" d="M159.644 1354.04 Q156.033 1354.04 154.204 1357.6 Q152.399 1361.14 152.399 1368.27 Q152.399 1375.38 154.204 1378.94 Q156.033 1382.48 159.644 1382.48 Q163.278 1382.48 165.084 1378.94 Q166.913 1375.38 166.913 1368.27 Q166.913 1361.14 165.084 1357.6 Q163.278 1354.04 159.644 1354.04 M159.644 1350.33 Q165.454 1350.33 168.51 1354.94 Q171.589 1359.52 171.589 1368.27 Q171.589 1377 168.51 1381.6 Q165.454 1386.19 159.644 1386.19 Q153.834 1386.19 150.755 1381.6 Q147.7 1377 147.7 1368.27 Q147.7 1359.52 150.755 1354.94 Q153.834 1350.33 159.644 1350.33 Z" fill="#000000" fill-rule="evenodd" fill-opacity="1" /><path clip-path="url(#clip840)" d="M189.806 1354.04 Q186.195 1354.04 184.366 1357.6 Q182.561 1361.14 182.561 1368.27 Q182.561 1375.38 184.366 1378.94 Q186.195 1382.48 189.806 1382.48 Q193.44 1382.48 195.246 1378.94 Q197.074 1375.38 197.074 1368.27 Q197.074 1361.14 195.246 1357.6 Q193.44 1354.04 189.806 1354.04 M189.806 1350.33 Q195.616 1350.33 198.672 1354.94 Q201.75 1359.52 201.75 1368.27 Q201.75 1377 198.672 1381.6 Q195.616 1386.19 189.806 1386.19 Q183.996 1386.19 180.917 1381.6 Q177.862 1377 177.862 1368.27 Q177.862 1359.52 180.917 1354.94 Q183.996 1350.33 189.806 1350.33 Z" fill="#000000" fill-rule="evenodd" fill-opacity="1" /><path clip-path="url(#clip840)" d="M189.806 1042.74 Q186.195 1042.74 184.366 1046.31 Q182.561 1049.85 182.561 1056.98 Q182.561 1064.09 184.366 1067.65 Q186.195 1071.19 189.806 1071.19 Q193.44 1071.19 195.246 1067.65 Q197.074 1064.09 197.074 1056.98 Q197.074 1049.85 195.246 1046.31 Q193.44 1042.74 189.806 1042.74 M189.806 1039.04 Q195.616 1039.04 198.672 1043.65 Q201.75 1048.23 201.75 1056.98 Q201.75 1065.71 198.672 1070.31 Q195.616 1074.9 189.806 1074.9 Q183.996 1074.9 180.917 1070.31 Q177.862 1065.71 177.862 1056.98 Q177.862 1048.23 180.917 1043.65 Q183.996 1039.04 189.806 1039.04 Z" fill="#000000" fill-rule="evenodd" fill-opacity="1" /><path clip-path="url(#clip840)" d="M119.529 728.375 L137.885 728.375 L137.885 732.31 L123.811 732.31 L123.811 740.782 Q124.83 740.435 125.848 740.273 Q126.867 740.088 127.885 740.088 Q133.672 740.088 137.052 743.259 Q140.431 746.43 140.431 751.847 Q140.431 757.426 136.959 760.528 Q133.487 763.606 127.167 763.606 Q124.992 763.606 122.723 763.236 Q120.478 762.866 118.07 762.125 L118.07 757.426 Q120.154 758.56 122.376 759.116 Q124.598 759.671 127.075 759.671 Q131.079 759.671 133.417 757.565 Q135.755 755.458 135.755 751.847 Q135.755 748.236 133.417 746.13 Q131.079 744.023 127.075 744.023 Q125.2 744.023 123.325 744.44 Q121.473 744.856 119.529 745.736 L119.529 728.375 Z" fill="#000000" fill-rule="evenodd" fill-opacity="1" /><path clip-path="url(#clip840)" d="M159.644 731.454 Q156.033 731.454 154.204 735.019 Q152.399 738.56 152.399 745.69 Q152.399 752.796 154.204 756.361 Q156.033 759.903 159.644 759.903 Q163.278 759.903 165.084 756.361 Q166.913 752.796 166.913 745.69 Q166.913 738.56 165.084 735.019 Q163.278 731.454 159.644 731.454 M159.644 727.75 Q165.454 727.75 168.51 732.356 Q171.589 736.94 171.589 745.69 Q171.589 754.417 168.51 759.023 Q165.454 763.606 159.644 763.606 Q153.834 763.606 150.755 759.023 Q147.7 754.417 147.7 745.69 Q147.7 736.94 150.755 732.356 Q153.834 727.75 159.644 727.75 Z" fill="#000000" fill-rule="evenodd" fill-opacity="1" /><path clip-path="url(#clip840)" d="M189.806 731.454 Q186.195 731.454 184.366 735.019 Q182.561 738.56 182.561 745.69 Q182.561 752.796 184.366 756.361 Q186.195 759.903 189.806 759.903 Q193.44 759.903 195.246 756.361 Q197.074 752.796 197.074 745.69 Q197.074 738.56 195.246 735.019 Q193.44 731.454 189.806 731.454 M189.806 727.75 Q195.616 727.75 198.672 732.356 Q201.75 736.94 201.75 745.69 Q201.75 754.417 198.672 759.023 Q195.616 763.606 189.806 763.606 Q183.996 763.606 180.917 759.023 Q177.862 754.417 177.862 745.69 Q177.862 736.94 180.917 732.356 Q183.996 727.75 189.806 727.75 Z" fill="#000000" fill-rule="evenodd" fill-opacity="1" /><path clip-path="url(#clip840)" d="M90.1306 447.709 L97.7695 447.709 L97.7695 421.343 L89.4593 423.01 L89.4593 418.751 L97.7232 417.084 L102.399 417.084 L102.399 447.709 L110.038 447.709 L110.038 451.644 L90.1306 451.644 L90.1306 447.709 Z" fill="#000000" fill-rule="evenodd" fill-opacity="1" /><path clip-path="url(#clip840)" d="M129.482 420.163 Q125.871 420.163 124.042 423.728 Q122.237 427.269 122.237 434.399 Q122.237 441.505 124.042 445.07 Q125.871 448.612 129.482 448.612 Q133.116 448.612 134.922 445.07 Q136.751 441.505 136.751 434.399 Q136.751 427.269 134.922 423.728 Q133.116 420.163 129.482 420.163 M129.482 416.459 Q135.292 416.459 138.348 421.066 Q141.427 425.649 141.427 434.399 Q141.427 443.126 138.348 447.732 Q135.292 452.315 129.482 452.315 Q123.672 452.315 120.593 447.732 Q117.538 443.126 117.538 434.399 Q117.538 425.649 120.593 421.066 Q123.672 416.459 129.482 416.459 Z" fill="#000000" fill-rule="evenodd" fill-opacity="1" /><path clip-path="url(#clip840)" d="M159.644 420.163 Q156.033 420.163 154.204 423.728 Q152.399 427.269 152.399 434.399 Q152.399 441.505 154.204 445.07 Q156.033 448.612 159.644 448.612 Q163.278 448.612 165.084 445.07 Q166.913 441.505 166.913 434.399 Q166.913 427.269 165.084 423.728 Q163.278 420.163 159.644 420.163 M159.644 416.459 Q165.454 416.459 168.51 421.066 Q171.589 425.649 171.589 434.399 Q171.589 443.126 168.51 447.732 Q165.454 452.315 159.644 452.315 Q153.834 452.315 150.755 447.732 Q147.7 443.126 147.7 434.399 Q147.7 425.649 150.755 421.066 Q153.834 416.459 159.644 416.459 Z" fill="#000000" fill-rule="evenodd" fill-opacity="1" /><path clip-path="url(#clip840)" d="M189.806 420.163 Q186.195 420.163 184.366 423.728 Q182.561 427.269 182.561 434.399 Q182.561 441.505 184.366 445.07 Q186.195 448.612 189.806 448.612 Q193.44 448.612 195.246 445.07 Q197.074 441.505 197.074 434.399 Q197.074 427.269 195.246 423.728 Q193.44 420.163 189.806 420.163 M189.806 416.459 Q195.616 416.459 198.672 421.066 Q201.75 425.649 201.75 434.399 Q201.75 443.126 198.672 447.732 Q195.616 452.315 189.806 452.315 Q183.996 452.315 180.917 447.732 Q177.862 443.126 177.862 434.399 Q177.862 425.649 180.917 421.066 Q183.996 416.459 189.806 416.459 Z" fill="#000000" fill-rule="evenodd" fill-opacity="1" /><path clip-path="url(#clip840)" d="M90.1306 136.418 L97.7695 136.418 L97.7695 110.052 L89.4593 111.719 L89.4593 107.46 L97.7232 105.793 L102.399 105.793 L102.399 136.418 L110.038 136.418 L110.038 140.353 L90.1306 140.353 L90.1306 136.418 Z" fill="#000000" fill-rule="evenodd" fill-opacity="1" /><path clip-path="url(#clip840)" d="M119.529 105.793 L137.885 105.793 L137.885 109.728 L123.811 109.728 L123.811 118.2 Q124.83 117.853 125.848 117.691 Q126.867 117.506 127.885 117.506 Q133.672 117.506 137.052 120.677 Q140.431 123.849 140.431 129.265 Q140.431 134.844 136.959 137.946 Q133.487 141.024 127.167 141.024 Q124.992 141.024 122.723 140.654 Q120.478 140.284 118.07 139.543 L118.07 134.844 Q120.154 135.978 122.376 136.534 Q124.598 137.089 127.075 137.089 Q131.079 137.089 133.417 134.983 Q135.755 132.876 135.755 129.265 Q135.755 125.654 133.417 123.548 Q131.079 121.441 127.075 121.441 Q125.2 121.441 123.325 121.858 Q121.473 122.275 119.529 123.154 L119.529 105.793 Z" fill="#000000" fill-rule="evenodd" fill-opacity="1" /><path clip-path="url(#clip840)" d="M159.644 108.872 Q156.033 108.872 154.204 112.437 Q152.399 115.978 152.399 123.108 Q152.399 130.214 154.204 133.779 Q156.033 137.321 159.644 137.321 Q163.278 137.321 165.084 133.779 Q166.913 130.214 166.913 123.108 Q166.913 115.978 165.084 112.437 Q163.278 108.872 159.644 108.872 M159.644 105.168 Q165.454 105.168 168.51 109.775 Q171.589 114.358 171.589 123.108 Q171.589 131.835 168.51 136.441 Q165.454 141.024 159.644 141.024 Q153.834 141.024 150.755 136.441 Q147.7 131.835 147.7 123.108 Q147.7 114.358 150.755 109.775 Q153.834 105.168 159.644 105.168 Z" fill="#000000" fill-rule="evenodd" fill-opacity="1" /><path clip-path="url(#clip840)" d="M189.806 108.872 Q186.195 108.872 184.366 112.437 Q182.561 115.978 182.561 123.108 Q182.561 130.214 184.366 133.779 Q186.195 137.321 189.806 137.321 Q193.44 137.321 195.246 133.779 Q197.074 130.214 197.074 123.108 Q197.074 115.978 195.246 112.437 Q193.44 108.872 189.806 108.872 M189.806 105.168 Q195.616 105.168 198.672 109.775 Q201.75 114.358 201.75 123.108 Q201.75 131.835 198.672 136.441 Q195.616 141.024 189.806 141.024 Q183.996 141.024 180.917 136.441 Q177.862 131.835 177.862 123.108 Q177.862 114.358 180.917 109.775 Q183.996 105.168 189.806 105.168 Z" fill="#000000" fill-rule="evenodd" fill-opacity="1" /><polyline clip-path="url(#clip842)" style="stroke:#009af9; stroke-linecap:butt; stroke-linejoin:round; stroke-width:4; stroke-opacity:1; fill:none" points="
  309.958,1751.15 332.057,1745.41 536.396,1685.83 659.195,1643.99 763.02,1604.79 875.803,1558 979.779,1510.73 1091.25,1455.41 1220.41,1384.92 1335.18,1316.14 
  1435.83,1250.79 1545.56,1173.86 1655.95,1090.17 1777.99,989.829 1894.12,886.286 2014.86,769.759 2116.5,664.252 2240.58,525.706 2357.23,385.141 2544.11,137.558 
  2572.87,96.8724 
  "/>
<path clip-path="url(#clip840)" d="
M2241.85 209.375 L2560.8 209.375 L2560.8 105.695 L2241.85 105.695  Z
  " fill="#ffffff" fill-rule="evenodd" fill-opacity="1"/>
<polyline clip-path="url(#clip840)" style="stroke:#000000; stroke-linecap:butt; stroke-linejoin:round; stroke-width:4; stroke-opacity:1; fill:none" points="
  2241.85,209.375 2560.8,209.375 2560.8,105.695 2241.85,105.695 2241.85,209.375 
  "/>
<polyline clip-path="url(#clip840)" style="stroke:#009af9; stroke-linecap:butt; stroke-linejoin:round; stroke-width:4; stroke-opacity:1; fill:none" points="
  2268.5,157.535 2428.41,157.535 
  "/>
<path clip-path="url(#clip840)" d="M2468.91 177.223 Q2467.1 181.852 2465.39 183.264 Q2463.68 184.676 2460.81 184.676 L2457.4 184.676 L2457.4 181.112 L2459.9 181.112 Q2461.66 181.112 2462.63 180.278 Q2463.61 179.445 2464.79 176.343 L2465.55 174.399 L2455.07 148.889 L2459.58 148.889 L2467.68 169.167 L2475.78 148.889 L2480.3 148.889 L2468.91 177.223 Z" fill="#000000" fill-rule="evenodd" fill-opacity="1" /><path clip-path="url(#clip840)" d="M2487.59 170.88 L2495.23 170.88 L2495.23 144.515 L2486.92 146.181 L2486.92 141.922 L2495.18 140.255 L2499.86 140.255 L2499.86 170.88 L2507.5 170.88 L2507.5 174.815 L2487.59 174.815 L2487.59 170.88 Z" fill="#000000" fill-rule="evenodd" fill-opacity="1" /></svg>
