<?xml version="1.0" encoding="utf-8"?>
<svg xmlns="http://www.w3.org/2000/svg" xmlns:xlink="http://www.w3.org/1999/xlink" width="672" height="480" viewBox="0 0 2688 1920">
<defs>
  <clipPath id="clip050">
    <rect x="0" y="0" width="2688" height="1920"/>
  </clipPath>
</defs>
<path clip-path="url(#clip050)" d="
M0 1920 L2688 1920 L2688 0 L0 0  Z
  " fill="#ffffff" fill-rule="evenodd" fill-opacity="1"/>
<defs>
  <clipPath id="clip051">
    <rect x="537" y="0" width="1883" height="1883"/>
  </clipPath>
</defs>
<path clip-path="url(#clip050)" d="
M115.057 1800.78 L2640.76 1800.78 L2640.76 47.2441 L115.057 47.2441  Z
  " fill="#ffffff" fill-rule="evenodd" fill-opacity="1"/>
<defs>
  <clipPath id="clip052">
    <rect x="115" y="47" width="2527" height="1755"/>
  </clipPath>
</defs>
<polyline clip-path="url(#clip052)" style="stroke:#000000; stroke-linecap:butt; stroke-linejoin:round; stroke-width:2; stroke-opacity:0.1; fill:none" points="
  240.235,1800.78 240.235,47.2441 
  "/>
<polyline clip-path="url(#clip052)" style="stroke:#000000; stroke-linecap:butt; stroke-linejoin:round; stroke-width:2; stroke-opacity:0.1; fill:none" points="
  619.459,1800.78 619.459,47.2441 
  "/>
<polyline clip-path="url(#clip052)" style="stroke:#000000; stroke-linecap:butt; stroke-linejoin:round; stroke-width:2; stroke-opacity:0.1; fill:none" points="
  998.683,1800.78 998.683,47.2441 
  "/>
<polyline clip-path="url(#clip052)" style="stroke:#000000; stroke-linecap:butt; stroke-linejoin:round; stroke-width:2; stroke-opacity:0.1; fill:none" points="
  1377.91,1800.78 1377.91,47.2441 
  "/>
<polyline clip-path="url(#clip052)" style="stroke:#000000; stroke-linecap:butt; stroke-linejoin:round; stroke-width:2; stroke-opacity:0.1; fill:none" points="
  1757.13,1800.78 1757.13,47.2441 
  "/>
<polyline clip-path="url(#clip052)" style="stroke:#000000; stroke-linecap:butt; stroke-linejoin:round; stroke-width:2; stroke-opacity:0.1; fill:none" points="
  2136.35,1800.78 2136.35,47.2441 
  "/>
<polyline clip-path="url(#clip052)" style="stroke:#000000; stroke-linecap:butt; stroke-linejoin:round; stroke-width:2; stroke-opacity:0.1; fill:none" points="
  2515.58,1800.78 2515.58,47.2441 
  "/>
<polyline clip-path="url(#clip050)" style="stroke:#000000; stroke-linecap:butt; stroke-linejoin:round; stroke-width:4; stroke-opacity:1; fill:none" points="
  115.057,1800.78 2640.76,1800.78 
  "/>
<polyline clip-path="url(#clip050)" style="stroke:#000000; stroke-linecap:butt; stroke-linejoin:round; stroke-width:4; stroke-opacity:1; fill:none" points="
  240.235,1800.78 240.235,1781.88 
  "/>
<polyline clip-path="url(#clip050)" style="stroke:#000000; stroke-linecap:butt; stroke-linejoin:round; stroke-width:4; stroke-opacity:1; fill:none" points="
  619.459,1800.78 619.459,1781.88 
  "/>
<polyline clip-path="url(#clip050)" style="stroke:#000000; stroke-linecap:butt; stroke-linejoin:round; stroke-width:4; stroke-opacity:1; fill:none" points="
  998.683,1800.78 998.683,1781.88 
  "/>
<polyline clip-path="url(#clip050)" style="stroke:#000000; stroke-linecap:butt; stroke-linejoin:round; stroke-width:4; stroke-opacity:1; fill:none" points="
  1377.91,1800.78 1377.91,1781.88 
  "/>
<polyline clip-path="url(#clip050)" style="stroke:#000000; stroke-linecap:butt; stroke-linejoin:round; stroke-width:4; stroke-opacity:1; fill:none" points="
  1757.13,1800.78 1757.13,1781.88 
  "/>
<polyline clip-path="url(#clip050)" style="stroke:#000000; stroke-linecap:butt; stroke-linejoin:round; stroke-width:4; stroke-opacity:1; fill:none" points="
  2136.35,1800.78 2136.35,1781.88 
  "/>
<polyline clip-path="url(#clip050)" style="stroke:#000000; stroke-linecap:butt; stroke-linejoin:round; stroke-width:4; stroke-opacity:1; fill:none" points="
  2515.58,1800.78 2515.58,1781.88 
  "/>
<path clip-path="url(#clip050)" d="M209.702 1848.65 L239.378 1848.65 L239.378 1852.59 L209.702 1852.59 L209.702 1848.65 Z" fill="#000000" fill-rule="evenodd" fill-opacity="1" /><path clip-path="url(#clip050)" d="M263.637 1846.85 Q266.994 1847.57 268.869 1849.84 Q270.767 1852.1 270.767 1855.44 Q270.767 1860.55 267.248 1863.35 Q263.73 1866.15 257.248 1866.15 Q255.072 1866.15 252.758 1865.71 Q250.466 1865.3 248.012 1864.44 L248.012 1859.93 Q249.957 1861.06 252.272 1861.64 Q254.586 1862.22 257.109 1862.22 Q261.508 1862.22 263.799 1860.48 Q266.114 1858.75 266.114 1855.44 Q266.114 1852.38 263.961 1850.67 Q261.832 1848.93 258.012 1848.93 L253.984 1848.93 L253.984 1845.09 L258.197 1845.09 Q261.646 1845.09 263.475 1843.72 Q265.304 1842.34 265.304 1839.74 Q265.304 1837.08 263.406 1835.67 Q261.531 1834.23 258.012 1834.23 Q256.091 1834.23 253.892 1834.65 Q251.693 1835.07 249.054 1835.95 L249.054 1831.78 Q251.716 1831.04 254.031 1830.67 Q256.369 1830.3 258.429 1830.3 Q263.753 1830.3 266.855 1832.73 Q269.957 1835.14 269.957 1839.26 Q269.957 1842.13 268.313 1844.12 Q266.67 1846.09 263.637 1846.85 Z" fill="#000000" fill-rule="evenodd" fill-opacity="1" /><path clip-path="url(#clip050)" d="M589.401 1848.65 L619.077 1848.65 L619.077 1852.59 L589.401 1852.59 L589.401 1848.65 Z" fill="#000000" fill-rule="evenodd" fill-opacity="1" /><path clip-path="url(#clip050)" d="M633.197 1861.55 L649.516 1861.55 L649.516 1865.48 L627.572 1865.48 L627.572 1861.55 Q630.234 1858.79 634.817 1854.16 Q639.424 1849.51 640.604 1848.17 Q642.85 1845.65 643.729 1843.91 Q644.632 1842.15 644.632 1840.46 Q644.632 1837.71 642.688 1835.97 Q640.766 1834.23 637.664 1834.23 Q635.465 1834.23 633.012 1835 Q630.581 1835.76 627.803 1837.31 L627.803 1832.59 Q630.627 1831.46 633.081 1830.88 Q635.535 1830.3 637.572 1830.3 Q642.942 1830.3 646.137 1832.98 Q649.331 1835.67 649.331 1840.16 Q649.331 1842.29 648.521 1844.21 Q647.734 1846.11 645.627 1848.7 Q645.049 1849.37 641.947 1852.59 Q638.845 1855.78 633.197 1861.55 Z" fill="#000000" fill-rule="evenodd" fill-opacity="1" /><path clip-path="url(#clip050)" d="M968.44 1848.65 L998.115 1848.65 L998.115 1852.59 L968.44 1852.59 L968.44 1848.65 Z" fill="#000000" fill-rule="evenodd" fill-opacity="1" /><path clip-path="url(#clip050)" d="M1009.02 1861.55 L1016.66 1861.55 L1016.66 1835.18 L1008.35 1836.85 L1008.35 1832.59 L1016.61 1830.92 L1021.29 1830.92 L1021.29 1861.55 L1028.93 1861.55 L1028.93 1865.48 L1009.02 1865.48 L1009.02 1861.55 Z" fill="#000000" fill-rule="evenodd" fill-opacity="1" /><path clip-path="url(#clip050)" d="M1377.91 1834 Q1374.3 1834 1372.47 1837.57 Q1370.66 1841.11 1370.66 1848.24 Q1370.66 1855.34 1372.47 1858.91 Q1374.3 1862.45 1377.91 1862.45 Q1381.54 1862.45 1383.35 1858.91 Q1385.18 1855.34 1385.18 1848.24 Q1385.18 1841.11 1383.35 1837.57 Q1381.54 1834 1377.91 1834 M1377.91 1830.3 Q1383.72 1830.3 1386.77 1834.9 Q1389.85 1839.49 1389.85 1848.24 Q1389.85 1856.96 1386.77 1861.57 Q1383.72 1866.15 1377.91 1866.15 Q1372.1 1866.15 1369.02 1861.57 Q1365.96 1856.96 1365.96 1848.24 Q1365.96 1839.49 1369.02 1834.9 Q1372.1 1830.3 1377.91 1830.3 Z" fill="#000000" fill-rule="evenodd" fill-opacity="1" /><path clip-path="url(#clip050)" d="M1747.51 1861.55 L1755.15 1861.55 L1755.15 1835.18 L1746.84 1836.85 L1746.84 1832.59 L1755.11 1830.92 L1759.78 1830.92 L1759.78 1861.55 L1767.42 1861.55 L1767.42 1865.48 L1747.51 1865.48 L1747.51 1861.55 Z" fill="#000000" fill-rule="evenodd" fill-opacity="1" /><path clip-path="url(#clip050)" d="M2131.01 1861.55 L2147.33 1861.55 L2147.33 1865.48 L2125.38 1865.48 L2125.38 1861.55 Q2128.04 1858.79 2132.63 1854.16 Q2137.23 1849.51 2138.41 1848.17 Q2140.66 1845.65 2141.54 1843.91 Q2142.44 1842.15 2142.44 1840.46 Q2142.44 1837.71 2140.5 1835.97 Q2138.58 1834.23 2135.47 1834.23 Q2133.28 1834.23 2130.82 1835 Q2128.39 1835.76 2125.61 1837.31 L2125.61 1832.59 Q2128.44 1831.46 2130.89 1830.88 Q2133.35 1830.3 2135.38 1830.3 Q2140.75 1830.3 2143.95 1832.98 Q2147.14 1835.67 2147.14 1840.16 Q2147.14 1842.29 2146.33 1844.21 Q2145.54 1846.11 2143.44 1848.7 Q2142.86 1849.37 2139.76 1852.59 Q2136.66 1855.78 2131.01 1861.55 Z" fill="#000000" fill-rule="evenodd" fill-opacity="1" /><path clip-path="url(#clip050)" d="M2519.83 1846.85 Q2523.18 1847.57 2525.06 1849.84 Q2526.96 1852.1 2526.96 1855.44 Q2526.96 1860.55 2523.44 1863.35 Q2519.92 1866.15 2513.44 1866.15 Q2511.26 1866.15 2508.95 1865.71 Q2506.65 1865.3 2504.2 1864.44 L2504.2 1859.93 Q2506.15 1861.06 2508.46 1861.64 Q2510.78 1862.22 2513.3 1862.22 Q2517.7 1862.22 2519.99 1860.48 Q2522.3 1858.75 2522.3 1855.44 Q2522.3 1852.38 2520.15 1850.67 Q2518.02 1848.93 2514.2 1848.93 L2510.17 1848.93 L2510.17 1845.09 L2514.39 1845.09 Q2517.84 1845.09 2519.66 1843.72 Q2521.49 1842.34 2521.49 1839.74 Q2521.49 1837.08 2519.59 1835.67 Q2517.72 1834.23 2514.2 1834.23 Q2512.28 1834.23 2510.08 1834.65 Q2507.88 1835.07 2505.24 1835.95 L2505.24 1831.78 Q2507.9 1831.04 2510.22 1830.67 Q2512.56 1830.3 2514.62 1830.3 Q2519.94 1830.3 2523.04 1832.73 Q2526.15 1835.14 2526.15 1839.26 Q2526.15 1842.13 2524.5 1844.12 Q2522.86 1846.09 2519.83 1846.85 Z" fill="#000000" fill-rule="evenodd" fill-opacity="1" /><polyline clip-path="url(#clip052)" style="stroke:#000000; stroke-linecap:butt; stroke-linejoin:round; stroke-width:2; stroke-opacity:0.1; fill:none" points="
  115.057,1751.19 2640.76,1751.19 
  "/>
<polyline clip-path="url(#clip052)" style="stroke:#000000; stroke-linecap:butt; stroke-linejoin:round; stroke-width:2; stroke-opacity:0.1; fill:none" points="
  115.057,1415.96 2640.76,1415.96 
  "/>
<polyline clip-path="url(#clip052)" style="stroke:#000000; stroke-linecap:butt; stroke-linejoin:round; stroke-width:2; stroke-opacity:0.1; fill:none" points="
  115.057,1080.72 2640.76,1080.72 
  "/>
<polyline clip-path="url(#clip052)" style="stroke:#000000; stroke-linecap:butt; stroke-linejoin:round; stroke-width:2; stroke-opacity:0.1; fill:none" points="
  115.057,745.486 2640.76,745.486 
  "/>
<polyline clip-path="url(#clip052)" style="stroke:#000000; stroke-linecap:butt; stroke-linejoin:round; stroke-width:2; stroke-opacity:0.1; fill:none" points="
  115.057,410.251 2640.76,410.251 
  "/>
<polyline clip-path="url(#clip052)" style="stroke:#000000; stroke-linecap:butt; stroke-linejoin:round; stroke-width:2; stroke-opacity:0.1; fill:none" points="
  115.057,75.0159 2640.76,75.0159 
  "/>
<polyline clip-path="url(#clip050)" style="stroke:#000000; stroke-linecap:butt; stroke-linejoin:round; stroke-width:4; stroke-opacity:1; fill:none" points="
  115.057,1800.78 115.057,47.2441 
  "/>
<polyline clip-path="url(#clip050)" style="stroke:#000000; stroke-linecap:butt; stroke-linejoin:round; stroke-width:4; stroke-opacity:1; fill:none" points="
  115.057,1751.19 133.955,1751.19 
  "/>
<polyline clip-path="url(#clip050)" style="stroke:#000000; stroke-linecap:butt; stroke-linejoin:round; stroke-width:4; stroke-opacity:1; fill:none" points="
  115.057,1415.96 133.955,1415.96 
  "/>
<polyline clip-path="url(#clip050)" style="stroke:#000000; stroke-linecap:butt; stroke-linejoin:round; stroke-width:4; stroke-opacity:1; fill:none" points="
  115.057,1080.72 133.955,1080.72 
  "/>
<polyline clip-path="url(#clip050)" style="stroke:#000000; stroke-linecap:butt; stroke-linejoin:round; stroke-width:4; stroke-opacity:1; fill:none" points="
  115.057,745.486 133.955,745.486 
  "/>
<polyline clip-path="url(#clip050)" style="stroke:#000000; stroke-linecap:butt; stroke-linejoin:round; stroke-width:4; stroke-opacity:1; fill:none" points="
  115.057,410.251 133.955,410.251 
  "/>
<polyline clip-path="url(#clip050)" style="stroke:#000000; stroke-linecap:butt; stroke-linejoin:round; stroke-width:4; stroke-opacity:1; fill:none" points="
  115.057,75.0159 133.955,75.0159 
  "/>
<path clip-path="url(#clip050)" d="M62.7928 1736.99 Q59.1817 1736.99 57.353 1740.55 Q55.5475 1744.1 55.5475 1751.23 Q55.5475 1758.33 57.353 1761.9 Q59.1817 1765.44 62.7928 1765.44 Q66.427 1765.44 68.2326 1761.9 Q70.0613 1758.33 70.0613 1751.23 Q70.0613 1744.1 68.2326 1740.55 Q66.427 1736.99 62.7928 1736.99 M62.7928 1733.29 Q68.6029 1733.29 71.6585 1737.89 Q74.7372 1742.48 74.7372 1751.23 Q74.7372 1759.95 71.6585 1764.56 Q68.6029 1769.14 62.7928 1769.14 Q56.9826 1769.14 53.904 1764.56 Q50.8484 1759.95 50.8484 1751.23 Q50.8484 1742.48 53.904 1737.89 Q56.9826 1733.29 62.7928 1733.29 Z" fill="#000000" fill-rule="evenodd" fill-opacity="1" /><path clip-path="url(#clip050)" d="M54.8299 1429.3 L62.4687 1429.3 L62.4687 1402.94 L54.1586 1404.6 L54.1586 1400.34 L62.4224 1398.68 L67.0983 1398.68 L67.0983 1429.3 L74.7372 1429.3 L74.7372 1433.24 L54.8299 1433.24 L54.8299 1429.3 Z" fill="#000000" fill-rule="evenodd" fill-opacity="1" /><path clip-path="url(#clip050)" d="M58.4178 1094.07 L74.7372 1094.07 L74.7372 1098 L52.7928 1098 L52.7928 1094.07 Q55.4549 1091.31 60.0382 1086.68 Q64.6446 1082.03 65.8252 1080.69 Q68.0705 1078.16 68.9502 1076.43 Q69.8529 1074.67 69.8529 1072.98 Q69.8529 1070.22 67.9085 1068.49 Q65.9872 1066.75 62.8854 1066.75 Q60.6863 1066.75 58.2326 1067.52 Q55.8021 1068.28 53.0243 1069.83 L53.0243 1065.11 Q55.8484 1063.97 58.3021 1063.39 Q60.7558 1062.82 62.7928 1062.82 Q68.1631 1062.82 71.3576 1065.5 Q74.552 1068.19 74.552 1072.68 Q74.552 1074.81 73.7418 1076.73 Q72.9548 1078.63 70.8483 1081.22 Q70.2696 1081.89 67.1678 1085.11 Q64.0659 1088.3 58.4178 1094.07 Z" fill="#000000" fill-rule="evenodd" fill-opacity="1" /><path clip-path="url(#clip050)" d="M67.6076 744.132 Q70.964 744.849 72.839 747.118 Q74.7372 749.386 74.7372 752.72 Q74.7372 757.835 71.2187 760.636 Q67.7002 763.437 61.2187 763.437 Q59.0428 763.437 56.728 762.997 Q54.4364 762.581 51.9827 761.724 L51.9827 757.21 Q53.9271 758.345 56.2419 758.923 Q58.5567 759.502 61.0798 759.502 Q65.478 759.502 67.7696 757.766 Q70.0844 756.03 70.0844 752.72 Q70.0844 749.664 67.9317 747.951 Q65.802 746.215 61.9826 746.215 L57.9549 746.215 L57.9549 742.373 L62.1678 742.373 Q65.6169 742.373 67.4455 741.007 Q69.2742 739.618 69.2742 737.025 Q69.2742 734.363 67.3761 732.951 Q65.5011 731.516 61.9826 731.516 Q60.0613 731.516 57.8623 731.933 Q55.6632 732.35 53.0243 733.229 L53.0243 729.062 Q55.6864 728.322 58.0012 727.951 Q60.3391 727.581 62.3993 727.581 Q67.7233 727.581 70.8252 730.012 Q73.927 732.419 73.927 736.539 Q73.927 739.41 72.2835 741.4 Q70.64 743.368 67.6076 744.132 Z" fill="#000000" fill-rule="evenodd" fill-opacity="1" /><path clip-path="url(#clip050)" d="M65.1539 397.045 L53.3484 415.494 L65.1539 415.494 L65.1539 397.045 M63.927 392.971 L69.8066 392.971 L69.8066 415.494 L74.7372 415.494 L74.7372 419.383 L69.8066 419.383 L69.8066 427.531 L65.1539 427.531 L65.1539 419.383 L49.5521 419.383 L49.5521 414.869 L63.927 392.971 Z" fill="#000000" fill-rule="evenodd" fill-opacity="1" /><path clip-path="url(#clip050)" d="M53.8345 57.7359 L72.1909 57.7359 L72.1909 61.671 L58.1169 61.671 L58.1169 70.1432 Q59.1354 69.796 60.1539 69.6339 Q61.1724 69.4488 62.1909 69.4488 Q67.978 69.4488 71.3576 72.62 Q74.7372 75.7913 74.7372 81.208 Q74.7372 86.7866 71.265 89.8885 Q67.7928 92.9672 61.4734 92.9672 Q59.2974 92.9672 57.0289 92.5968 Q54.7836 92.2264 52.3762 91.4857 L52.3762 86.7866 Q54.4595 87.9209 56.6817 88.4764 Q58.9039 89.032 61.3808 89.032 Q65.3854 89.032 67.7233 86.9255 Q70.0613 84.819 70.0613 81.208 Q70.0613 77.5969 67.7233 75.4904 Q65.3854 73.3839 61.3808 73.3839 Q59.5058 73.3839 57.6308 73.8006 Q55.7789 74.2173 53.8345 75.0969 L53.8345 57.7359 Z" fill="#000000" fill-rule="evenodd" fill-opacity="1" /><polyline clip-path="url(#clip052)" style="stroke:#009af9; stroke-linecap:butt; stroke-linejoin:round; stroke-width:4; stroke-opacity:1; fill:none" points="
  186.539,1080.72 192.357,1080.76 198.174,1080.88 203.991,1081.08 209.809,1081.35 263.598,1087.62 317.388,1100.48 371.178,1119.68 424.967,1144.83 457.293,1162.6 
  489.618,1182.21 521.943,1203.51 554.269,1226.36 608.93,1268.04 663.592,1312.79 782.347,1416.07 891.828,1511.5 950.516,1559.89 1009.2,1604.84 1077.2,1651.21 
  1145.2,1690.03 1175.41,1704.52 1205.62,1717.19 1235.84,1727.94 1266.05,1736.71 1319.04,1747.16 1372.03,1751.15 1429.8,1748.06 1487.57,1737.27 1545.69,1718.91 
  1603.8,1693.45 1668.06,1657.76 1732.31,1615.15 1793.44,1569.28 1854.58,1519.44 1981.72,1408.77 2088.74,1315.72 2154.06,1262.37 2219.39,1213.56 2280.81,1173.12 
  2342.22,1139.04 2391.41,1116.92 2440.6,1099.83 2489.8,1088.06 2538.99,1081.79 2546.56,1081.32 2554.13,1080.99 2561.7,1080.79 2569.27,1080.72 
  "/>
<polyline clip-path="url(#clip052)" style="stroke:#e26f46; stroke-linecap:butt; stroke-linejoin:round; stroke-width:4; stroke-opacity:1; fill:none" points="
  186.539,96.8724 198.174,129.026 209.809,160.864 317.388,440.307 424.967,692.771 489.618,831.513 554.269,960.512 608.93,1061.98 663.592,1156.48 722.969,1251.24 
  782.347,1337.78 837.088,1410.29 891.828,1475.81 950.516,1538.29 1009.2,1592.75 1077.2,1645.8 1145.2,1688.07 1205.62,1716.6 1266.05,1736.61 1319.04,1747.15 
  1372.03,1751.15 1429.8,1748.05 1487.57,1737.17 1545.69,1718.38 1603.8,1691.72 1668.06,1653.07 1732.31,1604.8 1793.44,1549.93 1854.58,1486.36 1918.15,1411.02 
  1981.72,1326.25 2035.23,1247.6 2088.74,1162.27 2154.06,1049.04 2219.39,925.869 2280.81,801.009 2342.22,667.357 2440.6,434.913 2538.99,179.903 2554.13,138.655 
  2569.27,96.8724 
  "/>
<path clip-path="url(#clip050)" d="
M2223.5 261.215 L2556.57 261.215 L2556.57 105.695 L2223.5 105.695  Z
  " fill="#ffffff" fill-rule="evenodd" fill-opacity="1"/>
<polyline clip-path="url(#clip050)" style="stroke:#000000; stroke-linecap:butt; stroke-linejoin:round; stroke-width:4; stroke-opacity:1; fill:none" points="
  2223.5,261.215 2556.57,261.215 2556.57,105.695 2223.5,105.695 2223.5,261.215 
  "/>
<polyline clip-path="url(#clip050)" style="stroke:#009af9; stroke-linecap:butt; stroke-linejoin:round; stroke-width:4; stroke-opacity:1; fill:none" points="
  2251.57,157.535 2419.95,157.535 
  "/>
<path clip-path="url(#clip050)" d="M2461.85 177.223 Q2460.05 181.852 2458.33 183.264 Q2456.62 184.676 2453.75 184.676 L2450.35 184.676 L2450.35 181.112 L2452.85 181.112 Q2454.61 181.112 2455.58 180.278 Q2456.55 179.445 2457.73 176.343 L2458.5 174.399 L2448.01 148.889 L2452.52 148.889 L2460.62 169.167 L2468.73 148.889 L2473.24 148.889 L2461.85 177.223 Z" fill="#000000" fill-rule="evenodd" fill-opacity="1" /><path clip-path="url(#clip050)" d="M2480.53 170.88 L2488.17 170.88 L2488.17 144.515 L2479.86 146.181 L2479.86 141.922 L2488.12 140.255 L2492.8 140.255 L2492.8 170.88 L2500.44 170.88 L2500.44 174.815 L2480.53 174.815 L2480.53 170.88 Z" fill="#000000" fill-rule="evenodd" fill-opacity="1" /><polyline clip-path="url(#clip050)" style="stroke:#e26f46; stroke-linecap:butt; stroke-linejoin:round; stroke-width:4; stroke-opacity:1; fill:none" points="
  2251.57,209.375 2419.95,209.375 
  "/>
<path clip-path="url(#clip050)" d="M2461.85 229.063 Q2460.05 233.692 2458.33 235.104 Q2456.62 236.516 2453.75 236.516 L2450.35 236.516 L2450.35 232.952 L2452.85 232.952 Q2454.61 232.952 2455.58 232.118 Q2456.55 231.285 2457.73 228.183 L2458.5 226.239 L2448.01 200.729 L2452.52 200.729 L2460.62 221.007 L2468.73 200.729 L2473.24 200.729 L2461.85 229.063 Z" fill="#000000" fill-rule="evenodd" fill-opacity="1" /><path clip-path="url(#clip050)" d="M2483.75 222.72 L2500.07 222.72 L2500.07 226.655 L2478.12 226.655 L2478.12 222.72 Q2480.79 219.965 2485.37 215.336 Q2489.98 210.683 2491.16 209.341 Q2493.4 206.817 2494.28 205.081 Q2495.18 203.322 2495.18 201.632 Q2495.18 198.878 2493.24 197.142 Q2491.32 195.405 2488.22 195.405 Q2486.02 195.405 2483.56 196.169 Q2481.13 196.933 2478.36 198.484 L2478.36 193.762 Q2481.18 192.628 2483.63 192.049 Q2486.09 191.47 2488.12 191.47 Q2493.49 191.47 2496.69 194.155 Q2499.88 196.841 2499.88 201.331 Q2499.88 203.461 2499.07 205.382 Q2498.29 207.28 2496.18 209.873 Q2495.6 210.544 2492.5 213.762 Q2489.4 216.956 2483.75 222.72 Z" fill="#000000" fill-rule="evenodd" fill-opacity="1" /></svg>
