<?xml version="1.0" encoding="utf-8"?>
<svg xmlns="http://www.w3.org/2000/svg" xmlns:xlink="http://www.w3.org/1999/xlink" width="672" height="480" viewBox="0 0 2688 1920">
<defs>
  <clipPath id="clip930">
    <rect x="0" y="0" width="2688" height="1920"/>
  </clipPath>
</defs>
<path clip-path="url(#clip930)" d="
M0 1920 L2688 1920 L2688 0 L0 0  Z
  " fill="#ffffff" fill-rule="evenodd" fill-opacity="1"/>
<defs>
  <clipPath id="clip931">
    <rect x="537" y="0" width="1883" height="1883"/>
  </clipPath>
</defs>
<path clip-path="url(#clip930)" d="
M195.589 1800.78 L2640.76 1800.78 L2640.76 47.2441 L195.589 47.2441  Z
  " fill="#ffffff" fill-rule="evenodd" fill-opacity="1"/>
<defs>
  <clipPath id="clip932">
    <rect x="195" y="47" width="2446" height="1755"/>
  </clipPath>
</defs>
<polyline clip-path="url(#clip932)" style="stroke:#000000; stroke-linecap:butt; stroke-linejoin:round; stroke-width:2; stroke-opacity:0.1; fill:none" points="
  495.468,1800.78 495.468,47.2441 
  "/>
<polyline clip-path="url(#clip932)" style="stroke:#000000; stroke-linecap:butt; stroke-linejoin:round; stroke-width:2; stroke-opacity:0.1; fill:none" points="
  956.82,1800.78 956.82,47.2441 
  "/>
<polyline clip-path="url(#clip932)" style="stroke:#000000; stroke-linecap:butt; stroke-linejoin:round; stroke-width:2; stroke-opacity:0.1; fill:none" points="
  1418.17,1800.78 1418.17,47.2441 
  "/>
<polyline clip-path="url(#clip932)" style="stroke:#000000; stroke-linecap:butt; stroke-linejoin:round; stroke-width:2; stroke-opacity:0.1; fill:none" points="
  1879.52,1800.78 1879.52,47.2441 
  "/>
<polyline clip-path="url(#clip932)" style="stroke:#000000; stroke-linecap:butt; stroke-linejoin:round; stroke-width:2; stroke-opacity:0.1; fill:none" points="
  2340.88,1800.78 2340.88,47.2441 
  "/>
<polyline clip-path="url(#clip930)" style="stroke:#000000; stroke-linecap:butt; stroke-linejoin:round; stroke-width:4; stroke-opacity:1; fill:none" points="
  195.589,1800.78 2640.76,1800.78 
  "/>
<polyline clip-path="url(#clip930)" style="stroke:#000000; stroke-linecap:butt; stroke-linejoin:round; stroke-width:4; stroke-opacity:1; fill:none" points="
  495.468,1800.78 495.468,1781.88 
  "/>
<polyline clip-path="url(#clip930)" style="stroke:#000000; stroke-linecap:butt; stroke-linejoin:round; stroke-width:4; stroke-opacity:1; fill:none" points="
  956.82,1800.78 956.82,1781.88 
  "/>
<polyline clip-path="url(#clip930)" style="stroke:#000000; stroke-linecap:butt; stroke-linejoin:round; stroke-width:4; stroke-opacity:1; fill:none" points="
  1418.17,1800.78 1418.17,1781.88 
  "/>
<polyline clip-path="url(#clip930)" style="stroke:#000000; stroke-linecap:butt; stroke-linejoin:round; stroke-width:4; stroke-opacity:1; fill:none" points="
  1879.52,1800.78 1879.52,1781.88 
  "/>
<polyline clip-path="url(#clip930)" style="stroke:#000000; stroke-linecap:butt; stroke-linejoin:round; stroke-width:4; stroke-opacity:1; fill:none" points="
  2340.88,1800.78 2340.88,1781.88 
  "/>
<path clip-path="url(#clip930)" d="M442.795 1848.65 L472.471 1848.65 L472.471 1852.59 L442.795 1852.59 L442.795 1848.65 Z" fill="#000000" fill-rule="evenodd" fill-opacity="1" /><path clip-path="url(#clip930)" d="M492.563 1834 Q488.952 1834 487.123 1837.57 Q485.318 1841.11 485.318 1848.24 Q485.318 1855.34 487.123 1858.91 Q488.952 1862.45 492.563 1862.45 Q496.197 1862.45 498.003 1858.91 Q499.831 1855.34 499.831 1848.24 Q499.831 1841.11 498.003 1837.57 Q496.197 1834 492.563 1834 M492.563 1830.3 Q498.373 1830.3 501.429 1834.9 Q504.507 1839.49 504.507 1848.24 Q504.507 1856.96 501.429 1861.57 Q498.373 1866.15 492.563 1866.15 Q486.753 1866.15 483.674 1861.57 Q480.619 1856.96 480.619 1848.24 Q480.619 1839.49 483.674 1834.9 Q486.753 1830.3 492.563 1830.3 Z" fill="#000000" fill-rule="evenodd" fill-opacity="1" /><path clip-path="url(#clip930)" d="M512.725 1859.6 L517.609 1859.6 L517.609 1865.48 L512.725 1865.48 L512.725 1859.6 Z" fill="#000000" fill-rule="evenodd" fill-opacity="1" /><path clip-path="url(#clip930)" d="M531.822 1861.55 L548.141 1861.55 L548.141 1865.48 L526.197 1865.48 L526.197 1861.55 Q528.859 1858.79 533.442 1854.16 Q538.049 1849.51 539.229 1848.17 Q541.475 1845.65 542.354 1843.91 Q543.257 1842.15 543.257 1840.46 Q543.257 1837.71 541.313 1835.97 Q539.391 1834.23 536.29 1834.23 Q534.091 1834.23 531.637 1835 Q529.206 1835.76 526.429 1837.31 L526.429 1832.59 Q529.253 1831.46 531.706 1830.88 Q534.16 1830.3 536.197 1830.3 Q541.567 1830.3 544.762 1832.98 Q547.956 1835.67 547.956 1840.16 Q547.956 1842.29 547.146 1844.21 Q546.359 1846.11 544.253 1848.7 Q543.674 1849.37 540.572 1852.59 Q537.47 1855.78 531.822 1861.55 Z" fill="#000000" fill-rule="evenodd" fill-opacity="1" /><path clip-path="url(#clip930)" d="M903.962 1848.65 L933.638 1848.65 L933.638 1852.59 L903.962 1852.59 L903.962 1848.65 Z" fill="#000000" fill-rule="evenodd" fill-opacity="1" /><path clip-path="url(#clip930)" d="M953.73 1834 Q950.119 1834 948.29 1837.57 Q946.485 1841.11 946.485 1848.24 Q946.485 1855.34 948.29 1858.91 Q950.119 1862.45 953.73 1862.45 Q957.364 1862.45 959.17 1858.91 Q960.999 1855.34 960.999 1848.24 Q960.999 1841.11 959.17 1837.57 Q957.364 1834 953.73 1834 M953.73 1830.3 Q959.54 1830.3 962.596 1834.9 Q965.674 1839.49 965.674 1848.24 Q965.674 1856.96 962.596 1861.57 Q959.54 1866.15 953.73 1866.15 Q947.92 1866.15 944.841 1861.57 Q941.786 1856.96 941.786 1848.24 Q941.786 1839.49 944.841 1834.9 Q947.92 1830.3 953.73 1830.3 Z" fill="#000000" fill-rule="evenodd" fill-opacity="1" /><path clip-path="url(#clip930)" d="M973.892 1859.6 L978.776 1859.6 L978.776 1865.48 L973.892 1865.48 L973.892 1859.6 Z" fill="#000000" fill-rule="evenodd" fill-opacity="1" /><path clip-path="url(#clip930)" d="M989.772 1861.55 L997.41 1861.55 L997.41 1835.18 L989.1 1836.85 L989.1 1832.59 L997.364 1830.92 L1002.04 1830.92 L1002.04 1861.55 L1009.68 1861.55 L1009.68 1865.48 L989.772 1865.48 L989.772 1861.55 Z" fill="#000000" fill-rule="evenodd" fill-opacity="1" /><path clip-path="url(#clip930)" d="M1395.56 1834 Q1391.95 1834 1390.12 1837.57 Q1388.31 1841.11 1388.31 1848.24 Q1388.31 1855.34 1390.12 1858.91 Q1391.95 1862.45 1395.56 1862.45 Q1399.19 1862.45 1401 1858.91 Q1402.83 1855.34 1402.83 1848.24 Q1402.83 1841.11 1401 1837.57 Q1399.19 1834 1395.56 1834 M1395.56 1830.3 Q1401.37 1830.3 1404.42 1834.9 Q1407.5 1839.49 1407.5 1848.24 Q1407.5 1856.96 1404.42 1861.57 Q1401.37 1866.15 1395.56 1866.15 Q1389.75 1866.15 1386.67 1861.57 Q1383.61 1856.96 1383.61 1848.24 Q1383.61 1839.49 1386.67 1834.9 Q1389.75 1830.3 1395.56 1830.3 Z" fill="#000000" fill-rule="evenodd" fill-opacity="1" /><path clip-path="url(#clip930)" d="M1415.72 1859.6 L1420.6 1859.6 L1420.6 1865.48 L1415.72 1865.48 L1415.72 1859.6 Z" fill="#000000" fill-rule="evenodd" fill-opacity="1" /><path clip-path="url(#clip930)" d="M1440.79 1834 Q1437.18 1834 1435.35 1837.57 Q1433.54 1841.11 1433.54 1848.24 Q1433.54 1855.34 1435.35 1858.91 Q1437.18 1862.45 1440.79 1862.45 Q1444.42 1862.45 1446.23 1858.91 Q1448.06 1855.34 1448.06 1848.24 Q1448.06 1841.11 1446.23 1837.57 Q1444.42 1834 1440.79 1834 M1440.79 1830.3 Q1446.6 1830.3 1449.65 1834.9 Q1452.73 1839.49 1452.73 1848.24 Q1452.73 1856.96 1449.65 1861.57 Q1446.6 1866.15 1440.79 1866.15 Q1434.98 1866.15 1431.9 1861.57 Q1428.84 1856.96 1428.84 1848.24 Q1428.84 1839.49 1431.9 1834.9 Q1434.98 1830.3 1440.79 1830.3 Z" fill="#000000" fill-rule="evenodd" fill-opacity="1" /><path clip-path="url(#clip930)" d="M1857.52 1834 Q1853.91 1834 1852.08 1837.57 Q1850.28 1841.11 1850.28 1848.24 Q1850.28 1855.34 1852.08 1858.91 Q1853.91 1862.45 1857.52 1862.45 Q1861.16 1862.45 1862.96 1858.91 Q1864.79 1855.34 1864.79 1848.24 Q1864.79 1841.11 1862.96 1837.57 Q1861.16 1834 1857.52 1834 M1857.52 1830.3 Q1863.33 1830.3 1866.39 1834.9 Q1869.47 1839.49 1869.47 1848.24 Q1869.47 1856.96 1866.39 1861.57 Q1863.33 1866.15 1857.52 1866.15 Q1851.71 1866.15 1848.63 1861.57 Q1845.58 1856.96 1845.58 1848.24 Q1845.58 1839.49 1848.63 1834.9 Q1851.71 1830.3 1857.52 1830.3 Z" fill="#000000" fill-rule="evenodd" fill-opacity="1" /><path clip-path="url(#clip930)" d="M1877.68 1859.6 L1882.57 1859.6 L1882.57 1865.48 L1877.68 1865.48 L1877.68 1859.6 Z" fill="#000000" fill-rule="evenodd" fill-opacity="1" /><path clip-path="url(#clip930)" d="M1893.56 1861.55 L1901.2 1861.55 L1901.2 1835.18 L1892.89 1836.85 L1892.89 1832.59 L1901.16 1830.92 L1905.83 1830.92 L1905.83 1861.55 L1913.47 1861.55 L1913.47 1865.48 L1893.56 1865.48 L1893.56 1861.55 Z" fill="#000000" fill-rule="evenodd" fill-opacity="1" /><path clip-path="url(#clip930)" d="M2319.06 1834 Q2315.45 1834 2313.62 1837.57 Q2311.81 1841.11 2311.81 1848.24 Q2311.81 1855.34 2313.62 1858.91 Q2315.45 1862.45 2319.06 1862.45 Q2322.69 1862.45 2324.5 1858.91 Q2326.33 1855.34 2326.33 1848.24 Q2326.33 1841.11 2324.5 1837.57 Q2322.69 1834 2319.06 1834 M2319.06 1830.3 Q2324.87 1830.3 2327.93 1834.9 Q2331 1839.49 2331 1848.24 Q2331 1856.96 2327.93 1861.57 Q2324.87 1866.15 2319.06 1866.15 Q2313.25 1866.15 2310.17 1861.57 Q2307.12 1856.96 2307.12 1848.24 Q2307.12 1839.49 2310.17 1834.9 Q2313.25 1830.3 2319.06 1830.3 Z" fill="#000000" fill-rule="evenodd" fill-opacity="1" /><path clip-path="url(#clip930)" d="M2339.22 1859.6 L2344.11 1859.6 L2344.11 1865.48 L2339.22 1865.48 L2339.22 1859.6 Z" fill="#000000" fill-rule="evenodd" fill-opacity="1" /><path clip-path="url(#clip930)" d="M2358.32 1861.55 L2374.64 1861.55 L2374.64 1865.48 L2352.69 1865.48 L2352.69 1861.55 Q2355.36 1858.79 2359.94 1854.16 Q2364.55 1849.51 2365.73 1848.17 Q2367.97 1845.65 2368.85 1843.91 Q2369.75 1842.15 2369.75 1840.46 Q2369.75 1837.71 2367.81 1835.97 Q2365.89 1834.23 2362.79 1834.23 Q2360.59 1834.23 2358.13 1835 Q2355.7 1835.76 2352.93 1837.31 L2352.93 1832.59 Q2355.75 1831.46 2358.2 1830.88 Q2360.66 1830.3 2362.69 1830.3 Q2368.06 1830.3 2371.26 1832.98 Q2374.45 1835.67 2374.45 1840.16 Q2374.45 1842.29 2373.64 1844.21 Q2372.86 1846.11 2370.75 1848.7 Q2370.17 1849.37 2367.07 1852.59 Q2363.97 1855.78 2358.32 1861.55 Z" fill="#000000" fill-rule="evenodd" fill-opacity="1" /><polyline clip-path="url(#clip932)" style="stroke:#000000; stroke-linecap:butt; stroke-linejoin:round; stroke-width:2; stroke-opacity:0.1; fill:none" points="
  195.589,1585.72 2640.76,1585.72 
  "/>
<polyline clip-path="url(#clip932)" style="stroke:#000000; stroke-linecap:butt; stroke-linejoin:round; stroke-width:2; stroke-opacity:0.1; fill:none" points="
  195.589,1254.87 2640.76,1254.87 
  "/>
<polyline clip-path="url(#clip932)" style="stroke:#000000; stroke-linecap:butt; stroke-linejoin:round; stroke-width:2; stroke-opacity:0.1; fill:none" points="
  195.589,924.012 2640.76,924.012 
  "/>
<polyline clip-path="url(#clip932)" style="stroke:#000000; stroke-linecap:butt; stroke-linejoin:round; stroke-width:2; stroke-opacity:0.1; fill:none" points="
  195.589,593.156 2640.76,593.156 
  "/>
<polyline clip-path="url(#clip932)" style="stroke:#000000; stroke-linecap:butt; stroke-linejoin:round; stroke-width:2; stroke-opacity:0.1; fill:none" points="
  195.589,262.3 2640.76,262.3 
  "/>
<polyline clip-path="url(#clip930)" style="stroke:#000000; stroke-linecap:butt; stroke-linejoin:round; stroke-width:4; stroke-opacity:1; fill:none" points="
  195.589,1800.78 195.589,47.2441 
  "/>
<polyline clip-path="url(#clip930)" style="stroke:#000000; stroke-linecap:butt; stroke-linejoin:round; stroke-width:4; stroke-opacity:1; fill:none" points="
  195.589,1585.72 214.487,1585.72 
  "/>
<polyline clip-path="url(#clip930)" style="stroke:#000000; stroke-linecap:butt; stroke-linejoin:round; stroke-width:4; stroke-opacity:1; fill:none" points="
  195.589,1254.87 214.487,1254.87 
  "/>
<polyline clip-path="url(#clip930)" style="stroke:#000000; stroke-linecap:butt; stroke-linejoin:round; stroke-width:4; stroke-opacity:1; fill:none" points="
  195.589,924.012 214.487,924.012 
  "/>
<polyline clip-path="url(#clip930)" style="stroke:#000000; stroke-linecap:butt; stroke-linejoin:round; stroke-width:4; stroke-opacity:1; fill:none" points="
  195.589,593.156 214.487,593.156 
  "/>
<polyline clip-path="url(#clip930)" style="stroke:#000000; stroke-linecap:butt; stroke-linejoin:round; stroke-width:4; stroke-opacity:1; fill:none" points="
  195.589,262.3 214.487,262.3 
  "/>
<path clip-path="url(#clip930)" d="M49.9225 1586.17 L79.5983 1586.17 L79.5983 1590.11 L49.9225 1590.11 L49.9225 1586.17 Z" fill="#000000" fill-rule="evenodd" fill-opacity="1" /><path clip-path="url(#clip930)" d="M99.6907 1571.52 Q96.0797 1571.52 94.251 1575.09 Q92.4454 1578.63 92.4454 1585.76 Q92.4454 1592.86 94.251 1596.43 Q96.0797 1599.97 99.6907 1599.97 Q103.325 1599.97 105.131 1596.43 Q106.959 1592.86 106.959 1585.76 Q106.959 1578.63 105.131 1575.09 Q103.325 1571.52 99.6907 1571.52 M99.6907 1567.82 Q105.501 1567.82 108.556 1572.42 Q111.635 1577.01 111.635 1585.76 Q111.635 1594.48 108.556 1599.09 Q105.501 1603.67 99.6907 1603.67 Q93.8806 1603.67 90.8019 1599.09 Q87.7464 1594.48 87.7464 1585.76 Q87.7464 1577.01 90.8019 1572.42 Q93.8806 1567.82 99.6907 1567.82 Z" fill="#000000" fill-rule="evenodd" fill-opacity="1" /><path clip-path="url(#clip930)" d="M119.853 1597.12 L124.737 1597.12 L124.737 1603 L119.853 1603 L119.853 1597.12 Z" fill="#000000" fill-rule="evenodd" fill-opacity="1" /><path clip-path="url(#clip930)" d="M138.95 1599.07 L155.269 1599.07 L155.269 1603 L133.325 1603 L133.325 1599.07 Q135.987 1596.31 140.57 1591.68 Q145.177 1587.03 146.357 1585.69 Q148.603 1583.17 149.482 1581.43 Q150.385 1579.67 150.385 1577.98 Q150.385 1575.23 148.44 1573.49 Q146.519 1571.75 143.417 1571.75 Q141.218 1571.75 138.765 1572.52 Q136.334 1573.28 133.556 1574.83 L133.556 1570.11 Q136.38 1568.98 138.834 1568.4 Q141.288 1567.82 143.325 1567.82 Q148.695 1567.82 151.89 1570.5 Q155.084 1573.19 155.084 1577.68 Q155.084 1579.81 154.274 1581.73 Q153.487 1583.63 151.38 1586.22 Q150.802 1586.89 147.7 1590.11 Q144.598 1593.3 138.95 1599.07 Z" fill="#000000" fill-rule="evenodd" fill-opacity="1" /><path clip-path="url(#clip930)" d="M49.5521 1255.32 L79.2279 1255.32 L79.2279 1259.25 L49.5521 1259.25 L49.5521 1255.32 Z" fill="#000000" fill-rule="evenodd" fill-opacity="1" /><path clip-path="url(#clip930)" d="M99.3204 1240.67 Q95.7093 1240.67 93.8806 1244.23 Q92.075 1247.77 92.075 1254.9 Q92.075 1262.01 93.8806 1265.57 Q95.7093 1269.12 99.3204 1269.12 Q102.955 1269.12 104.76 1265.57 Q106.589 1262.01 106.589 1254.9 Q106.589 1247.77 104.76 1244.23 Q102.955 1240.67 99.3204 1240.67 M99.3204 1236.96 Q105.131 1236.96 108.186 1241.57 Q111.265 1246.15 111.265 1254.9 Q111.265 1263.63 108.186 1268.24 Q105.131 1272.82 99.3204 1272.82 Q93.5102 1272.82 90.4315 1268.24 Q87.376 1263.63 87.376 1254.9 Q87.376 1246.15 90.4315 1241.57 Q93.5102 1236.96 99.3204 1236.96 Z" fill="#000000" fill-rule="evenodd" fill-opacity="1" /><path clip-path="url(#clip930)" d="M119.482 1266.27 L124.367 1266.27 L124.367 1272.15 L119.482 1272.15 L119.482 1266.27 Z" fill="#000000" fill-rule="evenodd" fill-opacity="1" /><path clip-path="url(#clip930)" d="M135.362 1268.21 L143.001 1268.21 L143.001 1241.85 L134.691 1243.51 L134.691 1239.25 L142.954 1237.59 L147.63 1237.59 L147.63 1268.21 L155.269 1268.21 L155.269 1272.15 L135.362 1272.15 L135.362 1268.21 Z" fill="#000000" fill-rule="evenodd" fill-opacity="1" /><path clip-path="url(#clip930)" d="M98.0935 909.81 Q94.4824 909.81 92.6537 913.375 Q90.8482 916.917 90.8482 924.046 Q90.8482 931.153 92.6537 934.718 Q94.4824 938.259 98.0935 938.259 Q101.728 938.259 103.533 934.718 Q105.362 931.153 105.362 924.046 Q105.362 916.917 103.533 913.375 Q101.728 909.81 98.0935 909.81 M98.0935 906.107 Q103.904 906.107 106.959 910.713 Q110.038 915.296 110.038 924.046 Q110.038 932.773 106.959 937.38 Q103.904 941.963 98.0935 941.963 Q92.2834 941.963 89.2047 937.38 Q86.1492 932.773 86.1492 924.046 Q86.1492 915.296 89.2047 910.713 Q92.2834 906.107 98.0935 906.107 Z" fill="#000000" fill-rule="evenodd" fill-opacity="1" /><path clip-path="url(#clip930)" d="M118.255 935.412 L123.14 935.412 L123.14 941.292 L118.255 941.292 L118.255 935.412 Z" fill="#000000" fill-rule="evenodd" fill-opacity="1" /><path clip-path="url(#clip930)" d="M143.325 909.81 Q139.714 909.81 137.885 913.375 Q136.079 916.917 136.079 924.046 Q136.079 931.153 137.885 934.718 Q139.714 938.259 143.325 938.259 Q146.959 938.259 148.765 934.718 Q150.593 931.153 150.593 924.046 Q150.593 916.917 148.765 913.375 Q146.959 909.81 143.325 909.81 M143.325 906.107 Q149.135 906.107 152.19 910.713 Q155.269 915.296 155.269 924.046 Q155.269 932.773 152.19 937.38 Q149.135 941.963 143.325 941.963 Q137.515 941.963 134.436 937.38 Q131.38 932.773 131.38 924.046 Q131.38 915.296 134.436 910.713 Q137.515 906.107 143.325 906.107 Z" fill="#000000" fill-rule="evenodd" fill-opacity="1" /><path clip-path="url(#clip930)" d="M99.3204 578.955 Q95.7093 578.955 93.8806 582.519 Q92.075 586.061 92.075 593.191 Q92.075 600.297 93.8806 603.862 Q95.7093 607.404 99.3204 607.404 Q102.955 607.404 104.76 603.862 Q106.589 600.297 106.589 593.191 Q106.589 586.061 104.76 582.519 Q102.955 578.955 99.3204 578.955 M99.3204 575.251 Q105.131 575.251 108.186 579.857 Q111.265 584.441 111.265 593.191 Q111.265 601.918 108.186 606.524 Q105.131 611.107 99.3204 611.107 Q93.5102 611.107 90.4315 606.524 Q87.376 601.918 87.376 593.191 Q87.376 584.441 90.4315 579.857 Q93.5102 575.251 99.3204 575.251 Z" fill="#000000" fill-rule="evenodd" fill-opacity="1" /><path clip-path="url(#clip930)" d="M119.482 604.556 L124.367 604.556 L124.367 610.436 L119.482 610.436 L119.482 604.556 Z" fill="#000000" fill-rule="evenodd" fill-opacity="1" /><path clip-path="url(#clip930)" d="M135.362 606.501 L143.001 606.501 L143.001 580.135 L134.691 581.802 L134.691 577.543 L142.954 575.876 L147.63 575.876 L147.63 606.501 L155.269 606.501 L155.269 610.436 L135.362 610.436 L135.362 606.501 Z" fill="#000000" fill-rule="evenodd" fill-opacity="1" /><path clip-path="url(#clip930)" d="M99.6907 248.099 Q96.0797 248.099 94.251 251.664 Q92.4454 255.205 92.4454 262.335 Q92.4454 269.441 94.251 273.006 Q96.0797 276.548 99.6907 276.548 Q103.325 276.548 105.131 273.006 Q106.959 269.441 106.959 262.335 Q106.959 255.205 105.131 251.664 Q103.325 248.099 99.6907 248.099 M99.6907 244.395 Q105.501 244.395 108.556 249.002 Q111.635 253.585 111.635 262.335 Q111.635 271.062 108.556 275.668 Q105.501 280.252 99.6907 280.252 Q93.8806 280.252 90.8019 275.668 Q87.7464 271.062 87.7464 262.335 Q87.7464 253.585 90.8019 249.002 Q93.8806 244.395 99.6907 244.395 Z" fill="#000000" fill-rule="evenodd" fill-opacity="1" /><path clip-path="url(#clip930)" d="M119.853 273.701 L124.737 273.701 L124.737 279.58 L119.853 279.58 L119.853 273.701 Z" fill="#000000" fill-rule="evenodd" fill-opacity="1" /><path clip-path="url(#clip930)" d="M138.95 275.645 L155.269 275.645 L155.269 279.58 L133.325 279.58 L133.325 275.645 Q135.987 272.891 140.57 268.261 Q145.177 263.608 146.357 262.266 Q148.603 259.742 149.482 258.006 Q150.385 256.247 150.385 254.557 Q150.385 251.803 148.44 250.067 Q146.519 248.33 143.417 248.33 Q141.218 248.33 138.765 249.094 Q136.334 249.858 133.556 251.409 L133.556 246.687 Q136.38 245.553 138.834 244.974 Q141.288 244.395 143.325 244.395 Q148.695 244.395 151.89 247.08 Q155.084 249.766 155.084 254.256 Q155.084 256.386 154.274 258.307 Q153.487 260.205 151.38 262.798 Q150.802 263.469 147.7 266.687 Q144.598 269.881 138.95 275.645 Z" fill="#000000" fill-rule="evenodd" fill-opacity="1" /><polyline clip-path="url(#clip932)" style="stroke:#009af9; stroke-linecap:butt; stroke-linejoin:round; stroke-width:4; stroke-opacity:1; fill:none" points="
  264.792,1549.99 270.424,1557.38 276.056,1564.51 281.688,1571.39 287.319,1578.01 313.357,1604.98 339.394,1625.35 365.431,1638.24 391.469,1642.74 417.506,1637.91 
  443.543,1622.8 469.581,1596.53 495.618,1558.29 511.265,1529.27 526.913,1495.59 542.56,1457.2 558.207,1414.08 573.855,1366.3 589.502,1313.99 605.149,1257.38 
  620.797,1196.81 673.715,969.883 726.634,736.291 741.005,678.603 755.376,626.057 769.747,580.307 784.118,543.108 798.489,516.268 812.86,501.572 820.046,499.308 
  827.231,500.688 834.417,505.881 841.602,515.029 854.851,542.603 868.1,584.277 874.724,610.336 881.349,639.749 887.973,672.355 894.598,707.929 907.846,786.757 
  921.095,873.04 934.344,962.335 947.593,1048.92 954.695,1091.86 961.797,1130.89 968.899,1164.81 976.001,1192.38 983.104,1212.42 990.206,1223.83 997.308,1225.66 
  1004.41,1217.2 1011.51,1198.03 1018.61,1168.15 1025.72,1128.03 1032.82,1078.73 1047.02,960.108 1061.23,834.168 1069.45,769.973 1077.68,720.771 1081.8,703.92 
  1085.91,693.254 1090.03,689.396 1094.14,692.811 1098.25,703.761 1102.37,722.263 1106.48,748.046 1110.6,780.516 1118.83,861.393 1127.05,953.067 1131.17,997.826 
  1135.28,1038.66 1139.4,1073.05 1143.51,1098.58 1145.57,1107.33 1147.63,1113.09 1149.68,1115.68 1151.74,1114.95 1153.8,1110.81 1155.85,1103.24 1157.91,1092.26 
  1159.97,1077.98 1164.08,1040.36 1168.2,992.779 1172.31,938.955 1176.43,883.729 1180.54,832.781 1184.65,792.109 1186.71,777.415 1188.77,767.313 1190.82,762.295 
  1192.88,762.715 1194.71,767.806 1196.54,777.342 1198.37,791.19 1200.19,809.073 1203.85,855.089 1207.51,910.222 1211.16,967.23 1214.82,1017.52 1216.65,1037.39 
  1218.48,1052.38 1220.3,1061.64 1222.13,1064.54 1223.96,1060.7 1225.79,1050.05 1227.62,1032.89 1229.44,1009.89 1233.1,950.96 1236.76,885.82 1238.59,855.948 
  1240.41,830.718 1242.24,812.107 1244.07,801.763 1245.9,800.827 1247.73,809.772 1249.55,828.271 1251.38,855.121 1255.04,924.734 1258.69,993.639 1260.52,1018.53 
  1262.35,1032.62 1264.18,1033.73 1266.01,1021.11 1267.84,995.761 1269.66,960.571 1271.49,920.143 1273.32,880.355 1275.15,847.577 1276.98,827.652 1277.89,823.906 
  1278.8,824.739 1279.72,830.233 1280.63,840.246 1282.46,872.092 1284.29,914.568 1286.12,959.009 1287.94,995.331 1288.86,1007.46 1289.77,1014.3 1290.69,1015.27 
  1291.6,1010.13 1292.51,999.059 1293.43,982.671 1294.34,962.007 1295.26,938.495 1297.09,890.067 1298.91,852.714 1299.83,842.597 1300.74,839.809 1301.66,844.834 
  1302.57,857.434 1303.48,876.6 1304.4,900.587 1305.31,927.024 1306.23,953.117 1307.14,975.931 1308.05,992.715 1308.97,1001.26 1309.88,1000.25 1310.68,991.312 
  1311.48,975.545 1312.29,954.395 1313.09,929.982 1313.89,904.92 1314.69,882.058 1315.49,864.164 1316.29,853.567 1317.1,851.823 1317.9,859.433 1318.7,875.672 
  1319.5,898.57 1320.3,925.075 1321.1,951.402 1321.91,973.543 1322.71,987.884 1323.51,991.843 1324.31,984.414 1325.11,966.511 1325.91,940.998 1326.71,912.359 
  1327.52,885.992 1328.32,867.222 1329.12,860.176 1329.92,866.763 1330.72,885.999 1331.52,913.918 1332.33,944.193 1333.13,969.447 1333.93,983.047 1334.73,980.965 
  1335.53,963.208 1336.33,934.281 1337.13,902.363 1337.94,877.192 1338.74,867.091 1339.54,875.992 1340.34,901.523 1341.14,935.1 1341.94,964.421 1342.75,977.856 
  1343.55,969.32 1344.35,941.585 1345.15,906.172 1345.95,879.116 1346.75,873.764 1347.55,893.662 1348.36,929.381 1349.16,961.998 1349.96,972.734 1350.76,954.296 
  1351.56,917.034 1352.36,884.551 1353.17,879.257 1353.97,906.039 1354.77,946.106 1355.57,968.518 1356.37,954.115 1357.17,913.858 1357.97,883.164 1358.78,891.564 
  1359.58,932.216 1360.38,963.817 1361.18,951.277 1361.98,907.417 1362.78,884.325 1363.59,912.223 1364.39,955.469 1365.19,953.545 1365.99,907.828 1366.79,888.362 
  1367.59,927.916 1368.39,959.709 1369.2,925.701 1370,889.51 1370.8,923.945 1371.6,957.232 1372.4,915.337 1373.2,895.609 1374.01,946.388 1374.81,936.872 
  1375.61,893.488 1376.41,938.787 1377.21,937.154 1378.01,895.865 1378.82,947.489 1379.62,916.432 1380.42,915.405 1382.02,899.964 1383.62,899.241 1385.23,901.042 
  1386.83,914.134 1390.04,912.434 1393.24,918.879 1394.04,916.854 1394.85,921.691 1395.65,933.341 1396.45,938.804 1397.25,915.519 1398.05,923.46 1398.85,923.309 
  1399.66,934.916 1400.46,919.894 1401.26,917.619 1402.06,929.014 1402.86,926.943 1404.46,927.942 1406.07,931.325 1409.27,924.632 1412.48,924.206 1419.47,923.106 
  1426.46,926.566 1428.21,918.221 1429.96,915.989 1431.71,914.311 1433.45,920.651 1435.2,915.765 1436.95,915.794 1437.82,913.466 1438.7,938.557 1439.57,909.871 
  1440.45,927.285 1441.32,940.363 1442.19,931.184 1443.07,923.48 1443.94,923.426 1444.81,931.076 1445.69,942.12 1446.56,939.406 1447.44,912.635 1448.31,907.676 
  1449.18,943.956 1450.06,919.992 1450.93,911.903 1451.81,945.043 1452.68,899.662 1453.55,949.381 1454.43,898.015 1455.3,950.283 1456.18,899.446 1457.05,942.19 
  1457.92,918.977 1458.8,910.886 1459.67,951.933 1460.54,897.277 1461.42,928.157 1462.29,948.688 1463.17,894.74 1464.04,922.317 1464.91,956.421 1465.79,907.674 
  1466.66,896.848 1467.54,949.106 1468.41,947.982 1469.28,896.663 1470.16,897.741 1471.03,948.002 1471.91,957.182 1472.78,911.055 1473.65,884.412 1474.53,916.613 
  1475.4,959.934 1476.28,955.673 1477.15,910.968 1478.02,881.374 1478.9,900.273 1479.77,945.242 1480.64,968.803 1481.52,948.67 1482.39,905.345 1483.27,878.161 
  1484.14,889.393 1485.01,928.485 1485.89,964.456 1486.76,971.264 1487.64,945.369 1488.51,905.204 1489.38,876.658 1490.26,876.43 1491.13,903.514 1492.01,941.965 
  1492.88,971.184 1493.75,976.906 1494.63,957.323 1495.5,922.405 1496.38,888.068 1497.25,868.708 1498.12,871.533 1499,894.596 1499.87,928.595 1500.74,961.06 
  1501.62,981.007 1502.49,982.397 1503.37,965.489 1504.24,936.055 1505.11,903.077 1505.99,875.857 1506.86,861.466 1507.74,863.143 1508.61,879.894 1509.48,907.186 
  1510.36,938.382 1511.23,966.445 1512.11,985.508 1512.98,991.966 1513.85,984.978 1514.73,966.338 1515.6,939.877 1516.47,910.566 1517.35,883.533 1518.22,863.184 
  1519.1,852.556 1519.97,852.975 1520.84,864.019 1521.72,883.745 1522.59,909.118 1523.47,936.524 1524.34,962.314 1525.22,983.375 1526.1,997.089 1526.98,1002.04 
  1527.86,997.916 1528.74,985.469 1529.61,966.309 1530.49,942.665 1531.37,917.097 1532.25,892.202 1533.13,870.361 1534.01,853.524 1534.89,843.072 1535.77,839.739 
  1536.65,843.604 1537.53,854.139 1538.41,870.305 1540.16,913.593 1541.92,960.032 1542.8,980.274 1543.68,996.708 1544.56,1008.35 1545.44,1014.59 1546.32,1015.18 
  1547.2,1010.24 1548.08,1000.2 1548.95,985.775 1550.71,947.611 1552.47,904.426 1554.23,865.062 1555.99,836.784 1556.87,828.348 1557.75,824.148 1558.62,824.26 
  1559.5,828.575 1561.26,848.547 1563.02,880.245 1564.78,918.449 1566.54,957.48 1568.29,992.056 1570.05,1017.94 1571.81,1032.35 1573.57,1034.09 1575.33,1023.52 
  1577.09,1002.31 1578.84,973.056 1580.6,938.98 1582.36,903.477 1584.12,869.797 1585.88,840.768 1587.64,818.601 1589.39,804.781 1591.15,800.027 1592.91,804.33 
  1594.67,817.036 1596.43,836.963 1598.18,862.543 1599.94,891.966 1601.7,923.324 1605.22,984.445 1608.73,1032.95 1610.49,1049.55 1612.25,1060.15 1614.01,1064.45 
  1615.77,1062.5 1617.52,1054.59 1619.28,1041.25 1621.04,1023.21 1622.8,1001.33 1626.32,949.858 1629.83,894.717 1633.35,843.3 1636.86,801.633 1638.81,784.385 
  1640.75,771.86 1642.7,764.307 1644.64,761.794 1646.58,764.23 1648.53,771.377 1650.47,782.875 1652.42,798.265 1656.3,838.518 1660.19,887.305 1664.08,939.561 
  1667.97,990.506 1671.85,1036.03 1675.74,1072.94 1679.63,1099.05 1683.52,1113.19 1687.41,1115.12 1691.29,1105.4 1695.18,1085.23 1699.07,1056.28 1706.85,980.004 
  1714.62,893.227 1722.4,811.266 1730.17,745.859 1734.06,721.812 1737.95,704.277 1741.84,693.483 1745.72,689.431 1749.61,691.922 1753.5,700.589 1757.39,714.932 
  1761.27,734.349 1768.67,782.853 1776.07,842.25 1783.47,907.484 1790.87,973.853 1798.27,1037.28 1805.66,1094.45 1813.06,1142.88 1820.46,1180.89 1827.86,1207.52 
  1835.26,1222.48 1842.66,1225.97 1850.05,1218.66 1857.45,1201.51 1864.85,1175.68 1872.25,1142.49 1879.65,1103.31 1910.42,905.529 1941.19,711.059 1948.88,669.741 
  1956.57,632.45 1964.27,599.521 1971.96,571.179 1979.65,547.555 1987.34,528.696 1995.04,514.577 2002.73,505.11 2015.68,499.281 2028.63,505.329 2041.58,522.13 
  2054.53,548.425 2067.48,582.897 2080.43,624.222 2093.39,671.117 2106.34,722.363 2137.96,858.95 2169.58,1001 2201.21,1138.2 2232.83,1263.49 2247.69,1316.95 
  2262.56,1366.51 2277.42,1411.99 2292.28,1453.26 2307.15,1490.28 2322.01,1523.03 2336.87,1551.57 2351.74,1575.97 2375.55,1606.7 2399.36,1627.63 2423.17,1639.4 
  2446.99,1642.71 2470.8,1638.28 2494.61,1626.83 2518.42,1609.05 2542.24,1585.63 2549.57,1577.39 2556.89,1568.69 2564.22,1559.55 2571.55,1549.99 
  "/>
<polyline clip-path="url(#clip932)" style="stroke:#e26f46; stroke-linecap:butt; stroke-linejoin:round; stroke-width:4; stroke-opacity:1; fill:none" points="
  264.792,96.8724 287.319,113.028 495.618,262.408 620.797,352.179 726.634,428.079 841.602,510.528 947.593,586.539 1061.23,668.03 1192.88,762.446 1251.38,804.399 
  1309.88,846.352 1335.53,864.746 1361.18,883.141 1386.83,901.535 1412.48,919.929 1426.46,918.066 1440.45,908.039 1454.43,898.012 1468.41,887.984 1496.38,867.929 
  1524.34,847.874 1580.6,807.526 1636.86,767.178 1761.27,677.958 1879.65,593.068 2002.73,504.801 2106.34,430.499 2232.83,339.786 2351.74,254.512 2542.24,117.897 
  2571.55,96.8724 
  "/>
<polyline clip-path="url(#clip932)" style="stroke:#3da44d; stroke-linecap:butt; stroke-linejoin:round; stroke-width:4; stroke-opacity:1; fill:none" points="
  264.792,1751.15 287.319,1735 495.618,1585.62 620.797,1495.84 726.634,1419.94 841.602,1337.5 947.593,1261.48 1061.23,1179.99 1192.88,1085.58 1251.38,1043.62 
  1309.88,1001.67 1335.53,983.277 1361.18,964.883 1386.83,946.488 1412.48,928.094 1426.46,929.957 1440.45,939.984 1454.43,950.012 1468.41,960.039 1496.38,980.094 
  1524.34,1000.15 1580.6,1040.5 1636.86,1080.85 1761.27,1170.07 1879.65,1254.96 2002.73,1343.22 2106.34,1417.52 2232.83,1508.24 2351.74,1593.51 2542.24,1730.13 
  2571.55,1751.15 
  "/>
<path clip-path="url(#clip930)" d="
M2234.56 313.055 L2559.25 313.055 L2559.25 105.695 L2234.56 105.695  Z
  " fill="#ffffff" fill-rule="evenodd" fill-opacity="1"/>
<polyline clip-path="url(#clip930)" style="stroke:#000000; stroke-linecap:butt; stroke-linejoin:round; stroke-width:4; stroke-opacity:1; fill:none" points="
  2234.56,313.055 2559.25,313.055 2559.25,105.695 2234.56,105.695 2234.56,313.055 
  "/>
<polyline clip-path="url(#clip930)" style="stroke:#009af9; stroke-linecap:butt; stroke-linejoin:round; stroke-width:4; stroke-opacity:1; fill:none" points="
  2261.72,157.535 2424.74,157.535 
  "/>
<path clip-path="url(#clip930)" d="M2465.75 177.223 Q2463.94 181.852 2462.23 183.264 Q2460.52 184.676 2457.65 184.676 L2454.24 184.676 L2454.24 181.112 L2456.74 181.112 Q2458.5 181.112 2459.47 180.278 Q2460.45 179.445 2461.63 176.343 L2462.39 174.399 L2451.9 148.889 L2456.42 148.889 L2464.52 169.167 L2472.62 148.889 L2477.14 148.889 L2465.75 177.223 Z" fill="#000000" fill-rule="evenodd" fill-opacity="1" /><path clip-path="url(#clip930)" d="M2484.43 170.88 L2492.07 170.88 L2492.07 144.515 L2483.76 146.181 L2483.76 141.922 L2492.02 140.255 L2496.7 140.255 L2496.7 170.88 L2504.33 170.88 L2504.33 174.815 L2484.43 174.815 L2484.43 170.88 Z" fill="#000000" fill-rule="evenodd" fill-opacity="1" /><polyline clip-path="url(#clip930)" style="stroke:#e26f46; stroke-linecap:butt; stroke-linejoin:round; stroke-width:4; stroke-opacity:1; fill:none" points="
  2261.72,209.375 2424.74,209.375 
  "/>
<path clip-path="url(#clip930)" d="M2465.75 229.063 Q2463.94 233.692 2462.23 235.104 Q2460.52 236.516 2457.65 236.516 L2454.24 236.516 L2454.24 232.952 L2456.74 232.952 Q2458.5 232.952 2459.47 232.118 Q2460.45 231.285 2461.63 228.183 L2462.39 226.239 L2451.9 200.729 L2456.42 200.729 L2464.52 221.007 L2472.62 200.729 L2477.14 200.729 L2465.75 229.063 Z" fill="#000000" fill-rule="evenodd" fill-opacity="1" /><path clip-path="url(#clip930)" d="M2487.64 222.72 L2503.96 222.72 L2503.96 226.655 L2482.02 226.655 L2482.02 222.72 Q2484.68 219.965 2489.27 215.336 Q2493.87 210.683 2495.05 209.341 Q2497.3 206.817 2498.18 205.081 Q2499.08 203.322 2499.08 201.632 Q2499.08 198.878 2497.14 197.142 Q2495.21 195.405 2492.11 195.405 Q2489.91 195.405 2487.46 196.169 Q2485.03 196.933 2482.25 198.484 L2482.25 193.762 Q2485.08 192.628 2487.53 192.049 Q2489.98 191.47 2492.02 191.47 Q2497.39 191.47 2500.58 194.155 Q2503.78 196.841 2503.78 201.331 Q2503.78 203.461 2502.97 205.382 Q2502.18 207.28 2500.08 209.873 Q2499.5 210.544 2496.39 213.762 Q2493.29 216.956 2487.64 222.72 Z" fill="#000000" fill-rule="evenodd" fill-opacity="1" /><polyline clip-path="url(#clip930)" style="stroke:#3da44d; stroke-linecap:butt; stroke-linejoin:round; stroke-width:4; stroke-opacity:1; fill:none" points="
  2261.72,261.215 2424.74,261.215 
  "/>
<path clip-path="url(#clip930)" d="M2465.75 280.903 Q2463.94 285.532 2462.23 286.944 Q2460.52 288.356 2457.65 288.356 L2454.24 288.356 L2454.24 284.792 L2456.74 284.792 Q2458.5 284.792 2459.47 283.958 Q2460.45 283.125 2461.63 280.023 L2462.39 278.079 L2451.9 252.569 L2456.42 252.569 L2464.52 272.847 L2472.62 252.569 L2477.14 252.569 L2465.75 280.903 Z" fill="#000000" fill-rule="evenodd" fill-opacity="1" /><path clip-path="url(#clip930)" d="M2497.78 259.861 Q2501.14 260.579 2503.02 262.847 Q2504.91 265.116 2504.91 268.449 Q2504.91 273.565 2501.39 276.366 Q2497.88 279.167 2491.39 279.167 Q2489.22 279.167 2486.9 278.727 Q2484.61 278.31 2482.16 277.454 L2482.16 272.94 Q2484.1 274.074 2486.42 274.653 Q2488.73 275.231 2491.26 275.231 Q2495.65 275.231 2497.95 273.495 Q2500.26 271.759 2500.26 268.449 Q2500.26 265.393 2498.11 263.681 Q2495.98 261.944 2492.16 261.944 L2488.13 261.944 L2488.13 258.102 L2492.34 258.102 Q2495.79 258.102 2497.62 256.736 Q2499.45 255.347 2499.45 252.755 Q2499.45 250.093 2497.55 248.681 Q2495.68 247.245 2492.16 247.245 Q2490.24 247.245 2488.04 247.662 Q2485.84 248.079 2483.2 248.958 L2483.2 244.792 Q2485.86 244.051 2488.18 243.681 Q2490.52 243.31 2492.58 243.31 Q2497.9 243.31 2501 245.741 Q2504.1 248.148 2504.1 252.269 Q2504.1 255.139 2502.46 257.13 Q2500.82 259.097 2497.78 259.861 Z" fill="#000000" fill-rule="evenodd" fill-opacity="1" /></svg>
