<?xml version="1.0" encoding="utf-8"?>
<svg xmlns="http://www.w3.org/2000/svg" xmlns:xlink="http://www.w3.org/1999/xlink" width="672" height="480" viewBox="0 0 2688 1920">
<defs>
  <clipPath id="clip830">
    <rect x="0" y="0" width="2688" height="1920"/>
  </clipPath>
</defs>
<path clip-path="url(#clip830)" d="
M0 1920 L2688 1920 L2688 0 L0 0  Z
  " fill="#ffffff" fill-rule="evenodd" fill-opacity="1"/>
<defs>
  <clipPath id="clip831">
    <rect x="537" y="0" width="1883" height="1883"/>
  </clipPath>
</defs>
<path clip-path="url(#clip830)" d="
M249.478 1800.78 L2640.76 1800.78 L2640.76 47.2441 L249.478 47.2441  Z
  " fill="#ffffff" fill-rule="evenodd" fill-opacity="1"/>
<defs>
  <clipPath id="clip832">
    <rect x="249" y="47" width="2392" height="1755"/>
  </clipPath>
</defs>
<polyline clip-path="url(#clip832)" style="stroke:#000000; stroke-linecap:butt; stroke-linejoin:round; stroke-width:2; stroke-opacity:0.1; fill:none" points="
  317.155,1800.78 317.155,47.2441 
  "/>
<polyline clip-path="url(#clip832)" style="stroke:#000000; stroke-linecap:butt; stroke-linejoin:round; stroke-width:2; stroke-opacity:0.1; fill:none" points="
  881.136,1800.78 881.136,47.2441 
  "/>
<polyline clip-path="url(#clip832)" style="stroke:#000000; stroke-linecap:butt; stroke-linejoin:round; stroke-width:2; stroke-opacity:0.1; fill:none" points="
  1445.12,1800.78 1445.12,47.2441 
  "/>
<polyline clip-path="url(#clip832)" style="stroke:#000000; stroke-linecap:butt; stroke-linejoin:round; stroke-width:2; stroke-opacity:0.1; fill:none" points="
  2009.1,1800.78 2009.1,47.2441 
  "/>
<polyline clip-path="url(#clip832)" style="stroke:#000000; stroke-linecap:butt; stroke-linejoin:round; stroke-width:2; stroke-opacity:0.1; fill:none" points="
  2573.08,1800.78 2573.08,47.2441 
  "/>
<polyline clip-path="url(#clip830)" style="stroke:#000000; stroke-linecap:butt; stroke-linejoin:round; stroke-width:4; stroke-opacity:1; fill:none" points="
  249.478,1800.78 2640.76,1800.78 
  "/>
<polyline clip-path="url(#clip830)" style="stroke:#000000; stroke-linecap:butt; stroke-linejoin:round; stroke-width:4; stroke-opacity:1; fill:none" points="
  317.155,1800.78 317.155,1781.88 
  "/>
<polyline clip-path="url(#clip830)" style="stroke:#000000; stroke-linecap:butt; stroke-linejoin:round; stroke-width:4; stroke-opacity:1; fill:none" points="
  881.136,1800.78 881.136,1781.88 
  "/>
<polyline clip-path="url(#clip830)" style="stroke:#000000; stroke-linecap:butt; stroke-linejoin:round; stroke-width:4; stroke-opacity:1; fill:none" points="
  1445.12,1800.78 1445.12,1781.88 
  "/>
<polyline clip-path="url(#clip830)" style="stroke:#000000; stroke-linecap:butt; stroke-linejoin:round; stroke-width:4; stroke-opacity:1; fill:none" points="
  2009.1,1800.78 2009.1,1781.88 
  "/>
<polyline clip-path="url(#clip830)" style="stroke:#000000; stroke-linecap:butt; stroke-linejoin:round; stroke-width:4; stroke-opacity:1; fill:none" points="
  2573.08,1800.78 2573.08,1781.88 
  "/>
<path clip-path="url(#clip830)" d="M248.603 1848.65 L278.278 1848.65 L278.278 1852.59 L248.603 1852.59 L248.603 1848.65 Z" fill="#000000" fill-rule="evenodd" fill-opacity="1" /><path clip-path="url(#clip830)" d="M298.371 1834 Q294.76 1834 292.931 1837.57 Q291.125 1841.11 291.125 1848.24 Q291.125 1855.34 292.931 1858.91 Q294.76 1862.45 298.371 1862.45 Q302.005 1862.45 303.811 1858.91 Q305.639 1855.34 305.639 1848.24 Q305.639 1841.11 303.811 1837.57 Q302.005 1834 298.371 1834 M298.371 1830.3 Q304.181 1830.3 307.237 1834.9 Q310.315 1839.49 310.315 1848.24 Q310.315 1856.96 307.237 1861.57 Q304.181 1866.15 298.371 1866.15 Q292.561 1866.15 289.482 1861.57 Q286.426 1856.96 286.426 1848.24 Q286.426 1839.49 289.482 1834.9 Q292.561 1830.3 298.371 1830.3 Z" fill="#000000" fill-rule="evenodd" fill-opacity="1" /><path clip-path="url(#clip830)" d="M318.533 1859.6 L323.417 1859.6 L323.417 1865.48 L318.533 1865.48 L318.533 1859.6 Z" fill="#000000" fill-rule="evenodd" fill-opacity="1" /><path clip-path="url(#clip830)" d="M334.412 1861.55 L342.051 1861.55 L342.051 1835.18 L333.741 1836.85 L333.741 1832.59 L342.005 1830.92 L346.681 1830.92 L346.681 1861.55 L354.32 1861.55 L354.32 1865.48 L334.412 1865.48 L334.412 1861.55 Z" fill="#000000" fill-rule="evenodd" fill-opacity="1" /><path clip-path="url(#clip830)" d="M373.764 1834 Q370.153 1834 368.324 1837.57 Q366.519 1841.11 366.519 1848.24 Q366.519 1855.34 368.324 1858.91 Q370.153 1862.45 373.764 1862.45 Q377.398 1862.45 379.204 1858.91 Q381.032 1855.34 381.032 1848.24 Q381.032 1841.11 379.204 1837.57 Q377.398 1834 373.764 1834 M373.764 1830.3 Q379.574 1830.3 382.63 1834.9 Q385.708 1839.49 385.708 1848.24 Q385.708 1856.96 382.63 1861.57 Q379.574 1866.15 373.764 1866.15 Q367.954 1866.15 364.875 1861.57 Q361.82 1856.96 361.82 1848.24 Q361.82 1839.49 364.875 1834.9 Q367.954 1830.3 373.764 1830.3 Z" fill="#000000" fill-rule="evenodd" fill-opacity="1" /><path clip-path="url(#clip830)" d="M813.081 1848.65 L842.757 1848.65 L842.757 1852.59 L813.081 1852.59 L813.081 1848.65 Z" fill="#000000" fill-rule="evenodd" fill-opacity="1" /><path clip-path="url(#clip830)" d="M862.849 1834 Q859.238 1834 857.409 1837.57 Q855.604 1841.11 855.604 1848.24 Q855.604 1855.34 857.409 1858.91 Q859.238 1862.45 862.849 1862.45 Q866.483 1862.45 868.289 1858.91 Q870.118 1855.34 870.118 1848.24 Q870.118 1841.11 868.289 1837.57 Q866.483 1834 862.849 1834 M862.849 1830.3 Q868.659 1830.3 871.715 1834.9 Q874.794 1839.49 874.794 1848.24 Q874.794 1856.96 871.715 1861.57 Q868.659 1866.15 862.849 1866.15 Q857.039 1866.15 853.96 1861.57 Q850.905 1856.96 850.905 1848.24 Q850.905 1839.49 853.96 1834.9 Q857.039 1830.3 862.849 1830.3 Z" fill="#000000" fill-rule="evenodd" fill-opacity="1" /><path clip-path="url(#clip830)" d="M883.011 1859.6 L887.895 1859.6 L887.895 1865.48 L883.011 1865.48 L883.011 1859.6 Z" fill="#000000" fill-rule="evenodd" fill-opacity="1" /><path clip-path="url(#clip830)" d="M908.08 1834 Q904.469 1834 902.641 1837.57 Q900.835 1841.11 900.835 1848.24 Q900.835 1855.34 902.641 1858.91 Q904.469 1862.45 908.08 1862.45 Q911.715 1862.45 913.52 1858.91 Q915.349 1855.34 915.349 1848.24 Q915.349 1841.11 913.52 1837.57 Q911.715 1834 908.08 1834 M908.08 1830.3 Q913.891 1830.3 916.946 1834.9 Q920.025 1839.49 920.025 1848.24 Q920.025 1856.96 916.946 1861.57 Q913.891 1866.15 908.08 1866.15 Q902.27 1866.15 899.192 1861.57 Q896.136 1856.96 896.136 1848.24 Q896.136 1839.49 899.192 1834.9 Q902.27 1830.3 908.08 1830.3 Z" fill="#000000" fill-rule="evenodd" fill-opacity="1" /><path clip-path="url(#clip830)" d="M928.289 1830.92 L946.645 1830.92 L946.645 1834.86 L932.571 1834.86 L932.571 1843.33 Q933.59 1842.98 934.608 1842.82 Q935.627 1842.64 936.645 1842.64 Q942.432 1842.64 945.812 1845.81 Q949.191 1848.98 949.191 1854.4 Q949.191 1859.97 945.719 1863.08 Q942.247 1866.15 935.928 1866.15 Q933.752 1866.15 931.483 1865.78 Q929.238 1865.41 926.83 1864.67 L926.83 1859.97 Q928.914 1861.11 931.136 1861.66 Q933.358 1862.22 935.835 1862.22 Q939.84 1862.22 942.177 1860.11 Q944.515 1858.01 944.515 1854.4 Q944.515 1850.78 942.177 1848.68 Q939.84 1846.57 935.835 1846.57 Q933.96 1846.57 932.085 1846.99 Q930.233 1847.4 928.289 1848.28 L928.289 1830.92 Z" fill="#000000" fill-rule="evenodd" fill-opacity="1" /><path clip-path="url(#clip830)" d="M1407.42 1834 Q1403.81 1834 1401.98 1837.57 Q1400.17 1841.11 1400.17 1848.24 Q1400.17 1855.34 1401.98 1858.91 Q1403.81 1862.45 1407.42 1862.45 Q1411.05 1862.45 1412.86 1858.91 Q1414.69 1855.34 1414.69 1848.24 Q1414.69 1841.11 1412.86 1837.57 Q1411.05 1834 1407.42 1834 M1407.42 1830.3 Q1413.23 1830.3 1416.29 1834.9 Q1419.36 1839.49 1419.36 1848.24 Q1419.36 1856.96 1416.29 1861.57 Q1413.23 1866.15 1407.42 1866.15 Q1401.61 1866.15 1398.53 1861.57 Q1395.48 1856.96 1395.48 1848.24 Q1395.48 1839.49 1398.53 1834.9 Q1401.61 1830.3 1407.42 1830.3 Z" fill="#000000" fill-rule="evenodd" fill-opacity="1" /><path clip-path="url(#clip830)" d="M1427.58 1859.6 L1432.47 1859.6 L1432.47 1865.48 L1427.58 1865.48 L1427.58 1859.6 Z" fill="#000000" fill-rule="evenodd" fill-opacity="1" /><path clip-path="url(#clip830)" d="M1452.65 1834 Q1449.04 1834 1447.21 1837.57 Q1445.41 1841.11 1445.41 1848.24 Q1445.41 1855.34 1447.21 1858.91 Q1449.04 1862.45 1452.65 1862.45 Q1456.29 1862.45 1458.09 1858.91 Q1459.92 1855.34 1459.92 1848.24 Q1459.92 1841.11 1458.09 1837.57 Q1456.29 1834 1452.65 1834 M1452.65 1830.3 Q1458.46 1830.3 1461.52 1834.9 Q1464.6 1839.49 1464.6 1848.24 Q1464.6 1856.96 1461.52 1861.57 Q1458.46 1866.15 1452.65 1866.15 Q1446.84 1866.15 1443.76 1861.57 Q1440.71 1856.96 1440.71 1848.24 Q1440.71 1839.49 1443.76 1834.9 Q1446.84 1830.3 1452.65 1830.3 Z" fill="#000000" fill-rule="evenodd" fill-opacity="1" /><path clip-path="url(#clip830)" d="M1482.81 1834 Q1479.2 1834 1477.37 1837.57 Q1475.57 1841.11 1475.57 1848.24 Q1475.57 1855.34 1477.37 1858.91 Q1479.2 1862.45 1482.81 1862.45 Q1486.45 1862.45 1488.25 1858.91 Q1490.08 1855.34 1490.08 1848.24 Q1490.08 1841.11 1488.25 1837.57 Q1486.45 1834 1482.81 1834 M1482.81 1830.3 Q1488.62 1830.3 1491.68 1834.9 Q1494.76 1839.49 1494.76 1848.24 Q1494.76 1856.96 1491.68 1861.57 Q1488.62 1866.15 1482.81 1866.15 Q1477 1866.15 1473.92 1861.57 Q1470.87 1856.96 1470.87 1848.24 Q1470.87 1839.49 1473.92 1834.9 Q1477 1830.3 1482.81 1830.3 Z" fill="#000000" fill-rule="evenodd" fill-opacity="1" /><path clip-path="url(#clip830)" d="M1971.9 1834 Q1968.29 1834 1966.46 1837.57 Q1964.65 1841.11 1964.65 1848.24 Q1964.65 1855.34 1966.46 1858.91 Q1968.29 1862.45 1971.9 1862.45 Q1975.53 1862.45 1977.34 1858.91 Q1979.17 1855.34 1979.17 1848.24 Q1979.17 1841.11 1977.34 1837.57 Q1975.53 1834 1971.9 1834 M1971.9 1830.3 Q1977.71 1830.3 1980.76 1834.9 Q1983.84 1839.49 1983.84 1848.24 Q1983.84 1856.96 1980.76 1861.57 Q1977.71 1866.15 1971.9 1866.15 Q1966.09 1866.15 1963.01 1861.57 Q1959.95 1856.96 1959.95 1848.24 Q1959.95 1839.49 1963.01 1834.9 Q1966.09 1830.3 1971.9 1830.3 Z" fill="#000000" fill-rule="evenodd" fill-opacity="1" /><path clip-path="url(#clip830)" d="M1992.06 1859.6 L1996.94 1859.6 L1996.94 1865.48 L1992.06 1865.48 L1992.06 1859.6 Z" fill="#000000" fill-rule="evenodd" fill-opacity="1" /><path clip-path="url(#clip830)" d="M2017.13 1834 Q2013.52 1834 2011.69 1837.57 Q2009.88 1841.11 2009.88 1848.24 Q2009.88 1855.34 2011.69 1858.91 Q2013.52 1862.45 2017.13 1862.45 Q2020.76 1862.45 2022.57 1858.91 Q2024.4 1855.34 2024.4 1848.24 Q2024.4 1841.11 2022.57 1837.57 Q2020.76 1834 2017.13 1834 M2017.13 1830.3 Q2022.94 1830.3 2026 1834.9 Q2029.07 1839.49 2029.07 1848.24 Q2029.07 1856.96 2026 1861.57 Q2022.94 1866.15 2017.13 1866.15 Q2011.32 1866.15 2008.24 1861.57 Q2005.19 1856.96 2005.19 1848.24 Q2005.19 1839.49 2008.24 1834.9 Q2011.32 1830.3 2017.13 1830.3 Z" fill="#000000" fill-rule="evenodd" fill-opacity="1" /><path clip-path="url(#clip830)" d="M2037.34 1830.92 L2055.69 1830.92 L2055.69 1834.86 L2041.62 1834.86 L2041.62 1843.33 Q2042.64 1842.98 2043.66 1842.82 Q2044.68 1842.64 2045.69 1842.64 Q2051.48 1842.64 2054.86 1845.81 Q2058.24 1848.98 2058.24 1854.4 Q2058.24 1859.97 2054.77 1863.08 Q2051.3 1866.15 2044.98 1866.15 Q2042.8 1866.15 2040.53 1865.78 Q2038.29 1865.41 2035.88 1864.67 L2035.88 1859.97 Q2037.96 1861.11 2040.19 1861.66 Q2042.41 1862.22 2044.88 1862.22 Q2048.89 1862.22 2051.23 1860.11 Q2053.56 1858.01 2053.56 1854.4 Q2053.56 1850.78 2051.23 1848.68 Q2048.89 1846.57 2044.88 1846.57 Q2043.01 1846.57 2041.13 1846.99 Q2039.28 1847.4 2037.34 1848.28 L2037.34 1830.92 Z" fill="#000000" fill-rule="evenodd" fill-opacity="1" /><path clip-path="url(#clip830)" d="M2535.38 1834 Q2531.77 1834 2529.94 1837.57 Q2528.14 1841.11 2528.14 1848.24 Q2528.14 1855.34 2529.94 1858.91 Q2531.77 1862.45 2535.38 1862.45 Q2539.02 1862.45 2540.82 1858.91 Q2542.65 1855.34 2542.65 1848.24 Q2542.65 1841.11 2540.82 1837.57 Q2539.02 1834 2535.38 1834 M2535.38 1830.3 Q2541.19 1830.3 2544.25 1834.9 Q2547.33 1839.49 2547.33 1848.24 Q2547.33 1856.96 2544.25 1861.57 Q2541.19 1866.15 2535.38 1866.15 Q2529.57 1866.15 2526.49 1861.57 Q2523.44 1856.96 2523.44 1848.24 Q2523.44 1839.49 2526.49 1834.9 Q2529.57 1830.3 2535.38 1830.3 Z" fill="#000000" fill-rule="evenodd" fill-opacity="1" /><path clip-path="url(#clip830)" d="M2555.54 1859.6 L2560.43 1859.6 L2560.43 1865.48 L2555.54 1865.48 L2555.54 1859.6 Z" fill="#000000" fill-rule="evenodd" fill-opacity="1" /><path clip-path="url(#clip830)" d="M2571.42 1861.55 L2579.06 1861.55 L2579.06 1835.18 L2570.75 1836.85 L2570.75 1832.59 L2579.02 1830.92 L2583.69 1830.92 L2583.69 1861.55 L2591.33 1861.55 L2591.33 1865.48 L2571.42 1865.48 L2571.42 1861.55 Z" fill="#000000" fill-rule="evenodd" fill-opacity="1" /><path clip-path="url(#clip830)" d="M2610.77 1834 Q2607.16 1834 2605.33 1837.57 Q2603.53 1841.11 2603.53 1848.24 Q2603.53 1855.34 2605.33 1858.91 Q2607.16 1862.45 2610.77 1862.45 Q2614.41 1862.45 2616.21 1858.91 Q2618.04 1855.34 2618.04 1848.24 Q2618.04 1841.11 2616.21 1837.57 Q2614.41 1834 2610.77 1834 M2610.77 1830.3 Q2616.58 1830.3 2619.64 1834.9 Q2622.72 1839.49 2622.72 1848.24 Q2622.72 1856.96 2619.64 1861.57 Q2616.58 1866.15 2610.77 1866.15 Q2604.96 1866.15 2601.89 1861.57 Q2598.83 1856.96 2598.83 1848.24 Q2598.83 1839.49 2601.89 1834.9 Q2604.96 1830.3 2610.77 1830.3 Z" fill="#000000" fill-rule="evenodd" fill-opacity="1" /><polyline clip-path="url(#clip832)" style="stroke:#000000; stroke-linecap:butt; stroke-linejoin:round; stroke-width:2; stroke-opacity:0.1; fill:none" points="
  249.478,1586.46 2640.76,1586.46 
  "/>
<polyline clip-path="url(#clip832)" style="stroke:#000000; stroke-linecap:butt; stroke-linejoin:round; stroke-width:2; stroke-opacity:0.1; fill:none" points="
  249.478,1089.92 2640.76,1089.92 
  "/>
<polyline clip-path="url(#clip832)" style="stroke:#000000; stroke-linecap:butt; stroke-linejoin:round; stroke-width:2; stroke-opacity:0.1; fill:none" points="
  249.478,593.38 2640.76,593.38 
  "/>
<polyline clip-path="url(#clip832)" style="stroke:#000000; stroke-linecap:butt; stroke-linejoin:round; stroke-width:2; stroke-opacity:0.1; fill:none" points="
  249.478,96.8382 2640.76,96.8382 
  "/>
<polyline clip-path="url(#clip830)" style="stroke:#000000; stroke-linecap:butt; stroke-linejoin:round; stroke-width:4; stroke-opacity:1; fill:none" points="
  249.478,1800.78 249.478,47.2441 
  "/>
<polyline clip-path="url(#clip830)" style="stroke:#000000; stroke-linecap:butt; stroke-linejoin:round; stroke-width:4; stroke-opacity:1; fill:none" points="
  249.478,1586.46 268.375,1586.46 
  "/>
<polyline clip-path="url(#clip830)" style="stroke:#000000; stroke-linecap:butt; stroke-linejoin:round; stroke-width:4; stroke-opacity:1; fill:none" points="
  249.478,1089.92 268.375,1089.92 
  "/>
<polyline clip-path="url(#clip830)" style="stroke:#000000; stroke-linecap:butt; stroke-linejoin:round; stroke-width:4; stroke-opacity:1; fill:none" points="
  249.478,593.38 268.375,593.38 
  "/>
<polyline clip-path="url(#clip830)" style="stroke:#000000; stroke-linecap:butt; stroke-linejoin:round; stroke-width:4; stroke-opacity:1; fill:none" points="
  249.478,96.8382 268.375,96.8382 
  "/>
<path clip-path="url(#clip830)" d="M62.4919 1572.26 Q58.8808 1572.26 57.0521 1575.83 Q55.2465 1579.37 55.2465 1586.5 Q55.2465 1593.61 57.0521 1597.17 Q58.8808 1600.71 62.4919 1600.71 Q66.1261 1600.71 67.9317 1597.17 Q69.7604 1593.61 69.7604 1586.5 Q69.7604 1579.37 67.9317 1575.83 Q66.1261 1572.26 62.4919 1572.26 M62.4919 1568.56 Q68.302 1568.56 71.3576 1573.17 Q74.4363 1577.75 74.4363 1586.5 Q74.4363 1595.23 71.3576 1599.83 Q68.302 1604.42 62.4919 1604.42 Q56.6817 1604.42 53.603 1599.83 Q50.5475 1595.23 50.5475 1586.5 Q50.5475 1577.75 53.603 1573.17 Q56.6817 1568.56 62.4919 1568.56 Z" fill="#000000" fill-rule="evenodd" fill-opacity="1" /><path clip-path="url(#clip830)" d="M82.6538 1597.86 L87.538 1597.86 L87.538 1603.74 L82.6538 1603.74 L82.6538 1597.86 Z" fill="#000000" fill-rule="evenodd" fill-opacity="1" /><path clip-path="url(#clip830)" d="M97.8621 1603.03 L97.8621 1598.77 Q99.6213 1599.6 101.427 1600.04 Q103.232 1600.48 104.968 1600.48 Q109.598 1600.48 112.029 1597.38 Q114.482 1594.25 114.83 1587.91 Q113.487 1589.9 111.427 1590.97 Q109.367 1592.03 106.867 1592.03 Q101.681 1592.03 98.6491 1588.91 Q95.6398 1585.76 95.6398 1580.32 Q95.6398 1574.99 98.788 1571.78 Q101.936 1568.56 107.168 1568.56 Q113.163 1568.56 116.311 1573.17 Q119.482 1577.75 119.482 1586.5 Q119.482 1594.67 115.593 1599.55 Q111.728 1604.42 105.177 1604.42 Q103.418 1604.42 101.612 1604.07 Q99.8065 1603.72 97.8621 1603.03 M107.168 1588.37 Q110.316 1588.37 112.144 1586.22 Q113.996 1584.07 113.996 1580.32 Q113.996 1576.59 112.144 1574.44 Q110.316 1572.26 107.168 1572.26 Q104.019 1572.26 102.168 1574.44 Q100.339 1576.59 100.339 1580.32 Q100.339 1584.07 102.168 1586.22 Q104.019 1588.37 107.168 1588.37 Z" fill="#000000" fill-rule="evenodd" fill-opacity="1" /><path clip-path="url(#clip830)" d="M128.024 1603.03 L128.024 1598.77 Q129.783 1599.6 131.589 1600.04 Q133.394 1600.48 135.13 1600.48 Q139.76 1600.48 142.191 1597.38 Q144.644 1594.25 144.991 1587.91 Q143.649 1589.9 141.589 1590.97 Q139.528 1592.03 137.029 1592.03 Q131.843 1592.03 128.811 1588.91 Q125.802 1585.76 125.802 1580.32 Q125.802 1574.99 128.95 1571.78 Q132.098 1568.56 137.329 1568.56 Q143.325 1568.56 146.473 1573.17 Q149.644 1577.75 149.644 1586.5 Q149.644 1594.67 145.755 1599.55 Q141.89 1604.42 135.339 1604.42 Q133.579 1604.42 131.774 1604.07 Q129.968 1603.72 128.024 1603.03 M137.329 1588.37 Q140.478 1588.37 142.306 1586.22 Q144.158 1584.07 144.158 1580.32 Q144.158 1576.59 142.306 1574.44 Q140.478 1572.26 137.329 1572.26 Q134.181 1572.26 132.329 1574.44 Q130.501 1576.59 130.501 1580.32 Q130.501 1584.07 132.329 1586.22 Q134.181 1588.37 137.329 1588.37 Z" fill="#000000" fill-rule="evenodd" fill-opacity="1" /><path clip-path="url(#clip830)" d="M168.047 1587.33 Q164.714 1587.33 162.792 1589.11 Q160.894 1590.9 160.894 1594.02 Q160.894 1597.15 162.792 1598.93 Q164.714 1600.71 168.047 1600.71 Q171.38 1600.71 173.301 1598.93 Q175.223 1597.12 175.223 1594.02 Q175.223 1590.9 173.301 1589.11 Q171.403 1587.33 168.047 1587.33 M163.371 1585.34 Q160.362 1584.6 158.672 1582.54 Q157.005 1580.48 157.005 1577.52 Q157.005 1573.37 159.945 1570.97 Q162.908 1568.56 168.047 1568.56 Q173.209 1568.56 176.149 1570.97 Q179.088 1573.37 179.088 1577.52 Q179.088 1580.48 177.399 1582.54 Q175.732 1584.6 172.746 1585.34 Q176.126 1586.13 178.001 1588.42 Q179.899 1590.71 179.899 1594.02 Q179.899 1599.05 176.82 1601.73 Q173.764 1604.42 168.047 1604.42 Q162.329 1604.42 159.251 1601.73 Q156.195 1599.05 156.195 1594.02 Q156.195 1590.71 158.093 1588.42 Q159.991 1586.13 163.371 1585.34 M161.658 1577.96 Q161.658 1580.64 163.325 1582.15 Q165.014 1583.65 168.047 1583.65 Q171.056 1583.65 172.746 1582.15 Q174.459 1580.64 174.459 1577.96 Q174.459 1575.27 172.746 1573.77 Q171.056 1572.26 168.047 1572.26 Q165.014 1572.26 163.325 1573.77 Q161.658 1575.27 161.658 1577.96 Z" fill="#000000" fill-rule="evenodd" fill-opacity="1" /><path clip-path="url(#clip830)" d="M188.255 1569.18 L206.611 1569.18 L206.611 1573.12 L192.537 1573.12 L192.537 1581.59 Q193.556 1581.24 194.574 1581.08 Q195.593 1580.9 196.612 1580.9 Q202.399 1580.9 205.778 1584.07 Q209.158 1587.24 209.158 1592.66 Q209.158 1598.24 205.686 1601.34 Q202.213 1604.42 195.894 1604.42 Q193.718 1604.42 191.45 1604.05 Q189.204 1603.67 186.797 1602.93 L186.797 1598.24 Q188.88 1599.37 191.102 1599.92 Q193.325 1600.48 195.801 1600.48 Q199.806 1600.48 202.144 1598.37 Q204.482 1596.27 204.482 1592.66 Q204.482 1589.05 202.144 1586.94 Q199.806 1584.83 195.801 1584.83 Q193.926 1584.83 192.051 1585.25 Q190.2 1585.67 188.255 1586.55 L188.255 1569.18 Z" fill="#000000" fill-rule="evenodd" fill-opacity="1" /><path clip-path="url(#clip830)" d="M61.4965 1075.72 Q57.8854 1075.72 56.0567 1079.29 Q54.2512 1082.83 54.2512 1089.96 Q54.2512 1097.06 56.0567 1100.63 Q57.8854 1104.17 61.4965 1104.17 Q65.1307 1104.17 66.9363 1100.63 Q68.765 1097.06 68.765 1089.96 Q68.765 1082.83 66.9363 1079.29 Q65.1307 1075.72 61.4965 1075.72 M61.4965 1072.02 Q67.3067 1072.02 70.3622 1076.62 Q73.4409 1081.21 73.4409 1089.96 Q73.4409 1098.68 70.3622 1103.29 Q67.3067 1107.87 61.4965 1107.87 Q55.6864 1107.87 52.6077 1103.29 Q49.5521 1098.68 49.5521 1089.96 Q49.5521 1081.21 52.6077 1076.62 Q55.6864 1072.02 61.4965 1072.02 Z" fill="#000000" fill-rule="evenodd" fill-opacity="1" /><path clip-path="url(#clip830)" d="M81.6584 1101.32 L86.5427 1101.32 L86.5427 1107.2 L81.6584 1107.2 L81.6584 1101.32 Z" fill="#000000" fill-rule="evenodd" fill-opacity="1" /><path clip-path="url(#clip830)" d="M96.8667 1106.48 L96.8667 1102.23 Q98.6259 1103.06 100.431 1103.5 Q102.237 1103.94 103.973 1103.94 Q108.603 1103.94 111.033 1100.84 Q113.487 1097.71 113.834 1091.37 Q112.492 1093.36 110.431 1094.42 Q108.371 1095.49 105.871 1095.49 Q100.686 1095.49 97.6537 1092.36 Q94.6445 1089.22 94.6445 1083.78 Q94.6445 1078.45 97.7926 1075.23 Q100.941 1072.02 106.172 1072.02 Q112.168 1072.02 115.316 1076.62 Q118.487 1081.21 118.487 1089.96 Q118.487 1098.13 114.598 1103.01 Q110.732 1107.87 104.181 1107.87 Q102.422 1107.87 100.617 1107.53 Q98.8111 1107.18 96.8667 1106.48 M106.172 1091.83 Q109.32 1091.83 111.149 1089.68 Q113.001 1087.53 113.001 1083.78 Q113.001 1080.05 111.149 1077.9 Q109.32 1075.72 106.172 1075.72 Q103.024 1075.72 101.172 1077.9 Q99.3435 1080.05 99.3435 1083.78 Q99.3435 1087.53 101.172 1089.68 Q103.024 1091.83 106.172 1091.83 Z" fill="#000000" fill-rule="evenodd" fill-opacity="1" /><path clip-path="url(#clip830)" d="M127.029 1106.48 L127.029 1102.23 Q128.788 1103.06 130.593 1103.5 Q132.399 1103.94 134.135 1103.94 Q138.765 1103.94 141.195 1100.84 Q143.649 1097.71 143.996 1091.37 Q142.653 1093.36 140.593 1094.42 Q138.533 1095.49 136.033 1095.49 Q130.848 1095.49 127.816 1092.36 Q124.806 1089.22 124.806 1083.78 Q124.806 1078.45 127.954 1075.23 Q131.103 1072.02 136.334 1072.02 Q142.329 1072.02 145.478 1076.62 Q148.649 1081.21 148.649 1089.96 Q148.649 1098.13 144.76 1103.01 Q140.894 1107.87 134.343 1107.87 Q132.584 1107.87 130.779 1107.53 Q128.973 1107.18 127.029 1106.48 M136.334 1091.83 Q139.482 1091.83 141.311 1089.68 Q143.163 1087.53 143.163 1083.78 Q143.163 1080.05 141.311 1077.9 Q139.482 1075.72 136.334 1075.72 Q133.186 1075.72 131.334 1077.9 Q129.505 1080.05 129.505 1083.78 Q129.505 1087.53 131.334 1089.68 Q133.186 1091.83 136.334 1091.83 Z" fill="#000000" fill-rule="evenodd" fill-opacity="1" /><path clip-path="url(#clip830)" d="M157.19 1106.48 L157.19 1102.23 Q158.95 1103.06 160.755 1103.5 Q162.561 1103.94 164.297 1103.94 Q168.926 1103.94 171.357 1100.84 Q173.811 1097.71 174.158 1091.37 Q172.815 1093.36 170.755 1094.42 Q168.695 1095.49 166.195 1095.49 Q161.01 1095.49 157.977 1092.36 Q154.968 1089.22 154.968 1083.78 Q154.968 1078.45 158.116 1075.23 Q161.264 1072.02 166.496 1072.02 Q172.491 1072.02 175.639 1076.62 Q178.811 1081.21 178.811 1089.96 Q178.811 1098.13 174.922 1103.01 Q171.056 1107.87 164.505 1107.87 Q162.746 1107.87 160.94 1107.53 Q159.135 1107.18 157.19 1106.48 M166.496 1091.83 Q169.644 1091.83 171.473 1089.68 Q173.325 1087.53 173.325 1083.78 Q173.325 1080.05 171.473 1077.9 Q169.644 1075.72 166.496 1075.72 Q163.348 1075.72 161.496 1077.9 Q159.667 1080.05 159.667 1083.78 Q159.667 1087.53 161.496 1089.68 Q163.348 1091.83 166.496 1091.83 Z" fill="#000000" fill-rule="evenodd" fill-opacity="1" /><path clip-path="url(#clip830)" d="M197.213 1075.72 Q193.602 1075.72 191.774 1079.29 Q189.968 1082.83 189.968 1089.96 Q189.968 1097.06 191.774 1100.63 Q193.602 1104.17 197.213 1104.17 Q200.848 1104.17 202.653 1100.63 Q204.482 1097.06 204.482 1089.96 Q204.482 1082.83 202.653 1079.29 Q200.848 1075.72 197.213 1075.72 M197.213 1072.02 Q203.024 1072.02 206.079 1076.62 Q209.158 1081.21 209.158 1089.96 Q209.158 1098.68 206.079 1103.29 Q203.024 1107.87 197.213 1107.87 Q191.403 1107.87 188.325 1103.29 Q185.269 1098.68 185.269 1089.96 Q185.269 1081.21 188.325 1076.62 Q191.403 1072.02 197.213 1072.02 Z" fill="#000000" fill-rule="evenodd" fill-opacity="1" /><path clip-path="url(#clip830)" d="M62.4919 579.179 Q58.8808 579.179 57.0521 582.744 Q55.2465 586.285 55.2465 593.415 Q55.2465 600.521 57.0521 604.086 Q58.8808 607.628 62.4919 607.628 Q66.1261 607.628 67.9317 604.086 Q69.7604 600.521 69.7604 593.415 Q69.7604 586.285 67.9317 582.744 Q66.1261 579.179 62.4919 579.179 M62.4919 575.475 Q68.302 575.475 71.3576 580.082 Q74.4363 584.665 74.4363 593.415 Q74.4363 602.142 71.3576 606.748 Q68.302 611.332 62.4919 611.332 Q56.6817 611.332 53.603 606.748 Q50.5475 602.142 50.5475 593.415 Q50.5475 584.665 53.603 580.082 Q56.6817 575.475 62.4919 575.475 Z" fill="#000000" fill-rule="evenodd" fill-opacity="1" /><path clip-path="url(#clip830)" d="M82.6538 604.781 L87.538 604.781 L87.538 610.66 L82.6538 610.66 L82.6538 604.781 Z" fill="#000000" fill-rule="evenodd" fill-opacity="1" /><path clip-path="url(#clip830)" d="M97.8621 609.943 L97.8621 605.683 Q99.6213 606.517 101.427 606.957 Q103.232 607.396 104.968 607.396 Q109.598 607.396 112.029 604.295 Q114.482 601.17 114.83 594.827 Q113.487 596.818 111.427 597.883 Q109.367 598.947 106.867 598.947 Q101.681 598.947 98.6491 595.822 Q95.6398 592.674 95.6398 587.234 Q95.6398 581.91 98.788 578.693 Q101.936 575.475 107.168 575.475 Q113.163 575.475 116.311 580.082 Q119.482 584.665 119.482 593.415 Q119.482 601.586 115.593 606.47 Q111.728 611.332 105.177 611.332 Q103.418 611.332 101.612 610.984 Q99.8065 610.637 97.8621 609.943 M107.168 595.29 Q110.316 595.29 112.144 593.137 Q113.996 590.984 113.996 587.234 Q113.996 583.508 112.144 581.355 Q110.316 579.179 107.168 579.179 Q104.019 579.179 102.168 581.355 Q100.339 583.508 100.339 587.234 Q100.339 590.984 102.168 593.137 Q104.019 595.29 107.168 595.29 Z" fill="#000000" fill-rule="evenodd" fill-opacity="1" /><path clip-path="url(#clip830)" d="M128.024 609.943 L128.024 605.683 Q129.783 606.517 131.589 606.957 Q133.394 607.396 135.13 607.396 Q139.76 607.396 142.191 604.295 Q144.644 601.17 144.991 594.827 Q143.649 596.818 141.589 597.883 Q139.528 598.947 137.029 598.947 Q131.843 598.947 128.811 595.822 Q125.802 592.674 125.802 587.234 Q125.802 581.91 128.95 578.693 Q132.098 575.475 137.329 575.475 Q143.325 575.475 146.473 580.082 Q149.644 584.665 149.644 593.415 Q149.644 601.586 145.755 606.47 Q141.89 611.332 135.339 611.332 Q133.579 611.332 131.774 610.984 Q129.968 610.637 128.024 609.943 M137.329 595.29 Q140.478 595.29 142.306 593.137 Q144.158 590.984 144.158 587.234 Q144.158 583.508 142.306 581.355 Q140.478 579.179 137.329 579.179 Q134.181 579.179 132.329 581.355 Q130.501 583.508 130.501 587.234 Q130.501 590.984 132.329 593.137 Q134.181 595.29 137.329 595.29 Z" fill="#000000" fill-rule="evenodd" fill-opacity="1" /><path clip-path="url(#clip830)" d="M158.186 609.943 L158.186 605.683 Q159.945 606.517 161.751 606.957 Q163.556 607.396 165.292 607.396 Q169.922 607.396 172.352 604.295 Q174.806 601.17 175.153 594.827 Q173.811 596.818 171.751 597.883 Q169.69 598.947 167.19 598.947 Q162.005 598.947 158.973 595.822 Q155.964 592.674 155.964 587.234 Q155.964 581.91 159.112 578.693 Q162.26 575.475 167.491 575.475 Q173.487 575.475 176.635 580.082 Q179.806 584.665 179.806 593.415 Q179.806 601.586 175.917 606.47 Q172.051 611.332 165.501 611.332 Q163.741 611.332 161.936 610.984 Q160.13 610.637 158.186 609.943 M167.491 595.29 Q170.639 595.29 172.468 593.137 Q174.32 590.984 174.32 587.234 Q174.32 583.508 172.468 581.355 Q170.639 579.179 167.491 579.179 Q164.343 579.179 162.491 581.355 Q160.663 583.508 160.663 587.234 Q160.663 590.984 162.491 593.137 Q164.343 595.29 167.491 595.29 Z" fill="#000000" fill-rule="evenodd" fill-opacity="1" /><path clip-path="url(#clip830)" d="M188.255 576.1 L206.611 576.1 L206.611 580.035 L192.537 580.035 L192.537 588.508 Q193.556 588.16 194.574 587.998 Q195.593 587.813 196.612 587.813 Q202.399 587.813 205.778 590.984 Q209.158 594.156 209.158 599.572 Q209.158 605.151 205.686 608.253 Q202.213 611.332 195.894 611.332 Q193.718 611.332 191.45 610.961 Q189.204 610.591 186.797 609.85 L186.797 605.151 Q188.88 606.285 191.102 606.841 Q193.325 607.396 195.801 607.396 Q199.806 607.396 202.144 605.29 Q204.482 603.183 204.482 599.572 Q204.482 595.961 202.144 593.855 Q199.806 591.748 195.801 591.748 Q193.926 591.748 192.051 592.165 Q190.2 592.582 188.255 593.461 L188.255 576.1 Z" fill="#000000" fill-rule="evenodd" fill-opacity="1" /><path clip-path="url(#clip830)" d="M52.3067 110.183 L59.9456 110.183 L59.9456 83.8175 L51.6354 85.4841 L51.6354 81.2249 L59.8993 79.5582 L64.5752 79.5582 L64.5752 110.183 L72.214 110.183 L72.214 114.118 L52.3067 114.118 L52.3067 110.183 Z" fill="#000000" fill-rule="evenodd" fill-opacity="1" /><path clip-path="url(#clip830)" d="M81.6584 108.239 L86.5427 108.239 L86.5427 114.118 L81.6584 114.118 L81.6584 108.239 Z" fill="#000000" fill-rule="evenodd" fill-opacity="1" /><path clip-path="url(#clip830)" d="M106.728 82.6369 Q103.117 82.6369 101.288 86.2017 Q99.4824 89.7434 99.4824 96.873 Q99.4824 103.979 101.288 107.544 Q103.117 111.086 106.728 111.086 Q110.362 111.086 112.168 107.544 Q113.996 103.979 113.996 96.873 Q113.996 89.7434 112.168 86.2017 Q110.362 82.6369 106.728 82.6369 M106.728 78.9332 Q112.538 78.9332 115.593 83.5397 Q118.672 88.123 118.672 96.873 Q118.672 105.6 115.593 110.206 Q112.538 114.79 106.728 114.79 Q100.918 114.79 97.8389 110.206 Q94.7834 105.6 94.7834 96.873 Q94.7834 88.123 97.8389 83.5397 Q100.918 78.9332 106.728 78.9332 Z" fill="#000000" fill-rule="evenodd" fill-opacity="1" /><path clip-path="url(#clip830)" d="M136.89 82.6369 Q133.279 82.6369 131.45 86.2017 Q129.644 89.7434 129.644 96.873 Q129.644 103.979 131.45 107.544 Q133.279 111.086 136.89 111.086 Q140.524 111.086 142.329 107.544 Q144.158 103.979 144.158 96.873 Q144.158 89.7434 142.329 86.2017 Q140.524 82.6369 136.89 82.6369 M136.89 78.9332 Q142.7 78.9332 145.755 83.5397 Q148.834 88.123 148.834 96.873 Q148.834 105.6 145.755 110.206 Q142.7 114.79 136.89 114.79 Q131.079 114.79 128.001 110.206 Q124.945 105.6 124.945 96.873 Q124.945 88.123 128.001 83.5397 Q131.079 78.9332 136.89 78.9332 Z" fill="#000000" fill-rule="evenodd" fill-opacity="1" /><path clip-path="url(#clip830)" d="M167.051 82.6369 Q163.44 82.6369 161.612 86.2017 Q159.806 89.7434 159.806 96.873 Q159.806 103.979 161.612 107.544 Q163.44 111.086 167.051 111.086 Q170.686 111.086 172.491 107.544 Q174.32 103.979 174.32 96.873 Q174.32 89.7434 172.491 86.2017 Q170.686 82.6369 167.051 82.6369 M167.051 78.9332 Q172.862 78.9332 175.917 83.5397 Q178.996 88.123 178.996 96.873 Q178.996 105.6 175.917 110.206 Q172.862 114.79 167.051 114.79 Q161.241 114.79 158.163 110.206 Q155.107 105.6 155.107 96.873 Q155.107 88.123 158.163 83.5397 Q161.241 78.9332 167.051 78.9332 Z" fill="#000000" fill-rule="evenodd" fill-opacity="1" /><path clip-path="url(#clip830)" d="M197.213 82.6369 Q193.602 82.6369 191.774 86.2017 Q189.968 89.7434 189.968 96.873 Q189.968 103.979 191.774 107.544 Q193.602 111.086 197.213 111.086 Q200.848 111.086 202.653 107.544 Q204.482 103.979 204.482 96.873 Q204.482 89.7434 202.653 86.2017 Q200.848 82.6369 197.213 82.6369 M197.213 78.9332 Q203.024 78.9332 206.079 83.5397 Q209.158 88.123 209.158 96.873 Q209.158 105.6 206.079 110.206 Q203.024 114.79 197.213 114.79 Q191.403 114.79 188.325 110.206 Q185.269 105.6 185.269 96.873 Q185.269 88.123 188.325 83.5397 Q191.403 78.9332 197.213 78.9332 Z" fill="#000000" fill-rule="evenodd" fill-opacity="1" /><polyline clip-path="url(#clip832)" style="stroke:#009af9; stroke-linecap:butt; stroke-linejoin:round; stroke-width:4; stroke-opacity:1; fill:none" points="
  317.155,1751.15 320.827,1740.4 324.499,1729.69 328.171,1719.01 331.843,1708.37 365.794,1611.62 399.745,1517.86 433.697,1427.09 467.648,1339.32 508.455,1237.78 
  549.261,1140.56 583.763,1061.74 618.264,986.01 655.742,907.25 693.221,832.14 727.772,766.128 762.324,703.218 799.367,639.218 836.41,578.785 857.869,545.408 
  879.328,513.228 900.787,482.245 922.246,452.46 960.387,402.476 998.527,356.274 1031.97,318.873 1065.42,284.38 1101.88,250.09 1138.35,219.258 1175.03,191.733 
  1211.71,167.708 1252.27,145.219 1292.82,127.01 1331.41,113.657 1370,104.179 1410.12,98.4313 1450.25,96.8724 1484.02,98.8071 1517.79,103.71 1538.41,108.161 
  1559.03,113.719 1579.65,120.383 1600.27,128.152 1638.04,145.256 1675.81,166.072 1710.7,188.595 1745.59,214.284 1780.93,243.533 1816.27,276.032 1855.87,316.313 
  1895.48,360.675 1931.37,404.397 1967.26,451.468 1987.8,479.922 2008.35,509.473 2028.89,540.122 2049.44,571.868 2087.49,633.554 2125.53,699.003 2163.04,767.21 
  2200.55,839.074 2236.97,912.345 2273.39,989.062 2310.72,1071.28 2348.05,1157.12 2368.51,1205.68 2388.96,1255.33 2409.41,1306.06 2429.86,1357.87 2459.57,1435.08 
  2489.28,1514.58 2518.99,1596.37 2548.7,1680.44 2554.79,1697.98 2560.89,1715.61 2566.98,1733.33 2573.08,1751.15 
  "/>
<path clip-path="url(#clip830)" d="
M2242.92 209.375 L2561.05 209.375 L2561.05 105.695 L2242.92 105.695  Z
  " fill="#ffffff" fill-rule="evenodd" fill-opacity="1"/>
<polyline clip-path="url(#clip830)" style="stroke:#000000; stroke-linecap:butt; stroke-linejoin:round; stroke-width:4; stroke-opacity:1; fill:none" points="
  2242.92,209.375 2561.05,209.375 2561.05,105.695 2242.92,105.695 2242.92,209.375 
  "/>
<polyline clip-path="url(#clip830)" style="stroke:#009af9; stroke-linecap:butt; stroke-linejoin:round; stroke-width:4; stroke-opacity:1; fill:none" points="
  2269.49,157.535 2428.91,157.535 
  "/>
<path clip-path="url(#clip830)" d="M2469.32 177.223 Q2467.51 181.852 2465.8 183.264 Q2464.09 184.676 2461.22 184.676 L2457.81 184.676 L2457.81 181.112 L2460.31 181.112 Q2462.07 181.112 2463.05 180.278 Q2464.02 179.445 2465.2 176.343 L2465.96 174.399 L2455.48 148.889 L2459.99 148.889 L2468.09 169.167 L2476.19 148.889 L2480.71 148.889 L2469.32 177.223 Z" fill="#000000" fill-rule="evenodd" fill-opacity="1" /><path clip-path="url(#clip830)" d="M2488 170.88 L2495.64 170.88 L2495.64 144.515 L2487.33 146.181 L2487.33 141.922 L2495.59 140.255 L2500.27 140.255 L2500.27 170.88 L2507.91 170.88 L2507.91 174.815 L2488 174.815 L2488 170.88 Z" fill="#000000" fill-rule="evenodd" fill-opacity="1" /></svg>
