<?xml version="1.0" encoding="utf-8"?>
<svg xmlns="http://www.w3.org/2000/svg" xmlns:xlink="http://www.w3.org/1999/xlink" width="672" height="480" viewBox="0 0 2688 1920">
<defs>
  <clipPath id="clip960">
    <rect x="0" y="0" width="2688" height="1920"/>
  </clipPath>
</defs>
<path clip-path="url(#clip960)" d="
M0 1920 L2688 1920 L2688 0 L0 0  Z
  " fill="#ffffff" fill-rule="evenodd" fill-opacity="1"/>
<defs>
  <clipPath id="clip961">
    <rect x="537" y="0" width="1883" height="1883"/>
  </clipPath>
</defs>
<path clip-path="url(#clip960)" d="
M158.9 1800.78 L2640.76 1800.78 L2640.76 47.2441 L158.9 47.2441  Z
  " fill="#ffffff" fill-rule="evenodd" fill-opacity="1"/>
<defs>
  <clipPath id="clip962">
    <rect x="158" y="47" width="2483" height="1755"/>
  </clipPath>
</defs>
<polyline clip-path="url(#clip962)" style="stroke:#000000; stroke-linecap:butt; stroke-linejoin:round; stroke-width:2; stroke-opacity:0.1; fill:none" points="
  281.904,1800.78 281.904,47.2441 
  "/>
<polyline clip-path="url(#clip962)" style="stroke:#000000; stroke-linecap:butt; stroke-linejoin:round; stroke-width:2; stroke-opacity:0.1; fill:none" points="
  654.545,1800.78 654.545,47.2441 
  "/>
<polyline clip-path="url(#clip962)" style="stroke:#000000; stroke-linecap:butt; stroke-linejoin:round; stroke-width:2; stroke-opacity:0.1; fill:none" points="
  1027.19,1800.78 1027.19,47.2441 
  "/>
<polyline clip-path="url(#clip962)" style="stroke:#000000; stroke-linecap:butt; stroke-linejoin:round; stroke-width:2; stroke-opacity:0.1; fill:none" points="
  1399.83,1800.78 1399.83,47.2441 
  "/>
<polyline clip-path="url(#clip962)" style="stroke:#000000; stroke-linecap:butt; stroke-linejoin:round; stroke-width:2; stroke-opacity:0.1; fill:none" points="
  1772.47,1800.78 1772.47,47.2441 
  "/>
<polyline clip-path="url(#clip962)" style="stroke:#000000; stroke-linecap:butt; stroke-linejoin:round; stroke-width:2; stroke-opacity:0.1; fill:none" points="
  2145.11,1800.78 2145.11,47.2441 
  "/>
<polyline clip-path="url(#clip962)" style="stroke:#000000; stroke-linecap:butt; stroke-linejoin:round; stroke-width:2; stroke-opacity:0.1; fill:none" points="
  2517.75,1800.78 2517.75,47.2441 
  "/>
<polyline clip-path="url(#clip960)" style="stroke:#000000; stroke-linecap:butt; stroke-linejoin:round; stroke-width:4; stroke-opacity:1; fill:none" points="
  158.9,1800.78 2640.76,1800.78 
  "/>
<polyline clip-path="url(#clip960)" style="stroke:#000000; stroke-linecap:butt; stroke-linejoin:round; stroke-width:4; stroke-opacity:1; fill:none" points="
  281.904,1800.78 281.904,1781.88 
  "/>
<polyline clip-path="url(#clip960)" style="stroke:#000000; stroke-linecap:butt; stroke-linejoin:round; stroke-width:4; stroke-opacity:1; fill:none" points="
  654.545,1800.78 654.545,1781.88 
  "/>
<polyline clip-path="url(#clip960)" style="stroke:#000000; stroke-linecap:butt; stroke-linejoin:round; stroke-width:4; stroke-opacity:1; fill:none" points="
  1027.19,1800.78 1027.19,1781.88 
  "/>
<polyline clip-path="url(#clip960)" style="stroke:#000000; stroke-linecap:butt; stroke-linejoin:round; stroke-width:4; stroke-opacity:1; fill:none" points="
  1399.83,1800.78 1399.83,1781.88 
  "/>
<polyline clip-path="url(#clip960)" style="stroke:#000000; stroke-linecap:butt; stroke-linejoin:round; stroke-width:4; stroke-opacity:1; fill:none" points="
  1772.47,1800.78 1772.47,1781.88 
  "/>
<polyline clip-path="url(#clip960)" style="stroke:#000000; stroke-linecap:butt; stroke-linejoin:round; stroke-width:4; stroke-opacity:1; fill:none" points="
  2145.11,1800.78 2145.11,1781.88 
  "/>
<polyline clip-path="url(#clip960)" style="stroke:#000000; stroke-linecap:butt; stroke-linejoin:round; stroke-width:4; stroke-opacity:1; fill:none" points="
  2517.75,1800.78 2517.75,1781.88 
  "/>
<path clip-path="url(#clip960)" d="M228.93 1848.65 L258.606 1848.65 L258.606 1852.59 L228.93 1852.59 L228.93 1848.65 Z" fill="#000000" fill-rule="evenodd" fill-opacity="1" /><path clip-path="url(#clip960)" d="M269.508 1861.55 L277.147 1861.55 L277.147 1835.18 L268.837 1836.85 L268.837 1832.59 L277.101 1830.92 L281.777 1830.92 L281.777 1861.55 L289.416 1861.55 L289.416 1865.48 L269.508 1865.48 L269.508 1861.55 Z" fill="#000000" fill-rule="evenodd" fill-opacity="1" /><path clip-path="url(#clip960)" d="M298.86 1859.6 L303.744 1859.6 L303.744 1865.48 L298.86 1865.48 L298.86 1859.6 Z" fill="#000000" fill-rule="evenodd" fill-opacity="1" /><path clip-path="url(#clip960)" d="M313.976 1830.92 L332.332 1830.92 L332.332 1834.86 L318.258 1834.86 L318.258 1843.33 Q319.276 1842.98 320.295 1842.82 Q321.314 1842.64 322.332 1842.64 Q328.119 1842.64 331.499 1845.81 Q334.878 1848.98 334.878 1854.4 Q334.878 1859.97 331.406 1863.08 Q327.934 1866.15 321.614 1866.15 Q319.439 1866.15 317.17 1865.78 Q314.925 1865.41 312.517 1864.67 L312.517 1859.97 Q314.601 1861.11 316.823 1861.66 Q319.045 1862.22 321.522 1862.22 Q325.526 1862.22 327.864 1860.11 Q330.202 1858.01 330.202 1854.4 Q330.202 1850.78 327.864 1848.68 Q325.526 1846.57 321.522 1846.57 Q319.647 1846.57 317.772 1846.99 Q315.92 1847.4 313.976 1848.28 L313.976 1830.92 Z" fill="#000000" fill-rule="evenodd" fill-opacity="1" /><path clip-path="url(#clip960)" d="M601.073 1848.65 L630.749 1848.65 L630.749 1852.59 L601.073 1852.59 L601.073 1848.65 Z" fill="#000000" fill-rule="evenodd" fill-opacity="1" /><path clip-path="url(#clip960)" d="M641.652 1861.55 L649.291 1861.55 L649.291 1835.18 L640.981 1836.85 L640.981 1832.59 L649.244 1830.92 L653.92 1830.92 L653.92 1861.55 L661.559 1861.55 L661.559 1865.48 L641.652 1865.48 L641.652 1861.55 Z" fill="#000000" fill-rule="evenodd" fill-opacity="1" /><path clip-path="url(#clip960)" d="M671.003 1859.6 L675.888 1859.6 L675.888 1865.48 L671.003 1865.48 L671.003 1859.6 Z" fill="#000000" fill-rule="evenodd" fill-opacity="1" /><path clip-path="url(#clip960)" d="M696.073 1834 Q692.462 1834 690.633 1837.57 Q688.827 1841.11 688.827 1848.24 Q688.827 1855.34 690.633 1858.91 Q692.462 1862.45 696.073 1862.45 Q699.707 1862.45 701.513 1858.91 Q703.341 1855.34 703.341 1848.24 Q703.341 1841.11 701.513 1837.57 Q699.707 1834 696.073 1834 M696.073 1830.3 Q701.883 1830.3 704.938 1834.9 Q708.017 1839.49 708.017 1848.24 Q708.017 1856.96 704.938 1861.57 Q701.883 1866.15 696.073 1866.15 Q690.263 1866.15 687.184 1861.57 Q684.128 1856.96 684.128 1848.24 Q684.128 1839.49 687.184 1834.9 Q690.263 1830.3 696.073 1830.3 Z" fill="#000000" fill-rule="evenodd" fill-opacity="1" /><path clip-path="url(#clip960)" d="M974.212 1848.65 L1003.89 1848.65 L1003.89 1852.59 L974.212 1852.59 L974.212 1848.65 Z" fill="#000000" fill-rule="evenodd" fill-opacity="1" /><path clip-path="url(#clip960)" d="M1023.98 1834 Q1020.37 1834 1018.54 1837.57 Q1016.74 1841.11 1016.74 1848.24 Q1016.74 1855.34 1018.54 1858.91 Q1020.37 1862.45 1023.98 1862.45 Q1027.61 1862.45 1029.42 1858.91 Q1031.25 1855.34 1031.25 1848.24 Q1031.25 1841.11 1029.42 1837.57 Q1027.61 1834 1023.98 1834 M1023.98 1830.3 Q1029.79 1830.3 1032.85 1834.9 Q1035.92 1839.49 1035.92 1848.24 Q1035.92 1856.96 1032.85 1861.57 Q1029.79 1866.15 1023.98 1866.15 Q1018.17 1866.15 1015.09 1861.57 Q1012.04 1856.96 1012.04 1848.24 Q1012.04 1839.49 1015.09 1834.9 Q1018.17 1830.3 1023.98 1830.3 Z" fill="#000000" fill-rule="evenodd" fill-opacity="1" /><path clip-path="url(#clip960)" d="M1044.14 1859.6 L1049.03 1859.6 L1049.03 1865.48 L1044.14 1865.48 L1044.14 1859.6 Z" fill="#000000" fill-rule="evenodd" fill-opacity="1" /><path clip-path="url(#clip960)" d="M1059.26 1830.92 L1077.61 1830.92 L1077.61 1834.86 L1063.54 1834.86 L1063.54 1843.33 Q1064.56 1842.98 1065.58 1842.82 Q1066.6 1842.64 1067.61 1842.64 Q1073.4 1842.64 1076.78 1845.81 Q1080.16 1848.98 1080.16 1854.4 Q1080.16 1859.97 1076.69 1863.08 Q1073.22 1866.15 1066.9 1866.15 Q1064.72 1866.15 1062.45 1865.78 Q1060.21 1865.41 1057.8 1864.67 L1057.8 1859.97 Q1059.88 1861.11 1062.11 1861.66 Q1064.33 1862.22 1066.8 1862.22 Q1070.81 1862.22 1073.15 1860.11 Q1075.48 1858.01 1075.48 1854.4 Q1075.48 1850.78 1073.15 1848.68 Q1070.81 1846.57 1066.8 1846.57 Q1064.93 1846.57 1063.05 1846.99 Q1061.2 1847.4 1059.26 1848.28 L1059.26 1830.92 Z" fill="#000000" fill-rule="evenodd" fill-opacity="1" /><path clip-path="url(#clip960)" d="M1377.21 1834 Q1373.6 1834 1371.77 1837.57 Q1369.97 1841.11 1369.97 1848.24 Q1369.97 1855.34 1371.77 1858.91 Q1373.6 1862.45 1377.21 1862.45 Q1380.85 1862.45 1382.65 1858.91 Q1384.48 1855.34 1384.48 1848.24 Q1384.48 1841.11 1382.65 1837.57 Q1380.85 1834 1377.21 1834 M1377.21 1830.3 Q1383.02 1830.3 1386.08 1834.9 Q1389.16 1839.49 1389.16 1848.24 Q1389.16 1856.96 1386.08 1861.57 Q1383.02 1866.15 1377.21 1866.15 Q1371.4 1866.15 1368.32 1861.57 Q1365.27 1856.96 1365.27 1848.24 Q1365.27 1839.49 1368.32 1834.9 Q1371.4 1830.3 1377.21 1830.3 Z" fill="#000000" fill-rule="evenodd" fill-opacity="1" /><path clip-path="url(#clip960)" d="M1397.37 1859.6 L1402.26 1859.6 L1402.26 1865.48 L1397.37 1865.48 L1397.37 1859.6 Z" fill="#000000" fill-rule="evenodd" fill-opacity="1" /><path clip-path="url(#clip960)" d="M1422.44 1834 Q1418.83 1834 1417 1837.57 Q1415.2 1841.11 1415.2 1848.24 Q1415.2 1855.34 1417 1858.91 Q1418.83 1862.45 1422.44 1862.45 Q1426.08 1862.45 1427.88 1858.91 Q1429.71 1855.34 1429.71 1848.24 Q1429.71 1841.11 1427.88 1837.57 Q1426.08 1834 1422.44 1834 M1422.44 1830.3 Q1428.25 1830.3 1431.31 1834.9 Q1434.39 1839.49 1434.39 1848.24 Q1434.39 1856.96 1431.31 1861.57 Q1428.25 1866.15 1422.44 1866.15 Q1416.63 1866.15 1413.55 1861.57 Q1410.5 1856.96 1410.5 1848.24 Q1410.5 1839.49 1413.55 1834.9 Q1416.63 1830.3 1422.44 1830.3 Z" fill="#000000" fill-rule="evenodd" fill-opacity="1" /><path clip-path="url(#clip960)" d="M1750.35 1834 Q1746.74 1834 1744.91 1837.57 Q1743.11 1841.11 1743.11 1848.24 Q1743.11 1855.34 1744.91 1858.91 Q1746.74 1862.45 1750.35 1862.45 Q1753.99 1862.45 1755.79 1858.91 Q1757.62 1855.34 1757.62 1848.24 Q1757.62 1841.11 1755.79 1837.57 Q1753.99 1834 1750.35 1834 M1750.35 1830.3 Q1756.16 1830.3 1759.22 1834.9 Q1762.3 1839.49 1762.3 1848.24 Q1762.3 1856.96 1759.22 1861.57 Q1756.16 1866.15 1750.35 1866.15 Q1744.54 1866.15 1741.46 1861.57 Q1738.41 1856.96 1738.41 1848.24 Q1738.41 1839.49 1741.46 1834.9 Q1744.54 1830.3 1750.35 1830.3 Z" fill="#000000" fill-rule="evenodd" fill-opacity="1" /><path clip-path="url(#clip960)" d="M1770.51 1859.6 L1775.4 1859.6 L1775.4 1865.48 L1770.51 1865.48 L1770.51 1859.6 Z" fill="#000000" fill-rule="evenodd" fill-opacity="1" /><path clip-path="url(#clip960)" d="M1785.63 1830.92 L1803.98 1830.92 L1803.98 1834.86 L1789.91 1834.86 L1789.91 1843.33 Q1790.93 1842.98 1791.95 1842.82 Q1792.97 1842.64 1793.99 1842.64 Q1799.77 1842.64 1803.15 1845.81 Q1806.53 1848.98 1806.53 1854.4 Q1806.53 1859.97 1803.06 1863.08 Q1799.59 1866.15 1793.27 1866.15 Q1791.09 1866.15 1788.82 1865.78 Q1786.58 1865.41 1784.17 1864.67 L1784.17 1859.97 Q1786.25 1861.11 1788.48 1861.66 Q1790.7 1862.22 1793.17 1862.22 Q1797.18 1862.22 1799.52 1860.11 Q1801.86 1858.01 1801.86 1854.4 Q1801.86 1850.78 1799.52 1848.68 Q1797.18 1846.57 1793.17 1846.57 Q1791.3 1846.57 1789.42 1846.99 Q1787.57 1847.4 1785.63 1848.28 L1785.63 1830.92 Z" fill="#000000" fill-rule="evenodd" fill-opacity="1" /><path clip-path="url(#clip960)" d="M2112.26 1861.55 L2119.9 1861.55 L2119.9 1835.18 L2111.59 1836.85 L2111.59 1832.59 L2119.86 1830.92 L2124.53 1830.92 L2124.53 1861.55 L2132.17 1861.55 L2132.17 1865.48 L2112.26 1865.48 L2112.26 1861.55 Z" fill="#000000" fill-rule="evenodd" fill-opacity="1" /><path clip-path="url(#clip960)" d="M2141.61 1859.6 L2146.5 1859.6 L2146.5 1865.48 L2141.61 1865.48 L2141.61 1859.6 Z" fill="#000000" fill-rule="evenodd" fill-opacity="1" /><path clip-path="url(#clip960)" d="M2166.68 1834 Q2163.07 1834 2161.24 1837.57 Q2159.44 1841.11 2159.44 1848.24 Q2159.44 1855.34 2161.24 1858.91 Q2163.07 1862.45 2166.68 1862.45 Q2170.32 1862.45 2172.12 1858.91 Q2173.95 1855.34 2173.95 1848.24 Q2173.95 1841.11 2172.12 1837.57 Q2170.32 1834 2166.68 1834 M2166.68 1830.3 Q2172.49 1830.3 2175.55 1834.9 Q2178.63 1839.49 2178.63 1848.24 Q2178.63 1856.96 2175.55 1861.57 Q2172.49 1866.15 2166.68 1866.15 Q2160.87 1866.15 2157.8 1861.57 Q2154.74 1856.96 2154.74 1848.24 Q2154.74 1839.49 2157.8 1834.9 Q2160.87 1830.3 2166.68 1830.3 Z" fill="#000000" fill-rule="evenodd" fill-opacity="1" /><path clip-path="url(#clip960)" d="M2485.4 1861.55 L2493.04 1861.55 L2493.04 1835.18 L2484.73 1836.85 L2484.73 1832.59 L2492.99 1830.92 L2497.67 1830.92 L2497.67 1861.55 L2505.31 1861.55 L2505.31 1865.48 L2485.4 1865.48 L2485.4 1861.55 Z" fill="#000000" fill-rule="evenodd" fill-opacity="1" /><path clip-path="url(#clip960)" d="M2514.75 1859.6 L2519.64 1859.6 L2519.64 1865.48 L2514.75 1865.48 L2514.75 1859.6 Z" fill="#000000" fill-rule="evenodd" fill-opacity="1" /><path clip-path="url(#clip960)" d="M2529.87 1830.92 L2548.23 1830.92 L2548.23 1834.86 L2534.15 1834.86 L2534.15 1843.33 Q2535.17 1842.98 2536.19 1842.82 Q2537.21 1842.64 2538.23 1842.64 Q2544.01 1842.64 2547.39 1845.81 Q2550.77 1848.98 2550.77 1854.4 Q2550.77 1859.97 2547.3 1863.08 Q2543.83 1866.15 2537.51 1866.15 Q2535.33 1866.15 2533.06 1865.78 Q2530.82 1865.41 2528.41 1864.67 L2528.41 1859.97 Q2530.49 1861.11 2532.72 1861.66 Q2534.94 1862.22 2537.42 1862.22 Q2541.42 1862.22 2543.76 1860.11 Q2546.1 1858.01 2546.1 1854.4 Q2546.1 1850.78 2543.76 1848.68 Q2541.42 1846.57 2537.42 1846.57 Q2535.54 1846.57 2533.67 1846.99 Q2531.81 1847.4 2529.87 1848.28 L2529.87 1830.92 Z" fill="#000000" fill-rule="evenodd" fill-opacity="1" /><polyline clip-path="url(#clip962)" style="stroke:#000000; stroke-linecap:butt; stroke-linejoin:round; stroke-width:2; stroke-opacity:0.1; fill:none" points="
  158.9,1462.61 2640.76,1462.61 
  "/>
<polyline clip-path="url(#clip962)" style="stroke:#000000; stroke-linecap:butt; stroke-linejoin:round; stroke-width:2; stroke-opacity:0.1; fill:none" points="
  158.9,1007.35 2640.76,1007.35 
  "/>
<polyline clip-path="url(#clip962)" style="stroke:#000000; stroke-linecap:butt; stroke-linejoin:round; stroke-width:2; stroke-opacity:0.1; fill:none" points="
  158.9,552.087 2640.76,552.087 
  "/>
<polyline clip-path="url(#clip962)" style="stroke:#000000; stroke-linecap:butt; stroke-linejoin:round; stroke-width:2; stroke-opacity:0.1; fill:none" points="
  158.9,96.8268 2640.76,96.8268 
  "/>
<polyline clip-path="url(#clip960)" style="stroke:#000000; stroke-linecap:butt; stroke-linejoin:round; stroke-width:4; stroke-opacity:1; fill:none" points="
  158.9,1800.78 158.9,47.2441 
  "/>
<polyline clip-path="url(#clip960)" style="stroke:#000000; stroke-linecap:butt; stroke-linejoin:round; stroke-width:4; stroke-opacity:1; fill:none" points="
  158.9,1462.61 177.797,1462.61 
  "/>
<polyline clip-path="url(#clip960)" style="stroke:#000000; stroke-linecap:butt; stroke-linejoin:round; stroke-width:4; stroke-opacity:1; fill:none" points="
  158.9,1007.35 177.797,1007.35 
  "/>
<polyline clip-path="url(#clip960)" style="stroke:#000000; stroke-linecap:butt; stroke-linejoin:round; stroke-width:4; stroke-opacity:1; fill:none" points="
  158.9,552.087 177.797,552.087 
  "/>
<polyline clip-path="url(#clip960)" style="stroke:#000000; stroke-linecap:butt; stroke-linejoin:round; stroke-width:4; stroke-opacity:1; fill:none" points="
  158.9,96.8268 177.797,96.8268 
  "/>
<path clip-path="url(#clip960)" d="M62.3067 1448.4 Q58.6956 1448.4 56.8669 1451.97 Q55.0614 1455.51 55.0614 1462.64 Q55.0614 1469.75 56.8669 1473.31 Q58.6956 1476.85 62.3067 1476.85 Q65.9409 1476.85 67.7465 1473.31 Q69.5752 1469.75 69.5752 1462.64 Q69.5752 1455.51 67.7465 1451.97 Q65.9409 1448.4 62.3067 1448.4 M62.3067 1444.7 Q68.1168 1444.7 71.1724 1449.31 Q74.2511 1453.89 74.2511 1462.64 Q74.2511 1471.37 71.1724 1475.97 Q68.1168 1480.56 62.3067 1480.56 Q56.4965 1480.56 53.4178 1475.97 Q50.3623 1471.37 50.3623 1462.64 Q50.3623 1453.89 53.4178 1449.31 Q56.4965 1444.7 62.3067 1444.7 Z" fill="#000000" fill-rule="evenodd" fill-opacity="1" /><path clip-path="url(#clip960)" d="M82.4686 1474.01 L87.3528 1474.01 L87.3528 1479.89 L82.4686 1479.89 L82.4686 1474.01 Z" fill="#000000" fill-rule="evenodd" fill-opacity="1" /><path clip-path="url(#clip960)" d="M96.3574 1445.33 L118.58 1445.33 L118.58 1447.32 L106.033 1479.89 L101.149 1479.89 L112.955 1449.26 L96.3574 1449.26 L96.3574 1445.33 Z" fill="#000000" fill-rule="evenodd" fill-opacity="1" /><path clip-path="url(#clip960)" d="M61.4965 993.145 Q57.8854 993.145 56.0567 996.71 Q54.2512 1000.25 54.2512 1007.38 Q54.2512 1014.49 56.0567 1018.05 Q57.8854 1021.59 61.4965 1021.59 Q65.1307 1021.59 66.9363 1018.05 Q68.765 1014.49 68.765 1007.38 Q68.765 1000.25 66.9363 996.71 Q65.1307 993.145 61.4965 993.145 M61.4965 989.441 Q67.3067 989.441 70.3622 994.048 Q73.4409 998.631 73.4409 1007.38 Q73.4409 1016.11 70.3622 1020.71 Q67.3067 1025.3 61.4965 1025.3 Q55.6864 1025.3 52.6077 1020.71 Q49.5521 1016.11 49.5521 1007.38 Q49.5521 998.631 52.6077 994.048 Q55.6864 989.441 61.4965 989.441 Z" fill="#000000" fill-rule="evenodd" fill-opacity="1" /><path clip-path="url(#clip960)" d="M81.6584 1018.75 L86.5427 1018.75 L86.5427 1024.63 L81.6584 1024.63 L81.6584 1018.75 Z" fill="#000000" fill-rule="evenodd" fill-opacity="1" /><path clip-path="url(#clip960)" d="M106.728 1008.21 Q103.394 1008.21 101.473 1010 Q99.575 1011.78 99.575 1014.9 Q99.575 1018.03 101.473 1019.81 Q103.394 1021.59 106.728 1021.59 Q110.061 1021.59 111.982 1019.81 Q113.904 1018.01 113.904 1014.9 Q113.904 1011.78 111.982 1010 Q110.084 1008.21 106.728 1008.21 M102.052 1006.22 Q99.0426 1005.48 97.3528 1003.42 Q95.6861 1001.36 95.6861 998.4 Q95.6861 994.256 98.6259 991.849 Q101.589 989.441 106.728 989.441 Q111.89 989.441 114.83 991.849 Q117.769 994.256 117.769 998.4 Q117.769 1001.36 116.08 1003.42 Q114.413 1005.48 111.427 1006.22 Q114.806 1007.01 116.681 1009.3 Q118.58 1011.59 118.58 1014.9 Q118.58 1019.93 115.501 1022.61 Q112.445 1025.3 106.728 1025.3 Q101.01 1025.3 97.9315 1022.61 Q94.876 1019.93 94.876 1014.9 Q94.876 1011.59 96.7741 1009.3 Q98.6722 1007.01 102.052 1006.22 M100.339 998.84 Q100.339 1001.52 102.006 1003.03 Q103.695 1004.53 106.728 1004.53 Q109.737 1004.53 111.427 1003.03 Q113.14 1001.52 113.14 998.84 Q113.14 996.154 111.427 994.65 Q109.737 993.145 106.728 993.145 Q103.695 993.145 102.006 994.65 Q100.339 996.154 100.339 998.84 Z" fill="#000000" fill-rule="evenodd" fill-opacity="1" /><path clip-path="url(#clip960)" d="M61.5891 537.885 Q57.978 537.885 56.1493 541.45 Q54.3438 544.992 54.3438 552.121 Q54.3438 559.228 56.1493 562.793 Q57.978 566.334 61.5891 566.334 Q65.2233 566.334 67.0289 562.793 Q68.8576 559.228 68.8576 552.121 Q68.8576 544.992 67.0289 541.45 Q65.2233 537.885 61.5891 537.885 M61.5891 534.182 Q67.3993 534.182 70.4548 538.788 Q73.5335 543.371 73.5335 552.121 Q73.5335 560.848 70.4548 565.455 Q67.3993 570.038 61.5891 570.038 Q55.7789 570.038 52.7003 565.455 Q49.6447 560.848 49.6447 552.121 Q49.6447 543.371 52.7003 538.788 Q55.7789 534.182 61.5891 534.182 Z" fill="#000000" fill-rule="evenodd" fill-opacity="1" /><path clip-path="url(#clip960)" d="M81.751 563.487 L86.6353 563.487 L86.6353 569.367 L81.751 569.367 L81.751 563.487 Z" fill="#000000" fill-rule="evenodd" fill-opacity="1" /><path clip-path="url(#clip960)" d="M96.9593 568.649 L96.9593 564.39 Q98.7185 565.223 100.524 565.663 Q102.33 566.103 104.066 566.103 Q108.695 566.103 111.126 563.001 Q113.58 559.876 113.927 553.533 Q112.584 555.524 110.524 556.589 Q108.464 557.654 105.964 557.654 Q100.779 557.654 97.7463 554.529 Q94.7371 551.381 94.7371 545.941 Q94.7371 540.617 97.8852 537.399 Q101.033 534.182 106.265 534.182 Q112.26 534.182 115.408 538.788 Q118.58 543.371 118.58 552.121 Q118.58 560.293 114.691 565.177 Q110.825 570.038 104.274 570.038 Q102.515 570.038 100.709 569.691 Q98.9037 569.344 96.9593 568.649 M106.265 553.996 Q109.413 553.996 111.242 551.844 Q113.093 549.691 113.093 545.941 Q113.093 542.214 111.242 540.061 Q109.413 537.885 106.265 537.885 Q103.117 537.885 101.265 540.061 Q99.4361 542.214 99.4361 545.941 Q99.4361 549.691 101.265 551.844 Q103.117 553.996 106.265 553.996 Z" fill="#000000" fill-rule="evenodd" fill-opacity="1" /><path clip-path="url(#clip960)" d="M52.2141 110.172 L59.853 110.172 L59.853 83.8061 L51.5429 85.4727 L51.5429 81.2135 L59.8067 79.5468 L64.4826 79.5468 L64.4826 110.172 L72.1214 110.172 L72.1214 114.107 L52.2141 114.107 L52.2141 110.172 Z" fill="#000000" fill-rule="evenodd" fill-opacity="1" /><path clip-path="url(#clip960)" d="M81.5658 108.227 L86.4501 108.227 L86.4501 114.107 L81.5658 114.107 L81.5658 108.227 Z" fill="#000000" fill-rule="evenodd" fill-opacity="1" /><path clip-path="url(#clip960)" d="M106.635 82.6255 Q103.024 82.6255 101.195 86.1903 Q99.3898 89.732 99.3898 96.8616 Q99.3898 103.968 101.195 107.533 Q103.024 111.074 106.635 111.074 Q110.269 111.074 112.075 107.533 Q113.904 103.968 113.904 96.8616 Q113.904 89.732 112.075 86.1903 Q110.269 82.6255 106.635 82.6255 M106.635 78.9219 Q112.445 78.9219 115.501 83.5283 Q118.58 88.1116 118.58 96.8616 Q118.58 105.588 115.501 110.195 Q112.445 114.778 106.635 114.778 Q100.825 114.778 97.7463 110.195 Q94.6908 105.588 94.6908 96.8616 Q94.6908 88.1116 97.7463 83.5283 Q100.825 78.9219 106.635 78.9219 Z" fill="#000000" fill-rule="evenodd" fill-opacity="1" /><polyline clip-path="url(#clip962)" style="stroke:#009af9; stroke-linecap:butt; stroke-linejoin:round; stroke-width:4; stroke-opacity:1; fill:none" points="
  229.141,1751.15 240.573,1722.91 252.006,1694.81 357.718,1441.89 463.43,1203.57 526.959,1068.53 590.487,940.328 644.2,837.683 697.912,740.633 756.259,641.894 
  814.606,550.464 868.397,472.935 922.187,402.14 979.856,333.968 1037.53,274.031 1104.34,215.166 1171.16,167.923 1230.53,135.877 1289.91,113.313 1341.98,101.397 
  1394.05,96.8724 1450.82,100.378 1507.59,112.673 1564.69,133.867 1621.8,163.837 1684.94,207.062 1748.08,260.7 1808.15,321.193 1868.23,390.672 1930.69,472.153 
  1993.16,562.716 2045.74,645.715 2098.32,734.64 2162.51,850.857 2226.71,975.008 2287.05,1098.47 2347.4,1227.99 2444.08,1446.88 2540.76,1677.93 2555.64,1714.43 
  2570.51,1751.15 
  "/>
<path clip-path="url(#clip960)" d="
M2229.84 209.375 L2558.03 209.375 L2558.03 105.695 L2229.84 105.695  Z
  " fill="#ffffff" fill-rule="evenodd" fill-opacity="1"/>
<polyline clip-path="url(#clip960)" style="stroke:#000000; stroke-linecap:butt; stroke-linejoin:round; stroke-width:4; stroke-opacity:1; fill:none" points="
  2229.84,209.375 2558.03,209.375 2558.03,105.695 2229.84,105.695 2229.84,209.375 
  "/>
<polyline clip-path="url(#clip960)" style="stroke:#009af9; stroke-linecap:butt; stroke-linejoin:round; stroke-width:4; stroke-opacity:1; fill:none" points="
  2257.41,157.535 2422.87,157.535 
  "/>
<path clip-path="url(#clip960)" d="M2464.29 177.223 Q2462.48 181.852 2460.77 183.264 Q2459.06 184.676 2456.19 184.676 L2452.78 184.676 L2452.78 181.112 L2455.28 181.112 Q2457.04 181.112 2458.01 180.278 Q2458.99 179.445 2460.17 176.343 L2460.93 174.399 L2450.44 148.889 L2454.96 148.889 L2463.06 169.167 L2471.16 148.889 L2475.68 148.889 L2464.29 177.223 Z" fill="#000000" fill-rule="evenodd" fill-opacity="1" /><path clip-path="url(#clip960)" d="M2482.97 170.88 L2490.61 170.88 L2490.61 144.515 L2482.3 146.181 L2482.3 141.922 L2490.56 140.255 L2495.24 140.255 L2495.24 170.88 L2502.87 170.88 L2502.87 174.815 L2482.97 174.815 L2482.97 170.88 Z" fill="#000000" fill-rule="evenodd" fill-opacity="1" /></svg>
