<?xml version="1.0" encoding="utf-8"?>
<svg xmlns="http://www.w3.org/2000/svg" xmlns:xlink="http://www.w3.org/1999/xlink" width="672" height="480" viewBox="0 0 2688 1920">
<defs>
  <clipPath id="clip450">
    <rect x="0" y="0" width="2688" height="1920"/>
  </clipPath>
</defs>
<path clip-path="url(#clip450)" d="M0 1920 L2688 1920 L2688 0 L0 0  Z" fill="#ffffff" fill-rule="evenodd" fill-opacity="1"/>
<defs>
  <clipPath id="clip451">
    <rect x="537" y="0" width="1883" height="1883"/>
  </clipPath>
</defs>
<path clip-path="url(#clip450)" d="M489.293 1800.78 L2640.76 1800.78 L2640.76 47.2441 L489.293 47.2441  Z" fill="#ffffff" fill-rule="evenodd" fill-opacity="1"/>
<defs>
  <clipPath id="clip452">
    <rect x="489" y="47" width="2152" height="1755"/>
  </clipPath>
</defs>
<polyline clip-path="url(#clip452)" style="stroke:#000000; stroke-linecap:round; stroke-linejoin:round; stroke-width:2; stroke-opacity:0.1; fill:none" points="550.183,1800.78 550.183,47.2441 "/>
<polyline clip-path="url(#clip452)" style="stroke:#000000; stroke-linecap:round; stroke-linejoin:round; stroke-width:2; stroke-opacity:0.1; fill:none" points="1057.6,1800.78 1057.6,47.2441 "/>
<polyline clip-path="url(#clip452)" style="stroke:#000000; stroke-linecap:round; stroke-linejoin:round; stroke-width:2; stroke-opacity:0.1; fill:none" points="1565.02,1800.78 1565.02,47.2441 "/>
<polyline clip-path="url(#clip452)" style="stroke:#000000; stroke-linecap:round; stroke-linejoin:round; stroke-width:2; stroke-opacity:0.1; fill:none" points="2072.44,1800.78 2072.44,47.2441 "/>
<polyline clip-path="url(#clip452)" style="stroke:#000000; stroke-linecap:round; stroke-linejoin:round; stroke-width:2; stroke-opacity:0.1; fill:none" points="2579.87,1800.78 2579.87,47.2441 "/>
<polyline clip-path="url(#clip450)" style="stroke:#000000; stroke-linecap:round; stroke-linejoin:round; stroke-width:4; stroke-opacity:1; fill:none" points="489.293,1800.78 2640.76,1800.78 "/>
<polyline clip-path="url(#clip450)" style="stroke:#000000; stroke-linecap:round; stroke-linejoin:round; stroke-width:4; stroke-opacity:1; fill:none" points="550.183,1800.78 550.183,1781.88 "/>
<polyline clip-path="url(#clip450)" style="stroke:#000000; stroke-linecap:round; stroke-linejoin:round; stroke-width:4; stroke-opacity:1; fill:none" points="1057.6,1800.78 1057.6,1781.88 "/>
<polyline clip-path="url(#clip450)" style="stroke:#000000; stroke-linecap:round; stroke-linejoin:round; stroke-width:4; stroke-opacity:1; fill:none" points="1565.02,1800.78 1565.02,1781.88 "/>
<polyline clip-path="url(#clip450)" style="stroke:#000000; stroke-linecap:round; stroke-linejoin:round; stroke-width:4; stroke-opacity:1; fill:none" points="2072.44,1800.78 2072.44,1781.88 "/>
<polyline clip-path="url(#clip450)" style="stroke:#000000; stroke-linecap:round; stroke-linejoin:round; stroke-width:4; stroke-opacity:1; fill:none" points="2579.87,1800.78 2579.87,1781.88 "/>
<path clip-path="url(#clip450)" d="M451.468 1848.65 L481.144 1848.65 L481.144 1852.59 L451.468 1852.59 L451.468 1848.65 Z" fill="#000000" fill-rule="evenodd" fill-opacity="1" /><path clip-path="url(#clip450)" d="M501.237 1834 Q497.626 1834 495.797 1837.57 Q493.991 1841.11 493.991 1848.24 Q493.991 1855.34 495.797 1858.91 Q497.626 1862.45 501.237 1862.45 Q504.871 1862.45 506.676 1858.91 Q508.505 1855.34 508.505 1848.24 Q508.505 1841.11 506.676 1837.57 Q504.871 1834 501.237 1834 M501.237 1830.3 Q507.047 1830.3 510.102 1834.9 Q513.181 1839.49 513.181 1848.24 Q513.181 1856.96 510.102 1861.57 Q507.047 1866.15 501.237 1866.15 Q495.427 1866.15 492.348 1861.57 Q489.292 1856.96 489.292 1848.24 Q489.292 1839.49 492.348 1834.9 Q495.427 1830.3 501.237 1830.3 Z" fill="#000000" fill-rule="evenodd" fill-opacity="1" /><path clip-path="url(#clip450)" d="M521.399 1859.6 L526.283 1859.6 L526.283 1865.48 L521.399 1865.48 L521.399 1859.6 Z" fill="#000000" fill-rule="evenodd" fill-opacity="1" /><path clip-path="url(#clip450)" d="M546.468 1834 Q542.857 1834 541.028 1837.57 Q539.223 1841.11 539.223 1848.24 Q539.223 1855.34 541.028 1858.91 Q542.857 1862.45 546.468 1862.45 Q550.102 1862.45 551.908 1858.91 Q553.736 1855.34 553.736 1848.24 Q553.736 1841.11 551.908 1837.57 Q550.102 1834 546.468 1834 M546.468 1830.3 Q552.278 1830.3 555.334 1834.9 Q558.412 1839.49 558.412 1848.24 Q558.412 1856.96 555.334 1861.57 Q552.278 1866.15 546.468 1866.15 Q540.658 1866.15 537.579 1861.57 Q534.524 1856.96 534.524 1848.24 Q534.524 1839.49 537.579 1834.9 Q540.658 1830.3 546.468 1830.3 Z" fill="#000000" fill-rule="evenodd" fill-opacity="1" /><path clip-path="url(#clip450)" d="M576.63 1834 Q573.019 1834 571.19 1837.57 Q569.384 1841.11 569.384 1848.24 Q569.384 1855.34 571.19 1858.91 Q573.019 1862.45 576.63 1862.45 Q580.264 1862.45 582.07 1858.91 Q583.898 1855.34 583.898 1848.24 Q583.898 1841.11 582.07 1837.57 Q580.264 1834 576.63 1834 M576.63 1830.3 Q582.44 1830.3 585.496 1834.9 Q588.574 1839.49 588.574 1848.24 Q588.574 1856.96 585.496 1861.57 Q582.44 1866.15 576.63 1866.15 Q570.82 1866.15 567.741 1861.57 Q564.685 1856.96 564.685 1848.24 Q564.685 1839.49 567.741 1834.9 Q570.82 1830.3 576.63 1830.3 Z" fill="#000000" fill-rule="evenodd" fill-opacity="1" /><path clip-path="url(#clip450)" d="M597.602 1861.55 L605.241 1861.55 L605.241 1835.18 L596.931 1836.85 L596.931 1832.59 L605.194 1830.92 L609.87 1830.92 L609.87 1861.55 L617.509 1861.55 L617.509 1865.48 L597.602 1865.48 L597.602 1861.55 Z" fill="#000000" fill-rule="evenodd" fill-opacity="1" /><path clip-path="url(#clip450)" d="M636.954 1834 Q633.342 1834 631.514 1837.57 Q629.708 1841.11 629.708 1848.24 Q629.708 1855.34 631.514 1858.91 Q633.342 1862.45 636.954 1862.45 Q640.588 1862.45 642.393 1858.91 Q644.222 1855.34 644.222 1848.24 Q644.222 1841.11 642.393 1837.57 Q640.588 1834 636.954 1834 M636.954 1830.3 Q642.764 1830.3 645.819 1834.9 Q648.898 1839.49 648.898 1848.24 Q648.898 1856.96 645.819 1861.57 Q642.764 1866.15 636.954 1866.15 Q631.143 1866.15 628.065 1861.57 Q625.009 1856.96 625.009 1848.24 Q625.009 1839.49 628.065 1834.9 Q631.143 1830.3 636.954 1830.3 Z" fill="#000000" fill-rule="evenodd" fill-opacity="1" /><path clip-path="url(#clip450)" d="M959.387 1848.65 L989.062 1848.65 L989.062 1852.59 L959.387 1852.59 L959.387 1848.65 Z" fill="#000000" fill-rule="evenodd" fill-opacity="1" /><path clip-path="url(#clip450)" d="M1009.15 1834 Q1005.54 1834 1003.72 1837.57 Q1001.91 1841.11 1001.91 1848.24 Q1001.91 1855.34 1003.72 1858.91 Q1005.54 1862.45 1009.15 1862.45 Q1012.79 1862.45 1014.59 1858.91 Q1016.42 1855.34 1016.42 1848.24 Q1016.42 1841.11 1014.59 1837.57 Q1012.79 1834 1009.15 1834 M1009.15 1830.3 Q1014.97 1830.3 1018.02 1834.9 Q1021.1 1839.49 1021.1 1848.24 Q1021.1 1856.96 1018.02 1861.57 Q1014.97 1866.15 1009.15 1866.15 Q1003.34 1866.15 1000.27 1861.57 Q997.211 1856.96 997.211 1848.24 Q997.211 1839.49 1000.27 1834.9 Q1003.34 1830.3 1009.15 1830.3 Z" fill="#000000" fill-rule="evenodd" fill-opacity="1" /><path clip-path="url(#clip450)" d="M1029.32 1859.6 L1034.2 1859.6 L1034.2 1865.48 L1029.32 1865.48 L1029.32 1859.6 Z" fill="#000000" fill-rule="evenodd" fill-opacity="1" /><path clip-path="url(#clip450)" d="M1054.39 1834 Q1050.78 1834 1048.95 1837.57 Q1047.14 1841.11 1047.14 1848.24 Q1047.14 1855.34 1048.95 1858.91 Q1050.78 1862.45 1054.39 1862.45 Q1058.02 1862.45 1059.83 1858.91 Q1061.65 1855.34 1061.65 1848.24 Q1061.65 1841.11 1059.83 1837.57 Q1058.02 1834 1054.39 1834 M1054.39 1830.3 Q1060.2 1830.3 1063.25 1834.9 Q1066.33 1839.49 1066.33 1848.24 Q1066.33 1856.96 1063.25 1861.57 Q1060.2 1866.15 1054.39 1866.15 Q1048.58 1866.15 1045.5 1861.57 Q1042.44 1856.96 1042.44 1848.24 Q1042.44 1839.49 1045.5 1834.9 Q1048.58 1830.3 1054.39 1830.3 Z" fill="#000000" fill-rule="evenodd" fill-opacity="1" /><path clip-path="url(#clip450)" d="M1084.55 1834 Q1080.94 1834 1079.11 1837.57 Q1077.3 1841.11 1077.3 1848.24 Q1077.3 1855.34 1079.11 1858.91 Q1080.94 1862.45 1084.55 1862.45 Q1088.18 1862.45 1089.99 1858.91 Q1091.82 1855.34 1091.82 1848.24 Q1091.82 1841.11 1089.99 1837.57 Q1088.18 1834 1084.55 1834 M1084.55 1830.3 Q1090.36 1830.3 1093.41 1834.9 Q1096.49 1839.49 1096.49 1848.24 Q1096.49 1856.96 1093.41 1861.57 Q1090.36 1866.15 1084.55 1866.15 Q1078.74 1866.15 1075.66 1861.57 Q1072.6 1856.96 1072.6 1848.24 Q1072.6 1839.49 1075.66 1834.9 Q1078.74 1830.3 1084.55 1830.3 Z" fill="#000000" fill-rule="evenodd" fill-opacity="1" /><path clip-path="url(#clip450)" d="M1114.71 1834 Q1111.1 1834 1109.27 1837.57 Q1107.46 1841.11 1107.46 1848.24 Q1107.46 1855.34 1109.27 1858.91 Q1111.1 1862.45 1114.71 1862.45 Q1118.34 1862.45 1120.15 1858.91 Q1121.98 1855.34 1121.98 1848.24 Q1121.98 1841.11 1120.15 1837.57 Q1118.34 1834 1114.71 1834 M1114.71 1830.3 Q1120.52 1830.3 1123.58 1834.9 Q1126.65 1839.49 1126.65 1848.24 Q1126.65 1856.96 1123.58 1861.57 Q1120.52 1866.15 1114.71 1866.15 Q1108.9 1866.15 1105.82 1861.57 Q1102.77 1856.96 1102.77 1848.24 Q1102.77 1839.49 1105.82 1834.9 Q1108.9 1830.3 1114.71 1830.3 Z" fill="#000000" fill-rule="evenodd" fill-opacity="1" /><path clip-path="url(#clip450)" d="M1134.92 1830.92 L1153.27 1830.92 L1153.27 1834.86 L1139.2 1834.86 L1139.2 1843.33 Q1140.22 1842.98 1141.24 1842.82 Q1142.26 1842.64 1143.27 1842.64 Q1149.06 1842.64 1152.44 1845.81 Q1155.82 1848.98 1155.82 1854.4 Q1155.82 1859.97 1152.35 1863.08 Q1148.88 1866.15 1142.56 1866.15 Q1140.38 1866.15 1138.11 1865.78 Q1135.87 1865.41 1133.46 1864.67 L1133.46 1859.97 Q1135.54 1861.11 1137.77 1861.66 Q1139.99 1862.22 1142.46 1862.22 Q1146.47 1862.22 1148.81 1860.11 Q1151.14 1858.01 1151.14 1854.4 Q1151.14 1850.78 1148.81 1848.68 Q1146.47 1846.57 1142.46 1846.57 Q1140.59 1846.57 1138.71 1846.99 Q1136.86 1847.4 1134.92 1848.28 L1134.92 1830.92 Z" fill="#000000" fill-rule="evenodd" fill-opacity="1" /><path clip-path="url(#clip450)" d="M1497.17 1834 Q1493.55 1834 1491.73 1837.57 Q1489.92 1841.11 1489.92 1848.24 Q1489.92 1855.34 1491.73 1858.91 Q1493.55 1862.45 1497.17 1862.45 Q1500.8 1862.45 1502.61 1858.91 Q1504.43 1855.34 1504.43 1848.24 Q1504.43 1841.11 1502.61 1837.57 Q1500.8 1834 1497.17 1834 M1497.17 1830.3 Q1502.98 1830.3 1506.03 1834.9 Q1509.11 1839.49 1509.11 1848.24 Q1509.11 1856.96 1506.03 1861.57 Q1502.98 1866.15 1497.17 1866.15 Q1491.36 1866.15 1488.28 1861.57 Q1485.22 1856.96 1485.22 1848.24 Q1485.22 1839.49 1488.28 1834.9 Q1491.36 1830.3 1497.17 1830.3 Z" fill="#000000" fill-rule="evenodd" fill-opacity="1" /><path clip-path="url(#clip450)" d="M1517.33 1859.6 L1522.21 1859.6 L1522.21 1865.48 L1517.33 1865.48 L1517.33 1859.6 Z" fill="#000000" fill-rule="evenodd" fill-opacity="1" /><path clip-path="url(#clip450)" d="M1542.4 1834 Q1538.79 1834 1536.96 1837.57 Q1535.15 1841.11 1535.15 1848.24 Q1535.15 1855.34 1536.96 1858.91 Q1538.79 1862.45 1542.4 1862.45 Q1546.03 1862.45 1547.84 1858.91 Q1549.67 1855.34 1549.67 1848.24 Q1549.67 1841.11 1547.84 1837.57 Q1546.03 1834 1542.4 1834 M1542.4 1830.3 Q1548.21 1830.3 1551.26 1834.9 Q1554.34 1839.49 1554.34 1848.24 Q1554.34 1856.96 1551.26 1861.57 Q1548.21 1866.15 1542.4 1866.15 Q1536.59 1866.15 1533.51 1861.57 Q1530.45 1856.96 1530.45 1848.24 Q1530.45 1839.49 1533.51 1834.9 Q1536.59 1830.3 1542.4 1830.3 Z" fill="#000000" fill-rule="evenodd" fill-opacity="1" /><path clip-path="url(#clip450)" d="M1572.56 1834 Q1568.95 1834 1567.12 1837.57 Q1565.31 1841.11 1565.31 1848.24 Q1565.31 1855.34 1567.12 1858.91 Q1568.95 1862.45 1572.56 1862.45 Q1576.19 1862.45 1578 1858.91 Q1579.83 1855.34 1579.83 1848.24 Q1579.83 1841.11 1578 1837.57 Q1576.19 1834 1572.56 1834 M1572.56 1830.3 Q1578.37 1830.3 1581.42 1834.9 Q1584.5 1839.49 1584.5 1848.24 Q1584.5 1856.96 1581.42 1861.57 Q1578.37 1866.15 1572.56 1866.15 Q1566.75 1866.15 1563.67 1861.57 Q1560.61 1856.96 1560.61 1848.24 Q1560.61 1839.49 1563.67 1834.9 Q1566.75 1830.3 1572.56 1830.3 Z" fill="#000000" fill-rule="evenodd" fill-opacity="1" /><path clip-path="url(#clip450)" d="M1602.72 1834 Q1599.11 1834 1597.28 1837.57 Q1595.48 1841.11 1595.48 1848.24 Q1595.48 1855.34 1597.28 1858.91 Q1599.11 1862.45 1602.72 1862.45 Q1606.36 1862.45 1608.16 1858.91 Q1609.99 1855.34 1609.99 1848.24 Q1609.99 1841.11 1608.16 1837.57 Q1606.36 1834 1602.72 1834 M1602.72 1830.3 Q1608.53 1830.3 1611.59 1834.9 Q1614.67 1839.49 1614.67 1848.24 Q1614.67 1856.96 1611.59 1861.57 Q1608.53 1866.15 1602.72 1866.15 Q1596.91 1866.15 1593.83 1861.57 Q1590.78 1856.96 1590.78 1848.24 Q1590.78 1839.49 1593.83 1834.9 Q1596.91 1830.3 1602.72 1830.3 Z" fill="#000000" fill-rule="evenodd" fill-opacity="1" /><path clip-path="url(#clip450)" d="M1632.88 1834 Q1629.27 1834 1627.44 1837.57 Q1625.64 1841.11 1625.64 1848.24 Q1625.64 1855.34 1627.44 1858.91 Q1629.27 1862.45 1632.88 1862.45 Q1636.52 1862.45 1638.32 1858.91 Q1640.15 1855.34 1640.15 1848.24 Q1640.15 1841.11 1638.32 1837.57 Q1636.52 1834 1632.88 1834 M1632.88 1830.3 Q1638.69 1830.3 1641.75 1834.9 Q1644.83 1839.49 1644.83 1848.24 Q1644.83 1856.96 1641.75 1861.57 Q1638.69 1866.15 1632.88 1866.15 Q1627.07 1866.15 1623.99 1861.57 Q1620.94 1856.96 1620.94 1848.24 Q1620.94 1839.49 1623.99 1834.9 Q1627.07 1830.3 1632.88 1830.3 Z" fill="#000000" fill-rule="evenodd" fill-opacity="1" /><path clip-path="url(#clip450)" d="M2005.08 1834 Q2001.47 1834 1999.64 1837.57 Q1997.84 1841.11 1997.84 1848.24 Q1997.84 1855.34 1999.64 1858.91 Q2001.47 1862.45 2005.08 1862.45 Q2008.72 1862.45 2010.52 1858.91 Q2012.35 1855.34 2012.35 1848.24 Q2012.35 1841.11 2010.52 1837.57 Q2008.72 1834 2005.08 1834 M2005.08 1830.3 Q2010.89 1830.3 2013.95 1834.9 Q2017.03 1839.49 2017.03 1848.24 Q2017.03 1856.96 2013.95 1861.57 Q2010.89 1866.15 2005.08 1866.15 Q1999.27 1866.15 1996.2 1861.57 Q1993.14 1856.96 1993.14 1848.24 Q1993.14 1839.49 1996.2 1834.9 Q1999.27 1830.3 2005.08 1830.3 Z" fill="#000000" fill-rule="evenodd" fill-opacity="1" /><path clip-path="url(#clip450)" d="M2025.25 1859.6 L2030.13 1859.6 L2030.13 1865.48 L2025.25 1865.48 L2025.25 1859.6 Z" fill="#000000" fill-rule="evenodd" fill-opacity="1" /><path clip-path="url(#clip450)" d="M2050.32 1834 Q2046.7 1834 2044.88 1837.57 Q2043.07 1841.11 2043.07 1848.24 Q2043.07 1855.34 2044.88 1858.91 Q2046.7 1862.45 2050.32 1862.45 Q2053.95 1862.45 2055.76 1858.91 Q2057.58 1855.34 2057.58 1848.24 Q2057.58 1841.11 2055.76 1837.57 Q2053.95 1834 2050.32 1834 M2050.32 1830.3 Q2056.13 1830.3 2059.18 1834.9 Q2062.26 1839.49 2062.26 1848.24 Q2062.26 1856.96 2059.18 1861.57 Q2056.13 1866.15 2050.32 1866.15 Q2044.51 1866.15 2041.43 1861.57 Q2038.37 1856.96 2038.37 1848.24 Q2038.37 1839.49 2041.43 1834.9 Q2044.51 1830.3 2050.32 1830.3 Z" fill="#000000" fill-rule="evenodd" fill-opacity="1" /><path clip-path="url(#clip450)" d="M2080.48 1834 Q2076.87 1834 2075.04 1837.57 Q2073.23 1841.11 2073.23 1848.24 Q2073.23 1855.34 2075.04 1858.91 Q2076.87 1862.45 2080.48 1862.45 Q2084.11 1862.45 2085.92 1858.91 Q2087.75 1855.34 2087.75 1848.24 Q2087.75 1841.11 2085.92 1837.57 Q2084.11 1834 2080.48 1834 M2080.48 1830.3 Q2086.29 1830.3 2089.34 1834.9 Q2092.42 1839.49 2092.42 1848.24 Q2092.42 1856.96 2089.34 1861.57 Q2086.29 1866.15 2080.48 1866.15 Q2074.67 1866.15 2071.59 1861.57 Q2068.53 1856.96 2068.53 1848.24 Q2068.53 1839.49 2071.59 1834.9 Q2074.67 1830.3 2080.48 1830.3 Z" fill="#000000" fill-rule="evenodd" fill-opacity="1" /><path clip-path="url(#clip450)" d="M2110.64 1834 Q2107.03 1834 2105.2 1837.57 Q2103.39 1841.11 2103.39 1848.24 Q2103.39 1855.34 2105.2 1858.91 Q2107.03 1862.45 2110.64 1862.45 Q2114.27 1862.45 2116.08 1858.91 Q2117.91 1855.34 2117.91 1848.24 Q2117.91 1841.11 2116.08 1837.57 Q2114.27 1834 2110.64 1834 M2110.64 1830.3 Q2116.45 1830.3 2119.5 1834.9 Q2122.58 1839.49 2122.58 1848.24 Q2122.58 1856.96 2119.5 1861.57 Q2116.45 1866.15 2110.64 1866.15 Q2104.83 1866.15 2101.75 1861.57 Q2098.69 1856.96 2098.69 1848.24 Q2098.69 1839.49 2101.75 1834.9 Q2104.83 1830.3 2110.64 1830.3 Z" fill="#000000" fill-rule="evenodd" fill-opacity="1" /><path clip-path="url(#clip450)" d="M2130.85 1830.92 L2149.2 1830.92 L2149.2 1834.86 L2135.13 1834.86 L2135.13 1843.33 Q2136.15 1842.98 2137.17 1842.82 Q2138.19 1842.64 2139.2 1842.64 Q2144.99 1842.64 2148.37 1845.81 Q2151.75 1848.98 2151.75 1854.4 Q2151.75 1859.97 2148.28 1863.08 Q2144.81 1866.15 2138.49 1866.15 Q2136.31 1866.15 2134.04 1865.78 Q2131.8 1865.41 2129.39 1864.67 L2129.39 1859.97 Q2131.47 1861.11 2133.69 1861.66 Q2135.92 1862.22 2138.39 1862.22 Q2142.4 1862.22 2144.74 1860.11 Q2147.07 1858.01 2147.07 1854.4 Q2147.07 1850.78 2144.74 1848.68 Q2142.4 1846.57 2138.39 1846.57 Q2136.52 1846.57 2134.64 1846.99 Q2132.79 1847.4 2130.85 1848.28 L2130.85 1830.92 Z" fill="#000000" fill-rule="evenodd" fill-opacity="1" /><path clip-path="url(#clip450)" d="M2512.01 1834 Q2508.4 1834 2506.57 1837.57 Q2504.76 1841.11 2504.76 1848.24 Q2504.76 1855.34 2506.57 1858.91 Q2508.4 1862.45 2512.01 1862.45 Q2515.64 1862.45 2517.45 1858.91 Q2519.28 1855.34 2519.28 1848.24 Q2519.28 1841.11 2517.45 1837.57 Q2515.64 1834 2512.01 1834 M2512.01 1830.3 Q2517.82 1830.3 2520.87 1834.9 Q2523.95 1839.49 2523.95 1848.24 Q2523.95 1856.96 2520.87 1861.57 Q2517.82 1866.15 2512.01 1866.15 Q2506.2 1866.15 2503.12 1861.57 Q2500.06 1856.96 2500.06 1848.24 Q2500.06 1839.49 2503.12 1834.9 Q2506.2 1830.3 2512.01 1830.3 Z" fill="#000000" fill-rule="evenodd" fill-opacity="1" /><path clip-path="url(#clip450)" d="M2532.17 1859.6 L2537.05 1859.6 L2537.05 1865.48 L2532.17 1865.48 L2532.17 1859.6 Z" fill="#000000" fill-rule="evenodd" fill-opacity="1" /><path clip-path="url(#clip450)" d="M2557.24 1834 Q2553.63 1834 2551.8 1837.57 Q2549.99 1841.11 2549.99 1848.24 Q2549.99 1855.34 2551.8 1858.91 Q2553.63 1862.45 2557.24 1862.45 Q2560.87 1862.45 2562.68 1858.91 Q2564.51 1855.34 2564.51 1848.24 Q2564.51 1841.11 2562.68 1837.57 Q2560.87 1834 2557.24 1834 M2557.24 1830.3 Q2563.05 1830.3 2566.1 1834.9 Q2569.18 1839.49 2569.18 1848.24 Q2569.18 1856.96 2566.1 1861.57 Q2563.05 1866.15 2557.24 1866.15 Q2551.43 1866.15 2548.35 1861.57 Q2545.29 1856.96 2545.29 1848.24 Q2545.29 1839.49 2548.35 1834.9 Q2551.43 1830.3 2557.24 1830.3 Z" fill="#000000" fill-rule="evenodd" fill-opacity="1" /><path clip-path="url(#clip450)" d="M2587.4 1834 Q2583.79 1834 2581.96 1837.57 Q2580.15 1841.11 2580.15 1848.24 Q2580.15 1855.34 2581.96 1858.91 Q2583.79 1862.45 2587.4 1862.45 Q2591.03 1862.45 2592.84 1858.91 Q2594.67 1855.34 2594.67 1848.24 Q2594.67 1841.11 2592.84 1837.57 Q2591.03 1834 2587.4 1834 M2587.4 1830.3 Q2593.21 1830.3 2596.27 1834.9 Q2599.34 1839.49 2599.34 1848.24 Q2599.34 1856.96 2596.27 1861.57 Q2593.21 1866.15 2587.4 1866.15 Q2581.59 1866.15 2578.51 1861.57 Q2575.46 1856.96 2575.46 1848.24 Q2575.46 1839.49 2578.51 1834.9 Q2581.59 1830.3 2587.4 1830.3 Z" fill="#000000" fill-rule="evenodd" fill-opacity="1" /><path clip-path="url(#clip450)" d="M2608.37 1861.55 L2616.01 1861.55 L2616.01 1835.18 L2607.7 1836.85 L2607.7 1832.59 L2615.96 1830.92 L2620.64 1830.92 L2620.64 1861.55 L2628.28 1861.55 L2628.28 1865.48 L2608.37 1865.48 L2608.37 1861.55 Z" fill="#000000" fill-rule="evenodd" fill-opacity="1" /><path clip-path="url(#clip450)" d="M2647.72 1834 Q2644.11 1834 2642.28 1837.57 Q2640.48 1841.11 2640.48 1848.24 Q2640.48 1855.34 2642.28 1858.91 Q2644.11 1862.45 2647.72 1862.45 Q2651.36 1862.45 2653.16 1858.91 Q2654.99 1855.34 2654.99 1848.24 Q2654.99 1841.11 2653.16 1837.57 Q2651.36 1834 2647.72 1834 M2647.72 1830.3 Q2653.53 1830.3 2656.59 1834.9 Q2659.67 1839.49 2659.67 1848.24 Q2659.67 1856.96 2656.59 1861.57 Q2653.53 1866.15 2647.72 1866.15 Q2641.91 1866.15 2638.84 1861.57 Q2635.78 1856.96 2635.78 1848.24 Q2635.78 1839.49 2638.84 1834.9 Q2641.91 1830.3 2647.72 1830.3 Z" fill="#000000" fill-rule="evenodd" fill-opacity="1" /><polyline clip-path="url(#clip452)" style="stroke:#000000; stroke-linecap:round; stroke-linejoin:round; stroke-width:2; stroke-opacity:0.1; fill:none" points="489.293,1585.72 2640.76,1585.72 "/>
<polyline clip-path="url(#clip452)" style="stroke:#000000; stroke-linecap:round; stroke-linejoin:round; stroke-width:2; stroke-opacity:0.1; fill:none" points="489.293,1089.43 2640.76,1089.43 "/>
<polyline clip-path="url(#clip452)" style="stroke:#000000; stroke-linecap:round; stroke-linejoin:round; stroke-width:2; stroke-opacity:0.1; fill:none" points="489.293,593.132 2640.76,593.132 "/>
<polyline clip-path="url(#clip452)" style="stroke:#000000; stroke-linecap:round; stroke-linejoin:round; stroke-width:2; stroke-opacity:0.1; fill:none" points="489.293,96.8383 2640.76,96.8383 "/>
<polyline clip-path="url(#clip450)" style="stroke:#000000; stroke-linecap:round; stroke-linejoin:round; stroke-width:4; stroke-opacity:1; fill:none" points="489.293,1800.78 489.293,47.2441 "/>
<polyline clip-path="url(#clip450)" style="stroke:#000000; stroke-linecap:round; stroke-linejoin:round; stroke-width:4; stroke-opacity:1; fill:none" points="489.293,1585.72 508.19,1585.72 "/>
<polyline clip-path="url(#clip450)" style="stroke:#000000; stroke-linecap:round; stroke-linejoin:round; stroke-width:4; stroke-opacity:1; fill:none" points="489.293,1089.43 508.19,1089.43 "/>
<polyline clip-path="url(#clip450)" style="stroke:#000000; stroke-linecap:round; stroke-linejoin:round; stroke-width:4; stroke-opacity:1; fill:none" points="489.293,593.132 508.19,593.132 "/>
<polyline clip-path="url(#clip450)" style="stroke:#000000; stroke-linecap:round; stroke-linejoin:round; stroke-width:4; stroke-opacity:1; fill:none" points="489.293,96.8383 508.19,96.8383 "/>
<path clip-path="url(#clip450)" d="M51.7743 1608.73 L51.7743 1604.47 Q53.5336 1605.3 55.3391 1605.74 Q57.1447 1606.18 58.8808 1606.18 Q63.5104 1606.18 65.9409 1603.08 Q68.3946 1599.96 68.7418 1593.61 Q67.3993 1595.6 65.3391 1596.67 Q63.2789 1597.73 60.7789 1597.73 Q55.5938 1597.73 52.5614 1594.61 Q49.5521 1591.46 49.5521 1586.02 Q49.5521 1580.7 52.7003 1577.48 Q55.8484 1574.26 61.0798 1574.26 Q67.0752 1574.26 70.2233 1578.87 Q73.3946 1583.45 73.3946 1592.2 Q73.3946 1600.37 69.5057 1605.26 Q65.64 1610.12 59.0891 1610.12 Q57.3299 1610.12 55.5243 1609.77 Q53.7188 1609.42 51.7743 1608.73 M61.0798 1594.08 Q64.228 1594.08 66.0567 1591.92 Q67.9085 1589.77 67.9085 1586.02 Q67.9085 1582.29 66.0567 1580.14 Q64.228 1577.97 61.0798 1577.97 Q57.9317 1577.97 56.0799 1580.14 Q54.2512 1582.29 54.2512 1586.02 Q54.2512 1589.77 56.0799 1591.92 Q57.9317 1594.08 61.0798 1594.08 Z" fill="#000000" fill-rule="evenodd" fill-opacity="1" /><path clip-path="url(#clip450)" d="M81.7973 1603.57 L86.6816 1603.57 L86.6816 1609.45 L81.7973 1609.45 L81.7973 1603.57 Z" fill="#000000" fill-rule="evenodd" fill-opacity="1" /><path clip-path="url(#clip450)" d="M97.0056 1608.73 L97.0056 1604.47 Q98.7648 1605.3 100.57 1605.74 Q102.376 1606.18 104.112 1606.18 Q108.742 1606.18 111.172 1603.08 Q113.626 1599.96 113.973 1593.61 Q112.63 1595.6 110.57 1596.67 Q108.51 1597.73 106.01 1597.73 Q100.825 1597.73 97.7926 1594.61 Q94.7834 1591.46 94.7834 1586.02 Q94.7834 1580.7 97.9315 1577.48 Q101.08 1574.26 106.311 1574.26 Q112.306 1574.26 115.455 1578.87 Q118.626 1583.45 118.626 1592.2 Q118.626 1600.37 114.737 1605.26 Q110.871 1610.12 104.32 1610.12 Q102.561 1610.12 100.756 1609.77 Q98.95 1609.42 97.0056 1608.73 M106.311 1594.08 Q109.459 1594.08 111.288 1591.92 Q113.14 1589.77 113.14 1586.02 Q113.14 1582.29 111.288 1580.14 Q109.459 1577.97 106.311 1577.97 Q103.163 1577.97 101.311 1580.14 Q99.4824 1582.29 99.4824 1586.02 Q99.4824 1589.77 101.311 1591.92 Q103.163 1594.08 106.311 1594.08 Z" fill="#000000" fill-rule="evenodd" fill-opacity="1" /><path clip-path="url(#clip450)" d="M127.167 1608.73 L127.167 1604.47 Q128.927 1605.3 130.732 1605.74 Q132.538 1606.18 134.274 1606.18 Q138.903 1606.18 141.334 1603.08 Q143.788 1599.96 144.135 1593.61 Q142.792 1595.6 140.732 1596.67 Q138.672 1597.73 136.172 1597.73 Q130.987 1597.73 127.954 1594.61 Q124.945 1591.46 124.945 1586.02 Q124.945 1580.7 128.093 1577.48 Q131.242 1574.26 136.473 1574.26 Q142.468 1574.26 145.616 1578.87 Q148.788 1583.45 148.788 1592.2 Q148.788 1600.37 144.899 1605.26 Q141.033 1610.12 134.482 1610.12 Q132.723 1610.12 130.917 1609.77 Q129.112 1609.42 127.167 1608.73 M136.473 1594.08 Q139.621 1594.08 141.45 1591.92 Q143.302 1589.77 143.302 1586.02 Q143.302 1582.29 141.45 1580.14 Q139.621 1577.97 136.473 1577.97 Q133.325 1577.97 131.473 1580.14 Q129.644 1582.29 129.644 1586.02 Q129.644 1589.77 131.473 1591.92 Q133.325 1594.08 136.473 1594.08 Z" fill="#000000" fill-rule="evenodd" fill-opacity="1" /><path clip-path="url(#clip450)" d="M157.329 1608.73 L157.329 1604.47 Q159.089 1605.3 160.894 1605.74 Q162.7 1606.18 164.436 1606.18 Q169.065 1606.18 171.496 1603.08 Q173.95 1599.96 174.297 1593.61 Q172.954 1595.6 170.894 1596.67 Q168.834 1597.73 166.334 1597.73 Q161.149 1597.73 158.116 1594.61 Q155.107 1591.46 155.107 1586.02 Q155.107 1580.7 158.255 1577.48 Q161.403 1574.26 166.635 1574.26 Q172.63 1574.26 175.778 1578.87 Q178.95 1583.45 178.95 1592.2 Q178.95 1600.37 175.061 1605.26 Q171.195 1610.12 164.644 1610.12 Q162.885 1610.12 161.079 1609.77 Q159.274 1609.42 157.329 1608.73 M166.635 1594.08 Q169.783 1594.08 171.612 1591.92 Q173.463 1589.77 173.463 1586.02 Q173.463 1582.29 171.612 1580.14 Q169.783 1577.97 166.635 1577.97 Q163.487 1577.97 161.635 1580.14 Q159.806 1582.29 159.806 1586.02 Q159.806 1589.77 161.635 1591.92 Q163.487 1594.08 166.635 1594.08 Z" fill="#000000" fill-rule="evenodd" fill-opacity="1" /><path clip-path="url(#clip450)" d="M187.491 1608.73 L187.491 1604.47 Q189.25 1605.3 191.056 1605.74 Q192.862 1606.18 194.598 1606.18 Q199.227 1606.18 201.658 1603.08 Q204.111 1599.96 204.459 1593.61 Q203.116 1595.6 201.056 1596.67 Q198.996 1597.73 196.496 1597.73 Q191.311 1597.73 188.278 1594.61 Q185.269 1591.46 185.269 1586.02 Q185.269 1580.7 188.417 1577.48 Q191.565 1574.26 196.797 1574.26 Q202.792 1574.26 205.94 1578.87 Q209.111 1583.45 209.111 1592.2 Q209.111 1600.37 205.223 1605.26 Q201.357 1610.12 194.806 1610.12 Q193.047 1610.12 191.241 1609.77 Q189.436 1609.42 187.491 1608.73 M196.797 1594.08 Q199.945 1594.08 201.774 1591.92 Q203.625 1589.77 203.625 1586.02 Q203.625 1582.29 201.774 1580.14 Q199.945 1577.97 196.797 1577.97 Q193.649 1577.97 191.797 1580.14 Q189.968 1582.29 189.968 1586.02 Q189.968 1589.77 191.797 1591.92 Q193.649 1594.08 196.797 1594.08 Z" fill="#000000" fill-rule="evenodd" fill-opacity="1" /><path clip-path="url(#clip450)" d="M217.653 1608.73 L217.653 1604.47 Q219.412 1605.3 221.218 1605.74 Q223.023 1606.18 224.76 1606.18 Q229.389 1606.18 231.82 1603.08 Q234.273 1599.96 234.621 1593.61 Q233.278 1595.6 231.218 1596.67 Q229.158 1597.73 226.658 1597.73 Q221.473 1597.73 218.44 1594.61 Q215.431 1591.46 215.431 1586.02 Q215.431 1580.7 218.579 1577.48 Q221.727 1574.26 226.959 1574.26 Q232.954 1574.26 236.102 1578.87 Q239.273 1583.45 239.273 1592.2 Q239.273 1600.37 235.384 1605.26 Q231.519 1610.12 224.968 1610.12 Q223.209 1610.12 221.403 1609.77 Q219.598 1609.42 217.653 1608.73 M226.959 1594.08 Q230.107 1594.08 231.935 1591.92 Q233.787 1589.77 233.787 1586.02 Q233.787 1582.29 231.935 1580.14 Q230.107 1577.97 226.959 1577.97 Q223.81 1577.97 221.959 1580.14 Q220.13 1582.29 220.13 1586.02 Q220.13 1589.77 221.959 1591.92 Q223.81 1594.08 226.959 1594.08 Z" fill="#000000" fill-rule="evenodd" fill-opacity="1" /><path clip-path="url(#clip450)" d="M257.676 1593.04 Q254.343 1593.04 252.421 1594.82 Q250.523 1596.6 250.523 1599.73 Q250.523 1602.85 252.421 1604.63 Q254.343 1606.41 257.676 1606.41 Q261.009 1606.41 262.931 1604.63 Q264.852 1602.83 264.852 1599.73 Q264.852 1596.6 262.931 1594.82 Q261.032 1593.04 257.676 1593.04 M253 1591.04 Q249.991 1590.3 248.301 1588.24 Q246.634 1586.18 246.634 1583.22 Q246.634 1579.08 249.574 1576.67 Q252.537 1574.26 257.676 1574.26 Q262.838 1574.26 265.778 1576.67 Q268.718 1579.08 268.718 1583.22 Q268.718 1586.18 267.028 1588.24 Q265.361 1590.3 262.375 1591.04 Q265.755 1591.83 267.63 1594.12 Q269.528 1596.42 269.528 1599.73 Q269.528 1604.75 266.449 1607.43 Q263.394 1610.12 257.676 1610.12 Q251.958 1610.12 248.88 1607.43 Q245.824 1604.75 245.824 1599.73 Q245.824 1596.42 247.722 1594.12 Q249.62 1591.83 253 1591.04 M251.287 1583.66 Q251.287 1586.35 252.954 1587.85 Q254.644 1589.35 257.676 1589.35 Q260.685 1589.35 262.375 1587.85 Q264.088 1586.35 264.088 1583.66 Q264.088 1580.98 262.375 1579.47 Q260.685 1577.97 257.676 1577.97 Q254.644 1577.97 252.954 1579.47 Q251.287 1580.98 251.287 1583.66 Z" fill="#000000" fill-rule="evenodd" fill-opacity="1" /><path clip-path="url(#clip450)" d="M277.884 1574.89 L296.241 1574.89 L296.241 1578.82 L282.167 1578.82 L282.167 1587.29 Q283.185 1586.95 284.204 1586.79 Q285.222 1586.6 286.241 1586.6 Q292.028 1586.6 295.407 1589.77 Q298.787 1592.94 298.787 1598.36 Q298.787 1603.94 295.315 1607.04 Q291.842 1610.12 285.523 1610.12 Q283.347 1610.12 281.079 1609.75 Q278.833 1609.38 276.426 1608.64 L276.426 1603.94 Q278.509 1605.07 280.731 1605.63 Q282.954 1606.18 285.43 1606.18 Q289.435 1606.18 291.773 1604.08 Q294.111 1601.97 294.111 1598.36 Q294.111 1594.75 291.773 1592.64 Q289.435 1590.54 285.43 1590.54 Q283.556 1590.54 281.681 1590.95 Q279.829 1591.37 277.884 1592.25 L277.884 1574.89 Z" fill="#000000" fill-rule="evenodd" fill-opacity="1" /><path clip-path="url(#clip450)" d="M336.171 1583.98 L325.592 1594.61 L336.171 1605.19 L333.416 1607.99 L322.791 1597.36 L312.166 1607.99 L309.435 1605.19 L319.99 1594.61 L309.435 1583.98 L312.166 1581.18 L322.791 1591.81 L333.416 1581.18 L336.171 1583.98 Z" fill="#000000" fill-rule="evenodd" fill-opacity="1" /><path clip-path="url(#clip450)" d="M348.532 1605.51 L356.171 1605.51 L356.171 1579.15 L347.861 1580.81 L347.861 1576.55 L356.125 1574.89 L360.8 1574.89 L360.8 1605.51 L368.439 1605.51 L368.439 1609.45 L348.532 1609.45 L348.532 1605.51 Z" fill="#000000" fill-rule="evenodd" fill-opacity="1" /><path clip-path="url(#clip450)" d="M387.884 1577.97 Q384.273 1577.97 382.444 1581.53 Q380.638 1585.07 380.638 1592.2 Q380.638 1599.31 382.444 1602.87 Q384.273 1606.41 387.884 1606.41 Q391.518 1606.41 393.323 1602.87 Q395.152 1599.31 395.152 1592.2 Q395.152 1585.07 393.323 1581.53 Q391.518 1577.97 387.884 1577.97 M387.884 1574.26 Q393.694 1574.26 396.749 1578.87 Q399.828 1583.45 399.828 1592.2 Q399.828 1600.93 396.749 1605.54 Q393.694 1610.12 387.884 1610.12 Q382.073 1610.12 378.995 1605.54 Q375.939 1600.93 375.939 1592.2 Q375.939 1583.45 378.995 1578.87 Q382.073 1574.26 387.884 1574.26 Z" fill="#000000" fill-rule="evenodd" fill-opacity="1" /><path clip-path="url(#clip450)" d="M399.828 1568.36 L423.94 1568.36 L423.94 1571.56 L399.828 1571.56 L399.828 1568.36 Z" fill="#000000" fill-rule="evenodd" fill-opacity="1" /><path clip-path="url(#clip450)" d="M432.798 1578.84 L439.005 1578.84 L439.005 1557.42 L432.253 1558.77 L432.253 1555.31 L438.967 1553.96 L442.766 1553.96 L442.766 1578.84 L448.973 1578.84 L448.973 1582.04 L432.798 1582.04 L432.798 1578.84 Z" fill="#000000" fill-rule="evenodd" fill-opacity="1" /><path clip-path="url(#clip450)" d="M51.7743 1112.44 L51.7743 1108.18 Q53.5336 1109.01 55.3391 1109.45 Q57.1447 1109.89 58.8808 1109.89 Q63.5104 1109.89 65.9409 1106.79 Q68.3946 1103.66 68.7418 1097.32 Q67.3993 1099.31 65.3391 1100.38 Q63.2789 1101.44 60.7789 1101.44 Q55.5938 1101.44 52.5614 1098.32 Q49.5521 1095.17 49.5521 1089.73 Q49.5521 1084.4 52.7003 1081.19 Q55.8484 1077.97 61.0798 1077.97 Q67.0752 1077.97 70.2233 1082.57 Q73.3946 1087.16 73.3946 1095.91 Q73.3946 1104.08 69.5057 1108.96 Q65.64 1113.82 59.0891 1113.82 Q57.3299 1113.82 55.5243 1113.48 Q53.7188 1113.13 51.7743 1112.44 M61.0798 1097.78 Q64.228 1097.78 66.0567 1095.63 Q67.9085 1093.48 67.9085 1089.73 Q67.9085 1086 66.0567 1083.85 Q64.228 1081.67 61.0798 1081.67 Q57.9317 1081.67 56.0799 1083.85 Q54.2512 1086 54.2512 1089.73 Q54.2512 1093.48 56.0799 1095.63 Q57.9317 1097.78 61.0798 1097.78 Z" fill="#000000" fill-rule="evenodd" fill-opacity="1" /><path clip-path="url(#clip450)" d="M81.7973 1107.27 L86.6816 1107.27 L86.6816 1113.15 L81.7973 1113.15 L81.7973 1107.27 Z" fill="#000000" fill-rule="evenodd" fill-opacity="1" /><path clip-path="url(#clip450)" d="M97.0056 1112.44 L97.0056 1108.18 Q98.7648 1109.01 100.57 1109.45 Q102.376 1109.89 104.112 1109.89 Q108.742 1109.89 111.172 1106.79 Q113.626 1103.66 113.973 1097.32 Q112.63 1099.31 110.57 1100.38 Q108.51 1101.44 106.01 1101.44 Q100.825 1101.44 97.7926 1098.32 Q94.7834 1095.17 94.7834 1089.73 Q94.7834 1084.4 97.9315 1081.19 Q101.08 1077.97 106.311 1077.97 Q112.306 1077.97 115.455 1082.57 Q118.626 1087.16 118.626 1095.91 Q118.626 1104.08 114.737 1108.96 Q110.871 1113.82 104.32 1113.82 Q102.561 1113.82 100.756 1113.48 Q98.95 1113.13 97.0056 1112.44 M106.311 1097.78 Q109.459 1097.78 111.288 1095.63 Q113.14 1093.48 113.14 1089.73 Q113.14 1086 111.288 1083.85 Q109.459 1081.67 106.311 1081.67 Q103.163 1081.67 101.311 1083.85 Q99.4824 1086 99.4824 1089.73 Q99.4824 1093.48 101.311 1095.63 Q103.163 1097.78 106.311 1097.78 Z" fill="#000000" fill-rule="evenodd" fill-opacity="1" /><path clip-path="url(#clip450)" d="M127.167 1112.44 L127.167 1108.18 Q128.927 1109.01 130.732 1109.45 Q132.538 1109.89 134.274 1109.89 Q138.903 1109.89 141.334 1106.79 Q143.788 1103.66 144.135 1097.32 Q142.792 1099.31 140.732 1100.38 Q138.672 1101.44 136.172 1101.44 Q130.987 1101.44 127.954 1098.32 Q124.945 1095.17 124.945 1089.73 Q124.945 1084.4 128.093 1081.19 Q131.242 1077.97 136.473 1077.97 Q142.468 1077.97 145.616 1082.57 Q148.788 1087.16 148.788 1095.91 Q148.788 1104.08 144.899 1108.96 Q141.033 1113.82 134.482 1113.82 Q132.723 1113.82 130.917 1113.48 Q129.112 1113.13 127.167 1112.44 M136.473 1097.78 Q139.621 1097.78 141.45 1095.63 Q143.302 1093.48 143.302 1089.73 Q143.302 1086 141.45 1083.85 Q139.621 1081.67 136.473 1081.67 Q133.325 1081.67 131.473 1083.85 Q129.644 1086 129.644 1089.73 Q129.644 1093.48 131.473 1095.63 Q133.325 1097.78 136.473 1097.78 Z" fill="#000000" fill-rule="evenodd" fill-opacity="1" /><path clip-path="url(#clip450)" d="M157.329 1112.44 L157.329 1108.18 Q159.089 1109.01 160.894 1109.45 Q162.7 1109.89 164.436 1109.89 Q169.065 1109.89 171.496 1106.79 Q173.95 1103.66 174.297 1097.32 Q172.954 1099.31 170.894 1100.38 Q168.834 1101.44 166.334 1101.44 Q161.149 1101.44 158.116 1098.32 Q155.107 1095.17 155.107 1089.73 Q155.107 1084.4 158.255 1081.19 Q161.403 1077.97 166.635 1077.97 Q172.63 1077.97 175.778 1082.57 Q178.95 1087.16 178.95 1095.91 Q178.95 1104.08 175.061 1108.96 Q171.195 1113.82 164.644 1113.82 Q162.885 1113.82 161.079 1113.48 Q159.274 1113.13 157.329 1112.44 M166.635 1097.78 Q169.783 1097.78 171.612 1095.63 Q173.463 1093.48 173.463 1089.73 Q173.463 1086 171.612 1083.85 Q169.783 1081.67 166.635 1081.67 Q163.487 1081.67 161.635 1083.85 Q159.806 1086 159.806 1089.73 Q159.806 1093.48 161.635 1095.63 Q163.487 1097.78 166.635 1097.78 Z" fill="#000000" fill-rule="evenodd" fill-opacity="1" /><path clip-path="url(#clip450)" d="M187.491 1112.44 L187.491 1108.18 Q189.25 1109.01 191.056 1109.45 Q192.862 1109.89 194.598 1109.89 Q199.227 1109.89 201.658 1106.79 Q204.111 1103.66 204.459 1097.32 Q203.116 1099.31 201.056 1100.38 Q198.996 1101.44 196.496 1101.44 Q191.311 1101.44 188.278 1098.32 Q185.269 1095.17 185.269 1089.73 Q185.269 1084.4 188.417 1081.19 Q191.565 1077.97 196.797 1077.97 Q202.792 1077.97 205.94 1082.57 Q209.111 1087.16 209.111 1095.91 Q209.111 1104.08 205.223 1108.96 Q201.357 1113.82 194.806 1113.82 Q193.047 1113.82 191.241 1113.48 Q189.436 1113.13 187.491 1112.44 M196.797 1097.78 Q199.945 1097.78 201.774 1095.63 Q203.625 1093.48 203.625 1089.73 Q203.625 1086 201.774 1083.85 Q199.945 1081.67 196.797 1081.67 Q193.649 1081.67 191.797 1083.85 Q189.968 1086 189.968 1089.73 Q189.968 1093.48 191.797 1095.63 Q193.649 1097.78 196.797 1097.78 Z" fill="#000000" fill-rule="evenodd" fill-opacity="1" /><path clip-path="url(#clip450)" d="M217.653 1112.44 L217.653 1108.18 Q219.412 1109.01 221.218 1109.45 Q223.023 1109.89 224.76 1109.89 Q229.389 1109.89 231.82 1106.79 Q234.273 1103.66 234.621 1097.32 Q233.278 1099.31 231.218 1100.38 Q229.158 1101.44 226.658 1101.44 Q221.473 1101.44 218.44 1098.32 Q215.431 1095.17 215.431 1089.73 Q215.431 1084.4 218.579 1081.19 Q221.727 1077.97 226.959 1077.97 Q232.954 1077.97 236.102 1082.57 Q239.273 1087.16 239.273 1095.91 Q239.273 1104.08 235.384 1108.96 Q231.519 1113.82 224.968 1113.82 Q223.209 1113.82 221.403 1113.48 Q219.598 1113.13 217.653 1112.44 M226.959 1097.78 Q230.107 1097.78 231.935 1095.63 Q233.787 1093.48 233.787 1089.73 Q233.787 1086 231.935 1083.85 Q230.107 1081.67 226.959 1081.67 Q223.81 1081.67 221.959 1083.85 Q220.13 1086 220.13 1089.73 Q220.13 1093.48 221.959 1095.63 Q223.81 1097.78 226.959 1097.78 Z" fill="#000000" fill-rule="evenodd" fill-opacity="1" /><path clip-path="url(#clip450)" d="M247.815 1112.44 L247.815 1108.18 Q249.574 1109.01 251.38 1109.45 Q253.185 1109.89 254.921 1109.89 Q259.551 1109.89 261.982 1106.79 Q264.435 1103.66 264.782 1097.32 Q263.44 1099.31 261.38 1100.38 Q259.32 1101.44 256.82 1101.44 Q251.634 1101.44 248.602 1098.32 Q245.593 1095.17 245.593 1089.73 Q245.593 1084.4 248.741 1081.19 Q251.889 1077.97 257.12 1077.97 Q263.116 1077.97 266.264 1082.57 Q269.435 1087.16 269.435 1095.91 Q269.435 1104.08 265.546 1108.96 Q261.681 1113.82 255.13 1113.82 Q253.37 1113.82 251.565 1113.48 Q249.759 1113.13 247.815 1112.44 M257.12 1097.78 Q260.269 1097.78 262.097 1095.63 Q263.949 1093.48 263.949 1089.73 Q263.949 1086 262.097 1083.85 Q260.269 1081.67 257.12 1081.67 Q253.972 1081.67 252.12 1083.85 Q250.292 1086 250.292 1089.73 Q250.292 1093.48 252.12 1095.63 Q253.972 1097.78 257.12 1097.78 Z" fill="#000000" fill-rule="evenodd" fill-opacity="1" /><path clip-path="url(#clip450)" d="M287.838 1081.67 Q284.227 1081.67 282.398 1085.24 Q280.593 1088.78 280.593 1095.91 Q280.593 1103.01 282.398 1106.58 Q284.227 1110.12 287.838 1110.12 Q291.472 1110.12 293.278 1106.58 Q295.106 1103.01 295.106 1095.91 Q295.106 1088.78 293.278 1085.24 Q291.472 1081.67 287.838 1081.67 M287.838 1077.97 Q293.648 1077.97 296.704 1082.57 Q299.782 1087.16 299.782 1095.91 Q299.782 1104.64 296.704 1109.24 Q293.648 1113.82 287.838 1113.82 Q282.028 1113.82 278.949 1109.24 Q275.894 1104.64 275.894 1095.91 Q275.894 1087.16 278.949 1082.57 Q282.028 1077.97 287.838 1077.97 Z" fill="#000000" fill-rule="evenodd" fill-opacity="1" /><path clip-path="url(#clip450)" d="M336.171 1087.69 L325.592 1098.32 L336.171 1108.89 L333.416 1111.7 L322.791 1101.07 L312.166 1111.7 L309.435 1108.89 L319.99 1098.32 L309.435 1087.69 L312.166 1084.89 L322.791 1095.51 L333.416 1084.89 L336.171 1087.69 Z" fill="#000000" fill-rule="evenodd" fill-opacity="1" /><path clip-path="url(#clip450)" d="M348.532 1109.22 L356.171 1109.22 L356.171 1082.85 L347.861 1084.52 L347.861 1080.26 L356.125 1078.59 L360.8 1078.59 L360.8 1109.22 L368.439 1109.22 L368.439 1113.15 L348.532 1113.15 L348.532 1109.22 Z" fill="#000000" fill-rule="evenodd" fill-opacity="1" /><path clip-path="url(#clip450)" d="M387.884 1081.67 Q384.273 1081.67 382.444 1085.24 Q380.638 1088.78 380.638 1095.91 Q380.638 1103.01 382.444 1106.58 Q384.273 1110.12 387.884 1110.12 Q391.518 1110.12 393.323 1106.58 Q395.152 1103.01 395.152 1095.91 Q395.152 1088.78 393.323 1085.24 Q391.518 1081.67 387.884 1081.67 M387.884 1077.97 Q393.694 1077.97 396.749 1082.57 Q399.828 1087.16 399.828 1095.91 Q399.828 1104.64 396.749 1109.24 Q393.694 1113.82 387.884 1113.82 Q382.073 1113.82 378.995 1109.24 Q375.939 1104.64 375.939 1095.91 Q375.939 1087.16 378.995 1082.57 Q382.073 1077.97 387.884 1077.97 Z" fill="#000000" fill-rule="evenodd" fill-opacity="1" /><path clip-path="url(#clip450)" d="M399.828 1072.07 L423.94 1072.07 L423.94 1075.27 L399.828 1075.27 L399.828 1072.07 Z" fill="#000000" fill-rule="evenodd" fill-opacity="1" /><path clip-path="url(#clip450)" d="M432.798 1082.55 L439.005 1082.55 L439.005 1061.12 L432.253 1062.48 L432.253 1059.02 L438.967 1057.66 L442.766 1057.66 L442.766 1082.55 L448.973 1082.55 L448.973 1085.74 L432.798 1085.74 L432.798 1082.55 Z" fill="#000000" fill-rule="evenodd" fill-opacity="1" /><path clip-path="url(#clip450)" d="M51.7743 616.142 L51.7743 611.883 Q53.5336 612.716 55.3391 613.156 Q57.1447 613.596 58.8808 613.596 Q63.5104 613.596 65.9409 610.494 Q68.3946 607.369 68.7418 601.026 Q67.3993 603.017 65.3391 604.082 Q63.2789 605.147 60.7789 605.147 Q55.5938 605.147 52.5614 602.022 Q49.5521 598.874 49.5521 593.434 Q49.5521 588.11 52.7003 584.892 Q55.8484 581.675 61.0798 581.675 Q67.0752 581.675 70.2233 586.281 Q73.3946 590.864 73.3946 599.614 Q73.3946 607.786 69.5057 612.67 Q65.64 617.531 59.0891 617.531 Q57.3299 617.531 55.5243 617.184 Q53.7188 616.837 51.7743 616.142 M61.0798 601.489 Q64.228 601.489 66.0567 599.337 Q67.9085 597.184 67.9085 593.434 Q67.9085 589.707 66.0567 587.554 Q64.228 585.378 61.0798 585.378 Q57.9317 585.378 56.0799 587.554 Q54.2512 589.707 54.2512 593.434 Q54.2512 597.184 56.0799 599.337 Q57.9317 601.489 61.0798 601.489 Z" fill="#000000" fill-rule="evenodd" fill-opacity="1" /><path clip-path="url(#clip450)" d="M81.7973 610.98 L86.6816 610.98 L86.6816 616.86 L81.7973 616.86 L81.7973 610.98 Z" fill="#000000" fill-rule="evenodd" fill-opacity="1" /><path clip-path="url(#clip450)" d="M97.0056 616.142 L97.0056 611.883 Q98.7648 612.716 100.57 613.156 Q102.376 613.596 104.112 613.596 Q108.742 613.596 111.172 610.494 Q113.626 607.369 113.973 601.026 Q112.63 603.017 110.57 604.082 Q108.51 605.147 106.01 605.147 Q100.825 605.147 97.7926 602.022 Q94.7834 598.874 94.7834 593.434 Q94.7834 588.11 97.9315 584.892 Q101.08 581.675 106.311 581.675 Q112.306 581.675 115.455 586.281 Q118.626 590.864 118.626 599.614 Q118.626 607.786 114.737 612.67 Q110.871 617.531 104.32 617.531 Q102.561 617.531 100.756 617.184 Q98.95 616.837 97.0056 616.142 M106.311 601.489 Q109.459 601.489 111.288 599.337 Q113.14 597.184 113.14 593.434 Q113.14 589.707 111.288 587.554 Q109.459 585.378 106.311 585.378 Q103.163 585.378 101.311 587.554 Q99.4824 589.707 99.4824 593.434 Q99.4824 597.184 101.311 599.337 Q103.163 601.489 106.311 601.489 Z" fill="#000000" fill-rule="evenodd" fill-opacity="1" /><path clip-path="url(#clip450)" d="M127.167 616.142 L127.167 611.883 Q128.927 612.716 130.732 613.156 Q132.538 613.596 134.274 613.596 Q138.903 613.596 141.334 610.494 Q143.788 607.369 144.135 601.026 Q142.792 603.017 140.732 604.082 Q138.672 605.147 136.172 605.147 Q130.987 605.147 127.954 602.022 Q124.945 598.874 124.945 593.434 Q124.945 588.11 128.093 584.892 Q131.242 581.675 136.473 581.675 Q142.468 581.675 145.616 586.281 Q148.788 590.864 148.788 599.614 Q148.788 607.786 144.899 612.67 Q141.033 617.531 134.482 617.531 Q132.723 617.531 130.917 617.184 Q129.112 616.837 127.167 616.142 M136.473 601.489 Q139.621 601.489 141.45 599.337 Q143.302 597.184 143.302 593.434 Q143.302 589.707 141.45 587.554 Q139.621 585.378 136.473 585.378 Q133.325 585.378 131.473 587.554 Q129.644 589.707 129.644 593.434 Q129.644 597.184 131.473 599.337 Q133.325 601.489 136.473 601.489 Z" fill="#000000" fill-rule="evenodd" fill-opacity="1" /><path clip-path="url(#clip450)" d="M157.329 616.142 L157.329 611.883 Q159.089 612.716 160.894 613.156 Q162.7 613.596 164.436 613.596 Q169.065 613.596 171.496 610.494 Q173.95 607.369 174.297 601.026 Q172.954 603.017 170.894 604.082 Q168.834 605.147 166.334 605.147 Q161.149 605.147 158.116 602.022 Q155.107 598.874 155.107 593.434 Q155.107 588.11 158.255 584.892 Q161.403 581.675 166.635 581.675 Q172.63 581.675 175.778 586.281 Q178.95 590.864 178.95 599.614 Q178.95 607.786 175.061 612.67 Q171.195 617.531 164.644 617.531 Q162.885 617.531 161.079 617.184 Q159.274 616.837 157.329 616.142 M166.635 601.489 Q169.783 601.489 171.612 599.337 Q173.463 597.184 173.463 593.434 Q173.463 589.707 171.612 587.554 Q169.783 585.378 166.635 585.378 Q163.487 585.378 161.635 587.554 Q159.806 589.707 159.806 593.434 Q159.806 597.184 161.635 599.337 Q163.487 601.489 166.635 601.489 Z" fill="#000000" fill-rule="evenodd" fill-opacity="1" /><path clip-path="url(#clip450)" d="M187.491 616.142 L187.491 611.883 Q189.25 612.716 191.056 613.156 Q192.862 613.596 194.598 613.596 Q199.227 613.596 201.658 610.494 Q204.111 607.369 204.459 601.026 Q203.116 603.017 201.056 604.082 Q198.996 605.147 196.496 605.147 Q191.311 605.147 188.278 602.022 Q185.269 598.874 185.269 593.434 Q185.269 588.11 188.417 584.892 Q191.565 581.675 196.797 581.675 Q202.792 581.675 205.94 586.281 Q209.111 590.864 209.111 599.614 Q209.111 607.786 205.223 612.67 Q201.357 617.531 194.806 617.531 Q193.047 617.531 191.241 617.184 Q189.436 616.837 187.491 616.142 M196.797 601.489 Q199.945 601.489 201.774 599.337 Q203.625 597.184 203.625 593.434 Q203.625 589.707 201.774 587.554 Q199.945 585.378 196.797 585.378 Q193.649 585.378 191.797 587.554 Q189.968 589.707 189.968 593.434 Q189.968 597.184 191.797 599.337 Q193.649 601.489 196.797 601.489 Z" fill="#000000" fill-rule="evenodd" fill-opacity="1" /><path clip-path="url(#clip450)" d="M217.653 616.142 L217.653 611.883 Q219.412 612.716 221.218 613.156 Q223.023 613.596 224.76 613.596 Q229.389 613.596 231.82 610.494 Q234.273 607.369 234.621 601.026 Q233.278 603.017 231.218 604.082 Q229.158 605.147 226.658 605.147 Q221.473 605.147 218.44 602.022 Q215.431 598.874 215.431 593.434 Q215.431 588.11 218.579 584.892 Q221.727 581.675 226.959 581.675 Q232.954 581.675 236.102 586.281 Q239.273 590.864 239.273 599.614 Q239.273 607.786 235.384 612.67 Q231.519 617.531 224.968 617.531 Q223.209 617.531 221.403 617.184 Q219.598 616.837 217.653 616.142 M226.959 601.489 Q230.107 601.489 231.935 599.337 Q233.787 597.184 233.787 593.434 Q233.787 589.707 231.935 587.554 Q230.107 585.378 226.959 585.378 Q223.81 585.378 221.959 587.554 Q220.13 589.707 220.13 593.434 Q220.13 597.184 221.959 599.337 Q223.81 601.489 226.959 601.489 Z" fill="#000000" fill-rule="evenodd" fill-opacity="1" /><path clip-path="url(#clip450)" d="M247.815 616.142 L247.815 611.883 Q249.574 612.716 251.38 613.156 Q253.185 613.596 254.921 613.596 Q259.551 613.596 261.982 610.494 Q264.435 607.369 264.782 601.026 Q263.44 603.017 261.38 604.082 Q259.32 605.147 256.82 605.147 Q251.634 605.147 248.602 602.022 Q245.593 598.874 245.593 593.434 Q245.593 588.11 248.741 584.892 Q251.889 581.675 257.12 581.675 Q263.116 581.675 266.264 586.281 Q269.435 590.864 269.435 599.614 Q269.435 607.786 265.546 612.67 Q261.681 617.531 255.13 617.531 Q253.37 617.531 251.565 617.184 Q249.759 616.837 247.815 616.142 M257.12 601.489 Q260.269 601.489 262.097 599.337 Q263.949 597.184 263.949 593.434 Q263.949 589.707 262.097 587.554 Q260.269 585.378 257.12 585.378 Q253.972 585.378 252.12 587.554 Q250.292 589.707 250.292 593.434 Q250.292 597.184 252.12 599.337 Q253.972 601.489 257.12 601.489 Z" fill="#000000" fill-rule="evenodd" fill-opacity="1" /><path clip-path="url(#clip450)" d="M277.884 582.3 L296.241 582.3 L296.241 586.235 L282.167 586.235 L282.167 594.707 Q283.185 594.36 284.204 594.198 Q285.222 594.013 286.241 594.013 Q292.028 594.013 295.407 597.184 Q298.787 600.355 298.787 605.772 Q298.787 611.35 295.315 614.452 Q291.842 617.531 285.523 617.531 Q283.347 617.531 281.079 617.161 Q278.833 616.79 276.426 616.05 L276.426 611.35 Q278.509 612.485 280.731 613.04 Q282.954 613.596 285.43 613.596 Q289.435 613.596 291.773 611.489 Q294.111 609.383 294.111 605.772 Q294.111 602.161 291.773 600.054 Q289.435 597.948 285.43 597.948 Q283.556 597.948 281.681 598.364 Q279.829 598.781 277.884 599.661 L277.884 582.3 Z" fill="#000000" fill-rule="evenodd" fill-opacity="1" /><path clip-path="url(#clip450)" d="M336.171 591.397 L325.592 602.022 L336.171 612.6 L333.416 615.401 L322.791 604.776 L312.166 615.401 L309.435 612.6 L319.99 602.022 L309.435 591.397 L312.166 588.596 L322.791 599.221 L333.416 588.596 L336.171 591.397 Z" fill="#000000" fill-rule="evenodd" fill-opacity="1" /><path clip-path="url(#clip450)" d="M348.532 612.925 L356.171 612.925 L356.171 586.559 L347.861 588.226 L347.861 583.966 L356.125 582.3 L360.8 582.3 L360.8 612.925 L368.439 612.925 L368.439 616.86 L348.532 616.86 L348.532 612.925 Z" fill="#000000" fill-rule="evenodd" fill-opacity="1" /><path clip-path="url(#clip450)" d="M387.884 585.378 Q384.273 585.378 382.444 588.943 Q380.638 592.485 380.638 599.614 Q380.638 606.721 382.444 610.286 Q384.273 613.827 387.884 613.827 Q391.518 613.827 393.323 610.286 Q395.152 606.721 395.152 599.614 Q395.152 592.485 393.323 588.943 Q391.518 585.378 387.884 585.378 M387.884 581.675 Q393.694 581.675 396.749 586.281 Q399.828 590.864 399.828 599.614 Q399.828 608.341 396.749 612.948 Q393.694 617.531 387.884 617.531 Q382.073 617.531 378.995 612.948 Q375.939 608.341 375.939 599.614 Q375.939 590.864 378.995 586.281 Q382.073 581.675 387.884 581.675 Z" fill="#000000" fill-rule="evenodd" fill-opacity="1" /><path clip-path="url(#clip450)" d="M399.828 575.776 L423.94 575.776 L423.94 578.973 L399.828 578.973 L399.828 575.776 Z" fill="#000000" fill-rule="evenodd" fill-opacity="1" /><path clip-path="url(#clip450)" d="M432.798 586.252 L439.005 586.252 L439.005 564.83 L432.253 566.184 L432.253 562.723 L438.967 561.369 L442.766 561.369 L442.766 586.252 L448.973 586.252 L448.973 589.449 L432.798 589.449 L432.798 586.252 Z" fill="#000000" fill-rule="evenodd" fill-opacity="1" /><path clip-path="url(#clip450)" d="M82.1807 116.631 L89.8196 116.631 L89.8196 90.2651 L81.5094 91.9317 L81.5094 87.6725 L89.7733 86.0059 L94.4492 86.0059 L94.4492 116.631 L102.088 116.631 L102.088 120.566 L82.1807 120.566 L82.1807 116.631 Z" fill="#000000" fill-rule="evenodd" fill-opacity="1" /><path clip-path="url(#clip450)" d="M111.532 114.686 L116.417 114.686 L116.417 120.566 L111.532 120.566 L111.532 114.686 Z" fill="#000000" fill-rule="evenodd" fill-opacity="1" /><path clip-path="url(#clip450)" d="M136.602 89.0845 Q132.991 89.0845 131.162 92.6493 Q129.356 96.191 129.356 103.321 Q129.356 110.427 131.162 113.992 Q132.991 117.533 136.602 117.533 Q140.236 117.533 142.042 113.992 Q143.87 110.427 143.87 103.321 Q143.87 96.191 142.042 92.6493 Q140.236 89.0845 136.602 89.0845 M136.602 85.3809 Q142.412 85.3809 145.467 89.9873 Q148.546 94.5706 148.546 103.321 Q148.546 112.047 145.467 116.654 Q142.412 121.237 136.602 121.237 Q130.792 121.237 127.713 116.654 Q124.657 112.047 124.657 103.321 Q124.657 94.5706 127.713 89.9873 Q130.792 85.3809 136.602 85.3809 Z" fill="#000000" fill-rule="evenodd" fill-opacity="1" /><path clip-path="url(#clip450)" d="M166.764 89.0845 Q163.153 89.0845 161.324 92.6493 Q159.518 96.191 159.518 103.321 Q159.518 110.427 161.324 113.992 Q163.153 117.533 166.764 117.533 Q170.398 117.533 172.203 113.992 Q174.032 110.427 174.032 103.321 Q174.032 96.191 172.203 92.6493 Q170.398 89.0845 166.764 89.0845 M166.764 85.3809 Q172.574 85.3809 175.629 89.9873 Q178.708 94.5706 178.708 103.321 Q178.708 112.047 175.629 116.654 Q172.574 121.237 166.764 121.237 Q160.953 121.237 157.875 116.654 Q154.819 112.047 154.819 103.321 Q154.819 94.5706 157.875 89.9873 Q160.953 85.3809 166.764 85.3809 Z" fill="#000000" fill-rule="evenodd" fill-opacity="1" /><path clip-path="url(#clip450)" d="M196.925 89.0845 Q193.314 89.0845 191.486 92.6493 Q189.68 96.191 189.68 103.321 Q189.68 110.427 191.486 113.992 Q193.314 117.533 196.925 117.533 Q200.56 117.533 202.365 113.992 Q204.194 110.427 204.194 103.321 Q204.194 96.191 202.365 92.6493 Q200.56 89.0845 196.925 89.0845 M196.925 85.3809 Q202.736 85.3809 205.791 89.9873 Q208.87 94.5706 208.87 103.321 Q208.87 112.047 205.791 116.654 Q202.736 121.237 196.925 121.237 Q191.115 121.237 188.037 116.654 Q184.981 112.047 184.981 103.321 Q184.981 94.5706 188.037 89.9873 Q191.115 85.3809 196.925 85.3809 Z" fill="#000000" fill-rule="evenodd" fill-opacity="1" /><path clip-path="url(#clip450)" d="M227.087 89.0845 Q223.476 89.0845 221.648 92.6493 Q219.842 96.191 219.842 103.321 Q219.842 110.427 221.648 113.992 Q223.476 117.533 227.087 117.533 Q230.722 117.533 232.527 113.992 Q234.356 110.427 234.356 103.321 Q234.356 96.191 232.527 92.6493 Q230.722 89.0845 227.087 89.0845 M227.087 85.3809 Q232.897 85.3809 235.953 89.9873 Q239.032 94.5706 239.032 103.321 Q239.032 112.047 235.953 116.654 Q232.897 121.237 227.087 121.237 Q221.277 121.237 218.199 116.654 Q215.143 112.047 215.143 103.321 Q215.143 94.5706 218.199 89.9873 Q221.277 85.3809 227.087 85.3809 Z" fill="#000000" fill-rule="evenodd" fill-opacity="1" /><path clip-path="url(#clip450)" d="M257.249 89.0845 Q253.638 89.0845 251.809 92.6493 Q250.004 96.191 250.004 103.321 Q250.004 110.427 251.809 113.992 Q253.638 117.533 257.249 117.533 Q260.883 117.533 262.689 113.992 Q264.518 110.427 264.518 103.321 Q264.518 96.191 262.689 92.6493 Q260.883 89.0845 257.249 89.0845 M257.249 85.3809 Q263.059 85.3809 266.115 89.9873 Q269.194 94.5706 269.194 103.321 Q269.194 112.047 266.115 116.654 Q263.059 121.237 257.249 121.237 Q251.439 121.237 248.36 116.654 Q245.305 112.047 245.305 103.321 Q245.305 94.5706 248.36 89.9873 Q251.439 85.3809 257.249 85.3809 Z" fill="#000000" fill-rule="evenodd" fill-opacity="1" /><path clip-path="url(#clip450)" d="M287.411 89.0845 Q283.8 89.0845 281.971 92.6493 Q280.166 96.191 280.166 103.321 Q280.166 110.427 281.971 113.992 Q283.8 117.533 287.411 117.533 Q291.045 117.533 292.851 113.992 Q294.68 110.427 294.68 103.321 Q294.68 96.191 292.851 92.6493 Q291.045 89.0845 287.411 89.0845 M287.411 85.3809 Q293.221 85.3809 296.277 89.9873 Q299.355 94.5706 299.355 103.321 Q299.355 112.047 296.277 116.654 Q293.221 121.237 287.411 121.237 Q281.601 121.237 278.522 116.654 Q275.467 112.047 275.467 103.321 Q275.467 94.5706 278.522 89.9873 Q281.601 85.3809 287.411 85.3809 Z" fill="#000000" fill-rule="evenodd" fill-opacity="1" /><path clip-path="url(#clip450)" d="M317.573 89.0845 Q313.962 89.0845 312.133 92.6493 Q310.328 96.191 310.328 103.321 Q310.328 110.427 312.133 113.992 Q313.962 117.533 317.573 117.533 Q321.207 117.533 323.013 113.992 Q324.841 110.427 324.841 103.321 Q324.841 96.191 323.013 92.6493 Q321.207 89.0845 317.573 89.0845 M317.573 85.3809 Q323.383 85.3809 326.439 89.9873 Q329.517 94.5706 329.517 103.321 Q329.517 112.047 326.439 116.654 Q323.383 121.237 317.573 121.237 Q311.763 121.237 308.684 116.654 Q305.629 112.047 305.629 103.321 Q305.629 94.5706 308.684 89.9873 Q311.763 85.3809 317.573 85.3809 Z" fill="#000000" fill-rule="evenodd" fill-opacity="1" /><path clip-path="url(#clip450)" d="M365.906 95.103 L355.327 105.728 L365.906 116.307 L363.151 119.108 L352.526 108.483 L341.902 119.108 L339.17 116.307 L349.726 105.728 L339.17 95.103 L341.902 92.3021 L352.526 102.927 L363.151 92.3021 L365.906 95.103 Z" fill="#000000" fill-rule="evenodd" fill-opacity="1" /><path clip-path="url(#clip450)" d="M378.267 116.631 L385.906 116.631 L385.906 90.2651 L377.596 91.9317 L377.596 87.6725 L385.86 86.0059 L390.536 86.0059 L390.536 116.631 L398.174 116.631 L398.174 120.566 L378.267 120.566 L378.267 116.631 Z" fill="#000000" fill-rule="evenodd" fill-opacity="1" /><path clip-path="url(#clip450)" d="M417.619 89.0845 Q414.008 89.0845 412.179 92.6493 Q410.373 96.191 410.373 103.321 Q410.373 110.427 412.179 113.992 Q414.008 117.533 417.619 117.533 Q421.253 117.533 423.059 113.992 Q424.887 110.427 424.887 103.321 Q424.887 96.191 423.059 92.6493 Q421.253 89.0845 417.619 89.0845 M417.619 85.3809 Q423.429 85.3809 426.484 89.9873 Q429.563 94.5706 429.563 103.321 Q429.563 112.047 426.484 116.654 Q423.429 121.237 417.619 121.237 Q411.809 121.237 408.73 116.654 Q405.674 112.047 405.674 103.321 Q405.674 94.5706 408.73 89.9873 Q411.809 85.3809 417.619 85.3809 Z" fill="#000000" fill-rule="evenodd" fill-opacity="1" /><path clip-path="url(#clip450)" d="M439.268 67.5769 Q436.334 67.5769 434.848 70.4733 Q433.381 73.3509 433.381 79.1437 Q433.381 84.9177 434.848 87.814 Q436.334 90.6916 439.268 90.6916 Q442.221 90.6916 443.688 87.814 Q445.174 84.9177 445.174 79.1437 Q445.174 73.3509 443.688 70.4733 Q442.221 67.5769 439.268 67.5769 M439.268 64.5676 Q443.989 64.5676 446.471 68.3104 Q448.973 72.0343 448.973 79.1437 Q448.973 86.2342 446.471 89.9769 Q443.989 93.7009 439.268 93.7009 Q434.547 93.7009 432.046 89.9769 Q429.563 86.2342 429.563 79.1437 Q429.563 72.0343 432.046 68.3104 Q434.547 64.5676 439.268 64.5676 Z" fill="#000000" fill-rule="evenodd" fill-opacity="1" /><polyline clip-path="url(#clip452)" style="stroke:#009af9; stroke-linecap:round; stroke-linejoin:round; stroke-width:4; stroke-opacity:1; fill:none" points="550.183,1751.15 553.487,1740.4 556.79,1729.68 560.094,1719 563.398,1708.35 593.944,1611.56 624.49,1517.76 655.037,1426.96 685.583,1339.16 722.297,1237.6 759.012,1140.37 790.053,1061.54 821.095,985.805 854.814,907.044 888.534,831.936 919.62,765.928 950.707,703.026 984.035,639.036 1017.36,578.614 1036.67,545.245 1055.98,513.072 1075.28,482.098 1094.59,452.32 1128.91,402.351 1163.22,356.165 1193.31,318.777 1223.4,284.297 1256.21,250.021 1289.02,219.202 1322.02,191.688 1355.03,167.674 1391.52,145.196 1428,126.995 1462.72,113.649 1497.44,104.175 1533.54,98.4306 1569.64,96.8725 1600.03,98.8061 1630.41,103.706 1648.96,108.156 1667.51,113.711 1686.06,120.371 1704.61,128.137 1738.6,145.233 1772.58,166.039 1803.97,188.551 1835.36,214.229 1867.16,243.467 1898.95,275.952 1934.59,316.218 1970.22,360.564 2002.51,404.271 2034.8,451.328 2053.29,479.774 2071.77,509.318 2090.26,539.96 2108.74,571.699 2142.97,633.373 2177.2,698.811 2210.95,767.011 2244.7,838.869 2277.46,912.138 2310.23,988.856 2343.82,1071.08 2377.41,1156.93 2395.81,1205.5 2414.21,1255.15 2432.61,1305.9 2451.01,1357.72 2477.74,1434.95 2504.47,1514.48 2531.2,1596.3 2557.93,1680.41 2563.41,1697.95 2568.9,1715.59 2574.38,1733.32 2579.87,1751.15 "/>
<path clip-path="url(#clip450)" d="M2301.46 209.375 L2569.04 209.375 L2569.04 105.695 L2301.46 105.695  Z" fill="#ffffff" fill-rule="evenodd" fill-opacity="1"/>
<polyline clip-path="url(#clip450)" style="stroke:#000000; stroke-linecap:round; stroke-linejoin:round; stroke-width:4; stroke-opacity:1; fill:none" points="2301.46,209.375 2569.04,209.375 2569.04,105.695 2301.46,105.695 2301.46,209.375 "/>
<polyline clip-path="url(#clip450)" style="stroke:#009af9; stroke-linecap:round; stroke-linejoin:round; stroke-width:4; stroke-opacity:1; fill:none" points="2325.37,157.535 2468.8,157.535 "/>
<path clip-path="url(#clip450)" d="M2506.55 177.223 Q2504.74 181.852 2503.03 183.264 Q2501.32 184.676 2498.45 184.676 L2495.04 184.676 L2495.04 181.112 L2497.54 181.112 Q2499.3 181.112 2500.27 180.278 Q2501.25 179.445 2502.43 176.343 L2503.19 174.399 L2492.71 148.889 L2497.22 148.889 L2505.32 169.167 L2513.42 148.889 L2517.94 148.889 L2506.55 177.223 Z" fill="#000000" fill-rule="evenodd" fill-opacity="1" /><path clip-path="url(#clip450)" d="M2525.23 170.88 L2532.87 170.88 L2532.87 144.515 L2524.56 146.181 L2524.56 141.922 L2532.82 140.255 L2537.5 140.255 L2537.5 170.88 L2545.14 170.88 L2545.14 174.815 L2525.23 174.815 L2525.23 170.88 Z" fill="#000000" fill-rule="evenodd" fill-opacity="1" /></svg>
