<?xml version="1.0" encoding="utf-8"?>
<svg xmlns="http://www.w3.org/2000/svg" xmlns:xlink="http://www.w3.org/1999/xlink" width="672" height="480" viewBox="0 0 2688 1920">
<defs>
  <clipPath id="clip390">
    <rect x="0" y="0" width="2688" height="1920"/>
  </clipPath>
</defs>
<path clip-path="url(#clip390)" d="
M0 1920 L2688 1920 L2688 0 L0 0  Z
  " fill="#ffffff" fill-rule="evenodd" fill-opacity="1"/>
<defs>
  <clipPath id="clip391">
    <rect x="537" y="0" width="1883" height="1883"/>
  </clipPath>
</defs>
<path clip-path="url(#clip390)" d="
M150.937 1800.78 L2640.76 1800.78 L2640.76 47.2441 L150.937 47.2441  Z
  " fill="#ffffff" fill-rule="evenodd" fill-opacity="1"/>
<defs>
  <clipPath id="clip392">
    <rect x="150" y="47" width="2491" height="1755"/>
  </clipPath>
</defs>
<polyline clip-path="url(#clip392)" style="stroke:#000000; stroke-linecap:butt; stroke-linejoin:round; stroke-width:2; stroke-opacity:0.1; fill:none" points="
  221.403,1800.78 221.403,47.2441 
  "/>
<polyline clip-path="url(#clip392)" style="stroke:#000000; stroke-linecap:butt; stroke-linejoin:round; stroke-width:2; stroke-opacity:0.1; fill:none" points="
  595.24,1800.78 595.24,47.2441 
  "/>
<polyline clip-path="url(#clip392)" style="stroke:#000000; stroke-linecap:butt; stroke-linejoin:round; stroke-width:2; stroke-opacity:0.1; fill:none" points="
  969.077,1800.78 969.077,47.2441 
  "/>
<polyline clip-path="url(#clip392)" style="stroke:#000000; stroke-linecap:butt; stroke-linejoin:round; stroke-width:2; stroke-opacity:0.1; fill:none" points="
  1342.91,1800.78 1342.91,47.2441 
  "/>
<polyline clip-path="url(#clip392)" style="stroke:#000000; stroke-linecap:butt; stroke-linejoin:round; stroke-width:2; stroke-opacity:0.1; fill:none" points="
  1716.75,1800.78 1716.75,47.2441 
  "/>
<polyline clip-path="url(#clip392)" style="stroke:#000000; stroke-linecap:butt; stroke-linejoin:round; stroke-width:2; stroke-opacity:0.1; fill:none" points="
  2090.59,1800.78 2090.59,47.2441 
  "/>
<polyline clip-path="url(#clip392)" style="stroke:#000000; stroke-linecap:butt; stroke-linejoin:round; stroke-width:2; stroke-opacity:0.1; fill:none" points="
  2464.42,1800.78 2464.42,47.2441 
  "/>
<polyline clip-path="url(#clip390)" style="stroke:#000000; stroke-linecap:butt; stroke-linejoin:round; stroke-width:4; stroke-opacity:1; fill:none" points="
  150.937,1800.78 2640.76,1800.78 
  "/>
<polyline clip-path="url(#clip390)" style="stroke:#000000; stroke-linecap:butt; stroke-linejoin:round; stroke-width:4; stroke-opacity:1; fill:none" points="
  221.403,1800.78 221.403,1781.88 
  "/>
<polyline clip-path="url(#clip390)" style="stroke:#000000; stroke-linecap:butt; stroke-linejoin:round; stroke-width:4; stroke-opacity:1; fill:none" points="
  595.24,1800.78 595.24,1781.88 
  "/>
<polyline clip-path="url(#clip390)" style="stroke:#000000; stroke-linecap:butt; stroke-linejoin:round; stroke-width:4; stroke-opacity:1; fill:none" points="
  969.077,1800.78 969.077,1781.88 
  "/>
<polyline clip-path="url(#clip390)" style="stroke:#000000; stroke-linecap:butt; stroke-linejoin:round; stroke-width:4; stroke-opacity:1; fill:none" points="
  1342.91,1800.78 1342.91,1781.88 
  "/>
<polyline clip-path="url(#clip390)" style="stroke:#000000; stroke-linecap:butt; stroke-linejoin:round; stroke-width:4; stroke-opacity:1; fill:none" points="
  1716.75,1800.78 1716.75,1781.88 
  "/>
<polyline clip-path="url(#clip390)" style="stroke:#000000; stroke-linecap:butt; stroke-linejoin:round; stroke-width:4; stroke-opacity:1; fill:none" points="
  2090.59,1800.78 2090.59,1781.88 
  "/>
<polyline clip-path="url(#clip390)" style="stroke:#000000; stroke-linecap:butt; stroke-linejoin:round; stroke-width:4; stroke-opacity:1; fill:none" points="
  2464.42,1800.78 2464.42,1781.88 
  "/>
<path clip-path="url(#clip390)" d="M221.403 1834 Q217.792 1834 215.963 1837.57 Q214.158 1841.11 214.158 1848.24 Q214.158 1855.34 215.963 1858.91 Q217.792 1862.45 221.403 1862.45 Q225.037 1862.45 226.843 1858.91 Q228.672 1855.34 228.672 1848.24 Q228.672 1841.11 226.843 1837.57 Q225.037 1834 221.403 1834 M221.403 1830.3 Q227.213 1830.3 230.269 1834.9 Q233.348 1839.49 233.348 1848.24 Q233.348 1856.96 230.269 1861.57 Q227.213 1866.15 221.403 1866.15 Q215.593 1866.15 212.514 1861.57 Q209.459 1856.96 209.459 1848.24 Q209.459 1839.49 212.514 1834.9 Q215.593 1830.3 221.403 1830.3 Z" fill="#000000" fill-rule="evenodd" fill-opacity="1" /><path clip-path="url(#clip390)" d="M585.622 1861.55 L593.261 1861.55 L593.261 1835.18 L584.951 1836.85 L584.951 1832.59 L593.215 1830.92 L597.89 1830.92 L597.89 1861.55 L605.529 1861.55 L605.529 1865.48 L585.622 1865.48 L585.622 1861.55 Z" fill="#000000" fill-rule="evenodd" fill-opacity="1" /><path clip-path="url(#clip390)" d="M963.73 1861.55 L980.049 1861.55 L980.049 1865.48 L958.105 1865.48 L958.105 1861.55 Q960.767 1858.79 965.35 1854.16 Q969.956 1849.51 971.137 1848.17 Q973.382 1845.65 974.262 1843.91 Q975.165 1842.15 975.165 1840.46 Q975.165 1837.71 973.22 1835.97 Q971.299 1834.23 968.197 1834.23 Q965.998 1834.23 963.544 1835 Q961.114 1835.76 958.336 1837.31 L958.336 1832.59 Q961.16 1831.46 963.614 1830.88 Q966.068 1830.3 968.105 1830.3 Q973.475 1830.3 976.669 1832.98 Q979.864 1835.67 979.864 1840.16 Q979.864 1842.29 979.054 1844.21 Q978.267 1846.11 976.16 1848.7 Q975.581 1849.37 972.48 1852.59 Q969.378 1855.78 963.73 1861.55 Z" fill="#000000" fill-rule="evenodd" fill-opacity="1" /><path clip-path="url(#clip390)" d="M1347.16 1846.85 Q1350.52 1847.57 1352.39 1849.84 Q1354.29 1852.1 1354.29 1855.44 Q1354.29 1860.55 1350.77 1863.35 Q1347.25 1866.15 1340.77 1866.15 Q1338.6 1866.15 1336.28 1865.71 Q1333.99 1865.3 1331.54 1864.44 L1331.54 1859.93 Q1333.48 1861.06 1335.8 1861.64 Q1338.11 1862.22 1340.63 1862.22 Q1345.03 1862.22 1347.32 1860.48 Q1349.64 1858.75 1349.64 1855.44 Q1349.64 1852.38 1347.49 1850.67 Q1345.36 1848.93 1341.54 1848.93 L1337.51 1848.93 L1337.51 1845.09 L1341.72 1845.09 Q1345.17 1845.09 1347 1843.72 Q1348.83 1842.34 1348.83 1839.74 Q1348.83 1837.08 1346.93 1835.67 Q1345.05 1834.23 1341.54 1834.23 Q1339.62 1834.23 1337.42 1834.65 Q1335.22 1835.07 1332.58 1835.95 L1332.58 1831.78 Q1335.24 1831.04 1337.55 1830.67 Q1339.89 1830.3 1341.95 1830.3 Q1347.28 1830.3 1350.38 1832.73 Q1353.48 1835.14 1353.48 1839.26 Q1353.48 1842.13 1351.84 1844.12 Q1350.19 1846.09 1347.16 1846.85 Z" fill="#000000" fill-rule="evenodd" fill-opacity="1" /><path clip-path="url(#clip390)" d="M1719.76 1835 L1707.95 1853.45 L1719.76 1853.45 L1719.76 1835 M1718.53 1830.92 L1724.41 1830.92 L1724.41 1853.45 L1729.34 1853.45 L1729.34 1857.34 L1724.41 1857.34 L1724.41 1865.48 L1719.76 1865.48 L1719.76 1857.34 L1704.16 1857.34 L1704.16 1852.82 L1718.53 1830.92 Z" fill="#000000" fill-rule="evenodd" fill-opacity="1" /><path clip-path="url(#clip390)" d="M2080.87 1830.92 L2099.22 1830.92 L2099.22 1834.86 L2085.15 1834.86 L2085.15 1843.33 Q2086.17 1842.98 2087.18 1842.82 Q2088.2 1842.64 2089.22 1842.64 Q2095.01 1842.64 2098.39 1845.81 Q2101.77 1848.98 2101.77 1854.4 Q2101.77 1859.97 2098.3 1863.08 Q2094.82 1866.15 2088.5 1866.15 Q2086.33 1866.15 2084.06 1865.78 Q2081.81 1865.41 2079.41 1864.67 L2079.41 1859.97 Q2081.49 1861.11 2083.71 1861.66 Q2085.93 1862.22 2088.41 1862.22 Q2092.42 1862.22 2094.75 1860.11 Q2097.09 1858.01 2097.09 1854.4 Q2097.09 1850.78 2094.75 1848.68 Q2092.42 1846.57 2088.41 1846.57 Q2086.54 1846.57 2084.66 1846.99 Q2082.81 1847.4 2080.87 1848.28 L2080.87 1830.92 Z" fill="#000000" fill-rule="evenodd" fill-opacity="1" /><path clip-path="url(#clip390)" d="M2464.83 1846.34 Q2461.68 1846.34 2459.83 1848.49 Q2458 1850.65 2458 1854.4 Q2458 1858.12 2459.83 1860.3 Q2461.68 1862.45 2464.83 1862.45 Q2467.98 1862.45 2469.81 1860.3 Q2471.66 1858.12 2471.66 1854.4 Q2471.66 1850.65 2469.81 1848.49 Q2467.98 1846.34 2464.83 1846.34 M2474.11 1831.69 L2474.11 1835.95 Q2472.35 1835.11 2470.55 1834.67 Q2468.76 1834.23 2467.01 1834.23 Q2462.38 1834.23 2459.92 1837.36 Q2457.49 1840.48 2457.14 1846.8 Q2458.51 1844.79 2460.57 1843.72 Q2462.63 1842.64 2465.11 1842.64 Q2470.32 1842.64 2473.32 1845.81 Q2476.36 1848.96 2476.36 1854.4 Q2476.36 1859.72 2473.21 1862.94 Q2470.06 1866.15 2464.83 1866.15 Q2458.83 1866.15 2455.66 1861.57 Q2452.49 1856.96 2452.49 1848.24 Q2452.49 1840.04 2456.38 1835.18 Q2460.27 1830.3 2466.82 1830.3 Q2468.58 1830.3 2470.36 1830.65 Q2472.17 1830.99 2474.11 1831.69 Z" fill="#000000" fill-rule="evenodd" fill-opacity="1" /><polyline clip-path="url(#clip392)" style="stroke:#000000; stroke-linecap:butt; stroke-linejoin:round; stroke-width:2; stroke-opacity:0.1; fill:none" points="
  150.937,1751.66 2640.76,1751.66 
  "/>
<polyline clip-path="url(#clip392)" style="stroke:#000000; stroke-linecap:butt; stroke-linejoin:round; stroke-width:2; stroke-opacity:0.1; fill:none" points="
  150.937,1383.91 2640.76,1383.91 
  "/>
<polyline clip-path="url(#clip392)" style="stroke:#000000; stroke-linecap:butt; stroke-linejoin:round; stroke-width:2; stroke-opacity:0.1; fill:none" points="
  150.937,1016.17 2640.76,1016.17 
  "/>
<polyline clip-path="url(#clip392)" style="stroke:#000000; stroke-linecap:butt; stroke-linejoin:round; stroke-width:2; stroke-opacity:0.1; fill:none" points="
  150.937,648.428 2640.76,648.428 
  "/>
<polyline clip-path="url(#clip392)" style="stroke:#000000; stroke-linecap:butt; stroke-linejoin:round; stroke-width:2; stroke-opacity:0.1; fill:none" points="
  150.937,280.685 2640.76,280.685 
  "/>
<polyline clip-path="url(#clip390)" style="stroke:#000000; stroke-linecap:butt; stroke-linejoin:round; stroke-width:4; stroke-opacity:1; fill:none" points="
  150.937,1800.78 150.937,47.2441 
  "/>
<polyline clip-path="url(#clip390)" style="stroke:#000000; stroke-linecap:butt; stroke-linejoin:round; stroke-width:4; stroke-opacity:1; fill:none" points="
  150.937,1751.66 169.834,1751.66 
  "/>
<polyline clip-path="url(#clip390)" style="stroke:#000000; stroke-linecap:butt; stroke-linejoin:round; stroke-width:4; stroke-opacity:1; fill:none" points="
  150.937,1383.91 169.834,1383.91 
  "/>
<polyline clip-path="url(#clip390)" style="stroke:#000000; stroke-linecap:butt; stroke-linejoin:round; stroke-width:4; stroke-opacity:1; fill:none" points="
  150.937,1016.17 169.834,1016.17 
  "/>
<polyline clip-path="url(#clip390)" style="stroke:#000000; stroke-linecap:butt; stroke-linejoin:round; stroke-width:4; stroke-opacity:1; fill:none" points="
  150.937,648.428 169.834,648.428 
  "/>
<polyline clip-path="url(#clip390)" style="stroke:#000000; stroke-linecap:butt; stroke-linejoin:round; stroke-width:4; stroke-opacity:1; fill:none" points="
  150.937,280.685 169.834,280.685 
  "/>
<path clip-path="url(#clip390)" d="M49.5521 1752.11 L79.2279 1752.11 L79.2279 1756.04 L49.5521 1756.04 L49.5521 1752.11 Z" fill="#000000" fill-rule="evenodd" fill-opacity="1" /><path clip-path="url(#clip390)" d="M103.487 1750.3 Q106.843 1751.02 108.718 1753.29 Q110.617 1755.56 110.617 1758.89 Q110.617 1764.01 107.098 1766.81 Q103.58 1769.61 97.0982 1769.61 Q94.9223 1769.61 92.6075 1769.17 Q90.3158 1768.75 87.8621 1767.9 L87.8621 1763.38 Q89.8065 1764.52 92.1213 1765.09 Q94.4361 1765.67 96.9593 1765.67 Q101.357 1765.67 103.649 1763.94 Q105.964 1762.2 105.964 1758.89 Q105.964 1755.84 103.811 1754.12 Q101.681 1752.39 97.8621 1752.39 L93.8343 1752.39 L93.8343 1748.54 L98.0472 1748.54 Q101.496 1748.54 103.325 1747.18 Q105.154 1745.79 105.154 1743.2 Q105.154 1740.53 103.256 1739.12 Q101.381 1737.69 97.8621 1737.69 Q95.9408 1737.69 93.7417 1738.1 Q91.5426 1738.52 88.9038 1739.4 L88.9038 1735.23 Q91.5658 1734.49 93.8806 1734.12 Q96.2185 1733.75 98.2787 1733.75 Q103.603 1733.75 106.705 1736.18 Q109.806 1738.59 109.806 1742.71 Q109.806 1745.58 108.163 1747.57 Q106.519 1749.54 103.487 1750.3 Z" fill="#000000" fill-rule="evenodd" fill-opacity="1" /><path clip-path="url(#clip390)" d="M50.5012 1384.37 L80.177 1384.37 L80.177 1388.3 L50.5012 1388.3 L50.5012 1384.37 Z" fill="#000000" fill-rule="evenodd" fill-opacity="1" /><path clip-path="url(#clip390)" d="M94.2973 1397.26 L110.617 1397.26 L110.617 1401.19 L88.6723 1401.19 L88.6723 1397.26 Q91.3343 1394.5 95.9176 1389.87 Q100.524 1385.22 101.705 1383.88 Q103.95 1381.36 104.83 1379.62 Q105.732 1377.86 105.732 1376.17 Q105.732 1373.42 103.788 1371.68 Q101.867 1369.94 98.7648 1369.94 Q96.5658 1369.94 94.1121 1370.71 Q91.6815 1371.47 88.9038 1373.02 L88.9038 1368.3 Q91.7278 1367.17 94.1815 1366.59 Q96.6352 1366.01 98.6722 1366.01 Q104.043 1366.01 107.237 1368.69 Q110.431 1371.38 110.431 1375.87 Q110.431 1378 109.621 1379.92 Q108.834 1381.82 106.728 1384.41 Q106.149 1385.08 103.047 1388.3 Q99.9454 1391.5 94.2973 1397.26 Z" fill="#000000" fill-rule="evenodd" fill-opacity="1" /><path clip-path="url(#clip390)" d="M50.1308 1016.62 L79.8066 1016.62 L79.8066 1020.56 L50.1308 1020.56 L50.1308 1016.62 Z" fill="#000000" fill-rule="evenodd" fill-opacity="1" /><path clip-path="url(#clip390)" d="M90.7093 1029.52 L98.3482 1029.52 L98.3482 1003.15 L90.038 1004.82 L90.038 1000.56 L98.3019 998.891 L102.978 998.891 L102.978 1029.52 L110.617 1029.52 L110.617 1033.45 L90.7093 1033.45 L90.7093 1029.52 Z" fill="#000000" fill-rule="evenodd" fill-opacity="1" /><path clip-path="url(#clip390)" d="M98.6722 634.227 Q95.0611 634.227 93.2324 637.792 Q91.4269 641.333 91.4269 648.463 Q91.4269 655.569 93.2324 659.134 Q95.0611 662.676 98.6722 662.676 Q102.306 662.676 104.112 659.134 Q105.941 655.569 105.941 648.463 Q105.941 641.333 104.112 637.792 Q102.306 634.227 98.6722 634.227 M98.6722 630.523 Q104.482 630.523 107.538 635.129 Q110.617 639.713 110.617 648.463 Q110.617 657.19 107.538 661.796 Q104.482 666.379 98.6722 666.379 Q92.8621 666.379 89.7834 661.796 Q86.7279 657.19 86.7279 648.463 Q86.7279 639.713 89.7834 635.129 Q92.8621 630.523 98.6722 630.523 Z" fill="#000000" fill-rule="evenodd" fill-opacity="1" /><path clip-path="url(#clip390)" d="M90.7093 294.03 L98.3482 294.03 L98.3482 267.664 L90.038 269.331 L90.038 265.072 L98.3019 263.405 L102.978 263.405 L102.978 294.03 L110.617 294.03 L110.617 297.965 L90.7093 297.965 L90.7093 294.03 Z" fill="#000000" fill-rule="evenodd" fill-opacity="1" /><polyline clip-path="url(#clip392)" style="stroke:#009af9; stroke-linecap:butt; stroke-linejoin:round; stroke-width:4; stroke-opacity:1; fill:none" points="
  221.403,280.685 227.138,269.576 232.873,258.816 238.607,248.406 244.342,238.349 270.855,196.472 297.368,162.212 323.88,135.483 350.393,116.059 376.906,103.581 
  403.419,97.5724 429.932,97.4459 456.444,102.524 520.177,131.384 583.909,174.361 637.794,212.963 691.679,246.722 750.213,271.834 808.747,280.685 862.71,273.081 
  916.673,251.444 974.528,216.342 1032.38,175.054 1099.41,130.003 1166.44,101.045 1196.23,96.8724 1226.01,99.5646 1255.79,110.033 1285.58,129.031 1311.7,153.164 
  1337.81,184.552 1363.93,223.32 1390.05,269.459 1418.53,327.98 1447,394.699 1475.48,469.037 1503.95,550.231 1561.24,730.387 1618.53,924.872 1681.87,1142.92 
  1745.21,1348.08 1775.35,1436.37 1805.48,1516.37 1835.62,1586.57 1865.75,1645.65 1897.08,1694.06 1928.41,1728.2 1959.75,1747.37 1991.08,1751.15 2017.45,1742.34 
  2043.83,1722.71 2070.2,1692.53 2096.58,1652.27 2128.78,1590.3 2160.98,1515.55 2193.18,1429.64 2225.38,1334.41 2285.92,1137.31 2346.46,928.828 2394.95,763.4 
  2443.45,606.942 2491.94,465.532 2540.44,344.034 2547.9,327.342 2555.36,311.215 2562.83,295.66 2570.29,280.685 
  "/>
<path clip-path="url(#clip390)" d="
M2228.69 209.375 L2557.76 209.375 L2557.76 105.695 L2228.69 105.695  Z
  " fill="#ffffff" fill-rule="evenodd" fill-opacity="1"/>
<polyline clip-path="url(#clip390)" style="stroke:#000000; stroke-linecap:butt; stroke-linejoin:round; stroke-width:4; stroke-opacity:1; fill:none" points="
  2228.69,209.375 2557.76,209.375 2557.76,105.695 2228.69,105.695 2228.69,209.375 
  "/>
<polyline clip-path="url(#clip390)" style="stroke:#009af9; stroke-linecap:butt; stroke-linejoin:round; stroke-width:4; stroke-opacity:1; fill:none" points="
  2256.35,157.535 2422.34,157.535 
  "/>
<path clip-path="url(#clip390)" d="M2463.84 177.223 Q2462.04 181.852 2460.33 183.264 Q2458.61 184.676 2455.74 184.676 L2452.34 184.676 L2452.34 181.112 L2454.84 181.112 Q2456.6 181.112 2457.57 180.278 Q2458.54 179.445 2459.72 176.343 L2460.49 174.399 L2450 148.889 L2454.52 148.889 L2462.62 169.167 L2470.72 148.889 L2475.23 148.889 L2463.84 177.223 Z" fill="#000000" fill-rule="evenodd" fill-opacity="1" /><path clip-path="url(#clip390)" d="M2482.53 170.88 L2490.16 170.88 L2490.16 144.515 L2481.85 146.181 L2481.85 141.922 L2490.12 140.255 L2494.79 140.255 L2494.79 170.88 L2502.43 170.88 L2502.43 174.815 L2482.53 174.815 L2482.53 170.88 Z" fill="#000000" fill-rule="evenodd" fill-opacity="1" /></svg>
