<?xml version="1.0" encoding="utf-8"?>
<svg xmlns="http://www.w3.org/2000/svg" xmlns:xlink="http://www.w3.org/1999/xlink" width="672" height="480" viewBox="0 0 2688 1920">
<defs>
  <clipPath id="clip300">
    <rect x="0" y="0" width="2688" height="1920"/>
  </clipPath>
</defs>
<path clip-path="url(#clip300)" d="
M0 1920 L2688 1920 L2688 0 L0 0  Z
  " fill="#ffffff" fill-rule="evenodd" fill-opacity="1"/>
<defs>
  <clipPath id="clip301">
    <rect x="537" y="0" width="1883" height="1883"/>
  </clipPath>
</defs>
<path clip-path="url(#clip300)" d="
M150.937 1800.78 L2640.76 1800.78 L2640.76 47.2441 L150.937 47.2441  Z
  " fill="#ffffff" fill-rule="evenodd" fill-opacity="1"/>
<defs>
  <clipPath id="clip302">
    <rect x="150" y="47" width="2491" height="1755"/>
  </clipPath>
</defs>
<polyline clip-path="url(#clip302)" style="stroke:#000000; stroke-linecap:butt; stroke-linejoin:round; stroke-width:2; stroke-opacity:0.1; fill:none" points="
  221.403,1800.78 221.403,47.2441 
  "/>
<polyline clip-path="url(#clip302)" style="stroke:#000000; stroke-linecap:butt; stroke-linejoin:round; stroke-width:2; stroke-opacity:0.1; fill:none" points="
  595.24,1800.78 595.24,47.2441 
  "/>
<polyline clip-path="url(#clip302)" style="stroke:#000000; stroke-linecap:butt; stroke-linejoin:round; stroke-width:2; stroke-opacity:0.1; fill:none" points="
  969.077,1800.78 969.077,47.2441 
  "/>
<polyline clip-path="url(#clip302)" style="stroke:#000000; stroke-linecap:butt; stroke-linejoin:round; stroke-width:2; stroke-opacity:0.1; fill:none" points="
  1342.91,1800.78 1342.91,47.2441 
  "/>
<polyline clip-path="url(#clip302)" style="stroke:#000000; stroke-linecap:butt; stroke-linejoin:round; stroke-width:2; stroke-opacity:0.1; fill:none" points="
  1716.75,1800.78 1716.75,47.2441 
  "/>
<polyline clip-path="url(#clip302)" style="stroke:#000000; stroke-linecap:butt; stroke-linejoin:round; stroke-width:2; stroke-opacity:0.1; fill:none" points="
  2090.59,1800.78 2090.59,47.2441 
  "/>
<polyline clip-path="url(#clip302)" style="stroke:#000000; stroke-linecap:butt; stroke-linejoin:round; stroke-width:2; stroke-opacity:0.1; fill:none" points="
  2464.42,1800.78 2464.42,47.2441 
  "/>
<polyline clip-path="url(#clip300)" style="stroke:#000000; stroke-linecap:butt; stroke-linejoin:round; stroke-width:4; stroke-opacity:1; fill:none" points="
  150.937,1800.78 2640.76,1800.78 
  "/>
<polyline clip-path="url(#clip300)" style="stroke:#000000; stroke-linecap:butt; stroke-linejoin:round; stroke-width:4; stroke-opacity:1; fill:none" points="
  221.403,1800.78 221.403,1781.88 
  "/>
<polyline clip-path="url(#clip300)" style="stroke:#000000; stroke-linecap:butt; stroke-linejoin:round; stroke-width:4; stroke-opacity:1; fill:none" points="
  595.24,1800.78 595.24,1781.88 
  "/>
<polyline clip-path="url(#clip300)" style="stroke:#000000; stroke-linecap:butt; stroke-linejoin:round; stroke-width:4; stroke-opacity:1; fill:none" points="
  969.077,1800.78 969.077,1781.88 
  "/>
<polyline clip-path="url(#clip300)" style="stroke:#000000; stroke-linecap:butt; stroke-linejoin:round; stroke-width:4; stroke-opacity:1; fill:none" points="
  1342.91,1800.78 1342.91,1781.88 
  "/>
<polyline clip-path="url(#clip300)" style="stroke:#000000; stroke-linecap:butt; stroke-linejoin:round; stroke-width:4; stroke-opacity:1; fill:none" points="
  1716.75,1800.78 1716.75,1781.88 
  "/>
<polyline clip-path="url(#clip300)" style="stroke:#000000; stroke-linecap:butt; stroke-linejoin:round; stroke-width:4; stroke-opacity:1; fill:none" points="
  2090.59,1800.78 2090.59,1781.88 
  "/>
<polyline clip-path="url(#clip300)" style="stroke:#000000; stroke-linecap:butt; stroke-linejoin:round; stroke-width:4; stroke-opacity:1; fill:none" points="
  2464.42,1800.78 2464.42,1781.88 
  "/>
<path clip-path="url(#clip300)" d="M221.403 1834 Q217.792 1834 215.963 1837.57 Q214.158 1841.11 214.158 1848.24 Q214.158 1855.34 215.963 1858.91 Q217.792 1862.45 221.403 1862.45 Q225.037 1862.45 226.843 1858.91 Q228.672 1855.34 228.672 1848.24 Q228.672 1841.11 226.843 1837.57 Q225.037 1834 221.403 1834 M221.403 1830.3 Q227.213 1830.3 230.269 1834.9 Q233.348 1839.49 233.348 1848.24 Q233.348 1856.96 230.269 1861.57 Q227.213 1866.15 221.403 1866.15 Q215.593 1866.15 212.514 1861.57 Q209.459 1856.96 209.459 1848.24 Q209.459 1839.49 212.514 1834.9 Q215.593 1830.3 221.403 1830.3 Z" fill="#000000" fill-rule="evenodd" fill-opacity="1" /><path clip-path="url(#clip300)" d="M585.622 1861.55 L593.261 1861.55 L593.261 1835.18 L584.951 1836.85 L584.951 1832.59 L593.215 1830.92 L597.89 1830.92 L597.89 1861.55 L605.529 1861.55 L605.529 1865.48 L585.622 1865.48 L585.622 1861.55 Z" fill="#000000" fill-rule="evenodd" fill-opacity="1" /><path clip-path="url(#clip300)" d="M963.73 1861.55 L980.049 1861.55 L980.049 1865.48 L958.105 1865.48 L958.105 1861.55 Q960.767 1858.79 965.35 1854.16 Q969.956 1849.51 971.137 1848.17 Q973.382 1845.65 974.262 1843.91 Q975.165 1842.15 975.165 1840.46 Q975.165 1837.71 973.22 1835.97 Q971.299 1834.23 968.197 1834.23 Q965.998 1834.23 963.544 1835 Q961.114 1835.76 958.336 1837.31 L958.336 1832.59 Q961.16 1831.46 963.614 1830.88 Q966.068 1830.3 968.105 1830.3 Q973.475 1830.3 976.669 1832.98 Q979.864 1835.67 979.864 1840.16 Q979.864 1842.29 979.054 1844.21 Q978.267 1846.11 976.16 1848.7 Q975.581 1849.37 972.48 1852.59 Q969.378 1855.78 963.73 1861.55 Z" fill="#000000" fill-rule="evenodd" fill-opacity="1" /><path clip-path="url(#clip300)" d="M1347.16 1846.85 Q1350.52 1847.57 1352.39 1849.84 Q1354.29 1852.1 1354.29 1855.44 Q1354.29 1860.55 1350.77 1863.35 Q1347.25 1866.15 1340.77 1866.15 Q1338.6 1866.15 1336.28 1865.71 Q1333.99 1865.3 1331.54 1864.44 L1331.54 1859.93 Q1333.48 1861.06 1335.8 1861.64 Q1338.11 1862.22 1340.63 1862.22 Q1345.03 1862.22 1347.32 1860.48 Q1349.64 1858.75 1349.64 1855.44 Q1349.64 1852.38 1347.49 1850.67 Q1345.36 1848.93 1341.54 1848.93 L1337.51 1848.93 L1337.51 1845.09 L1341.72 1845.09 Q1345.17 1845.09 1347 1843.72 Q1348.83 1842.34 1348.83 1839.74 Q1348.83 1837.08 1346.93 1835.67 Q1345.05 1834.23 1341.54 1834.23 Q1339.62 1834.23 1337.42 1834.65 Q1335.22 1835.07 1332.58 1835.95 L1332.58 1831.78 Q1335.24 1831.04 1337.55 1830.67 Q1339.89 1830.3 1341.95 1830.3 Q1347.28 1830.3 1350.38 1832.73 Q1353.48 1835.14 1353.48 1839.26 Q1353.48 1842.13 1351.84 1844.12 Q1350.19 1846.09 1347.16 1846.85 Z" fill="#000000" fill-rule="evenodd" fill-opacity="1" /><path clip-path="url(#clip300)" d="M1719.76 1835 L1707.95 1853.45 L1719.76 1853.45 L1719.76 1835 M1718.53 1830.92 L1724.41 1830.92 L1724.41 1853.45 L1729.34 1853.45 L1729.34 1857.34 L1724.41 1857.34 L1724.41 1865.48 L1719.76 1865.48 L1719.76 1857.34 L1704.16 1857.34 L1704.16 1852.82 L1718.53 1830.92 Z" fill="#000000" fill-rule="evenodd" fill-opacity="1" /><path clip-path="url(#clip300)" d="M2080.87 1830.92 L2099.22 1830.92 L2099.22 1834.86 L2085.15 1834.86 L2085.15 1843.33 Q2086.17 1842.98 2087.18 1842.82 Q2088.2 1842.64 2089.22 1842.64 Q2095.01 1842.64 2098.39 1845.81 Q2101.77 1848.98 2101.77 1854.4 Q2101.77 1859.97 2098.3 1863.08 Q2094.82 1866.15 2088.5 1866.15 Q2086.33 1866.15 2084.06 1865.78 Q2081.81 1865.41 2079.41 1864.67 L2079.41 1859.97 Q2081.49 1861.11 2083.71 1861.66 Q2085.93 1862.22 2088.41 1862.22 Q2092.42 1862.22 2094.75 1860.11 Q2097.09 1858.01 2097.09 1854.4 Q2097.09 1850.78 2094.75 1848.68 Q2092.42 1846.57 2088.41 1846.57 Q2086.54 1846.57 2084.66 1846.99 Q2082.81 1847.4 2080.87 1848.28 L2080.87 1830.92 Z" fill="#000000" fill-rule="evenodd" fill-opacity="1" /><path clip-path="url(#clip300)" d="M2464.83 1846.34 Q2461.68 1846.34 2459.83 1848.49 Q2458 1850.65 2458 1854.4 Q2458 1858.12 2459.83 1860.3 Q2461.68 1862.45 2464.83 1862.45 Q2467.98 1862.45 2469.81 1860.3 Q2471.66 1858.12 2471.66 1854.4 Q2471.66 1850.65 2469.81 1848.49 Q2467.98 1846.34 2464.83 1846.34 M2474.11 1831.69 L2474.11 1835.95 Q2472.35 1835.11 2470.55 1834.67 Q2468.76 1834.23 2467.01 1834.23 Q2462.38 1834.23 2459.92 1837.36 Q2457.49 1840.48 2457.14 1846.8 Q2458.51 1844.79 2460.57 1843.72 Q2462.63 1842.64 2465.11 1842.64 Q2470.32 1842.64 2473.32 1845.81 Q2476.36 1848.96 2476.36 1854.4 Q2476.36 1859.72 2473.21 1862.94 Q2470.06 1866.15 2464.83 1866.15 Q2458.83 1866.15 2455.66 1861.57 Q2452.49 1856.96 2452.49 1848.24 Q2452.49 1840.04 2456.38 1835.18 Q2460.27 1830.3 2466.82 1830.3 Q2468.58 1830.3 2470.36 1830.65 Q2472.17 1830.99 2474.11 1831.69 Z" fill="#000000" fill-rule="evenodd" fill-opacity="1" /><polyline clip-path="url(#clip302)" style="stroke:#000000; stroke-linecap:butt; stroke-linejoin:round; stroke-width:2; stroke-opacity:0.1; fill:none" points="
  150.937,1628.94 2640.76,1628.94 
  "/>
<polyline clip-path="url(#clip302)" style="stroke:#000000; stroke-linecap:butt; stroke-linejoin:round; stroke-width:2; stroke-opacity:0.1; fill:none" points="
  150.937,1393.97 2640.76,1393.97 
  "/>
<polyline clip-path="url(#clip302)" style="stroke:#000000; stroke-linecap:butt; stroke-linejoin:round; stroke-width:2; stroke-opacity:0.1; fill:none" points="
  150.937,1158.99 2640.76,1158.99 
  "/>
<polyline clip-path="url(#clip302)" style="stroke:#000000; stroke-linecap:butt; stroke-linejoin:round; stroke-width:2; stroke-opacity:0.1; fill:none" points="
  150.937,924.008 2640.76,924.008 
  "/>
<polyline clip-path="url(#clip302)" style="stroke:#000000; stroke-linecap:butt; stroke-linejoin:round; stroke-width:2; stroke-opacity:0.1; fill:none" points="
  150.937,689.029 2640.76,689.029 
  "/>
<polyline clip-path="url(#clip302)" style="stroke:#000000; stroke-linecap:butt; stroke-linejoin:round; stroke-width:2; stroke-opacity:0.1; fill:none" points="
  150.937,454.05 2640.76,454.05 
  "/>
<polyline clip-path="url(#clip302)" style="stroke:#000000; stroke-linecap:butt; stroke-linejoin:round; stroke-width:2; stroke-opacity:0.1; fill:none" points="
  150.937,219.071 2640.76,219.071 
  "/>
<polyline clip-path="url(#clip300)" style="stroke:#000000; stroke-linecap:butt; stroke-linejoin:round; stroke-width:4; stroke-opacity:1; fill:none" points="
  150.937,1800.78 150.937,47.2441 
  "/>
<polyline clip-path="url(#clip300)" style="stroke:#000000; stroke-linecap:butt; stroke-linejoin:round; stroke-width:4; stroke-opacity:1; fill:none" points="
  150.937,1628.94 169.834,1628.94 
  "/>
<polyline clip-path="url(#clip300)" style="stroke:#000000; stroke-linecap:butt; stroke-linejoin:round; stroke-width:4; stroke-opacity:1; fill:none" points="
  150.937,1393.97 169.834,1393.97 
  "/>
<polyline clip-path="url(#clip300)" style="stroke:#000000; stroke-linecap:butt; stroke-linejoin:round; stroke-width:4; stroke-opacity:1; fill:none" points="
  150.937,1158.99 169.834,1158.99 
  "/>
<polyline clip-path="url(#clip300)" style="stroke:#000000; stroke-linecap:butt; stroke-linejoin:round; stroke-width:4; stroke-opacity:1; fill:none" points="
  150.937,924.008 169.834,924.008 
  "/>
<polyline clip-path="url(#clip300)" style="stroke:#000000; stroke-linecap:butt; stroke-linejoin:round; stroke-width:4; stroke-opacity:1; fill:none" points="
  150.937,689.029 169.834,689.029 
  "/>
<polyline clip-path="url(#clip300)" style="stroke:#000000; stroke-linecap:butt; stroke-linejoin:round; stroke-width:4; stroke-opacity:1; fill:none" points="
  150.937,454.05 169.834,454.05 
  "/>
<polyline clip-path="url(#clip300)" style="stroke:#000000; stroke-linecap:butt; stroke-linejoin:round; stroke-width:4; stroke-opacity:1; fill:none" points="
  150.937,219.071 169.834,219.071 
  "/>
<path clip-path="url(#clip300)" d="M49.5521 1629.4 L79.2279 1629.4 L79.2279 1633.33 L49.5521 1633.33 L49.5521 1629.4 Z" fill="#000000" fill-rule="evenodd" fill-opacity="1" /><path clip-path="url(#clip300)" d="M103.487 1627.59 Q106.843 1628.31 108.718 1630.58 Q110.617 1632.85 110.617 1636.18 Q110.617 1641.29 107.098 1644.1 Q103.58 1646.9 97.0982 1646.9 Q94.9223 1646.9 92.6075 1646.46 Q90.3158 1646.04 87.8621 1645.18 L87.8621 1640.67 Q89.8065 1641.8 92.1213 1642.38 Q94.4361 1642.96 96.9593 1642.96 Q101.357 1642.96 103.649 1641.22 Q105.964 1639.49 105.964 1636.18 Q105.964 1633.12 103.811 1631.41 Q101.681 1629.67 97.8621 1629.67 L93.8343 1629.67 L93.8343 1625.83 L98.0472 1625.83 Q101.496 1625.83 103.325 1624.47 Q105.154 1623.08 105.154 1620.48 Q105.154 1617.82 103.256 1616.41 Q101.381 1614.97 97.8621 1614.97 Q95.9408 1614.97 93.7417 1615.39 Q91.5426 1615.81 88.9038 1616.69 L88.9038 1612.52 Q91.5658 1611.78 93.8806 1611.41 Q96.2185 1611.04 98.2787 1611.04 Q103.603 1611.04 106.705 1613.47 Q109.806 1615.88 109.806 1620 Q109.806 1622.87 108.163 1624.86 Q106.519 1626.83 103.487 1627.59 Z" fill="#000000" fill-rule="evenodd" fill-opacity="1" /><path clip-path="url(#clip300)" d="M50.5012 1394.42 L80.177 1394.42 L80.177 1398.35 L50.5012 1398.35 L50.5012 1394.42 Z" fill="#000000" fill-rule="evenodd" fill-opacity="1" /><path clip-path="url(#clip300)" d="M94.2973 1407.31 L110.617 1407.31 L110.617 1411.25 L88.6723 1411.25 L88.6723 1407.31 Q91.3343 1404.56 95.9176 1399.93 Q100.524 1395.27 101.705 1393.93 Q103.95 1391.41 104.83 1389.67 Q105.732 1387.91 105.732 1386.22 Q105.732 1383.47 103.788 1381.73 Q101.867 1380 98.7648 1380 Q96.5658 1380 94.1121 1380.76 Q91.6815 1381.52 88.9038 1383.07 L88.9038 1378.35 Q91.7278 1377.22 94.1815 1376.64 Q96.6352 1376.06 98.6722 1376.06 Q104.043 1376.06 107.237 1378.75 Q110.431 1381.43 110.431 1385.92 Q110.431 1388.05 109.621 1389.97 Q108.834 1391.87 106.728 1394.46 Q106.149 1395.13 103.047 1398.35 Q99.9454 1401.55 94.2973 1407.31 Z" fill="#000000" fill-rule="evenodd" fill-opacity="1" /><path clip-path="url(#clip300)" d="M50.1308 1159.44 L79.8066 1159.44 L79.8066 1163.37 L50.1308 1163.37 L50.1308 1159.44 Z" fill="#000000" fill-rule="evenodd" fill-opacity="1" /><path clip-path="url(#clip300)" d="M90.7093 1172.33 L98.3482 1172.33 L98.3482 1145.97 L90.038 1147.63 L90.038 1143.37 L98.3019 1141.71 L102.978 1141.71 L102.978 1172.33 L110.617 1172.33 L110.617 1176.27 L90.7093 1176.27 L90.7093 1172.33 Z" fill="#000000" fill-rule="evenodd" fill-opacity="1" /><path clip-path="url(#clip300)" d="M98.6722 909.806 Q95.0611 909.806 93.2324 913.371 Q91.4269 916.913 91.4269 924.043 Q91.4269 931.149 93.2324 934.714 Q95.0611 938.255 98.6722 938.255 Q102.306 938.255 104.112 934.714 Q105.941 931.149 105.941 924.043 Q105.941 916.913 104.112 913.371 Q102.306 909.806 98.6722 909.806 M98.6722 906.103 Q104.482 906.103 107.538 910.709 Q110.617 915.293 110.617 924.043 Q110.617 932.769 107.538 937.376 Q104.482 941.959 98.6722 941.959 Q92.8621 941.959 89.7834 937.376 Q86.7279 932.769 86.7279 924.043 Q86.7279 915.293 89.7834 910.709 Q92.8621 906.103 98.6722 906.103 Z" fill="#000000" fill-rule="evenodd" fill-opacity="1" /><path clip-path="url(#clip300)" d="M90.7093 702.374 L98.3482 702.374 L98.3482 676.008 L90.038 677.675 L90.038 673.415 L98.3019 671.749 L102.978 671.749 L102.978 702.374 L110.617 702.374 L110.617 706.309 L90.7093 706.309 L90.7093 702.374 Z" fill="#000000" fill-rule="evenodd" fill-opacity="1" /><path clip-path="url(#clip300)" d="M94.2973 467.395 L110.617 467.395 L110.617 471.33 L88.6723 471.33 L88.6723 467.395 Q91.3343 464.64 95.9176 460.01 Q100.524 455.358 101.705 454.015 Q103.95 451.492 104.83 449.756 Q105.732 447.997 105.732 446.307 Q105.732 443.552 103.788 441.816 Q101.867 440.08 98.7648 440.08 Q96.5658 440.08 94.1121 440.844 Q91.6815 441.608 88.9038 443.159 L88.9038 438.436 Q91.7278 437.302 94.1815 436.724 Q96.6352 436.145 98.6722 436.145 Q104.043 436.145 107.237 438.83 Q110.431 441.515 110.431 446.006 Q110.431 448.135 109.621 450.057 Q108.834 451.955 106.728 454.547 Q106.149 455.219 103.047 458.436 Q99.9454 461.631 94.2973 467.395 Z" fill="#000000" fill-rule="evenodd" fill-opacity="1" /><path clip-path="url(#clip300)" d="M103.487 217.717 Q106.843 218.434 108.718 220.703 Q110.617 222.971 110.617 226.305 Q110.617 231.42 107.098 234.221 Q103.58 237.022 97.0982 237.022 Q94.9223 237.022 92.6075 236.582 Q90.3158 236.166 87.8621 235.309 L87.8621 230.795 Q89.8065 231.93 92.1213 232.508 Q94.4361 233.087 96.9593 233.087 Q101.357 233.087 103.649 231.351 Q105.964 229.615 105.964 226.305 Q105.964 223.249 103.811 221.536 Q101.681 219.8 97.8621 219.8 L93.8343 219.8 L93.8343 215.957 L98.0472 215.957 Q101.496 215.957 103.325 214.592 Q105.154 213.203 105.154 210.61 Q105.154 207.948 103.256 206.536 Q101.381 205.101 97.8621 205.101 Q95.9408 205.101 93.7417 205.518 Q91.5426 205.934 88.9038 206.814 L88.9038 202.647 Q91.5658 201.907 93.8806 201.536 Q96.2185 201.166 98.2787 201.166 Q103.603 201.166 106.705 203.596 Q109.806 206.004 109.806 210.124 Q109.806 212.994 108.163 214.985 Q106.519 216.953 103.487 217.717 Z" fill="#000000" fill-rule="evenodd" fill-opacity="1" /><polyline clip-path="url(#clip302)" style="stroke:#009af9; stroke-linecap:butt; stroke-linejoin:round; stroke-width:4; stroke-opacity:1; fill:none" points="
  221.403,454.05 225.226,463.686 229.049,473.367 232.873,483.09 236.696,492.849 272.046,584.132 307.396,675.09 325.072,719.493 342.747,762.696 360.422,804.355 
  378.097,844.15 399.341,889.093 420.585,930.446 431.208,949.645 441.83,967.799 452.452,984.865 463.074,1000.81 481.035,1025.12 498.997,1046 516.959,1063.36 
  534.92,1077.15 554.432,1088.06 573.943,1094.78 593.454,1097.38 612.966,1096.01 630.953,1091.38 648.941,1083.71 666.929,1073.22 684.917,1060.13 704.201,1043.54 
  723.486,1024.63 742.771,1003.82 762.056,981.495 806.742,926.374 851.429,871.019 871.285,847.802 891.141,826.108 910.997,806.387 930.853,789.067 948.265,776.167 
  965.677,765.665 983.089,757.783 1000.5,752.716 1019.48,750.6 1038.47,752.212 1057.45,757.689 1076.44,767.123 1095.53,780.651 1114.63,798.225 1133.73,819.795 
  1152.82,845.259 1163.38,860.955 1173.94,877.766 1184.49,895.657 1195.05,914.586 1216.16,955.385 1237.28,999.766 1257.37,1044.9 1277.46,1092.44 1297.54,1141.89 
  1317.63,1192.76 1359.41,1300.7 1401.19,1407.34 1418.77,1450.57 1436.35,1492.26 1453.94,1532.02 1471.52,1569.48 1482.25,1591.06 1492.99,1611.58 1503.72,1630.95 
  1514.45,1649.11 1525.19,1665.97 1535.92,1681.49 1546.65,1695.59 1557.39,1708.22 1567.22,1718.44 1577.05,1727.34 1586.89,1734.88 1596.72,1741.03 1606.55,1745.76 
  1616.38,1749.03 1626.22,1750.84 1636.05,1751.15 1645.13,1750.1 1654.21,1747.75 1663.29,1744.1 1672.37,1739.15 1681.46,1732.88 1690.54,1725.31 1699.62,1716.43 
  1708.7,1706.25 1717.9,1694.63 1727.1,1681.69 1736.3,1667.47 1745.5,1651.96 1754.69,1635.2 1763.89,1617.21 1773.09,1598 1782.29,1577.63 1792.6,1553.43 
  1802.91,1527.84 1813.22,1500.91 1823.53,1472.69 1833.84,1443.26 1844.15,1412.65 1854.46,1380.96 1864.77,1348.23 1883.45,1286.53 1902.14,1222.14 1920.82,1155.53 
  1939.5,1087.19 1982.29,926.95 2025.07,766.593 2044.88,694.066 2064.69,623.468 2084.49,555.386 2104.3,490.379 2123.83,429.816 2143.36,373.23 2153.12,346.564 
  2162.88,321.052 2172.65,296.739 2182.41,273.67 2191.89,252.502 2201.37,232.581 2210.85,213.937 2220.33,196.601 2229.81,180.598 2239.29,165.952 2248.77,152.68 
  2258.25,140.802 2267.97,130.083 2277.68,120.853 2287.4,113.118 2297.12,106.881 2306.84,102.144 2316.56,98.9018 2326.27,97.1482 2335.99,96.8724 2346.64,98.2502 
  2357.29,101.362 2367.93,106.179 2378.58,112.67 2389.23,120.796 2399.88,130.515 2410.52,141.782 2421.17,154.547 2436.64,175.643 2452.1,199.6 2467.57,226.224 
  2483.04,255.3 2498.5,286.607 2513.97,319.908 2529.44,354.959 2544.9,391.506 2551.25,406.875 2557.6,422.434 2563.94,438.165 2570.29,454.05 
  "/>
<path clip-path="url(#clip300)" d="
M2228.69 209.375 L2557.76 209.375 L2557.76 105.695 L2228.69 105.695  Z
  " fill="#ffffff" fill-rule="evenodd" fill-opacity="1"/>
<polyline clip-path="url(#clip300)" style="stroke:#000000; stroke-linecap:butt; stroke-linejoin:round; stroke-width:4; stroke-opacity:1; fill:none" points="
  2228.69,209.375 2557.76,209.375 2557.76,105.695 2228.69,105.695 2228.69,209.375 
  "/>
<polyline clip-path="url(#clip300)" style="stroke:#009af9; stroke-linecap:butt; stroke-linejoin:round; stroke-width:4; stroke-opacity:1; fill:none" points="
  2256.35,157.535 2422.34,157.535 
  "/>
<path clip-path="url(#clip300)" d="M2463.84 177.223 Q2462.04 181.852 2460.33 183.264 Q2458.61 184.676 2455.74 184.676 L2452.34 184.676 L2452.34 181.112 L2454.84 181.112 Q2456.6 181.112 2457.57 180.278 Q2458.54 179.445 2459.72 176.343 L2460.49 174.399 L2450 148.889 L2454.52 148.889 L2462.62 169.167 L2470.72 148.889 L2475.23 148.889 L2463.84 177.223 Z" fill="#000000" fill-rule="evenodd" fill-opacity="1" /><path clip-path="url(#clip300)" d="M2482.53 170.88 L2490.16 170.88 L2490.16 144.515 L2481.85 146.181 L2481.85 141.922 L2490.12 140.255 L2494.79 140.255 L2494.79 170.88 L2502.43 170.88 L2502.43 174.815 L2482.53 174.815 L2482.53 170.88 Z" fill="#000000" fill-rule="evenodd" fill-opacity="1" /></svg>
