<?xml version="1.0" encoding="utf-8"?>
<svg xmlns="http://www.w3.org/2000/svg" xmlns:xlink="http://www.w3.org/1999/xlink" width="672" height="480" viewBox="0 0 2688 1920">
<defs>
  <clipPath id="clip970">
    <rect x="0" y="0" width="2688" height="1920"/>
  </clipPath>
</defs>
<path clip-path="url(#clip970)" d="
M0 1920 L2688 1920 L2688 0 L0 0  Z
  " fill="#ffffff" fill-rule="evenodd" fill-opacity="1"/>
<defs>
  <clipPath id="clip971">
    <rect x="537" y="0" width="1883" height="1883"/>
  </clipPath>
</defs>
<path clip-path="url(#clip970)" d="
M150.937 1800.78 L2640.76 1800.78 L2640.76 47.2441 L150.937 47.2441  Z
  " fill="#ffffff" fill-rule="evenodd" fill-opacity="1"/>
<defs>
  <clipPath id="clip972">
    <rect x="150" y="47" width="2491" height="1755"/>
  </clipPath>
</defs>
<polyline clip-path="url(#clip972)" style="stroke:#000000; stroke-linecap:butt; stroke-linejoin:round; stroke-width:2; stroke-opacity:0.1; fill:none" points="
  221.403,1800.78 221.403,47.2441 
  "/>
<polyline clip-path="url(#clip972)" style="stroke:#000000; stroke-linecap:butt; stroke-linejoin:round; stroke-width:2; stroke-opacity:0.1; fill:none" points="
  595.24,1800.78 595.24,47.2441 
  "/>
<polyline clip-path="url(#clip972)" style="stroke:#000000; stroke-linecap:butt; stroke-linejoin:round; stroke-width:2; stroke-opacity:0.1; fill:none" points="
  969.077,1800.78 969.077,47.2441 
  "/>
<polyline clip-path="url(#clip972)" style="stroke:#000000; stroke-linecap:butt; stroke-linejoin:round; stroke-width:2; stroke-opacity:0.1; fill:none" points="
  1342.91,1800.78 1342.91,47.2441 
  "/>
<polyline clip-path="url(#clip972)" style="stroke:#000000; stroke-linecap:butt; stroke-linejoin:round; stroke-width:2; stroke-opacity:0.1; fill:none" points="
  1716.75,1800.78 1716.75,47.2441 
  "/>
<polyline clip-path="url(#clip972)" style="stroke:#000000; stroke-linecap:butt; stroke-linejoin:round; stroke-width:2; stroke-opacity:0.1; fill:none" points="
  2090.59,1800.78 2090.59,47.2441 
  "/>
<polyline clip-path="url(#clip972)" style="stroke:#000000; stroke-linecap:butt; stroke-linejoin:round; stroke-width:2; stroke-opacity:0.1; fill:none" points="
  2464.42,1800.78 2464.42,47.2441 
  "/>
<polyline clip-path="url(#clip970)" style="stroke:#000000; stroke-linecap:butt; stroke-linejoin:round; stroke-width:4; stroke-opacity:1; fill:none" points="
  150.937,1800.78 2640.76,1800.78 
  "/>
<polyline clip-path="url(#clip970)" style="stroke:#000000; stroke-linecap:butt; stroke-linejoin:round; stroke-width:4; stroke-opacity:1; fill:none" points="
  221.403,1800.78 221.403,1781.88 
  "/>
<polyline clip-path="url(#clip970)" style="stroke:#000000; stroke-linecap:butt; stroke-linejoin:round; stroke-width:4; stroke-opacity:1; fill:none" points="
  595.24,1800.78 595.24,1781.88 
  "/>
<polyline clip-path="url(#clip970)" style="stroke:#000000; stroke-linecap:butt; stroke-linejoin:round; stroke-width:4; stroke-opacity:1; fill:none" points="
  969.077,1800.78 969.077,1781.88 
  "/>
<polyline clip-path="url(#clip970)" style="stroke:#000000; stroke-linecap:butt; stroke-linejoin:round; stroke-width:4; stroke-opacity:1; fill:none" points="
  1342.91,1800.78 1342.91,1781.88 
  "/>
<polyline clip-path="url(#clip970)" style="stroke:#000000; stroke-linecap:butt; stroke-linejoin:round; stroke-width:4; stroke-opacity:1; fill:none" points="
  1716.75,1800.78 1716.75,1781.88 
  "/>
<polyline clip-path="url(#clip970)" style="stroke:#000000; stroke-linecap:butt; stroke-linejoin:round; stroke-width:4; stroke-opacity:1; fill:none" points="
  2090.59,1800.78 2090.59,1781.88 
  "/>
<polyline clip-path="url(#clip970)" style="stroke:#000000; stroke-linecap:butt; stroke-linejoin:round; stroke-width:4; stroke-opacity:1; fill:none" points="
  2464.42,1800.78 2464.42,1781.88 
  "/>
<path clip-path="url(#clip970)" d="M221.403 1834 Q217.792 1834 215.963 1837.57 Q214.158 1841.11 214.158 1848.24 Q214.158 1855.34 215.963 1858.91 Q217.792 1862.45 221.403 1862.45 Q225.037 1862.45 226.843 1858.91 Q228.672 1855.34 228.672 1848.24 Q228.672 1841.11 226.843 1837.57 Q225.037 1834 221.403 1834 M221.403 1830.3 Q227.213 1830.3 230.269 1834.9 Q233.348 1839.49 233.348 1848.24 Q233.348 1856.96 230.269 1861.57 Q227.213 1866.15 221.403 1866.15 Q215.593 1866.15 212.514 1861.57 Q209.459 1856.96 209.459 1848.24 Q209.459 1839.49 212.514 1834.9 Q215.593 1830.3 221.403 1830.3 Z" fill="#000000" fill-rule="evenodd" fill-opacity="1" /><path clip-path="url(#clip970)" d="M585.622 1861.55 L593.261 1861.55 L593.261 1835.18 L584.951 1836.85 L584.951 1832.59 L593.215 1830.92 L597.89 1830.92 L597.89 1861.55 L605.529 1861.55 L605.529 1865.48 L585.622 1865.48 L585.622 1861.55 Z" fill="#000000" fill-rule="evenodd" fill-opacity="1" /><path clip-path="url(#clip970)" d="M963.73 1861.55 L980.049 1861.55 L980.049 1865.48 L958.105 1865.48 L958.105 1861.55 Q960.767 1858.79 965.35 1854.16 Q969.956 1849.51 971.137 1848.17 Q973.382 1845.65 974.262 1843.91 Q975.165 1842.15 975.165 1840.46 Q975.165 1837.71 973.22 1835.97 Q971.299 1834.23 968.197 1834.23 Q965.998 1834.23 963.544 1835 Q961.114 1835.76 958.336 1837.31 L958.336 1832.59 Q961.16 1831.46 963.614 1830.88 Q966.068 1830.3 968.105 1830.3 Q973.475 1830.3 976.669 1832.98 Q979.864 1835.67 979.864 1840.16 Q979.864 1842.29 979.054 1844.21 Q978.267 1846.11 976.16 1848.7 Q975.581 1849.37 972.48 1852.59 Q969.378 1855.78 963.73 1861.55 Z" fill="#000000" fill-rule="evenodd" fill-opacity="1" /><path clip-path="url(#clip970)" d="M1347.16 1846.85 Q1350.52 1847.57 1352.39 1849.84 Q1354.29 1852.1 1354.29 1855.44 Q1354.29 1860.55 1350.77 1863.35 Q1347.25 1866.15 1340.77 1866.15 Q1338.6 1866.15 1336.28 1865.71 Q1333.99 1865.3 1331.54 1864.44 L1331.54 1859.93 Q1333.48 1861.06 1335.8 1861.64 Q1338.11 1862.22 1340.63 1862.22 Q1345.03 1862.22 1347.32 1860.48 Q1349.64 1858.75 1349.64 1855.44 Q1349.64 1852.38 1347.49 1850.67 Q1345.36 1848.93 1341.54 1848.93 L1337.51 1848.93 L1337.51 1845.09 L1341.72 1845.09 Q1345.17 1845.09 1347 1843.72 Q1348.83 1842.34 1348.83 1839.74 Q1348.83 1837.08 1346.93 1835.67 Q1345.05 1834.23 1341.54 1834.23 Q1339.62 1834.23 1337.42 1834.65 Q1335.22 1835.07 1332.58 1835.95 L1332.58 1831.78 Q1335.24 1831.04 1337.55 1830.67 Q1339.89 1830.3 1341.95 1830.3 Q1347.28 1830.3 1350.38 1832.73 Q1353.48 1835.14 1353.48 1839.26 Q1353.48 1842.13 1351.84 1844.12 Q1350.19 1846.09 1347.16 1846.85 Z" fill="#000000" fill-rule="evenodd" fill-opacity="1" /><path clip-path="url(#clip970)" d="M1719.76 1835 L1707.95 1853.45 L1719.76 1853.45 L1719.76 1835 M1718.53 1830.92 L1724.41 1830.92 L1724.41 1853.45 L1729.34 1853.45 L1729.34 1857.34 L1724.41 1857.34 L1724.41 1865.48 L1719.76 1865.48 L1719.76 1857.34 L1704.16 1857.34 L1704.16 1852.82 L1718.53 1830.92 Z" fill="#000000" fill-rule="evenodd" fill-opacity="1" /><path clip-path="url(#clip970)" d="M2080.87 1830.92 L2099.22 1830.92 L2099.22 1834.86 L2085.15 1834.86 L2085.15 1843.33 Q2086.17 1842.98 2087.18 1842.82 Q2088.2 1842.64 2089.22 1842.64 Q2095.01 1842.64 2098.39 1845.81 Q2101.77 1848.98 2101.77 1854.4 Q2101.77 1859.97 2098.3 1863.08 Q2094.82 1866.15 2088.5 1866.15 Q2086.33 1866.15 2084.06 1865.78 Q2081.81 1865.41 2079.41 1864.67 L2079.41 1859.97 Q2081.49 1861.11 2083.71 1861.66 Q2085.93 1862.22 2088.41 1862.22 Q2092.42 1862.22 2094.75 1860.11 Q2097.09 1858.01 2097.09 1854.4 Q2097.09 1850.78 2094.75 1848.68 Q2092.42 1846.57 2088.41 1846.57 Q2086.54 1846.57 2084.66 1846.99 Q2082.81 1847.4 2080.87 1848.28 L2080.87 1830.92 Z" fill="#000000" fill-rule="evenodd" fill-opacity="1" /><path clip-path="url(#clip970)" d="M2464.83 1846.34 Q2461.68 1846.34 2459.83 1848.49 Q2458 1850.65 2458 1854.4 Q2458 1858.12 2459.83 1860.3 Q2461.68 1862.45 2464.83 1862.45 Q2467.98 1862.45 2469.81 1860.3 Q2471.66 1858.12 2471.66 1854.4 Q2471.66 1850.65 2469.81 1848.49 Q2467.98 1846.34 2464.83 1846.34 M2474.11 1831.69 L2474.11 1835.95 Q2472.35 1835.11 2470.55 1834.67 Q2468.76 1834.23 2467.01 1834.23 Q2462.38 1834.23 2459.92 1837.36 Q2457.49 1840.48 2457.14 1846.8 Q2458.51 1844.79 2460.57 1843.72 Q2462.63 1842.64 2465.11 1842.64 Q2470.32 1842.64 2473.32 1845.81 Q2476.36 1848.96 2476.36 1854.4 Q2476.36 1859.72 2473.21 1862.94 Q2470.06 1866.15 2464.83 1866.15 Q2458.83 1866.15 2455.66 1861.57 Q2452.49 1856.96 2452.49 1848.24 Q2452.49 1840.04 2456.38 1835.18 Q2460.27 1830.3 2466.82 1830.3 Q2468.58 1830.3 2470.36 1830.65 Q2472.17 1830.99 2474.11 1831.69 Z" fill="#000000" fill-rule="evenodd" fill-opacity="1" /><polyline clip-path="url(#clip972)" style="stroke:#000000; stroke-linecap:butt; stroke-linejoin:round; stroke-width:2; stroke-opacity:0.1; fill:none" points="
  150.937,1630.33 2640.76,1630.33 
  "/>
<polyline clip-path="url(#clip972)" style="stroke:#000000; stroke-linecap:butt; stroke-linejoin:round; stroke-width:2; stroke-opacity:0.1; fill:none" points="
  150.937,1394.93 2640.76,1394.93 
  "/>
<polyline clip-path="url(#clip972)" style="stroke:#000000; stroke-linecap:butt; stroke-linejoin:round; stroke-width:2; stroke-opacity:0.1; fill:none" points="
  150.937,1159.53 2640.76,1159.53 
  "/>
<polyline clip-path="url(#clip972)" style="stroke:#000000; stroke-linecap:butt; stroke-linejoin:round; stroke-width:2; stroke-opacity:0.1; fill:none" points="
  150.937,924.136 2640.76,924.136 
  "/>
<polyline clip-path="url(#clip972)" style="stroke:#000000; stroke-linecap:butt; stroke-linejoin:round; stroke-width:2; stroke-opacity:0.1; fill:none" points="
  150.937,688.739 2640.76,688.739 
  "/>
<polyline clip-path="url(#clip972)" style="stroke:#000000; stroke-linecap:butt; stroke-linejoin:round; stroke-width:2; stroke-opacity:0.1; fill:none" points="
  150.937,453.343 2640.76,453.343 
  "/>
<polyline clip-path="url(#clip972)" style="stroke:#000000; stroke-linecap:butt; stroke-linejoin:round; stroke-width:2; stroke-opacity:0.1; fill:none" points="
  150.937,217.946 2640.76,217.946 
  "/>
<polyline clip-path="url(#clip970)" style="stroke:#000000; stroke-linecap:butt; stroke-linejoin:round; stroke-width:4; stroke-opacity:1; fill:none" points="
  150.937,1800.78 150.937,47.2441 
  "/>
<polyline clip-path="url(#clip970)" style="stroke:#000000; stroke-linecap:butt; stroke-linejoin:round; stroke-width:4; stroke-opacity:1; fill:none" points="
  150.937,1630.33 169.834,1630.33 
  "/>
<polyline clip-path="url(#clip970)" style="stroke:#000000; stroke-linecap:butt; stroke-linejoin:round; stroke-width:4; stroke-opacity:1; fill:none" points="
  150.937,1394.93 169.834,1394.93 
  "/>
<polyline clip-path="url(#clip970)" style="stroke:#000000; stroke-linecap:butt; stroke-linejoin:round; stroke-width:4; stroke-opacity:1; fill:none" points="
  150.937,1159.53 169.834,1159.53 
  "/>
<polyline clip-path="url(#clip970)" style="stroke:#000000; stroke-linecap:butt; stroke-linejoin:round; stroke-width:4; stroke-opacity:1; fill:none" points="
  150.937,924.136 169.834,924.136 
  "/>
<polyline clip-path="url(#clip970)" style="stroke:#000000; stroke-linecap:butt; stroke-linejoin:round; stroke-width:4; stroke-opacity:1; fill:none" points="
  150.937,688.739 169.834,688.739 
  "/>
<polyline clip-path="url(#clip970)" style="stroke:#000000; stroke-linecap:butt; stroke-linejoin:round; stroke-width:4; stroke-opacity:1; fill:none" points="
  150.937,453.343 169.834,453.343 
  "/>
<polyline clip-path="url(#clip970)" style="stroke:#000000; stroke-linecap:butt; stroke-linejoin:round; stroke-width:4; stroke-opacity:1; fill:none" points="
  150.937,217.946 169.834,217.946 
  "/>
<path clip-path="url(#clip970)" d="M49.5521 1630.78 L79.2279 1630.78 L79.2279 1634.71 L49.5521 1634.71 L49.5521 1630.78 Z" fill="#000000" fill-rule="evenodd" fill-opacity="1" /><path clip-path="url(#clip970)" d="M103.487 1628.97 Q106.843 1629.69 108.718 1631.96 Q110.617 1634.23 110.617 1637.56 Q110.617 1642.68 107.098 1645.48 Q103.58 1648.28 97.0982 1648.28 Q94.9223 1648.28 92.6075 1647.84 Q90.3158 1647.42 87.8621 1646.56 L87.8621 1642.05 Q89.8065 1643.19 92.1213 1643.76 Q94.4361 1644.34 96.9593 1644.34 Q101.357 1644.34 103.649 1642.61 Q105.964 1640.87 105.964 1637.56 Q105.964 1634.5 103.811 1632.79 Q101.681 1631.06 97.8621 1631.06 L93.8343 1631.06 L93.8343 1627.21 L98.0472 1627.21 Q101.496 1627.21 103.325 1625.85 Q105.154 1624.46 105.154 1621.87 Q105.154 1619.2 103.256 1617.79 Q101.381 1616.36 97.8621 1616.36 Q95.9408 1616.36 93.7417 1616.77 Q91.5426 1617.19 88.9038 1618.07 L88.9038 1613.9 Q91.5658 1613.16 93.8806 1612.79 Q96.2185 1612.42 98.2787 1612.42 Q103.603 1612.42 106.705 1614.85 Q109.806 1617.26 109.806 1621.38 Q109.806 1624.25 108.163 1626.24 Q106.519 1628.21 103.487 1628.97 Z" fill="#000000" fill-rule="evenodd" fill-opacity="1" /><path clip-path="url(#clip970)" d="M50.5012 1395.38 L80.177 1395.38 L80.177 1399.32 L50.5012 1399.32 L50.5012 1395.38 Z" fill="#000000" fill-rule="evenodd" fill-opacity="1" /><path clip-path="url(#clip970)" d="M94.2973 1408.27 L110.617 1408.27 L110.617 1412.21 L88.6723 1412.21 L88.6723 1408.27 Q91.3343 1405.52 95.9176 1400.89 Q100.524 1396.24 101.705 1394.9 Q103.95 1392.37 104.83 1390.64 Q105.732 1388.88 105.732 1387.19 Q105.732 1384.43 103.788 1382.7 Q101.867 1380.96 98.7648 1380.96 Q96.5658 1380.96 94.1121 1381.72 Q91.6815 1382.49 88.9038 1384.04 L88.9038 1379.32 Q91.7278 1378.18 94.1815 1377.6 Q96.6352 1377.02 98.6722 1377.02 Q104.043 1377.02 107.237 1379.71 Q110.431 1382.4 110.431 1386.89 Q110.431 1389.02 109.621 1390.94 Q108.834 1392.83 106.728 1395.43 Q106.149 1396.1 103.047 1399.32 Q99.9454 1402.51 94.2973 1408.27 Z" fill="#000000" fill-rule="evenodd" fill-opacity="1" /><path clip-path="url(#clip970)" d="M50.1308 1159.98 L79.8066 1159.98 L79.8066 1163.92 L50.1308 1163.92 L50.1308 1159.98 Z" fill="#000000" fill-rule="evenodd" fill-opacity="1" /><path clip-path="url(#clip970)" d="M90.7093 1172.88 L98.3482 1172.88 L98.3482 1146.51 L90.038 1148.18 L90.038 1143.92 L98.3019 1142.25 L102.978 1142.25 L102.978 1172.88 L110.617 1172.88 L110.617 1176.81 L90.7093 1176.81 L90.7093 1172.88 Z" fill="#000000" fill-rule="evenodd" fill-opacity="1" /><path clip-path="url(#clip970)" d="M98.6722 909.935 Q95.0611 909.935 93.2324 913.5 Q91.4269 917.041 91.4269 924.171 Q91.4269 931.277 93.2324 934.842 Q95.0611 938.384 98.6722 938.384 Q102.306 938.384 104.112 934.842 Q105.941 931.277 105.941 924.171 Q105.941 917.041 104.112 913.5 Q102.306 909.935 98.6722 909.935 M98.6722 906.231 Q104.482 906.231 107.538 910.838 Q110.617 915.421 110.617 924.171 Q110.617 932.898 107.538 937.504 Q104.482 942.088 98.6722 942.088 Q92.8621 942.088 89.7834 937.504 Q86.7279 932.898 86.7279 924.171 Q86.7279 915.421 89.7834 910.838 Q92.8621 906.231 98.6722 906.231 Z" fill="#000000" fill-rule="evenodd" fill-opacity="1" /><path clip-path="url(#clip970)" d="M90.7093 702.084 L98.3482 702.084 L98.3482 675.719 L90.038 677.385 L90.038 673.126 L98.3019 671.459 L102.978 671.459 L102.978 702.084 L110.617 702.084 L110.617 706.019 L90.7093 706.019 L90.7093 702.084 Z" fill="#000000" fill-rule="evenodd" fill-opacity="1" /><path clip-path="url(#clip970)" d="M94.2973 466.688 L110.617 466.688 L110.617 470.623 L88.6723 470.623 L88.6723 466.688 Q91.3343 463.933 95.9176 459.303 Q100.524 454.651 101.705 453.308 Q103.95 450.785 104.83 449.049 Q105.732 447.289 105.732 445.6 Q105.732 442.845 103.788 441.109 Q101.867 439.373 98.7648 439.373 Q96.5658 439.373 94.1121 440.137 Q91.6815 440.901 88.9038 442.452 L88.9038 437.729 Q91.7278 436.595 94.1815 436.016 Q96.6352 435.438 98.6722 435.438 Q104.043 435.438 107.237 438.123 Q110.431 440.808 110.431 445.299 Q110.431 447.428 109.621 449.35 Q108.834 451.248 106.728 453.84 Q106.149 454.512 103.047 457.729 Q99.9454 460.924 94.2973 466.688 Z" fill="#000000" fill-rule="evenodd" fill-opacity="1" /><path clip-path="url(#clip970)" d="M103.487 216.592 Q106.843 217.309 108.718 219.578 Q110.617 221.846 110.617 225.18 Q110.617 230.295 107.098 233.096 Q103.58 235.897 97.0982 235.897 Q94.9223 235.897 92.6075 235.457 Q90.3158 235.041 87.8621 234.184 L87.8621 229.67 Q89.8065 230.805 92.1213 231.383 Q94.4361 231.962 96.9593 231.962 Q101.357 231.962 103.649 230.226 Q105.964 228.49 105.964 225.18 Q105.964 222.124 103.811 220.411 Q101.681 218.675 97.8621 218.675 L93.8343 218.675 L93.8343 214.833 L98.0472 214.833 Q101.496 214.833 103.325 213.467 Q105.154 212.078 105.154 209.485 Q105.154 206.823 103.256 205.411 Q101.381 203.976 97.8621 203.976 Q95.9408 203.976 93.7417 204.393 Q91.5426 204.809 88.9038 205.689 L88.9038 201.522 Q91.5658 200.782 93.8806 200.411 Q96.2185 200.041 98.2787 200.041 Q103.603 200.041 106.705 202.471 Q109.806 204.879 109.806 208.999 Q109.806 211.87 108.163 213.86 Q106.519 215.828 103.487 216.592 Z" fill="#000000" fill-rule="evenodd" fill-opacity="1" /><polyline clip-path="url(#clip972)" style="stroke:#009af9; stroke-linecap:butt; stroke-linejoin:round; stroke-width:4; stroke-opacity:1; fill:none" points="
  221.403,453.343 227.138,467.84 232.873,482.434 238.607,497.112 244.342,511.86 297.368,649.138 350.393,780.8 403.419,897.403 456.444,991.239 488.31,1034.32 
  520.177,1066.48 552.043,1087.37 583.909,1097.05 610.851,1096.78 637.794,1089.24 664.736,1075.04 691.679,1054.96 808.747,923.982 916.673,801.083 945.6,777.861 
  974.528,761.157 1003.45,751.972 1032.38,751.101 1065.9,761.233 1099.41,783.774 1132.93,818.755 1166.44,865.744 1196.23,916.873 1226.01,975.883 1255.79,1041.62 
  1285.58,1112.69 1337.81,1245.44 1390.05,1380.28 1447,1517.77 1503.95,1632.74 1532.6,1678.3 1561.24,1713.91 1589.89,1738.48 1618.53,1751.15 1650.2,1750.55 
  1681.87,1734.13 1713.54,1701.8 1745.21,1653.88 1775.35,1594.43 1805.48,1522.43 1835.62,1439.11 1865.75,1345.94 1928.41,1128.43 1991.08,893.882 2043.83,697.6 
  2096.58,514.727 2128.78,414.301 2160.98,324.999 2193.18,248.648 2225.38,186.727 2255.65,142.66 2285.92,112.89 2316.19,97.6588 2346.46,96.8724 2370.71,106.386 
  2394.95,124.536 2419.2,150.831 2443.45,184.667 2491.94,272.039 2540.44,379.973 2547.9,397.929 2555.36,416.163 2562.83,434.644 2570.29,453.343 
  "/>
<path clip-path="url(#clip970)" d="
M2228.69 209.375 L2557.76 209.375 L2557.76 105.695 L2228.69 105.695  Z
  " fill="#ffffff" fill-rule="evenodd" fill-opacity="1"/>
<polyline clip-path="url(#clip970)" style="stroke:#000000; stroke-linecap:butt; stroke-linejoin:round; stroke-width:4; stroke-opacity:1; fill:none" points="
  2228.69,209.375 2557.76,209.375 2557.76,105.695 2228.69,105.695 2228.69,209.375 
  "/>
<polyline clip-path="url(#clip970)" style="stroke:#009af9; stroke-linecap:butt; stroke-linejoin:round; stroke-width:4; stroke-opacity:1; fill:none" points="
  2256.35,157.535 2422.34,157.535 
  "/>
<path clip-path="url(#clip970)" d="M2463.84 177.223 Q2462.04 181.852 2460.33 183.264 Q2458.61 184.676 2455.74 184.676 L2452.34 184.676 L2452.34 181.112 L2454.84 181.112 Q2456.6 181.112 2457.57 180.278 Q2458.54 179.445 2459.72 176.343 L2460.49 174.399 L2450 148.889 L2454.52 148.889 L2462.62 169.167 L2470.72 148.889 L2475.23 148.889 L2463.84 177.223 Z" fill="#000000" fill-rule="evenodd" fill-opacity="1" /><path clip-path="url(#clip970)" d="M2482.53 170.88 L2490.16 170.88 L2490.16 144.515 L2481.85 146.181 L2481.85 141.922 L2490.12 140.255 L2494.79 140.255 L2494.79 170.88 L2502.43 170.88 L2502.43 174.815 L2482.53 174.815 L2482.53 170.88 Z" fill="#000000" fill-rule="evenodd" fill-opacity="1" /></svg>
