<?xml version="1.0" encoding="utf-8"?>
<svg xmlns="http://www.w3.org/2000/svg" xmlns:xlink="http://www.w3.org/1999/xlink" width="672" height="480" viewBox="0 0 2688 1920">
<defs>
  <clipPath id="clip340">
    <rect x="0" y="0" width="2688" height="1920"/>
  </clipPath>
</defs>
<path clip-path="url(#clip340)" d="
M0 1920 L2688 1920 L2688 0 L0 0  Z
  " fill="#ffffff" fill-rule="evenodd" fill-opacity="1"/>
<defs>
  <clipPath id="clip341">
    <rect x="537" y="0" width="1883" height="1883"/>
  </clipPath>
</defs>
<path clip-path="url(#clip340)" d="
M150.937 1800.78 L2640.76 1800.78 L2640.76 47.2441 L150.937 47.2441  Z
  " fill="#ffffff" fill-rule="evenodd" fill-opacity="1"/>
<defs>
  <clipPath id="clip342">
    <rect x="150" y="47" width="2491" height="1755"/>
  </clipPath>
</defs>
<polyline clip-path="url(#clip342)" style="stroke:#000000; stroke-linecap:butt; stroke-linejoin:round; stroke-width:2; stroke-opacity:0.1; fill:none" points="
  221.403,1800.78 221.403,47.2441 
  "/>
<polyline clip-path="url(#clip342)" style="stroke:#000000; stroke-linecap:butt; stroke-linejoin:round; stroke-width:2; stroke-opacity:0.1; fill:none" points="
  595.24,1800.78 595.24,47.2441 
  "/>
<polyline clip-path="url(#clip342)" style="stroke:#000000; stroke-linecap:butt; stroke-linejoin:round; stroke-width:2; stroke-opacity:0.1; fill:none" points="
  969.077,1800.78 969.077,47.2441 
  "/>
<polyline clip-path="url(#clip342)" style="stroke:#000000; stroke-linecap:butt; stroke-linejoin:round; stroke-width:2; stroke-opacity:0.1; fill:none" points="
  1342.91,1800.78 1342.91,47.2441 
  "/>
<polyline clip-path="url(#clip342)" style="stroke:#000000; stroke-linecap:butt; stroke-linejoin:round; stroke-width:2; stroke-opacity:0.1; fill:none" points="
  1716.75,1800.78 1716.75,47.2441 
  "/>
<polyline clip-path="url(#clip342)" style="stroke:#000000; stroke-linecap:butt; stroke-linejoin:round; stroke-width:2; stroke-opacity:0.1; fill:none" points="
  2090.59,1800.78 2090.59,47.2441 
  "/>
<polyline clip-path="url(#clip342)" style="stroke:#000000; stroke-linecap:butt; stroke-linejoin:round; stroke-width:2; stroke-opacity:0.1; fill:none" points="
  2464.42,1800.78 2464.42,47.2441 
  "/>
<polyline clip-path="url(#clip340)" style="stroke:#000000; stroke-linecap:butt; stroke-linejoin:round; stroke-width:4; stroke-opacity:1; fill:none" points="
  150.937,1800.78 2640.76,1800.78 
  "/>
<polyline clip-path="url(#clip340)" style="stroke:#000000; stroke-linecap:butt; stroke-linejoin:round; stroke-width:4; stroke-opacity:1; fill:none" points="
  221.403,1800.78 221.403,1781.88 
  "/>
<polyline clip-path="url(#clip340)" style="stroke:#000000; stroke-linecap:butt; stroke-linejoin:round; stroke-width:4; stroke-opacity:1; fill:none" points="
  595.24,1800.78 595.24,1781.88 
  "/>
<polyline clip-path="url(#clip340)" style="stroke:#000000; stroke-linecap:butt; stroke-linejoin:round; stroke-width:4; stroke-opacity:1; fill:none" points="
  969.077,1800.78 969.077,1781.88 
  "/>
<polyline clip-path="url(#clip340)" style="stroke:#000000; stroke-linecap:butt; stroke-linejoin:round; stroke-width:4; stroke-opacity:1; fill:none" points="
  1342.91,1800.78 1342.91,1781.88 
  "/>
<polyline clip-path="url(#clip340)" style="stroke:#000000; stroke-linecap:butt; stroke-linejoin:round; stroke-width:4; stroke-opacity:1; fill:none" points="
  1716.75,1800.78 1716.75,1781.88 
  "/>
<polyline clip-path="url(#clip340)" style="stroke:#000000; stroke-linecap:butt; stroke-linejoin:round; stroke-width:4; stroke-opacity:1; fill:none" points="
  2090.59,1800.78 2090.59,1781.88 
  "/>
<polyline clip-path="url(#clip340)" style="stroke:#000000; stroke-linecap:butt; stroke-linejoin:round; stroke-width:4; stroke-opacity:1; fill:none" points="
  2464.42,1800.78 2464.42,1781.88 
  "/>
<path clip-path="url(#clip340)" d="M221.403 1834 Q217.792 1834 215.963 1837.57 Q214.158 1841.11 214.158 1848.24 Q214.158 1855.34 215.963 1858.91 Q217.792 1862.45 221.403 1862.45 Q225.037 1862.45 226.843 1858.91 Q228.672 1855.34 228.672 1848.24 Q228.672 1841.11 226.843 1837.57 Q225.037 1834 221.403 1834 M221.403 1830.3 Q227.213 1830.3 230.269 1834.9 Q233.348 1839.49 233.348 1848.24 Q233.348 1856.96 230.269 1861.57 Q227.213 1866.15 221.403 1866.15 Q215.593 1866.15 212.514 1861.57 Q209.459 1856.96 209.459 1848.24 Q209.459 1839.49 212.514 1834.9 Q215.593 1830.3 221.403 1830.3 Z" fill="#000000" fill-rule="evenodd" fill-opacity="1" /><path clip-path="url(#clip340)" d="M585.622 1861.55 L593.261 1861.55 L593.261 1835.18 L584.951 1836.85 L584.951 1832.59 L593.215 1830.92 L597.89 1830.92 L597.89 1861.55 L605.529 1861.55 L605.529 1865.48 L585.622 1865.48 L585.622 1861.55 Z" fill="#000000" fill-rule="evenodd" fill-opacity="1" /><path clip-path="url(#clip340)" d="M963.73 1861.55 L980.049 1861.55 L980.049 1865.48 L958.105 1865.48 L958.105 1861.55 Q960.767 1858.79 965.35 1854.16 Q969.956 1849.51 971.137 1848.17 Q973.382 1845.65 974.262 1843.91 Q975.165 1842.15 975.165 1840.46 Q975.165 1837.71 973.22 1835.97 Q971.299 1834.23 968.197 1834.23 Q965.998 1834.23 963.544 1835 Q961.114 1835.76 958.336 1837.31 L958.336 1832.59 Q961.16 1831.46 963.614 1830.88 Q966.068 1830.3 968.105 1830.3 Q973.475 1830.3 976.669 1832.98 Q979.864 1835.67 979.864 1840.16 Q979.864 1842.29 979.054 1844.21 Q978.267 1846.11 976.16 1848.7 Q975.581 1849.37 972.48 1852.59 Q969.378 1855.78 963.73 1861.55 Z" fill="#000000" fill-rule="evenodd" fill-opacity="1" /><path clip-path="url(#clip340)" d="M1347.16 1846.85 Q1350.52 1847.57 1352.39 1849.84 Q1354.29 1852.1 1354.29 1855.44 Q1354.29 1860.55 1350.77 1863.35 Q1347.25 1866.15 1340.77 1866.15 Q1338.6 1866.15 1336.28 1865.71 Q1333.99 1865.3 1331.54 1864.44 L1331.54 1859.93 Q1333.48 1861.06 1335.8 1861.64 Q1338.11 1862.22 1340.63 1862.22 Q1345.03 1862.22 1347.32 1860.48 Q1349.64 1858.75 1349.64 1855.44 Q1349.64 1852.38 1347.49 1850.67 Q1345.36 1848.93 1341.54 1848.93 L1337.51 1848.93 L1337.51 1845.09 L1341.72 1845.09 Q1345.17 1845.09 1347 1843.72 Q1348.83 1842.34 1348.83 1839.74 Q1348.83 1837.08 1346.93 1835.67 Q1345.05 1834.23 1341.54 1834.23 Q1339.62 1834.23 1337.42 1834.65 Q1335.22 1835.07 1332.58 1835.95 L1332.58 1831.78 Q1335.24 1831.04 1337.55 1830.67 Q1339.89 1830.3 1341.95 1830.3 Q1347.28 1830.3 1350.38 1832.73 Q1353.48 1835.14 1353.48 1839.26 Q1353.48 1842.13 1351.84 1844.12 Q1350.19 1846.09 1347.16 1846.85 Z" fill="#000000" fill-rule="evenodd" fill-opacity="1" /><path clip-path="url(#clip340)" d="M1719.76 1835 L1707.95 1853.45 L1719.76 1853.45 L1719.76 1835 M1718.53 1830.92 L1724.41 1830.92 L1724.41 1853.45 L1729.34 1853.45 L1729.34 1857.34 L1724.41 1857.34 L1724.41 1865.48 L1719.76 1865.48 L1719.76 1857.34 L1704.16 1857.34 L1704.16 1852.82 L1718.53 1830.92 Z" fill="#000000" fill-rule="evenodd" fill-opacity="1" /><path clip-path="url(#clip340)" d="M2080.87 1830.92 L2099.22 1830.92 L2099.22 1834.86 L2085.15 1834.86 L2085.15 1843.33 Q2086.17 1842.98 2087.18 1842.82 Q2088.2 1842.64 2089.22 1842.64 Q2095.01 1842.64 2098.39 1845.81 Q2101.77 1848.98 2101.77 1854.4 Q2101.77 1859.97 2098.3 1863.08 Q2094.82 1866.15 2088.5 1866.15 Q2086.33 1866.15 2084.06 1865.78 Q2081.81 1865.41 2079.41 1864.67 L2079.41 1859.97 Q2081.49 1861.11 2083.71 1861.66 Q2085.93 1862.22 2088.41 1862.22 Q2092.42 1862.22 2094.75 1860.11 Q2097.09 1858.01 2097.09 1854.4 Q2097.09 1850.78 2094.75 1848.68 Q2092.42 1846.57 2088.41 1846.57 Q2086.54 1846.57 2084.66 1846.99 Q2082.81 1847.4 2080.87 1848.28 L2080.87 1830.92 Z" fill="#000000" fill-rule="evenodd" fill-opacity="1" /><path clip-path="url(#clip340)" d="M2464.83 1846.34 Q2461.68 1846.34 2459.83 1848.49 Q2458 1850.65 2458 1854.4 Q2458 1858.12 2459.83 1860.3 Q2461.68 1862.45 2464.83 1862.45 Q2467.98 1862.45 2469.81 1860.3 Q2471.66 1858.12 2471.66 1854.4 Q2471.66 1850.65 2469.81 1848.49 Q2467.98 1846.34 2464.83 1846.34 M2474.11 1831.69 L2474.11 1835.95 Q2472.35 1835.11 2470.55 1834.67 Q2468.76 1834.23 2467.01 1834.23 Q2462.38 1834.23 2459.92 1837.36 Q2457.49 1840.48 2457.14 1846.8 Q2458.51 1844.79 2460.57 1843.72 Q2462.63 1842.64 2465.11 1842.64 Q2470.32 1842.64 2473.32 1845.81 Q2476.36 1848.96 2476.36 1854.4 Q2476.36 1859.72 2473.21 1862.94 Q2470.06 1866.15 2464.83 1866.15 Q2458.83 1866.15 2455.66 1861.57 Q2452.49 1856.96 2452.49 1848.24 Q2452.49 1840.04 2456.38 1835.18 Q2460.27 1830.3 2466.82 1830.3 Q2468.58 1830.3 2470.36 1830.65 Q2472.17 1830.99 2474.11 1831.69 Z" fill="#000000" fill-rule="evenodd" fill-opacity="1" /><polyline clip-path="url(#clip342)" style="stroke:#000000; stroke-linecap:butt; stroke-linejoin:round; stroke-width:2; stroke-opacity:0.1; fill:none" points="
  150.937,1751.16 2640.76,1751.16 
  "/>
<polyline clip-path="url(#clip342)" style="stroke:#000000; stroke-linecap:butt; stroke-linejoin:round; stroke-width:2; stroke-opacity:0.1; fill:none" points="
  150.937,1383.53 2640.76,1383.53 
  "/>
<polyline clip-path="url(#clip342)" style="stroke:#000000; stroke-linecap:butt; stroke-linejoin:round; stroke-width:2; stroke-opacity:0.1; fill:none" points="
  150.937,1015.9 2640.76,1015.9 
  "/>
<polyline clip-path="url(#clip342)" style="stroke:#000000; stroke-linecap:butt; stroke-linejoin:round; stroke-width:2; stroke-opacity:0.1; fill:none" points="
  150.937,648.269 2640.76,648.269 
  "/>
<polyline clip-path="url(#clip342)" style="stroke:#000000; stroke-linecap:butt; stroke-linejoin:round; stroke-width:2; stroke-opacity:0.1; fill:none" points="
  150.937,280.64 2640.76,280.64 
  "/>
<polyline clip-path="url(#clip340)" style="stroke:#000000; stroke-linecap:butt; stroke-linejoin:round; stroke-width:4; stroke-opacity:1; fill:none" points="
  150.937,1800.78 150.937,47.2441 
  "/>
<polyline clip-path="url(#clip340)" style="stroke:#000000; stroke-linecap:butt; stroke-linejoin:round; stroke-width:4; stroke-opacity:1; fill:none" points="
  150.937,1751.16 169.834,1751.16 
  "/>
<polyline clip-path="url(#clip340)" style="stroke:#000000; stroke-linecap:butt; stroke-linejoin:round; stroke-width:4; stroke-opacity:1; fill:none" points="
  150.937,1383.53 169.834,1383.53 
  "/>
<polyline clip-path="url(#clip340)" style="stroke:#000000; stroke-linecap:butt; stroke-linejoin:round; stroke-width:4; stroke-opacity:1; fill:none" points="
  150.937,1015.9 169.834,1015.9 
  "/>
<polyline clip-path="url(#clip340)" style="stroke:#000000; stroke-linecap:butt; stroke-linejoin:round; stroke-width:4; stroke-opacity:1; fill:none" points="
  150.937,648.269 169.834,648.269 
  "/>
<polyline clip-path="url(#clip340)" style="stroke:#000000; stroke-linecap:butt; stroke-linejoin:round; stroke-width:4; stroke-opacity:1; fill:none" points="
  150.937,280.64 169.834,280.64 
  "/>
<path clip-path="url(#clip340)" d="M49.5521 1751.61 L79.2279 1751.61 L79.2279 1755.54 L49.5521 1755.54 L49.5521 1751.61 Z" fill="#000000" fill-rule="evenodd" fill-opacity="1" /><path clip-path="url(#clip340)" d="M103.487 1749.8 Q106.843 1750.52 108.718 1752.79 Q110.617 1755.06 110.617 1758.39 Q110.617 1763.51 107.098 1766.31 Q103.58 1769.11 97.0982 1769.11 Q94.9223 1769.11 92.6075 1768.67 Q90.3158 1768.25 87.8621 1767.39 L87.8621 1762.88 Q89.8065 1764.01 92.1213 1764.59 Q94.4361 1765.17 96.9593 1765.17 Q101.357 1765.17 103.649 1763.44 Q105.964 1761.7 105.964 1758.39 Q105.964 1755.33 103.811 1753.62 Q101.681 1751.88 97.8621 1751.88 L93.8343 1751.88 L93.8343 1748.04 L98.0472 1748.04 Q101.496 1748.04 103.325 1746.68 Q105.154 1745.29 105.154 1742.7 Q105.154 1740.03 103.256 1738.62 Q101.381 1737.19 97.8621 1737.19 Q95.9408 1737.19 93.7417 1737.6 Q91.5426 1738.02 88.9038 1738.9 L88.9038 1734.73 Q91.5658 1733.99 93.8806 1733.62 Q96.2185 1733.25 98.2787 1733.25 Q103.603 1733.25 106.705 1735.68 Q109.806 1738.09 109.806 1742.21 Q109.806 1745.08 108.163 1747.07 Q106.519 1749.04 103.487 1749.8 Z" fill="#000000" fill-rule="evenodd" fill-opacity="1" /><path clip-path="url(#clip340)" d="M50.5012 1383.98 L80.177 1383.98 L80.177 1387.91 L50.5012 1387.91 L50.5012 1383.98 Z" fill="#000000" fill-rule="evenodd" fill-opacity="1" /><path clip-path="url(#clip340)" d="M94.2973 1396.87 L110.617 1396.87 L110.617 1400.81 L88.6723 1400.81 L88.6723 1396.87 Q91.3343 1394.12 95.9176 1389.49 Q100.524 1384.83 101.705 1383.49 Q103.95 1380.97 104.83 1379.23 Q105.732 1377.47 105.732 1375.78 Q105.732 1373.03 103.788 1371.29 Q101.867 1369.56 98.7648 1369.56 Q96.5658 1369.56 94.1121 1370.32 Q91.6815 1371.08 88.9038 1372.64 L88.9038 1367.91 Q91.7278 1366.78 94.1815 1366.2 Q96.6352 1365.62 98.6722 1365.62 Q104.043 1365.62 107.237 1368.31 Q110.431 1370.99 110.431 1375.48 Q110.431 1377.61 109.621 1379.53 Q108.834 1381.43 106.728 1384.02 Q106.149 1384.7 103.047 1387.91 Q99.9454 1391.11 94.2973 1396.87 Z" fill="#000000" fill-rule="evenodd" fill-opacity="1" /><path clip-path="url(#clip340)" d="M50.1308 1016.35 L79.8066 1016.35 L79.8066 1020.28 L50.1308 1020.28 L50.1308 1016.35 Z" fill="#000000" fill-rule="evenodd" fill-opacity="1" /><path clip-path="url(#clip340)" d="M90.7093 1029.24 L98.3482 1029.24 L98.3482 1002.88 L90.038 1004.54 L90.038 1000.28 L98.3019 998.618 L102.978 998.618 L102.978 1029.24 L110.617 1029.24 L110.617 1033.18 L90.7093 1033.18 L90.7093 1029.24 Z" fill="#000000" fill-rule="evenodd" fill-opacity="1" /><path clip-path="url(#clip340)" d="M98.6722 634.068 Q95.0611 634.068 93.2324 637.633 Q91.4269 641.174 91.4269 648.304 Q91.4269 655.41 93.2324 658.975 Q95.0611 662.517 98.6722 662.517 Q102.306 662.517 104.112 658.975 Q105.941 655.41 105.941 648.304 Q105.941 641.174 104.112 637.633 Q102.306 634.068 98.6722 634.068 M98.6722 630.364 Q104.482 630.364 107.538 634.971 Q110.617 639.554 110.617 648.304 Q110.617 657.031 107.538 661.637 Q104.482 666.221 98.6722 666.221 Q92.8621 666.221 89.7834 661.637 Q86.7279 657.031 86.7279 648.304 Q86.7279 639.554 89.7834 634.971 Q92.8621 630.364 98.6722 630.364 Z" fill="#000000" fill-rule="evenodd" fill-opacity="1" /><path clip-path="url(#clip340)" d="M90.7093 293.985 L98.3482 293.985 L98.3482 267.62 L90.038 269.286 L90.038 265.027 L98.3019 263.36 L102.978 263.36 L102.978 293.985 L110.617 293.985 L110.617 297.92 L90.7093 297.92 L90.7093 293.985 Z" fill="#000000" fill-rule="evenodd" fill-opacity="1" /><polyline clip-path="url(#clip342)" style="stroke:#009af9; stroke-linecap:butt; stroke-linejoin:round; stroke-width:4; stroke-opacity:1; fill:none" points="
  221.403,280.64 225.226,273.198 229.049,265.91 232.873,258.778 236.696,251.801 254.371,221.587 272.046,194.752 289.721,171.303 307.396,151.221 325.072,134.457 
  342.747,120.935 360.422,110.554 378.097,103.187 399.341,98.1101 420.585,96.8724 441.83,99.1363 463.074,104.53 481.035,111.238 498.997,119.646 516.959,129.491 
  534.92,140.507 573.943,167.185 612.966,195.39 648.941,220.514 684.917,242.914 704.201,253.247 723.486,262.145 742.771,269.438 762.056,274.987 784.399,279.1 
  806.742,280.631 829.085,279.541 851.429,275.858 871.285,270.481 891.141,263.235 910.997,254.265 930.853,243.753 965.677,222.265 1000.5,198.108 1038.47,170.653 
  1076.44,144.331 1095.53,132.306 1114.63,121.524 1133.73,112.307 1152.82,104.971 1173.94,99.4159 1195.05,96.926 1216.16,97.8681 1237.28,102.577 1257.37,110.825 
  1277.46,122.972 1287.5,130.566 1297.54,139.2 1307.59,148.89 1317.63,159.649 1328.08,171.981 1338.52,185.49 1348.97,200.18 1359.41,216.054 1369.85,233.109 
  1380.3,251.34 1390.74,270.739 1401.19,291.292 1418.77,328.458 1436.35,368.75 1453.94,412.042 1471.52,458.176 1492.99,518.089 1514.45,581.583 1535.92,648.222 
  1557.39,717.519 1596.72,849.599 1636.05,985.237 1672.37,1110.33 1708.7,1232.01 1727.1,1291.33 1745.5,1348.56 1763.89,1403.3 1782.29,1455.18 1792.6,1482.87 
  1802.91,1509.47 1813.22,1534.95 1823.53,1559.24 1833.84,1582.28 1844.15,1604.03 1854.46,1624.43 1864.77,1643.44 1874.11,1659.44 1883.45,1674.22 1892.79,1687.77 
  1902.14,1700.07 1911.48,1711.08 1920.82,1720.79 1930.16,1729.18 1939.5,1736.23 1950.2,1742.65 1960.9,1747.28 1971.59,1750.12 1982.29,1751.15 1992.98,1750.38 
  2003.68,1747.81 2014.38,1743.43 2025.07,1737.28 2034.98,1729.99 2044.88,1721.21 2054.78,1710.94 2064.69,1699.21 2074.59,1686.04 2084.49,1671.45 2094.4,1655.49 
  2104.3,1638.18 2114.06,1619.83 2123.83,1600.24 2133.59,1579.46 2143.36,1557.52 2162.88,1510.34 2182.41,1459.09 2201.37,1405.83 2220.33,1349.51 2239.29,1290.54 
  2258.25,1229.35 2297.12,1098.86 2335.99,964.79 2357.29,891.226 2378.58,818.368 2399.88,746.811 2421.17,677.123 2436.64,627.983 2452.1,580.303 2467.57,534.261 
  2483.04,490.022 2498.5,447.739 2513.97,407.548 2529.44,369.571 2544.9,333.913 2551.25,319.974 2557.6,306.446 2563.94,293.333 2570.29,280.64 
  "/>
<path clip-path="url(#clip340)" d="
M2228.69 209.375 L2557.76 209.375 L2557.76 105.695 L2228.69 105.695  Z
  " fill="#ffffff" fill-rule="evenodd" fill-opacity="1"/>
<polyline clip-path="url(#clip340)" style="stroke:#000000; stroke-linecap:butt; stroke-linejoin:round; stroke-width:4; stroke-opacity:1; fill:none" points="
  2228.69,209.375 2557.76,209.375 2557.76,105.695 2228.69,105.695 2228.69,209.375 
  "/>
<polyline clip-path="url(#clip340)" style="stroke:#009af9; stroke-linecap:butt; stroke-linejoin:round; stroke-width:4; stroke-opacity:1; fill:none" points="
  2256.35,157.535 2422.34,157.535 
  "/>
<path clip-path="url(#clip340)" d="M2463.84 177.223 Q2462.04 181.852 2460.33 183.264 Q2458.61 184.676 2455.74 184.676 L2452.34 184.676 L2452.34 181.112 L2454.84 181.112 Q2456.6 181.112 2457.57 180.278 Q2458.54 179.445 2459.72 176.343 L2460.49 174.399 L2450 148.889 L2454.52 148.889 L2462.62 169.167 L2470.72 148.889 L2475.23 148.889 L2463.84 177.223 Z" fill="#000000" fill-rule="evenodd" fill-opacity="1" /><path clip-path="url(#clip340)" d="M2482.53 170.88 L2490.16 170.88 L2490.16 144.515 L2481.85 146.181 L2481.85 141.922 L2490.12 140.255 L2494.79 140.255 L2494.79 170.88 L2502.43 170.88 L2502.43 174.815 L2482.53 174.815 L2482.53 170.88 Z" fill="#000000" fill-rule="evenodd" fill-opacity="1" /></svg>
