<?xml version="1.0" encoding="utf-8"?>
<svg xmlns="http://www.w3.org/2000/svg" xmlns:xlink="http://www.w3.org/1999/xlink" width="672" height="480" viewBox="0 0 2688 1920">
<defs>
  <clipPath id="clip660">
    <rect x="0" y="0" width="2688" height="1920"/>
  </clipPath>
</defs>
<path clip-path="url(#clip660)" d="M0 1920 L2688 1920 L2688 0 L0 0  Z" fill="#ffffff" fill-rule="evenodd" fill-opacity="1"/>
<defs>
  <clipPath id="clip661">
    <rect x="537" y="0" width="1883" height="1883"/>
  </clipPath>
</defs>
<path clip-path="url(#clip660)" d="M242.07 1800.78 L2640.76 1800.78 L2640.76 47.2441 L242.07 47.2441  Z" fill="#ffffff" fill-rule="evenodd" fill-opacity="1"/>
<defs>
  <clipPath id="clip662">
    <rect x="242" y="47" width="2400" height="1755"/>
  </clipPath>
</defs>
<polyline clip-path="url(#clip662)" style="stroke:#000000; stroke-linecap:round; stroke-linejoin:round; stroke-width:2; stroke-opacity:0.1; fill:none" points="471.594,1800.78 471.594,47.2441 "/>
<polyline clip-path="url(#clip662)" style="stroke:#000000; stroke-linecap:round; stroke-linejoin:round; stroke-width:2; stroke-opacity:0.1; fill:none" points="794.867,1800.78 794.867,47.2441 "/>
<polyline clip-path="url(#clip662)" style="stroke:#000000; stroke-linecap:round; stroke-linejoin:round; stroke-width:2; stroke-opacity:0.1; fill:none" points="1118.14,1800.78 1118.14,47.2441 "/>
<polyline clip-path="url(#clip662)" style="stroke:#000000; stroke-linecap:round; stroke-linejoin:round; stroke-width:2; stroke-opacity:0.1; fill:none" points="1441.41,1800.78 1441.41,47.2441 "/>
<polyline clip-path="url(#clip662)" style="stroke:#000000; stroke-linecap:round; stroke-linejoin:round; stroke-width:2; stroke-opacity:0.1; fill:none" points="1764.69,1800.78 1764.69,47.2441 "/>
<polyline clip-path="url(#clip662)" style="stroke:#000000; stroke-linecap:round; stroke-linejoin:round; stroke-width:2; stroke-opacity:0.1; fill:none" points="2087.96,1800.78 2087.96,47.2441 "/>
<polyline clip-path="url(#clip662)" style="stroke:#000000; stroke-linecap:round; stroke-linejoin:round; stroke-width:2; stroke-opacity:0.1; fill:none" points="2411.23,1800.78 2411.23,47.2441 "/>
<polyline clip-path="url(#clip660)" style="stroke:#000000; stroke-linecap:round; stroke-linejoin:round; stroke-width:4; stroke-opacity:1; fill:none" points="242.07,1800.78 2640.76,1800.78 "/>
<polyline clip-path="url(#clip660)" style="stroke:#000000; stroke-linecap:round; stroke-linejoin:round; stroke-width:4; stroke-opacity:1; fill:none" points="471.594,1800.78 471.594,1781.88 "/>
<polyline clip-path="url(#clip660)" style="stroke:#000000; stroke-linecap:round; stroke-linejoin:round; stroke-width:4; stroke-opacity:1; fill:none" points="794.867,1800.78 794.867,1781.88 "/>
<polyline clip-path="url(#clip660)" style="stroke:#000000; stroke-linecap:round; stroke-linejoin:round; stroke-width:4; stroke-opacity:1; fill:none" points="1118.14,1800.78 1118.14,1781.88 "/>
<polyline clip-path="url(#clip660)" style="stroke:#000000; stroke-linecap:round; stroke-linejoin:round; stroke-width:4; stroke-opacity:1; fill:none" points="1441.41,1800.78 1441.41,1781.88 "/>
<polyline clip-path="url(#clip660)" style="stroke:#000000; stroke-linecap:round; stroke-linejoin:round; stroke-width:4; stroke-opacity:1; fill:none" points="1764.69,1800.78 1764.69,1781.88 "/>
<polyline clip-path="url(#clip660)" style="stroke:#000000; stroke-linecap:round; stroke-linejoin:round; stroke-width:4; stroke-opacity:1; fill:none" points="2087.96,1800.78 2087.96,1781.88 "/>
<polyline clip-path="url(#clip660)" style="stroke:#000000; stroke-linecap:round; stroke-linejoin:round; stroke-width:4; stroke-opacity:1; fill:none" points="2411.23,1800.78 2411.23,1781.88 "/>
<path clip-path="url(#clip660)" d="M440.495 1848.65 L470.171 1848.65 L470.171 1852.59 L440.495 1852.59 L440.495 1848.65 Z" fill="#000000" fill-rule="evenodd" fill-opacity="1" /><path clip-path="url(#clip660)" d="M493.11 1835 L481.305 1853.45 L493.11 1853.45 L493.11 1835 M491.883 1830.92 L497.763 1830.92 L497.763 1853.45 L502.694 1853.45 L502.694 1857.34 L497.763 1857.34 L497.763 1865.48 L493.11 1865.48 L493.11 1857.34 L477.509 1857.34 L477.509 1852.82 L491.883 1830.92 Z" fill="#000000" fill-rule="evenodd" fill-opacity="1" /><path clip-path="url(#clip660)" d="M764.809 1848.65 L794.485 1848.65 L794.485 1852.59 L764.809 1852.59 L764.809 1848.65 Z" fill="#000000" fill-rule="evenodd" fill-opacity="1" /><path clip-path="url(#clip660)" d="M808.606 1861.55 L824.925 1861.55 L824.925 1865.48 L802.981 1865.48 L802.981 1861.55 Q805.643 1858.79 810.226 1854.16 Q814.832 1849.51 816.013 1848.17 Q818.258 1845.65 819.138 1843.91 Q820.041 1842.15 820.041 1840.46 Q820.041 1837.71 818.096 1835.97 Q816.175 1834.23 813.073 1834.23 Q810.874 1834.23 808.42 1835 Q805.99 1835.76 803.212 1837.31 L803.212 1832.59 Q806.036 1831.46 808.49 1830.88 Q810.943 1830.3 812.981 1830.3 Q818.351 1830.3 821.545 1832.98 Q824.74 1835.67 824.74 1840.16 Q824.74 1842.29 823.93 1844.21 Q823.142 1846.11 821.036 1848.7 Q820.457 1849.37 817.355 1852.59 Q814.254 1855.78 808.606 1861.55 Z" fill="#000000" fill-rule="evenodd" fill-opacity="1" /><path clip-path="url(#clip660)" d="M1118.14 1834 Q1114.53 1834 1112.7 1837.57 Q1110.89 1841.11 1110.89 1848.24 Q1110.89 1855.34 1112.7 1858.91 Q1114.53 1862.45 1118.14 1862.45 Q1121.77 1862.45 1123.58 1858.91 Q1125.41 1855.34 1125.41 1848.24 Q1125.41 1841.11 1123.58 1837.57 Q1121.77 1834 1118.14 1834 M1118.14 1830.3 Q1123.95 1830.3 1127.01 1834.9 Q1130.08 1839.49 1130.08 1848.24 Q1130.08 1856.96 1127.01 1861.57 Q1123.95 1866.15 1118.14 1866.15 Q1112.33 1866.15 1109.25 1861.57 Q1106.2 1856.96 1106.2 1848.24 Q1106.2 1839.49 1109.25 1834.9 Q1112.33 1830.3 1118.14 1830.3 Z" fill="#000000" fill-rule="evenodd" fill-opacity="1" /><path clip-path="url(#clip660)" d="M1436.07 1861.55 L1452.39 1861.55 L1452.39 1865.48 L1430.44 1865.48 L1430.44 1861.55 Q1433.1 1858.79 1437.69 1854.16 Q1442.29 1849.51 1443.47 1848.17 Q1445.72 1845.65 1446.6 1843.91 Q1447.5 1842.15 1447.5 1840.46 Q1447.5 1837.71 1445.56 1835.97 Q1443.64 1834.23 1440.53 1834.23 Q1438.33 1834.23 1435.88 1835 Q1433.45 1835.76 1430.67 1837.31 L1430.67 1832.59 Q1433.5 1831.46 1435.95 1830.88 Q1438.4 1830.3 1440.44 1830.3 Q1445.81 1830.3 1449.01 1832.98 Q1452.2 1835.67 1452.2 1840.16 Q1452.2 1842.29 1451.39 1844.21 Q1450.6 1846.11 1448.5 1848.7 Q1447.92 1849.37 1444.82 1852.59 Q1441.71 1855.78 1436.07 1861.55 Z" fill="#000000" fill-rule="evenodd" fill-opacity="1" /><path clip-path="url(#clip660)" d="M1767.7 1835 L1755.89 1853.45 L1767.7 1853.45 L1767.7 1835 M1766.47 1830.92 L1772.35 1830.92 L1772.35 1853.45 L1777.28 1853.45 L1777.28 1857.34 L1772.35 1857.34 L1772.35 1865.48 L1767.7 1865.48 L1767.7 1857.34 L1752.09 1857.34 L1752.09 1852.82 L1766.47 1830.92 Z" fill="#000000" fill-rule="evenodd" fill-opacity="1" /><path clip-path="url(#clip660)" d="M2088.36 1846.34 Q2085.22 1846.34 2083.36 1848.49 Q2081.54 1850.65 2081.54 1854.4 Q2081.54 1858.12 2083.36 1860.3 Q2085.22 1862.45 2088.36 1862.45 Q2091.51 1862.45 2093.34 1860.3 Q2095.19 1858.12 2095.19 1854.4 Q2095.19 1850.65 2093.34 1848.49 Q2091.51 1846.34 2088.36 1846.34 M2097.65 1831.69 L2097.65 1835.95 Q2095.89 1835.11 2094.08 1834.67 Q2092.3 1834.23 2090.54 1834.23 Q2085.91 1834.23 2083.46 1837.36 Q2081.03 1840.48 2080.68 1846.8 Q2082.04 1844.79 2084.1 1843.72 Q2086.17 1842.64 2088.64 1842.64 Q2093.85 1842.64 2096.86 1845.81 Q2099.89 1848.96 2099.89 1854.4 Q2099.89 1859.72 2096.74 1862.94 Q2093.6 1866.15 2088.36 1866.15 Q2082.37 1866.15 2079.2 1861.57 Q2076.03 1856.96 2076.03 1848.24 Q2076.03 1840.04 2079.92 1835.18 Q2083.8 1830.3 2090.35 1830.3 Q2092.11 1830.3 2093.9 1830.65 Q2095.7 1830.99 2097.65 1831.69 Z" fill="#000000" fill-rule="evenodd" fill-opacity="1" /><path clip-path="url(#clip660)" d="M2411.23 1849.07 Q2407.9 1849.07 2405.98 1850.85 Q2404.08 1852.64 2404.08 1855.76 Q2404.08 1858.89 2405.98 1860.67 Q2407.9 1862.45 2411.23 1862.45 Q2414.57 1862.45 2416.49 1860.67 Q2418.41 1858.86 2418.41 1855.76 Q2418.41 1852.64 2416.49 1850.85 Q2414.59 1849.07 2411.23 1849.07 M2406.56 1847.08 Q2403.55 1846.34 2401.86 1844.28 Q2400.19 1842.22 2400.19 1839.26 Q2400.19 1835.11 2403.13 1832.71 Q2406.09 1830.3 2411.23 1830.3 Q2416.39 1830.3 2419.33 1832.71 Q2422.27 1835.11 2422.27 1839.26 Q2422.27 1842.22 2420.58 1844.28 Q2418.92 1846.34 2415.93 1847.08 Q2419.31 1847.87 2421.19 1850.16 Q2423.08 1852.45 2423.08 1855.76 Q2423.08 1860.78 2420.01 1863.47 Q2416.95 1866.15 2411.23 1866.15 Q2405.51 1866.15 2402.44 1863.47 Q2399.38 1860.78 2399.38 1855.76 Q2399.38 1852.45 2401.28 1850.16 Q2403.18 1847.87 2406.56 1847.08 M2404.84 1839.7 Q2404.84 1842.38 2406.51 1843.89 Q2408.2 1845.39 2411.23 1845.39 Q2414.24 1845.39 2415.93 1843.89 Q2417.64 1842.38 2417.64 1839.7 Q2417.64 1837.01 2415.93 1835.51 Q2414.24 1834 2411.23 1834 Q2408.2 1834 2406.51 1835.51 Q2404.84 1837.01 2404.84 1839.7 Z" fill="#000000" fill-rule="evenodd" fill-opacity="1" /><polyline clip-path="url(#clip662)" style="stroke:#000000; stroke-linecap:round; stroke-linejoin:round; stroke-width:2; stroke-opacity:0.1; fill:none" points="242.07,1544.59 2640.76,1544.59 "/>
<polyline clip-path="url(#clip662)" style="stroke:#000000; stroke-linecap:round; stroke-linejoin:round; stroke-width:2; stroke-opacity:0.1; fill:none" points="242.07,1259.84 2640.76,1259.84 "/>
<polyline clip-path="url(#clip662)" style="stroke:#000000; stroke-linecap:round; stroke-linejoin:round; stroke-width:2; stroke-opacity:0.1; fill:none" points="242.07,975.087 2640.76,975.087 "/>
<polyline clip-path="url(#clip662)" style="stroke:#000000; stroke-linecap:round; stroke-linejoin:round; stroke-width:2; stroke-opacity:0.1; fill:none" points="242.07,690.338 2640.76,690.338 "/>
<polyline clip-path="url(#clip662)" style="stroke:#000000; stroke-linecap:round; stroke-linejoin:round; stroke-width:2; stroke-opacity:0.1; fill:none" points="242.07,405.588 2640.76,405.588 "/>
<polyline clip-path="url(#clip662)" style="stroke:#000000; stroke-linecap:round; stroke-linejoin:round; stroke-width:2; stroke-opacity:0.1; fill:none" points="242.07,120.839 2640.76,120.839 "/>
<polyline clip-path="url(#clip660)" style="stroke:#000000; stroke-linecap:round; stroke-linejoin:round; stroke-width:4; stroke-opacity:1; fill:none" points="242.07,1800.78 242.07,47.2441 "/>
<polyline clip-path="url(#clip660)" style="stroke:#000000; stroke-linecap:round; stroke-linejoin:round; stroke-width:4; stroke-opacity:1; fill:none" points="242.07,1544.59 260.968,1544.59 "/>
<polyline clip-path="url(#clip660)" style="stroke:#000000; stroke-linecap:round; stroke-linejoin:round; stroke-width:4; stroke-opacity:1; fill:none" points="242.07,1259.84 260.968,1259.84 "/>
<polyline clip-path="url(#clip660)" style="stroke:#000000; stroke-linecap:round; stroke-linejoin:round; stroke-width:4; stroke-opacity:1; fill:none" points="242.07,975.087 260.968,975.087 "/>
<polyline clip-path="url(#clip660)" style="stroke:#000000; stroke-linecap:round; stroke-linejoin:round; stroke-width:4; stroke-opacity:1; fill:none" points="242.07,690.338 260.968,690.338 "/>
<polyline clip-path="url(#clip660)" style="stroke:#000000; stroke-linecap:round; stroke-linejoin:round; stroke-width:4; stroke-opacity:1; fill:none" points="242.07,405.588 260.968,405.588 "/>
<polyline clip-path="url(#clip660)" style="stroke:#000000; stroke-linecap:round; stroke-linejoin:round; stroke-width:4; stroke-opacity:1; fill:none" points="242.07,120.839 260.968,120.839 "/>
<path clip-path="url(#clip660)" d="M49.5521 1545.04 L79.2279 1545.04 L79.2279 1548.97 L49.5521 1548.97 L49.5521 1545.04 Z" fill="#000000" fill-rule="evenodd" fill-opacity="1" /><path clip-path="url(#clip660)" d="M90.1306 1557.93 L97.7695 1557.93 L97.7695 1531.56 L89.4593 1533.23 L89.4593 1528.97 L97.7232 1527.31 L102.399 1527.31 L102.399 1557.93 L110.038 1557.93 L110.038 1561.87 L90.1306 1561.87 L90.1306 1557.93 Z" fill="#000000" fill-rule="evenodd" fill-opacity="1" /><path clip-path="url(#clip660)" d="M129.482 1530.38 Q125.871 1530.38 124.042 1533.95 Q122.237 1537.49 122.237 1544.62 Q122.237 1551.73 124.042 1555.29 Q125.871 1558.83 129.482 1558.83 Q133.116 1558.83 134.922 1555.29 Q136.751 1551.73 136.751 1544.62 Q136.751 1537.49 134.922 1533.95 Q133.116 1530.38 129.482 1530.38 M129.482 1526.68 Q135.292 1526.68 138.348 1531.29 Q141.427 1535.87 141.427 1544.62 Q141.427 1553.35 138.348 1557.95 Q135.292 1562.54 129.482 1562.54 Q123.672 1562.54 120.593 1557.95 Q117.538 1553.35 117.538 1544.62 Q117.538 1535.87 120.593 1531.29 Q123.672 1526.68 129.482 1526.68 Z" fill="#000000" fill-rule="evenodd" fill-opacity="1" /><path clip-path="url(#clip660)" d="M159.644 1530.38 Q156.033 1530.38 154.204 1533.95 Q152.399 1537.49 152.399 1544.62 Q152.399 1551.73 154.204 1555.29 Q156.033 1558.83 159.644 1558.83 Q163.278 1558.83 165.084 1555.29 Q166.913 1551.73 166.913 1544.62 Q166.913 1537.49 165.084 1533.95 Q163.278 1530.38 159.644 1530.38 M159.644 1526.68 Q165.454 1526.68 168.51 1531.29 Q171.589 1535.87 171.589 1544.62 Q171.589 1553.35 168.51 1557.95 Q165.454 1562.54 159.644 1562.54 Q153.834 1562.54 150.755 1557.95 Q147.7 1553.35 147.7 1544.62 Q147.7 1535.87 150.755 1531.29 Q153.834 1526.68 159.644 1526.68 Z" fill="#000000" fill-rule="evenodd" fill-opacity="1" /><path clip-path="url(#clip660)" d="M189.806 1530.38 Q186.195 1530.38 184.366 1533.95 Q182.561 1537.49 182.561 1544.62 Q182.561 1551.73 184.366 1555.29 Q186.195 1558.83 189.806 1558.83 Q193.44 1558.83 195.246 1555.29 Q197.074 1551.73 197.074 1544.62 Q197.074 1537.49 195.246 1533.95 Q193.44 1530.38 189.806 1530.38 M189.806 1526.68 Q195.616 1526.68 198.672 1531.29 Q201.75 1535.87 201.75 1544.62 Q201.75 1553.35 198.672 1557.95 Q195.616 1562.54 189.806 1562.54 Q183.996 1562.54 180.917 1557.95 Q177.862 1553.35 177.862 1544.62 Q177.862 1535.87 180.917 1531.29 Q183.996 1526.68 189.806 1526.68 Z" fill="#000000" fill-rule="evenodd" fill-opacity="1" /><path clip-path="url(#clip660)" d="M79.714 1260.29 L109.39 1260.29 L109.39 1264.22 L79.714 1264.22 L79.714 1260.29 Z" fill="#000000" fill-rule="evenodd" fill-opacity="1" /><path clip-path="url(#clip660)" d="M119.529 1242.56 L137.885 1242.56 L137.885 1246.49 L123.811 1246.49 L123.811 1254.96 Q124.83 1254.62 125.848 1254.45 Q126.867 1254.27 127.885 1254.27 Q133.672 1254.27 137.052 1257.44 Q140.431 1260.61 140.431 1266.03 Q140.431 1271.61 136.959 1274.71 Q133.487 1277.79 127.167 1277.79 Q124.992 1277.79 122.723 1277.42 Q120.478 1277.05 118.07 1276.31 L118.07 1271.61 Q120.154 1272.74 122.376 1273.3 Q124.598 1273.85 127.075 1273.85 Q131.079 1273.85 133.417 1271.75 Q135.755 1269.64 135.755 1266.03 Q135.755 1262.42 133.417 1260.31 Q131.079 1258.2 127.075 1258.2 Q125.2 1258.2 123.325 1258.62 Q121.473 1259.04 119.529 1259.92 L119.529 1242.56 Z" fill="#000000" fill-rule="evenodd" fill-opacity="1" /><path clip-path="url(#clip660)" d="M159.644 1245.63 Q156.033 1245.63 154.204 1249.2 Q152.399 1252.74 152.399 1259.87 Q152.399 1266.98 154.204 1270.54 Q156.033 1274.08 159.644 1274.08 Q163.278 1274.08 165.084 1270.54 Q166.913 1266.98 166.913 1259.87 Q166.913 1252.74 165.084 1249.2 Q163.278 1245.63 159.644 1245.63 M159.644 1241.93 Q165.454 1241.93 168.51 1246.54 Q171.589 1251.12 171.589 1259.87 Q171.589 1268.6 168.51 1273.2 Q165.454 1277.79 159.644 1277.79 Q153.834 1277.79 150.755 1273.2 Q147.7 1268.6 147.7 1259.87 Q147.7 1251.12 150.755 1246.54 Q153.834 1241.93 159.644 1241.93 Z" fill="#000000" fill-rule="evenodd" fill-opacity="1" /><path clip-path="url(#clip660)" d="M189.806 1245.63 Q186.195 1245.63 184.366 1249.2 Q182.561 1252.74 182.561 1259.87 Q182.561 1266.98 184.366 1270.54 Q186.195 1274.08 189.806 1274.08 Q193.44 1274.08 195.246 1270.54 Q197.074 1266.98 197.074 1259.87 Q197.074 1252.74 195.246 1249.2 Q193.44 1245.63 189.806 1245.63 M189.806 1241.93 Q195.616 1241.93 198.672 1246.54 Q201.75 1251.12 201.75 1259.87 Q201.75 1268.6 198.672 1273.2 Q195.616 1277.79 189.806 1277.79 Q183.996 1277.79 180.917 1273.2 Q177.862 1268.6 177.862 1259.87 Q177.862 1251.12 180.917 1246.54 Q183.996 1241.93 189.806 1241.93 Z" fill="#000000" fill-rule="evenodd" fill-opacity="1" /><path clip-path="url(#clip660)" d="M189.806 960.885 Q186.195 960.885 184.366 964.45 Q182.561 967.992 182.561 975.121 Q182.561 982.228 184.366 985.793 Q186.195 989.334 189.806 989.334 Q193.44 989.334 195.246 985.793 Q197.074 982.228 197.074 975.121 Q197.074 967.992 195.246 964.45 Q193.44 960.885 189.806 960.885 M189.806 957.182 Q195.616 957.182 198.672 961.788 Q201.75 966.372 201.75 975.121 Q201.75 983.848 198.672 988.455 Q195.616 993.038 189.806 993.038 Q183.996 993.038 180.917 988.455 Q177.862 983.848 177.862 975.121 Q177.862 966.372 180.917 961.788 Q183.996 957.182 189.806 957.182 Z" fill="#000000" fill-rule="evenodd" fill-opacity="1" /><path clip-path="url(#clip660)" d="M119.529 673.058 L137.885 673.058 L137.885 676.993 L123.811 676.993 L123.811 685.465 Q124.83 685.118 125.848 684.956 Q126.867 684.77 127.885 684.77 Q133.672 684.77 137.052 687.942 Q140.431 691.113 140.431 696.53 Q140.431 702.108 136.959 705.21 Q133.487 708.289 127.167 708.289 Q124.992 708.289 122.723 707.918 Q120.478 707.548 118.07 706.807 L118.07 702.108 Q120.154 703.243 122.376 703.798 Q124.598 704.354 127.075 704.354 Q131.079 704.354 133.417 702.247 Q135.755 700.141 135.755 696.53 Q135.755 692.919 133.417 690.812 Q131.079 688.706 127.075 688.706 Q125.2 688.706 123.325 689.122 Q121.473 689.539 119.529 690.419 L119.529 673.058 Z" fill="#000000" fill-rule="evenodd" fill-opacity="1" /><path clip-path="url(#clip660)" d="M159.644 676.136 Q156.033 676.136 154.204 679.701 Q152.399 683.243 152.399 690.372 Q152.399 697.479 154.204 701.044 Q156.033 704.585 159.644 704.585 Q163.278 704.585 165.084 701.044 Q166.913 697.479 166.913 690.372 Q166.913 683.243 165.084 679.701 Q163.278 676.136 159.644 676.136 M159.644 672.433 Q165.454 672.433 168.51 677.039 Q171.589 681.622 171.589 690.372 Q171.589 699.099 168.51 703.706 Q165.454 708.289 159.644 708.289 Q153.834 708.289 150.755 703.706 Q147.7 699.099 147.7 690.372 Q147.7 681.622 150.755 677.039 Q153.834 672.433 159.644 672.433 Z" fill="#000000" fill-rule="evenodd" fill-opacity="1" /><path clip-path="url(#clip660)" d="M189.806 676.136 Q186.195 676.136 184.366 679.701 Q182.561 683.243 182.561 690.372 Q182.561 697.479 184.366 701.044 Q186.195 704.585 189.806 704.585 Q193.44 704.585 195.246 701.044 Q197.074 697.479 197.074 690.372 Q197.074 683.243 195.246 679.701 Q193.44 676.136 189.806 676.136 M189.806 672.433 Q195.616 672.433 198.672 677.039 Q201.75 681.622 201.75 690.372 Q201.75 699.099 198.672 703.706 Q195.616 708.289 189.806 708.289 Q183.996 708.289 180.917 703.706 Q177.862 699.099 177.862 690.372 Q177.862 681.622 180.917 677.039 Q183.996 672.433 189.806 672.433 Z" fill="#000000" fill-rule="evenodd" fill-opacity="1" /><path clip-path="url(#clip660)" d="M90.1306 418.933 L97.7695 418.933 L97.7695 392.568 L89.4593 394.234 L89.4593 389.975 L97.7232 388.308 L102.399 388.308 L102.399 418.933 L110.038 418.933 L110.038 422.868 L90.1306 422.868 L90.1306 418.933 Z" fill="#000000" fill-rule="evenodd" fill-opacity="1" /><path clip-path="url(#clip660)" d="M129.482 391.387 Q125.871 391.387 124.042 394.952 Q122.237 398.494 122.237 405.623 Q122.237 412.73 124.042 416.294 Q125.871 419.836 129.482 419.836 Q133.116 419.836 134.922 416.294 Q136.751 412.73 136.751 405.623 Q136.751 398.494 134.922 394.952 Q133.116 391.387 129.482 391.387 M129.482 387.683 Q135.292 387.683 138.348 392.29 Q141.427 396.873 141.427 405.623 Q141.427 414.35 138.348 418.956 Q135.292 423.54 129.482 423.54 Q123.672 423.54 120.593 418.956 Q117.538 414.35 117.538 405.623 Q117.538 396.873 120.593 392.29 Q123.672 387.683 129.482 387.683 Z" fill="#000000" fill-rule="evenodd" fill-opacity="1" /><path clip-path="url(#clip660)" d="M159.644 391.387 Q156.033 391.387 154.204 394.952 Q152.399 398.494 152.399 405.623 Q152.399 412.73 154.204 416.294 Q156.033 419.836 159.644 419.836 Q163.278 419.836 165.084 416.294 Q166.913 412.73 166.913 405.623 Q166.913 398.494 165.084 394.952 Q163.278 391.387 159.644 391.387 M159.644 387.683 Q165.454 387.683 168.51 392.29 Q171.589 396.873 171.589 405.623 Q171.589 414.35 168.51 418.956 Q165.454 423.54 159.644 423.54 Q153.834 423.54 150.755 418.956 Q147.7 414.35 147.7 405.623 Q147.7 396.873 150.755 392.29 Q153.834 387.683 159.644 387.683 Z" fill="#000000" fill-rule="evenodd" fill-opacity="1" /><path clip-path="url(#clip660)" d="M189.806 391.387 Q186.195 391.387 184.366 394.952 Q182.561 398.494 182.561 405.623 Q182.561 412.73 184.366 416.294 Q186.195 419.836 189.806 419.836 Q193.44 419.836 195.246 416.294 Q197.074 412.73 197.074 405.623 Q197.074 398.494 195.246 394.952 Q193.44 391.387 189.806 391.387 M189.806 387.683 Q195.616 387.683 198.672 392.29 Q201.75 396.873 201.75 405.623 Q201.75 414.35 198.672 418.956 Q195.616 423.54 189.806 423.54 Q183.996 423.54 180.917 418.956 Q177.862 414.35 177.862 405.623 Q177.862 396.873 180.917 392.29 Q183.996 387.683 189.806 387.683 Z" fill="#000000" fill-rule="evenodd" fill-opacity="1" /><path clip-path="url(#clip660)" d="M90.1306 134.184 L97.7695 134.184 L97.7695 107.818 L89.4593 109.485 L89.4593 105.226 L97.7232 103.559 L102.399 103.559 L102.399 134.184 L110.038 134.184 L110.038 138.119 L90.1306 138.119 L90.1306 134.184 Z" fill="#000000" fill-rule="evenodd" fill-opacity="1" /><path clip-path="url(#clip660)" d="M119.529 103.559 L137.885 103.559 L137.885 107.494 L123.811 107.494 L123.811 115.967 Q124.83 115.619 125.848 115.457 Q126.867 115.272 127.885 115.272 Q133.672 115.272 137.052 118.443 Q140.431 121.615 140.431 127.031 Q140.431 132.61 136.959 135.712 Q133.487 138.79 127.167 138.79 Q124.992 138.79 122.723 138.42 Q120.478 138.05 118.07 137.309 L118.07 132.61 Q120.154 133.744 122.376 134.3 Q124.598 134.855 127.075 134.855 Q131.079 134.855 133.417 132.749 Q135.755 130.642 135.755 127.031 Q135.755 123.42 133.417 121.314 Q131.079 119.207 127.075 119.207 Q125.2 119.207 123.325 119.624 Q121.473 120.041 119.529 120.92 L119.529 103.559 Z" fill="#000000" fill-rule="evenodd" fill-opacity="1" /><path clip-path="url(#clip660)" d="M159.644 106.638 Q156.033 106.638 154.204 110.203 Q152.399 113.744 152.399 120.874 Q152.399 127.98 154.204 131.545 Q156.033 135.087 159.644 135.087 Q163.278 135.087 165.084 131.545 Q166.913 127.98 166.913 120.874 Q166.913 113.744 165.084 110.203 Q163.278 106.638 159.644 106.638 M159.644 102.934 Q165.454 102.934 168.51 107.541 Q171.589 112.124 171.589 120.874 Q171.589 129.601 168.51 134.207 Q165.454 138.79 159.644 138.79 Q153.834 138.79 150.755 134.207 Q147.7 129.601 147.7 120.874 Q147.7 112.124 150.755 107.541 Q153.834 102.934 159.644 102.934 Z" fill="#000000" fill-rule="evenodd" fill-opacity="1" /><path clip-path="url(#clip660)" d="M189.806 106.638 Q186.195 106.638 184.366 110.203 Q182.561 113.744 182.561 120.874 Q182.561 127.98 184.366 131.545 Q186.195 135.087 189.806 135.087 Q193.44 135.087 195.246 131.545 Q197.074 127.98 197.074 120.874 Q197.074 113.744 195.246 110.203 Q193.44 106.638 189.806 106.638 M189.806 102.934 Q195.616 102.934 198.672 107.541 Q201.75 112.124 201.75 120.874 Q201.75 129.601 198.672 134.207 Q195.616 138.79 189.806 138.79 Q183.996 138.79 180.917 134.207 Q177.862 129.601 177.862 120.874 Q177.862 112.124 180.917 107.541 Q183.996 102.934 189.806 102.934 Z" fill="#000000" fill-rule="evenodd" fill-opacity="1" /><polyline clip-path="url(#clip662)" style="stroke:#009af9; stroke-linecap:round; stroke-linejoin:round; stroke-width:4; stroke-opacity:1; fill:none" points="309.958,1331.02 313.641,1324.57 317.324,1318.22 321.007,1311.95 324.69,1305.77 341.719,1278.28 358.747,1252.54 375.775,1228.48 392.803,1206.02 409.832,1185.08 426.86,1165.6 443.888,1147.51 460.916,1130.74 481.383,1112.24 501.849,1095.43 522.316,1080.22 542.782,1066.5 577.391,1046.4 611.999,1029.82 649.594,1015.27 687.188,1003.82 721.847,995.616 756.505,989.296 793.663,984.259 830.821,980.676 873.872,977.931 916.923,976.29 993.44,975.025 1060.54,974.697 1133.69,974.46 1207.28,974.151 1288.65,974.157 1366.06,975.599 1406.31,977.454 1446.56,980.449 1480.44,984.104 1514.32,989.034 1555.68,997.131 1597.04,1007.95 1634.93,1020.67 1672.82,1036.45 1707.82,1054.09 1742.81,1074.97 1778.26,1099.7 1813.71,1128.28 1833.58,1146.05 1853.44,1165.13 1873.31,1185.53 1893.17,1207.27 1911.17,1228.11 1929.17,1250.04 1947.17,1273.04 1965.17,1297.07 2006.39,1355.75 2047.61,1418.78 2085.77,1479.86 2123.94,1541.89 2161.56,1601.78 2199.19,1657.38 2217.45,1681.66 2235.72,1703.44 2253.98,1722.07 2272.25,1736.8 2281.61,1742.58 2290.97,1746.98 2300.34,1749.89 2309.7,1751.15 2319.06,1750.62 2328.42,1748.13 2337.79,1743.52 2347.15,1736.6 2357.41,1726.12 2367.66,1712.37 2377.92,1695.03 2388.18,1673.8 2393.31,1661.63 2398.44,1648.34 2403.56,1633.92 2408.69,1618.29 2413.82,1601.43 2418.95,1583.26 2424.08,1563.76 2429.21,1542.84 2436.66,1509.86 2444.11,1473.61 2451.56,1433.92 2459.01,1390.59 2466.46,1343.41 2473.91,1292.17 2477.64,1264.95 2481.36,1236.63 2485.09,1207.17 2488.81,1176.55 2492.54,1144.74 2496.26,1111.69 2499.99,1077.39 2503.71,1041.78 2507.44,1004.85 2511.16,966.548 2514.89,926.843 2518.61,885.697 2522.34,843.072 2526.06,798.927 2529.79,753.222 2533.51,705.917 2537.24,656.969 2540.96,606.334 2544.69,553.968 2548.41,499.826 2551.47,454.037 2554.53,406.994 2557.58,358.671 2560.64,309.04 2563.7,258.073 2566.75,205.743 2569.81,152.019 2572.87,96.8724 "/>
<path clip-path="url(#clip660)" d="M322.027 209.375 L614.325 209.375 L614.325 105.695 L322.027 105.695  Z" fill="#ffffff" fill-rule="evenodd" fill-opacity="1"/>
<polyline clip-path="url(#clip660)" style="stroke:#000000; stroke-linecap:round; stroke-linejoin:round; stroke-width:4; stroke-opacity:1; fill:none" points="322.027,209.375 614.325,209.375 614.325,105.695 322.027,105.695 322.027,209.375 "/>
<polyline clip-path="url(#clip660)" style="stroke:#009af9; stroke-linecap:round; stroke-linejoin:round; stroke-width:4; stroke-opacity:1; fill:none" points="348.679,157.535 508.591,157.535 "/>
<path clip-path="url(#clip660)" d="M549.086 177.223 Q547.28 181.852 545.567 183.264 Q543.854 184.676 540.984 184.676 L537.581 184.676 L537.581 181.112 L540.081 181.112 Q541.84 181.112 542.812 180.278 Q543.785 179.445 544.965 176.343 L545.729 174.399 L535.243 148.889 L539.757 148.889 L547.859 169.167 L555.961 148.889 L560.474 148.889 L549.086 177.223 Z" fill="#000000" fill-rule="evenodd" fill-opacity="1" /><path clip-path="url(#clip660)" d="M567.766 170.88 L575.405 170.88 L575.405 144.515 L567.095 146.181 L567.095 141.922 L575.359 140.255 L580.034 140.255 L580.034 170.88 L587.673 170.88 L587.673 174.815 L567.766 174.815 L567.766 170.88 Z" fill="#000000" fill-rule="evenodd" fill-opacity="1" /></svg>
