<?xml version="1.0" encoding="utf-8"?>
<svg xmlns="http://www.w3.org/2000/svg" xmlns:xlink="http://www.w3.org/1999/xlink" width="672" height="480" viewBox="0 0 2688 1920">
<defs>
  <clipPath id="clip650">
    <rect x="0" y="0" width="2688" height="1920"/>
  </clipPath>
</defs>
<path clip-path="url(#clip650)" d="
M0 1920 L2688 1920 L2688 0 L0 0  Z
  " fill="#ffffff" fill-rule="evenodd" fill-opacity="1"/>
<defs>
  <clipPath id="clip651">
    <rect x="537" y="0" width="1883" height="1883"/>
  </clipPath>
</defs>
<path clip-path="url(#clip650)" d="
M242.07 1800.78 L2640.76 1800.78 L2640.76 47.2441 L242.07 47.2441  Z
  " fill="#ffffff" fill-rule="evenodd" fill-opacity="1"/>
<defs>
  <clipPath id="clip652">
    <rect x="242" y="47" width="2400" height="1755"/>
  </clipPath>
</defs>
<polyline clip-path="url(#clip652)" style="stroke:#000000; stroke-linecap:butt; stroke-linejoin:round; stroke-width:2; stroke-opacity:0.1; fill:none" points="
  471.594,1800.78 471.594,47.2441 
  "/>
<polyline clip-path="url(#clip652)" style="stroke:#000000; stroke-linecap:butt; stroke-linejoin:round; stroke-width:2; stroke-opacity:0.1; fill:none" points="
  794.867,1800.78 794.867,47.2441 
  "/>
<polyline clip-path="url(#clip652)" style="stroke:#000000; stroke-linecap:butt; stroke-linejoin:round; stroke-width:2; stroke-opacity:0.1; fill:none" points="
  1118.14,1800.78 1118.14,47.2441 
  "/>
<polyline clip-path="url(#clip652)" style="stroke:#000000; stroke-linecap:butt; stroke-linejoin:round; stroke-width:2; stroke-opacity:0.1; fill:none" points="
  1441.41,1800.78 1441.41,47.2441 
  "/>
<polyline clip-path="url(#clip652)" style="stroke:#000000; stroke-linecap:butt; stroke-linejoin:round; stroke-width:2; stroke-opacity:0.1; fill:none" points="
  1764.69,1800.78 1764.69,47.2441 
  "/>
<polyline clip-path="url(#clip652)" style="stroke:#000000; stroke-linecap:butt; stroke-linejoin:round; stroke-width:2; stroke-opacity:0.1; fill:none" points="
  2087.96,1800.78 2087.96,47.2441 
  "/>
<polyline clip-path="url(#clip652)" style="stroke:#000000; stroke-linecap:butt; stroke-linejoin:round; stroke-width:2; stroke-opacity:0.1; fill:none" points="
  2411.23,1800.78 2411.23,47.2441 
  "/>
<polyline clip-path="url(#clip650)" style="stroke:#000000; stroke-linecap:butt; stroke-linejoin:round; stroke-width:4; stroke-opacity:1; fill:none" points="
  242.07,1800.78 2640.76,1800.78 
  "/>
<polyline clip-path="url(#clip650)" style="stroke:#000000; stroke-linecap:butt; stroke-linejoin:round; stroke-width:4; stroke-opacity:1; fill:none" points="
  471.594,1800.78 471.594,1781.88 
  "/>
<polyline clip-path="url(#clip650)" style="stroke:#000000; stroke-linecap:butt; stroke-linejoin:round; stroke-width:4; stroke-opacity:1; fill:none" points="
  794.867,1800.78 794.867,1781.88 
  "/>
<polyline clip-path="url(#clip650)" style="stroke:#000000; stroke-linecap:butt; stroke-linejoin:round; stroke-width:4; stroke-opacity:1; fill:none" points="
  1118.14,1800.78 1118.14,1781.88 
  "/>
<polyline clip-path="url(#clip650)" style="stroke:#000000; stroke-linecap:butt; stroke-linejoin:round; stroke-width:4; stroke-opacity:1; fill:none" points="
  1441.41,1800.78 1441.41,1781.88 
  "/>
<polyline clip-path="url(#clip650)" style="stroke:#000000; stroke-linecap:butt; stroke-linejoin:round; stroke-width:4; stroke-opacity:1; fill:none" points="
  1764.69,1800.78 1764.69,1781.88 
  "/>
<polyline clip-path="url(#clip650)" style="stroke:#000000; stroke-linecap:butt; stroke-linejoin:round; stroke-width:4; stroke-opacity:1; fill:none" points="
  2087.96,1800.78 2087.96,1781.88 
  "/>
<polyline clip-path="url(#clip650)" style="stroke:#000000; stroke-linecap:butt; stroke-linejoin:round; stroke-width:4; stroke-opacity:1; fill:none" points="
  2411.23,1800.78 2411.23,1781.88 
  "/>
<path clip-path="url(#clip650)" d="M440.495 1848.65 L470.171 1848.65 L470.171 1852.59 L440.495 1852.59 L440.495 1848.65 Z" fill="#000000" fill-rule="evenodd" fill-opacity="1" /><path clip-path="url(#clip650)" d="M493.11 1835 L481.305 1853.45 L493.11 1853.45 L493.11 1835 M491.883 1830.92 L497.763 1830.92 L497.763 1853.45 L502.694 1853.45 L502.694 1857.34 L497.763 1857.34 L497.763 1865.48 L493.11 1865.48 L493.11 1857.34 L477.509 1857.34 L477.509 1852.82 L491.883 1830.92 Z" fill="#000000" fill-rule="evenodd" fill-opacity="1" /><path clip-path="url(#clip650)" d="M764.809 1848.65 L794.485 1848.65 L794.485 1852.59 L764.809 1852.59 L764.809 1848.65 Z" fill="#000000" fill-rule="evenodd" fill-opacity="1" /><path clip-path="url(#clip650)" d="M808.606 1861.55 L824.925 1861.55 L824.925 1865.48 L802.981 1865.48 L802.981 1861.55 Q805.643 1858.79 810.226 1854.16 Q814.832 1849.51 816.013 1848.17 Q818.258 1845.65 819.138 1843.91 Q820.041 1842.15 820.041 1840.46 Q820.041 1837.71 818.096 1835.97 Q816.175 1834.23 813.073 1834.23 Q810.874 1834.23 808.42 1835 Q805.99 1835.76 803.212 1837.31 L803.212 1832.59 Q806.036 1831.46 808.49 1830.88 Q810.943 1830.3 812.981 1830.3 Q818.351 1830.3 821.545 1832.98 Q824.74 1835.67 824.74 1840.16 Q824.74 1842.29 823.93 1844.21 Q823.142 1846.11 821.036 1848.7 Q820.457 1849.37 817.355 1852.59 Q814.254 1855.78 808.606 1861.55 Z" fill="#000000" fill-rule="evenodd" fill-opacity="1" /><path clip-path="url(#clip650)" d="M1118.14 1834 Q1114.53 1834 1112.7 1837.57 Q1110.89 1841.11 1110.89 1848.24 Q1110.89 1855.34 1112.7 1858.91 Q1114.53 1862.45 1118.14 1862.45 Q1121.77 1862.45 1123.58 1858.91 Q1125.41 1855.34 1125.41 1848.24 Q1125.41 1841.11 1123.58 1837.57 Q1121.77 1834 1118.14 1834 M1118.14 1830.3 Q1123.95 1830.3 1127.01 1834.9 Q1130.08 1839.49 1130.08 1848.24 Q1130.08 1856.96 1127.01 1861.57 Q1123.95 1866.15 1118.14 1866.15 Q1112.33 1866.15 1109.25 1861.57 Q1106.2 1856.96 1106.2 1848.24 Q1106.2 1839.49 1109.25 1834.9 Q1112.33 1830.3 1118.14 1830.3 Z" fill="#000000" fill-rule="evenodd" fill-opacity="1" /><path clip-path="url(#clip650)" d="M1436.07 1861.55 L1452.39 1861.55 L1452.39 1865.48 L1430.44 1865.48 L1430.44 1861.55 Q1433.1 1858.79 1437.69 1854.16 Q1442.29 1849.51 1443.47 1848.17 Q1445.72 1845.65 1446.6 1843.91 Q1447.5 1842.15 1447.5 1840.46 Q1447.5 1837.71 1445.56 1835.97 Q1443.64 1834.23 1440.53 1834.23 Q1438.33 1834.23 1435.88 1835 Q1433.45 1835.76 1430.67 1837.31 L1430.67 1832.59 Q1433.5 1831.46 1435.95 1830.88 Q1438.4 1830.3 1440.44 1830.3 Q1445.81 1830.3 1449.01 1832.98 Q1452.2 1835.67 1452.2 1840.16 Q1452.2 1842.29 1451.39 1844.21 Q1450.6 1846.11 1448.5 1848.7 Q1447.92 1849.37 1444.82 1852.59 Q1441.71 1855.78 1436.07 1861.55 Z" fill="#000000" fill-rule="evenodd" fill-opacity="1" /><path clip-path="url(#clip650)" d="M1767.7 1835 L1755.89 1853.45 L1767.7 1853.45 L1767.7 1835 M1766.47 1830.92 L1772.35 1830.92 L1772.35 1853.45 L1777.28 1853.45 L1777.28 1857.34 L1772.35 1857.34 L1772.35 1865.48 L1767.7 1865.48 L1767.7 1857.34 L1752.09 1857.34 L1752.09 1852.82 L1766.47 1830.92 Z" fill="#000000" fill-rule="evenodd" fill-opacity="1" /><path clip-path="url(#clip650)" d="M2088.36 1846.34 Q2085.22 1846.34 2083.36 1848.49 Q2081.54 1850.65 2081.54 1854.4 Q2081.54 1858.12 2083.36 1860.3 Q2085.22 1862.45 2088.36 1862.45 Q2091.51 1862.45 2093.34 1860.3 Q2095.19 1858.12 2095.19 1854.4 Q2095.19 1850.65 2093.34 1848.49 Q2091.51 1846.34 2088.36 1846.34 M2097.65 1831.69 L2097.65 1835.95 Q2095.89 1835.11 2094.08 1834.67 Q2092.3 1834.23 2090.54 1834.23 Q2085.91 1834.23 2083.46 1837.36 Q2081.03 1840.48 2080.68 1846.8 Q2082.04 1844.79 2084.1 1843.72 Q2086.17 1842.64 2088.64 1842.64 Q2093.85 1842.64 2096.86 1845.81 Q2099.89 1848.96 2099.89 1854.4 Q2099.89 1859.72 2096.74 1862.94 Q2093.6 1866.15 2088.36 1866.15 Q2082.37 1866.15 2079.2 1861.57 Q2076.03 1856.96 2076.03 1848.24 Q2076.03 1840.04 2079.92 1835.18 Q2083.8 1830.3 2090.35 1830.3 Q2092.11 1830.3 2093.9 1830.65 Q2095.7 1830.99 2097.65 1831.69 Z" fill="#000000" fill-rule="evenodd" fill-opacity="1" /><path clip-path="url(#clip650)" d="M2411.23 1849.07 Q2407.9 1849.07 2405.98 1850.85 Q2404.08 1852.64 2404.08 1855.76 Q2404.08 1858.89 2405.98 1860.67 Q2407.9 1862.45 2411.23 1862.45 Q2414.57 1862.45 2416.49 1860.67 Q2418.41 1858.86 2418.41 1855.76 Q2418.41 1852.64 2416.49 1850.85 Q2414.59 1849.07 2411.23 1849.07 M2406.56 1847.08 Q2403.55 1846.34 2401.86 1844.28 Q2400.19 1842.22 2400.19 1839.26 Q2400.19 1835.11 2403.13 1832.71 Q2406.09 1830.3 2411.23 1830.3 Q2416.39 1830.3 2419.33 1832.71 Q2422.27 1835.11 2422.27 1839.26 Q2422.27 1842.22 2420.58 1844.28 Q2418.92 1846.34 2415.93 1847.08 Q2419.31 1847.87 2421.19 1850.16 Q2423.08 1852.45 2423.08 1855.76 Q2423.08 1860.78 2420.01 1863.47 Q2416.95 1866.15 2411.23 1866.15 Q2405.51 1866.15 2402.44 1863.47 Q2399.38 1860.78 2399.38 1855.76 Q2399.38 1852.45 2401.28 1850.16 Q2403.18 1847.87 2406.56 1847.08 M2404.84 1839.7 Q2404.84 1842.38 2406.51 1843.89 Q2408.2 1845.39 2411.23 1845.39 Q2414.24 1845.39 2415.93 1843.89 Q2417.64 1842.38 2417.64 1839.7 Q2417.64 1837.01 2415.93 1835.51 Q2414.24 1834 2411.23 1834 Q2408.2 1834 2406.51 1835.51 Q2404.84 1837.01 2404.84 1839.7 Z" fill="#000000" fill-rule="evenodd" fill-opacity="1" /><polyline clip-path="url(#clip652)" style="stroke:#000000; stroke-linecap:butt; stroke-linejoin:round; stroke-width:2; stroke-opacity:0.1; fill:none" points="
  242.07,1544.58 2640.76,1544.58 
  "/>
<polyline clip-path="url(#clip652)" style="stroke:#000000; stroke-linecap:butt; stroke-linejoin:round; stroke-width:2; stroke-opacity:0.1; fill:none" points="
  242.07,1259.83 2640.76,1259.83 
  "/>
<polyline clip-path="url(#clip652)" style="stroke:#000000; stroke-linecap:butt; stroke-linejoin:round; stroke-width:2; stroke-opacity:0.1; fill:none" points="
  242.07,975.081 2640.76,975.081 
  "/>
<polyline clip-path="url(#clip652)" style="stroke:#000000; stroke-linecap:butt; stroke-linejoin:round; stroke-width:2; stroke-opacity:0.1; fill:none" points="
  242.07,690.334 2640.76,690.334 
  "/>
<polyline clip-path="url(#clip652)" style="stroke:#000000; stroke-linecap:butt; stroke-linejoin:round; stroke-width:2; stroke-opacity:0.1; fill:none" points="
  242.07,405.586 2640.76,405.586 
  "/>
<polyline clip-path="url(#clip652)" style="stroke:#000000; stroke-linecap:butt; stroke-linejoin:round; stroke-width:2; stroke-opacity:0.1; fill:none" points="
  242.07,120.839 2640.76,120.839 
  "/>
<polyline clip-path="url(#clip650)" style="stroke:#000000; stroke-linecap:butt; stroke-linejoin:round; stroke-width:4; stroke-opacity:1; fill:none" points="
  242.07,1800.78 242.07,47.2441 
  "/>
<polyline clip-path="url(#clip650)" style="stroke:#000000; stroke-linecap:butt; stroke-linejoin:round; stroke-width:4; stroke-opacity:1; fill:none" points="
  242.07,1544.58 260.968,1544.58 
  "/>
<polyline clip-path="url(#clip650)" style="stroke:#000000; stroke-linecap:butt; stroke-linejoin:round; stroke-width:4; stroke-opacity:1; fill:none" points="
  242.07,1259.83 260.968,1259.83 
  "/>
<polyline clip-path="url(#clip650)" style="stroke:#000000; stroke-linecap:butt; stroke-linejoin:round; stroke-width:4; stroke-opacity:1; fill:none" points="
  242.07,975.081 260.968,975.081 
  "/>
<polyline clip-path="url(#clip650)" style="stroke:#000000; stroke-linecap:butt; stroke-linejoin:round; stroke-width:4; stroke-opacity:1; fill:none" points="
  242.07,690.334 260.968,690.334 
  "/>
<polyline clip-path="url(#clip650)" style="stroke:#000000; stroke-linecap:butt; stroke-linejoin:round; stroke-width:4; stroke-opacity:1; fill:none" points="
  242.07,405.586 260.968,405.586 
  "/>
<polyline clip-path="url(#clip650)" style="stroke:#000000; stroke-linecap:butt; stroke-linejoin:round; stroke-width:4; stroke-opacity:1; fill:none" points="
  242.07,120.839 260.968,120.839 
  "/>
<path clip-path="url(#clip650)" d="M49.5521 1545.03 L79.2279 1545.03 L79.2279 1548.96 L49.5521 1548.96 L49.5521 1545.03 Z" fill="#000000" fill-rule="evenodd" fill-opacity="1" /><path clip-path="url(#clip650)" d="M90.1306 1557.92 L97.7695 1557.92 L97.7695 1531.56 L89.4593 1533.22 L89.4593 1528.96 L97.7232 1527.3 L102.399 1527.3 L102.399 1557.92 L110.038 1557.92 L110.038 1561.86 L90.1306 1561.86 L90.1306 1557.92 Z" fill="#000000" fill-rule="evenodd" fill-opacity="1" /><path clip-path="url(#clip650)" d="M129.482 1530.37 Q125.871 1530.37 124.042 1533.94 Q122.237 1537.48 122.237 1544.61 Q122.237 1551.72 124.042 1555.28 Q125.871 1558.82 129.482 1558.82 Q133.116 1558.82 134.922 1555.28 Q136.751 1551.72 136.751 1544.61 Q136.751 1537.48 134.922 1533.94 Q133.116 1530.37 129.482 1530.37 M129.482 1526.67 Q135.292 1526.67 138.348 1531.28 Q141.427 1535.86 141.427 1544.61 Q141.427 1553.34 138.348 1557.94 Q135.292 1562.53 129.482 1562.53 Q123.672 1562.53 120.593 1557.94 Q117.538 1553.34 117.538 1544.61 Q117.538 1535.86 120.593 1531.28 Q123.672 1526.67 129.482 1526.67 Z" fill="#000000" fill-rule="evenodd" fill-opacity="1" /><path clip-path="url(#clip650)" d="M159.644 1530.37 Q156.033 1530.37 154.204 1533.94 Q152.399 1537.48 152.399 1544.61 Q152.399 1551.72 154.204 1555.28 Q156.033 1558.82 159.644 1558.82 Q163.278 1558.82 165.084 1555.28 Q166.913 1551.72 166.913 1544.61 Q166.913 1537.48 165.084 1533.94 Q163.278 1530.37 159.644 1530.37 M159.644 1526.67 Q165.454 1526.67 168.51 1531.28 Q171.589 1535.86 171.589 1544.61 Q171.589 1553.34 168.51 1557.94 Q165.454 1562.53 159.644 1562.53 Q153.834 1562.53 150.755 1557.94 Q147.7 1553.34 147.7 1544.61 Q147.7 1535.86 150.755 1531.28 Q153.834 1526.67 159.644 1526.67 Z" fill="#000000" fill-rule="evenodd" fill-opacity="1" /><path clip-path="url(#clip650)" d="M189.806 1530.37 Q186.195 1530.37 184.366 1533.94 Q182.561 1537.48 182.561 1544.61 Q182.561 1551.72 184.366 1555.28 Q186.195 1558.82 189.806 1558.82 Q193.44 1558.82 195.246 1555.28 Q197.074 1551.72 197.074 1544.61 Q197.074 1537.48 195.246 1533.94 Q193.44 1530.37 189.806 1530.37 M189.806 1526.67 Q195.616 1526.67 198.672 1531.28 Q201.75 1535.86 201.75 1544.61 Q201.75 1553.34 198.672 1557.94 Q195.616 1562.53 189.806 1562.53 Q183.996 1562.53 180.917 1557.94 Q177.862 1553.34 177.862 1544.61 Q177.862 1535.86 180.917 1531.28 Q183.996 1526.67 189.806 1526.67 Z" fill="#000000" fill-rule="evenodd" fill-opacity="1" /><path clip-path="url(#clip650)" d="M79.714 1260.28 L109.39 1260.28 L109.39 1264.22 L79.714 1264.22 L79.714 1260.28 Z" fill="#000000" fill-rule="evenodd" fill-opacity="1" /><path clip-path="url(#clip650)" d="M119.529 1242.55 L137.885 1242.55 L137.885 1246.48 L123.811 1246.48 L123.811 1254.96 Q124.83 1254.61 125.848 1254.45 Q126.867 1254.26 127.885 1254.26 Q133.672 1254.26 137.052 1257.43 Q140.431 1260.6 140.431 1266.02 Q140.431 1271.6 136.959 1274.7 Q133.487 1277.78 127.167 1277.78 Q124.992 1277.78 122.723 1277.41 Q120.478 1277.04 118.07 1276.3 L118.07 1271.6 Q120.154 1272.73 122.376 1273.29 Q124.598 1273.84 127.075 1273.84 Q131.079 1273.84 133.417 1271.74 Q135.755 1269.63 135.755 1266.02 Q135.755 1262.41 133.417 1260.3 Q131.079 1258.2 127.075 1258.2 Q125.2 1258.2 123.325 1258.61 Q121.473 1259.03 119.529 1259.91 L119.529 1242.55 Z" fill="#000000" fill-rule="evenodd" fill-opacity="1" /><path clip-path="url(#clip650)" d="M159.644 1245.63 Q156.033 1245.63 154.204 1249.19 Q152.399 1252.73 152.399 1259.86 Q152.399 1266.97 154.204 1270.53 Q156.033 1274.08 159.644 1274.08 Q163.278 1274.08 165.084 1270.53 Q166.913 1266.97 166.913 1259.86 Q166.913 1252.73 165.084 1249.19 Q163.278 1245.63 159.644 1245.63 M159.644 1241.92 Q165.454 1241.92 168.51 1246.53 Q171.589 1251.11 171.589 1259.86 Q171.589 1268.59 168.51 1273.2 Q165.454 1277.78 159.644 1277.78 Q153.834 1277.78 150.755 1273.2 Q147.7 1268.59 147.7 1259.86 Q147.7 1251.11 150.755 1246.53 Q153.834 1241.92 159.644 1241.92 Z" fill="#000000" fill-rule="evenodd" fill-opacity="1" /><path clip-path="url(#clip650)" d="M189.806 1245.63 Q186.195 1245.63 184.366 1249.19 Q182.561 1252.73 182.561 1259.86 Q182.561 1266.97 184.366 1270.53 Q186.195 1274.08 189.806 1274.08 Q193.44 1274.08 195.246 1270.53 Q197.074 1266.97 197.074 1259.86 Q197.074 1252.73 195.246 1249.19 Q193.44 1245.63 189.806 1245.63 M189.806 1241.92 Q195.616 1241.92 198.672 1246.53 Q201.75 1251.11 201.75 1259.86 Q201.75 1268.59 198.672 1273.2 Q195.616 1277.78 189.806 1277.78 Q183.996 1277.78 180.917 1273.2 Q177.862 1268.59 177.862 1259.86 Q177.862 1251.11 180.917 1246.53 Q183.996 1241.92 189.806 1241.92 Z" fill="#000000" fill-rule="evenodd" fill-opacity="1" /><path clip-path="url(#clip650)" d="M189.806 960.88 Q186.195 960.88 184.366 964.445 Q182.561 967.986 182.561 975.116 Q182.561 982.222 184.366 985.787 Q186.195 989.329 189.806 989.329 Q193.44 989.329 195.246 985.787 Q197.074 982.222 197.074 975.116 Q197.074 967.986 195.246 964.445 Q193.44 960.88 189.806 960.88 M189.806 957.176 Q195.616 957.176 198.672 961.783 Q201.75 966.366 201.75 975.116 Q201.75 983.843 198.672 988.449 Q195.616 993.033 189.806 993.033 Q183.996 993.033 180.917 988.449 Q177.862 983.843 177.862 975.116 Q177.862 966.366 180.917 961.783 Q183.996 957.176 189.806 957.176 Z" fill="#000000" fill-rule="evenodd" fill-opacity="1" /><path clip-path="url(#clip650)" d="M119.529 673.054 L137.885 673.054 L137.885 676.989 L123.811 676.989 L123.811 685.461 Q124.83 685.114 125.848 684.952 Q126.867 684.767 127.885 684.767 Q133.672 684.767 137.052 687.938 Q140.431 691.109 140.431 696.526 Q140.431 702.105 136.959 705.206 Q133.487 708.285 127.167 708.285 Q124.992 708.285 122.723 707.915 Q120.478 707.544 118.07 706.804 L118.07 702.105 Q120.154 703.239 122.376 703.794 Q124.598 704.35 127.075 704.35 Q131.079 704.35 133.417 702.244 Q135.755 700.137 135.755 696.526 Q135.755 692.915 133.417 690.808 Q131.079 688.702 127.075 688.702 Q125.2 688.702 123.325 689.119 Q121.473 689.535 119.529 690.415 L119.529 673.054 Z" fill="#000000" fill-rule="evenodd" fill-opacity="1" /><path clip-path="url(#clip650)" d="M159.644 676.133 Q156.033 676.133 154.204 679.697 Q152.399 683.239 152.399 690.369 Q152.399 697.475 154.204 701.04 Q156.033 704.581 159.644 704.581 Q163.278 704.581 165.084 701.04 Q166.913 697.475 166.913 690.369 Q166.913 683.239 165.084 679.697 Q163.278 676.133 159.644 676.133 M159.644 672.429 Q165.454 672.429 168.51 677.035 Q171.589 681.619 171.589 690.369 Q171.589 699.095 168.51 703.702 Q165.454 708.285 159.644 708.285 Q153.834 708.285 150.755 703.702 Q147.7 699.095 147.7 690.369 Q147.7 681.619 150.755 677.035 Q153.834 672.429 159.644 672.429 Z" fill="#000000" fill-rule="evenodd" fill-opacity="1" /><path clip-path="url(#clip650)" d="M189.806 676.133 Q186.195 676.133 184.366 679.697 Q182.561 683.239 182.561 690.369 Q182.561 697.475 184.366 701.04 Q186.195 704.581 189.806 704.581 Q193.44 704.581 195.246 701.04 Q197.074 697.475 197.074 690.369 Q197.074 683.239 195.246 679.697 Q193.44 676.133 189.806 676.133 M189.806 672.429 Q195.616 672.429 198.672 677.035 Q201.75 681.619 201.75 690.369 Q201.75 699.095 198.672 703.702 Q195.616 708.285 189.806 708.285 Q183.996 708.285 180.917 703.702 Q177.862 699.095 177.862 690.369 Q177.862 681.619 180.917 677.035 Q183.996 672.429 189.806 672.429 Z" fill="#000000" fill-rule="evenodd" fill-opacity="1" /><path clip-path="url(#clip650)" d="M90.1306 418.931 L97.7695 418.931 L97.7695 392.566 L89.4593 394.232 L89.4593 389.973 L97.7232 388.306 L102.399 388.306 L102.399 418.931 L110.038 418.931 L110.038 422.866 L90.1306 422.866 L90.1306 418.931 Z" fill="#000000" fill-rule="evenodd" fill-opacity="1" /><path clip-path="url(#clip650)" d="M129.482 391.385 Q125.871 391.385 124.042 394.95 Q122.237 398.492 122.237 405.621 Q122.237 412.728 124.042 416.292 Q125.871 419.834 129.482 419.834 Q133.116 419.834 134.922 416.292 Q136.751 412.728 136.751 405.621 Q136.751 398.492 134.922 394.95 Q133.116 391.385 129.482 391.385 M129.482 387.681 Q135.292 387.681 138.348 392.288 Q141.427 396.871 141.427 405.621 Q141.427 414.348 138.348 418.954 Q135.292 423.538 129.482 423.538 Q123.672 423.538 120.593 418.954 Q117.538 414.348 117.538 405.621 Q117.538 396.871 120.593 392.288 Q123.672 387.681 129.482 387.681 Z" fill="#000000" fill-rule="evenodd" fill-opacity="1" /><path clip-path="url(#clip650)" d="M159.644 391.385 Q156.033 391.385 154.204 394.95 Q152.399 398.492 152.399 405.621 Q152.399 412.728 154.204 416.292 Q156.033 419.834 159.644 419.834 Q163.278 419.834 165.084 416.292 Q166.913 412.728 166.913 405.621 Q166.913 398.492 165.084 394.95 Q163.278 391.385 159.644 391.385 M159.644 387.681 Q165.454 387.681 168.51 392.288 Q171.589 396.871 171.589 405.621 Q171.589 414.348 168.51 418.954 Q165.454 423.538 159.644 423.538 Q153.834 423.538 150.755 418.954 Q147.7 414.348 147.7 405.621 Q147.7 396.871 150.755 392.288 Q153.834 387.681 159.644 387.681 Z" fill="#000000" fill-rule="evenodd" fill-opacity="1" /><path clip-path="url(#clip650)" d="M189.806 391.385 Q186.195 391.385 184.366 394.95 Q182.561 398.492 182.561 405.621 Q182.561 412.728 184.366 416.292 Q186.195 419.834 189.806 419.834 Q193.44 419.834 195.246 416.292 Q197.074 412.728 197.074 405.621 Q197.074 398.492 195.246 394.95 Q193.44 391.385 189.806 391.385 M189.806 387.681 Q195.616 387.681 198.672 392.288 Q201.75 396.871 201.75 405.621 Q201.75 414.348 198.672 418.954 Q195.616 423.538 189.806 423.538 Q183.996 423.538 180.917 418.954 Q177.862 414.348 177.862 405.621 Q177.862 396.871 180.917 392.288 Q183.996 387.681 189.806 387.681 Z" fill="#000000" fill-rule="evenodd" fill-opacity="1" /><path clip-path="url(#clip650)" d="M90.1306 134.184 L97.7695 134.184 L97.7695 107.818 L89.4593 109.485 L89.4593 105.226 L97.7232 103.559 L102.399 103.559 L102.399 134.184 L110.038 134.184 L110.038 138.119 L90.1306 138.119 L90.1306 134.184 Z" fill="#000000" fill-rule="evenodd" fill-opacity="1" /><path clip-path="url(#clip650)" d="M119.529 103.559 L137.885 103.559 L137.885 107.494 L123.811 107.494 L123.811 115.966 Q124.83 115.619 125.848 115.457 Q126.867 115.272 127.885 115.272 Q133.672 115.272 137.052 118.443 Q140.431 121.614 140.431 127.031 Q140.431 132.61 136.959 135.712 Q133.487 138.79 127.167 138.79 Q124.992 138.79 122.723 138.42 Q120.478 138.05 118.07 137.309 L118.07 132.61 Q120.154 133.744 122.376 134.3 Q124.598 134.855 127.075 134.855 Q131.079 134.855 133.417 132.749 Q135.755 130.642 135.755 127.031 Q135.755 123.42 133.417 121.314 Q131.079 119.207 127.075 119.207 Q125.2 119.207 123.325 119.624 Q121.473 120.04 119.529 120.92 L119.529 103.559 Z" fill="#000000" fill-rule="evenodd" fill-opacity="1" /><path clip-path="url(#clip650)" d="M159.644 106.638 Q156.033 106.638 154.204 110.203 Q152.399 113.744 152.399 120.874 Q152.399 127.98 154.204 131.545 Q156.033 135.087 159.644 135.087 Q163.278 135.087 165.084 131.545 Q166.913 127.98 166.913 120.874 Q166.913 113.744 165.084 110.203 Q163.278 106.638 159.644 106.638 M159.644 102.934 Q165.454 102.934 168.51 107.54 Q171.589 112.124 171.589 120.874 Q171.589 129.601 168.51 134.207 Q165.454 138.79 159.644 138.79 Q153.834 138.79 150.755 134.207 Q147.7 129.601 147.7 120.874 Q147.7 112.124 150.755 107.54 Q153.834 102.934 159.644 102.934 Z" fill="#000000" fill-rule="evenodd" fill-opacity="1" /><path clip-path="url(#clip650)" d="M189.806 106.638 Q186.195 106.638 184.366 110.203 Q182.561 113.744 182.561 120.874 Q182.561 127.98 184.366 131.545 Q186.195 135.087 189.806 135.087 Q193.44 135.087 195.246 131.545 Q197.074 127.98 197.074 120.874 Q197.074 113.744 195.246 110.203 Q193.44 106.638 189.806 106.638 M189.806 102.934 Q195.616 102.934 198.672 107.54 Q201.75 112.124 201.75 120.874 Q201.75 129.601 198.672 134.207 Q195.616 138.79 189.806 138.79 Q183.996 138.79 180.917 134.207 Q177.862 129.601 177.862 120.874 Q177.862 112.124 180.917 107.54 Q183.996 102.934 189.806 102.934 Z" fill="#000000" fill-rule="evenodd" fill-opacity="1" /><polyline clip-path="url(#clip652)" style="stroke:#009af9; stroke-linecap:butt; stroke-linejoin:round; stroke-width:4; stroke-opacity:1; fill:none" points="
  309.958,1331.01 315.483,1321.38 321.007,1311.94 326.532,1302.7 332.057,1293.65 383.142,1218.56 434.226,1157.6 485.311,1108.88 536.396,1070.62 597.795,1036.22 
  659.195,1012.06 711.107,997.936 763.02,988.287 875.803,977.832 979.779,975.145 1091.25,974.6 1220.41,974.1 1335.18,974.752 1435.83,979.515 1545.56,994.912 
  1655.95,1029.01 1716.97,1059.22 1777.99,1099.49 1836.05,1148.36 1894.12,1208.33 1954.49,1282.68 2014.86,1368.37 2065.68,1447.45 2116.5,1529.81 2178.54,1627.6 
  2240.58,1708.73 2269.75,1735.03 2298.91,1749.54 2313.49,1751.15 2328.07,1748.26 2342.65,1740.21 2357.23,1726.32 2380.59,1689.88 2403.95,1632.77 2415.63,1595.16 
  2427.31,1550.74 2438.99,1498.86 2450.67,1438.84 2462.35,1369.92 2474.03,1291.3 2485.71,1202.12 2497.39,1101.43 2509.07,988.224 2520.75,861.419 2532.43,719.84 
  2544.11,562.222 2547.7,510.273 2551.3,456.634 2554.89,401.264 2558.49,344.118 2562.08,285.152 2565.68,224.32 2569.27,161.576 2572.87,96.8724 
  "/>
<path clip-path="url(#clip650)" d="
M2241.85 209.375 L2560.8 209.375 L2560.8 105.695 L2241.85 105.695  Z
  " fill="#ffffff" fill-rule="evenodd" fill-opacity="1"/>
<polyline clip-path="url(#clip650)" style="stroke:#000000; stroke-linecap:butt; stroke-linejoin:round; stroke-width:4; stroke-opacity:1; fill:none" points="
  2241.85,209.375 2560.8,209.375 2560.8,105.695 2241.85,105.695 2241.85,209.375 
  "/>
<polyline clip-path="url(#clip650)" style="stroke:#009af9; stroke-linecap:butt; stroke-linejoin:round; stroke-width:4; stroke-opacity:1; fill:none" points="
  2268.5,157.535 2428.41,157.535 
  "/>
<path clip-path="url(#clip650)" d="M2468.91 177.223 Q2467.1 181.852 2465.39 183.264 Q2463.68 184.676 2460.81 184.676 L2457.4 184.676 L2457.4 181.112 L2459.9 181.112 Q2461.66 181.112 2462.63 180.278 Q2463.61 179.445 2464.79 176.343 L2465.55 174.399 L2455.07 148.889 L2459.58 148.889 L2467.68 169.167 L2475.78 148.889 L2480.3 148.889 L2468.91 177.223 Z" fill="#000000" fill-rule="evenodd" fill-opacity="1" /><path clip-path="url(#clip650)" d="M2487.59 170.88 L2495.23 170.88 L2495.23 144.515 L2486.92 146.181 L2486.92 141.922 L2495.18 140.255 L2499.86 140.255 L2499.86 170.88 L2507.5 170.88 L2507.5 174.815 L2487.59 174.815 L2487.59 170.88 Z" fill="#000000" fill-rule="evenodd" fill-opacity="1" /></svg>
