<?xml version="1.0" encoding="utf-8"?>
<svg xmlns="http://www.w3.org/2000/svg" xmlns:xlink="http://www.w3.org/1999/xlink" width="672" height="480" viewBox="0 0 2688 1920">
<defs>
  <clipPath id="clip600">
    <rect x="0" y="0" width="2688" height="1920"/>
  </clipPath>
</defs>
<path clip-path="url(#clip600)" d="
M0 1920 L2688 1920 L2688 0 L0 0  Z
  " fill="#ffffff" fill-rule="evenodd" fill-opacity="1"/>
<defs>
  <clipPath id="clip601">
    <rect x="537" y="0" width="1883" height="1883"/>
  </clipPath>
</defs>
<path clip-path="url(#clip600)" d="
M181.747 1800.78 L2640.76 1800.78 L2640.76 47.2441 L181.747 47.2441  Z
  " fill="#ffffff" fill-rule="evenodd" fill-opacity="1"/>
<defs>
  <clipPath id="clip602">
    <rect x="181" y="47" width="2460" height="1755"/>
  </clipPath>
</defs>
<polyline clip-path="url(#clip602)" style="stroke:#000000; stroke-linecap:butt; stroke-linejoin:round; stroke-width:2; stroke-opacity:0.1; fill:none" points="
  251.341,1800.78 251.341,47.2441 
  "/>
<polyline clip-path="url(#clip602)" style="stroke:#000000; stroke-linecap:butt; stroke-linejoin:round; stroke-width:2; stroke-opacity:0.1; fill:none" points="
  637.978,1800.78 637.978,47.2441 
  "/>
<polyline clip-path="url(#clip602)" style="stroke:#000000; stroke-linecap:butt; stroke-linejoin:round; stroke-width:2; stroke-opacity:0.1; fill:none" points="
  1024.61,1800.78 1024.61,47.2441 
  "/>
<polyline clip-path="url(#clip602)" style="stroke:#000000; stroke-linecap:butt; stroke-linejoin:round; stroke-width:2; stroke-opacity:0.1; fill:none" points="
  1411.25,1800.78 1411.25,47.2441 
  "/>
<polyline clip-path="url(#clip602)" style="stroke:#000000; stroke-linecap:butt; stroke-linejoin:round; stroke-width:2; stroke-opacity:0.1; fill:none" points="
  1797.89,1800.78 1797.89,47.2441 
  "/>
<polyline clip-path="url(#clip602)" style="stroke:#000000; stroke-linecap:butt; stroke-linejoin:round; stroke-width:2; stroke-opacity:0.1; fill:none" points="
  2184.52,1800.78 2184.52,47.2441 
  "/>
<polyline clip-path="url(#clip602)" style="stroke:#000000; stroke-linecap:butt; stroke-linejoin:round; stroke-width:2; stroke-opacity:0.1; fill:none" points="
  2571.16,1800.78 2571.16,47.2441 
  "/>
<polyline clip-path="url(#clip600)" style="stroke:#000000; stroke-linecap:butt; stroke-linejoin:round; stroke-width:4; stroke-opacity:1; fill:none" points="
  181.747,1800.78 2640.76,1800.78 
  "/>
<polyline clip-path="url(#clip600)" style="stroke:#000000; stroke-linecap:butt; stroke-linejoin:round; stroke-width:4; stroke-opacity:1; fill:none" points="
  251.341,1800.78 251.341,1781.88 
  "/>
<polyline clip-path="url(#clip600)" style="stroke:#000000; stroke-linecap:butt; stroke-linejoin:round; stroke-width:4; stroke-opacity:1; fill:none" points="
  637.978,1800.78 637.978,1781.88 
  "/>
<polyline clip-path="url(#clip600)" style="stroke:#000000; stroke-linecap:butt; stroke-linejoin:round; stroke-width:4; stroke-opacity:1; fill:none" points="
  1024.61,1800.78 1024.61,1781.88 
  "/>
<polyline clip-path="url(#clip600)" style="stroke:#000000; stroke-linecap:butt; stroke-linejoin:round; stroke-width:4; stroke-opacity:1; fill:none" points="
  1411.25,1800.78 1411.25,1781.88 
  "/>
<polyline clip-path="url(#clip600)" style="stroke:#000000; stroke-linecap:butt; stroke-linejoin:round; stroke-width:4; stroke-opacity:1; fill:none" points="
  1797.89,1800.78 1797.89,1781.88 
  "/>
<polyline clip-path="url(#clip600)" style="stroke:#000000; stroke-linecap:butt; stroke-linejoin:round; stroke-width:4; stroke-opacity:1; fill:none" points="
  2184.52,1800.78 2184.52,1781.88 
  "/>
<polyline clip-path="url(#clip600)" style="stroke:#000000; stroke-linecap:butt; stroke-linejoin:round; stroke-width:4; stroke-opacity:1; fill:none" points="
  2571.16,1800.78 2571.16,1781.88 
  "/>
<path clip-path="url(#clip600)" d="M220.809 1848.65 L250.485 1848.65 L250.485 1852.59 L220.809 1852.59 L220.809 1848.65 Z" fill="#000000" fill-rule="evenodd" fill-opacity="1" /><path clip-path="url(#clip600)" d="M274.744 1846.85 Q278.1 1847.57 279.975 1849.84 Q281.873 1852.1 281.873 1855.44 Q281.873 1860.55 278.355 1863.35 Q274.836 1866.15 268.355 1866.15 Q266.179 1866.15 263.864 1865.71 Q261.573 1865.3 259.119 1864.44 L259.119 1859.93 Q261.063 1861.06 263.378 1861.64 Q265.693 1862.22 268.216 1862.22 Q272.614 1862.22 274.906 1860.48 Q277.221 1858.75 277.221 1855.44 Q277.221 1852.38 275.068 1850.67 Q272.938 1848.93 269.119 1848.93 L265.091 1848.93 L265.091 1845.09 L269.304 1845.09 Q272.753 1845.09 274.582 1843.72 Q276.411 1842.34 276.411 1839.74 Q276.411 1837.08 274.512 1835.67 Q272.637 1834.23 269.119 1834.23 Q267.198 1834.23 264.999 1834.65 Q262.8 1835.07 260.161 1835.95 L260.161 1831.78 Q262.823 1831.04 265.137 1830.67 Q267.475 1830.3 269.536 1830.3 Q274.86 1830.3 277.961 1832.73 Q281.063 1835.14 281.063 1839.26 Q281.063 1842.13 279.42 1844.12 Q277.776 1846.09 274.744 1846.85 Z" fill="#000000" fill-rule="evenodd" fill-opacity="1" /><path clip-path="url(#clip600)" d="M607.92 1848.65 L637.596 1848.65 L637.596 1852.59 L607.92 1852.59 L607.92 1848.65 Z" fill="#000000" fill-rule="evenodd" fill-opacity="1" /><path clip-path="url(#clip600)" d="M651.716 1861.55 L668.036 1861.55 L668.036 1865.48 L646.091 1865.48 L646.091 1861.55 Q648.753 1858.79 653.337 1854.16 Q657.943 1849.51 659.124 1848.17 Q661.369 1845.65 662.249 1843.91 Q663.151 1842.15 663.151 1840.46 Q663.151 1837.71 661.207 1835.97 Q659.286 1834.23 656.184 1834.23 Q653.985 1834.23 651.531 1835 Q649.101 1835.76 646.323 1837.31 L646.323 1832.59 Q649.147 1831.46 651.601 1830.88 Q654.054 1830.3 656.091 1830.3 Q661.462 1830.3 664.656 1832.98 Q667.85 1835.67 667.85 1840.16 Q667.85 1842.29 667.04 1844.21 Q666.253 1846.11 664.147 1848.7 Q663.568 1849.37 660.466 1852.59 Q657.364 1855.78 651.716 1861.55 Z" fill="#000000" fill-rule="evenodd" fill-opacity="1" /><path clip-path="url(#clip600)" d="M994.372 1848.65 L1024.05 1848.65 L1024.05 1852.59 L994.372 1852.59 L994.372 1848.65 Z" fill="#000000" fill-rule="evenodd" fill-opacity="1" /><path clip-path="url(#clip600)" d="M1034.95 1861.55 L1042.59 1861.55 L1042.59 1835.18 L1034.28 1836.85 L1034.28 1832.59 L1042.54 1830.92 L1047.22 1830.92 L1047.22 1861.55 L1054.86 1861.55 L1054.86 1865.48 L1034.95 1865.48 L1034.95 1861.55 Z" fill="#000000" fill-rule="evenodd" fill-opacity="1" /><path clip-path="url(#clip600)" d="M1411.25 1834 Q1407.64 1834 1405.81 1837.57 Q1404.01 1841.11 1404.01 1848.24 Q1404.01 1855.34 1405.81 1858.91 Q1407.64 1862.45 1411.25 1862.45 Q1414.89 1862.45 1416.69 1858.91 Q1418.52 1855.34 1418.52 1848.24 Q1418.52 1841.11 1416.69 1837.57 Q1414.89 1834 1411.25 1834 M1411.25 1830.3 Q1417.06 1830.3 1420.12 1834.9 Q1423.2 1839.49 1423.2 1848.24 Q1423.2 1856.96 1420.12 1861.57 Q1417.06 1866.15 1411.25 1866.15 Q1405.44 1866.15 1402.36 1861.57 Q1399.31 1856.96 1399.31 1848.24 Q1399.31 1839.49 1402.36 1834.9 Q1405.44 1830.3 1411.25 1830.3 Z" fill="#000000" fill-rule="evenodd" fill-opacity="1" /><path clip-path="url(#clip600)" d="M1788.27 1861.55 L1795.91 1861.55 L1795.91 1835.18 L1787.6 1836.85 L1787.6 1832.59 L1795.86 1830.92 L1800.54 1830.92 L1800.54 1861.55 L1808.18 1861.55 L1808.18 1865.48 L1788.27 1865.48 L1788.27 1861.55 Z" fill="#000000" fill-rule="evenodd" fill-opacity="1" /><path clip-path="url(#clip600)" d="M2179.18 1861.55 L2195.5 1861.55 L2195.5 1865.48 L2173.55 1865.48 L2173.55 1861.55 Q2176.21 1858.79 2180.8 1854.16 Q2185.4 1849.51 2186.58 1848.17 Q2188.83 1845.65 2189.71 1843.91 Q2190.61 1842.15 2190.61 1840.46 Q2190.61 1837.71 2188.67 1835.97 Q2186.75 1834.23 2183.65 1834.23 Q2181.45 1834.23 2178.99 1835 Q2176.56 1835.76 2173.78 1837.31 L2173.78 1832.59 Q2176.61 1831.46 2179.06 1830.88 Q2181.52 1830.3 2183.55 1830.3 Q2188.92 1830.3 2192.12 1832.98 Q2195.31 1835.67 2195.31 1840.16 Q2195.31 1842.29 2194.5 1844.21 Q2193.71 1846.11 2191.61 1848.7 Q2191.03 1849.37 2187.93 1852.59 Q2184.83 1855.78 2179.18 1861.55 Z" fill="#000000" fill-rule="evenodd" fill-opacity="1" /><path clip-path="url(#clip600)" d="M2575.41 1846.85 Q2578.77 1847.57 2580.64 1849.84 Q2582.54 1852.1 2582.54 1855.44 Q2582.54 1860.55 2579.02 1863.35 Q2575.5 1866.15 2569.02 1866.15 Q2566.84 1866.15 2564.53 1865.71 Q2562.24 1865.3 2559.78 1864.44 L2559.78 1859.93 Q2561.73 1861.06 2564.04 1861.64 Q2566.36 1862.22 2568.88 1862.22 Q2573.28 1862.22 2575.57 1860.48 Q2577.89 1858.75 2577.89 1855.44 Q2577.89 1852.38 2575.73 1850.67 Q2573.6 1848.93 2569.78 1848.93 L2565.76 1848.93 L2565.76 1845.09 L2569.97 1845.09 Q2573.42 1845.09 2575.25 1843.72 Q2577.08 1842.34 2577.08 1839.74 Q2577.08 1837.08 2575.18 1835.67 Q2573.3 1834.23 2569.78 1834.23 Q2567.86 1834.23 2565.66 1834.65 Q2563.46 1835.07 2560.83 1835.95 L2560.83 1831.78 Q2563.49 1831.04 2565.8 1830.67 Q2568.14 1830.3 2570.2 1830.3 Q2575.52 1830.3 2578.63 1832.73 Q2581.73 1835.14 2581.73 1839.26 Q2581.73 1842.13 2580.08 1844.12 Q2578.44 1846.09 2575.41 1846.85 Z" fill="#000000" fill-rule="evenodd" fill-opacity="1" /><polyline clip-path="url(#clip602)" style="stroke:#000000; stroke-linecap:butt; stroke-linejoin:round; stroke-width:2; stroke-opacity:0.1; fill:none" points="
  181.747,1514.83 2640.76,1514.83 
  "/>
<polyline clip-path="url(#clip602)" style="stroke:#000000; stroke-linecap:butt; stroke-linejoin:round; stroke-width:2; stroke-opacity:0.1; fill:none" points="
  181.747,1120.95 2640.76,1120.95 
  "/>
<polyline clip-path="url(#clip602)" style="stroke:#000000; stroke-linecap:butt; stroke-linejoin:round; stroke-width:2; stroke-opacity:0.1; fill:none" points="
  181.747,727.074 2640.76,727.074 
  "/>
<polyline clip-path="url(#clip602)" style="stroke:#000000; stroke-linecap:butt; stroke-linejoin:round; stroke-width:2; stroke-opacity:0.1; fill:none" points="
  181.747,333.198 2640.76,333.198 
  "/>
<polyline clip-path="url(#clip600)" style="stroke:#000000; stroke-linecap:butt; stroke-linejoin:round; stroke-width:4; stroke-opacity:1; fill:none" points="
  181.747,1800.78 181.747,47.2441 
  "/>
<polyline clip-path="url(#clip600)" style="stroke:#000000; stroke-linecap:butt; stroke-linejoin:round; stroke-width:4; stroke-opacity:1; fill:none" points="
  181.747,1514.83 200.644,1514.83 
  "/>
<polyline clip-path="url(#clip600)" style="stroke:#000000; stroke-linecap:butt; stroke-linejoin:round; stroke-width:4; stroke-opacity:1; fill:none" points="
  181.747,1120.95 200.644,1120.95 
  "/>
<polyline clip-path="url(#clip600)" style="stroke:#000000; stroke-linecap:butt; stroke-linejoin:round; stroke-width:4; stroke-opacity:1; fill:none" points="
  181.747,727.074 200.644,727.074 
  "/>
<polyline clip-path="url(#clip600)" style="stroke:#000000; stroke-linecap:butt; stroke-linejoin:round; stroke-width:4; stroke-opacity:1; fill:none" points="
  181.747,333.198 200.644,333.198 
  "/>
<path clip-path="url(#clip600)" d="M49.5521 1515.28 L79.2279 1515.28 L79.2279 1519.21 L49.5521 1519.21 L49.5521 1515.28 Z" fill="#000000" fill-rule="evenodd" fill-opacity="1" /><path clip-path="url(#clip600)" d="M93.3482 1528.17 L109.668 1528.17 L109.668 1532.11 L87.7232 1532.11 L87.7232 1528.17 Q90.3852 1525.42 94.9685 1520.79 Q99.575 1516.13 100.756 1514.79 Q103.001 1512.27 103.881 1510.53 Q104.783 1508.77 104.783 1507.08 Q104.783 1504.33 102.839 1502.59 Q100.918 1500.86 97.8158 1500.86 Q95.6167 1500.86 93.163 1501.62 Q90.7325 1502.38 87.9547 1503.93 L87.9547 1499.21 Q90.7788 1498.08 93.2324 1497.5 Q95.6861 1496.92 97.7232 1496.92 Q103.094 1496.92 106.288 1499.61 Q109.482 1502.29 109.482 1506.78 Q109.482 1508.91 108.672 1510.83 Q107.885 1512.73 105.779 1515.32 Q105.2 1515.99 102.098 1519.21 Q98.9963 1522.41 93.3482 1528.17 Z" fill="#000000" fill-rule="evenodd" fill-opacity="1" /><path clip-path="url(#clip600)" d="M129.482 1500.62 Q125.871 1500.62 124.042 1504.19 Q122.237 1507.73 122.237 1514.86 Q122.237 1521.97 124.042 1525.53 Q125.871 1529.07 129.482 1529.07 Q133.116 1529.07 134.922 1525.53 Q136.751 1521.97 136.751 1514.86 Q136.751 1507.73 134.922 1504.19 Q133.116 1500.62 129.482 1500.62 M129.482 1496.92 Q135.292 1496.92 138.348 1501.53 Q141.427 1506.11 141.427 1514.86 Q141.427 1523.59 138.348 1528.19 Q135.292 1532.78 129.482 1532.78 Q123.672 1532.78 120.593 1528.19 Q117.538 1523.59 117.538 1514.86 Q117.538 1506.11 120.593 1501.53 Q123.672 1496.92 129.482 1496.92 Z" fill="#000000" fill-rule="evenodd" fill-opacity="1" /><path clip-path="url(#clip600)" d="M49.5521 1121.4 L79.2279 1121.4 L79.2279 1125.34 L49.5521 1125.34 L49.5521 1121.4 Z" fill="#000000" fill-rule="evenodd" fill-opacity="1" /><path clip-path="url(#clip600)" d="M90.1306 1134.29 L97.7695 1134.29 L97.7695 1107.93 L89.4593 1109.6 L89.4593 1105.34 L97.7232 1103.67 L102.399 1103.67 L102.399 1134.29 L110.038 1134.29 L110.038 1138.23 L90.1306 1138.23 L90.1306 1134.29 Z" fill="#000000" fill-rule="evenodd" fill-opacity="1" /><path clip-path="url(#clip600)" d="M129.482 1106.75 Q125.871 1106.75 124.042 1110.31 Q122.237 1113.85 122.237 1120.98 Q122.237 1128.09 124.042 1131.66 Q125.871 1135.2 129.482 1135.2 Q133.116 1135.2 134.922 1131.66 Q136.751 1128.09 136.751 1120.98 Q136.751 1113.85 134.922 1110.31 Q133.116 1106.75 129.482 1106.75 M129.482 1103.04 Q135.292 1103.04 138.348 1107.65 Q141.427 1112.23 141.427 1120.98 Q141.427 1129.71 138.348 1134.32 Q135.292 1138.9 129.482 1138.9 Q123.672 1138.9 120.593 1134.32 Q117.538 1129.71 117.538 1120.98 Q117.538 1112.23 120.593 1107.65 Q123.672 1103.04 129.482 1103.04 Z" fill="#000000" fill-rule="evenodd" fill-opacity="1" /><path clip-path="url(#clip600)" d="M129.482 712.872 Q125.871 712.872 124.042 716.437 Q122.237 719.979 122.237 727.109 Q122.237 734.215 124.042 737.78 Q125.871 741.321 129.482 741.321 Q133.116 741.321 134.922 737.78 Q136.751 734.215 136.751 727.109 Q136.751 719.979 134.922 716.437 Q133.116 712.872 129.482 712.872 M129.482 709.169 Q135.292 709.169 138.348 713.775 Q141.427 718.359 141.427 727.109 Q141.427 735.835 138.348 740.442 Q135.292 745.025 129.482 745.025 Q123.672 745.025 120.593 740.442 Q117.538 735.835 117.538 727.109 Q117.538 718.359 120.593 713.775 Q123.672 709.169 129.482 709.169 Z" fill="#000000" fill-rule="evenodd" fill-opacity="1" /><path clip-path="url(#clip600)" d="M90.1306 346.543 L97.7695 346.543 L97.7695 320.177 L89.4593 321.844 L89.4593 317.585 L97.7232 315.918 L102.399 315.918 L102.399 346.543 L110.038 346.543 L110.038 350.478 L90.1306 350.478 L90.1306 346.543 Z" fill="#000000" fill-rule="evenodd" fill-opacity="1" /><path clip-path="url(#clip600)" d="M129.482 318.997 Q125.871 318.997 124.042 322.561 Q122.237 326.103 122.237 333.233 Q122.237 340.339 124.042 343.904 Q125.871 347.446 129.482 347.446 Q133.116 347.446 134.922 343.904 Q136.751 340.339 136.751 333.233 Q136.751 326.103 134.922 322.561 Q133.116 318.997 129.482 318.997 M129.482 315.293 Q135.292 315.293 138.348 319.899 Q141.427 324.483 141.427 333.233 Q141.427 341.959 138.348 346.566 Q135.292 351.149 129.482 351.149 Q123.672 351.149 120.593 346.566 Q117.538 341.959 117.538 333.233 Q117.538 324.483 120.593 319.899 Q123.672 315.293 129.482 315.293 Z" fill="#000000" fill-rule="evenodd" fill-opacity="1" /><polyline clip-path="url(#clip602)" style="stroke:#009af9; stroke-linecap:butt; stroke-linejoin:round; stroke-width:4; stroke-opacity:1; fill:none" points="
  251.341,1751.15 255.117,1741.57 258.893,1732.05 262.669,1722.61 266.445,1713.22 283.901,1670.72 301.357,1629.62 318.814,1589.9 336.27,1551.54 353.727,1514.52 
  371.183,1478.82 388.64,1444.42 406.096,1411.29 427.078,1373.12 448.059,1336.73 469.04,1302.07 490.021,1269.1 507.761,1242.53 525.5,1217.12 543.239,1192.84 
  560.979,1169.69 580.249,1145.77 599.518,1123.12 618.788,1101.7 638.058,1081.48 673.589,1047.26 709.119,1016.84 747.211,988.259 785.303,963.612 807.37,951.048 
  829.437,939.686 851.504,929.482 873.571,920.393 912.791,906.853 952.012,896.448 986.405,889.709 1020.8,885.024 1058.3,882.064 1095.79,881.132 1133.51,882.024 
  1171.23,884.532 1254.64,894.721 1334.01,908.588 1416.52,925.086 1485.99,938.954 1570.79,953.75 1648.48,963.248 1684.36,965.774 1720.23,966.863 1756.57,966.307 
  1792.91,963.887 1833.64,958.715 1874.37,950.679 1911.28,940.692 1948.18,927.92 1990.44,909.613 2032.69,887.078 2052.25,875.128 2071.81,862.174 2091.38,848.187 
  2110.94,833.136 2130.22,817.226 2149.51,800.222 2168.8,782.096 2188.08,762.817 2206.81,742.969 2225.53,721.981 2244.26,699.825 2262.98,676.475 2282.18,651.27 
  2301.37,624.753 2320.57,596.895 2339.76,567.667 2360.79,534.038 2381.83,498.691 2402.86,461.589 2423.89,422.694 2454.44,362.919 2484.99,299.163 2515.54,231.31 
  2546.09,159.242 2552.36,143.926 2558.63,128.426 2564.89,112.742 2571.16,96.8724 
  "/>
<path clip-path="url(#clip600)" d="
M2233.14 209.375 L2558.79 209.375 L2558.79 105.695 L2233.14 105.695  Z
  " fill="#ffffff" fill-rule="evenodd" fill-opacity="1"/>
<polyline clip-path="url(#clip600)" style="stroke:#000000; stroke-linecap:butt; stroke-linejoin:round; stroke-width:4; stroke-opacity:1; fill:none" points="
  2233.14,209.375 2558.79,209.375 2558.79,105.695 2233.14,105.695 2233.14,209.375 
  "/>
<polyline clip-path="url(#clip600)" style="stroke:#009af9; stroke-linecap:butt; stroke-linejoin:round; stroke-width:4; stroke-opacity:1; fill:none" points="
  2260.46,157.535 2424.39,157.535 
  "/>
<path clip-path="url(#clip600)" d="M2465.56 177.223 Q2463.75 181.852 2462.04 183.264 Q2460.33 184.676 2457.45 184.676 L2454.05 184.676 L2454.05 181.112 L2456.55 181.112 Q2458.31 181.112 2459.28 180.278 Q2460.26 179.445 2461.44 176.343 L2462.2 174.399 L2451.71 148.889 L2456.23 148.889 L2464.33 169.167 L2472.43 148.889 L2476.95 148.889 L2465.56 177.223 Z" fill="#000000" fill-rule="evenodd" fill-opacity="1" /><path clip-path="url(#clip600)" d="M2484.24 170.88 L2491.88 170.88 L2491.88 144.515 L2483.57 146.181 L2483.57 141.922 L2491.83 140.255 L2496.51 140.255 L2496.51 170.88 L2504.14 170.88 L2504.14 174.815 L2484.24 174.815 L2484.24 170.88 Z" fill="#000000" fill-rule="evenodd" fill-opacity="1" /></svg>
