<?xml version="1.0" encoding="utf-8"?>
<svg xmlns="http://www.w3.org/2000/svg" xmlns:xlink="http://www.w3.org/1999/xlink" width="672" height="480" viewBox="0 0 2688 1920">
<defs>
  <clipPath id="clip570">
    <rect x="0" y="0" width="2688" height="1920"/>
  </clipPath>
</defs>
<path clip-path="url(#clip570)" d="
M0 1920 L2688 1920 L2688 0 L0 0  Z
  " fill="#ffffff" fill-rule="evenodd" fill-opacity="1"/>
<defs>
  <clipPath id="clip571">
    <rect x="537" y="0" width="1883" height="1883"/>
  </clipPath>
</defs>
<path clip-path="url(#clip570)" d="
M152.071 1800.78 L2640.76 1800.78 L2640.76 47.2441 L152.071 47.2441  Z
  " fill="#ffffff" fill-rule="evenodd" fill-opacity="1"/>
<defs>
  <clipPath id="clip572">
    <rect x="152" y="47" width="2490" height="1755"/>
  </clipPath>
</defs>
<polyline clip-path="url(#clip572)" style="stroke:#000000; stroke-linecap:butt; stroke-linejoin:round; stroke-width:2; stroke-opacity:0.1; fill:none" points="
  222.505,1800.78 222.505,47.2441 
  "/>
<polyline clip-path="url(#clip572)" style="stroke:#000000; stroke-linecap:butt; stroke-linejoin:round; stroke-width:2; stroke-opacity:0.1; fill:none" points="
  1005.11,1800.78 1005.11,47.2441 
  "/>
<polyline clip-path="url(#clip572)" style="stroke:#000000; stroke-linecap:butt; stroke-linejoin:round; stroke-width:2; stroke-opacity:0.1; fill:none" points="
  1787.72,1800.78 1787.72,47.2441 
  "/>
<polyline clip-path="url(#clip572)" style="stroke:#000000; stroke-linecap:butt; stroke-linejoin:round; stroke-width:2; stroke-opacity:0.1; fill:none" points="
  2570.32,1800.78 2570.32,47.2441 
  "/>
<polyline clip-path="url(#clip570)" style="stroke:#000000; stroke-linecap:butt; stroke-linejoin:round; stroke-width:4; stroke-opacity:1; fill:none" points="
  152.071,1800.78 2640.76,1800.78 
  "/>
<polyline clip-path="url(#clip570)" style="stroke:#000000; stroke-linecap:butt; stroke-linejoin:round; stroke-width:4; stroke-opacity:1; fill:none" points="
  222.505,1800.78 222.505,1781.88 
  "/>
<polyline clip-path="url(#clip570)" style="stroke:#000000; stroke-linecap:butt; stroke-linejoin:round; stroke-width:4; stroke-opacity:1; fill:none" points="
  1005.11,1800.78 1005.11,1781.88 
  "/>
<polyline clip-path="url(#clip570)" style="stroke:#000000; stroke-linecap:butt; stroke-linejoin:round; stroke-width:4; stroke-opacity:1; fill:none" points="
  1787.72,1800.78 1787.72,1781.88 
  "/>
<polyline clip-path="url(#clip570)" style="stroke:#000000; stroke-linecap:butt; stroke-linejoin:round; stroke-width:4; stroke-opacity:1; fill:none" points="
  2570.32,1800.78 2570.32,1781.88 
  "/>
<path clip-path="url(#clip570)" d="M192.262 1848.65 L221.938 1848.65 L221.938 1852.59 L192.262 1852.59 L192.262 1848.65 Z" fill="#000000" fill-rule="evenodd" fill-opacity="1" /><path clip-path="url(#clip570)" d="M232.841 1861.55 L240.48 1861.55 L240.48 1835.18 L232.17 1836.85 L232.17 1832.59 L240.433 1830.92 L245.109 1830.92 L245.109 1861.55 L252.748 1861.55 L252.748 1865.48 L232.841 1865.48 L232.841 1861.55 Z" fill="#000000" fill-rule="evenodd" fill-opacity="1" /><path clip-path="url(#clip570)" d="M1005.11 1834 Q1001.5 1834 999.671 1837.57 Q997.865 1841.11 997.865 1848.24 Q997.865 1855.34 999.671 1858.91 Q1001.5 1862.45 1005.11 1862.45 Q1008.74 1862.45 1010.55 1858.91 Q1012.38 1855.34 1012.38 1848.24 Q1012.38 1841.11 1010.55 1837.57 Q1008.74 1834 1005.11 1834 M1005.11 1830.3 Q1010.92 1830.3 1013.98 1834.9 Q1017.06 1839.49 1017.06 1848.24 Q1017.06 1856.96 1013.98 1861.57 Q1010.92 1866.15 1005.11 1866.15 Q999.301 1866.15 996.222 1861.57 Q993.166 1856.96 993.166 1848.24 Q993.166 1839.49 996.222 1834.9 Q999.301 1830.3 1005.11 1830.3 Z" fill="#000000" fill-rule="evenodd" fill-opacity="1" /><path clip-path="url(#clip570)" d="M1778.1 1861.55 L1785.74 1861.55 L1785.74 1835.18 L1777.43 1836.85 L1777.43 1832.59 L1785.69 1830.92 L1790.37 1830.92 L1790.37 1861.55 L1798.01 1861.55 L1798.01 1865.48 L1778.1 1865.48 L1778.1 1861.55 Z" fill="#000000" fill-rule="evenodd" fill-opacity="1" /><path clip-path="url(#clip570)" d="M2564.97 1861.55 L2581.29 1861.55 L2581.29 1865.48 L2559.35 1865.48 L2559.35 1861.55 Q2562.01 1858.79 2566.59 1854.16 Q2571.2 1849.51 2572.38 1848.17 Q2574.63 1845.65 2575.51 1843.91 Q2576.41 1842.15 2576.41 1840.46 Q2576.41 1837.71 2574.46 1835.97 Q2572.54 1834.23 2569.44 1834.23 Q2567.24 1834.23 2564.79 1835 Q2562.36 1835.76 2559.58 1837.31 L2559.58 1832.59 Q2562.4 1831.46 2564.86 1830.88 Q2567.31 1830.3 2569.35 1830.3 Q2574.72 1830.3 2577.91 1832.98 Q2581.11 1835.67 2581.11 1840.16 Q2581.11 1842.29 2580.3 1844.21 Q2579.51 1846.11 2577.4 1848.7 Q2576.83 1849.37 2573.72 1852.59 Q2570.62 1855.78 2564.97 1861.55 Z" fill="#000000" fill-rule="evenodd" fill-opacity="1" /><polyline clip-path="url(#clip572)" style="stroke:#000000; stroke-linecap:butt; stroke-linejoin:round; stroke-width:2; stroke-opacity:0.1; fill:none" points="
  152.071,1757.9 2640.76,1757.9 
  "/>
<polyline clip-path="url(#clip572)" style="stroke:#000000; stroke-linecap:butt; stroke-linejoin:round; stroke-width:2; stroke-opacity:0.1; fill:none" points="
  152.071,1288.9 2640.76,1288.9 
  "/>
<polyline clip-path="url(#clip572)" style="stroke:#000000; stroke-linecap:butt; stroke-linejoin:round; stroke-width:2; stroke-opacity:0.1; fill:none" points="
  152.071,819.892 2640.76,819.892 
  "/>
<polyline clip-path="url(#clip572)" style="stroke:#000000; stroke-linecap:butt; stroke-linejoin:round; stroke-width:2; stroke-opacity:0.1; fill:none" points="
  152.071,350.886 2640.76,350.886 
  "/>
<polyline clip-path="url(#clip570)" style="stroke:#000000; stroke-linecap:butt; stroke-linejoin:round; stroke-width:4; stroke-opacity:1; fill:none" points="
  152.071,1800.78 152.071,47.2441 
  "/>
<polyline clip-path="url(#clip570)" style="stroke:#000000; stroke-linecap:butt; stroke-linejoin:round; stroke-width:4; stroke-opacity:1; fill:none" points="
  152.071,1757.9 170.969,1757.9 
  "/>
<polyline clip-path="url(#clip570)" style="stroke:#000000; stroke-linecap:butt; stroke-linejoin:round; stroke-width:4; stroke-opacity:1; fill:none" points="
  152.071,1288.9 170.969,1288.9 
  "/>
<polyline clip-path="url(#clip570)" style="stroke:#000000; stroke-linecap:butt; stroke-linejoin:round; stroke-width:4; stroke-opacity:1; fill:none" points="
  152.071,819.892 170.969,819.892 
  "/>
<polyline clip-path="url(#clip570)" style="stroke:#000000; stroke-linecap:butt; stroke-linejoin:round; stroke-width:4; stroke-opacity:1; fill:none" points="
  152.071,350.886 170.969,350.886 
  "/>
<path clip-path="url(#clip570)" d="M49.5521 1758.36 L79.2279 1758.36 L79.2279 1762.29 L49.5521 1762.29 L49.5521 1758.36 Z" fill="#000000" fill-rule="evenodd" fill-opacity="1" /><path clip-path="url(#clip570)" d="M102.168 1744.7 L90.3621 1763.15 L102.168 1763.15 L102.168 1744.7 M100.941 1740.62 L106.82 1740.62 L106.82 1763.15 L111.751 1763.15 L111.751 1767.04 L106.82 1767.04 L106.82 1775.18 L102.168 1775.18 L102.168 1767.04 L86.5658 1767.04 L86.5658 1762.52 L100.941 1740.62 Z" fill="#000000" fill-rule="evenodd" fill-opacity="1" /><path clip-path="url(#clip570)" d="M51.6354 1289.35 L81.3112 1289.35 L81.3112 1293.28 L51.6354 1293.28 L51.6354 1289.35 Z" fill="#000000" fill-rule="evenodd" fill-opacity="1" /><path clip-path="url(#clip570)" d="M95.4315 1302.24 L111.751 1302.24 L111.751 1306.18 L89.8065 1306.18 L89.8065 1302.24 Q92.4686 1299.49 97.0519 1294.86 Q101.658 1290.21 102.839 1288.86 Q105.084 1286.34 105.964 1284.6 Q106.867 1282.85 106.867 1281.16 Q106.867 1278.4 104.922 1276.66 Q103.001 1274.93 99.8991 1274.93 Q97.7 1274.93 95.2463 1275.69 Q92.8158 1276.46 90.038 1278.01 L90.038 1273.28 Q92.8621 1272.15 95.3158 1271.57 Q97.7695 1270.99 99.8065 1270.99 Q105.177 1270.99 108.371 1273.68 Q111.566 1276.36 111.566 1280.85 Q111.566 1282.98 110.756 1284.91 Q109.968 1286.8 107.862 1289.4 Q107.283 1290.07 104.181 1293.28 Q101.08 1296.48 95.4315 1302.24 Z" fill="#000000" fill-rule="evenodd" fill-opacity="1" /><path clip-path="url(#clip570)" d="M99.8065 805.691 Q96.1954 805.691 94.3667 809.256 Q92.5612 812.797 92.5612 819.927 Q92.5612 827.033 94.3667 830.598 Q96.1954 834.14 99.8065 834.14 Q103.441 834.14 105.246 830.598 Q107.075 827.033 107.075 819.927 Q107.075 812.797 105.246 809.256 Q103.441 805.691 99.8065 805.691 M99.8065 801.987 Q105.617 801.987 108.672 806.594 Q111.751 811.177 111.751 819.927 Q111.751 828.654 108.672 833.26 Q105.617 837.844 99.8065 837.844 Q93.9963 837.844 90.9176 833.26 Q87.8621 828.654 87.8621 819.927 Q87.8621 811.177 90.9176 806.594 Q93.9963 801.987 99.8065 801.987 Z" fill="#000000" fill-rule="evenodd" fill-opacity="1" /><path clip-path="url(#clip570)" d="M95.4315 364.231 L111.751 364.231 L111.751 368.166 L89.8065 368.166 L89.8065 364.231 Q92.4686 361.477 97.0519 356.847 Q101.658 352.194 102.839 350.852 Q105.084 348.329 105.964 346.592 Q106.867 344.833 106.867 343.143 Q106.867 340.389 104.922 338.653 Q103.001 336.917 99.8991 336.917 Q97.7 336.917 95.2463 337.68 Q92.8158 338.444 90.038 339.995 L90.038 335.273 Q92.8621 334.139 95.3158 333.56 Q97.7695 332.981 99.8065 332.981 Q105.177 332.981 108.371 335.667 Q111.566 338.352 111.566 342.842 Q111.566 344.972 110.756 346.893 Q109.968 348.792 107.862 351.384 Q107.283 352.055 104.181 355.273 Q101.08 358.467 95.4315 364.231 Z" fill="#000000" fill-rule="evenodd" fill-opacity="1" /><polyline clip-path="url(#clip572)" style="stroke:#009af9; stroke-linecap:butt; stroke-linejoin:round; stroke-width:4; stroke-opacity:1; fill:none" points="
  222.505,393.426 245.434,386.849 457.439,547.412 521.143,619.062 584.846,682.552 638.706,726.683 692.567,761.154 751.074,788.047 809.581,805.301 863.52,814.341 
  917.459,818.575 1033.11,819.935 1167.11,828.203 1226.65,841.081 1286.2,862.872 1338.41,890.77 1390.62,927.663 1504.47,1037.52 1619,1166.7 1650.65,1198.26 
  1682.31,1224.64 1713.97,1243.66 1745.62,1252.99 1775.74,1250.72 1805.86,1235.62 1835.98,1205.97 1866.1,1160.47 1897.42,1095.55 1928.74,1012.74 1960.06,913.189 
  1991.37,799.348 2044.1,586.937 2096.83,373.779 2112.92,314.217 2129.01,259.329 2145.1,210.368 2161.2,168.59 2177.29,135.225 2193.38,111.446 2209.48,98.3409 
  2225.57,96.8724 2240.7,106.824 2255.83,128.282 2270.95,161.579 2286.08,206.844 2301.21,263.98 2316.34,332.641 2331.47,412.222 2346.59,501.84 2370.83,663.319 
  2395.07,841.215 2419.3,1027.54 2443.54,1212.82 2455.66,1301.81 2467.77,1386.52 2479.89,1465.57 2492.01,1537.56 2504.13,1601.13 2516.25,1654.99 2528.36,1697.93 
  2540.48,1728.84 2547.94,1741.45 2555.4,1748.95 2562.86,1751.15 2570.32,1747.92 
  "/>
<path clip-path="url(#clip570)" d="
M2228.85 209.375 L2557.8 209.375 L2557.8 105.695 L2228.85 105.695  Z
  " fill="#ffffff" fill-rule="evenodd" fill-opacity="1"/>
<polyline clip-path="url(#clip570)" style="stroke:#000000; stroke-linecap:butt; stroke-linejoin:round; stroke-width:4; stroke-opacity:1; fill:none" points="
  2228.85,209.375 2557.8,209.375 2557.8,105.695 2228.85,105.695 2228.85,209.375 
  "/>
<polyline clip-path="url(#clip570)" style="stroke:#009af9; stroke-linecap:butt; stroke-linejoin:round; stroke-width:4; stroke-opacity:1; fill:none" points="
  2256.5,157.535 2422.41,157.535 
  "/>
<path clip-path="url(#clip570)" d="M2463.91 177.223 Q2462.1 181.852 2460.39 183.264 Q2458.68 184.676 2455.81 184.676 L2452.4 184.676 L2452.4 181.112 L2454.9 181.112 Q2456.66 181.112 2457.63 180.278 Q2458.61 179.445 2459.79 176.343 L2460.55 174.399 L2450.07 148.889 L2454.58 148.889 L2462.68 169.167 L2470.78 148.889 L2475.3 148.889 L2463.91 177.223 Z" fill="#000000" fill-rule="evenodd" fill-opacity="1" /><path clip-path="url(#clip570)" d="M2482.59 170.88 L2490.23 170.88 L2490.23 144.515 L2481.92 146.181 L2481.92 141.922 L2490.18 140.255 L2494.86 140.255 L2494.86 170.88 L2502.5 170.88 L2502.5 174.815 L2482.59 174.815 L2482.59 170.88 Z" fill="#000000" fill-rule="evenodd" fill-opacity="1" /></svg>
