<?xml version="1.0" encoding="utf-8"?>
<svg xmlns="http://www.w3.org/2000/svg" xmlns:xlink="http://www.w3.org/1999/xlink" width="672" height="480" viewBox="0 0 2688 1920">
<defs>
  <clipPath id="clip610">
    <rect x="0" y="0" width="2688" height="1920"/>
  </clipPath>
</defs>
<path clip-path="url(#clip610)" d="
M0 1920 L2688 1920 L2688 0 L0 0  Z
  " fill="#ffffff" fill-rule="evenodd" fill-opacity="1"/>
<defs>
  <clipPath id="clip611">
    <rect x="537" y="0" width="1883" height="1883"/>
  </clipPath>
</defs>
<path clip-path="url(#clip610)" d="
M150.358 1800.78 L2640.76 1800.78 L2640.76 47.2441 L150.358 47.2441  Z
  " fill="#ffffff" fill-rule="evenodd" fill-opacity="1"/>
<defs>
  <clipPath id="clip612">
    <rect x="150" y="47" width="2491" height="1755"/>
  </clipPath>
</defs>
<polyline clip-path="url(#clip612)" style="stroke:#000000; stroke-linecap:butt; stroke-linejoin:round; stroke-width:2; stroke-opacity:0.1; fill:none" points="
  220.841,1800.78 220.841,47.2441 
  "/>
<polyline clip-path="url(#clip612)" style="stroke:#000000; stroke-linecap:butt; stroke-linejoin:round; stroke-width:2; stroke-opacity:0.1; fill:none" points="
  808.199,1800.78 808.199,47.2441 
  "/>
<polyline clip-path="url(#clip612)" style="stroke:#000000; stroke-linecap:butt; stroke-linejoin:round; stroke-width:2; stroke-opacity:0.1; fill:none" points="
  1395.56,1800.78 1395.56,47.2441 
  "/>
<polyline clip-path="url(#clip612)" style="stroke:#000000; stroke-linecap:butt; stroke-linejoin:round; stroke-width:2; stroke-opacity:0.1; fill:none" points="
  1982.91,1800.78 1982.91,47.2441 
  "/>
<polyline clip-path="url(#clip612)" style="stroke:#000000; stroke-linecap:butt; stroke-linejoin:round; stroke-width:2; stroke-opacity:0.1; fill:none" points="
  2570.27,1800.78 2570.27,47.2441 
  "/>
<polyline clip-path="url(#clip610)" style="stroke:#000000; stroke-linecap:butt; stroke-linejoin:round; stroke-width:4; stroke-opacity:1; fill:none" points="
  150.358,1800.78 2640.76,1800.78 
  "/>
<polyline clip-path="url(#clip610)" style="stroke:#000000; stroke-linecap:butt; stroke-linejoin:round; stroke-width:4; stroke-opacity:1; fill:none" points="
  220.841,1800.78 220.841,1781.88 
  "/>
<polyline clip-path="url(#clip610)" style="stroke:#000000; stroke-linecap:butt; stroke-linejoin:round; stroke-width:4; stroke-opacity:1; fill:none" points="
  808.199,1800.78 808.199,1781.88 
  "/>
<polyline clip-path="url(#clip610)" style="stroke:#000000; stroke-linecap:butt; stroke-linejoin:round; stroke-width:4; stroke-opacity:1; fill:none" points="
  1395.56,1800.78 1395.56,1781.88 
  "/>
<polyline clip-path="url(#clip610)" style="stroke:#000000; stroke-linecap:butt; stroke-linejoin:round; stroke-width:4; stroke-opacity:1; fill:none" points="
  1982.91,1800.78 1982.91,1781.88 
  "/>
<polyline clip-path="url(#clip610)" style="stroke:#000000; stroke-linecap:butt; stroke-linejoin:round; stroke-width:4; stroke-opacity:1; fill:none" points="
  2570.27,1800.78 2570.27,1781.88 
  "/>
<path clip-path="url(#clip610)" d="M198.225 1834 Q194.614 1834 192.785 1837.57 Q190.98 1841.11 190.98 1848.24 Q190.98 1855.34 192.785 1858.91 Q194.614 1862.45 198.225 1862.45 Q201.859 1862.45 203.665 1858.91 Q205.494 1855.34 205.494 1848.24 Q205.494 1841.11 203.665 1837.57 Q201.859 1834 198.225 1834 M198.225 1830.3 Q204.035 1830.3 207.091 1834.9 Q210.17 1839.49 210.17 1848.24 Q210.17 1856.96 207.091 1861.57 Q204.035 1866.15 198.225 1866.15 Q192.415 1866.15 189.336 1861.57 Q186.281 1856.96 186.281 1848.24 Q186.281 1839.49 189.336 1834.9 Q192.415 1830.3 198.225 1830.3 Z" fill="#000000" fill-rule="evenodd" fill-opacity="1" /><path clip-path="url(#clip610)" d="M218.387 1859.6 L223.271 1859.6 L223.271 1865.48 L218.387 1865.48 L218.387 1859.6 Z" fill="#000000" fill-rule="evenodd" fill-opacity="1" /><path clip-path="url(#clip610)" d="M243.456 1834 Q239.845 1834 238.017 1837.57 Q236.211 1841.11 236.211 1848.24 Q236.211 1855.34 238.017 1858.91 Q239.845 1862.45 243.456 1862.45 Q247.091 1862.45 248.896 1858.91 Q250.725 1855.34 250.725 1848.24 Q250.725 1841.11 248.896 1837.57 Q247.091 1834 243.456 1834 M243.456 1830.3 Q249.267 1830.3 252.322 1834.9 Q255.401 1839.49 255.401 1848.24 Q255.401 1856.96 252.322 1861.57 Q249.267 1866.15 243.456 1866.15 Q237.646 1866.15 234.568 1861.57 Q231.512 1856.96 231.512 1848.24 Q231.512 1839.49 234.568 1834.9 Q237.646 1830.3 243.456 1830.3 Z" fill="#000000" fill-rule="evenodd" fill-opacity="1" /><path clip-path="url(#clip610)" d="M786.081 1834 Q782.47 1834 780.641 1837.57 Q778.836 1841.11 778.836 1848.24 Q778.836 1855.34 780.641 1858.91 Q782.47 1862.45 786.081 1862.45 Q789.715 1862.45 791.521 1858.91 Q793.349 1855.34 793.349 1848.24 Q793.349 1841.11 791.521 1837.57 Q789.715 1834 786.081 1834 M786.081 1830.3 Q791.891 1830.3 794.947 1834.9 Q798.025 1839.49 798.025 1848.24 Q798.025 1856.96 794.947 1861.57 Q791.891 1866.15 786.081 1866.15 Q780.271 1866.15 777.192 1861.57 Q774.137 1856.96 774.137 1848.24 Q774.137 1839.49 777.192 1834.9 Q780.271 1830.3 786.081 1830.3 Z" fill="#000000" fill-rule="evenodd" fill-opacity="1" /><path clip-path="url(#clip610)" d="M806.243 1859.6 L811.127 1859.6 L811.127 1865.48 L806.243 1865.48 L806.243 1859.6 Z" fill="#000000" fill-rule="evenodd" fill-opacity="1" /><path clip-path="url(#clip610)" d="M821.359 1830.92 L839.715 1830.92 L839.715 1834.86 L825.641 1834.86 L825.641 1843.33 Q826.659 1842.98 827.678 1842.82 Q828.696 1842.64 829.715 1842.64 Q835.502 1842.64 838.882 1845.81 Q842.261 1848.98 842.261 1854.4 Q842.261 1859.97 838.789 1863.08 Q835.317 1866.15 828.997 1866.15 Q826.821 1866.15 824.553 1865.78 Q822.308 1865.41 819.9 1864.67 L819.9 1859.97 Q821.984 1861.11 824.206 1861.66 Q826.428 1862.22 828.905 1862.22 Q832.909 1862.22 835.247 1860.11 Q837.585 1858.01 837.585 1854.4 Q837.585 1850.78 835.247 1848.68 Q832.909 1846.57 828.905 1846.57 Q827.03 1846.57 825.155 1846.99 Q823.303 1847.4 821.359 1848.28 L821.359 1830.92 Z" fill="#000000" fill-rule="evenodd" fill-opacity="1" /><path clip-path="url(#clip610)" d="M1362.71 1861.55 L1370.35 1861.55 L1370.35 1835.18 L1362.04 1836.85 L1362.04 1832.59 L1370.3 1830.92 L1374.98 1830.92 L1374.98 1861.55 L1382.62 1861.55 L1382.62 1865.48 L1362.71 1865.48 L1362.71 1861.55 Z" fill="#000000" fill-rule="evenodd" fill-opacity="1" /><path clip-path="url(#clip610)" d="M1392.06 1859.6 L1396.95 1859.6 L1396.95 1865.48 L1392.06 1865.48 L1392.06 1859.6 Z" fill="#000000" fill-rule="evenodd" fill-opacity="1" /><path clip-path="url(#clip610)" d="M1417.13 1834 Q1413.52 1834 1411.69 1837.57 Q1409.89 1841.11 1409.89 1848.24 Q1409.89 1855.34 1411.69 1858.91 Q1413.52 1862.45 1417.13 1862.45 Q1420.77 1862.45 1422.57 1858.91 Q1424.4 1855.34 1424.4 1848.24 Q1424.4 1841.11 1422.57 1837.57 Q1420.77 1834 1417.13 1834 M1417.13 1830.3 Q1422.94 1830.3 1426 1834.9 Q1429.08 1839.49 1429.08 1848.24 Q1429.08 1856.96 1426 1861.57 Q1422.94 1866.15 1417.13 1866.15 Q1411.32 1866.15 1408.24 1861.57 Q1405.19 1856.96 1405.19 1848.24 Q1405.19 1839.49 1408.24 1834.9 Q1411.32 1830.3 1417.13 1830.3 Z" fill="#000000" fill-rule="evenodd" fill-opacity="1" /><path clip-path="url(#clip610)" d="M1950.57 1861.55 L1958.2 1861.55 L1958.2 1835.18 L1949.89 1836.85 L1949.89 1832.59 L1958.16 1830.92 L1962.83 1830.92 L1962.83 1861.55 L1970.47 1861.55 L1970.47 1865.48 L1950.57 1865.48 L1950.57 1861.55 Z" fill="#000000" fill-rule="evenodd" fill-opacity="1" /><path clip-path="url(#clip610)" d="M1979.92 1859.6 L1984.8 1859.6 L1984.8 1865.48 L1979.92 1865.48 L1979.92 1859.6 Z" fill="#000000" fill-rule="evenodd" fill-opacity="1" /><path clip-path="url(#clip610)" d="M1995.03 1830.92 L2013.39 1830.92 L2013.39 1834.86 L1999.32 1834.86 L1999.32 1843.33 Q2000.33 1842.98 2001.35 1842.82 Q2002.37 1842.64 2003.39 1842.64 Q2009.18 1842.64 2012.56 1845.81 Q2015.94 1848.98 2015.94 1854.4 Q2015.94 1859.97 2012.46 1863.08 Q2008.99 1866.15 2002.67 1866.15 Q2000.5 1866.15 1998.23 1865.78 Q1995.98 1865.41 1993.57 1864.67 L1993.57 1859.97 Q1995.66 1861.11 1997.88 1861.66 Q2000.1 1862.22 2002.58 1862.22 Q2006.58 1862.22 2008.92 1860.11 Q2011.26 1858.01 2011.26 1854.4 Q2011.26 1850.78 2008.92 1848.68 Q2006.58 1846.57 2002.58 1846.57 Q2000.7 1846.57 1998.83 1846.99 Q1996.98 1847.4 1995.03 1848.28 L1995.03 1830.92 Z" fill="#000000" fill-rule="evenodd" fill-opacity="1" /><path clip-path="url(#clip610)" d="M2541.51 1861.55 L2557.83 1861.55 L2557.83 1865.48 L2535.89 1865.48 L2535.89 1861.55 Q2538.55 1858.79 2543.13 1854.16 Q2547.74 1849.51 2548.92 1848.17 Q2551.16 1845.65 2552.04 1843.91 Q2552.95 1842.15 2552.95 1840.46 Q2552.95 1837.71 2551 1835.97 Q2549.08 1834.23 2545.98 1834.23 Q2543.78 1834.23 2541.33 1835 Q2538.9 1835.76 2536.12 1837.31 L2536.12 1832.59 Q2538.94 1831.46 2541.4 1830.88 Q2543.85 1830.3 2545.89 1830.3 Q2551.26 1830.3 2554.45 1832.98 Q2557.65 1835.67 2557.65 1840.16 Q2557.65 1842.29 2556.84 1844.21 Q2556.05 1846.11 2553.94 1848.7 Q2553.36 1849.37 2550.26 1852.59 Q2547.16 1855.78 2541.51 1861.55 Z" fill="#000000" fill-rule="evenodd" fill-opacity="1" /><path clip-path="url(#clip610)" d="M2567.65 1859.6 L2572.53 1859.6 L2572.53 1865.48 L2567.65 1865.48 L2567.65 1859.6 Z" fill="#000000" fill-rule="evenodd" fill-opacity="1" /><path clip-path="url(#clip610)" d="M2592.71 1834 Q2589.1 1834 2587.28 1837.57 Q2585.47 1841.11 2585.47 1848.24 Q2585.47 1855.34 2587.28 1858.91 Q2589.1 1862.45 2592.71 1862.45 Q2596.35 1862.45 2598.15 1858.91 Q2599.98 1855.34 2599.98 1848.24 Q2599.98 1841.11 2598.15 1837.57 Q2596.35 1834 2592.71 1834 M2592.71 1830.3 Q2598.53 1830.3 2601.58 1834.9 Q2604.66 1839.49 2604.66 1848.24 Q2604.66 1856.96 2601.58 1861.57 Q2598.53 1866.15 2592.71 1866.15 Q2586.9 1866.15 2583.83 1861.57 Q2580.77 1856.96 2580.77 1848.24 Q2580.77 1839.49 2583.83 1834.9 Q2586.9 1830.3 2592.71 1830.3 Z" fill="#000000" fill-rule="evenodd" fill-opacity="1" /><polyline clip-path="url(#clip612)" style="stroke:#000000; stroke-linecap:butt; stroke-linejoin:round; stroke-width:2; stroke-opacity:0.1; fill:none" points="
  150.358,1597.29 2640.76,1597.29 
  "/>
<polyline clip-path="url(#clip612)" style="stroke:#000000; stroke-linecap:butt; stroke-linejoin:round; stroke-width:2; stroke-opacity:0.1; fill:none" points="
  150.358,1097.15 2640.76,1097.15 
  "/>
<polyline clip-path="url(#clip612)" style="stroke:#000000; stroke-linecap:butt; stroke-linejoin:round; stroke-width:2; stroke-opacity:0.1; fill:none" points="
  150.358,597.013 2640.76,597.013 
  "/>
<polyline clip-path="url(#clip612)" style="stroke:#000000; stroke-linecap:butt; stroke-linejoin:round; stroke-width:2; stroke-opacity:0.1; fill:none" points="
  150.358,96.8724 2640.76,96.8724 
  "/>
<polyline clip-path="url(#clip610)" style="stroke:#000000; stroke-linecap:butt; stroke-linejoin:round; stroke-width:4; stroke-opacity:1; fill:none" points="
  150.358,1800.78 150.358,47.2441 
  "/>
<polyline clip-path="url(#clip610)" style="stroke:#000000; stroke-linecap:butt; stroke-linejoin:round; stroke-width:4; stroke-opacity:1; fill:none" points="
  150.358,1597.29 169.256,1597.29 
  "/>
<polyline clip-path="url(#clip610)" style="stroke:#000000; stroke-linecap:butt; stroke-linejoin:round; stroke-width:4; stroke-opacity:1; fill:none" points="
  150.358,1097.15 169.256,1097.15 
  "/>
<polyline clip-path="url(#clip610)" style="stroke:#000000; stroke-linecap:butt; stroke-linejoin:round; stroke-width:4; stroke-opacity:1; fill:none" points="
  150.358,597.013 169.256,597.013 
  "/>
<polyline clip-path="url(#clip610)" style="stroke:#000000; stroke-linecap:butt; stroke-linejoin:round; stroke-width:4; stroke-opacity:1; fill:none" points="
  150.358,96.8724 169.256,96.8724 
  "/>
<path clip-path="url(#clip610)" d="M49.5521 1597.74 L79.2279 1597.74 L79.2279 1601.68 L49.5521 1601.68 L49.5521 1597.74 Z" fill="#000000" fill-rule="evenodd" fill-opacity="1" /><path clip-path="url(#clip610)" d="M90.1306 1610.64 L97.7695 1610.64 L97.7695 1584.27 L89.4593 1585.94 L89.4593 1581.68 L97.7232 1580.01 L102.399 1580.01 L102.399 1610.64 L110.038 1610.64 L110.038 1614.57 L90.1306 1614.57 L90.1306 1610.64 Z" fill="#000000" fill-rule="evenodd" fill-opacity="1" /><path clip-path="url(#clip610)" d="M98.0935 1082.95 Q94.4824 1082.95 92.6537 1086.52 Q90.8482 1090.06 90.8482 1097.19 Q90.8482 1104.29 92.6537 1107.86 Q94.4824 1111.4 98.0935 1111.4 Q101.728 1111.4 103.533 1107.86 Q105.362 1104.29 105.362 1097.19 Q105.362 1090.06 103.533 1086.52 Q101.728 1082.95 98.0935 1082.95 M98.0935 1079.25 Q103.904 1079.25 106.959 1083.85 Q110.038 1088.44 110.038 1097.19 Q110.038 1105.91 106.959 1110.52 Q103.904 1115.1 98.0935 1115.1 Q92.2834 1115.1 89.2047 1110.52 Q86.1492 1105.91 86.1492 1097.19 Q86.1492 1088.44 89.2047 1083.85 Q92.2834 1079.25 98.0935 1079.25 Z" fill="#000000" fill-rule="evenodd" fill-opacity="1" /><path clip-path="url(#clip610)" d="M90.1306 610.357 L97.7695 610.357 L97.7695 583.992 L89.4593 585.658 L89.4593 581.399 L97.7232 579.733 L102.399 579.733 L102.399 610.357 L110.038 610.357 L110.038 614.293 L90.1306 614.293 L90.1306 610.357 Z" fill="#000000" fill-rule="evenodd" fill-opacity="1" /><path clip-path="url(#clip610)" d="M93.7186 110.217 L110.038 110.217 L110.038 114.152 L88.0936 114.152 L88.0936 110.217 Q90.7556 107.463 95.3389 102.833 Q99.9454 98.1803 101.126 96.8377 Q103.371 94.3146 104.251 92.5785 Q105.154 90.8192 105.154 89.1294 Q105.154 86.3748 103.209 84.6387 Q101.288 82.9026 98.1861 82.9026 Q95.9871 82.9026 93.5334 83.6665 Q91.1028 84.4304 88.3251 85.9813 L88.3251 81.2591 Q91.1491 80.1249 93.6028 79.5462 Q96.0565 78.9675 98.0935 78.9675 Q103.464 78.9675 106.658 81.6526 Q109.853 84.3378 109.853 88.8285 Q109.853 90.9581 109.043 92.8794 Q108.256 94.7776 106.149 97.3701 Q105.57 98.0414 102.469 101.259 Q99.3667 104.453 93.7186 110.217 Z" fill="#000000" fill-rule="evenodd" fill-opacity="1" /><polyline clip-path="url(#clip612)" style="stroke:#009af9; stroke-linecap:butt; stroke-linejoin:round; stroke-width:4; stroke-opacity:1; fill:none" points="
  220.841,1597.29 226.577,1610.12 232.313,1619.4 238.049,1627.3 243.785,1634.3 296.823,1678.47 349.861,1705.03 402.899,1722.8 455.937,1734.97 519.684,1744.37 
  583.431,1749.48 637.328,1751.15 691.226,1750.75 808.321,1743.77 916.273,1730.74 1032.01,1710.14 1166.1,1677.53 1285.26,1640.04 1389.76,1599.75 1503.69,1546.81 
  1618.29,1482.55 1745.01,1396.24 1865.57,1296.25 1928.25,1236.16 1990.93,1169.75 2043.69,1108.45 2096.45,1041.72 2160.87,952.161 2225.28,852.741 2285.84,749.26 
  2346.39,634.967 2394.9,534.805 2443.4,426.244 2491.91,308.529 2540.41,180.833 2547.88,160.238 2555.34,139.382 2562.81,118.262 2570.27,96.8724 
  "/>
<polyline clip-path="url(#clip612)" style="stroke:#e26f46; stroke-linecap:butt; stroke-linejoin:round; stroke-width:4; stroke-opacity:1; fill:none" points="
  220.841,1097.15 243.785,1097.15 455.937,1097.15 583.431,1097.15 691.226,1097.15 808.321,1097.15 916.273,1097.15 1032.01,1097.15 1166.1,1097.15 1285.26,1097.15 
  1389.76,1097.15 1503.69,1097.15 1618.29,1097.15 1745.01,1097.15 1865.57,1097.15 1990.93,1097.15 2096.45,1097.15 2225.28,1097.15 2346.39,1097.15 2540.41,1097.15 
  2570.27,1097.15 
  "/>
<path clip-path="url(#clip610)" d="
M2228.6 261.215 L2557.74 261.215 L2557.74 105.695 L2228.6 105.695  Z
  " fill="#ffffff" fill-rule="evenodd" fill-opacity="1"/>
<polyline clip-path="url(#clip610)" style="stroke:#000000; stroke-linecap:butt; stroke-linejoin:round; stroke-width:4; stroke-opacity:1; fill:none" points="
  2228.6,261.215 2557.74,261.215 2557.74,105.695 2228.6,105.695 2228.6,261.215 
  "/>
<polyline clip-path="url(#clip610)" style="stroke:#009af9; stroke-linecap:butt; stroke-linejoin:round; stroke-width:4; stroke-opacity:1; fill:none" points="
  2256.27,157.535 2422.3,157.535 
  "/>
<path clip-path="url(#clip610)" d="M2463.81 177.223 Q2462.01 181.852 2460.29 183.264 Q2458.58 184.676 2455.71 184.676 L2452.31 184.676 L2452.31 181.112 L2454.81 181.112 Q2456.57 181.112 2457.54 180.278 Q2458.51 179.445 2459.69 176.343 L2460.46 174.399 L2449.97 148.889 L2454.48 148.889 L2462.59 169.167 L2470.69 148.889 L2475.2 148.889 L2463.81 177.223 Z" fill="#000000" fill-rule="evenodd" fill-opacity="1" /><path clip-path="url(#clip610)" d="M2482.49 170.88 L2490.13 170.88 L2490.13 144.515 L2481.82 146.181 L2481.82 141.922 L2490.09 140.255 L2494.76 140.255 L2494.76 170.88 L2502.4 170.88 L2502.4 174.815 L2482.49 174.815 L2482.49 170.88 Z" fill="#000000" fill-rule="evenodd" fill-opacity="1" /><polyline clip-path="url(#clip610)" style="stroke:#e26f46; stroke-linecap:butt; stroke-linejoin:round; stroke-width:4; stroke-opacity:1; fill:none" points="
  2256.27,209.375 2422.3,209.375 
  "/>
<path clip-path="url(#clip610)" d="M2463.81 229.063 Q2462.01 233.692 2460.29 235.104 Q2458.58 236.516 2455.71 236.516 L2452.31 236.516 L2452.31 232.952 L2454.81 232.952 Q2456.57 232.952 2457.54 232.118 Q2458.51 231.285 2459.69 228.183 L2460.46 226.239 L2449.97 200.729 L2454.48 200.729 L2462.59 221.007 L2470.69 200.729 L2475.2 200.729 L2463.81 229.063 Z" fill="#000000" fill-rule="evenodd" fill-opacity="1" /><path clip-path="url(#clip610)" d="M2485.71 222.72 L2502.03 222.72 L2502.03 226.655 L2480.09 226.655 L2480.09 222.72 Q2482.75 219.965 2487.33 215.336 Q2491.94 210.683 2493.12 209.341 Q2495.36 206.817 2496.24 205.081 Q2497.15 203.322 2497.15 201.632 Q2497.15 198.878 2495.2 197.142 Q2493.28 195.405 2490.18 195.405 Q2487.98 195.405 2485.53 196.169 Q2483.1 196.933 2480.32 198.484 L2480.32 193.762 Q2483.14 192.628 2485.59 192.049 Q2488.05 191.47 2490.09 191.47 Q2495.46 191.47 2498.65 194.155 Q2501.84 196.841 2501.84 201.331 Q2501.84 203.461 2501.03 205.382 Q2500.25 207.28 2498.14 209.873 Q2497.56 210.544 2494.46 213.762 Q2491.36 216.956 2485.71 222.72 Z" fill="#000000" fill-rule="evenodd" fill-opacity="1" /></svg>
