<?xml version="1.0" encoding="utf-8"?>
<svg xmlns="http://www.w3.org/2000/svg" xmlns:xlink="http://www.w3.org/1999/xlink" width="672" height="480" viewBox="0 0 2688 1920">
<defs>
  <clipPath id="clip640">
    <rect x="0" y="0" width="2688" height="1920"/>
  </clipPath>
</defs>
<path clip-path="url(#clip640)" d="
M0 1920 L2688 1920 L2688 0 L0 0  Z
  " fill="#ffffff" fill-rule="evenodd" fill-opacity="1"/>
<defs>
  <clipPath id="clip641">
    <rect x="537" y="0" width="1883" height="1883"/>
  </clipPath>
</defs>
<path clip-path="url(#clip640)" d="
M150.589 1800.78 L2640.76 1800.78 L2640.76 47.2441 L150.589 47.2441  Z
  " fill="#ffffff" fill-rule="evenodd" fill-opacity="1"/>
<defs>
  <clipPath id="clip642">
    <rect x="150" y="47" width="2491" height="1755"/>
  </clipPath>
</defs>
<polyline clip-path="url(#clip642)" style="stroke:#000000; stroke-linecap:butt; stroke-linejoin:round; stroke-width:2; stroke-opacity:0.1; fill:none" points="
  221.066,1800.78 221.066,47.2441 
  "/>
<polyline clip-path="url(#clip642)" style="stroke:#000000; stroke-linecap:butt; stroke-linejoin:round; stroke-width:2; stroke-opacity:0.1; fill:none" points="
  808.369,1800.78 808.369,47.2441 
  "/>
<polyline clip-path="url(#clip642)" style="stroke:#000000; stroke-linecap:butt; stroke-linejoin:round; stroke-width:2; stroke-opacity:0.1; fill:none" points="
  1395.67,1800.78 1395.67,47.2441 
  "/>
<polyline clip-path="url(#clip642)" style="stroke:#000000; stroke-linecap:butt; stroke-linejoin:round; stroke-width:2; stroke-opacity:0.1; fill:none" points="
  1982.98,1800.78 1982.98,47.2441 
  "/>
<polyline clip-path="url(#clip642)" style="stroke:#000000; stroke-linecap:butt; stroke-linejoin:round; stroke-width:2; stroke-opacity:0.1; fill:none" points="
  2570.28,1800.78 2570.28,47.2441 
  "/>
<polyline clip-path="url(#clip640)" style="stroke:#000000; stroke-linecap:butt; stroke-linejoin:round; stroke-width:4; stroke-opacity:1; fill:none" points="
  150.589,1800.78 2640.76,1800.78 
  "/>
<polyline clip-path="url(#clip640)" style="stroke:#000000; stroke-linecap:butt; stroke-linejoin:round; stroke-width:4; stroke-opacity:1; fill:none" points="
  221.066,1800.78 221.066,1781.88 
  "/>
<polyline clip-path="url(#clip640)" style="stroke:#000000; stroke-linecap:butt; stroke-linejoin:round; stroke-width:4; stroke-opacity:1; fill:none" points="
  808.369,1800.78 808.369,1781.88 
  "/>
<polyline clip-path="url(#clip640)" style="stroke:#000000; stroke-linecap:butt; stroke-linejoin:round; stroke-width:4; stroke-opacity:1; fill:none" points="
  1395.67,1800.78 1395.67,1781.88 
  "/>
<polyline clip-path="url(#clip640)" style="stroke:#000000; stroke-linecap:butt; stroke-linejoin:round; stroke-width:4; stroke-opacity:1; fill:none" points="
  1982.98,1800.78 1982.98,1781.88 
  "/>
<polyline clip-path="url(#clip640)" style="stroke:#000000; stroke-linecap:butt; stroke-linejoin:round; stroke-width:4; stroke-opacity:1; fill:none" points="
  2570.28,1800.78 2570.28,1781.88 
  "/>
<path clip-path="url(#clip640)" d="M188.219 1861.55 L195.858 1861.55 L195.858 1835.18 L187.547 1836.85 L187.547 1832.59 L195.811 1830.92 L200.487 1830.92 L200.487 1861.55 L208.126 1861.55 L208.126 1865.48 L188.219 1865.48 L188.219 1861.55 Z" fill="#000000" fill-rule="evenodd" fill-opacity="1" /><path clip-path="url(#clip640)" d="M217.57 1859.6 L222.455 1859.6 L222.455 1865.48 L217.57 1865.48 L217.57 1859.6 Z" fill="#000000" fill-rule="evenodd" fill-opacity="1" /><path clip-path="url(#clip640)" d="M242.64 1834 Q239.029 1834 237.2 1837.57 Q235.394 1841.11 235.394 1848.24 Q235.394 1855.34 237.2 1858.91 Q239.029 1862.45 242.64 1862.45 Q246.274 1862.45 248.08 1858.91 Q249.908 1855.34 249.908 1848.24 Q249.908 1841.11 248.08 1837.57 Q246.274 1834 242.64 1834 M242.64 1830.3 Q248.45 1830.3 251.505 1834.9 Q254.584 1839.49 254.584 1848.24 Q254.584 1856.96 251.505 1861.57 Q248.45 1866.15 242.64 1866.15 Q236.83 1866.15 233.751 1861.57 Q230.695 1856.96 230.695 1848.24 Q230.695 1839.49 233.751 1834.9 Q236.83 1830.3 242.64 1830.3 Z" fill="#000000" fill-rule="evenodd" fill-opacity="1" /><path clip-path="url(#clip640)" d="M776.02 1861.55 L783.659 1861.55 L783.659 1835.18 L775.349 1836.85 L775.349 1832.59 L783.612 1830.92 L788.288 1830.92 L788.288 1861.55 L795.927 1861.55 L795.927 1865.48 L776.02 1865.48 L776.02 1861.55 Z" fill="#000000" fill-rule="evenodd" fill-opacity="1" /><path clip-path="url(#clip640)" d="M805.372 1859.6 L810.256 1859.6 L810.256 1865.48 L805.372 1865.48 L805.372 1859.6 Z" fill="#000000" fill-rule="evenodd" fill-opacity="1" /><path clip-path="url(#clip640)" d="M820.487 1830.92 L838.844 1830.92 L838.844 1834.86 L824.77 1834.86 L824.77 1843.33 Q825.788 1842.98 826.807 1842.82 Q827.825 1842.64 828.844 1842.64 Q834.631 1842.64 838.01 1845.81 Q841.39 1848.98 841.39 1854.4 Q841.39 1859.97 837.918 1863.08 Q834.445 1866.15 828.126 1866.15 Q825.95 1866.15 823.682 1865.78 Q821.436 1865.41 819.029 1864.67 L819.029 1859.97 Q821.112 1861.11 823.334 1861.66 Q825.557 1862.22 828.033 1862.22 Q832.038 1862.22 834.376 1860.11 Q836.714 1858.01 836.714 1854.4 Q836.714 1850.78 834.376 1848.68 Q832.038 1846.57 828.033 1846.57 Q826.158 1846.57 824.283 1846.99 Q822.432 1847.4 820.487 1848.28 L820.487 1830.92 Z" fill="#000000" fill-rule="evenodd" fill-opacity="1" /><path clip-path="url(#clip640)" d="M1366.91 1861.55 L1383.23 1861.55 L1383.23 1865.48 L1361.29 1865.48 L1361.29 1861.55 Q1363.95 1858.79 1368.53 1854.16 Q1373.14 1849.51 1374.32 1848.17 Q1376.56 1845.65 1377.44 1843.91 Q1378.35 1842.15 1378.35 1840.46 Q1378.35 1837.71 1376.4 1835.97 Q1374.48 1834.23 1371.38 1834.23 Q1369.18 1834.23 1366.73 1835 Q1364.3 1835.76 1361.52 1837.31 L1361.52 1832.59 Q1364.34 1831.46 1366.8 1830.88 Q1369.25 1830.3 1371.29 1830.3 Q1376.66 1830.3 1379.85 1832.98 Q1383.05 1835.67 1383.05 1840.16 Q1383.05 1842.29 1382.24 1844.21 Q1381.45 1846.11 1379.34 1848.7 Q1378.76 1849.37 1375.66 1852.59 Q1372.56 1855.78 1366.91 1861.55 Z" fill="#000000" fill-rule="evenodd" fill-opacity="1" /><path clip-path="url(#clip640)" d="M1393.05 1859.6 L1397.93 1859.6 L1397.93 1865.48 L1393.05 1865.48 L1393.05 1859.6 Z" fill="#000000" fill-rule="evenodd" fill-opacity="1" /><path clip-path="url(#clip640)" d="M1418.11 1834 Q1414.5 1834 1412.67 1837.57 Q1410.87 1841.11 1410.87 1848.24 Q1410.87 1855.34 1412.67 1858.91 Q1414.5 1862.45 1418.11 1862.45 Q1421.75 1862.45 1423.55 1858.91 Q1425.38 1855.34 1425.38 1848.24 Q1425.38 1841.11 1423.55 1837.57 Q1421.75 1834 1418.11 1834 M1418.11 1830.3 Q1423.92 1830.3 1426.98 1834.9 Q1430.06 1839.49 1430.06 1848.24 Q1430.06 1856.96 1426.98 1861.57 Q1423.92 1866.15 1418.11 1866.15 Q1412.3 1866.15 1409.23 1861.57 Q1406.17 1856.96 1406.17 1848.24 Q1406.17 1839.49 1409.23 1834.9 Q1412.3 1830.3 1418.11 1830.3 Z" fill="#000000" fill-rule="evenodd" fill-opacity="1" /><path clip-path="url(#clip640)" d="M1954.71 1861.55 L1971.03 1861.55 L1971.03 1865.48 L1949.09 1865.48 L1949.09 1861.55 Q1951.75 1858.79 1956.33 1854.16 Q1960.94 1849.51 1962.12 1848.17 Q1964.37 1845.65 1965.24 1843.91 Q1966.15 1842.15 1966.15 1840.46 Q1966.15 1837.71 1964.2 1835.97 Q1962.28 1834.23 1959.18 1834.23 Q1956.98 1834.23 1954.53 1835 Q1952.1 1835.76 1949.32 1837.31 L1949.32 1832.59 Q1952.14 1831.46 1954.6 1830.88 Q1957.05 1830.3 1959.09 1830.3 Q1964.46 1830.3 1967.65 1832.98 Q1970.85 1835.67 1970.85 1840.16 Q1970.85 1842.29 1970.04 1844.21 Q1969.25 1846.11 1967.14 1848.7 Q1966.56 1849.37 1963.46 1852.59 Q1960.36 1855.78 1954.71 1861.55 Z" fill="#000000" fill-rule="evenodd" fill-opacity="1" /><path clip-path="url(#clip640)" d="M1980.85 1859.6 L1985.73 1859.6 L1985.73 1865.48 L1980.85 1865.48 L1980.85 1859.6 Z" fill="#000000" fill-rule="evenodd" fill-opacity="1" /><path clip-path="url(#clip640)" d="M1995.96 1830.92 L2014.32 1830.92 L2014.32 1834.86 L2000.24 1834.86 L2000.24 1843.33 Q2001.26 1842.98 2002.28 1842.82 Q2003.3 1842.64 2004.32 1842.64 Q2010.11 1842.64 2013.49 1845.81 Q2016.86 1848.98 2016.86 1854.4 Q2016.86 1859.97 2013.39 1863.08 Q2009.92 1866.15 2003.6 1866.15 Q2001.43 1866.15 1999.16 1865.78 Q1996.91 1865.41 1994.5 1864.67 L1994.5 1859.97 Q1996.59 1861.11 1998.81 1861.66 Q2001.03 1862.22 2003.51 1862.22 Q2007.51 1862.22 2009.85 1860.11 Q2012.19 1858.01 2012.19 1854.4 Q2012.19 1850.78 2009.85 1848.68 Q2007.51 1846.57 2003.51 1846.57 Q2001.63 1846.57 1999.76 1846.99 Q1997.91 1847.4 1995.96 1848.28 L1995.96 1830.92 Z" fill="#000000" fill-rule="evenodd" fill-opacity="1" /><path clip-path="url(#clip640)" d="M2551.59 1846.85 Q2554.94 1847.57 2556.82 1849.84 Q2558.72 1852.1 2558.72 1855.44 Q2558.72 1860.55 2555.2 1863.35 Q2551.68 1866.15 2545.2 1866.15 Q2543.02 1866.15 2540.71 1865.71 Q2538.42 1865.3 2535.96 1864.44 L2535.96 1859.93 Q2537.91 1861.06 2540.22 1861.64 Q2542.54 1862.22 2545.06 1862.22 Q2549.46 1862.22 2551.75 1860.48 Q2554.06 1858.75 2554.06 1855.44 Q2554.06 1852.38 2551.91 1850.67 Q2549.78 1848.93 2545.96 1848.93 L2541.93 1848.93 L2541.93 1845.09 L2546.15 1845.09 Q2549.6 1845.09 2551.43 1843.72 Q2553.25 1842.34 2553.25 1839.74 Q2553.25 1837.08 2551.36 1835.67 Q2549.48 1834.23 2545.96 1834.23 Q2544.04 1834.23 2541.84 1834.65 Q2539.64 1835.07 2537 1835.95 L2537 1831.78 Q2539.67 1831.04 2541.98 1830.67 Q2544.32 1830.3 2546.38 1830.3 Q2551.7 1830.3 2554.81 1832.73 Q2557.91 1835.14 2557.91 1839.26 Q2557.91 1842.13 2556.26 1844.12 Q2554.62 1846.09 2551.59 1846.85 Z" fill="#000000" fill-rule="evenodd" fill-opacity="1" /><path clip-path="url(#clip640)" d="M2567.58 1859.6 L2572.47 1859.6 L2572.47 1865.48 L2567.58 1865.48 L2567.58 1859.6 Z" fill="#000000" fill-rule="evenodd" fill-opacity="1" /><path clip-path="url(#clip640)" d="M2592.65 1834 Q2589.04 1834 2587.21 1837.57 Q2585.41 1841.11 2585.41 1848.24 Q2585.41 1855.34 2587.21 1858.91 Q2589.04 1862.45 2592.65 1862.45 Q2596.29 1862.45 2598.09 1858.91 Q2599.92 1855.34 2599.92 1848.24 Q2599.92 1841.11 2598.09 1837.57 Q2596.29 1834 2592.65 1834 M2592.65 1830.3 Q2598.46 1830.3 2601.52 1834.9 Q2604.6 1839.49 2604.6 1848.24 Q2604.6 1856.96 2601.52 1861.57 Q2598.46 1866.15 2592.65 1866.15 Q2586.84 1866.15 2583.76 1861.57 Q2580.71 1856.96 2580.71 1848.24 Q2580.71 1839.49 2583.76 1834.9 Q2586.84 1830.3 2592.65 1830.3 Z" fill="#000000" fill-rule="evenodd" fill-opacity="1" /><polyline clip-path="url(#clip642)" style="stroke:#000000; stroke-linecap:butt; stroke-linejoin:round; stroke-width:2; stroke-opacity:0.1; fill:none" points="
  150.589,1675.96 2640.76,1675.96 
  "/>
<polyline clip-path="url(#clip642)" style="stroke:#000000; stroke-linecap:butt; stroke-linejoin:round; stroke-width:2; stroke-opacity:0.1; fill:none" points="
  150.589,1299.98 2640.76,1299.98 
  "/>
<polyline clip-path="url(#clip642)" style="stroke:#000000; stroke-linecap:butt; stroke-linejoin:round; stroke-width:2; stroke-opacity:0.1; fill:none" points="
  150.589,924.012 2640.76,924.012 
  "/>
<polyline clip-path="url(#clip642)" style="stroke:#000000; stroke-linecap:butt; stroke-linejoin:round; stroke-width:2; stroke-opacity:0.1; fill:none" points="
  150.589,548.039 2640.76,548.039 
  "/>
<polyline clip-path="url(#clip642)" style="stroke:#000000; stroke-linecap:butt; stroke-linejoin:round; stroke-width:2; stroke-opacity:0.1; fill:none" points="
  150.589,172.067 2640.76,172.067 
  "/>
<polyline clip-path="url(#clip640)" style="stroke:#000000; stroke-linecap:butt; stroke-linejoin:round; stroke-width:4; stroke-opacity:1; fill:none" points="
  150.589,1800.78 150.589,47.2441 
  "/>
<polyline clip-path="url(#clip640)" style="stroke:#000000; stroke-linecap:butt; stroke-linejoin:round; stroke-width:4; stroke-opacity:1; fill:none" points="
  150.589,1675.96 169.487,1675.96 
  "/>
<polyline clip-path="url(#clip640)" style="stroke:#000000; stroke-linecap:butt; stroke-linejoin:round; stroke-width:4; stroke-opacity:1; fill:none" points="
  150.589,1299.98 169.487,1299.98 
  "/>
<polyline clip-path="url(#clip640)" style="stroke:#000000; stroke-linecap:butt; stroke-linejoin:round; stroke-width:4; stroke-opacity:1; fill:none" points="
  150.589,924.012 169.487,924.012 
  "/>
<polyline clip-path="url(#clip640)" style="stroke:#000000; stroke-linecap:butt; stroke-linejoin:round; stroke-width:4; stroke-opacity:1; fill:none" points="
  150.589,548.039 169.487,548.039 
  "/>
<polyline clip-path="url(#clip640)" style="stroke:#000000; stroke-linecap:butt; stroke-linejoin:round; stroke-width:4; stroke-opacity:1; fill:none" points="
  150.589,172.067 169.487,172.067 
  "/>
<path clip-path="url(#clip640)" d="M49.5521 1676.41 L79.2279 1676.41 L79.2279 1680.34 L49.5521 1680.34 L49.5521 1676.41 Z" fill="#000000" fill-rule="evenodd" fill-opacity="1" /><path clip-path="url(#clip640)" d="M89.3667 1658.68 L107.723 1658.68 L107.723 1662.61 L93.6491 1662.61 L93.6491 1671.08 Q94.6676 1670.74 95.6861 1670.57 Q96.7047 1670.39 97.7232 1670.39 Q103.51 1670.39 106.89 1673.56 Q110.269 1676.73 110.269 1682.15 Q110.269 1687.73 106.797 1690.83 Q103.325 1693.91 97.0056 1693.91 Q94.8297 1693.91 92.5612 1693.54 Q90.3158 1693.17 87.9084 1692.43 L87.9084 1687.73 Q89.9917 1688.86 92.2139 1689.42 Q94.4361 1689.97 96.913 1689.97 Q100.918 1689.97 103.256 1687.87 Q105.593 1685.76 105.593 1682.15 Q105.593 1678.54 103.256 1676.43 Q100.918 1674.32 96.913 1674.32 Q95.038 1674.32 93.163 1674.74 Q91.3112 1675.16 89.3667 1676.04 L89.3667 1658.68 Z" fill="#000000" fill-rule="evenodd" fill-opacity="1" /><path clip-path="url(#clip640)" d="M98.325 1285.78 Q94.7139 1285.78 92.8852 1289.35 Q91.0797 1292.89 91.0797 1300.02 Q91.0797 1307.13 92.8852 1310.69 Q94.7139 1314.23 98.325 1314.23 Q101.959 1314.23 103.765 1310.69 Q105.593 1307.13 105.593 1300.02 Q105.593 1292.89 103.765 1289.35 Q101.959 1285.78 98.325 1285.78 M98.325 1282.08 Q104.135 1282.08 107.191 1286.69 Q110.269 1291.27 110.269 1300.02 Q110.269 1308.75 107.191 1313.35 Q104.135 1317.94 98.325 1317.94 Q92.5149 1317.94 89.4362 1313.35 Q86.3806 1308.75 86.3806 1300.02 Q86.3806 1291.27 89.4362 1286.69 Q92.5149 1282.08 98.325 1282.08 Z" fill="#000000" fill-rule="evenodd" fill-opacity="1" /><path clip-path="url(#clip640)" d="M89.3667 906.732 L107.723 906.732 L107.723 910.667 L93.6491 910.667 L93.6491 919.139 Q94.6676 918.792 95.6861 918.63 Q96.7047 918.445 97.7232 918.445 Q103.51 918.445 106.89 921.616 Q110.269 924.787 110.269 930.204 Q110.269 935.782 106.797 938.884 Q103.325 941.963 97.0056 941.963 Q94.8297 941.963 92.5612 941.593 Q90.3158 941.222 87.9084 940.482 L87.9084 935.782 Q89.9917 936.917 92.2139 937.472 Q94.4361 938.028 96.913 938.028 Q100.918 938.028 103.256 935.921 Q105.593 933.815 105.593 930.204 Q105.593 926.593 103.256 924.486 Q100.918 922.38 96.913 922.38 Q95.038 922.38 93.163 922.796 Q91.3112 923.213 89.3667 924.093 L89.3667 906.732 Z" fill="#000000" fill-rule="evenodd" fill-opacity="1" /><path clip-path="url(#clip640)" d="M58.9734 561.384 L66.6122 561.384 L66.6122 535.019 L58.3021 536.685 L58.3021 532.426 L66.5659 530.759 L71.2418 530.759 L71.2418 561.384 L78.8807 561.384 L78.8807 565.319 L58.9734 565.319 L58.9734 561.384 Z" fill="#000000" fill-rule="evenodd" fill-opacity="1" /><path clip-path="url(#clip640)" d="M98.325 533.838 Q94.7139 533.838 92.8852 537.403 Q91.0797 540.944 91.0797 548.074 Q91.0797 555.18 92.8852 558.745 Q94.7139 562.287 98.325 562.287 Q101.959 562.287 103.765 558.745 Q105.593 555.18 105.593 548.074 Q105.593 540.944 103.765 537.403 Q101.959 533.838 98.325 533.838 M98.325 530.134 Q104.135 530.134 107.191 534.741 Q110.269 539.324 110.269 548.074 Q110.269 556.801 107.191 561.407 Q104.135 565.991 98.325 565.991 Q92.5149 565.991 89.4362 561.407 Q86.3806 556.801 86.3806 548.074 Q86.3806 539.324 89.4362 534.741 Q92.5149 530.134 98.325 530.134 Z" fill="#000000" fill-rule="evenodd" fill-opacity="1" /><path clip-path="url(#clip640)" d="M59.9687 185.412 L67.6076 185.412 L67.6076 159.046 L59.2974 160.713 L59.2974 156.454 L67.5613 154.787 L72.2372 154.787 L72.2372 185.412 L79.876 185.412 L79.876 189.347 L59.9687 189.347 L59.9687 185.412 Z" fill="#000000" fill-rule="evenodd" fill-opacity="1" /><path clip-path="url(#clip640)" d="M89.3667 154.787 L107.723 154.787 L107.723 158.722 L93.6491 158.722 L93.6491 167.194 Q94.6676 166.847 95.6861 166.685 Q96.7047 166.5 97.7232 166.5 Q103.51 166.5 106.89 169.671 Q110.269 172.842 110.269 178.259 Q110.269 183.838 106.797 186.94 Q103.325 190.018 97.0056 190.018 Q94.8297 190.018 92.5612 189.648 Q90.3158 189.277 87.9084 188.537 L87.9084 183.838 Q89.9917 184.972 92.2139 185.528 Q94.4361 186.083 96.913 186.083 Q100.918 186.083 103.256 183.977 Q105.593 181.87 105.593 178.259 Q105.593 174.648 103.256 172.541 Q100.918 170.435 96.913 170.435 Q95.038 170.435 93.163 170.852 Q91.3112 171.268 89.3667 172.148 L89.3667 154.787 Z" fill="#000000" fill-rule="evenodd" fill-opacity="1" /><polyline clip-path="url(#clip642)" style="stroke:#009af9; stroke-linecap:butt; stroke-linejoin:round; stroke-width:4; stroke-opacity:1; fill:none" points="
  221.066,1751.15 236.36,1750.13 377.782,1736.92 462.77,1725.47 534.627,1713.57 612.683,1698.22 684.644,1681.71 761.794,1661.39 851.179,1634.29 930.615,1606.84 
  1000.27,1580.04 1076.22,1547.82 1152.61,1512.12 1237.08,1468.66 1317.45,1423.28 1401.01,1371.75 1471.36,1324.84 1514.3,1294.56 1557.24,1263.02 1596.57,1232.99 
  1635.91,1201.87 1672.24,1172.14 1708.57,1141.44 1745.37,1109.34 1782.17,1076.23 1823.42,1037.89 1864.66,998.239 1902.03,961.156 1939.41,922.963 1982.2,877.852 
  2024.99,831.244 2064.61,786.736 2104.23,740.91 2143.29,694.422 2182.35,646.619 2220.27,598.932 2258.2,549.974 2297.07,498.451 2335.95,445.56 2378.55,386.023 
  2421.14,324.802 2483.02,232.827 2544.89,137.188 2557.59,117.109 2570.28,96.8724 
  "/>
<polyline clip-path="url(#clip642)" style="stroke:#e26f46; stroke-linecap:butt; stroke-linejoin:round; stroke-width:4; stroke-opacity:1; fill:none" points="
  1395.67,1299.98 1395.67,1375.18 1513.13,1299.98 
  "/>
<circle clip-path="url(#clip642)" cx="1395.67" cy="1299.98" r="14.4" fill="#3da44d" fill-rule="evenodd" fill-opacity="1" stroke="#000000" stroke-opacity="1" stroke-width="3.84"/>
<circle clip-path="url(#clip642)" cx="1513.13" cy="1299.98" r="14.4" fill="#3da44d" fill-rule="evenodd" fill-opacity="1" stroke="#000000" stroke-opacity="1" stroke-width="3.84"/>
</svg>
