<?xml version="1.0" encoding="utf-8"?>
<svg xmlns="http://www.w3.org/2000/svg" xmlns:xlink="http://www.w3.org/1999/xlink" width="672" height="480" viewBox="0 0 2688 1920">
<defs>
  <clipPath id="clip700">
    <rect x="0" y="0" width="2688" height="1920"/>
  </clipPath>
</defs>
<path clip-path="url(#clip700)" d="M0 1920 L2688 1920 L2688 0 L0 0  Z" fill="#ffffff" fill-rule="evenodd" fill-opacity="1"/>
<defs>
  <clipPath id="clip701">
    <rect x="537" y="0" width="1883" height="1883"/>
  </clipPath>
</defs>
<path clip-path="url(#clip700)" d="M152.071 1800.78 L2640.76 1800.78 L2640.76 47.2441 L152.071 47.2441  Z" fill="#ffffff" fill-rule="evenodd" fill-opacity="1"/>
<defs>
  <clipPath id="clip702">
    <rect x="152" y="47" width="2490" height="1755"/>
  </clipPath>
</defs>
<polyline clip-path="url(#clip702)" style="stroke:#000000; stroke-linecap:round; stroke-linejoin:round; stroke-width:2; stroke-opacity:0.1; fill:none" points="222.505,1800.78 222.505,47.2441 "/>
<polyline clip-path="url(#clip702)" style="stroke:#000000; stroke-linecap:round; stroke-linejoin:round; stroke-width:2; stroke-opacity:0.1; fill:none" points="1005.11,1800.78 1005.11,47.2441 "/>
<polyline clip-path="url(#clip702)" style="stroke:#000000; stroke-linecap:round; stroke-linejoin:round; stroke-width:2; stroke-opacity:0.1; fill:none" points="1787.72,1800.78 1787.72,47.2441 "/>
<polyline clip-path="url(#clip702)" style="stroke:#000000; stroke-linecap:round; stroke-linejoin:round; stroke-width:2; stroke-opacity:0.1; fill:none" points="2570.32,1800.78 2570.32,47.2441 "/>
<polyline clip-path="url(#clip700)" style="stroke:#000000; stroke-linecap:round; stroke-linejoin:round; stroke-width:4; stroke-opacity:1; fill:none" points="152.071,1800.78 2640.76,1800.78 "/>
<polyline clip-path="url(#clip700)" style="stroke:#000000; stroke-linecap:round; stroke-linejoin:round; stroke-width:4; stroke-opacity:1; fill:none" points="222.505,1800.78 222.505,1781.88 "/>
<polyline clip-path="url(#clip700)" style="stroke:#000000; stroke-linecap:round; stroke-linejoin:round; stroke-width:4; stroke-opacity:1; fill:none" points="1005.11,1800.78 1005.11,1781.88 "/>
<polyline clip-path="url(#clip700)" style="stroke:#000000; stroke-linecap:round; stroke-linejoin:round; stroke-width:4; stroke-opacity:1; fill:none" points="1787.72,1800.78 1787.72,1781.88 "/>
<polyline clip-path="url(#clip700)" style="stroke:#000000; stroke-linecap:round; stroke-linejoin:round; stroke-width:4; stroke-opacity:1; fill:none" points="2570.32,1800.78 2570.32,1781.88 "/>
<path clip-path="url(#clip700)" d="M192.262 1848.65 L221.938 1848.65 L221.938 1852.59 L192.262 1852.59 L192.262 1848.65 Z" fill="#000000" fill-rule="evenodd" fill-opacity="1" /><path clip-path="url(#clip700)" d="M232.841 1861.55 L240.48 1861.55 L240.48 1835.18 L232.17 1836.85 L232.17 1832.59 L240.433 1830.92 L245.109 1830.92 L245.109 1861.55 L252.748 1861.55 L252.748 1865.48 L232.841 1865.48 L232.841 1861.55 Z" fill="#000000" fill-rule="evenodd" fill-opacity="1" /><path clip-path="url(#clip700)" d="M1005.11 1834 Q1001.5 1834 999.671 1837.57 Q997.865 1841.11 997.865 1848.24 Q997.865 1855.34 999.671 1858.91 Q1001.5 1862.45 1005.11 1862.45 Q1008.74 1862.45 1010.55 1858.91 Q1012.38 1855.34 1012.38 1848.24 Q1012.38 1841.11 1010.55 1837.57 Q1008.74 1834 1005.11 1834 M1005.11 1830.3 Q1010.92 1830.3 1013.98 1834.9 Q1017.06 1839.49 1017.06 1848.24 Q1017.06 1856.96 1013.98 1861.57 Q1010.92 1866.15 1005.11 1866.15 Q999.301 1866.15 996.222 1861.57 Q993.166 1856.96 993.166 1848.24 Q993.166 1839.49 996.222 1834.9 Q999.301 1830.3 1005.11 1830.3 Z" fill="#000000" fill-rule="evenodd" fill-opacity="1" /><path clip-path="url(#clip700)" d="M1778.1 1861.55 L1785.74 1861.55 L1785.74 1835.18 L1777.43 1836.85 L1777.43 1832.59 L1785.69 1830.92 L1790.37 1830.92 L1790.37 1861.55 L1798.01 1861.55 L1798.01 1865.48 L1778.1 1865.48 L1778.1 1861.55 Z" fill="#000000" fill-rule="evenodd" fill-opacity="1" /><path clip-path="url(#clip700)" d="M2564.97 1861.55 L2581.29 1861.55 L2581.29 1865.48 L2559.35 1865.48 L2559.35 1861.55 Q2562.01 1858.79 2566.59 1854.16 Q2571.2 1849.51 2572.38 1848.17 Q2574.63 1845.65 2575.51 1843.91 Q2576.41 1842.15 2576.41 1840.46 Q2576.41 1837.71 2574.46 1835.97 Q2572.54 1834.23 2569.44 1834.23 Q2567.24 1834.23 2564.79 1835 Q2562.36 1835.76 2559.58 1837.31 L2559.58 1832.59 Q2562.4 1831.46 2564.86 1830.88 Q2567.31 1830.3 2569.35 1830.3 Q2574.72 1830.3 2577.91 1832.98 Q2581.11 1835.67 2581.11 1840.16 Q2581.11 1842.29 2580.3 1844.21 Q2579.51 1846.11 2577.4 1848.7 Q2576.83 1849.37 2573.72 1852.59 Q2570.62 1855.78 2564.97 1861.55 Z" fill="#000000" fill-rule="evenodd" fill-opacity="1" /><polyline clip-path="url(#clip702)" style="stroke:#000000; stroke-linecap:round; stroke-linejoin:round; stroke-width:2; stroke-opacity:0.1; fill:none" points="152.071,1757.97 2640.76,1757.97 "/>
<polyline clip-path="url(#clip702)" style="stroke:#000000; stroke-linecap:round; stroke-linejoin:round; stroke-width:2; stroke-opacity:0.1; fill:none" points="152.071,1289.18 2640.76,1289.18 "/>
<polyline clip-path="url(#clip702)" style="stroke:#000000; stroke-linecap:round; stroke-linejoin:round; stroke-width:2; stroke-opacity:0.1; fill:none" points="152.071,820.398 2640.76,820.398 "/>
<polyline clip-path="url(#clip702)" style="stroke:#000000; stroke-linecap:round; stroke-linejoin:round; stroke-width:2; stroke-opacity:0.1; fill:none" points="152.071,351.611 2640.76,351.611 "/>
<polyline clip-path="url(#clip700)" style="stroke:#000000; stroke-linecap:round; stroke-linejoin:round; stroke-width:4; stroke-opacity:1; fill:none" points="152.071,1800.78 152.071,47.2441 "/>
<polyline clip-path="url(#clip700)" style="stroke:#000000; stroke-linecap:round; stroke-linejoin:round; stroke-width:4; stroke-opacity:1; fill:none" points="152.071,1757.97 170.969,1757.97 "/>
<polyline clip-path="url(#clip700)" style="stroke:#000000; stroke-linecap:round; stroke-linejoin:round; stroke-width:4; stroke-opacity:1; fill:none" points="152.071,1289.18 170.969,1289.18 "/>
<polyline clip-path="url(#clip700)" style="stroke:#000000; stroke-linecap:round; stroke-linejoin:round; stroke-width:4; stroke-opacity:1; fill:none" points="152.071,820.398 170.969,820.398 "/>
<polyline clip-path="url(#clip700)" style="stroke:#000000; stroke-linecap:round; stroke-linejoin:round; stroke-width:4; stroke-opacity:1; fill:none" points="152.071,351.611 170.969,351.611 "/>
<path clip-path="url(#clip700)" d="M49.5521 1758.42 L79.2279 1758.42 L79.2279 1762.36 L49.5521 1762.36 L49.5521 1758.42 Z" fill="#000000" fill-rule="evenodd" fill-opacity="1" /><path clip-path="url(#clip700)" d="M102.168 1744.77 L90.3621 1763.21 L102.168 1763.21 L102.168 1744.77 M100.941 1740.69 L106.82 1740.69 L106.82 1763.21 L111.751 1763.21 L111.751 1767.1 L106.82 1767.1 L106.82 1775.25 L102.168 1775.25 L102.168 1767.1 L86.5658 1767.1 L86.5658 1762.59 L100.941 1740.69 Z" fill="#000000" fill-rule="evenodd" fill-opacity="1" /><path clip-path="url(#clip700)" d="M51.6354 1289.64 L81.3112 1289.64 L81.3112 1293.57 L51.6354 1293.57 L51.6354 1289.64 Z" fill="#000000" fill-rule="evenodd" fill-opacity="1" /><path clip-path="url(#clip700)" d="M95.4315 1302.53 L111.751 1302.53 L111.751 1306.46 L89.8065 1306.46 L89.8065 1302.53 Q92.4686 1299.77 97.0519 1295.15 Q101.658 1290.49 102.839 1289.15 Q105.084 1286.63 105.964 1284.89 Q106.867 1283.13 106.867 1281.44 Q106.867 1278.69 104.922 1276.95 Q103.001 1275.21 99.8991 1275.21 Q97.7 1275.21 95.2463 1275.98 Q92.8158 1276.74 90.038 1278.29 L90.038 1273.57 Q92.8621 1272.44 95.3158 1271.86 Q97.7695 1271.28 99.8065 1271.28 Q105.177 1271.28 108.371 1273.96 Q111.566 1276.65 111.566 1281.14 Q111.566 1283.27 110.756 1285.19 Q109.968 1287.09 107.862 1289.68 Q107.283 1290.35 104.181 1293.57 Q101.08 1296.77 95.4315 1302.53 Z" fill="#000000" fill-rule="evenodd" fill-opacity="1" /><path clip-path="url(#clip700)" d="M99.8065 806.197 Q96.1954 806.197 94.3667 809.762 Q92.5612 813.303 92.5612 820.433 Q92.5612 827.539 94.3667 831.104 Q96.1954 834.646 99.8065 834.646 Q103.441 834.646 105.246 831.104 Q107.075 827.539 107.075 820.433 Q107.075 813.303 105.246 809.762 Q103.441 806.197 99.8065 806.197 M99.8065 802.493 Q105.617 802.493 108.672 807.099 Q111.751 811.683 111.751 820.433 Q111.751 829.16 108.672 833.766 Q105.617 838.349 99.8065 838.349 Q93.9963 838.349 90.9176 833.766 Q87.8621 829.16 87.8621 820.433 Q87.8621 811.683 90.9176 807.099 Q93.9963 802.493 99.8065 802.493 Z" fill="#000000" fill-rule="evenodd" fill-opacity="1" /><path clip-path="url(#clip700)" d="M95.4315 364.956 L111.751 364.956 L111.751 368.891 L89.8065 368.891 L89.8065 364.956 Q92.4686 362.202 97.0519 357.572 Q101.658 352.919 102.839 351.577 Q105.084 349.054 105.964 347.317 Q106.867 345.558 106.867 343.868 Q106.867 341.114 104.922 339.378 Q103.001 337.642 99.8991 337.642 Q97.7 337.642 95.2463 338.405 Q92.8158 339.169 90.038 340.72 L90.038 335.998 Q92.8621 334.864 95.3158 334.285 Q97.7695 333.706 99.8065 333.706 Q105.177 333.706 108.371 336.392 Q111.566 339.077 111.566 343.567 Q111.566 345.697 110.756 347.618 Q109.968 349.517 107.862 352.109 Q107.283 352.78 104.181 355.998 Q101.08 359.192 95.4315 364.956 Z" fill="#000000" fill-rule="evenodd" fill-opacity="1" /><polyline clip-path="url(#clip702)" style="stroke:#009af9; stroke-linecap:round; stroke-linejoin:round; stroke-width:4; stroke-opacity:1; fill:none" points="222.505,394.132 226.327,392.511 230.148,391.106 233.97,389.911 237.791,388.924 255.458,386.946 273.125,388.927 290.792,394.462 308.459,403.14 326.127,414.55 343.794,428.289 361.461,443.969 379.128,461.217 400.362,483.529 421.597,507.038 442.831,531.236 464.066,555.671 499.973,596.455 535.88,635.278 574.884,673.946 613.889,708.09 631.869,722.164 649.848,735.155 667.828,747.061 685.808,757.89 705.084,768.328 724.36,777.589 743.636,785.72 762.911,792.777 785.245,799.694 807.578,805.362 829.911,809.897 852.244,813.417 931.632,819.622 1001.25,820.398 1077.15,821.129 1153.5,826.784 1174.6,829.908 1195.71,833.91 1216.81,838.891 1237.92,844.95 1258,851.802 1278.08,859.79 1298.16,868.98 1318.24,879.43 1339.12,891.681 1359.99,905.379 1380.87,920.54 1401.75,937.157 1419.33,952.251 1436.9,968.318 1454.48,985.304 1472.05,1003.14 1557.88,1098.62 1636.51,1185.01 1654.66,1202.26 1672.82,1217.72 1690.97,1230.99 1709.12,1241.63 1727.51,1249.28 1745.9,1253.33 1755.1,1253.85 1764.29,1253.3 1773.49,1251.62 1782.68,1248.75 1792.99,1244.07 1803.29,1237.76 1813.6,1229.77 1823.9,1220.02 1834.21,1208.47 1844.51,1195.07 1854.82,1179.77 1865.12,1162.55 1874.46,1145.27 1883.8,1126.38 1893.13,1105.88 1902.47,1083.77 1911.81,1060.08 1921.15,1034.82 1930.49,1008.03 1939.82,979.753 1950.51,945.62 1961.21,909.707 1971.9,872.13 1982.59,833.028 2003.97,750.898 2025.35,664.823 2045.15,583.199 2064.95,501.458 2084.75,421.507 2104.54,345.431 2114.3,310.033 2124.06,276.392 2133.82,244.788 2143.58,215.5 2153.34,188.81 2163.1,164.995 2172.86,144.325 2182.62,127.064 2192.09,113.807 2201.57,104.223 2211.05,98.515 2220.52,96.8724 2230,99.4636 2239.47,106.435 2244.21,111.602 2248.95,117.908 2253.69,125.363 2258.42,133.977 2263.28,144.018 2268.14,155.289 2272.99,167.795 2277.85,181.535 2282.71,196.508 2287.56,212.711 2292.42,230.136 2297.28,248.774 2302.13,268.614 2306.99,289.64 2311.85,311.835 2316.7,335.179 2326.42,385.215 2336.13,439.527 2341.45,470.997 2346.77,503.62 2352.1,537.341 2357.42,572.101 2368.06,644.481 2378.7,720.203 2399.99,879.124 2421.27,1043.16 2436.73,1161.82 2452.19,1277.02 2459.92,1332.44 2467.65,1385.92 2475.38,1437.1 2483.11,1485.62 2490.84,1531.12 2498.57,1573.25 2506.3,1611.67 2514.03,1646.04 2517.89,1661.61 2521.76,1676.05 2525.62,1689.33 2529.49,1701.41 2533.35,1712.26 2537.22,1721.84 2541.08,1730.12 2544.95,1737.07 2548.12,1741.77 2551.29,1745.54 2554.46,1748.36 2557.63,1750.24 2560.81,1751.15 2563.98,1751.09 2567.15,1750.04 2570.32,1747.99 "/>
<path clip-path="url(#clip700)" d="M235.027 1742.33 L536.326 1742.33 L536.326 1638.65 L235.027 1638.65  Z" fill="#ffffff" fill-rule="evenodd" fill-opacity="1"/>
<polyline clip-path="url(#clip700)" style="stroke:#000000; stroke-linecap:round; stroke-linejoin:round; stroke-width:4; stroke-opacity:1; fill:none" points="235.027,1742.33 536.326,1742.33 536.326,1638.65 235.027,1638.65 235.027,1742.33 "/>
<polyline clip-path="url(#clip700)" style="stroke:#009af9; stroke-linecap:round; stroke-linejoin:round; stroke-width:4; stroke-opacity:1; fill:none" points="262.679,1690.49 428.591,1690.49 "/>
<path clip-path="url(#clip700)" d="M470.086 1710.18 Q468.28 1714.81 466.568 1716.22 Q464.855 1717.63 461.984 1717.63 L458.581 1717.63 L458.581 1714.06 L461.081 1714.06 Q462.841 1714.06 463.813 1713.23 Q464.785 1712.4 465.966 1709.3 L466.73 1707.35 L456.243 1681.84 L460.757 1681.84 L468.859 1702.12 L476.961 1681.84 L481.475 1681.84 L470.086 1710.18 Z" fill="#000000" fill-rule="evenodd" fill-opacity="1" /><path clip-path="url(#clip700)" d="M488.766 1703.83 L496.405 1703.83 L496.405 1677.47 L488.095 1679.13 L488.095 1674.87 L496.359 1673.21 L501.035 1673.21 L501.035 1703.83 L508.674 1703.83 L508.674 1707.77 L488.766 1707.77 L488.766 1703.83 Z" fill="#000000" fill-rule="evenodd" fill-opacity="1" /></svg>
